<?xml version="1.0" encoding="utf-8"?>
<!-- Generator: Adobe Illustrator 21.1.0, SVG Export Plug-In . SVG Version: 6.00 Build 0)  -->
<svg version="1.1" id="Layer_1" xmlns="http://www.w3.org/2000/svg" xmlns:xlink="http://www.w3.org/1999/xlink" x="0px" y="0px"
	 viewBox="0 0 1559 1190" style="enable-background:new 0 0 1559 1190;" xml:space="preserve">
<style type="text/css">
	.st0{fill:#F3F2EA;}
	.st1{fill:#47697B;}
	.st2{fill:#236592;}
	.st3{fill:#7D7F7D;}
	.st4{fill:#178F98;}
</style>
<path id="map-background" class="st0" d="M248,855.7l4.6-3.5v-5.8l-2.8-1.8l3.1-4.6l0.2-4.3l-1.3-1.5l1.3-3.4l-0.9-2.4l-4,4.6
	l0.7,6.8l-1.2,2.4l0.8,2.8l-2.4,8.9L248,855.7z M277.7,967.3l-2.4-2.2l-2.9,2.9l0.1,4.1l2.1,1.2l1.6,4.2l2.4-2.9l-1.2-3.4
	L277.7,967.3z M252.7,926.2l1.3-2.5l-3.8,1.2L252.7,926.2z M272.8,960.2l-2.1,2.7l1.3,1.3l3.2-3.9L272.8,960.2z M271.3,944.1
	l-1.5-1.5l-1.7,3.5l1.8,3l1.5-1.8L271.3,944.1z M234.7,875.4l4.6,1.2l-1.6-2.8L234.7,875.4z M263.8,950.6l1,2.8l2.7,1.8l1.9-1.3
	l-2.1-4L263.8,950.6z M259,940l1.1,3.1l3.3,3.2l-1.6-5.5L259,940z M246.8,866.7l1.3-4.4l2.4-2.1v-1.9l-5.6,1.9v5.9l-1.3,2.7l2.2,4.7
	l-1.2,3.4l1.2,2.8l3-6.5l-0.4-3.8L246.8,866.7z M242.5,890.7l-0.4,4.4v3.6l4-0.1l2.1-5.3l-1.3-4.7L242.5,890.7z M795.2,434.8
	l-3.9-2.4l-2.4,0.3l-1.7-0.7l1,2.8l4.1,1.3l2.9,2L795.2,434.8z M811.3,609.5l-7.3,13.5l-3.6,14l-2.4,2.1l2.2,3.3l0.3,13.8l1,14.2
	l3.4,2.3l1,4.1l-1.5,0.5l-0.3,4.3l3.7,5.9l3.6,1l1,4.6l9.5,3.3l4.9,7.7l-0.5,8.1l0.5,5.9l4.9-1.8l4.9,1.8l-1.5-7.2l1.7-8.4
	l-3.4-10.4l5.6-7.9l8.5-13.5l0.3-8.7l2.4-2.5l-3.1-1.3l1.9-13.5l0.7-9.4L848,625l3.6-7.4l1.7-18.3l2.2-9.4l2.4-0.5l-1.2-6.1
	l-5.8-4.6h-2.2l-3.7-7.9l-7.5-2.8l-4.4,2.5l0.7,4.8l-6.1,2.3l-7.3,8.7l-6.8,12.2l1.7,3.3l-1.2,4.8L811.3,609.5z M772,154.7l2.6-5.9
	v-3.9l5.9-3.9l3.9-7.5l4.3-2l3.6-11.1l2-3.9l-0.3-2.3l0.3-7.5l4.3-5.2l4.3,6.6l3.6,2l3.3,2.9l3.9-1.6l4.9,2l9.2-1l5.9,1l3-6.2
	l-0.3-3.3l-4.9-4.9l-4.9-3.6l3.9-2.3l5.3-0.7l8.9-7.2v-4.9L848,75l4.6-0.7l1.6-4.3l-1.6-3.3l0.3-4.6v-4.9l2.9-1.3l3.9,3.3v4.6l2,2.3
	l7.2,1.6l1.1,1.6l0.5-1.2v-2.6l-1.7-1.1l-0.8-3.9l0.3-1.7l2.6-1.6l5.4,0.6l-10.4-0.4l0.1-3.9l-0.7-2.3l0.2-3l1.2-2.1l-0.2-4.1
	l-0.3-4l9.4-2v-7.8l-0.5-3.8l-0.5-5.5l0.2-4.1l1.2,0.6l-1.3-2.5l-1-3.1l-4.8-7.5l-1.5-3.4l0.9-1.9l2.5-1.6l2.4-0.2l2-2.6l0.9-2.8
	l3.8-5.8l1.6-0.4l3.3,0.9l2.6,1l13.1,2.4l2,0.6h2.3l1.6-2l-0.5-3l-1.3-2.3l-0.3-2.1l0.7-1.6 M580.1-3.9l0.3,4.3l-2.2,2.7l-4.3,1
	l-9.2,6.2h-4.9l-5-1l-2.4,1.8l-3.9,8.2l-3.8,2.8l-4.6,3.4l-2.8,3l-1.2,3.3l-2.1,0.4l-4.3-2.1l-5-1l-6.2-2.2l-5-3.6l-5-0.2l-8,1.6
	l-4.7,3.5l-3,4.3l-0.3,9l0.4,4.5l-0.3,2.8l9.2,6.1l8.4,5.2v2.5l-2.1,3.9l-2.7,4l-9,10.1l-5.3,8.8l-3,6.8h-3.4l-6.5,2.1l-4.9,0.3
	l-5.5,3.7l-5.6,4.2l-5.8,0.3l-8.4,0.9l-5.8,1.9l-6.7,1.9l-14.6,5.2l-11.5,3.9l-5.8,6.5l-8.9,7.1l-3.7,3.1l-4.9,0.1l-6.1-1.8v-2.2
	l-0.7-3.1l-8.7,2.5l-7.1,1l-7.4-3.9l-5.9-0.6l-13-4.9l-12.9-5.9l-6.8-6.7l-5.5-0.1l-14.8-1.6l-12.4,0.3l-3.2-0.8l-2.3,1.4l-1.2,2.3
	l-6.8,2.5l-9.7,1l-17-1.4l-12.4,0.7l-9.5-0.6l-8.1,0.9l-4.1,0.4l-3.6-1.2l-4.6-8.9l-1.8-4.4l-4.3-6.4l-3.6-4.3l-2.4-5.9l-0.3-2.6
	l-3-3.2l-3.1-1.1l-2-0.3l-0.9-2.3l-0.5-3.6l-1.4-0.6l-1.8,0.5l-5.8-0.1l-4.9-2.8l-7.6-5.4l-2.6-0.6l-1.9,0.1l-3.6-0.7l-1.7-2.4
	l-6.4-4.1l-13.9-3.2l-1.4,0.4l-1.8,1.5l-5.6,0.6l-8.9,0.1l-20.1-4.3l-4.4-2.6l-4.6-7l-0.8-3.3v-3.1l1.3-2.1l2.9-2.3l1.3-3.7
	l-2.3-2.8l-1-4.8l1-2.6l-0.3-4.6l-1.7-2.5L80.1,6l-3-1.5l-3.3-2.7l-1.3-3.6l-2.1-3 M-22.4-2.7L-23,0.1l-5.2,5.8l-4.4,1.6l-3.6,4.2
	l-2.9,1L-41,12l-1-2.4h-3.5l-8,1.8l-5.5-0.4l-8-2.8l-4.7-0.6l-2.4,0.3l-1.8,9.3l-1.8,5.9l-0.3,4.6l-1.9,11.9v9.2l-1,3.1l2.4,1.8
	l4.7,2.1l-1.9,4.2l-0.5,3.3h-2.7l-2.4,1.5h-3.3l-2.4-2.1l-2.7,1.2l-4.9,1.2l-9,1.9l-6.4,2.5l-2.9-0.1l-2.5-1.3l-3.4,1.4l-3.7,3.5
	l-0.1,2.8l3.5,2.8l5.7-0.4l4.7,0.6l0.1,1.9l-2.9,2.9l2,6.1l0.3,3.1l1.8,2.7l0.7,4.3l3.8,6.2l0.7,3.4l4.4,3.3l1.6,8.4l-2.5,2.2
	l-1.3,3.7l3.5,4l-1.8,1l-0.6,2.4l-3.9,2.7l0.2,5.4l-3.9,2.2l-9.2-2.4l-8.7-10.1l-3.7,0.9l-8.6-3.4l-12.6-0.7l-6.2,2.2l-10.5-2.8
	l-9.8,2.4l-5,0.7l-4.7-1.5l-3.7,3.3l-3.8,1.6l-11.3-1.5l-8.3-2.2l-4.3-2.5l-6.5,0.1l-2.2,1l-4.9-0.3l-3.8-0.7l-2.4,1.3l0.4,4.4
	l1.2,4.6l0.2,5.5l-6.4,1l-12.7,0.3l-15.1-1.5l-3.6-2.1l-6.8-0.9l-3.9,4.2l1.5,2.4l-4.5,2.9l-0.6,1.8l-1.3-0.2l3.4,0.4l0.3,4.3
	l-6.5,10.1l-3.1,5.2l3.9,2.4l9.2,2.7l3.7,3.6l3.7,1.3l3.5-3.9l0.6-5.8l2.6,0.6l10.1,7.8l1,4.2l-5.8,6.5l-7.1-0.5l-10.1,1.6l-1.6-3
	l-4.4-4.6l-6.5,6.7l-4.1-0.3l-5.5,4l-5.2,1.9l-0.3,4.9l6.4,3.1l-0.2,4.1l-6.9,3l-8.9,2.1l1.8,1.6l1.3,3.3l-8,2.8l-0.6,4.7l-3.7,1
	l-9.2-1.3l-4.1,3.3l0.2,6.4l5.3,7.7l3.6-1.9l5.8-0.1l1,4.6l-1.9,4.2l2.2,5.8l4.1,1.8l0.6,5.6l-1.9,2.4l-4.3,10.1l-1.5,13l-1.8-2.3
	l4.4,5.8l3.1,1.3l6.8-1.5l4.4-2.5l2.2-3.2l2.4-0.5l2.4-2.2l2.1,1.5l2.2,3l7.1,0.6l-0.2-3.3l-1.9-1.9l0.3-2.8l4.5-1.2l1.6-2.2h2.1
	l0.6,2.2l4.4-0.4l2.8-4.5l-1-5.6l1.8-2.8l2.5-2.2l0.7-5.9l2.1-3.7h4.9l3.6,2.5l3.7,1.9v3.3l-0.9,4.7l1.2,3.9l3.4-0.2l1.5,3.9
	l-0.3,5.2l0.6,4.2l0.3,8l3.1,4.2v2.8l3.7,1.5h5.2l3.5-2.7l0.7-2.1l7.1-3.3l3.3-3l0.9-3.8l2.7-2.4l9.3-5.9l5.9-1.3l1,4.3l7.7-0.9
	l2.7-3.3h8.7l1,3.5l-6.2,5.3l3.1,0.8l1.9-1.2l2.8-0.7l3.8,3.4l2.1-1.5l3.4,0.3l2.4-1.6l1.9-2.1l2.5,0.2l3.1,3l2.2,6.5l9.3,13.3
	l5.5,3.7l0.2,5.5l3.5,2.5l2.1,2.8l8.3,1l8.1-0.1l3.8,1l0.9,4.7l8,2.7l6.7,3.5l3.5,10.1l5.3,6.2l6.9,3.4l3,5.2l-0.4,9.8l4,9.2
	l5.3,1.3l2.4,9l1.3,7.4l-2.7,4.3l-0.8-2.8l-3.4-1.2l-5.9,6.3l1.3,2.6l0.3,3.4l5.5,2.8l-0.9,8l2.2,3.8l-1.3,2.5l2.2,1.5l2.5,3.6v3.1
	l1.9,0.6l1.3,4.5l4.6,2.2l2.4-3.8l4.6,0.1l1.9,2.2l4.7,0.7l4,4.3l3.1,1l2.4,4.9l3.5,0.6l1.5,3.4l0.3-0.4l0.9-1.2l6.1,3.1l1.5,2.2
	l4.1-0.1l2.2,1l2.5-3.7l5-0.5l7.5,2.8l2.1,2.1l4.9,0.3l3.1,2.2l6.1,6.4l4.7,0.1l4.4,2.2l1.6,2.7l3.7,4.3l1.8,4.4l2.1-0.9l0.4-6.1
	l2.4-2.2l1.5,1.8H34l4.3,2.7l0.6,5.6l5,4.4l6.5-1.8l5.2,0.7l-1.2,8.4l2.4,4.7l3.4-0.8l5.8,2.8l2.5-2.2l4.4-1.3l3.7-4.1l7.7,0.9
	l5,2.5l1.2,4.9l6.1,2.4l4.1,5.6l3.6,0.9l5.2-2.2l2.1,0.9l5.6-1.8l3.8,0.3l0.5,0l3.7-3.3l4.7-0.6l2.4,4.3l0.3,5.2l4,3l0.2-0.1l4-1.9
	l4.6-9l10-5.9l6.5-0.9l2.1,3.4l9.9,1l3.8,1.8l5.3-2.1l5.2,0.2l3.4,4.5l0.9-0.1l2.8-0.2l7.6-1.8l3.3-0.3l2.1-5l3-2.3l3.2,1.1l0.1-2.7
	l4.3-1.2l1.4-4.2l3.4-4.3l4.5-0.7l7.6-1.8l4.6-5.8l-0.3-4.5l3-0.6l4.6-3.3l3.7,5.3l5.3-1.5l7.9,2.5l2.2-2.1l-0.6-3.7l8.9-5.2l3.2,1
	l2.2,3l2.8-0.7l0.9,1.9l-3,5.6l1.6,3.3l2.5-0.7l2.7-0.7l0.9,3.1l3,4v2.8l-3.3,3.6l1,3.4l4.4,0.7l2.5-1l3.8,1.6l3.2,3.3l3.4-1.7
	l4.7,2.1l3.1-1.8l4.7,0.1l2.7,5.5l4,3l1.2,6.4l3.6-0.1l3.7,4.2v6.2l3.4,7l0.5,6.2l-1.2,8.7v4.2l-0.9,2.5l-3.8,1.8l-0.4,3.9l-1.9,0.6
	l-1,2.8l1.8,4l-1.6,2.4l-2.7-1l-2.8,3l-1.6,3.6l1.8,2.7l-1.9,3.1v3.4l3.5,1.5l1.5,2.7l2.9,2.7l-0.6,4.9l1.9,4.7l4.9-3.6l9.3-1.9
	l0.9,3.3l-1.3,2.5l2.5,2.1l5.3-1.3l1,3.6l-1.3,3.5l2.4,3.3l5.3,1.2l-1,1.9l1.6,2.6l0.7-1.6l5.8-0.7l4.1,2.7v3.1l-1.8,3.6l0.1,2.9
	l-4.7,6.7l-3.8,3.8l0.7,2.8l3.1-1.5l6.5,0.7l1,1.2l3.1-2.8l2.8,3.7l-1.2,5.5l1.3,3.8l4.7,2.4l2.8-2.7h4.6l9.3-4l4,1.3l-0.4,3.9
	l-5.8,5l4-3.5l2.6,1.9l1.8,3.4l5.3-1.6l3.5,0.9l-1.2-5.2l-0.3-4.9l-1.5-4.3l-0.3-6.9l2.8-1.9v-3l7.7-0.3l1.5,3l-1.3-2.6l1.4-1.2
	l1.7-0.3l1.1-2.1l2.2-2l4.3-1.7l2.7,0.3l-0.3,3.1l1.8,1.5l2.8,0l0.7-3.9l3.1-2.3l4.1,4.1l2.1-2.9l2.4,0.1l1,3l4.6-2.2l0.7-3l5-1.5
	l4,2.3l6.9-2.3l-0.3-6.4l4.4-2.5h5l2.8-2.8l4.4,3.6v2.7l4.6,0.9l1.8,2.7l9.3-0.1l1.6,2.1l5.5-2.2l3.6,2.8l-0.7,4l-3,0.4l-2.1,7.5
	l2.4,0.9l1.2,4.3l8.3,2.9l1.2,3l4,1.8l4.1,2.1l4.2-1.3l1.8,1.4l2.5-0.7l3.5,1.9l1.2,0.3l1.5-0.9l2.5,1.1l3.3-1.4l-0.2-2.2l0.9-4
	l2,3.7l3.8,3.9l2-0.7l5,4.2l2.2-0.7l2.8,0.3l2.1-3.6l2.9,2.7l2.9-0.9l2.2,0.9l0.2,1.4l-3,0.4l-0.7,3.6l-2.9,3.6l-0.1,2.4l4.9,6.8
	l2.9,1.8l-0.1,1.9l0.6,4.4l0.9-0.9l1.6-2.8l4.5,0.9l0.1,1.1h2.3l3.6-4.5l-1-1.8l-1.6-0.3v-1.2l-2.1-4.1h-2.4l-1.5-3.8l0.9-1.6
	l2.9-2.3l0.7-2.7l-0.6-2.2l1-0.1l1.4-1.5l0.4,1.1l0.9,1.5h1.1l-0.7,0.6l0.2,0.9l1.9,0.3l-0.8,1.1l1.1,0.2l2.2-2.3l4-0.6l1.5-3
	l3.3,1.2l3.7-1.3l4.4-2.4l-1.6-2.7l3.5,0.1l4-1.2l4,1.4l2.4-0.7l4.5-2.2l3.9-3.9l2.6-3.6l0.4-1.6l1.1,1l1.7,1.4l1.9-1.5l1.9-3.1
	l3.2-1.7l-0.7-5l-0.9-3.6l0.3-2.9l-0.9-2.2l2,1.8l5.1,2.5l0.6,2.7l4.2,4.1l2.7-0.7l-2,3l-2.6,1.2l0.5,1.7l7.3-3.6l0.5-4l3.7-1.3
	l1.9-1.7l3.3,1.9l3.3-0.8l0.3-2.8l3.3-0.8l0.9-2l1.5,2.5l-7.9,6.4l2-1.7l0.6-3.6h2.2l0.3,1.3h3.4l0.5-2l4.7-0.6l2.5-2.5l1.9-1.7
	l0.5,2.3l1.4-1.9l2.2,0.6l3.4-1.5l-1.5-2.7l1.7-2.5l1.4-4.4l-1.9-4.2l2,0.6l1.4-2.2l5.1-0.8l0.5,1.9h3.9l0.9-4.8h2l0.6-3.3l1.9-0.1
	l0.3,1.7l1.2-0.8l2.5-3.7l2.3,2.8l0.6-4.2l2.3-0.3l1.5-3.3l-3.6-0.8l-2.9,1.1l-5.1-3.9l6.8-0.3l3.1-4.3l1.6,1.5l2.2-2l5.6,3.4
	l1.6-4.3l-3.4-1.1l-1.4-2l0.6-2.6l4.2,3l2.3-2.8l-0.5-1.1h-2.8l-0.6-3.7l-2.2-1.7l2.9-0.8l1.5,2h2l1.4,2l0.2-3.4l-3.6-2.6l0.3-3.3
	h2.2l1.4-2.5l3.1,2.8v2.8h2.2l2.2,3.4l0.3-5l-1.6-2.9h-2l-0.8-2.3l2.8-0.8l0.5-2.7l-3.4-1.1l4.7-4l-2.3-2.3l-3.2,0.2l-1.6,1.6
	l0.7-3.2l4.3-3l6.8-3l-2.2-2.3l-2.5,2.3l-5-4.3h4.3l-2.8-3.7l-3.3-0.3l2.2-1.9l-1.7-2.2l2.6,0.6l0.8-3.4l1.2,0.3l2.2-0.3l-0.3,4.1
	h2.6l5.1-5.4l0.3-2.5l4.7,0.3l-2.8-3.4l-3.1-0.3l0.9-3.6l2.8,3l3.4-1.7l-0.2-3.6l1.4-1.6l-1.7-2.3l0.3-2.8l2.3-1.6l-1.6-2.5v-2.2
	l-3.9-2.2l5.6,1.8l2.3-1.9l3.1-7.3l3.3-0.5l0.7,3.3l1.1,1.5l0.8-4.1l2.9-1.9l-2.2-3.8l-3.9-0.3l-1.8-1.7l1.7-1.4l2.8,0.5l2.3-2.2
	l-1.9-2l-2.6-1.3l2.8-2.6l1.4,0.3l0.6-1.7l-2.2-2.1l-6.7,0.3l0.4-1.9l4.3-3.7l3.9,1l1.2-0.9l0.5-2.1l2.5,1.3l0.2,1.5l2.6-2l-1.2-2.5
	l-0.6-6.1l-2.2-1.4l-2.5,2.5l0.8,1.1v1.9l-4.4-0.9l-5.3,4.5l-2.8-0.5v-3.7l5.6-1.1l9.2-8.5l-0.6-1.3h-4l-1.7-2.2l-1.1,1.9l-6.7-8.6
	l-4.8-0.8l-6.4,5.4l-3.3-1.1l-4.2-6.1l-4.2,0.9l-4.2,3.4l-1.2,3.6l0.5-4.8l4.6-3.9l2.6,0.1l2.8-2l5,2.5l3.6-1.7l0.3-3.6l2-1.9
	l2.5,0.3l4.8-5.6l5.6-0.6l0.2-3l-5-8.1l-10.6-6.5l-6.8-3.9l-8.2-8.1l-4-0.1l-6.7,4.7l-3.2-0.8l-5.3-4.8l-0.2-2.2l-2.2-0.9l-4.7,1.9
	l-5.3-0.6l-4.5,1.6l-5.8,7l4.8-9.3l3.7-1.9l2.5,0.8h2.6l1.1-1.2l3.1,1.2l5.4-2.2l2.5,6.2l2.6,2.2h4l2.6-3.6l6.5,0.9l4.5,3.1l3.1,0.2
	l4,4.2l5.9-3.4l8.4,3.1l2.3-1.4l-3-5.9l-2.6-1.1l-4.8-5.9v-1.5l-2.2-1.7l-4.2,0.3l-4-1.7l-5.4-7.8l-0.1-6.1l-7.6-5.6l-0.4-6.1
	l-4.1-1.4l2-4.8l-1.4-0.3l-6.2-12.9l-11.3-5.8l-2.9,1.7v-3l-10.6-5l-1.5,0.2l-0.2-10.3l1.7-7l-1.7-4.7l1.1-5.9l1.4,0.9l3-0.9
	l3.7-6.1l2,1.2l3.7-4.4l-3.9-2.3l-1.9-2.5l3.3-3.6l6.2,0.3l0.2-4.4l5.1-0.9l-0.5-3.3l-4.7-3l4.7-0.6l3.4,2.6l0.9-2.5l3.7,0.2
	l3.7-3.1h2.6l4.3-5.8l1.5,2.5l1.9-2.3l0.5,2.2l5,3.4l5.1-4.4v-1.9l-3.3-0.6l-0.5-4.4l2.6-1.4h2.2l-3.4-4.8l0.3-2.3l4.5-1.4l-2.6-1.2
	l-4.8,0.9l-5.7,0.2l0.3-1.7l-4.5,0.2l-1.7,1.9l-13,0.5l-2.6-2.3l-2.5-1.1l-2.3-3.6l-2.3-0.9l-1.2-1.7l-9.3,4.4l-4.9,0.1l1.7,1.4v3.7
	l-2.8,2.3l-5.6,2.2l0.9,0.6l1.9,2.5l-2.2,3.9l-1.9,1.7l-4-1.6l-3.9,2.3l-5.5-0.2l-5.6-10.9l-6,0.4l-0.9-3.9l5.6-2.9l-2.2,1.2l-0.3-2
	h-2.3l-1.7,2.5l-1.4-2.2l-0.2,1.9l-3.1-5.3l-0.8-2.5l-6.8-4.7l-4.3-2.5l-0.5-4.5l-2.2-4.8l1.9-1.7l-0.1-2l0.6-2.2l0.5-4.2l2.5-1.9
	l0.5-2.3l7.8,2.8l6.7-0.1l5.3-0.2l2-4.4l-1.2-2h2.9l-0.8-5l-1.2-1.1l1.5-2.3l2.2-10.4l7.3-4l4.3-0.1l3.3-5.6l2.2-0.5l0.5-8.1
	l4.2-4.7l6.8-10.7l1.7-0.9l2.6-4.5l4.7-0.1l1.9,1.2h3.6l1.4-4l6.4,7.6l9.2,5.4l0.5,3.4l-2.5,1.4l-0.9,2.8l-4.3,5.6l-0.5,5.1
	l-3.9,0.1l0.5,1.6l-0.9,5.3l4.5,4.5l-0.3,2.8l-1.7,0.8v2.5l1.9,2.2l4.5-1.6l4.8-3.7l-1.9,3.7l-3.9,2.7l0.5,2l2.3,0.5l-0.5,2.3
	l-1.7,1.2l-4.6-0.6l-2.1,2.8l-3.4,0.2l-1.7,3.1l3.2,2.2l0.5,3.3l2.6-0.4l2.5-3.2l2.4,0.1l3.3-5l5.8-2.5l0.6-1.6l-1.7-4l5.1-3.9
	l9-6.8l2.6,0.3l0.8-4.2h4.6l5.5-3.9l2.2,1.9l2.3-0.8L758,176l6.5-7.6l1.5,3.9v-12.7l5.9-4.9 M769.8,392.6l-5-0.8l-0.4,1.6l2.4,2.5
	l4.4,0.1l4.4,1.9l-0.5-4.4l-3.4,0.2L769.8,392.6z M602.5,660.5l-3.7-1.5l-4.9,0.7l1.8,2l2.8-0.2l4,0.7L602.5,660.5L602.5,660.5z
	 M758.4,554.2l0.1-3l-1.5-1.6l-1.6,0.7l0.9,4.6L758.4,554.2z M545.2,647.9l0.1,0.1L545.2,647.9L545.2,647.9L545.2,647.9z
	 M715.8,605.7l1.4-1.2l-2.5-2.4l-3.1,1.5l0.6,1.9L715.8,605.7z M844.6,340.8h1.7L846,337l-1.2-2.4l-1.5,2.7h-1.4l-0.9,1.6l2,3.2
	L844.6,340.8z M877.3,324l-2.1,1.5l1.1,2.1l3.4-1.4L877.3,324z M895,325.5l1.5-2.4l-0.3-4l-1.7-1.1l-3.2,2.6l0.3,2.6l1.3,3
	L895,325.5z M836.8,214.7l-8.2,7.2l-7.9,2l-6.9,6.9l-1.6,5.2l0.6,0.7l3.8-2.8l6.9,0.2l-3.2,1.7l8.9,7.6l5.8,8.4l3.1,0.7l-1.5,2.4
	l3.3,4.6l1.9,4l-7.6-2.6l-1.5-2.2l-1.5,4l-3.3-0.9l-4.6,6.5l10,4.6l2.6-0.9l2.2,5l0.2,9.5l2.6,1.7l1.7-1.6l4,7.7l-7.4,5l-0.2,2.6
	l3.1,2.4l0.2,4l-2.7,1.5v4.3l2.4,4.3l-2.9,0.2l5.5,10.7l3.2,0.3l1,5.2l1.7,1.4l-0.2,3.9l3.3-2.4l0.3-5.8l2.1,2.7l3.3-4.6l10.1-8.8
	l4.1-0.9l0.7,2.4l3.1-3.8l2.4,0.3l2.2,4.5l4.3-1.7l1.7,2.1l2.2-1.6l-1.7-3.3l5.5-3.4h5.2l6.2-7.9l-1.4-2.4l3.1-2.4l-1.2-17.4h-1.5
	l-1.5,1.7l-0.2-5.3l-3.1-16l-3.4-3.6l-0.4-10.1l-13.4-16.8l-12.2-12.7l-8.3-15.3l-9,5.8L836.8,214.7z M868.9,67.8l-7.2-1.6l-2-2.3
	v-4.6l-3.9-3.3l-2.9,1.3v4.9l-0.3,4.6l1.6,3.3l-1.6,4.3L848,75l-3.6,4.9v4.9l-8.9,7.2l-5.3,0.7l-3.9,2.3l4.9,3.6l4.9,4.9l0.3,3.3
	l-3,6.2l-5.9-1l-9.2,1l-4.9-2l-3.9,1.6l-3.3-3l-3.6-2l-4.3-6.6l-4.3,5.2l-0.3,7.5l0.3,2.3l-2,3.9l-3.6,11.1l-4.3,2l-3.9,7.5
	l-5.9,3.9v3.9l-2.6,5.9l-5.9,4.9v13.1l0.6,1.6l1-0.5l2.1,8.1l3.2-2.2l0.3-3.4l5,2.7l2,2.9l7.4-1l2.4-3.1l2.9-0.3l-1.2,3.9l-3.1,2.1
	l2.9,4.3l-5.5,8.9l0.3,10.8l1.6,1.9l8.4,0.2l4.5-2.2l-4.8,4.5l-5.8,0.5l-3.1,6.4l-0.3,9.5l-1.2,4.1l2.1,0.5l3.9-2.2l4.8,1.7
	l-4.1,6.6l1.9,3.1l4.6-3.8l2.8,1.9l4.1-5.3l-1.2-2.4l2.6-1.7l5.1,5.5l1.6-5.2l6.9-6.9l7.9-2l8.2-7.2l15.7-1.3l9-5.8l-2.7-4.9
	l-16.7-9.6l-2.4-3.8l-8.3-1.5l-1.4-6l2.2-2.4l-1.7-5.2v-5.7l6-3.8l1.9-5l4.5-2.9l4.6,0.2l1-2.4l3.2-2.9l-1.4-3.4l-0.7-11.9l-1.2-1.7
	l5.8-5l1.9-5.3l-3.6-2.7l-0.2-11.9l7.4-3.6l-0.4-6.5l3.1-11.3l0.2-5.5l2.7,0.5l7.4-8.3L874,75l-0.1-0.1l-3.9-5.5L868.9,67.8z
	 M70.3-4.8l2.1,3l1.3,3.6L77,4.5l3,1.5l2.5,4.2l1.7,2.5l0.3,4.6l-1,2.6l1,4.8l2.3,2.8l-1.3,3.7l-2.9,2.3l-1.3,2.2v3.1l0.7,3.3l4.6,7
	l4.4,2.6l20.1,4.3l8.9-0.1l5.6-0.6l1.8-1.5l1.4-0.4l13.9,3.2l6.4,4.1l1.7,2.4l3.6,0.7l1.9-0.1l2.6,0.6l7.6,5.4l4.9,2.8l5.8,0.1
	l1.8-0.5l1.4,0.6l0.5,3.6l0.9,2.3l2,0.3l3.1,1.1l3,3.2l0.3,2.6l2.4,5.9l3.5,4.3l4.3,6.4l1.8,4.4l4.6,8.9l3.6,1.2l4.1-0.4l8.2-0.9
	l9.5,0.6l12.4-0.7l17,1.4l9.7-1l6.8-2.5l1.2-2.3l2.3-1.4l3.2,0.8l12.4-0.3l14.8,1.6l5.5,0.1l6.8,6.7l12.9,5.9l13,4.9l5.9,0.6
	l7.4,3.9l7.1-1l8.7-2.5l0.7,3.1v2.2l6.1,1.8l4.9-0.1l3.7-3.1l8.9-7.1l5.8-6.5l11.5-3.9l14.6-5.2l6.7-1.9l5.8-1.9l8.4-0.9l5.8-0.3
	l5.6-4.2l5.5-3.7l4.9-0.3l6.5-2.1h3.4l3-6.8l5.3-8.8l9-10.1l2.7-4l2.1-3.9v-2.5l-8.4-5.2l-9.2-6.1l0.3-2.8l-0.4-4.5l0.3-9l3-4.3
	l4.7-3.5l8-1.6l5,0.2l5,3.6l6.2,2.2l5,1l4.3,2.1l2.1-0.4l1.2-3.3l2.8-3l4.6-3.4l3.8-2.8l3.9-8.1l2.4-1.8l5,1h4.9l9.2-6.2l4.3-1
	l2.2-2.7l-0.3-4.3 M603.3,1154.2l2.6-0.8l4-4.1l-3-2.1l-5.1-0.2l0.4,2.4l-0.6,2.6L603.3,1154.2z M600.6,1133l-5-1.5l-0.8,0.6
	l0.8,1.9l3.7,1.3l2.1-1.2L600.6,1133z M588.3,1160.8l3.1,1.4l1.3-1.8l-1.7-1.8l-3,0.1L588.3,1160.8z M606.8,1145.5l-0.1-1.5
	l-1.6-0.5l-2.3-2.2l-5.3-0.9l-0.4,1.6l2.9,3.4l2-0.1L606.8,1145.5z M354.8,1092.3l-2.7-1l-2,2.2l-4,0.1l4.7,4.8l1,4.6l2.9,0.8
	l3.9,7.2l1.8-0.8l0.8-5.4l1.3-2.9l-4.8-3.7L354.8,1092.3z M379.8,1144.4l-4.3,3.4v3.3l4.4,1.6l5.3,8l5.2,1.6v-7.7l-6.1-8.7
	L379.8,1144.4z M349,1077l-3,1l4.8,1.6L349,1077z M382.1,1122.7l0.4-2.7l-4.8-1.7l-2.2,3l4.8,0.1L382.1,1122.7z M376,1133.9
	l-3.2-1.4l-2.1,4.5l2.5,2.8l2.9-2.9L376,1133.9z M502.2,1095.6l-1.9,1.8l-3.2-0.2l-1.9,4.2l4.4,1.2l1.3,5.1l2.7-1l1.3-6.3l-2-2.1
	l1.6-3.2L502.2,1095.6z M509.8,1133.1l1.6-1.4l-6.2-5.8l-3.3-0.8l-2.2,4l2.1,2.5l3.3-1.1L509.8,1133.1z M491.4,1102.4l2-4l-0.8-2.9
	l-5.5,5.5L491.4,1102.4z M503.5,1137.9l-1.3-3.9h-3.5l-2.1,2.8l3.3,3.2L503.5,1137.9z M438.6,1080.6l-3.5,0.7l2.2,6.2l3.7-0.6
	l3.7-4.2l-3.6-4.2L438.6,1080.6z M534.6,1062l2.2-1.2l-2.1-2.2L534.6,1062z M451.5,1091.1l-2.2,0.2l5.1,7.6l2,1.8l2.6-4.5l-2.2-3.1
	L451.5,1091.1z M318,1059.9l-1.6,1.7l-1.2,2.5l3.9,2.5l4.8-0.7l-2.8-3.8L318,1059.9z M465.7,1107.4l4.8,2.4l1.5-1.3l-1.3-5.9
	l-4.5-3.9l-5.3-1.1l-3,5.1l0.7,3.9L465.7,1107.4z M574.4,1028.5l-3.5,2.1l-2.1,2.9l4.1,3.9h2.3l-0.9,3.2h3l1.7-5.8L574.4,1028.5z
	 M528,1056.4l-3.3-1.3l-2.5,0.6l-0.4,3.6l2.2,1.4L528,1056.4z M536.6,1054.7l-1.5-2.8l-1.3,2.5L536.6,1054.7z M534.3,1046.4l0.3,3.6
	l2.2-2.4L534.3,1046.4z M443.8,994.9L441,997l-2.8-2.4l-3.7,0.4l-4.6,4l-5.5-1.3l0.1-3l2.3-3l0.6-5.9l-2.7-2.7h-4.3l-1-2.4l-5.6-1.6
	l-3.8-3.4l-2.7,3.4l-1.3,4.7l4.2,6.9l2.2,16.9l2.3,5.6l2.5,5.1l-0.8,6.7l-1.2,1.1l0.5,4.5l3.1,2.9l-1.1,1.9l2.5,3.6l5.6,3.3l3.6,5.6
	l3.7,2.2l2.4,3.8l-3.1,2.9l-0.5,2.8l2.6,2.3l7.4,2.9l6.3,5l-0.4,3.8l5,5.3l2.9,0.2l2.9-0.7l2.2,1.8l3.1,3.4l6.2,3.3l6.7,1.3l2.6,3.1
	l4,1.9l1.3-1.4l1.5,2.2l4.1-2.6v-0.9l-1.9-0.3l1.3-0.4l0.3-2.3l-1.2-1.6l2.2,1.6l-0.2,2.3l0.8,1.6l3.1,0.6l-0.1-5.1l-4.3-8.5
	l-1.2-0.6l0.1-1.2l-0.8-1.6l-1.4-1.2l-0.8-6.2l0.5-1.5l-0.9-1.8l-3.3-0.1l-4.7-4.3l-2.6-5.3v-10.2l-1.5-2.7v-3.6l1-1.8l-0.5-10.1
	l1.7-2.2l-2-8.4l-4.5-7.2l-14.9-15.2l-3.1-5.6l-1.7,0.5l-1.9,2l-2.9,0.1l0,0l-1,1L443.8,994.9L443.8,994.9z M640,1075.6l-1.4,4.3
	l-0.1,5.9l-3.6,4.9l0.2,1.6l-8.1-1l-8.4-3.1l-5.9,0.2l-2.2-3.2l-3.5-4l-1.5,0.5l4.2,7.5l6.6,4.7l0.7,1.7l4.7,4.4l1.7,3.4l3,0.4
	l5.9-1.7l0.7-2.4l5.1,0.4 M405.4,1001.6l0.7,4.2l2.2,3l1.6-1.1l-0.7-2.8l-2.2-2.9L405.4,1001.6z M474.5,904l2.3-1.1l0.9-6.2
	l-1.3-0.5l-1.2-2.8l-3.8,2.4l2.3,2.8l-0.9,2.2L474.5,904z M539.3,646.8l-1.8-1.4l-4.2,1.3l-4.1-2.1l-4-1.8l-1.2-3l-8.3-3l-1.2-4.3
	l-2.4-0.9l2.1-7.5l3-0.4l0.7-4l-3.6-2.8l-5.5,2.2l-1.6-2.1l-9.3,0.1l-1.8-2.7l-4.6-0.9v-2.7l-4.4-3.6l-2.8,2.8h-5l-4.4,2.5l0.3,6.4
	l-6.9,2.3l-4-2.3l-5,1.5l-0.7,3l-4.6,2.2l-1-3l-2.4-0.1l-2.1,2.9l-4.1-4.1l-3.1,2.3l-0.7,3.9l-2.8,0l-1.8-1.5l0.3-3.1l-2.7-0.3
	l-4.3,1.7l-2.2,2l-1.1,2.1l-1.7,0.3l-1.4,1.2l1.3,2.6l7.1,3l3.4,5.2l3.7,3.1l0.8,4.4l-1.6,3.4l7.1,6.6l4.3,7l8.6,0.1l5,1.5l4.6-2.8
	h5.8l3,3.7l-2.7-2l0.8,4.1l-0.1,3.7l5.8,1.4v2.8l-3,1l-2.4,8l-2.2,2.2l4,3.7l-5.9,2.1l-3.1,0.2l0.6,3.4l4.3,4.9l-3,3.3l0.9,2.7h3.2
	l3,5.3l-1.6-2.6l6.1,3.3l4.1,0.4l5.2,7.1l5.9,2.7l4.1,5.9l7.7,6.1l-1.6,4.1l1.8,4.9l2.7,1.3h5l2.2,3.7l0.6,3.6l2.7,2.8l1.8-0.6
	l3.1,1.3l-0.7,3.4l1.6,2.1l4.6,0.3l2.5,3.4l2.1,0.6l4-1.6l1.3,3.1l-3,3l-0.6,5.5l1.6,2.4l3.1,0.4v4.9l-5.8,4.6l0.9,5.3l1.5,2.8
	l0.6,6.1l-3.9,2.4l-0.6,0l2.4,6.3l3.7,1.9l3.6,8.3l-0.9,6.4l1.5,4l-1.3,5.5l0.7,4.8l-3,6.1l-3.3,1.3l-0.9,2.7l-5.6,1.6l-5.9,3.9
	l-2.1,4l-7.5-0.3l-4.1,3l0.9,7.3l4.6,1.3l3.7,3.9l-0.7,2.8l1.9,4.3l-6.5,0.4l-1-2.8l-4-2.4l-9.6,2.4l-2.2-1.5l-4.1,0.1l-2.4,5.9
	l-4.4,0.7l-3.8,4.7l1,0.7l0.2,3.4l-0.6,1l3.9,1.1l1.9-0.8l1.9,1.2l3.1-1l4.3,0.6l2.9-1.3l-1.8,2.1l-5.7,4.5l-3,5l0.4,6.5l-0.8,2.7
	l1.2,0.3l-0.5,0.6l-0.5,6.3l2.9,1.6l2.1-0.8l-2,2.3l-3.7,1.6l-3.1,1.9l4.9,0.7l9.1-4.1l-0.2-0.9l1,0.1l2.6-2.3l0.5-4.3l0.9-2.3
	l2.7,0.4l1.7-1.2l3.9-3.5l2.1-0.2l1.1-1.6l1.6-1.1l-0.8-1.1l0.2-1l-1.1-3l2.3-0.4l1.6,2.4l1.8,0.6l1.7-2.3l0.4-2l-3.7-4.1l4.4,3.3
	l3-1.5l-1.5-3.3l1.2-1.9l-5.6-2.6l3.4,0.5l1.1-0.7l0.1-1.5l-2.3-1.9l3.5,0.9l0.6-1l0.9-2.4l0.1,2.5l-0.5,2.6l0.8,0.8l3.9-1l2.3,1.2
	l5.3-0.6l8.9-5.2l2.4-2.7h3.7l0.5-3.5l4.1-2.9l3-1.6l4.6-4.7l2.2-0.9l0.6-5l2.2-0.8l2.7-2.6l-1.3-1.7l1.6-3.6l-2.9-4.3l3.2-2.5
	l0.2-2.3l2.1-1.6l0.4-1.8l-1.9-2l-0.2-3.2l1.7-1l1.3,1.6l0.1,1.6l0.9,0.1l0.5-3.1l-2.4-4.7l-0.9-2.9l-1.9-0.8l-0.1-2l-1.5-5.2
	l0.9-1.4l-1.3-3.5l0.7-2.3l-0.1-3.6l-1.3-1.3l-1.6-6.6l-1.6-1.2l-0.9-7.5l-3.6-4.4l0.9-1.7l-1.1-1.7v-2.2l-4.6-4.8l0.2-2.8h-1.2
	l-0.6-3.3l-2.9-5.3l-9.2-6.8l-2.2-3.9l-9.9-7.3l-11-6.1l-0.5-1.4l-4.5-2.6l-0.1-3.5l-0.8-2.5l-9.7-7.7l0.8-1.4v-2.3l-2.6-4.6l-2,0.1
	l-5.4-5.3l-6.1-3.6l-3.6-1.1l3.4-0.9l0.5-2.2l-4.4-3.7l2.3-3.4l2-6.8l-1.6-2l-1.6-0.3l0.2-3.7l1.7-1.4l1.1-3.6l1.9-1.4l0.1-1.7
	l1,1.4l2.6-0.1l3-4.8l1.5-0.5l1.1-1.9L506,673l0.6-0.8l-0.2-3.3l0.5-3.1l-1.1-1.2l1.6-2.2l0.3-2.9l1.4,0.4l1.3,1.9l1.4-0.5l1.9-1.8
	l3.1-0.7l1.9,1.2l0.8-1.4l2-1.4l7.2,0.1l1.1-1.9l3.7-0.7l3.5,0.2l3.6-2.2l1.7,0.1l2.2-0.9l1.4-2.3l-0.8-1.6l0,0l0.1,0l0.2,0.1
	l-0.2-0.1l-3.5-1.9L539.3,646.8z M492.6,888.6l2.4-5.9l4.1-0.1l2.2,1.5l9.6-2.4l4,2.4l1,2.8l6.5-0.4l-1.9-4.3l0.7-2.8l-3.7-3.9
	l-4.6-1.3l-0.9-7.3l4.1-3l7.5,0.3l2.1-4l5.9-3.9l5.6-1.6l0.9-2.7l3.3-1.3l3-6.1l-0.7-4.8l1.3-5.5l-1.5-4l0.9-6.4l-3.6-8.3l-3.7-1.9
	l-2.4-6.3l-3,0.1l-4.1-2.7l-3-0.9l-1.9-3.3l-7,1.5l-3.7,3.4l4.4,4.4l-0.8,3.8l1.3,3.9l-0.3,2.8l-6.4-2.4l-3.7-6.1l-5.9-0.1l-1.8-2.8
	l-4.8-3.5l-2.6,1.3l-3.6-2.8l-5.8,0.7l-4.4-1.2h-4.4l-5.7,2.1l-1.8-1.8l-5.9-0.2l-1.6,6.1h-4l-4.3,6.1l-1.3,6.1l-3.4,4.6l-0.5,8
	l1.8,8.1l3.5,1.9l1.9,4l-0.4,7.6l-0.6,3.1l0.1,0l2.8,3.3l0.1,3.9l2.7,2.4l0.2,3.9l-5.1,1.1l1.6-0.6l1.5,3l-0.3,3.3l1.4,2.3l0.6,3.1
	l3.2,0.4l2.5-0.4l0.1-3.5l2.5-2.2l1.7-1.2v2.5l1.4,3.2l-0.3,2.6l-2.6,2.9l1.3,1.9l0.5,1.5l2.2,0.2l3.3-3.1l0.3-1.2l2.2,1.7l4.1,1.3
	l1.2-0.8l3.8,2.8l3.8-4.7L492.6,888.6z M390.7,678.3l4,4.7l1,7.1l-3.3,2.4l3,5.2l3.3,1.2l3.5-3l7.5,0.2l0.1,3.5l-2.4,4.7l2.4,4
	l-0.1,3.2l-2.4,3.1l1.8,5v7.1l0.4,10.8l5.6-3l5-1.2l0.6-4.2l6.5-3l6.8,3.6l4.1-0.3l3.6,4.5l8.6-0.9l4.5-9.2l6.8-1.5l9.2,2.4l3,5.9
	l8.9,6.4l5,3.7l-5.9,1.4l-0.7,3.6l-1.5,2.5l2.2,4.9l-0.3,5.8l-1,3.1l3.7,2.7l4.3,4.7l3.8,0.3l3.5,1.5l-1.3,2.2l5.2,3.4l0.9,2.8
	l-1.3,4.6l0.3,2.7l-1.5,3.9l1.5,3.2l-0.3,7.4l-2.7,3l-2.2,1.1l4.8,3.5l1.8,2.8l5.9,0.1l3.7,6.1l6.4,2.4l0.3-2.8l-1.3-3.9l0.8-3.8
	l-4.4-4.4l3.7-3.4l7-1.5l1.9,3.3l3,0.9l4.1,2.7l3-0.1l0.6,0l3.9-2.4l-0.6-6.1l-1.5-2.8l-0.9-5.3l5.8-4.6v-4.9l-3.1-0.4l-1.6-2.4
	l0.6-5.5l3-3l-1.3-3.1l-4,1.6l-2.1-0.6l-2.5-3.4l-4.6-0.3l-1.6-2.1l0.7-3.4l-3.1-1.3l-1.8,0.6l-2.7-2.8l-0.6-3.6l-2.2-3.7h-5
	l-2.7-1.3l-1.8-4.9l1.6-4.1l-7.7-6.1l-4.1-5.9l-5.9-2.7l-5.2-7.1l-4.1-0.4l-6.1-3.3l1.6,2.6l-3-5.3h-3.2l-0.9-2.7l3-3.3l-4.3-4.9
	l-0.6-3.4l3.1-0.2l5.9-2.1l-4-3.7l2.2-2.2l2.4-8l3-1v-2.8l-5.8-1.4l0.1-3.7L473,666l2.7,2l-3-3.7h-5.8l-4.6,2.8l-5-1.5l-8.6-0.1
	l-4.3-7l-7.1-6.6l1.6-3.4l-0.8-4.4l-3.7-3.1l-3.4-5.2l-7.1-3l-1.5-3l-7.7,0.3v3l-2.8,1.9l0.3,6.9l1.5,4.3l0.3,4.9l1.2,5.2l-3.5-0.9
	l-5.3,1.6l-1.8-3.4l-2.6-1.9l-4,3.5l-5.8,1.2l-0.1,3.9l-2.4,3.2l1.9,2.7l-4.1,3.4h-2.2l-2.3,5.3l2.3,4.8L390.7,678.3z M402.2,921.3
	l0.9-4.1l-1.2-3l-3,1.9l0.3,2.7L402.2,921.3z M397.3,911.2l2.7,0.8l1.1-2.2L397.3,911.2z M394.2,978l1.6,3.3l1.5-0.6l-0.6-2.5
	l-1.5-0.7L394.2,978z M382,962.1l0.6-2.2l-0.3-1.8l-1.1-0.2L382,962.1z M441.7,862.6l2.9,2.5l2.2-0.4l-5.4-5.5L441.7,862.6z
	 M452.3,848.8l-1.9-4l-3.5-1.9l-1.8-8.1l0.5-8l3.4-4.6l1.3-6.1l4.3-6.1h4l1.6-6.1l5.9,0.2l1.8,1.8l5.7-2.1h4.4l4.4,1.2l5.8-0.7
	l3.6,2.8l4.9-2.4l2.7-3l0.3-7.4l-1.5-3.2l1.5-3.9l-0.3-2.7l1.3-4.6l-0.9-2.8l-5.2-3.4l1.3-2.2l-3.5-1.5l-3.8-0.3l-4.3-4.7l-3.7-2.7
	l1-3.1l0.3-5.8l-2.2-4.9l1.5-2.5l0.7-3.6l5.9-1.4l-5-3.7l-8.9-6.4l-3-5.9l-9.2-2.4l-6.8,1.5l-4.5,9.2l-8.6,0.9l-3.6-4.5l-4.1,0.3
	l-6.8-3.6l-6.5,3l-0.6,4.2l-5,1.2l-5.6,3l-0.4-10.8v-7.1l-1.8-5l2.4-3.1l0.1-3.2l-2.4-4l2.4-4.7l-0.1-3.5l-7.5-0.2l-3.5,3l-3.3-1.2
	l-3-5.2l3.3-2.4l-1-7.1l-4-4.7l-5.5,1.4l-2.3-4.8l-0.2,0.4l-6,0.3l-4.6,1.6l-0.1,2.3l2.2,3l-1.6,2.2l-5.2-0.7l-2.6,2.4l-0.1,5.1
	l-1.3,2.2l-4.5-0.1l-4.8,3.9l-7.7-3.1l-3.3,4.5l1,7.1l-3,2.8v6.1l1.5,3.4L339,721l-5.3,2.2l0.4,3.3l3.1,0.9l3.4,5.9l3,2.8l1.2,3.1
	l5.3,3.7l4.9,10.7l3.2,1.2l2.4,5.3l0.7,4.5l4.3,2.1l0.5,4.2l-3.8,2.1l-1.6,3l2.4,10.5l-0.6,3.1l-4.3,2.5l3,7.1l0.2,3.7l5.3,6.7
	l6.2,4.9l5.6,5.5l2.7,8.7l-1.5,3.4l0.9,4l-0.4,4.4l2.4,2.5l0.9,6.1l1.8,3.7l-0.3,5.9l2.7,4.6L387,870l-2.4,1.5l-4.9,13l-4.4,3.3
	l-0.6,5.2l-1.9,3.3l-1.1,3.1l-0.8,6.8l2.3,0.3l-2.6,3.9l0.9,1.7l-3,4.2l2.3,0.5l-1.5,3.1l-2.2-0.5l0.2,7.9l-2.6,1.2l0.6,5.9
	l-0.9,1.9l1.1,7l1.9,2.8l2.6,0.3l-0.1-3.9l3.9-1.9l-0.1,2l2.3,1.7v3.1l3.7,0.6l2.3,7.4h3l4.6,6.2v2.8l4,0.6l1.4,3.4l2.2,0.3
	l-0.2,2.2l-1.7,2l0.3,1.7l8.8,6.4l1.7,2.8l1.3-4.7l2.7-3.4l3.8,3.4l5.6,1.6l1,2.4h4.3l2.7,2.7l-0.6,5.9l-2.3,3l-0.1,3l5.5,1.3l4.6-4
	l3.7-0.4l2.8,2.4l2.8-2.1v-3.7l1-1l-0.5-2l-3.7-2.4l-2.2-2.9l-2.7-5.9l-3.8-1.4l-4.2-0.5l-1.7,1.2l-2.4-1.9l-5.9-5.8l-2.7-2.3
	l-0.4-3.6l-1.2-0.9l-0.7,3.1l-6-2.3l0.5-3l3.2-2.2l1,1.4l0.7-1.5l0.8-1.2l-1.6-8.4l-1.9-1.1l-0.1-3.4l-2.3-3.4l-1-3.2l-0.3,1.7
	l0.1,2.2l-2.2,0.1l-2.1-4.6l-2.2-0.8l0.4-4.4l-1.9-2.5l-0.5-4.3l-1.8-1.7l-3.1-0.6l-1-0.7l-2,2.2l-0.5,1.7l-2.2,0.6l-1.2-1.6l2-4
	l-4-5.9v-2.7l-1-4.3l-0.3-1.9l1.9-2.5l-0.6-1l-2.1-0.4l1.9-4.1v-4.3l4.9-6.3l1.1-15.6l2.9-4.3l0.6-4.2l2.9-3.7l0.6-5.8l-1.6-1.2
	l0.8-2.5l-0.2-4.5l2.2-3.6l-0.6-3.7l-3.4-1.7l0.9-2.8v-0.9l1.2,0.6l2.3,0l1.3-1.6l1.5,1.3l2.5-0.3l3.2-1.4l1.5,1.1l1.3-0.4l0.7,0.5
	l3.6,0.7l1.1,2.7l-1.1,1.2l-0.3,5.4l1.9,3.2l-1.3,1.4l-1.1,3.3l3.1-0.3l2.9,1l4.1-1l4.4,1.1l1.8,1.3l0.4-0.8l-0.5-0.9l2.3-2l2.9,1.1
	l5.4,5.3l2.6,1.3l-0.1,1.9l1.6,0.1l4.3,3.6l0.6,1l0.8-0.3l0.2-2.8l1.8,0.2l0.6-3.1L452.3,848.8z M369.1,952.6v-5l-2.4-0.2l-0.9,2.7
	l0.9,1.7l-0.2,4.2L369.1,952.6z M308,769.3h2.9l4.5-2.7l-3.3-0.9l0.3-1.4L311,761h1.4l2.3,3l3.4,0.6l5.3-4.4l-0.8-2.5l1.9-2l0.5-4.2
	l-2.3-1.7l0.3-2.3l0.8-1.4l-2.3-2.7l3.7,2.2v2.4l2,0.1l0.8,2.2l4,7.9l1.7,2.2l1.1,5h3.6l2.8-1.1l1.4-2.5l-0.2,2.3l-1.1,1.9l2.5,4.8
	v2.5l-1.5,0.6l0.8,3.9l2.5,1.7l1.7,15.3l1.4,0.2l0.2,7.2l5.1,2.9l-1.5,1.6l0.3,4.2l3,3.6l-0.3,9l1.9,3.7l-0.2,3.6l1.2-0.9l0.8-6.6
	l2.9,5l0.9,4.4l2.8,2.5l1.4,12.6l2,1.5l1.2,3.7l-1.4,2l0.2,5.3l2,2.9l3,3.3l-2.8,2.2l1.9,5.6l-1,2.4l-1.3,0.6l-0.7,5.4l1.2,1.2v3.3
	l-2.5,4.1l-1.5,1.4l-1.6-0.6l0.2,2l1.4,2.5l0.2,5.9l2,6.4l0.5-6.1l1.9-4.2l-0.1,0.7l1.1-3.1l1.9-3.3l0.6-5.2l4.4-3.3l4.9-13l2.4-1.5
	l0.3-6.8l-2.7-4.6l0.3-5.9l-1.8-3.7l-0.9-6.1l-2.4-2.5l0.4-4.4l-0.9-4l1.5-3.4l-2.7-8.7l-5.6-5.5l-6.2-4.9l-5.3-6.7l-0.2-3.7l-3-7.1
	l4.3-2.5l0.6-3.1l-2.4-10.5l1.6-3l3.8-2.1l-0.5-4.2l-4.3-2.1l-0.7-4.5l-2.4-5.3l-3.2-1.2l-4.9-10.7l-5.3-3.7l-1.2-3.1l-3-2.8
	l-3.4-5.9l-3.1-0.9l-0.4-3.3l5.3-2.2l3.9-2.8l-1.5-3.4v-6.1l3-2.8l-1-7.1l3.3-4.5l7.7,3.1l4.7-3.9l4.5,0.1l1.3-2.2l0.1-5.1l2.6-2.4
	l5.2,0.7l1.6-2.2l-2.2-3l0.1-2.3l4.6-1.6l6-0.3l0.2-0.4l2.3-5.3h2.2l4.1-3.4l-1.9-2.7l2.4-3.2l0.1-3.9l5.8-1.2l5.8-5l0.4-3.9l-4-1.3
	l-9.3,4h-4.6l-2.8,2.7l-4.7-2.4l-1.3-3.8l1.2-5.5l-2.8-3.7l-3.1,2.8l-1-1.2l-6.5-0.7l-3.1,1.5l-0.7-2.8l3.8-3.8l4.7-6.7l-0.1-2.9
	l1.8-3.6v-3.1l-4.1-2.6l-5.8,0.7l-0.7,1.6l-1.6-2.6l1-1.9l-5.3-1.2l-2.4-3.3l1.3-3.5l-1-3.6l-5.3,1.3l-2.5-2.1l1.3-2.5l-0.9-3.3
	l-9.3,1.9l-4.9,3.6l-1.9-4.7l0.6-4.9l-2.9-2.7l-1.5-2.7l-3.5-1.5v-3.4l1.9-3.1l-1.8-2.7l1.6-3.6l2.8-3l2.7,1l1.6-2.4l-1.8-4l1-2.8
	l1.9-0.6l0.4-3.9l3.8-1.8l0.9-2.5V545l1.2-8.7l-0.5-6.2l-3.4-7v-6.2l-3.7-4.2l-3.6,0.1l-1.2-6.4l-4-3l-2.7-5.5l-4.7-0.1l-3.1,1.8
	l-4.7-2.1l-3.4,1.7l0.9,1l0.4,3.1l-4,3.7v5.5l1,3.4l-4-1.8l-3.4-2.8l-5.8,4.1l-6.7,2.1l-2.1,4.9l-4.9,6.1l-4.6,1.6l-6.8,10.7l-1,4.9
	l2.1,2.7l-2.8,8.1l-5.8,9.3l0.3,3.1l4.9,2.4l-4.4,10.8l-1.9,8.7l-3.3,7.7l-5.5,0.1l-3.5-1.2l-4.3-0.3l2.5,10.1l-0.1,5.3l-0.4,7.4
	l-4.3-0.6l0.7,5.5l-0.7,5l1,4.2l-2.4,6.8l-2.2,1.2l-1.9-0.9l-0.9,3.8v7.1l-2.2,5l-1.6-1.1l-4,4.9l-0.6,3.9l0.3,1.4l0.1-0.1l2,4.3
	l1.6,5.4l9.1,8.2l-2-3.6v-1.9l3.3,2.7l3.9-0.3l-3.1,3.6l0.3,1.7l3.7-0.5l0.5-2.6l0.9,2.6l3.6,0.6l1.7,2.6l6.4,1.3l4,5.9l0.2,3.4
	l-2.5,0.9l-2.3-2.3l-3.1,1.9l3,2.8l1.2,0.6l-1.2,1.4l-3.1-1.6l-1.4-3.1l-3.7-0.3l0.5,2.2l3.9,3.4l0.3,2.3l3.6,4.3l7.6,2.2l-0.9-7.2
	l-1.7-3.4l5,3.1v3.6l1.5,3.3l2.3,3.1l1.5,5.9l3,2.3l-1.3,0.8l1.3,2.2l2,0.9l0.5,8.1l3.7,9l1.9,1.9l-4.7,2.9l-3.3,20.4l1.2,4.4
	l-0.6,1.5l0.5,1.9l3.1-5l4.3-3.7l2.5-6l-0.3,6.7l-5.4,5.1v5.6l2.3-0.2l0.6-2.8l5.6-3l2.3,3l2-0.5l0.5-2l0.2,1.1h2.2l0.6-0.9l4,0.5
	l8.2-5.6l1.1-3.6L308,769.3z M248.1,716.4l1.2,3l4.1,2.4l1-3.6l-3.3-3.3L248.1,716.4z M-15.2,947.9l-0.8-3.2l1.2-0.5l0.2-0.9l-2.4,1
	l0.3,3.6l-0.7,4.7L-15.2,947.9z M27.8,965.4l-1.7-2.5l1-3.2l-3.1-2.6l-3.4-9.2l-2.6-6.4l-3.6,0.5l-0.1-0.8l-3.1-0.3l4-2.2l-0.6-1.8
	l-1.7-0.8l-2.6-4.8l-2,0.2L7,927.5L5.7,926v-2.3l-5.9-2.2l-1.1,1.4l-2.6-0.9l0.3-1.6l-4.5-1.2l-0.2,1.1l0.8,1.3l-0.6,0.8l-1.2,0.2
	l0.5,1.4l-0.3,2.8l-2.1,3.7l-1.2-0.5l-2.2-2l-2.5-0.3v1l2.2,1.1l1.2,1.9l-0.9,1l1.7,3.9l0.1,5.6l-1.4,2l-1.2,9.2l0.5,2.6l-1.1,1.1
	l1.9,7.8l-0.7,2.9l2.7,9.8l3.2,11l2.9,4.8l4.9,2.6l4.1-1l7-0.9l6.5-2l6.7-6.9l2.9-5.9l1.4-3.6l-0.4-3.4l0.9-1.1L27.8,965.4z
	 M-7,912.1l-1.1-0.8l-6.7,0.5l0.1,2.5l5.3,3.4l-0.4-1.7l1.2-0.3L-7,912.1z M-6.9,916.9l4.2,1.9l1.9,1.6l3.4-0.1l2,1.5l-0.9-1.9
	l-4.7-3l-0.8-3.1l-2.9-0.8l-0.8,1.3l1.2,0.8l-2.4,0.2L-6.9,916.9z M152.9,635l-0.1-5.6L147,621l-1-6.4l0.7-3.7l-1.9-5.2v-6.8l-5-6.4
	l-5.3-2.1l-4.6-5.5l0.1-8.1l3.8-0.9l1.8-5.5l3-1.8l2.5,0.9l2.7-2.1l-1.2-5.3l0.9-2.5l-5.3-0.4l-3.7,1.5l-9.6-3.4l0.6-4.9l4-4.6
	l1.9-5.3l-2.1-1.8l-0.2-2.8l1.8-0.2l1.2-3l1.6,2.4l2.8,3.3l-0.1,2.2l2.9,3.7l4.3,0.6l2.1-1l-3-1.8l0.9-2.4l1.8,0.2l2.9,2.5l2.1,2.1
	l4,1.3l0.3-1.5l2.1-0.4l2.8,5l0.9,4.9l0.6,2.5l1.6,4.5l-0.2,3l3.9,1.5l3.8-0.3l4.3,1.9h5.3l8.3-0.6l6.2,0.7l6.9-0.3l3.4-0.3l1.5,1
	l2.4-0.6l3.6,3.7l2.1,0.9l-2.2,4.3l-0.8,5l-2.7,6.8l-2.5,1.3v2.7l-1.6,2l-2.3-0.4l-1.5-1.5l-3.9,2.7l-0.7,2.7l-1.6,1.4v2.5l2.1,5.5
	l2.1,1.9l0.8,2.1l3.3,3.1l3.2,4.2l2.1-0.1l0.4-3.3l-1.3-1l2.1-3.1l0.1-2.2l1.2-1.8l-1.3-1.9l1.9-1.5l2.6,1.8l3.5-0.3l1,1.9l1.8,2.9
	l1.3,5.8v4.3l1.5,3.1l1.2,8.3l1.6,5.5l1.5,3.2l0.9,1.4l0.2,2.2l1,1.7l0.8,0.8v-2.2l0.9-3.8l1.9,0.9l2.2-1.2l2.4-6.8l-1-4.2l0.7-5
	l-0.7-5.5l4.3,0.6l0.4-7.4l0.1-5.3l-2.5-10.1l4.3,0.3l3.5,1.2l5.5-0.1l3.3-7.7l1.9-8.7l4.4-10.8l-4.9-2.4l-0.3-3.1l5.8-9.3l2.8-8.1
	l-2.1-2.7l1-4.9l6.8-10.7l4.6-1.6l4.9-6.1l2.1-4.9l6.7-2.1l5.8-4.1l3.4,2.8l4,1.8l-1-3.4v-5.5l4-3.7l-0.4-3.1l-0.9-1l-3.2-3.3
	l-3.8-1.6l-2.5,1l-4.4-0.7l-1-3.4l3.3-3.6v-2.8l-3-4l-0.9-3.1l-2.7,0.7l-2.5,0.7l-1.6-3.3l3-5.6l-0.9-1.9l-2.8,0.7l-2.2-3l-3.2-1
	l-8.9,5.2l0.6,3.7l-2.2,2.1l-7.9-2.5l-5.3,1.5l-3.7-5.3L243,473l-3,0.6l0.3,4.4l-4.6,5.8l-7.6,1.8l-4.5,0.7l-3.4,4.3l-1.4,4.2
	l-4.3,1.2l-0.1,2.7l-3.2-1.1l-3,2.3l-2.1,5l-3.3,0.3l-7.6,1.8l-2.8,0.2l-1.3,5l0.6,4.1l6.4,2.8v5.8l0.2,3.3l-8.3,2.7l-5.6-0.3
	l-7.4,2.1l-4.3-1.9l-4.6,0.6l-4.1,5h-5.5l-10.1-5.8l-2.8,1.8l-7-1.5l-4-6.4l1.5-3.4l0.5-4.7l-0.2,0.1l-4-3l-0.3-5.2l-2.4-4.3
	l-4.7,0.6l-3.7,3.3l-0.5,0l1.3,4.4l-1.8,9.8l3.8,8l-1.5,9.5l-12.7,2.7l-7.7-4.2l-4.4,2.4l-17.8-6.5l-7.1,0.3l-3.9,2.1l-11-3
	l-5.3-4.7l-1.2-5.3l-9.8-2.4l-10.7,3l-3.6-3.3l-10.4,0.9l-6.8-4.5H4.9L1,514.2l-8-1.8l-6.2-7.7l-9.5-6.2l-7.3-2.1l-3.5-2.5l-3.7-0.1
	l-3.6-3l-4.4-0.4l-1.2-5.1l4.7-7.1v-6.8l3.3-11l-0.6-7.1l-0.3,0.4l-1.5-3.4l-3.5-0.6l-2.4-4.9l-3.1-1l-4-4.3l-4.7-0.7l-1.9-2.2
	l-4.6-0.1l-2.4,3.9l-4.6-2.2l-1.3-4.5l-1.9-0.6v-3.1l-2.5-3.6l-2.2-1.5l1.3-2.5l-2.2-3.8l0.9-8l-5.5-2.8l-0.3-3.4l-1.3-2.6l-0.1,0.1
	l-8.3-5.2l-5.2,0.3l-2.1-5.6l-5.6-2.2l-5.9,3.3l-11.2-7.6h-4.3l-2.7,4.9l-5.2,0.3l-6.1,5.5l-6.1,10.1l-1.2,1.4l-4.1,4.6l-2.5-0.4
	l-3.9,2.5l-3.8,1.3l-6.5,6.2l1.2,1.8l2.1,7.6l-1,10.2l-0.6,4.9l-3.3,2.5l-5.9,6.5l2.7,2.1l0.2,3.9l-2.2,5l-6.7,3.3l-4.6,6.5
	l-0.9,6.7l-2.4,4.4l-9.5,6.7l-4,12.1l-6.5,7.3l-10.8,0.6l-7.7,4l-3-0.6l-0.9-4l-4.4-1.9l-2.7,1.9l-3.8,1.9l-0.9,3.5l-5.5,7.9l-3.1,1
	l-3.3,8.3v5.2l3.4-0.2l4.9,1.6l2.2-1.2l3.8,0.2l3,6.4l-0.3,5l0.9,7.6l6.7,4.3l4-0.3l2.8,2.4l-1,2.8l4,5.3l4.6,13l-0.6,3l1.6,1.9
	l-3.8,1.3l-4.6,2.8l-1.9-2.4l1.6-3l-4.7,1.5l-1.6,1.8l-8.1,3l-14.1-0.7l-3.4,1.8l-3.1-0.7l-1.8,5.2l-2.8,0.7l-4.3,2.8l-0.2,5.3
	l5.7-3.7l5.7-0.9l-4.5,2.5l-4,5.3l-0.3,4.2l2.6,1.2l6.4,6.7l13.4,4.7l3.9-1.3h5l8.5-3.7l0.4-1.8l-0.6-1.3l1.2,0.7l4.2,0.3l-1.6,4
	l-1.2-0.2l-4,6l-2.5,0.1l-8.4,6.7l-0.5,1.5l-2.2-1.4l-1.3,0.2l-2.2,2l-3.4-0.4l0.1-4.6l-2.5,0.8l-0.8-1.2l-2.5,0.2l-0.8,2.3l0.8,2.8
	l9.1,9.1l2.7,1.5l1.9-0.1l0.1,1.5l6.5,8.5l15.8,12.7l7.4,1.6l5-1.7l10.6-6.6l6.9-3.6l0.2-2.3l3.2-3.2l0.7-7.3l-3-3.8l2.9-7.9
	l0.2-4.1l0.5-2.6l1.5,3.3l5-0.6l2.5,1.2l3.6-2.2l-1.6,2.6l-3.4,3.4l-2.7-0.6l-1.1,0.8l-0.7,4.1l1.9,3.4l-0.5,3.9l2.6,0.2l4.8-0.7
	l3.5,0.8h-3.3l-1.5,2.3l-4.4,2.7l1.8,9.7l2.3,1.5l1.9,6l0.4,5.9l-2.2,4.6l0.2,3.6l3.3,1.9l-3.7,1.9l0.9,7l6.2,11.2l0.3,3.7l2.2,3
	l-2.8,0.6l-0.1,4.3l6,7.8l-4.5,0.3l3.9,5.9v5.6l8.7,16.9l0.2,11.5l3.2,8.8l3.4,2.2l1.6,6.1l2.6,1.5l0.2,2.6l4.8,8.7l1.4,0.3v2.3
	l5.3,6.1l1.2,0.3l0.5,7.5l2.2,3.3l2.2,4.5l1.1,6.4l3.6,9.3l2.3,3.6l0.6,8.5l1.9,1.7l2.5,5.3l5.6,5.9l1.6,0.2l3.6,5.7l6.1,7l1.9,7
	l2,5.7l1.7,0.2v3.9l4.7,8.5l2.2,7.8l0.5,8.6l7.3,15.3l6.1,7.1l6.2,4.3l6.7,0.6l8.1-5l1.9-5.4l-0.9-1.6l0.9-0.9l0.3-2.2l2.3-3.7
	l7.1-3.1l1.4,0.2l8.8-3.1l3.2,1.2l0.9,1.9l-0.1-1.5l-0.8-1.2l-6.7-3.4l-0.6-2.6l1.9-2.3l5.3-7l-1-1.7l2.3-4.1l5.4-0.8l2.1,1l3.9-1.5
	v-4.7l-1.6-17.1l-2-3.1v-7.9l5.3-9.5l4.7-13.5l-0.8-10.1l-5.1-1.7v-15.9l-0.6-5.6l3.2-3.7l-3.4-10.1l-0.1-7.3l2-3.7l6.8-6.9h1.7
	l2.2,3.1l3.1,0.3l5.6-7.2v-4.4l4-3.4l9.2,1.4l4.8-3.1l3.4-5l-0.8-4.8l0.6-4.3l5.8-4.8l7.8-2.6l4.2-4.2l2.8-5.3l18.3-14.8l3.6-9.8
	l14-12.4l-1.8-0.9l-1.1,1.4l-3.3,1.3l0.9-5.4l2.2-0.3l3.5-2.8h1.6l0.8,1l0.1,2.1l1.2,1.6l11.1-5.7l0.4-2.6l7.5-5.4l-0.8-2.6l2.2-0.2
	l1.1-3.7l4.6-4l-1.3-0.6l0.2-1.3l-2.2-4.4l-0.7-2.5l2-4l0.9-3.1l2.2-1.8l12.8-4.7l3-3.4l0.3-2.9l1.2-2.9l1.2-1.2l-1.6-1.9l-2.4-0.6
	l-0.3-1.1h3.5l3.1,2.8L136,643l1.1,5.1l3.4,1.1l0.4-0.7l3.2,0l0.8-1.4l0.5,1l0.6-2.4l0.5-1.8l0.8,2.3l1.5,4.7l2.2,1.2v-2.2l3.2,3.4
	l2.2-3.7l-2.3-4.6l1-0.3l-0.6-6.4L152.9,635 M146,655l1.3-1.4l-1.3-2.2V655L146,655z M138.2,650.7l0.4,4l2.2,1.6l-0.6-3.7
	L138.2,650.7z M141.5,651.2l0.8,2.4l1.4,1l0.5-2.5l-0.3-2.1L141.5,651.2z M132.4,652.1l0.2,2.1l1.5-0.7l1.9-4.9l-1.3-2.1
	L132.4,652.1z M222,661.1l4-4.9l1.6,1.1l2.2-5v-4.9l-0.8-0.8l-1-1.7l-0.2-2.2l-0.9-1.4l-1.5-3.2l-1.6-5.5l-1.2-8.3l-1.5-3.1V617
	l-1.3-5.8l-1.8-2.9l-1-1.9l-3.5,0.3l-2.6-1.8l-1.9,1.5l1.3,1.9l-1.2,1.8l-0.1,2.2l-2.1,3.1l1.3,1l-0.4,3.3l-2.1,0.1l-3.2-4.2
	l-3.3-3.1l-0.8-2.1l-2.1-1.9l-2.1-5.5v-2.5l1.6-1.4l0.7-2.7l3.9-2.7l1.5,1.5l2.3,0.4l1.6-2v-2.7l2.5-1.3l2.7-6.8l0.8-5l2.2-4.3
	l-2.1-0.9l-3.5-3.7l-2.4,0.6l-1.5-1l-3.4,0.3l-6.9,0.3l-6.2-0.7l-8.3,0.6h-5.3l-4.3-1.9l-3.8,0.3l-3.8-1.5l0.2-3l-1.6-4.5l-0.6-2.5
	l-0.9-4.9l-2.8-5l-2.1,0.4l-0.3,1.5l-4-1.3l-2.1-2.1l-2.9-2.5l-1.8-0.2l-0.9,2.4l3,1.8l-2.1,1l-4.3-0.6l-2.9-3.7l0.1-2.2l-2.8-3.3
	l-1.6-2.4l-1.2,3l-1.8,0.2l0.2,2.8l2.1,1.8l-1.9,5.3l-4,4.6l-0.6,4.9l9.6,3.4l3.7-1.5l5.3,0.4l-0.9,2.5l1.2,5.3l-2.7,2.1l-2.5-0.9
	l-3,1.8l-1.8,5.5l-3.8,0.9l-0.1,8.1l4.6,5.5l5.3,2.1l5,6.4v6.8l1.9,5.2l-0.7,3.7l1,6.4l5.9,8.4l0.1,5.6l1.4,3.4l0.6,6.4l2-0.7l1.6,4
	l0.9,1.9h2.4l0.9-3l1.8-0.8l2.7,1.8l0.3,0.6l2-1.2l0.3-3.6l-2.2-4.8l1.2-0.1l0.4-4.3l1.6-2.6l-0.9-2l1.5,1.8v1.3l-2.1,6.9l2.7,3.9
	l2.5-4.2l2.9-1.4l-0.9,1.9l-1.7,0.7l-1.9,3.6l3.2,2.2l3.3-6.2l3.9-1.5l0.4-5.5L181,629l-2.6-1.1l4.2-1.6l0.6-2.2l-2.8-4.2l-0.8-7.2
	l1.7,6.1l3.7,3.4l2.3-0.2l0.8,1.4l7.3,3.4l3.9-2.3l1.4,0.6l-0.2-1.3h1.7l6.4,14.2l2.6,1.8l-0.2,2.8l-0.9,4.7l1.4,0.9l-1.1,6.1
	l0.8,1.2l2.5-2.3l0.6-1.7l-0.2,3.3l-1.1,2.5l1.7,2.2l3.7,5.3l3,7.3l0.6-0.3l-0.9-5.1l0.4-0.4l-0.3-1.4L222,661.1z M198.9,630.5
	l0.6,4.3l1.9-1l0.5-2.9l-1.3-1.4L198.9,630.5z M191.3,627.9v1.9l2.1,4.3l-0.4,3.4l1.8,2.7l2.8-5.3l-1-3.2L191.3,627.9z M187.2,626.9
	l-3.7,1.6l0.2,1.8l2.8,6.1l3.7,0.2l-0.4-6.1L187.2,626.9z M188.2,502.8l-5.2-0.1l-5.3,2.1l-3.8-1.8l-9.9-1l-2.1-3.4l-6.5,0.9
	l-10,5.9l-4.6,9l-4,1.9l-0.5,4.7l-1.5,3.4l4,6.4l7,1.5l2.8-1.8l10.1,5.8h5.5l4.1-5l4.6-0.6l4.3,1.9l7.4-2.1l5.6,0.3l8.3-2.7
	l-0.2-3.3v-5.8l-6.4-2.8l-0.6-4.1l1.3-5l-0.9,0.1L188.2,502.8z M111.5,509.3l-2.1-0.9l-5.2,2.2l-3.6-0.9l-4.1-5.6l-6.1-2.4l-1.2-4.9
	l-5-2.5l-7.7-0.9l-3.7,4.1l-4.4,1.3l-2.5,2.2l-5.8-2.8l-3.4,0.8l-2.4-4.7l1.2-8.4l-5.2-0.7l-6.5,1.8l-5-4.4l-0.6-5.6l-4.3-2.7h-4.3
	l-1.5-1.8l-2.4,2.2l-0.4,6.1l-2.1,0.9l-1.8-4.4l-3.7-4.3l-1.6-2.7l-4.4-2.2L7,467.8L1,461.4l-3.1-2.2l-4.9-0.3l-2.1-2.1l-7.5-2.8
	l-5,0.5l-2.5,3.7l-2.2-1l-4.1,0.1l-1.5-2.2l-6.1-3.1l-0.9,1.2l0.6,7.1l-3.3,11v6.8l-4.7,7.1l1.2,5.1l4.4,0.4l3.6,3l3.7,0.1l3.5,2.5
	l7.3,2.1l9.5,6.2l6.2,7.7l8,1.8l3.9,2.7h5.6l6.8,4.5l10.4-0.9l3.6,3.3l10.7-3l9.8,2.4l1.2,5.3l5.3,4.7l11,3l3.9-2.1l7.1-0.3
	l17.8,6.5l4.4-2.4l7.7,4.2l12.7-2.7l1.5-9.5l-3.8-8l1.8-9.8l-1.3-4.4l-3.8-0.3L111.5,509.3z M561.3,722.1h4.3l2.8,2.2l3-0.1l3.7,2.5
	l2.5-1.3l1-3.7l3.2-0.6l3.4,0.9l2.5-3.3l0.3-2.4l3.8-0.7l3-3.1l-0.7-3.5l2.1-6.4l2.1-1.6l0.9-3l3.1-5l-1.8-5.3l-4.3-2.8l-4.4-1.6
	l-2.9,2.1l-2.2-1.7l-4.2,0.9l-2.1-0.6l-2.9,2h-3.8l-4,2l-3.7,0.6l-0.9,3.9l-6.2,3.7l-5.3,5.6l1.9,3.3l0.1,7.7l2.4,4l-0.3,2.4
	L561.3,722.1z M1261,27.5l1.2,5.2l2.3-0.9l1.4-5l3.2-2.9l-0.7-6.1l2.2-2.1l0.3-2.5l2.2-1.8l2.5,1.1l3.2-3.1l3.5-7l4.6-5.6l5.3-0.5
	l3.7-2.3l-4.1,2.7l-1.5-4.6l-3,0.9l-5,5.7l2.7-3.8l-2.9,0.2l-3.3,2.3l-2.5-0.9l-1.6-3.6l-1.1,0.5l-1.6,4l1.4,2.6l-1.8,3.2l-2.8,4.8
	l-2.1-0.1l0.3,2.7l-1.3,4.6l-3.8,2l-0.5,2.7l2.2,2.4l-1.9,1.6L1261,27.5z M1262.8,57.6l2.1,0.8l4.2-2.8l0.8-3.5l-3.5,1.5
	L1262.8,57.6z M1244.9,46.2l2-1l5.8-5.5l1-5.1h-1.4l-3.4,0.9l-2.6-0.9l-2.4-2.2l-1.4,1.7l-0.8,5.6l-1.2,4.9l-0.9,7l-2.4,4.6l1,2.9
	l4.2,4.9l0.2-6.6L1244.9,46.2z M1232,46.9v-4l-1.3-2l-1.1,1.4l-0.9,4.2l-3.8,5l-7.6,5.2l-5.9,0.8l-1.7-1.2L1206,57l-4.6-4.4
	l-5.8-0.7l-7-3.4l-4.1-4.4l-4.6-1l-1.9-3.4l-5.9-4.3l-10.7-10.5l-3.2-6.3l-6.5-1.4l-7.7-6.3l-1.7-3.6h-5.3l0.5,2l-2.4,2.9h-2.2
	l-1.2,1.5l2,3.1l1.3,5.6l8.2,12.6l1.9,5.4l0.5,8.9l-0.8,3.2l2.3,7.2l1.8,4.6l-0.5,2l-2,0.3l-3.6,4.1l1.4,4.4l2.6,4.2l0.9,2.3
	l2.1,1.2l1.5,3.4l-1.5,1.5l-0.3,3.5l-2.6,2.1l-7.9-1.3l-7.4-4.1l-3.4,0.8l-1.7,3.6l1.4,1.7l1.8,0.3l4.8,3.6l0.5,2l-1.7,2.3l-2.1,4.7
	l-3.2,0.6l-0.8,2.1l-2.7,1.6l-1.7,3.8l1.2,4.7l-0.5,6.4l0.6,3.2l2.8,0.1l4,2.7l3.6,3.3l2.9,8.1l1.4,8.5l-1.4,1l1.8,3.9l3.9,2.4
	l5.6-6.4l1.7-3.9l-0.5-3.4l2.4-1.7l6.3,0.3l3.2,2.6l1.2-3.4l3.6-4.8l-1.9-2.7h-5.4l-5.1-1.4l-5.9-6.6l-5.1,1.4l-4.9-2.7l-1.5-3.8
	v-4.6l3.1-2.7l3.2-0.3l5.9,3.8l2.4,1.5l5.6-7.7l5.3-3.9l4.4,0.2l1.9,1.9l3.8,0.8l4.2-0.7l4.1,4.6l6.3,5.6l7.1,3.7l7.3,1.9l2.4,3.2
	l4.1,1.7l-0.3-3.6l0.8-3.9l-1.3-5.3l1-7.8l2.4-9.5l6.3-8.8l3.9-1.2l4.6,1.2h5.9l-0.3-2.4l3.2-2.6l1.7,1.4l3.2-0.2l1.7-2.6l0.8-3.6
	l4.1-1.7l2.9-2.2l0.3-4.6l2.2-1.4l1.5-3.4l-2.9,0.3l-3.4,3.2l-2.2,3.6h-3.6l0.5-2.4l-0.3-3.6l-3.9-4.9l-5.7-3.6l-1.6-2.2l0.1-6.4
	L1232,46.9z M1112.4,130.2l0.5,3.6l1.9,2.3l2.7-2l0.2-3.9l0.9-4.3l-2.6,0.9L1112.4,130.2z M1135.7,290.3l1.7-0.6l2.6-2.6l1.2-5.2
	l-0.8-2.6l-3.2-1l0.3-3.4l-0.8-3.3l-1.6,1.6l-2,7.9l0.4,3l2.9-1.7l1,0.7l-1.4,2.7L1135.7,290.3z M1085.1,399.9l-2.5,0.4l-1.6,2.6
	l-0.1,3.8l2.1,4.7l2.5-0.1l0.7-3l-0.8-2l0.6-3.4L1085.1,399.9z M1065.3,432.8l6.6,4.2l1.8,3.3l2.9-1.4l2.2-8.3l5.3-5l0.5-3.1
	l-1.7-1.7l-1-3.2l-5.1-4.1l-3.6-0.2l-3.4-2.6l-6.1-0.3l-5.8,4.8v2.9l-2.2,3.4l-4.2,1.4l-3.6,2.6l-2.2-0.7l-2.7-6.3l-2.2,0.2
	l-6.3,7.2l-0.2,4.3l-4.1,2.9l-1,4.8l6.6,1.7l1.2,4.6l-1.4,1.4v2.4l3.7,5.6l5.8,0.7l-0.3,2.9l1.9,0.9l1.5-1.7l2.9,1l2.2-0.7l-0.3-2.9
	l-4.2-4.6l2-4.1l2.1-6.8l5.6-3.4l1.5-2.6L1065.3,432.8z M1073,404.3l-3-0.7l-3.7,3.6l3.6,0.9l3-1.5L1073,404.3z M1013.8,542.4
	l1.2-2.1l-0.8-3.2l-2.9-3.6l-3,0.6l-1.1,2.8l2.7,4.7L1013.8,542.4z M1028.8,352.1l-0.8,2.6l1.2,0.6l1.7-0.9L1028.8,352.1z
	 M951.6,468.4l2.7-1.5l-3.3-0.6L951.6,468.4z M990.1,470.2l-1.7-0.9l-1.4,1.6l0.3,2.5l2.4-0.2L990.1,470.2z M955.9,464.7l4.7-8.9
	l-6.6,8L955.9,464.7z M1037,350.7l-0.8-3.7l-2.8,0.3l-1.9,3.2l1.5,1.8l2.1,0.2L1037,350.7z M957.6,669.9l2.4-0.9l0.2-4.2l5.8-3.6
	l0.2-4.1l2.2-2.9l-2.1-4.8l-2.4,4.8l-4.1,2.4l1,1.7l-0.7,2.2l-4.4,3.1L957.6,669.9z M911.7,714l-5.4-2.6l-0.5,4.9l1.9,1.7l3.2,0.3
	L911.7,714z M992.2,427.9l-4.9,3.9l-1.3,2.7l-3.1,2.4l-4.4,4.8l-1.7,3.7l-3.8,0.1l-4.3,2.4h2.1l2.2,0.3l1.6,4.2l2,5.6l-1.6,1.5
	l-0.8-3.7l-2-2.8l-1.1,3.8l1.2,4.3l3,1.3l0.5,2.8l-1.5,3l2.3-1.3l1.6-3.2l3.6-1.2l2.3,0.8l-1.8,1.7l1.7,1.3l3.6-1.1l-0.4-4.4
	l-2.6-2.3l-4.3,1.1l0.3-1.9l1.2-2l-1-3.6l2-2.6l3.9,1.5l4.1,7l0.6,5.2l2,2.4l0.3,8l-3.4,7.5l-4.1,0.4l1,2.7l3.6,6.2l1.5,8.2l3.9,4.6
	l-0.1,4l-2,2.5l3,3.7l3.7-0.5l3.2,1.9l1.5-1.8v-2.5l-3.5-5.4v-7.6l2.1-2.4l2.4,2l-1.4,2.1l-0.1,2.2l3.6,3.8l1.4,6.3l-1.2,3.8
	l0.6,3.3l4.4-2.7l4.6-6.5l-4.2-4.3l-0.2-2.6l2.2-1l3.4,1l2,1.5l1.2-4.8l-0.2-7.5l-1.3-3.7l0.3-13.4l-0.5-7.2l2.5-4.3l4.4-4.4l-1-3.6
	l-2.4-0.7l-0.2-4.4l-2.5-0.5l0.8-3.1l-7.8,0.1l-1.1-1.7l3.8-2.3l1.3-3l-1.2-6.2l-3.1-1.9l-3.8,0.7v1.5l-3.1,2.3l-3.3-0.5l-5.2-5.7
	l0.8-3.3l7.2-3.7l6.5-1.2l7,2.5l3.6,1.6l0.7-2l-0.2-3.2l0.4-4.8l-0.7-3.3l1.3-2.6l3.3-0.3l1.9,2.8l3.1,0.2l3.9-2.1l7.8-1.5l7.4-2.4
	l4.8-0.2l1.9,0.8l2.6-1.2l0.2-1.5l4.8-2.8l1.2-2.6l5.4-4.5l5.6-1.9l7.1,1.3l4.1-1.1l1.9,1.7v3.9l-3.5,5l-1,4l2.1,1.5l0.5,4.3
	l0.3,4.4l-0.7,1.8l1.2,4.4l4.8,2.1l6.6,6.1l4.4,1.3l2.9-1.5l4.6-6.9l0.4-4.5l2.6-1.6l0.7-2.3l-0.9-3.2l3.1-5.7l4.1-0.6h3.7l1.3-2.4
	l-1.1-1.7l-1-4.9l-8.4-3.7l-1.1-2.4l1.9-6.3l2.7-2.4l1.8-0.6l-0.9,2l0.5,5.1l1.6,1.4l2.1-1.5l1-1.4l3.2,0.8l2.4,1.6l2.5-0.8l1.6,0.4
	l-0.9,2l-4.2,1.1l-0.5,1.2l1.5,0.8l3.6-1l5.8-3.1l11.9,1l6.1-0.7l-1.7-1.5l-1.2-4.8l1.2-5.4l5.1-2.6l3.9,0.7l0.8,4.8l-1.4,4.4
	l1.9,3.4l3.6-0.3l3.6-4.9l-2.7-8.2l1.4-5.1l5.8-4.4l3.2-0.2l1-2.2l-2.2-2.7l1.2-5.6l2.9-1.9l4.4,0.9l1,2.6l-2.2,3.2l-1.2,6.5
	l1.3,13.4l2.2,1l3.1-2l2-4.4l3.9-0.3l4.4-4.8l1.7-6.1l-1-3.9l5.1-4.8l-0.7-3.1l-2.5-2.4l-5.4-7.5l-1.9-5.6l-1.5-11.4l1.7-13.3l0.3-9
	l-4.1-16.5l-5.8-7.8l-0.5-6.1l1.4-7.7l7.3-3.4h3.6l1.9,3.2l1.3-1.7l-1.2-5.5l-0.8-3.6l-1.5-1.8l-1.2-4.7l0.3-2.4l-0.1-3.6l1.7-2.9
	l-0.1-1.5l0.5-3.7l-1.4-2l-0.3-5.8l1-2.9l-1.9-3.4l-1.4-9.2l-4.3-7.5h-2.4l-2.6-1.4l-0.5-10l-4.4-4.1l-9.6-10.8l-2.6-4.8l-1.9-7.4
	l-0.5-7.2l0.3-2.4l-2.7,1.7l-2.1,0.3l-1.1-1.4l-4.2-1.9l-2.3-0.3l0.3,1.5l-2.3,5.8l0.1,4l2.1,2l2.2-1l5.3-4.7l2.4,5.9l-1.8,4.3
	l-2.8,1.8l-3.1-2.3h-1.1l1.4,5.6l-2.1,2.2l-3.3-1.3l-0.8-4.1l-0.8-4.8l-1.4-2.4l-2.9,0.9l-2.6-1.5l-0.9,3.8l1.7,6.9l0.2,4.8
	l-2.8,1.1l-2.8,4.2l0.1,2.7l5.9,6l2,3.6l-2,6.4l-3.2,2l-3.7-0.8l-0.8,2.6l3.4,4.3l3.6-0.9l3.1-3.5l4.6,10.4l1.7,11.4l-1,6.3
	l0.5,11.2l-4.1,16.5l1.2,6.3l-1.9,7.2l-5.8,3.1l-2.6,7l0.3,7.8l-2.9,4.6l-0.8,4.8l-5.7,5.3l-11.2,6.8l-4.4,1.3l-2.2,4.5l-5.7-3.2
	l-5.5-6.9l0.2-2.9l2.5-1.2l2.5-4.3l-0.4-2.5l2.9-3l-0.2-1.2l-5.4,1.3l-3.9,4l-5,2l-1,4.5l3.3,5.6l0.7,11.1l-0.7,5.4l-5.4,5.6
	l-0.1,3.1l-2,2.2l-0.8,8.3l2,2.3l0.3,3.4l-1.5,1.3l1,1.4l-1.2,2.9l-2.3,0.3l1.5,2.1l-3.6,1.5l-2.5-1.9l-3.4,2.6l-2-0.8l-0.9-5
	l-1.3-0.6l-3.1,2.2l-2.9,0.1l-1.4-1l-10.2,3.6l-5.4,2.1l-5.4,1.9l-6.1,0.4l-5.8,1.8l-2.1-1.3l-4.9,0.6l-8.8,6.2l-1.6,5.5l-3.2,2.2
	l-0.8,3.4l-6.5,7.4l-4,1.5l-3.4,4.7l-1,3.1l-3.5,3.6l-6.3,1.3l-2.2,3.2l1.5,7.4l2.4,1.3l0.8,2.7l-1.4,2.6L992.2,427.9z M961.3,454.8
	l0.8-1.1l-1.5-0.2L961.3,454.8z M965.9,451.4l-2.9-2l-1.4,0.1l0.2,0.8l2.6,2L965.9,451.4z M1020.3,527.3l-0.4-4l-2.6-2.3l-0.1,3.2
	l1,7.6l1.1-1.3L1020.3,527.3z M982.5,468.7l-1-0.2l-1.8,2.2l0.7,4.5l1.7,3.2l2.2,0.1l1-3.9l-2.6-4.5L982.5,468.7z M977.9,623.7
	l0.2,2.9l3.4,2.8l1.4-1l-0.8-3.8l-3.1-2.5L977.9,623.7z M997.1,601.6l-3.4,1l-1.4,0.9l-2.6,0.2l-0.8,1.4l-1.4,0.4l-4.1,1.9l-1.6,3.3
	l1.3,1l3.8,0.2l2,1.5l1.1-1.4l0.3-2.9l4.3-2.8L997.1,601.6z M946.1,472.9l1.6,5l3.1,0.4l2.7-2.2l-1.7-3.2l-2.7-1.5l-0.3-2.8
	l-2.5,1.2L946.1,472.9z M985.2,478.7l-1.9,2.1l1.5,1.4l1.7-2.8L985.2,478.7z M880.8,425.5h1.8l-0.3-4l-1.2-2.5l-1.6,2.8h-1.5
	l-0.9,1.7l2,3.3L880.8,425.5z M898.1,457.1l3.1-5.5l-0.3-3.1l-4.6-0.8l-10,3.1l-2.7,3.4l1.7,3.6l4.6,0.9L898.1,457.1z M914.7,408
	l-2.2,1.5l1.1,2.2l3.5-1.5L914.7,408z M953,412.8l-2.2,1.4l-1.3,2.9l-0.1,4l1.1,3.3l1.8-1.6l2.4-4.8l-0.8-3.3L953,412.8z
	 M948.4,432.4l1.9-0.3l2-1.9l1.3-3.2l-3.7-0.3l-2,3L948.4,432.4z M1157,2324l-8.9,3.6l1.4,3.2l5.7-0.7l6.1,0.2l2.7-2.8l4.1-1l5-4.1
	l4,1.2l3-0.5l-2.4,4.1l-2.3,3.9l-4.3-0.3l-1.2,2.5l4.2,6.1l1.8,5.1l3,7.5l0.4,8.8l-0.9,10.9l-5.9,6.2l1.1,3l-0.9,8.2l4.1,3.6
	l3.6,6.3l1.1,7.7l8.4,11.3l6.4,1.6l4.5,3.2l2.1,5.7l4.8,0.4l1.1-2.1l3-1.1l6,2l5,6.1l5.4,0.5l5.9,5.5l0.7,4.8l4.6,1.6l4.8,5.7h3.6
	l1.6-3.2l9.1-4.3l2.8-4.1l5.7-0.2l6-6.1l4.4,0.9l2-2.3l-1.2-2.4l-5.2-1.4l1.7-3.1l9.3-6.1l7.8,5.4l-0.3,5.2l-9.4,5.2l2.2,4.4
	l2.9,0.7l3.5-3.7l3.8-2.9l4.8,2.7l-0.4,4.6l-2.8-0.1l-3.8,3.7l6.3,7.3l1.2,8l2.3-1.4l3.2,0.4l0.4,4.8l3.4,5l3.4-5.9l-0.3-6.4
	l-3.8,2.9l-0.9-2.7l2.9-3.2l11.6,0.4l1.4,2.3l1.6-2.7l5.9-8.1l12.1-7.3l6.8-6.1h-3.6l-2.7,1.6l1.1-1.4l-4.1-1.4l4.5-0.4h6.1l8.9-2.7
	l18.2-3.6l14.6,2.9l6.1-3.6v-3.9h4.3l4.4-3.1l4.1-8.4l-1.8-9.3l-0.2-5l8-8v-14l3.8-5.4l1.6-9.4l4.7-2.2l-0.4-4.6l14.3-17.9l3.9-0.7
	l2.5-9.7 M1393.1,905.9l-1.3-2.6l-3.9,2.1l2.7,0.7L1393.1,905.9z M1400.6,876.1l-4,3l3,6.3l0-4.4l2.2-2.7L1400.6,876.1z
	 M1383.6,918.4l-1.5-1.1l-4.1,0.9l-2.1,3.4l-0.8,2.6l1.6,1.6l3.1-0.8L1383.6,918.4z M985.7,964.9l-1.6,0.2l0.8,1.7l1.9-0.5
	L985.7,964.9z M859.5,969.3l-1.2-2l-0.7,1.7l-1.6,1.2l-1.1,2.6l3,0.4l3.1,0l0.2-2.4L859.5,969.3z M975.2,1003.7l-1.5,0.2l-0.2,5.4
	l-1.1,2l-2.5-2.1l-4.5-2l-2.4,8.1l1.6,1.3l-0.6,3.3l-2.6,1.1l-2-4.8l-4.4,1.7l-2.5,7.1l-4.9,2.3l-4,0.9l-3.8,3.6l4.6-6.5l-0.1-7
	l-5.4-4.9l-3.3,0.2l-2.5,3.6l-4.9,2l-2.1,3.7l1.7,3.5l-5.9,1l-3.9-1.4l-3.1,2.9l-4.1,0.9l-3.9,4.4l1.3,3.1l-1.4,6l-3.1,5.8l4.2,4.8
	l1.8-2.7l3.4-8.7l2.5-2l2.4-5.1l2.3-1l2.7,2.7l-1.1,4.3l1.2,1.2l1.9-1l2,1.4l0.4-3.8l1.6-1.2l2.1,0.8l-1.1,2.5l2.2-0.2l3.3,2.6
	l1.7,0.3l-2.1-3.3l1.4-1.8l-0.9-1.9l1.7-1.8l2,0.1l3.8,3.6l3.5,0.9l3.8,3.4l0.7,3.6l3.2,3.4l-3.6-1.5l-1.7,0.8l0.2,2.2l-2,2.4
	l1.9,2.4l0.3,3.3l-1,2.6l2.8,4l0.6,3.5l3.8,4.7l4.7,0.2l3.5,3.5l4.3,1.9l3.5-1.8l0.6-2.3l2.2-1.5l1.3,1.8l-1.6,2.4l1.2,4l1.2,1.7
	l3-2.1l6-7.2l0.4-4.3l-1.8-2.7l-2.1-5.6l-3.5-2.8l0.9-3.4l5.5-8.8l2.9-1.6l2.8,4.3l0.8,4.2l1.9,3.2l-0.3,3.8l1.7,6.4l1.3,2.9l0.3-3
	l0.6-4.6l-1.3-6.2l0.8-2.5l2.4-0.3l1.3,2.8l0-2.6l1.7,0.2l2.3-5.5l-0.5-6.8l-2.3-4l-2.2-3.6l0.2-4.7l-0.4-4.9l-1.6,2.4l0-5l0.4-2.6
	l-1.7-0.2l-2.3-3.1l0.7-2.2l2.9,0.6l0.2-5.3l-2.9-4.6l0.2-3.2l-2.8,2.3l-4-4.2l-5.6-4.9l-0.8-3.5l-1.4,0.3l-3.3-0.9l-0.3,4.7
	l1.6,8.2l-0.3,3.2L975.2,1003.7z M983,971.4l1.4,1l1-1.7l-2.5-1.7L983,971.4z M856.8,945.8l1.4-1.9l1.6-1l-1.3-3.2l-4.2-1.3
	l-0.5,2.5l1.1,4.8L856.8,945.8z M875.2,774.7l4-0.6l-2.8-2.8L875.2,774.7z M908.9,944.1l-3.9-4.2l-4.4,1l-0.9,2.5l4.3,1.7l2,0.6
	l-0.2,4l-1,3.9l-0.1,7.2l-1.7,5l1.4,7.1l1.9-0.7l1.4-1.7l4.7-2.8l2.7,0.2l0.6-1.3l2.2,0.1l1.8-2.8l5.1-4l2.2-4.4l2.3-1.7l0.8-3.5
	l-1.8-3.1l-2.6,1.5l-2.8,3.3l-2.4-4l-2.9-0.9l-4.4,0.2l-2.3-0.3l0.8-1.6L908.9,944.1z M918.1,931.1l0.4-2l-2.8-1.5l-1.9,1.3l0.5,2.5
	L918.1,931.1z M980.1,980.9l2.2,5.2l-0.7,2.6l0.8,2l1.6,0.4l1.1-4.8l-2.7-3.6l0.1-3.9l1.6-0.9l-1-2.4l-2.1,0.8L980.1,980.9z
	 M928.5,938.2l0.8,2.5l3.6-5.4l3.1-0.2l4.3,5.9l5.1,2.3l3.3-0.3l0.1-2.6l-2.4-3.3l-6.3-4.4l-2.8-0.6l-3.5-3.5l-1.5,0.1l0.4-1.4
	l-2.9-1v4.6l0.7,3.4l-1.9,1.5L928.5,938.2z M906,923.8l-1.9,4l-2.7,3.5l2,5.5l2.6-0.8l1.8-5.2l-1.3-3.8l1.1-4.8L906,923.8z
	 M941.1,931.3l1.8,0.1l-3.4-4.5l-2.8-1.1l1.1,2.2L941.1,931.3z M919.5,971.8l0.3-2.6l-1.5-1l-3.5,1l-1.4,4.1l2.4,2.2L919.5,971.8z
	 M892.3,912.9l-4.2-1.8l-8.5-8l-5,1l-4.8-2l-3.9,1.8l0.8,2l2.9-0.1l0.9,5l2.8,1.2l2.6,3.7l-0.2,6.5l3.3,2.1l0,3.8l3.9,5.1l3.4,0.7
	l3.9-3.1l0.1-3.3l2-1.3l0.1-3.6l-2-3.2l1.6-2.8L892.3,912.9z M948,958.5l-2.3,0.8l-1.6,7.5l-4.1,6.2l-0.6,4.8l-2,6l-3.3,3.8
	l-0.3,4.4l0.8,3.5l3.3-3.5l1.8-8.9l6-6.3l1.2-4.1l-0.5-3.8l1.6-2.5L948,958.5z M988,995l1.8,2l0.8-2.5l-2-1.8L988,995z M913.7,994.1
	l2.9,0.6l4.7,3.2l4.2,0.5v4.8l3.1,1.8l3.8-2.1l0.3-3.8l-2.6-5.4l-0.3-8.2l3-11.9l3.9-3.8l0.3-3.5l-3.1-2.5l-2,1.2l-2.7-1.5l-3.4,2.2
	l-0.1,4l-2.5,3.7l0.6,5.6l-2.4,4.8l-6.7,1.4l-1.9,2.5L913.7,994.1z M964.5,1002.5l-3.6-3.2l-0.8,2.1l0.8,2.6l3,2.1L964.5,1002.5z
	 M935.4,1003.5l2.6,2l3.4-1.3l0.5-2.4l-1.3-1.1l-3.9,0.3L935.4,1003.5z M995.1,991.4l-1.4-4.1l-1.8-3.9l-1,4.5l-0.7,1.6l2,2.8
	L995.1,991.4z M806.8,1021l-0.9-2.7l-1.3,1.4L806.8,1021z M904.7,1059.1l-3.7,0.2l0.1,2l2.4,3.9l2.4,0.8l5.5-4.6l0.4-1.5l-2.3-0.9
	l-2.5-1.7L904.7,1059.1z M796.2,1024.3l-0.3,2.8l2.3,4l2,0.1l0.3-5.3l0.7-1.7l-1.3-1.1L796.2,1024.3z M803.6,1019.3l0.3-1.7l-2.2,2
	L803.6,1019.3z M887.8,794.4l-3-2l-3.4-4.1l-8-1.8l-6.1,1.9l-0.9,4.7l-4.5,8.3l1.1,5.2l-0.1,8.6l-2.8,10.4l-2.1,4.9l3.1,7.1
	l-0.1,2.7l-3.1,1.5l-3.6-0.7l-2.8-3.6l-0.8,5.1l0.9,4.6l2.4,0.2l0.7,1.5l-1.6,2.8l1.3,6.1l3,5.8l-0.1,7.6l1.8,1.4l1.6-1.2l1.6,0.7
	l0,4.2l3.9,5.4l2.7,0.3l2.5-3.1l-2.2-2.5l0.2-2.6l4.5,0.6l3.5,2.8l-4.7,5.7l-2.4,2.7l0.4,2.4l-0.6,5l2.6,4.8l1.3-4.2l2.4-0.8
	l1.6,3.7l-2.1,3.4l3.3-0.7l3-2.5l4.7,5l4-2.3l-0.8-2.9l1.9-2.7l4.9-0.3l8.5,3.8l1.6,3.2l4.6,3.5l3.9,7.1l1.7-0.2l-1.1-7l-4.1-7.8
	l0.7-2.1l2.2,0.5l2.3,2.5l2.7,1.5l2.6,4.9l6,2.5l1.5,4l-0.1,4.5l3.1,1.2l4.5,5.6l3.7-1l-0.1-1.5l3.5,0.9l-0.4,2.1l-3.4,1.9l3.3,4.3
	l3.6,1.3l1.7-6l-0.4-2.6l1.9-1.8l-1.6-2.3l-3.5,0l-3-1.6l-4.2-0.1l0.2-2.9l-2.6-7.4l-0.7-3.7l2.1-1.3l2.1,1.3l3-0.4l-0.8-1.5l-4-2.9
	l-5-0.4l-2.2-4.1l-1.9,1.4l0.2,4.1l-2.9,1.7l-1.9-2.2l0.7-4.4l-2.3-5l-6.1-4.2l-4.1-0.1l-5.8,4.3l-1,3.3l-3.4,1l-4.7-1.8l-1.8-4.2
	l-3.2-2.7l0.2-4.5l1.7-2.4l-2.6-3.1l-2-5.5l-2.2-1.9l0.9-5.1l2.2-3.1l-0.3-4.7l1.6-3.7l6.7-6l2.6-1.4l-1.4,3l0.2,2.1l3.7-5.5l-1.1-5
	l2.8-6l2.3-9.8l-2-2.6l-1.2-5.3l-2.4-1l-3.6-6.6l1.2-8.2l2.5-2.8l0.4-3l-2.6-3.7l-2,0.7l-0.4,2l-3,2.3l-5.9-0.2L887.8,794.4z
	 M944.1,989.2l2,2.9l-0.4,2l5.2-0.1l6.4-2.7l1.7-2.7l-0.2-4.5l-2.2-2.2l-2.4,0l-7.4,4.1L944.1,989.2z M968,969.1l-0.5-6.4l-2.2-5.3
	l-0.7-1.8l-4.3,1.3l-3.7-1.8l-2.8,0l1.5,4.1l-0.1,4.3l2.5,2.7l2.1-2.1l2.4,2.4l-0.5,5.5l1.8,3.8l0.5,6.2l3.3,2.5l0.6-5.8l2.2,3.2
	l3.7-0.9l0.5-3.3l-3.5-6.4L968,969.1z M973.2,983l-0.9,3.6l2.8,3.4l0-3.2L973.2,983z M953.6,972.4l0.3-4.1l-1.7,1.9L953.6,972.4z
	 M810.3,1004.1l-6.3,7.7l-1.1,2.1l0.4,1.5l4.2-3.1l2.8-0.4l2.8-2.8l4.5-1.6l4.9-6.9l4.9-1.5l3.4-2.8l0.4-2.1l3-3.4l0.2-6.4l2.5-2.8
	l6.4-0.2l1.6-4.2l3.1-2.9l3.3-0.5l1.9-3.4l-2.1-5.2l-2.9-3.9l0.4-3.9l-0.2-6.1l-1.8,0.7l-1.1,6.5l0.4,6.1l-3.1-2.1l2.4,4.2l-0.2,3
	l-3.6,4l-2.7-0.4l-3.9,4.3l-0.4,3.2l-4.3,2.3l-4.5,8.8l-6.2,5.7l-3.3,0.3l-3.2,5.6L810.3,1004.1z M952.4,951.1l3,2.1l3.3-0.3l1-4
	l-4.9,0.5L952.4,951.1z M924.9,913.1l-1.6,0.3l-0.2,2.4l5.3,6.1l1.1-2l-0.5-2.4L924.9,913.1z M954.4,927.8l-1.7-0.9l-0.2,2.8l3,6.8
	l5.2,4.4l4.6,5.8l2.1,1.4l-0.7,1.9l-2.1,2.5l-0.6,0.9l2-0.7l0.7,1.2l1.5,1.2l3.3,2.2l1.1,2.9l6.2,0.6l1.2,0.7l1-1l2.2,1.1l-1.9-2.6
	l-1.2-3.8L978,953l0.5-6l-0.5-7.5l0.5-2.3l-1.7-1.3l-3.3-4.9l-2.1-3.9l-2.5-0.3l-1.4,0.6l-2-1l-2.2,0.4l-1.5,1.5l-4.2-0.3
	L954.4,927.8z M947.2,905l5.6-1l1.7-4.3l-1.8-4.3l-2.9-3.3l-2.1,1.5l0.6,4.7l-1.3,3.2l-1.5,1.1L947.2,905z M902.1,866.6l-5.1,2.7
	l1.9,5.7l-0.7,1.8l0.7,2.9l3-2.6l0.7-6.3l2.2-2.1L902.1,866.6z M900.8,888.8l3,1.8l-0.6-3.3l-2.9-2.1L900.8,888.8z M894.2,776.5
	l-2.7,3.1l2.4,2l1.8-3L894.2,776.5z M900,901.5l-2.3,3l0.5,3.1l4.8,3.5l1-2.3l1.8-2.1l-2-3.6L900,901.5z M884.7,770.3l0.8-4.5
	l-3.3,2.2L884.7,770.3z M865.5,899l-3.7-4.2l-2.8-0.1l0.4,3l5.1,2.4L865.5,899z M880.7,782.3l3.4-1.7l-5.3-0.2L880.7,782.3z
	 M853.9,931.2l1.3,3.2l1.8,2.3l4.5,0.5l2.7,1.3l1.9-2.1l-0.8-2.2l-4.2-1l-2.4-2.9l-3.3-0.6L853.9,931.2z M814.4,1122.8l-4.3,0.9
	l3.1,1L814.4,1122.8z M811.3,1114.5l2.1,1l-1.1-2.2L811.3,1114.5z M816.8,1114.2l0-1.4l-4.4-1.8l-0.2,0.8l1.2,2.1L816.8,1114.2z
	 M1009.1,1116.1l-0.8-4l-2.8-1.9l-2,1.3l1.4,5.1l0.3,3.9l2.2-0.8L1009.1,1116.1z M848.7,1096l-0.9,2.6l1.7,3.9l0.1-3.4L848.7,1096z
	 M861.8,1092.3l5-3.3l-0.2-3.2l-3.3,0.5l-7.1,5.5l1.1,1.4L861.8,1092.3z M976.5,1128.5l0.6,5.3l3.7,3.4l1.9-2.1l-1.2-4.4l-4.1-5
	L976.5,1128.5z M1004.9,1126.4l1.6,0.1l-1.2-4l-2.3-0.7L1004.9,1126.4z M1012.7,1220.5v-2.2l-2.3-0.2l-1.4,4.1l2.6,1.1
	L1012.7,1220.5z M876.1,1065.2l1.2-2l-0.9-2l-2.8,3.1L876.1,1065.2z M881.6,1072.1l-1.7,1.8l1.2,1.5l3.6,0.2l1.8-1.2l1.9,1.2l3-1.4
	l0-1.8l-4.7-1.1L881.6,1072.1z M866.7,1338l-3.1-6.8l-1,2.1l-0.4,3.3l-1.5,2.6l1.7,3l0.8,3.2l1.7-4.3L866.7,1338z M929.4,1240.5
	l1.2,1.6l3.8-0.8l0.8-3.2l-2.9-2.4l-1.6,2.5l-3.2,0.7l1.4-2.4l-0.4-1.8l-5.7-0.7l-4.8,2.7l0.1,3.9l3.1,2.4l2.8-2.3l3.4,2.7
	L929.4,1240.5z M924.4,1251.2l1-2.4l-3.2,1.3L924.4,1251.2z M900.1,1214.5l-3.5,0.8l3.3,1.5L900.1,1214.5z M957.4,1195.8l1.9-3.4
	l2.7-0.2l2.4-2.6l2.9-1.9l1.5-3.6l1.9-3l2-1.4l-1.9-2.2l-0.4-2.4l-5.9-1.6l-4.1,1.2l-0.9,4.1l-3.2,2.3l-0.4,2.1l-4.5,3l-3.3,0.3
	l-2.2,3.1l-5,1.1l-9.9-2.3l-8.4-1l-1.6,2.2l-2,0.2l-4-3.8l-3.2-0.4l-3.6,0.1l-3.9-1l-5.4-1.1l-2.9,1.7l-3.1-1.9l-4-4.1l-6.2-1.4
	l-3.8,0l-0.1,4.5l-3.2,2l-1.9,3.9l-2.8,2.3l-5.4-2l-5,1.1l-2,2.2l0.4,1.5l-5.4,4.8l-0.2,6.1l0.9,3.5l-0.5,7l-1.1,2.4l1.9,5.1
	l0.5,3.9l-1.6-2.2l-1.1-3.2l-2.7,0.7l-2.8,3.2l-3.4,1.7l-0.9,4.1l0.4,4.9l-1.6,3.1l0.8,8.8l-1.1,1.9l-0.7,3.5l-2.8,1.1l0,5.3l-5,3.6
	l-1.7,5.4l0.7,1.7l-1.9,2.3l2.2,7.4l2.2,3.4l1.5-0.8l3.2,0.1l2.3-1.6l2.1,1.1l1.2,5.3l3.3,9.8l-1.6,2.4l-1.4,5.4l-3.2,4.3l-0.8,9.1
	l0.4,7.1l2.3,0.1l2.8,1.9l4.4,0l2.1-2.2l3.9,1.1l3.5-0.5l2.5,2.1l0.8-3.3l-0.3-4.3l-2.8-2.1l-0.4-5.5l2.4-3.7l1.1-6.9l-0.6-6.5
	l-1.6-1.9l4.3-5.9l1.5-5.4l-1-6.5l-2.6-2.5l0.1-2l4.6-2.7l1.9-2.8l4.3-0.8l4.2,1.7l-0.5,2.1l1.9,3.5l-0.1,4.2l-3.5,3.7l-1,3.7
	l2.1,4.3l2.9,0.5l2.5,3.3l4.7,3l0.6,4l-1.6-0.3l-1.3,7.7l1.4,4.3l3,1.2l2.3-0.7l4.6,2.1l3.5-0.5l-0.2-1.5l-1.1-3.1l3.7-3.2l3.6-0.8
	l5.1-2.7l6.2,0.7l2.3-2.3l1.6,0.9l3,0.1l1.9-3l-0.5-1.8l-5.4-0.6l-1.7,0.7l-1.8-0.7l-3.9,0.3l-0.2-3.1l-2-0.4l0.2-2l-1.8-0.5l-1.9,1
	l-0.1-2.3l-3.6-1.2l-1.1-2.6l2.5-2.3l1-1.9l1.5,0.7l-1.1-2.6l1.8-0.2l1-2.1l-1.9-2l-2.9-1l1.3-1.9l-0.4-2.3l-3.5-2.5l-2.4-0.2
	l-0.9-4l-5.5-6.7l-3.4-2.5l-2-3.9l0.5-1.7l1.7,0.2l0.8,2.2l3.8,0.3l3.4-2.5l1-2.6l8.6-2.8l6.2-4.5l3-4.8l3.9-1.8l0.2-2.9l4.6-0.9
	l4,2.3l2.6,0.4l3.8-5l0.1-3.3l-4.3-1.8l-9.4,0.6l-4.2,2.8l-6.2-0.2l-3.1,0.8l-3.8,3.7l-3.9-0.4l-3,0.7l-3.9-2.5l-3.8-1.2l-4.2,5.2
	l-3.1,6.9l-4.2,2l-4.4-0.7l-1-2l-5.3-6.2l-5.3-4.9l-2.6-7.5l0.9-8.2l3.6-7.8l3.9-3.7l4.9-1.5l5.7,2.9l6.8,0.4l7.7-3.6l5,0.8l1.8,2.5
	l4.4,0.1l2.6-1.2l8.9,1.2l4.7-0.2l1-1.2l5,0.3l3.3,1.9l1,2.2l4.2,1.5l16-3.1L957.4,1195.8z M928,1247.9l3,0.6l-1.1-2.2L928,1247.9z
	 M936.1,1245.2l-0.7-2.9l-2.5,1.8L936.1,1245.2z M1019,1220.4l-2.9,0.4l-1.3,1.2l0.2,2.5l2.2,3.6l3.6,0l2.2,2.2l2-1.9l-1-1.8
	l-2.9-1.4l0.3-3.1L1019,1220.4z M892.4,1316.7l-0.3,2.6l-1.3,1.2l1.4,4.6l1.8,0.8l3.2-2l-0.9-4.3l-2.4-3.7L892.4,1316.7z
	 M893.6,1216.3l1.7,2.4l3-0.6l-2.8-1.8L893.6,1216.3z M1042.1,1166.8l3.1-2.9l-1.1-3.3l-2.7-1.8l-2.7,1.9l-3.2,1l1.1,6.7l2.4-2
	L1042.1,1166.8z M901.6,1321.8l1.6,1.4l3.7-0.3l0.6-1.7l1.6-0.4l0.6-3.5l2.8-2.6l0.1-2.2l-1.8-3.6l-3.6,1.7l-2.9,2.8l1.1,2.5
	l-3.9,4.1L901.6,1321.8z M640.7,1230.1l2.7-0.7l4.2-4.1l-3-2.3l-5.2-0.4l0.3,2.5l-0.7,2.7L640.7,1230.1z M638.6,1208.4l-5.1-1.7
	l-0.8,0.5l0.7,2l3.7,1.4l2.2-1.1L638.6,1208.4z M779.6,1278.8l-1.1-1.1l-0.8,1.6l0,5.3l1.2-0.3L779.6,1278.8z M776.7,1285.3l0-7.3
	l-1-1.7l-2,1.2l-2.4,6l-0.8,6l1.6,2.1l3.3-2.2L776.7,1285.3z M778.7,1257.1l3.3,1.1l1.4-3.2l-0.4-2.9l-2.4,0.2l-1.3-1l2.5-1.7
	l0.7-3.7l-0.8-0.8l-5.1,0.1l1.7-2.4l-0.7-1.9l3.1,0.6l3.5-1.3l0.8-3.7l3.7-4l0.4-4.4l-1-2.8l2.1,1.1l1.6,4l3.8-3.7l2.7-3.7l-1.9-5.5
	l5.7-4.2l1.7-7.2l1.9-2.8l1-8l2-2.2l0.1-3l4.5-4.2l1.9,2.7l1.3-2.1l-1.2-5.7l6.6,6.9l4.8,0.8l3.3-2.2l2.7,1.2l2.6-1l1.2-3.7
	l-3.3-0.9l-1.1-2.6l-3.3-4l-3-0.1l-8.7-8.6l-3.1-1.9l-0.8-3.7l-1.8-1.6l0.8-2.6l5.5-1l2.2-3.9l-3.1-3l-6.7-7.5l-1.2-4.4l-3.4-3.1
	l1.6-3.1l1.8-0.4l-0.4-2.3l-1.7-1.1l-3.2-4l2-1.2l4.7,0.9l4.7-1.1l-3.9-5l-4.3-1.8l1.4-2.1l-0.2-2l2.1-0.4l0.3-1.1l-4.5-1.5
	l-5.9-0.1l-2.2-1.8l-9.2-0.4l-6.7,0.4l-3.4-1.6l-4.6,5.2l0.2,2.7l-2.2,3.6l-0.1,3.2l-5.1,16.1l-6.7,9.3l-3.6,8.8l-8.7,12.3l0.5,3.2
	l-10,1.2l-8.8,4.4l-5,0l-1.6-2.6l-5.2-2.8l-10.2,0l-3.2,2.6l-11.8,4.3l-11.5-1l-3,1.4l-5.2-0.6l-0.8,2.4l-6.1,1.5l-3.1-0.5l-1.6-3.6
	l-4.6-4.6l-0.6-1.8l-6.6-5l-4-7.8l-3.3,0.9l-2.2,3.1l-5.2,6.5l-3.5,5.6l-0.3,2.9l1,2.9l-0.5,2.5l-2.9,1.6l0.3,8l6,8l1.8,3.2
	l-2.4-1.3l-1.3,1.2l2.5,5l4.2,1.4l2.8-0.5l6.6-0.8l5.7-3.3l3.8,1.3l-4-0.4l-5.1,3.7l-7.4,1.5l-3.4,2.8l-3.8,0.3l0.1,1.7l4.9,1.3
	l5,3.2l5.8,6.2l1.9,3.8l0.4,3.7l-3,4.1l-2.4,2.7l0.9,2.6l3.6,2.5l0.8,9.4l-0.1,5l2.2,5.9l2.4,0.1l3.4-2.7l1.2,2.8l4.4,0.4l3.2,1.3
	l5.3-0.3l3.7-2.5l2.5,1.9l2.7-1.7l2-4l-0.3-2.3l1.2,2.8l-1,3.6l1.6,5.2l0.4,7.1l-0.6,3.4l3,0.1l5.1-5.8l2.5-0.6l2.1,2l3.1-0.3l0.9-2
	l5.2-0.6l3.3-3.4l2.3-0.2l3.7,2.4l2.5-1.4l2.2,2.1l-0.1,3.3l1.6,2.2l3.9,1.2l-1.4-2.8l1.6-3.3l1.7,3.4l3.3,1l2-1l2.2,3.1l2-0.8
	l0.7,1.6l2,3.2l-0.8,3.2l1,5.8l4.1-0.5l8.8-3.8l6.1-0.8l7.3-4.6l4.6-7.9l0.1-2.9l1.4-5.2l0.9,1.7l2.2,0.1l3.4-6.7l-1.2-1.2l-1.8-1.9
	l0.3-1.7L778.7,1257.1z M644.6,1221.4l-0.1-1.5l-1.7-0.6l-2.3-2.3l-5.3-1.1l-0.5,1.6l2.8,3.6l2,0L644.6,1221.4z M1057.2,1213.1
	l5.6,3.3l-0.6-2.1l-7.8-4.3L1057.2,1213.1z M1045.4,1188.9l3.4-7.3l-0.2-3l-2.3-2.7l-6.7,2.2l-6.4,3l-0.6,2.9l2.1,0.2l-1.9,2.1
	l-3.7,1.5l-1.5,3.3l-2.4,0.4l-1.7-3.5l3.1-2.9l3.3-0.1l1.8-5.2l0.2-6.4l-3.6-1.6l-0.7-2.3l3.3-3.5l0.6-3.3l-2.2,0.5l-6.5,6l-1.5,6
	l0.3,5.3l-2.6,1.9l-1.5,5.3l2,2.8l2.3,4.4l-1.8,2.7l-0.9,4.2l4,3.5l-0.7,2.6l0.7,2.4l-1.8,4.3l2.6,4.8l4.3,2.9l3.1,6.9l3.6,1.6
	l0.8,3.4l0.4-2.6l1.7-0.6l-1.1-2l-5.3-5l-1.5-5.9l-3.3-6.9l0.3-7.9l3.1-1l4.8,1.7l5.4,0.3l2.8,2.4l4.1-0.2l-1.9-1.8l-0.7-3.1l-5.2-4
	l-2.7-0.4l-1.6-2.9l2.8-3.1L1045.4,1188.9z M973.1,1251.2l4.5,1.4l9.2-1.8l5-1.1l-4.2-0.9l-7.8-1.3l-3,1.3l-3.2-1.3l-2.3,1l1.6,1.1
	L973.1,1251.2z M981.2,1254.7l0.7,3.5l1.7,5l1.6,0.8l0.2-2l-2.7-4.8l0.1-3.3L981.2,1254.7z M966.9,1250.1l3.2,0.5l0.1-3.6l-2.7-1.1
	l-2.7,1.9l-2.6-1.5l-4.1-1.2l-2.6,1l-2-0.6l-2.8,2.6l-0.4,2.1l1.4,2.3l3.9,1l4.6-2.6l2.9,0.8L966.9,1250.1z M388.8,1158.6l-2.7-1.1
	l-2.1,2.2l-4.1,0l4.7,5l0.9,4.7l2.9,0.9l3.8,7.5l1.9-0.8l1-5.5l1.4-2.9l-4.7-4L388.8,1158.6z M428,1238.2l2.3,3.3l4.6,1.6l-4.8-7.3
	L428,1238.2z M447.8,1257.2l-4.3-3.5l-2.8,3.7l7.5,7.4l-0.8-4.1L447.8,1257.2z M412.5,1212.6l-4.5,3.3l-0.1,3.3l4.5,1.8l5.2,8.4
	l5.2,1.8l0.3-7.9l-5.9-9.1L412.5,1212.6z M383.3,1142.7l-3.1,1l4.9,1.8L383.3,1142.7z M415.6,1190.6l0.5-2.7l-4.9-1.9l-2.4,3
	l4.9,0.2L415.6,1190.6z M409,1201.8l-3.2-1.5l-2.3,4.5l2.4,3l3-2.9L409,1201.8z M437.5,1249.4l0.5,4.6l3.3-2.8L437.5,1249.4z
	 M549.5,1313.5l3.6,6l2.4,1.1l3-2.8l-0.1-9.4l2.5-11.4l-2-7.8l3.8-8.2l-1.7-3.2l0.5-6.7l3.8-1.5l1.8-3l-0.5-3.9l-3.1-1.6l-3.7-3.2
	l-1.5-4.9l-2.5-1.4l-1.1-3.4l-3.9-1.8l-6.4,0.6l-4.1-0.8l-0.4-6.2l-2.9-4.2l-2.8,1.6l2.1-4l-1.5-4.6l-0.3-10.3l-5,1.8l-2.1-2
	l-8.2-0.4l-6.9-5.1l0.3-3.5l4.3-1.8l5-2.6l-3.1-1.8l-4.6,0.6l-2.5-1.1l-4.6,1.5l3.4-2.9l5.1-3.6l6.2-0.8l-1.1-4.4l-6.2-7.4l-3.7-0.6
	l-5,3.1l-4.4,2.5l-5.3,0.1l3.1-0.5l2-1.8l2-0.5l2.1-2.8l-0.9-2.7l-4.7-2.4h-7.3l-5.1-4.5l0.1-2.8l-0.5-5.5l-8.5-8.9l-2.9-0.7
	l-2.7,0.8l-3.3-2.8l-0.7-7.8l-5.8-6.2l-7.7-4.6l-5-0.5l-1.1,1.9l-2.4-1.7l-1-5.6l-2.9,2.8l-2-3.1l-0.1-6.2l-3.6-5l-4.5-1l-1.6-2.9
	l-11.8-8.4l-4.1-0.6l-4.8-5.7l-5-0.9l-1.3-3.2l-0.8-6.7l-4.2-2.4l-2.2-5.2l-1.8-0.7l-2.8-5.5l-4.8-2l-4.4-0.1l-2.9,1l-2.2-1.6
	l-5.3-0.3l-6.2,1.5l-3-2.1l-9.5-7l-8.6-1.5l-3.1,1.4l-0.9,2.2l0.9,6.2l4.9,11.6l3.3,1.6l8.8,10.3l2.7,0.1l5.4,7.2l3.1,1.3l2.8-0.9
	l6.6,5.9l7,12.1l7.2,7.4l2.1,0.1l-0.2,5.4l1.9,1.7l0.6,5.4l2.6,2.5l4.4,0.1l5.4,7.3l2.8,1.8l2.5-0.3l0.7,2.2l-1.8,2.9l2.6,3l1.9,5.4
	l-0.2,1.3l3.9,11.3l1.8,6.1l5.4,1.8l6.1,4.4l-0.1,3.6l4.9,9.2l4.7,3.8l0.6,10.3l7.4,14.8l-0.6,5.9l1.8,5.3l7.4,6l7.4,9.8l2,5.2
	l5.9,1.4l2,2.5l5,3.5l0.6,6.1l4.4,3l5.3,6.2l9.2,6.2l2,4.6l6,1.9l12.1,11.3l0.9,4.4l2.7,1.3l2.7,4.9l1.6-1.8l0.1-4.1l-1.1-2.2
	l0.1-2.3l3.8,0.9l7.9,7.8l1.7-1.3l0.3-5.4l1.8-2.8L549.5,1313.5z M545.9,1205.4l1.7-1.3l-6.2-6.2l-3.4-0.9l-2.4,4.1l2,2.6l3.4-1
	L545.9,1205.4z M539.2,1210.1l-1.2-4l-3.6-0.1l-2.2,2.8l3.3,3.4L539.2,1210.1z M474.8,1149.4l-3.6,0.6l2.1,6.4l3.8-0.5l3.9-4.2
	l-3.6-4.4L474.8,1149.4z M573.5,1133.6l2.3-1.1l-2.1-2.3L573.5,1133.6z M487.6,1160.6l-2.2,0.1l5,7.9l2,1.9l2.8-4.5l-2.2-3.3
	L487.6,1160.6z M352.2,1124.3l-1.7,1.7l-1.3,2.6l3.9,2.6l4.9-0.5l-2.8-4L352.2,1124.3z M501.6,1177.7l4.9,2.6l1.6-1.3l-1.2-6.1
	l-4.5-4.1l-5.4-1.3l-3.3,5.2l0.6,4L501.6,1177.7z M615.3,1100.7l-3.6,2l-2.2,2.9l4,4.2l2.4,0.1l-1,3.2l3.1,0.1l1.9-5.9L615.3,1100.7
	z M601,1268.5l3.8-5.4l2.1,3.4l3.2,0.8l1.4-2.9l3.3-1.4l-1.8-4.2l-6.9-4.8l-7-1.6l-2.1,0.6l1.4,3.7l-0.3,2.1l-4.3,0.9l-1.5,2.1
	l3.3,0.3l-0.1-1.4l2.8-1.3l-0.3,5.9L601,1268.5z M584.9,1261.8l-1.9-1.4l-0.7,3.6L584.9,1261.8z M567,1127.7l-3.4-1.4l-2.5,0.6
	l-0.6,3.6l2.2,1.5L567,1127.7z M573.4,1251.2l-4.3-5.1l-1.4-9.6l-1.6-1.6l-0.4-3.6l-3-1.6l-2.6-0.1l0.3,3.7l1.4,2.8l-4-1.5l-2.6-3
	l-1.4,0.7l-0.2,3.4l-4,2.9l2.5,3.5l7.6,0.8l2,2.1l0,4.2l2.3,1.6l1.1,5.7l4.6,3.2l4.2-0.4l1.2,4.2l1.9,1.7l2.2-3.1l-1.3-4.3l2.4-5.1
	L573.4,1251.2z M575.8,1126.2l-1.4-2.9l-1.4,2.5L575.8,1126.2z M573.8,1117.7l0.2,3.7l2.3-2.4L573.8,1117.7z M921.7,1319.7l-3.3-0.9
	l-0.8-3.2l1.3-1.6l2.6-1.9l0.8-1.8l1,1.7l0.2-2l-1.2-2.8l0-2.7l-2.9-0.6l-1.8,1.5l-0.6,6.6l-2.1,6.5l-3.8,6l-0.6,3.1l2.7,1.6
	l2.7-1.3l2.5-4l2.5-0.7l1.5-1.7L921.7,1319.7z M810.2,1131.4l1.3,0.5l0.2-3.7l-2-1.2L810.2,1131.4z M1012.6,1226.8l-1.3-1l-1.6,2.8
	l4.3,1.4L1012.6,1226.8z M1020.5,1249.5l2.8-0.4l3.5,0.1l2.6,0.1l1.3-2.4l-5-5.4l-5.1-0.4l-6,4.2l2.3,2.6L1020.5,1249.5z
	 M691,1144.8l-1.2-4.9l-2.8,0.6l-0.2,0.1l-1.2,0.3l-0.1,2.1l2.9,3.1L691,1144.8z M801.2,1045.8l4.6-1.2l0.2-3.1l-1.9-0.6l-3.9,3.5
	L801.2,1045.8z M795.8,1043.6l2.7-1.5l0.2-1.5l-5.5,3L795.8,1043.6z M683.7,1144.2l0.7-0.3l0.3-3.3l0.1-0.2l-1.5,2.7L683.7,1144.2z
	 M655.9,1168.8l0.6,1.8l4.6,4.6l1.6,3.6l3.1,0.5l6.1-1.5l0.8-2.4l5.2,0.6l3-1.4l11.5,1l11.8-4.3l3.2-2.6l10.2,0l5.2,2.8l1.6,2.6l5,0
	l8.8-4.4l10-1.2l-0.5-3.2l8.7-12.3l3.6-8.8l6.7-9.3l5.1-16.1l0.1-3.2l2.2-3.6l-0.2-2.7l4.6-5.2l3.4,1.6l6.7-0.4l9.2,0.4l2.2,1.8
	l5.9,0.1l4.5,1.5l0.4-1.8l4.9,3.5l3.5,1l4.5-2.1l5.5-0.9l0.1-2.4l-5.4-4.9l0.2-5.4l2.6-1.7l8.4,1l7-1.4l4.5-3.2l-0.8-3.4l-3.3-0.1
	l-4.8-1.1l-3.5-3.4l-3.7,0.2l-5-5.2l-2.9-0.1l-3.4,3.1l-1.9-1.9l4.7-3.8l-2.2-2.8l-1.9,0.6l-3,3.8l-1.7-2.3l-1.6-0.8l0.3-6.2
	l3.7-1.2l-0.1-2.7l-4.9-3.5l-1.9,1.1l-3.8-3.8l0-5.8l-4.1-2.9l-2,1.2l1.1,3.8l-4.7,4.2l-1.8-0.3l1.5-3.8l-0.7-3.5l-2.7-0.2l-3.2,9.3
	l-3,0.7l-4.7,10l-0.9,5.4l-7.8,7.8l-3.6-0.1l-6.1,2.1l-2.2,2.7l2.3-0.1l-1.6,2.2l1.9,0.8l4.9-1.2l-2.1,3l-3.4,1.6l-0.6,0.8l0.3,1.7
	l2.3,7.4l-1.9,3.5l-2.8-1.7l-0.2-5.3l-0.8-3.8l-0.7,0.1l0.1-0.9l-1.8,0.2l-2.4,3.3l1.1,9.4l-2.2,1l-4-3.3l-3.4-6.3l-2.2-0.3
	l-3.1-1.5l-2.9,3.5l-0.3,4.9l-5.6,4.5l-2.1,4.2l-6.1,5.4l-1.5,3.7l-5.4,6.2l-5.8,4.7l-17.2,3.5l-1.9,0.8l1,5.5l1.9,2.3l-2.6-1.1
	l-3,1.4l-5,0.4l-2.4,2.7l-1.5,4.3l-0.3,6.1l-3.8,4.9l0.1,1.7l-8.3-1.3l-8.5-3.5l-6.1,0l-2.2-3.4l-3.5-4.2l-1.6,0.4l4,7.8
	L655.9,1168.8z M684.2,1145.4l0.8,1.8l2.3-0.9l-2.3-1.9L684.2,1145.4z M680.7,1148.7l3.5-1.3l-1-2.1L680.7,1148.7z M744.9,1099.9
	l3.4,6.3l4,3.3l2.2-1l-1.1-9.4l2.4-3.3l1.8-0.2l0.1-1.5l-0.2-4.2l-4.1,1.4l-5.1,3.6l-7.8,2.1l-1,1.2l3.1,1.5L744.9,1099.9z
	 M759.3,1105.4l2.8,1.7l1.9-3.5l-2.3-7.4l-0.3-1.7l-1.1,1.4l-1.8,0.4l0.8,3.8L759.3,1105.4z"/>
<path id="japan" class="st1" d="M1245.1,71.9l-8.7-30.7l-1.3-6.1l-25.1,16.5l-69.9-50.8l0.5,2.1l-5.9,4.5l17.5,51.7l-6.1,6.5
	l6.8,20.9l-21.7-2.5l-1.7,3.6l8.6,7.8l-11.1,20.3l15.1,33l-1.5,1l5.9,6.5l6.8-14l12.1,1.2l4.8-8.3l-28.8-12.4l-1.6-8.5l6.4-3.1
	l8.4,5.4l11.1-11.8l46.3,23.5l9-39.8h14.7l-0.3-2.4L1245.1,71.9z M1075.1,340.6L1075.1,340.6l7.8,6.9l10-16.3l-19.2-11.1l-14.5,13.8
	l-4.5-6.4l-12.6,17.7l6.1,1.6l-0.1,7.7l8.7,5.8l-0.3,2.7l1.7,0.8l1.4-1.6l4.7,0.3l-4.2-6.9 M1177.1,152.4l-12.6-1.6l0.2,13.5
	l7.6-5.8l0.6,10.4l-2.9,1.8l-4.2-2.4l1.4,5.7l-2.1,2.3l-3.4-1.3l-3-11.5l-5.5-0.5l1.2,40.3l-6.9,1.3l-0.8,2.6l3.5,4.4l6.8-4.4
	l-34.8,116.9l-11.2-13.3l7.3-12.5l-14.6,7.4l-5.3,38.6l-2.3,0.3l1.5,2.2l-3.6,1.5l-2.5-1.9l-3.5,2.6l-2.1-0.8l-0.9-5.2l-91.3,72.7
	l3.3,14.2l-4,0.3L969,450.7l4.4,0.3l3.7,9.9l-1.7,1.6l-0.7,8.7l10-4.9l-1.8,1.8l1.7,1.3l2.6-0.8l3.8,16.1l-4.2,0.4l18.1,34l0.2-20.1
	l5.5,23.9l9.1-9.3l-4.5-7l7.8,1.6l5.5-49.9l-2.4-0.7l-0.2-4.5l-2.6-0.5l0.9-3.1l-7.9,0.1l-1.1-1.7l5.1-5.4l-4.3-8.2l-3.8,0.7v1.6
	l-6.6,1.8l-5.3-5.8l25.4-4.2l1.6-16.1l3.3-0.3l1.9,2.9L1077,398l27,39l19.7-27l7.9-0.6l-0.8-9.2l-9.7-6.2l6.5-9.5l-0.4,7.2l1.6,1.4
	l3.2-2.9l9.9,2.1l-5.8,4.4l29.4-3.1l-2.9-6.5l6.4-8.2l4,0.7l1.4,12.9l7.3-5.4l-1.4-13.6l10.2-7l-1-8.5l7.4-1l1.4-92l11.1-3.5
	l1.9,3.3L1177.1,152.4z M1071,412l-31,9l-6,18l14,23l6-23h16l20-15L1071,412z M1014,537l-1,10l-9-8L1014,537z M998,605l-7,8l-9-4
	l15-10L998,605z M1021,519l4,11h-7L1021,519z M958,455l-6,4v8L958,455z M953,477l-6-9l-3,5l6,10L953,477z M947,432l6-5l1,3l-7,7V432
	z M951,413l4,8l-7,3L951,413z M898,446l-1,1l2,9h-16v-5L898,446z M975,624l8,5v-8L975,624z M965,649l-10,16l6,3l10-14L965,649z
	 M987,467l-5,13l-5-11L987,467z M1240,52l8-21h15l-7,10L1240,52z M1284,2l-9,13l-8,2l-3,16l-4-10l4-12l11-13L1284,2z M1249,71l6,6
	l-15,8l-3,7l-12,2l-5-2l1-4l12,1L1249,71z"/>
<path id="south-east-asia" class="st2" d="M948,908.4l5.6-1l-3.2-11.8l-4.3,10.5L948,908.4L948,908.4z M902.8,870.5l-5.1,2.7l2,10.3
	l5.8-11L902.8,870.5L902.8,870.5L902.8,870.5z M866.3,902.7l-6.6-4.3l0.4,2.9l5.1,2.4L866.3,902.7L866.3,902.7L866.3,902.7z
	 M978.3,993.9l1.1,16l-3.1-3.6l-1.5,0.3l-1.3,7.3l-7-4l-2.3,8l1.6,1.3l-0.6,3.3l-2.6,1.2l-2-4.7l-19.6,15.5l4.4-13.4l-8.8-4.6
	l-9.5,9.2l1.7,3.5l-17.1,3.6l-7.1,19.2l4.2,4.8l12.4-19.4l2.7,2.7l-1,4.3l1.2,1.2l1.9-1l2,1.3l2.1-5l2.1,0.8l-1.2,2.5l7.1,2.6
	l-2.1-3.3l1.4-1.8l-0.9-1.9l3.7-1.6l15.2,14.7l-5.3-0.7l19.2,30.4l6.2-5.6l2.2,9.8l9-9.3l-7.1-15.3l9.2-13.7l8.4,24.7l0.3-16.1
	l2.4-0.3l1.4,2.8v-2.6l1.7,0.2l-3.1-29.3l-1.6,2.4l0.4-7.5l-4-3.3l0.7-2.2l2.9,0.5l-2.5-13l-2.8,2.3L978.3,993.9z M857.8,949.2
	l3.1-2.9l-5.5-4.4l0.5,7.2L857.8,949.2z M909.8,947.4l-3.9-4.1l-4.4,1l-0.9,2.5l6.3,2.3l-1.5,27l18.5-20.8l-12-5l0.8-1.6
	L909.8,947.4z M981.1,983.7l2.4,9.7l1.6,0.4l-1.5-12.2l1.6-0.9l-1-2.4l-2.1,0.8L981.1,983.7z M930.6,929.6l-1.3,11.9l0.8,2.4
	l3.6-5.4l15.9,7.6L933.1,932l0.4-1.4L930.6,929.6z M904.3,940.2l2.6-0.8l1.5-13.6l-1.6,1.4L904.3,940.2z M883.9,936.9l7.3-2.3
	l0.1-3.3l2-1.3l-0.2-13.4l-26.4-8.7l0.9,2l2.9-0.1L883.9,936.9z M991.6,997.1l-2-1.8l-0.6,2.3l1.8,2L991.6,997.1z M926.6,1001.1
	l0,4.8l3.1,1.7l3.8-2.1l4.4-36.3l-3.1-2.5l-2,1.2l-2.7-1.4L914.8,997L926.6,1001.1z M964.9,1008.8l0.7-3.6l-3.6-3.1l-0.1,4.7
	L964.9,1008.8z M939.1,1008.3l3.4-1.3l0.5-2.4l-5.2-0.8l-1.3,2.4L939.1,1008.3z M996.1,994l-3.2-7.9l0.3,8.9L996.1,994z
	 M854.8,851.8l5.2,25.1l1.6-1.2l5.6,10.2l2.7,0.2l2.5-3.1l-2-5l8.1,3.4l-7.3,15.7l2.6,4.7l1.3-4.2l2.4-0.8l1.6,3.6L877,904l6.3-3.1
	l4.7,5l5.1-7.8l25.1,16.8l-4.6-16.8l24.9,26.9l3.7-1l-0.1-1.5l3.5,0.9l-3.7,4l6.9,5.6l3.2-10.3l-12.3-4l-3.1-13.8l7.2-0.4l-12.1-8.7
	l-1.9,1.4l0.2,4.1l-2.9,1.7l-9.7-15.6l-10.9,7.5l-18.1-24.8l13.7-24l-1.4-54l-12.3,6.8l-20.4-5.9l-6.2,51.6l-6.7,0.8l-2.8-3.5
	l0.2,9.6L854.8,851.8z M946.7,996.8l11.6-2.8l1.4-7.2l-4.6-2.2l-9.9,7.4L946.7,996.8z M965.6,958.7l-10.8-0.5l3.9,10.9l2.1-2
	l7.6,20.1l0.5-5.8l2.2,3.2l3.7-0.9l-5.8-11.6L965.6,958.7z M976.2,992.8l-1.9-7l-0.9,3.6L976.2,992.8z M852.5,977l-3-22.4l-1.8,0.7
	l-0.7,12.5l-3.1-2.1l2.2,7.1l-3.6,4l-2.7-0.4l-28.3,30.7l-7.4,9.7l0.4,1.5L852.5,977z M959.6,956l1-4l-7.2,2.1L959.6,956z
	 M925.8,916.5l-1.6,0.3l5.1,8.4L925.8,916.5z M965,956.6l16.1,7.9l1-1l2.2,1l-12-34.2l-17,0.9l-1.7-0.9l14.8,21L965,956.6z
	 M899,911.2l4.8,3.5l2.8-4.4l-5.8-5.1L899,911.2z M854.8,934.7l10.3,7.1l1.9-2.1l-10.8-6.7L854.8,934.7z M974.5,1180.9l-2.3-4.6
	l-91.5,3.2l-18.7,37.4l12.6-20l25.1,0.4l1.8,2.4l57.7-2.8L974.5,1180.9z M861.5,1218l0.5-1.1l-0.6,1L861.5,1218z M781.3,1252.6
	l3.2-5.3l-5.9-0.7l1.7-2.3l-0.7-1.9l6.6-0.8l3.9-14.9l3.7,5.1l21.4-44.3l1.9,2.6l0.1-7.7l20,5.6l1.2-3.7l-25.2-23.2l8.5-7.4
	l-14.4-17.8l3.4-3.5l-5.4-7.3l11.4-1.3l-6.5-5.3l20.5-7.4l-5.2-12.6l22.5-5.3l-0.8-3.3l-23.2-9.5l-3.4,3.1l-1.9-1.9l4.7-3.8
	l-2.2-2.8l-4.8,4.4l-3.1-9.3l3.7-1.2l-0.1-2.7l-4.9-3.4l-1.9,1.1l-7.9-12.3l-2,1.2l1.1,3.8l-4.6,4.2l-1.8-0.3l0.8-7.2l-2.7-0.2
	l-31.5,37.6l2.3-0.1l-1.6,2.2l6.8-0.4l-5.2,17.7l-2.8-1.7l-1-9l-0.7,0.1l0.1-0.9l-4.2,3.5l1.2,9.3l-2.2,1l-12.8-11.3l-48.6,41.3
	l2.9,7.7l-12.9,3.6l-5.4,16.8l-30.1-11.8l-17,25.9l8.2,19.1l-2.4-1.3l-1.3,1.2l25.5,2.9l-23.6,7.9l20.4,51.7l5.7-2.6l1.2,2.8l19,0.8
	l4.4-7.8l1.7,22l33.6-10l7.6,8.7l0.2-6.1l5,4.4l2-1l2.2,3.1l2-0.9l2.9,13.6l32.2-25.7l0.9,1.7l2.2,0.1l3.4-6.6l-3.1-3.1l0.3-1.7
	l0.6,0.8l3.3,1.1l0.9-6.1L781.3,1252.6z M558,1322.2l11.3-53.7l-30.1-30.5l-2.8,1.6l0.2-18.8l-22.2-5.6l0.3-3.5l9.2-4.4l-14.8-0.7
	l14.7-7.2l-7.3-11.6l-18.3,5.2l9.2-5.5l-8.4-7.6l4.6,0.7l4.9,2.5l1.6-1.3l-11-11.3l-2.2,7.5l-19.4-17.7l-2.7,0.8l-22.7-21.7
	l-1.1,1.9l-3.4-7.3l-2.9,2.8L431,1115l-43-36l-41.1-11.5l-4,3.6l189.6,254.2l0.6-10.2l11.7,8.6l3.8-9.5l3.5,0.9L558,1322.2z
	 M424.1,1058.3l0.2,0.1L424.1,1058.3L424.1,1058.3z M584.4,840.7l1.8-1l5.8-10.2l-31.4-62.9L492,710.7l3.6-0.9l0.5-2.2l-4.6-3.7
	l4.6-10.3l-3.3-2.3l5.3-11.8l1.1,1.4l9.3-23l2.9,2.4l35.3-18.4l-0.8-1.6l-6.2-1.2l-34.9-12.1l2.2-7.5l3.1-0.4l0.8-4l-45.5-6.9
	l0.3,6.4l-22.5,6.7l-1-3l-2.5-0.1l-2.3,2.9l-4.4-4.1l-4,6.2l-4.9-1.4l0.3-3.1l-12.4,6l-7-4.7l-7.4,3.5l1.4,6.9l3.4,21.3l-9.4,0.8
	l-4.6-5.3l-13,11.8l2,2.7l-6.7,3.4v10.1l-2.5-4.8l-0.2,0.4l-11.2,1.9l2.3,5.3l-9.9,3.9l-1.6,7.3l-17.9,0.7l-3.9,23.8l-9.7,5l32.4,45
	l-3.1,1.6l0.6,4.7l-1.5,1.3l1.9,13.6l1.9,2.5L364,907.8l3.4,0.4l-3.8,4.9l1.4,2.1l-4.3,5.2l3.4,0.6l-2.2,3.9l-3.1-0.6l0.2,9.9
	l-3.8,1.6l3.8,22l3.8,0.4l-0.2-4.9l5.6-2.3l-0.2,2.5l3.3,2.1v3.9l5.4,0.8l3.4,9.3h4.3l6.7,11.3l5.8,0.8l2,4.3l3.1,0.4l-2.7,5.3
	l15.6,13.5L411,1017c0,0,10.8,20.9,34,46c32.8,35.6,81.4,79.1,81.4,79.1l1.9-1.8l2.1,2.7l5.9-3.2v-1.2l-2.8-0.4l1.9-0.6l-1.3-4.8
	l4.1,6.9l4.5,0.7l-65.6-130.2l-6.5,2.8l0-0.1l-45.3-35.6l-1,3.8l-8.6-2.8l5.5-6.4l-6.8-21.1l-3.2,0.1l-17.4-24.4l-6.9,5.7l-3.8-28.4
	l-3.9-1.7l20.5-57.2v0l17.2,2l0.4-0.8l-0.5-0.9l2.5-2l11.5,7.7l-0.1,1.9l6.9,4.6l0.8-0.3l13.2,14.3l3.4,11.7h6l4.5-6.8l0.4,14.7
	l6.2-4.1l6.7,3l1.3-0.8l4,2.8l6.5-4l-5.9,9.1l19.2-0.1l-11.5,20.7l1.3,0.3l-1,6.9l5.2,0.7l24.4-14.5l-1.9-5.2l6,2.6l2.2-4.3l-4-4
	l4.7,3.3l3.2-1.5l-1.6-3.3l1.3-1.9l-5.9-2.6l4.7-0.2l0.1-1.5l-2.5-1.9l3.7,0.9l1.6-3.4l0.4,5.8l49.2-30.3l-1.4-1.7l1.6-3.6l-3-4.3
	l6.2-8.3L584.4,840.7z M398.4,840.1l2-11.2l-0.7,12.1L398.4,840.1z M499.7,792.7l0-0.6l0.2,0.2L499.7,792.7z"/>
<path id="korea" class="st2" d="M904,301.2l3-2.4l-1.2-17l-3,1.7l-39.7-78.2L832.6,180l31.9-96.9l2.7,0.5l7.2-8.1l0.9,0.1l-4.9-7
	L857.5,57l-28.6,38.2l9.6,8.3l-2.6,9.3l-34-11.5L768,165.9l4,6.3l2,7.9l3.5-5.5l6.8,5.5l12.3-4.4l-6.4,29.4l14-0.2l-14.8,24.4H800
	l-4,6.4l1.8,3l4.5-3.7l2.7,1.8l4-5.2l-1.2-2.4l2.5-1.7l4.9,5.4l0.6,0.7l10.3-2.5l-3.2,1.7l17.3,16.3l-1.5,2.4l5,8.4l-8.8-4.7
	l-1.5,3.9l-3.2-0.8l-4.5,6.4l12.2,3.7l4.8,15.8l1.7-1.5l3.8,7.6l-7.2,4.9l3,8.8l-2.6,1.5l2.3,8.4L841,314l5.4,10.4l3.1,0.3L852,335
	l3.5-8.1l2,2.7l17-14l0.7,2.4l3-3.7l2.3,0.3l2.2,4.4l4.2-1.7l1.7,2l2.1-1.5l-1.7-3.2l16.3-11.1L904,301.2z"/>
<path id="taiwan" class="st3" d="M808.8,612.4l-5.1,57.5l-1.3,0.4l20.5,34.9h8.9l12.4-50.1l-2.9-1.1l8-58.4l2.2-0.4l-18.7-18.3
	L808.8,612.4L808.8,612.4L808.8,612.4z"/>
<path id="china" class="st4" d="M784.5,152.4l23.9-48.4l31.6,10.7l2.4-8.6l-8.9-7.7l26.6-35.3l12.8,12.1l-1.8-8l8.9-2.8l-0.2-74
	l24.8,2.9l-1.3-24.4l3.4-2.6l-1.6-9.1l2-1.5l-3-12.9l2.2-1.4l-6.4-46l2-1.9l-18.1-6.8l-39,31.5l-2.9-5.4l-8.8,2.8l-10.4-27.3
	l-3.4,0.2l1.7-10.4L783.9-139l-0.8,2.4l-4.2,0.2l-0.6,1.6l-11.8-5.9l1.6-2.8l-51.9-48.8l-2,1l-15.9-30.9l-5.2-0.3l-6.9-15.4
	l-5.4-0.7l-0.5-5.7l-22.5-9.8l-1.9,1.2l0.3,2.5l-74.4,5.2l-13.3,25l11.9-3.1l-1.5,79l3.5,1.6l1.6-1.2l2.4,5.2l-41,18.6l-0.7-1.4
	l-5.2,0.3L532.5-63l40.7,11.9l12.4-19.6l36.8,38.6L483.8,35.2l-3.1,20.6l17.5,11.3l-129.5,75.4l-0.7-5.3L31.1-18.6l-10.2,6.2
	L-3-39.5l-2.3,1.9l-3-10.4l-8.4-1.5l0.5,0.6l-12.5,14.8l1.2,2.2l-13,14.1l7.5,24.9l-51,7.7l-6.8,44l7.1,3.8l-2.4,7.4l-45.9,9.7
	l-0.1,2.8l13.9,3l6.1,63.7l-133.5-12.3l1.8,14.5l-48.3,1l1.5,2.4l-6.4,4.6l3.4,0.4l-9.3,19.6l20.3,9.9l4.1-9.6l13.7,12.6l-22.8,7.7
	l-6-7.6l-21.2,12.3l-0.3,4.9l6.3,3.1l-0.2,4.1l-15.7,5l3.1,4.9l-8,2.8l-0.6,4.7l-16.9,3l5.4,14.1l9.3-2.1c0,0-18.6,14.7-17.7,27.7
	c0.2,2.9,16.1,7.7,16,11c-0.2,4.8,0.1,8.7,0.1,8.7l1.9,0.3c0,0-0.9,0,1.3,2l2.6,2.5l18.1-9.9l11.4,5l-1.8-8l8.1-3.4l0.6,2.2
	l13.3-25.2l12.1,4.4l0.3,11.9l3.4-0.2l5.2,28.2l42.3-23l1,4.3l19-4.2l1,3.5l-6.2,5.3l113.8,113.7l-0.8-2.8l-3.4-1.2l-5.9,6.3
	l19.6,38.7l2.4-3.9l25.6,17.3l1.2-1.6l61.1,29.6l4.9-9.2l27.3,13.5l1.2,13.2l72.8,4.9l6.6,12.4l51.6-13.6l3.4,4.5l55.7-37.5
	l16.8,6.4l2.2-2.1l-0.6-3.7l12.1-4.1l2.2,3l2.8-0.7l0.9,1.9L270,483l1.6,3.3l5.1-1.5l1.6,16.9l29.9,3.4l16.8,53.6l-3.8,1.8l-0.4,3.9
	l-1.9,0.6l-0.9,9.2l-2.7-1l4.6,32.2l14.1-5.5l-0.5,5.8l2.5,2.1l5.3-1.3l-0.3,7.1l7.7,4.4l-1,1.9l1.6,2.6l0.7-1.6l9.9,1.9l-9.4,23
	l9.6-0.7l1,1.2l3.1-2.8l7.7,15.4l20.6-5.3l-6.2,8.9l4-3.5l4.4,5.3l8.8-0.8l-3.2-21.3l2.8-1.9v-3l7.6-0.3l1.5,3l-1.3-2.6l13.4-6.9
	l-0.3,3.1l4.6,1.4l3.8-6.2l4.1,4.1l2.1-2.9l2.4,0.1l1,3l21.2-6.7l-0.3-6.4l42.9,7l-0.7,4l-2.9,0.4l-2.1,7.5l41.6,15.3l0.8-6.2
	l17.7,10.6l2.1-3.6l8,2.7l0.2,1.4l-3,0.4l4.7,24.6l2.5-3.7l4.5,0.9l0.1,1.1l5.9-4.5l-4.8-7.4h-2.4l4.7-14.3l1.3,2.6h1.1l-0.7,0.6
	l0.2,0.9l1.9,0.3l-0.8,1.1l20.1-8.2l-1.5-2.7l25.2-11.7l2.8,2.4l7-6.3l-2.2-13.8l11.9,11.1l2.7-0.7l-4.6,4.2l0.5,1.7l7.3-3.6l0.5-4
	l16.5-7.5l4.6,5.9l2.6-5.3h2.2l0.3,1.3l12.8-6.9l0.5,2.3l7-2.8l-0.3-13.7l8.5-2.3l0.5,1.9h3.9l0.9-4.8h2l0.6-3.3l1.9-0.1l0.3,1.7
	l3.7-4.5l2.3,2.8l0.6-4.2l2.3-0.3l1.5-3.3l-11.6-3.6l9.9-4.7l1.6,1.5l2.2-2l5.6,3.4l1.5-4.3l-4.8-3.1l0.6-2.6l4.2,3l2.3-2.8
	l-0.5-1.1h-2.8l-2.8-5.4l2.9-0.8l1.5,2h2l1.4,2l0.2-3.4l-3.6-2.6l0.3-3.3h2.2l1.4-2.5l3.1,5.6h2.2l2.2,3.4l-1.2-7.9h-2l-0.8-2.3
	l2.8-0.8l0.5-2.7l-3.4-1.1l4.7-4l-5.5-2.1l-1.6,1.6l11.7-9.1l-2.2-2.3l-2.5,2.3l-4.9-4.3h4.3l-6-4l2.2-1.9l-1.7-2.2l2.6,0.6l0.8-3.4
	h3.4l-0.3,4.1l12.7-7.6l-5.9-3.7l0.9-3.6l2.8,3l5.6-13.5l-5.5-6.9l5.6,1.8l8.7-9.6l1.8,4.8l3.6-6l-7.9-5.8l6.8-3l-4.4-3.3l2.8-2.6
	l1.4,0.3l0.6-1.7l-9-1.8l10.4-7.6l2.5,1.3l0.2,1.5l2.5-2l-4-10l-2.5,2.5l0.8,3l-12.4,3.1v-3.7l14.7-9.6l-6.3-3.4l-1.1,1.9l-11.4-9.3
	l-6.4,5.4l-7.4-7.2l-9.6,7.9l10.5-10.6l4.9,2.5l18.7-13.1L743,389.5l-9.9,3.9l-5.4-7l-22.3,8.9l23.2-12.6l5.1,8.4h4l2.6-3.6
	l34.6,6.7l-38.4-44.5l2-4.8l-18.9-19l-2.9,1.7v-3l-12.1-4.8l0.9-27.8h4.3l3.7-6.1l2,1.2l3.7-4.4l-5.7-4.8l9.4-3.3l0.2-4.4l5.1-0.9
	l-5.1-6.2l23.4-9.2l1.5,2.5l1.9-2.3l5.4,5.6l5.1-6.2l-3.2-0.6l-0.5-4.4l4.8-1.4l-3.1-7.2l4.5-1.4l-13.1-0.1l0.3-1.7l-44.4-2.6
	l1.7,5.1l-8.4,4.5l2.8,3.1l-17.3,6.2l-6.5-20.4l-7.6,1.4l-0.3-2H668l-1.7,2.5l-1.4-2.2l-0.2,1.9l-11.9-38.6l19.6,2.5l2-4.4l-1.2-2
	h2.9l28.5-52l10.1,1.1l1.4-4l15.9,16.5l-8.2,14.9l-3.9,0.1l3.7,14.2l-1.7,0.8l1.9,4.7l9.3-5.3l-5.7,6.4l0.5,2l2.3,0.5l-13.9,9.1
	l3.7,5.5l16.5-11.1l-1.1-5.7l42.4-24.6l1.4,3.5L784.5,152.4L784.5,152.4L784.5,152.4z M561.5,724.7h4.3l2.8,2.3l2.9-0.1l3.7,2.7
	l2.5-1.4l1-3.9l3.2-0.6l3.4,0.9l2.5-3.5l0.3-2.5l3.8-0.8l2.9-3.3l-0.7-3.8l2-6.8l2.1-1.7l0.9-3.1l3.1-5.3l-1.8-5.7l-4.3-3l-4.4-1.7
	l-2.9,2.2c-0.8-0.5-1.5-1.2-2.2-1.9l-4.1,0.9l-2.1-0.6l-2.9,2.1h-3.8l-4,2.2l-3.7,0.6l-0.9,4.1l-6.1,3.9l-5.3,6l1.9,3.5l0.1,8.2
	l2.3,4.3l-0.3,2.5L561.5,724.7z"/>
</svg>
