<svg height="1190" viewBox="0 0 1559 1190" width="1559" xmlns="http://www.w3.org/2000/svg">
 <g fill-rule="evenodd">
  <path id="map-background" d="m248.01 855.694 4.585-3.535v-5.786l-2.821-1.768 3.1-4.6.164-4.291-1.329-1.5 1.329-3.4-.892-2.369-3.994 4.592.737 6.8-1.191 2.387.754 2.824-2.365 8.884zm29.658 111.575-2.375-2.15-2.874 2.888.136 4.063 2.147 1.2 1.628 4.155 2.394-2.888-1.2-3.408zm-24.927-41.046 1.336-2.524-3.847 1.185zm20.023 33.984-2.138 2.671 1.338 1.266 3.175-3.855zm-1.474-16.1-1.473-1.484-1.72 3.489 1.792 2.97 1.547-1.786zm-36.6-68.7 4.585 1.175-1.619-2.805zm29.1 75.213 1.037 2.833 2.748 1.795 1.928-1.349-2.074-4.017zm-4.813-10.588 1.1 3.116 3.338 3.189-1.556-5.5zm-12.163-73.371 1.337-4.438 2.375-2.077v-1.922l-5.641 1.922v5.932l-1.319 2.669 2.211 4.737-1.174 3.381 1.174 2.833 2.957-6.523-.437-3.845zm-4.275 24.007-.447 4.437v3.553l3.994-.145 2.065-5.321-1.337-4.747zm552.645-455.9-3.921-2.383-2.374.291-1.7-.66.973 2.82 4.066 1.258 2.885 2.021zm16.16 174.73-7.292 13.5-3.631 13.986-2.436 2.068 2.167 3.29.269 13.769.972 14.239 3.406 2.3.971 4.087-1.464.5-.254 4.323 3.662 5.859 3.63 1.017.986 4.591 9.474 3.3 4.855 7.661-.493 8.129.493 5.874 4.872-1.8 4.856 1.8-1.464-7.159 1.687-8.395-3.406-10.433 5.6-7.9 8.487-13.5.254-8.662 2.42-2.537-3.138-1.3 1.943-13.487.716-9.4-1.449-10.2 3.647-7.378 1.673-18.342 2.2-9.422 2.436-.525-1.226-6.125-5.826-4.566h-2.167l-3.661-7.895-7.546-2.795-4.363 2.545.732 4.848-6.081 2.279-7.277 8.654-6.8 12.233 1.689 3.322-1.21 4.825zm-39.39-454.826 2.608-5.9v-3.928l5.9-3.943 3.936-7.543 4.266-1.979 3.593-11.147 1.971-3.933-.332-2.29.332-7.549 4.258-5.243 4.255 6.558 3.613 1.968 3.271 2.95 3.924-1.637 4.921 1.959 9.187-.975 5.887.975 2.96-6.218-.324-3.294-4.92-4.913-4.922-3.606 3.926-2.29 5.253-.675 8.855-7.209v-4.9l3.593-4.93 4.6-.65 1.639-4.264-1.639-3.282.322-4.6v-4.906l2.947-1.31 3.935 3.272v4.593l1.973 2.3 7.2 1.636 1.136 1.607.482-1.2v-2.589l-1.74-1.114-.775-3.941.251-1.723 2.616-1.57 5.406.583-10.441-.406.09-3.942-.663-2.313.16-3.03 1.158-2.14-.162-4.1-.333-4.034 9.364-1.969v-7.8l-.472-3.78-.5-5.513.172-4.1 1.2.62-1.337-2.524-.963-3.061-4.821-7.5-1.47-3.423.884-1.854 2.528-1.641 2.355-.218 1.975-2.611.856-2.793 3.775-5.836 1.593-.4 3.3.856 2.557 1.024 13.082 2.36 1.991.639h2.294l1.637-2.014-.518-3.047-1.257-2.305-.308-2.15.746-1.568m-324.738 18.887.308 4.3-2.22 2.664-4.3 1.042-9.153 6.224h-4.887l-5.022-1.046-2.366 1.79-3.857 8.151-3.847 2.815-4.587 3.4-2.81 2.962-1.174 3.262-2.074.446-4.295-2.082-5.02-1.024-6.224-2.228-5.02-3.554-5.033-.154-7.987 1.638-4.731 3.55-2.957 4.3-.3 9.028.436 4.456-.29 2.8 9.17 6.081 8.435 5.18v2.525l-2.076 3.859-2.664 4-9.015 10.068-5.333 8.751-2.959 6.797h-3.394l-6.515 2.077-4.875.291-5.476 3.713-5.623 4.15-5.759.291-8.433.885-5.769 1.926-6.668 1.923-14.629 5.188-11.544 3.855-5.767 6.51-8.879 7.115-3.687 3.116-4.893.137-6.058-1.775v-2.214l-.746-3.122-8.726 2.525-7.1 1.042-7.4-3.862-5.913-.584-13.028-4.889-12.853-5.935-6.813-6.665-5.468-.146-14.784-1.635-12.409.337-3.184-.756-2.311 1.412-1.182 2.305-6.824 2.532-9.707.961-17.038-1.445-12.427.732-9.464-.592-8.15.893-4.131.442-3.556-1.185-4.576-8.883-1.784-4.446-4.292-6.382-3.55-4.282-2.375-5.937-.318-2.584-2.957-3.2-3.1-1.106-2.01-.312-.883-2.3-.53-3.64-1.409-.6-1.846.523-5.787-.072-4.875-2.83-7.561-5.422-2.592-.6-1.866.069-3.62-.666-1.7-2.383-6.386-4.066-13.937-3.2-1.4.37-1.772 1.49-5.55.6-8.907.146-20.146-4.326-4.448-2.592-4.6-6.984-.751-3.275v-3.052l1.337-2.148 2.885-2.305 1.263-3.713-2.292-2.756-1.038-4.832.965-2.6-.3-4.6-1.709-2.544-2.51-4.232-3.04-1.49-3.266-2.67-1.338-3.566-2.138-3.047m-92.7 2.09-.608 2.805-5.167 5.778-4.433 1.627-3.56 4.155-2.949 1.034-1.937-.743-1.027-2.361h-3.54l-7.987 1.77-5.476-.44-7.988-2.81-4.748-.606-2.356.31-1.784 9.326-1.774 5.92-.291 4.6-1.92 11.86v9.175l-1.028 3.111 2.356 1.787 4.731 2.063-1.909 4.15-.457 3.252h-2.664l-2.357 1.494h-3.257l-2.378-2.076-2.663 1.184-4.857 1.184-9.043 1.867-6.378 2.451-2.892-.067-2.521-1.263-3.4 1.408-3.7 3.489-.072 2.826 3.466 2.751 5.714-.373 4.748.591.063 1.942-2.882 2.9 1.956 6.076.3 3.1 1.764 2.675.738 4.3 3.847 6.212.737 3.417 4.44 3.252 1.62 8.448-2.513 2.223-1.327 3.7 3.475 4.022-1.845.957-.592 2.387-3.857 2.671.163 5.376-3.859 2.2-9.16-2.362-8.735-10.077-3.7.89-8.579-3.4-12.563-.734-6.222 2.214-10.491-2.811-9.771 2.375-5.039.733-4.72-1.482-3.7 3.263-3.838 1.63-11.254-1.475-8.268-2.233-4.3-2.523-6.506.149-2.21 1.039-4.885-.291-3.849-.748-2.374 1.332.445 4.441 1.185 4.6.163 5.472-6.387 1.037-12.745.3-15.094-1.49-3.557-2.067-6.813-.9-3.859 4.163 1.494 2.374-4.522 2.916-.638 1.845-1.282-.164 3.4.437.3 4.3-6.514 10.068-3.119 5.194 3.857 2.372 9.169 2.665 3.7 3.554 3.692 1.335 3.548-3.855.592-5.78 2.647.6 10.07 7.849 1.038 4.151-5.767 6.519-7.106-.451-10.053 1.639-1.637-2.975-4.422-4.583-6.514 6.67-4.138-.3-5.468 3.989-5.195 1.942-.282 4.879 6.358 3.116-.155 4.145-6.949 2.958-8.862 2.085 1.757 1.627 1.337 3.258-7.987 2.813-.593 4.744-3.693 1.024-9.179-1.33-4.139 3.276.153 6.36 5.314 7.7 3.557-1.932 5.767-.146 1.038 4.586-1.921 4.156 2.221 5.772 4.139 1.773.593 5.634-1.92 2.379-4.294 10.066-1.492 12.963-1.775-2.283 4.449 5.767 3.112 1.344 6.805-1.5 4.43-2.515 2.211-3.243 2.374-.461 2.356-2.208 2.084 1.47 2.229 2.971 7.1.6-.155-3.265-1.909-1.919.273-2.824 4.458-1.185 1.618-2.223h2.075l.591 2.223 4.431-.441 2.811-4.452-1.037-5.622 1.775-2.814 2.518-2.223.748-5.922 2.063-3.709h4.878l3.557 2.525 3.692 1.917v3.262l-.881 4.741 1.174 3.85 3.4-.155 1.482 3.855-.29 5.188.59 4.156.291 7.99 3.1 4.154v2.807l3.7 1.484h5.184l3.549-2.674.737-2.063 7.095-3.271 3.312-2.962.883-3.78 2.749-2.438 9.324-5.922 5.913-1.336 1.046 4.3 7.687-.884 2.656-3.268h8.733l.955 3.459-6.214 5.334 3.083.835 1.884-1.181 2.811-.729 3.841 3.4 2.074-1.479 3.4.3 2.366-1.63 1.909-2.073 2.521.155 3.121 2.951 2.22 6.52 9.315 13.339 5.458 3.694.163 5.481 3.549 2.523 2.074 2.82 8.287 1.03 8.126-.143 3.848 1.036.891 4.738 7.969 2.674 6.669 3.544 3.547 10.072 5.333 6.204 6.95 3.4 2.957 5.184-.446 9.775 4 9.19 5.322 1.335 2.375 9.038 1.328 7.406-2.657 4.292-.755-2.814-3.4-1.19-5.924 6.251 1.348 2.647.3 3.4 5.468 2.811-.883 8 2.211 3.849-1.328 2.509 2.211 1.5 2.52 3.553v3.116l1.929.585 1.318 4.45 4.595 2.219 2.361-3.85 4.584.146 1.929 2.223 4.721.747 4.013 4.3 3.085 1.044 2.383 4.888 3.538.588 1.483 3.407.318-.429.864-1.2 6.068 3.107 1.483 2.222 4.131-.15 2.22 1.034 2.511-3.69 5.039-.451 7.542 2.816 2.065 2.082 4.885.3 3.1 2.218 6.059 6.37 4.741.141 4.448 2.222 1.619 2.67 3.693 4.3 1.784 4.447 2.064-.884.437-6.092 2.374-2.218 1.476 1.782h4.295l4.292 2.665.593 5.634 5.03 4.443 6.5-1.772 5.2.738-1.182 8.437 2.364 4.747 3.4-.755 5.758 2.819 2.511-2.223 4.44-1.327 3.7-4.149 7.7.888 5.022 2.523 1.183 4.894 6.068 2.363 4.14 5.64 3.556.881 5.177-2.224 2.066.892 5.622-1.776 3.766.255.528.033 3.693-3.253 4.731-.594 2.373 4.287.283 5.194 4 2.962.236-.124 4.049-1.945 4.595-9.043 10.043-5.926 6.5-.9 2.083 3.416 9.916 1.035 3.839 1.785 5.333-2.078 5.175.151 3.4 4.452.892-.078 2.794-.233 7.55-1.775 3.329-.288 2.075-4.979 3.048-2.3 3.184 1.054.074-2.689 4.3-1.2 1.4-4.217 3.4-4.255 4.458-.657 7.579-1.785 4.567-5.782-.285-4.457 2.97-.6 4.584-3.256 3.695 5.334 5.312-1.47 7.86 2.514 2.211-2.078-.6-3.708 8.889-5.184 3.247 1.042 2.22 2.962 2.8-.748.884 1.928-2.958 5.635 1.639 3.258 2.5-.735 2.665-.745.9 3.116 2.958 3.989v2.82l-3.257 3.559 1.037 3.407 4.44.728 2.509-1.033 3.849 1.635 3.2 3.311 3.447-1.685 4.741 2.078 3.1-1.786 4.74.146 2.656 5.49 3.993 2.956 1.185 6.373 3.557-.145 3.683 4.155v6.213l3.412 6.96.454 6.224-1.2 8.738v4.15l-.891 2.514-3.831 1.786-.445 3.854-1.928.584-1.047 2.82 1.793 4.007-1.639 2.369-2.665-1.048-2.8 2.962-1.629 3.553 1.776 2.671-1.9 3.078v3.425l3.465 1.488 1.482 2.677 2.877 2.671-.6 4.883 1.93 4.747 4.884-3.563 9.318-1.932.872 3.271-1.329 2.515 2.531 2.077 5.321-1.339 1.027 3.562-1.327 3.544 2.374 3.271 5.313 1.176-1.037 1.94 1.637 2.642.728-1.621 5.776-.729 4.149 2.652v3.115l-1.774 3.573.137 2.941-4.731 6.689-3.839 3.827.744 2.824 3.094-1.494 6.506.748 1.046 1.184 3.093-2.807 2.819 3.69-1.192 5.485 1.338 3.845 4.731 2.369 2.811-2.671h4.585l9.326-4 3.993 1.331-.445 3.871-5.768 5.04 4.029-3.545 2.62 1.9 1.777 3.43 5.331-1.632 3.548.875-1.192-5.185-.291-4.882-1.474-4.311-.3-6.942 2.821-1.932v-2.971l7.677-.3 1.493 2.971-1.328-2.633 1.428-1.214 1.682-.291 1.056-2.059 2.247-1.966 4.339-1.714 2.676.327-.265 3.144 1.847 1.466 2.812-.045.717-3.944 3.076-2.26 4.149 4.073 2.147-2.9 2.375.146.965 2.98 4.593-2.232.736-3.044 5.041-1.494 4 2.315 6.868-2.278-.291-6.361 4.448-2.522h5.033l2.8-2.817 4.431 3.553v2.662l4.584.892 1.776 2.67 9.315-.136 1.638 2.059 5.466-2.224 3.559 2.815-.747 4.01-2.957.446-2.072 7.544 2.364.885 1.183 4.309 8.289 2.947 1.182 2.961 4 1.776 4.128 2.069 4.213-1.267 1.784 1.421 2.519-.745 3.476 1.866 1.236.275 1.548-.857 2.474 1.1 3.33-1.4-.155-2.16.927-4.028 2.02 3.708 3.8 3.882 2.01-.711 5.022 4.21 2.183-.72 2.774.256 2.093-3.573 2.938 2.716 2.938-.948 2.175.948.228 1.384-3.012.4-.71 3.555-2.855 3.634-.073 2.415 4.949 6.815 2.939 1.786-.146 1.94.618 4.419.856-.855 1.618-2.8 4.5.865.072 1.149h2.331l3.556-4.492-1.01-1.85-1.639-.319v-1.157l-2.146-4.109h-2.411l-1.537-3.809.92-1.622 2.864-2.323.7-2.714-.628-2.179 1.019-.136 1.391-1.5.384 1.093.937 1.541h1.073l-.683.646.218.911 1.866.32-.846 1.074 1.073.165 2.165-2.259 3.959-.612 1.545-3.024 3.321 1.238 3.72-1.312 4.413-2.4-1.555-2.733 3.493.1 3.957-1.175 4.013 1.393 2.4-.684 4.486-2.25 3.948-3.89 2.638-3.562.381-1.623 1.092 1 1.7 1.4 1.929-1.484 1.874-3.09 3.239-1.712-.691-4.966-.938-3.644.31-2.942-.92-2.232 2.02 1.767 5.094 2.55.629 2.653 4.167 4.107 2.709-.709-2.028 2.96-2.628 1.232.463 1.721 7.3-3.581.463-4.037 3.731-1.256 1.864-1.712 3.257 1.875 3.256-.764.3-2.8 3.275-.793.928-2.013 1.548 2.478-7.89 6.426 2.019-1.7.629-3.581h2.166l.318 1.257h3.4l.472-2.05 4.659-.61 2.493-2.487 1.864-1.714.465 2.342 1.4-1.875 2.165.617 3.421-1.547-1.547-2.662 1.7-2.469 1.393-4.355-1.856-4.19 2.01.609 1.4-2.168 5.121-.784.465 1.877h3.874l.937-4.837h2.021l.628-3.271 1.864-.146.3 1.722 1.247-.792 2.484-3.728 2.329 2.8.627-4.191 2.331-.327 1.545-3.263-3.575-.766-2.948 1.084-5.132-3.88 6.834-.32 3.11-4.345 1.566 1.549 2.165-2.014 5.586 3.407 1.556-4.346-3.412-1.093-1.409-2.027.635-2.647 4.186 2.98 2.328-2.807-.472-1.1h-2.795l-.617-3.728-2.165-1.712 2.937-.787 1.548 2.032h2.02l1.409 2.021.155-3.426-3.584-2.632.318-3.271h2.184l1.381-2.493 3.113 2.8v2.792h2.166l2.165 3.426.327-4.979-1.564-2.948h-2.02l-.774-2.332 2.794-.787.518-2.72-3.421-1.085 4.731-3.959-2.32-2.317-3.165.227-1.566 1.557.711-3.171 4.257-2.951 6.778-2.994-2.165-2.332-2.494 2.332-4.966-4.341h4.339l-2.775-3.735-3.276-.314 2.175-1.873-1.71-2.164 2.647.62.774-3.441 1.246.324 2.175-.324-.308 4.066h2.639l5.113-5.444.318-2.478 4.666.308-2.81-3.42-3.093-.305.919-3.586 2.81 2.965 3.4-1.712-.154-3.58 1.41-1.559-1.719-2.327.309-2.8 2.338-1.567-1.555-2.477v-2.184l-3.949-2.245 5.64 1.773 2.338-1.854 3.084-7.294 3.339-.469.692 3.344 1.083 1.476.772-4.114 2.867-1.854-2.247-3.813-3.877-.315-1.764-1.7 1.682-1.394 2.812.546 2.311-2.172-1.857-2.02-2.556-1.315 2.776-2.556 1.4.309.554-1.694-2.247-2.1-6.741.308.383-1.871 4.338-3.713 3.949 1 1.237-.931.546-2.081 2.466 1.3.245 1.481 2.556-2.014-1.246-2.55-.554-6.1-2.175-1.4-2.485 2.472.774 1.108v1.863l-4.358-.933-5.266 4.5-2.8-.465v-3.732l5.585-1.088 9.162-8.527-.609-1.258h-4.039l-1.71-2.182-1.1 1.872-6.669-8.555-4.8-.774-6.376 5.443-3.258-1.084-4.184-6.068-4.195.939-4.192 3.42-1.249 3.582.474-4.83 4.649-3.89 2.647.14 2.8-2.007 4.957 2.492 3.575-1.7.311-3.587 2.011-1.875 2.492.322 4.8-5.594 5.6-.628.154-2.953-4.957-8.086-10.582-6.531-6.823-3.895-8.214-8.088-4.04-.145-6.687 4.659-3.247-.788-5.276-4.8-.164-2.191-2.183-.93-4.65 1.867-5.285-.624-4.494 1.554-5.75 7 4.813-9.335 3.729-1.868 2.484.781h2.639l1.074-1.245 3.111 1.245 5.439-2.187 2.494 6.236 2.638 2.163h4.039l2.629-3.571 6.523.942 4.513 3.1 3.1.167 4.03 4.2 5.9-3.435 8.389 3.117 2.319-1.4-2.958-5.912-2.628-1.08-4.821-5.923v-1.548l-2.165-1.712-4.194.318-4.041-1.717-5.43-7.768-.146-6.064-7.623-5.6-.447-6.063-4.056-1.4 2.018-4.824-1.391-.31-6.2-12.906-11.346-5.761-2.946 1.718v-2.953l-10.564-4.974-1.545.154-.155-10.268 1.7-7-1.7-4.659 1.082-5.9 1.4.929 2.956-.929 3.712-6.073 2.02 1.245 3.738-4.351-3.893-2.341-1.865-2.489 3.266-3.583 6.2.327.155-4.364 5.129-.931-.471-3.252-4.658-2.965 4.658-.619 3.429 2.642.928-2.488 3.73.155 3.71-3.11h2.649l4.349-5.755 1.546 2.486 1.865-2.335.473 2.19 4.969 3.414 5.111-4.353v-1.867l-3.258-.623-.463-4.361 2.648-1.39h2.174l-3.42-4.822.308-2.333 4.5-1.4-2.637-1.239-4.821.93-5.741.154.309-1.708-4.494.155-1.721 1.863-13.026.469-2.649-2.332-2.482-1.09-2.329-3.584-2.339-.93-1.245-1.707-9.318 4.355-4.947.148 1.7 1.4v3.74l-2.794 2.336-5.6 2.165.937.628 1.856 2.492-2.166 3.883-1.865 1.708-4.04-1.553-3.874 2.34-5.45-.169-5.576-10.879-6 .4-.939-3.874 5.579-2.855-2.184 1.242-.309-2.017h-2.328l-1.71 2.492-1.394-2.186-.153 1.875-3.098-5.291-.772-2.5-6.832-4.662-4.349-2.486-.465-4.514-2.174-4.812 1.857-1.712-.137-2.014.6-2.181.465-4.2 2.492-1.863.473-2.341 7.76 2.792 6.668-.138 5.278-.167 2.028-4.352-1.237-2.017h2.938l-.773-4.983-1.237-1.081 1.547-2.336 2.174-10.419 7.295-4.046 4.349-.149 3.257-5.6 2.183-.457.457-8.1 4.2-4.659 6.765-10.66 1.711-.925 2.647-4.524 4.666-.137 1.857 1.227h3.575l1.392-4.037 6.359 7.626 9.171 5.43.463 3.421-2.493 1.408-.928 2.793-4.349 5.6-.463 5.135-3.875.145.464 1.557-.929 5.294 4.5 4.5-.317 2.8-1.721.781v2.487l1.875 2.171 4.5-1.553 4.821-3.725-1.874 3.725-3.867 2.653.465 2.018 2.329.463-.474 2.335-1.7 1.2-4.631-.6-2.1 2.846-3.357.219-1.694 3.1 3.248 2.172.511 3.286 2.574-.4 2.456-3.2 2.428.09 3.294-5.024 5.8-2.509.62-1.641-1.712-4.041 5.123-3.9 9.007-6.833 2.637.31.783-4.211h4.648l5.45-3.871 2.174 1.854 2.32-.775-22.558 10.943 6.52-7.557 1.521 3.867v-12.736l5.906-4.92m-2.18 237.875-4.975-.82-.437 1.63 2.447 2.519 4.366.087 4.377 1.941-.519-4.392-3.411.219zm-167.227 267.968-3.721-1.549-4.9.729 1.793 2.014 2.821-.21 4.011.729v-1.713zm155.821-106.28.137-2.96-1.483-1.622-1.619.747.891 4.592zm-213.208 93.679.136.091-.054-.091-.1-.027zm170.677-42.182 1.4-1.2-2.52-2.424-3.1 1.531.582 1.94zm128.8-264.915h1.691l-.331-3.851-1.189-2.442-1.518 2.683h-1.44l-.893 1.585 1.961 3.181zm32.624-16.837-2.143 1.465 1.066 2.145 3.362-1.394zm17.781 1.545 1.51-2.4-.321-3.953-1.721-1.148-3.241 2.573.251 2.649 1.309 3.026zm-58.211-110.844-8.181 7.22-7.859 1.969-6.894 6.873-1.63 5.182.614.684 3.784-2.764 6.852.181-3.25 1.712 8.936 7.568 5.827 8.408 3.089.69-1.54 2.407 3.271 4.648 1.881 3.952-7.567-2.578-1.539-2.235-1.54 3.952-3.271-.861-4.628 6.541 9.952 4.638 2.586-.856 2.234 4.974.161 9.457 2.566 1.722 1.731-1.551 3.955 7.739-7.4 4.975-.181 2.583 3.11 2.4.16 3.963-2.726 1.536v4.295l2.394 4.3-2.938.166 5.515 10.665 3.239.327 1.037 5.171 1.731 1.375-.171 3.947 3.26-2.4.343-5.846 2.052 2.744 3.281-4.632 10.123-8.767 4.116-.861.694 2.4 3.1-3.771 2.394.337 2.234 4.461 4.287-1.717 1.731 2.085 2.214-1.561-1.7-3.268 5.484-3.439h5.153l6.188-7.9-1.368-2.417 3.079-2.4-1.2-17.372h-1.54l-1.55 1.733-.181-5.327-3.089-15.982-3.432-3.616-.352-10.146-13.383-16.837-12.2-12.714-8.3-15.318-9.007 5.837zm32.121-146.922-7.2-1.636-1.973-2.3v-4.589l-3.934-3.273-2.948 1.31v4.909l-.323 4.6 1.64 3.283-1.64 4.265-4.6.65-3.592 4.929v4.9l-8.856 7.21-5.252.674-3.925 2.291 4.921 3.605 4.921 4.915.322 3.292-2.959 6.218-5.887-.976-9.187.976-4.921-1.958-3.924 1.637-3.27-2.952-3.613-1.968-4.256-6.556-4.257 5.242-.332 7.547.332 2.292-1.972 3.932-3.593 11.148-4.267 1.979-3.934 7.542-5.907 3.943v3.928l-2.606 5.9-5.908 4.919v13.051l.625 1.577 1.016-.519 2.083 8.077 3.25-2.231.342-3.439 4.992 2.744 2.042 2.926 7.4-1.033 2.395-3.091 2.929-.343-1.208 3.943-3.1 2.08 2.928 4.289-5.494 8.943.335 10.831 1.56 1.883 8.412.171 4.458-2.236-4.8 4.482-5.847.508-3.089 6.355-.342 9.461-1.187 4.109 2.052.528 3.945-2.235 4.81 1.707-4.126 6.551 1.892 3.086 4.629-3.776 2.757 1.883 4.126-5.327-1.207-2.417 2.576-1.707 5.061 5.509 1.63-5.182 6.894-6.873 7.859-1.969 8.181-7.22 15.748-1.309 9.007-5.837-2.687-4.944-16.654-9.647-2.4-3.777-8.252-1.546-1.379-6.006 2.234-2.407-1.731-5.161v-5.67l6.018-3.776 1.892-5 4.468-2.916 4.639.172 1.037-2.412 3.25-2.921-1.374-3.434-.659-11.863-1.187-1.712 5.826-4.99 1.9-5.322-3.633-2.749-.161-11.853 7.371-3.62-.352-6.526 3.1-11.344.17-5.493 2.737.514 7.387-8.258.875.07-.071-.105-3.864-5.479zm-798.637-72.523 2.138 3.047 1.337 3.568 3.266 2.669 3.039 1.49 2.512 4.232 1.71 2.538.3 4.6-.964 2.6 1.038 4.834 2.292 2.756-1.266 3.715-2.884 2.3-1.337 2.151v3.056l.746 3.276 4.6 6.984 4.448 2.592 20.141 4.319 8.907-.146 5.55-.6 1.773-1.49 1.4-.369 13.946 3.205 6.387 4.077 1.7 2.383 3.621.665 1.865-.068 2.593.6 7.56 5.422 4.875 2.829 5.787.073 1.847-.523 1.409.6.529 3.64.882 2.3 2.01.31 3.1 1.106 2.957 3.2.319 2.583 2.374 5.937 3.548 4.282 4.295 6.382 1.783 4.446 4.576 8.883 3.556 1.185 4.131-.442 8.151-.893 9.462.592 12.427-.733 17.04 1.444 9.707-.961 6.823-2.533 1.183-2.305 2.31-1.413 3.184.757 12.409-.337 14.784 1.639 5.468.147 6.813 6.664 12.865 5.932 13.027 4.888 5.914.583 7.395 3.863 7.1-1.043 8.726-2.524.745 3.121v2.214l6.059 1.776 4.894-.136 3.685-3.116 8.88-7.116 5.767-6.51 11.545-3.854 14.629-5.189 6.668-1.922 5.768-1.927 8.433-.884 5.759-.292 5.623-4.15 5.476-3.712 4.876-.292 6.514-2.077h3.387l2.956-6.806 5.331-8.751 9.016-10.068 2.665-4 2.075-3.858v-2.525l-8.434-5.18-9.17-6.082.291-2.8-.43-4.457.3-9.029 2.957-4.3 4.731-3.549 7.988-1.64 5.031.155 5.022 3.554 6.222 2.228 5.022 1.024 4.294 2.082 2.074-.447 1.174-3.262 2.811-2.961 4.585-3.4 3.848-2.816 3.858-8.15 2.365-1.79 5.022 1.048h4.885l9.153-6.223 4.3-1.043 2.22-2.666-.309-4.3m23.247 1158.05 2.574-.76 3.966-4.14-2.966-2.13-5.076-.21.4 2.42-.592 2.63zm-2.7-21.2-5-1.48-.792.55.755 1.93 3.675 1.31 2.112-1.18zm-12.281 27.8 3.084 1.39 1.346-1.75-1.692-1.82-3.039.08zm18.514-15.24-.1-1.5-1.638-.49-2.274-2.19-5.259-.92-.436 1.61 2.893 3.37 1.993-.1zm-251.993-53.25-2.666-.97-2.01 2.18-4 .13 4.721 4.77 1.019 4.56 2.884.76 3.912 7.2 1.811-.84.846-5.38 1.274-2.88-4.759-3.72zm24.936 52.07-4.294 3.42v3.26l4.431 1.61 5.331 8.02 5.167 1.62v-7.7l-6.059-8.74zm-30.8-67.38-3.038 1.04 4.812 1.56zm33.124 45.71.446-2.66-4.812-1.72-2.23 3.04 4.813.08zm-6.149 11.21-3.184-1.4-2.084 4.47 2.456 2.83 2.884-2.9zm126.255-38.34-1.92 1.79-3.193-.23-1.856 4.16 4.385 1.21 1.255 5.13 2.675-.97 1.265-6.26-2.011-2.14 1.628-3.22zm7.632 37.49 1.638-1.36-6.223-5.81-3.339-.82-2.228 4.03 2.074 2.52 3.33-1.11zm-18.44-30.64 2-4.01-.829-2.91-5.549 5.5zm12.072 35.45-1.337-3.88h-3.476l-2.073 2.77 3.329 3.18zm-64.847-57.3-3.475.66 2.219 6.16 3.721-.59 3.694-4.24-3.639-4.16zm95.97-18.6 2.211-1.18-2.13-2.15zm-83.133 29.14-2.156.15 5.112 7.57 2 1.8 2.593-4.46-2.211-3.12zm-133.452-31.15-1.638 1.71-1.182 2.52 3.93 2.46 4.813-.65-2.821-3.79zm147.671 47.44 4.822 2.36 1.547-1.34-1.329-5.92-4.521-3.87-5.268-1.05-3.03 5.14.747 3.86zm108.706-78.86-3.484 2.07-2.074 2.92 4.067 3.93h2.3l-.884 3.2h3.039l1.7-5.8zm-46.343 27.88-3.338-1.31-2.456.64-.437 3.57 2.228 1.38zm8.552-1.72-1.483-2.83-1.255 2.46zm-2.292-8.25.291 3.57 2.211-2.39zm-90.475-51.546-2.812 2.078-2.815-2.372-3.685.447-4.585 4-5.468-1.33.146-2.961 2.347-2.97.6-5.922-2.665-2.67h-4.276l-1.037-2.369-5.631-1.64-3.836-3.385-2.667 3.389-1.336 4.72 4.23 6.915 2.174 16.949 2.339 5.61 2.492 5.12-.782 6.69-1.246 1.09.463 4.5 3.112 2.95-1.092 1.86 2.492 3.59 5.587 3.27 3.574 5.59 3.713 2.19 2.447 3.77-3.094 2.94-.472 2.82 2.556 2.3 7.35 2.87 6.269 4.97-.382 3.81 4.958 5.26 2.93.16 2.938-.71 2.174 1.8 3.093 3.4 6.2 3.26 6.741 1.3 2.62 3.13 4.031 1.94 1.319-1.4 1.474 2.15 4.093-2.55v-.93l-1.919-.31 1.3-.45.328-2.26-1.246-1.55 2.247 1.63-.155 2.32.764 1.55 3.093.55-.063-5.12-4.349-8.53-1.237-.62.082-1.24-.838-1.55-1.415-1.163-.773-6.22.546-1.54-.928-1.78-3.258-.07-4.712-4.28-2.648-5.35v-10.23l-1.537-2.69v-3.6l1-1.77-.528-10.13 1.7-2.19-2.02-8.36-4.513-7.17-14.892-15.238-3.1-5.594-1.72.465-1.856 2.022-2.947.147-.009-.046-.974 1.021v3.717zm196.173 80.696-1.356 4.27-.072 5.93-3.558 4.89.155 1.63-8.133-1.04-8.434-3.12-5.922.15-2.22-3.24-3.539-4.02-1.537.48 4.167 7.5 6.6 4.69.664 1.72 4.676 4.38 1.7 3.42 3.039.38 5.922-1.65.674-2.37 5.112.38m-232.559-98.34.737 4.24 2.219 3.05 1.628-1.12-.727-2.82-2.156-2.91zm69.156-97.586 2.293-1.13.891-6.232-1.328-.519-1.2-2.825-3.776 2.378 2.3 2.761-.891 2.151zm64.765-257.279-1.783-1.421-4.212 1.266-4.13-2.068-3.994-1.777-1.181-2.965-8.289-2.952-1.182-4.309-2.366-.884 2.075-7.544 2.956-.447.747-4.009-3.558-2.815-5.468 2.224-1.637-2.059-9.316.136-1.774-2.67-4.585-.892v-2.661l-4.431-3.553-2.8 2.815h-5.032l-4.448 2.523.291 6.361-6.869 2.277-4-2.314-5.04 1.494-.737 3.043-4.594 2.232-.964-2.979-2.374-.146-2.147 2.9-4.149-4.072-3.075 2.26-.719 3.945-2.811.045-1.847-1.467.265-3.143-2.675-.328-4.34 1.713-2.247 1.968-1.056 2.059-1.682.291-1.428 1.212 1.327 2.633 7.105 2.961 3.394 5.2 3.685 3.116.755 4.437-1.638 3.4 7.1 6.642 4.294 7 8.579.146 5.031 1.476 4.586-2.824h5.776l2.957 3.717-2.687-1.97.755 4.136-.119 3.663 5.841 1.421v2.815l-2.956 1.048-2.375 8.018-2.22 2.241 4.043 3.656-5.895 2.068-3.12.165.6 3.4 4.285 4.893-2.957 3.262.882 2.65h3.248l2.957 5.349-1.632-2.562 6.059 3.261 4.148.446 5.177 7.107 5.922 2.67 4.131 5.931 7.708 6.089-1.631 4.116 1.774 4.893 2.656 1.348h5.032l2.219 3.69.591 3.563 2.657 2.824 1.783-.61 3.1 1.329-.746 3.426 1.638 2.069 4.6.292 2.5 3.388 2.075.611 3.984-1.63 1.338 3.1-2.957 2.97-.592 5.485 1.619 2.369 3.1.447v4.892l-5.758 4.592.882 5.33 1.483 2.807.6 6.076-3.866 2.388-.647.017 2.43 6.342 3.7 1.914 3.556 8.309-.891 6.36 1.474 4.017-1.329 5.458.746 4.757-2.956 6.068-3.257 1.321-.892 2.678-5.622 1.631-5.914 3.863-2.073 3.991-7.542-.3-4.14 2.97.883 7.252 4.585 1.331 3.7 3.854-.737 2.824 1.92 4.292-6.515.441-1.038-2.816-3.985-2.369-9.625 2.369-2.21-1.5-4.139.147-2.367 5.931-4.448.747-3.8 4.683.965.711.154 3.426-.618.992 3.948 1.094 1.937-.765 1.939 1.229 3.084-1.011 4.339.629 2.939-1.312-1.775 2.086-5.721 4.5-3.03 4.956.391 6.523-.773 2.7 1.228.319-.537.61-.454 6.269 2.865 1.558 2.083-.839-2.01 2.305-3.712 1.649-3.1 1.923 4.868.711 9.07-4.118-.237-.921 1.01.064 2.557-2.332.537-4.319.928-2.26 2.711.392 1.71-1.231 3.939-3.5 2.1-.164 1.083-1.558 1.62-1.148-.847-1.148.155-1.02-1.083-3.016 2.321-.392 1.619 2.406 1.774.619 1.71-2.26.382-2.022-3.748-4.055 4.449 3.3 3.012-1.55-1.539-3.261 1.238-1.859-5.6-2.587 3.366.537 1.064-.747.082-1.467-2.329-1.877 3.485.939.627-1 .928-2.424.146 2.487-.536 2.551.773.793 3.875-1.011 2.32 1.175 5.331-.565 8.916-5.166 2.392-2.742h3.721l.464-3.49 4.1-2.852 3.02-1.64 4.64-4.719 2.166-.866.618-5.039 2.247-.847 2.711-2.551-1.319-1.7 1.556-3.646-2.857-4.345 3.239-2.488.154-2.313 2.093-1.641.391-1.84-1.938-2.023-.236-3.2 1.71-1 1.319 1.558.064 1.558.937.073.464-3.1-2.4-4.738-.919-2.942-1.874-.766-.145-1.95-1.474-5.212.946-1.438-1.337-3.5.7-2.333-.145-3.636-1.319-1.321-1.629-6.6-1.555-1.239-.938-7.49-3.575-4.373.928-1.695-1.092-1.721v-2.187l-4.648-4.8.154-2.815h-1.237l-.628-3.253-2.93-5.285-9.179-6.842-2.174-3.89-9.944-7.308-11.017-6.067-.454-1.4-4.513-2.634-.069-3.524-.783-2.478-9.71-7.683.782-1.4v-2.337l-2.638-4.638-2.02.145-5.431-5.311-6.059-3.562-3.566-1.067 3.4-.947.483-2.178-4.358-3.726 2.338-3.426 2.02-6.843-1.556-2.023-1.551-.324.164-3.718 1.711-1.411 1.136-3.573 1.875-1.411.145-1.7 1 1.385 2.648-.082 3.02-4.793 1.538-.464 1.092-1.868-1.174-2.4.564-.766-.163-3.261.527-3.1-1.073-1.239 1.556-2.168.3-2.861 1.392.446 1.319 1.941 1.391-.537 1.947-1.85 3.085-.71 1.946 1.156.773-1.376 2-1.4 7.154.057 1.083-1.877 3.721-.693 3.548.228 3.574-2.232 1.7.063 2.175-.929 1.382-2.332-.764-1.6-.018-.027.1.027.236.064-.172-.1-3.476-1.868zm-46.662 241.872 2.367-5.931 4.139-.147 2.21 1.5 9.625-2.369 3.985 2.369 1.036 2.811 6.513-.447-1.92-4.292.737-2.824-3.7-3.854-4.585-1.331-.883-7.252 4.14-2.97 7.542.3 2.073-3.991 5.914-3.863 5.622-1.631.892-2.678 3.257-1.321 2.956-6.068-.746-4.757 1.329-5.458-1.474-4.017.891-6.36-3.558-8.308-3.7-1.914-2.43-6.342-3.038.119-4.13-2.669-2.975-.884-1.92-3.252-6.959 1.466-3.685 3.426 4.44 4.428-.755 3.845 1.337 3.872-.291 2.8-6.368-2.378-3.7-6.059-5.905-.145-1.773-2.816-4.759-3.507-2.638 1.284-3.557-2.825-5.767.748-4.44-1.194h-4.44l-5.749 2.1-1.798-1.793-5.914-.155-1.607 6.116h-3.994l-4.294 6.059-1.328 6.1-3.393 4.574-.456 8.009 1.783 8.136 3.539 1.931 1.92 4.01-.436 7.553-.564 3.143.054.027 2.793 3.253.137 3.882 2.72 2.414.163 3.945-5.143 1.11 1.638-.621 1.546 3.026-.309 3.252 1.383 2.333.555 3.1 3.165.392 2.548-.392.082-3.489 2.484-2.168 1.692-1.157v2.459l1.4 3.18-.3 2.642-2.557 2.944 1.31 1.94.537 1.54 2.247.164 3.329-3.1.319-1.167 2.22 1.7 4.129 1.312 1.229-.765 3.757 2.769 3.8-4.683zm-101.9-210.329 3.984 4.747 1.047 7.116-3.257 2.369 2.957 5.184 3.257 1.194 3.539-2.961 7.541.154.146 3.545-2.357 4.738 2.357 4.017-.146 3.235-2.366 3.125 1.766 5.038v7.116l.355 10.76 5.64-2.969 5.022-1.185.6-4.164 6.523-2.961 6.813 3.572 4.149-.3 3.557 4.465 8.578-.893 4.45-9.212 6.805-1.467 9.2 2.369 2.956 5.922 8.88 6.432 5.031 3.691-5.935 1.446-.737 3.563-1.474 2.524 2.211 4.864-.3 5.787-1.028 3.124 3.7 2.661 4.284 4.738 3.849.3 3.548 1.476-1.329 2.223 5.168 3.417.9 2.788-1.347 4.592.3 2.67-1.484 3.872 1.484 3.235-.3 7.416-2.666 2.961-2.229 1.094 4.759 3.507 1.773 2.816 5.905.145 3.7 6.059 6.368 2.378.291-2.8-1.337-3.872.755-3.845-4.44-4.428 3.685-3.426 6.959-1.466 1.92 3.252 2.975.884 4.13 2.669 3.038-.119.647-.017 3.866-2.388-.6-6.076-1.474-2.809-.882-5.33 5.758-4.592v-4.888l-3.1-.447-1.619-2.369.592-5.485 2.957-2.97-1.338-3.1-3.984 1.63-2.075-.611-2.5-3.388-4.6-.292-1.638-2.069.746-3.426-3.1-1.329-1.783.61-2.657-2.824-.591-3.563-2.219-3.69h-5.032l-2.656-1.348-1.774-4.893 1.631-4.116-7.708-6.089-4.131-5.931-5.922-2.67-5.177-7.107-4.148-.446-6.059-3.261 1.632 2.562-2.957-5.349h-3.248l-.882-2.65 2.957-3.262-4.285-4.893-.6-3.4 3.12-.165 5.895-2.068-4.043-3.656 2.22-2.241 2.375-8.018 2.956-1.048v-2.815l-5.841-1.421.119-3.663-.755-4.136 2.687 1.97-2.957-3.717h-5.776l-4.586 2.824-5.031-1.476-8.579-.146-4.294-7-7.1-6.642 1.638-3.4-.755-4.437-3.685-3.116-3.394-5.2-7.105-2.961-1.491-2.969-7.678.3v2.971l-2.821 1.931.3 6.942 1.473 4.31.291 4.884 1.192 5.183-3.548-.874-5.328 1.64-1.774-3.416-2.621-1.9-4.03 3.545-5.767 1.166-.146 3.872-2.369 3.233 1.911 2.669-4.13 3.407h-2.229l-2.338 5.258 2.338 4.829zm11.49 242.976.883-4.145-1.184-2.97-2.965 1.913.291 2.678zm-4.976-10.1 2.665.812 1.055-2.206zm-3.066 66.813 1.556 3.262 1.473-.574-.582-2.543-1.483-.738zm-12.155-15.908.592-2.233-.282-1.776-1.056-.228zm59.68-99.512 2.893 2.46 2.156-.447-5.358-5.494zm10.544-13.74-1.92-4.01-3.539-1.931-1.783-8.136.456-8.009 3.393-4.574 1.328-6.1 4.294-6.059h3.994l1.607-6.116 5.915.156 1.792 1.786 5.749-2.1h4.44l4.44 1.194 5.767-.748 3.557 2.825 4.867-2.378 2.666-2.961.3-7.416-1.484-3.235 1.484-3.872-.3-2.67 1.347-4.592-.9-2.788-5.168-3.417 1.329-2.223-3.548-1.476-3.849-.3-4.284-4.738-3.7-2.661 1.028-3.124.3-5.787-2.211-4.864 1.474-2.524.737-3.563 5.935-1.446-5.031-3.691-8.88-6.432-2.956-5.922-9.2-2.369-6.805 1.467-4.45 9.212-8.578.893-3.557-4.465-4.149.3-6.813-3.572-6.523 2.961-.6 4.164-5.022 1.185-5.64 2.969-.355-10.76v-7.116l-1.766-5.038 2.366-3.125.146-3.235-2.357-4.017 2.357-4.738-.146-3.545-7.541-.154-3.539 2.961-3.257-1.194-2.957-5.184 3.257-2.369-1.047-7.116-3.984-4.747-5.486 1.358-2.338-4.829-.164.382-6.031.31-4.6 1.64-.073 2.306 2.239 3.043-1.556 2.222-5.2-.746-2.584 2.4-.145 5.12-1.329 2.151-4.521-.073-4.753 3.863-7.688-3.134-3.256 4.455 1.037 7.116-2.966 2.816v6.068l1.492 3.39-3.857 2.824-5.322 2.223.437 3.262 3.12.9 3.393 5.913 2.966 2.806 1.173 3.125 5.332 3.69 4.885 10.678 3.239 1.176 2.374 5.33.746 4.455 4.285 2.059.455 4.164-3.848 2.078-1.638 2.952 2.375 10.523-.6 3.116-4.295 2.514 2.957 7.108.154 3.69 5.323 6.669 6.223 4.884 5.612 5.5 2.657 8.728-1.473 3.417.9 3.991-.445 4.445 2.365 2.506.873 6.086 1.784 3.7-.3 5.932 2.667 4.6-.292 6.806-2.375 1.467-4.876 13.047-4.439 3.271-.592 5.166-1.919 3.271-1.082 3.071-.846 6.778 2.329.31-2.639 3.882.937 1.713-2.956 4.181 2.329.474-1.548 3.117-2.174-.457.155 7.927-2.639 1.248.61 5.9-.927 1.868 1.082 7 1.874 2.789 2.62.318-.136-3.881 3.876-1.868-.147 2.015 2.321 1.7v3.116l3.73.637 2.329 7.445h2.956l4.649 6.213v2.807l4.03.628 1.4 3.417 2.175.31-.151 2.195-1.719 2.014.3 1.658 8.833 6.369 1.693 2.779 1.336-4.72 2.667-3.389 3.839 3.389 5.631 1.64 1.037 2.369h4.276l2.665 2.67-.6 5.922-2.347 2.97-.146 2.961 5.468 1.33 4.585-4 3.685-.447 2.819 2.37 2.812-2.078v-3.717l.974-1.021-.464-1.977-3.749-2.4-2.228-2.944-2.667-5.934-3.811-1.449-4.157-.464-1.693 1.2-2.447-1.894-5.85-5.795-2.729-2.269-.4-3.644-1.219-.857-.71 3.053-5.95-2.26.537-2.961 3.248-2.16 1.01 1.4.7-1.484.764-1.158-1.61-8.437-1.938-1.1-.081-3.4-2.32-3.416-1.019-3.189-.3 1.713.072 2.241-2.247.073-2.084-4.565-2.174-.765.391-4.437-1.865-2.479-.454-4.254-1.783-1.723-3.093-.6-1.01-.7-2.01 2.241-.546 1.694-2.248.648-1.237-1.558 2.019-3.954-4.039-5.9v-2.705l-1-4.283-.3-1.858 1.928-2.461-.628-1.011-2.083-.382 1.938-4.119v-4.328l4.885-6.3 1.074-15.606 2.948-4.347.627-4.2 2.948-3.735.619-5.75-1.556-1.248.773-2.487-.155-4.51 2.175-3.563-.61-3.727-3.43-1.713.937-2.8v-.93l1.247.62 2.3-.019 1.319-1.649 1.474 1.258 2.466-.255 3.175-1.449 1.483 1.075 1.319-.383.691.547 3.557.683 1.074 2.724-1.147 1.24-.309 5.43 1.856 3.243-1.319 1.4-1.083 3.254 3.094-.3 2.865 1 4.122-1 4.393 1.067 1.775 1.257.4-.774-.472-.921 2.337-1.968 2.94 1.112 5.4 5.257 2.557 1.33-.074 1.868 1.62.064 4.267 3.571.619 1 .764-.318.236-2.843 1.8.182.564-3.143zm-83.115 103.74v-4.977l-2.447-.155-.892 2.67.892 1.712-.218 4.228zm-61.114-183.322h2.948l4.5-2.651-3.266-.929.319-1.412-1.553-3.263h1.4l2.329 2.97 3.4.629 5.3-4.365-.774-2.487 1.857-2.023.472-4.191-2.329-1.722.31-2.332.764-1.394-2.319-2.652 3.72 2.169v2.351l2.02.137.773 2.186 4.048 7.936 1.7 2.177 1.092 4.975h3.563l2.8-1.1 1.393-2.469-.164 2.332-1.082 1.858 2.483 4.83v2.469l-1.546.628.773 3.9 2.474 1.686 1.72 15.251 1.392.155.164 7.162 5.112 2.943-1.538 1.558.3 4.182 2.956 3.6-.318 9 1.865 3.744-.154 3.581 1.237-.92.782-6.551 2.948 4.983.928 4.356 2.811 2.487 1.391 12.592 2.02 1.549 1.229 3.727-1.384 2.022.155 5.3 2.011 2.944 3.03 3.306-2.812 2.187 1.884 5.6-1.019 2.442-1.347.61-.682 5.43 1.246 1.166v3.335l-2.483 4.11-1.538 1.366-1.565-.628.164 2.022 1.4 2.5.155 5.9 2 6.377.464-6.067 1.883-4.192-.09.684 1.082-3.071 1.919-3.271.592-5.166 4.439-3.271 4.876-13.047 2.375-1.467.292-6.806-2.667-4.6.3-5.932-1.784-3.7-.873-6.086-2.365-2.506.445-4.445-.9-3.991 1.473-3.417-2.657-8.728-5.612-5.5-6.223-4.884-5.323-6.669-.154-3.69-2.957-7.108 4.295-2.514.6-3.116-2.366-10.526 1.638-2.952 3.848-2.078-.455-4.164-4.285-2.059-.746-4.455-2.374-5.33-3.239-1.176-4.885-10.678-5.332-3.69-1.173-3.125-2.966-2.806-3.393-5.913-3.12-.9-.437-3.262 5.322-2.223 3.857-2.824-1.492-3.39v-6.075l2.966-2.816-1.037-7.116 3.256-4.455 7.688 3.134 4.749-3.862 4.521.073 1.329-2.151.145-5.12 2.584-2.4 5.2.746 1.556-2.222-2.239-3.043.073-2.306 4.6-1.64 6.031-.31.164-.382 2.338-5.258h2.229l4.13-3.407-1.906-2.665 2.366-3.244.146-3.872 5.767-1.166 5.769-5.039.445-3.872-3.994-1.331-9.325 4h-4.585l-2.811 2.67-4.73-2.369-1.338-3.845 1.191-5.484-2.82-3.691-3.092 2.806-1.046-1.184-6.506-.747-3.093 1.494-.744-2.826 3.839-3.835 4.731-6.688-.136-2.942 1.773-3.573v-3.115l-4.147-2.647-5.777.729-.727 1.622-1.638-2.643 1.037-1.94-5.313-1.176-2.374-3.27 1.328-3.544-1.028-3.563-5.322 1.339-2.529-2.077 1.328-2.515-.873-3.271-9.316 1.932-4.885 3.563-1.93-4.747.6-4.884-2.875-2.67-1.483-2.678-3.465-1.486v-3.425l1.9-3.079-1.775-2.671 1.629-3.553 2.8-2.961 2.665 1.048 1.638-2.369-1.792-4.009 1.047-2.819 1.928-.584.445-3.854 3.831-1.785.892-2.516v-4.15l1.2-8.737-.455-6.223-3.412-6.961v-6.214l-3.684-4.154-3.557.145-1.183-6.373-3.994-2.957-2.656-5.489-4.74-.146-3.1 1.786-4.74-2.078-3.447 1.686.937.98.445 3.1-3.994 3.722v5.476l1.028 3.407-3.994-1.768-3.411-2.828-5.75 4.141-6.659 2.086-2.065 4.879-4.886 6.087-4.585 1.612-6.824 10.68-1.019 4.892 2.075 2.66-2.812 8.141-5.767 9.335.281 3.111 4.886 2.379-4.43 10.814-1.911 8.738-3.266 7.726-5.477.119-3.548-1.185-4.294-.291 2.511 10.077-.146 5.338-.436 7.39-4.285-.584.737 5.476-.737 5.03 1.037 4.164-2.375 6.806-2.228 1.184-1.911-.874-.882 3.845v7.115l-2.229 5.039-1.629-1.058-3.984 4.894-.647 3.881.3 1.375.091-.109 2.019 4.346 1.62 5.412 9.1 8.155-2.028-3.572v-1.876l3.257 2.66 3.885-.328-3.112 3.59.309 1.722 3.731-.5.464-2.625.927 2.625 3.584.637 1.7 2.625 6.359 1.257 4.039 5.912.164 3.426-2.492.93-2.321-2.333-3.111 1.868 2.956 2.8 1.245.607-1.238 1.412-3.092-1.558-1.419-3.116-3.721-.291.472 2.15 3.877 3.444.309 2.332 3.574 4.346 7.607 2.178-.937-7.161-1.7-3.418 4.968 3.117v3.563l1.546 3.261 2.332 3.122 1.547 5.922 2.965 2.333-1.255.765 1.255 2.178 2 .938.464 8.082 3.656 8.993 1.866 1.867-4.658 2.943-3.33 20.4 1.22 4.374-.611 1.539.465 1.868 3.1-4.983 4.349-3.736 2.484-6.05-.31 6.678-5.422 5.13v5.6l2.329-.155.61-2.789 5.586-2.961 2.328 2.961 2.02-.464.473-2.023.154 1.084h2.175l.618-.938 4.031.465 8.242-5.6 1.074-3.562zm-59.926-52.9 1.183 2.971 4.149 2.36 1.037-3.563-3.275-3.253zm-263.263 231.516-.792-3.188 1.174-.52.227-.939-2.4 1.012.309 3.553-.691 4.729zm42.949 17.521-1.692-2.487.991-3.172-3.085-2.642-3.357-9.183-2.638-6.378-3.583.47-.146-.766-3.11-.318 4.039-2.178-.619-1.85-1.7-.784-2.648-4.828-2.01.155-1.255-3.882-1.238-1.558v-2.341l-5.9-2.16-1.092 1.394-2.629-.929.3-1.576-4.494-1.23-.164 1.138.8 1.349-.573.847-1.2.237.482 1.376-.264 2.76-2.083 3.718-1.229-.546-2.174-2.014-2.547-.292v1l2.165 1.094 1.237 1.858-.855 1.012 1.71 3.863.082 5.567-1.4 2.05-1.237 9.211.467 2.623-1.092 1.092 1.865 7.764-.691 2.86 2.7 9.777 3.248 11 2.875 4.8 4.876 2.588 4.094-1.02 6.978-.866 6.495-2 6.66-6.907 2.875-5.895 1.392-3.635-.391-3.426.919-1.148zm-34.834-53.264-1.083-.784-6.651.465.073 2.487 5.341 3.426-.382-1.722 1.156-.3zm.155 4.728 4.175 1.86 1.865 1.639 3.411-.082 2.01 1.55-.855-1.941-4.721-2.952-.773-3.1-2.938-.765-.773 1.3 1.237.784-2.411.21zm159.825-281.9-.072-5.594-5.9-8.365-1.038-6.368.739-3.709-1.92-5.183v-6.824l-5.021-6.361-5.333-2.077-4.584-5.485.136-8.136 3.849-.893 1.792-5.485 2.956-1.767 2.511.894 2.658-2.069-1.175-5.349.882-2.523-5.311-.447-3.711 1.485-9.6-3.4.581-4.888 3.994-4.593 1.928-5.333-2.064-1.778-.169-2.808 1.765-.158 1.2-2.962 1.62 2.369 2.819 3.262-.146 2.219 2.949 3.7 4.3.6 2.074-1.043-2.965-1.786.891-2.364 1.775.155 2.947 2.514 2.074 2.078 3.994 1.338.3-1.493 2.066-.442 2.829 5.043.873 4.892.582 2.507 1.637 4.45-.155 2.962 3.85 1.493 3.848-.3 4.284 1.925h5.329l8.3-.6 6.215.738 6.932-.282 3.421-.305 1.463 1.033 2.365-.583 3.551 3.69 2.081.9-2.22 4.291-.754 5.038-2.658 6.8-2.5 1.35v2.669l-1.637 2.033-2.283-.376-1.484-1.484-3.929 2.735-.674 2.7-1.637 1.393v2.46l2.075 5.512 2.09 1.923.811 2.105 3.257 3.108 3.174 4.226 2.084-.073.373-3.26-1.328-1.039 2.148-3.135.071-2.231 1.193-1.842-1.264-1.941 1.854-1.493 2.6 1.795 3.548-.3 1.037 1.941 1.82 2.871 1.329 5.795v4.273l1.482 3.123 1.174 8.284 1.637 5.485 1.473 3.162.856 1.412.174 2.2 1.009 1.658.781.765v-2.231l.882-3.844 1.912.873 2.228-1.185 2.375-6.805-1.037-4.165.738-5.029-.738-5.476 4.285.585.436-7.391.145-5.339-2.51-10.077 4.294.293 3.548 1.184 5.477-.118 3.266-7.727 1.911-8.737 4.43-10.816-4.886-2.378-.281-3.111 5.767-9.335 2.812-8.141-2.074-2.66 1.019-4.893 6.823-10.678 4.584-1.611 4.886-6.088 2.065-4.88 6.659-2.086 5.75-4.14 3.411 2.828 3.995 1.768-1.029-3.407v-5.475l3.993-3.723-.444-3.1-.938-.981-3.2-3.311-3.849-1.635-2.515 1.023-4.44-.728-1.037-3.407 3.257-3.559v-2.82l-2.958-3.989-.9-3.116-2.665.745-2.5.735-1.639-3.258 2.958-5.635-.884-1.928-2.8.748-2.22-2.962-3.247-1.042-8.889 5.184.6 3.708-2.211 2.078-7.86-2.514-5.312 1.47-3.695-5.334-4.588 3.26-2.97.6.293 4.44-4.567 5.782-7.579 1.785-4.458.657-3.4 4.255-1.4 4.217-4.3 1.2-.074 2.689-3.184-1.054-3.048 2.3-2.075 4.979-3.329.288-7.55 1.775-2.794.233-1.335 4.974.592 4.137 6.351 2.82v5.767l.163 3.271-8.306 2.665-5.613-.3-7.4 2.074-4.294-1.933-4.585.6-4.139 5.033h-5.469l-10.053-5.772-2.8 1.768-6.959-1.472-3.994-6.382 1.472-3.396.535-4.72-.236.124-4-2.962-.283-5.194-2.373-4.287-4.731.594-3.693 3.253-.528-.033 1.337 4.41-1.773 9.8 3.845 8.015-1.482 9.493-12.739 2.666-7.695-4.159-4.45 2.379-17.766-6.519-7.124.282-3.857 2.087-10.953-2.971-5.332-4.747-1.192-5.339-9.769-2.378-10.664 2.966-3.566-3.26-10.37.893-6.805-4.46h-5.632l-3.9-2.739-7.987-1.79-6.205-7.7-9.469-6.236-7.251-2.069-3.549-2.518-3.693-.147-3.557-2.96-4.431-.443-1.209-5.142 4.739-7.121v-6.83l3.257-10.974-.555-7.1-.318.429-1.483-3.407-3.538-.588-2.383-4.888-3.085-1.044-4.013-4.3-4.721-.747-1.929-2.223-4.59-.14-2.365 3.864-4.595-2.219-1.318-4.45-1.929-.585v-3.116l-2.52-3.553-2.211-1.5 1.328-2.509-2.211-3.849.883-8-5.468-2.811-.3-3.4-1.348-2.647-.128.131-8.3-5.192-5.177.3-2.065-5.639-5.631-2.223-5.914 3.262-11.235-7.552h-4.285l-2.674 4.882-5.168.3-6.059 5.476-6.077 10.073-1.21 1.357-4.112 4.574-2.511-.445-3.857 2.523-3.83 1.338-6.513 6.224 1.19 1.766 2.057 7.559-1.037 10.221-.574 4.885-3.275 2.515-5.913 6.532 2.665 2.064.156 3.85-2.22 5.033-6.66 3.262-4.585 6.519-.882 6.666-2.375 4.449-9.462 6.67-3.985 12.139-6.5 7.26-10.8.588-7.686 4.01-2.956-.6-.9-4-4.44-1.935-2.655 1.935-3.841 1.936-.9 3.532-5.477 7.863-3.082 1.033-3.266 8.3v5.2l3.392-.158 4.886 1.626 2.228-1.18 3.84.16 2.956 6.359-.3 5.039.892 7.557 6.669 4.292 3.974-.3 2.812 2.365-1.027 2.829 4 5.331 4.584 13.028-.6 2.961 1.629 1.923-3.849 1.348-4.584 2.824-1.911-2.378 1.611-2.969-4.732 1.476-1.628 1.775-8.123 2.962-14.057-.748-3.4 1.8-3.121-.748-1.763 5.194-2.822.739-4.276 2.8-.2 5.313 5.7-3.654 5.74-.912-4.5 2.478-4.021 5.276-.327 4.208 2.647 1.241 6.36 6.677 13.353 4.676 3.867-1.332h4.958l8.515-3.663.392-1.756-.627-1.333 1.237.712 4.176.291-1.611 3.964-1.246-.237-3.959 6.05-2.538.09-8.45 6.652-.456 1.548-2.238-1.384-1.328.155-2.247 1.95-3.4-.391.063-4.575-2.465.756-.765-1.221-2.492.209-.764 2.26.764 2.78 9.061 9.074 2.721 1.467 1.928-.137.063 1.468 6.515 8.527 15.783 12.71 7.443 1.641 4.957-1.714 10.609-6.586 6.949-3.564.164-2.26 3.175-3.243.692-7.306-3.011-3.78 2.937-7.909.238-4.11.545-2.559 1.53 3.325 4.957-.621 2.483 1.157 3.649-2.231-1.638 2.623-3.393 3.417-2.719-.619-1.084.839-.691 4.053 1.938 3.389-.483 3.892 2.575.155 4.8-.694 3.548.784h-3.339l-1.537 2.306-4.421 2.731 1.79 9.7 2.321 1.53 1.937 5.978.448 5.9-2.175 4.647.155 3.571 3.257 1.877-3.723 1.86.919 7.007 6.206 11.188.318 3.725 2.174 2.953-2.8.637-.144 4.345 6.033 7.791-4.494.291 3.893 5.914v5.6l8.678 16.938.174 11.534 3.238 8.829 3.421 2.186 1.555 6.068 2.64 1.55.154 2.641 4.812 8.721 1.4.3v2.337l5.276 6.051 1.238.336.464 7.463 2.184 3.26 2.184 4.492 1.08 6.378 3.559 9.349 2.329 3.572.645 8.545 1.856 1.714 2.475 5.284 5.594 5.9 1.557.173 3.566 5.731 6.059 7.015 1.857 7 2.02 5.749 1.711.155v3.89l4.657 8.547 2.166 7.772.474 8.554 7.286 15.253 6.069 7.143 6.213 4.346 6.669.639 8.078-4.985 1.857-5.447-.928-1.551.928-.93.318-2.195 2.321-3.717 7.142-3.107 1.41.155 8.761-3.07 3.184 1.2.918 1.867-.123-1.491-.781-1.166-6.7-3.417-.619-2.642 1.866-2.341 5.284-6.99-1.026-1.712 2.338-4.1 5.42-.848 2.076 1 3.948-1.467v-4.657l-1.583-17.119-2.019-3.116v-7.936l5.276-9.467 4.65-13.53-.774-10.114-5.123-1.7v-15.87l-.608-5.6 3.247-3.727-3.421-10.123-.146-7.287 2.028-3.738 6.824-6.851h1.71l2.175 3.126 3.1.3 5.586-7.152v-4.355l4.029-3.435 9.179 1.412 4.805-3.106 3.421-4.993-.792-4.8.628-4.347 5.75-4.838 7.76-2.625 4.193-4.208 2.8-5.3 18.3-14.76 3.585-9.794 13.965-12.428-1.847-.9-1.1 1.385-3.321 1.321.919-5.429 2.174-.32 3.493-2.787h1.561l.836 1 .082 2.105 1.246 1.557 11.145-5.749.383-2.634 7.513-5.356-.845-2.561 2.166-.21 1.083-3.725 4.648-4.047-1.309-.609.218-1.3-2.175-4.365-.692-2.468 2.011-4.037.856-3.09 2.174-1.794 12.764-4.73 3.02-3.417.309-2.941 1.246-2.871 1.237-1.166-1.637-1.941-2.383-.619-.31-1.148h3.549l3.1 2.778-.845 3.1 1.074 5.13 3.4 1.148.372-.657 3.239.027.774-1.411.454 1.02.572-2.386.511-1.76.837 2.333 1.455 4.709 2.238 1.231v-2.242l3.185 3.416 2.175-3.725-2.348-4.647 1-.336-.619-6.433-1.41-3.4m-6.978 19.99 1.346-1.4-1.346-2.16v3.563zm-7.743-4.209.437 3.99 2.22 1.623-.591-3.7zm3.294.428.819 2.378 1.4 1.021.455-2.525-.3-2.149zm-9.07.893.154 2.078 1.474-.738 1.929-4.885-1.328-2.059zm89.529 9.075 3.984-4.894 1.629 1.058 2.229-5.039v-4.884l-.783-.765-1.009-1.658-.174-2.2-.855-1.413-1.474-3.162-1.636-5.485-1.174-8.282-1.483-3.124v-4.273l-1.329-5.795-1.819-2.87-1.037-1.942-3.549.3-2.6-1.795-1.856 1.493 1.265 1.942-1.193 1.84-.072 2.232-2.147 3.134 1.328 1.039-.373 3.262-2.084.073-3.174-4.228-3.257-3.107-.81-2.105-2.092-1.922-2.075-5.512v-2.46l1.638-1.394.674-2.7 3.93-2.733 1.482 1.484 2.284.375 1.637-2.033v-2.669l2.5-1.349 2.656-6.8.756-5.038 2.22-4.291-2.083-.9-3.549-3.69-2.365.583-1.464-1.033-3.421.305-6.933.282-6.214-.737-8.3.6h-5.323l-4.284-1.926-3.848.3-3.849-1.493.155-2.962-1.638-4.451-.582-2.5-.873-4.893-2.829-5.043-2.065.442-.3 1.494-3.994-1.339-2.074-2.078-2.947-2.514-1.775-.155-.892 2.364 2.967 1.786-2.075 1.043-4.3-.6-2.948-3.7.146-2.218-2.82-3.262-1.619-2.369-1.2 2.962-1.765.159.164 2.81 2.065 1.778-1.929 5.334-3.994 4.592-.582 4.888 9.607 3.4 3.711-1.485 5.313.447-.882 2.523 1.174 5.348-2.654 2.053-2.511-.893-2.956 1.768-1.793 5.485-3.847.893-.137 8.135 4.585 5.485 5.332 2.078 5.021 6.359v6.825l1.92 5.184-.737 3.708 1.037 6.373 5.9 8.364.073 5.594 1.41 3.4.618 6.432 1.957-.683 1.61 3.963.855 1.941h2.42l.909-3.043 1.783-.765 2.72 1.795.31.61 2.011-1.176.309-3.626-2.174-4.82 1.173-.082.382-4.254 1.629-2.551-.937-1.95 1.474 1.786v1.321l-2.084 6.906 2.7 3.872 2.547-4.192 2.948-1.4-.928 1.868-1.7.711-1.938 3.554 3.184 2.25 3.321-6.205 3.949-1.549.427-5.548-2.788-4.523-2.648-1.084 4.186-1.576.627-2.15-2.8-4.21-.773-7.161 1.711 6.068 3.72 3.435 2.338-.174.774 1.4 7.3 3.435 3.876-2.333 1.4.62-.155-1.258h1.7l6.368 14.159 2.647 1.85-.172 2.8-.92 4.665 1.384.939-1.074 6.067.782 1.248 2.466-2.34.636-1.723-.163 3.28-1.074 2.5 1.7 2.169 3.73 5.339 2.957 7.3.609-.318-.936-5.121.382-.429-.3-1.375zm-23.017-30.677.592 4.3 1.937-.966.51-2.889-1.328-1.411zm-7.642-2.543v1.923l2.074 4.319-.437 3.388 1.766 2.671 2.811-5.34-1.046-3.244zm-4.14-1.029-3.7 1.622.163 1.776 2.8 6.077 3.685.155-.445-6.077zm1.075-124.1-5.177-.15-5.332 2.077-3.839-1.786-9.916-1.033-2.084-3.417-6.5.9-10.044 5.913-4.595 9.043-4.049 1.946-.536 4.711-1.474 3.394 3.994 6.382 6.96 1.472 2.8-1.768 10.053 5.772h5.476l4.139-5.034 4.586-.6 4.293 1.932 7.4-2.073 5.613.3 8.3-2.665-.163-3.271v-5.767l-6.351-2.82-.592-4.136 1.338-4.966-.891.078zm-76.771 6.504-2.066-.893-5.177 2.224-3.556-.879-4.14-5.64-6.068-2.364-1.183-4.894-5.021-2.523-7.7-.889-3.7 4.15-4.439 1.326-2.516 2.223-5.758-2.819-3.4.756-2.365-4.747 1.183-8.437-5.194-.738-6.5 1.772-5.03-4.442-.592-5.635-4.295-2.665h-4.289l-1.473-1.786-2.375 2.219-.437 6.092-2.064.883-1.783-4.447-3.694-4.3-1.62-2.67-4.448-2.222-4.74-.142-6.059-6.369-3.1-2.219-4.885-.295-2.065-2.083-7.541-2.815-5.041.451-2.511 3.69-2.22-1.034-4.13.15-1.483-2.223-6.068-3.107-.864 1.2.555 7.1-3.257 10.974v6.829l-4.74 7.12 1.21 5.143 4.431.443 3.557 2.961 3.694.146 3.548 2.519 7.251 2.068 9.471 6.236 6.2 7.7 7.987 1.79 3.9 2.739h5.634l6.8 4.459 10.371-.892 3.566 3.257 10.663-2.965 9.77 2.377 1.191 5.339 5.332 4.747 10.954 2.971 3.857-2.087 7.124-.282 17.772 6.528 4.448-2.374 7.7 4.155 12.737-2.665 1.481-9.495-3.849-8.008 1.774-9.8-1.337-4.41-3.766-.255zm449.814 212.817h4.293l2.8 2.214 2.957-.128 3.7 2.5 2.511-1.312 1.046-3.709 3.248-.591 3.412.883 2.492-3.253.309-2.369 3.839-.746 2.957-3.126-.727-3.535 2.065-6.368 2.074-1.64.874-2.952 3.119-5.03-1.773-5.348-4.294-2.806-4.449-1.631-2.938 2.086-2.2-1.749-4.158.884-2.147-.611-2.9 1.95h-3.784l-4.039 2.032-3.712.583-.883 3.854-6.195 3.7-5.331 5.639 1.919 3.263.146 7.68 2.356 4.019-.282 2.369zm699.75-694.583 1.2 5.212 2.3-.943 1.36-5.028 3.23-2.923-.67-6.06 2.21-2.132.26-2.484 2.2-1.786 2.48 1.105 3.23-3.075 3.51-7.014 4.59-5.642 5.27-.507 3.67-2.311-4.08 2.715-1.54-4.6-2.99.853-5.03 5.725 2.73-3.83-2.89.246-3.32 2.311-2.48-.943-1.61-3.594-1.1.529-1.62 4.008 1.45 2.556-1.79 3.164-2.82 4.788-2.05-.079.35 2.651-1.28 4.615-3.75 2.048-.51 2.729 2.21 2.4-1.87 1.613zm1.78 30.093 2.14.765 4.17-2.818.77-3.51-3.48 1.451zm-17.87-11.44 2.04-1.022 5.77-5.453 1.03-5.112h-1.37l-3.39.859-2.56-.859-2.38-2.211-1.36 1.708-.84 5.615-1.19 4.94-.86 6.992-2.38 4.589 1.02 2.9 4.25 4.939.17-6.636zm-12.91.68v-4.012l-1.28-1.964-1.11 1.377-.94 4.181-3.83 5.044-7.61 5.2-5.95.832-1.71-1.174-3.56.676-4.59-4.426-5.79-.681-6.96-3.4-4.08-4.437-4.6-1.012-1.86-3.4-5.95-4.274-10.72-10.55-3.23-6.307-6.46-1.367-7.65-6.3-1.69-3.578h-5.29l.53 2.037-2.39 2.9h-2.21l-1.17 1.535 2.03 3.06 1.35 5.626 8.17 12.613 1.86 5.443.51 8.858-.84 3.236 2.35 7.177 1.78 4.63-.5 1.953-1.97.252-3.58 4.117 1.38 4.352 2.63 4.181.86 2.31 2.11 1.2 1.47 3.416-1.47 1.545-.34 3.51-2.63 2.121-7.92-1.278-7.4-4.1-3.41.775-1.72 3.572 1.36 1.724 1.8.256 4.77 3.583.51 2.048-1.69 2.309-2.05 4.71-3.17.592-.75 2.126-2.73 1.55-1.72 3.845 1.22 4.7-.52 6.407.6 3.163 2.8.089 4.01 2.729 3.59 3.337 2.89 8.119 1.45 8.46-1.45 1.016 1.85 3.934 3.95 2.4 5.55-6.354 1.7-3.912-.52-3.405 2.38-1.7 6.29.34 3.22 2.551 1.22-3.405 3.56-4.766-1.87-2.724h-5.45l-5.1-1.372-5.94-6.637-5.12 1.368-4.92-2.729-1.53-3.751v-4.6l3.05-2.72 3.25-.35 5.94 3.766 2.38 1.53 5.62-7.659 5.27-3.917 4.42.156 1.86 1.886 3.75.838 4.24-.67 4.09 4.589 6.29 5.625 7.14 3.745 7.31 1.87 2.37 3.238 4.1 1.708-.35-3.589.84-3.9-1.35-5.275 1.03-7.846 2.38-9.545 6.28-8.847 3.91-1.2 4.6 1.2h5.93l-.32-2.384 3.23-2.551 1.69 1.357 3.23-.162 1.72-2.567.83-3.567 4.08-1.708 2.9-2.2.33-4.6 2.22-1.367 1.53-3.41-2.9.336-3.4 3.237-2.21 3.572h-3.57l.5-2.368-.31-3.588-3.94-4.9-5.71-3.6-1.62-2.215.08-6.412zm-119.59 83.333.53 3.588 1.94 2.31 2.72-1.959.17-3.939.95-4.274-2.56.863zm23.25 160.072 1.69-.587 2.58-2.566 1.19-5.212-.79-2.562-3.22-1.031.33-3.416-.75-3.332-1.63 1.624-2.03 7.857.41 3 2.9-1.713 1.01.681-1.45 2.739zm-50.6 109.656-2.46.429-1.62 2.562-.09 3.755 2.13 4.71 2.46-.095.72-2.991-.79-1.959.6-3.42zm-19.82 32.837 6.64 4.238 1.85 3.253 2.91-1.357 2.19-8.344 5.28-4.951.5-3.058-1.7-1.708-1.01-3.237-5.11-4.1-3.56-.162-3.4-2.551-6.13-.347-5.78 4.773v2.891l-2.22 3.4-4.23 1.367-3.58 2.551-2.2-.676-2.73-6.307-2.21.163-6.29 7.171-.18 4.258-4.07 2.887-1.02 4.772 6.62 1.7 1.2 4.6-1.36 1.356v2.383l3.74 5.626 5.78.671-.35 2.9 1.88.865 1.52-1.723 2.91 1.031 2.21-.686-.35-2.9-4.24-4.573 2.04-4.09 2.05-6.826 5.59-3.405 1.53-2.561zm7.74-28.485-2.99-.671-3.74 3.594 3.57.922 2.98-1.534zm-59.2 138.1 1.19-2.122-.85-3.163-2.9-3.594-2.99.6-1.11 2.829 2.65 4.7zm15.04-190.286-.82 2.624 1.2.582 1.71-.938zm-77.236 116.282 2.74-1.539-3.253-.6zm38.506 1.807-1.705-.949-1.433 1.551.335 2.546 2.385-.247zm-34.24-5.477 4.7-8.88-6.58 8.02zm81.09-114-.77-3.683-2.83.341-1.86 3.174 1.47 1.786 2.13.178zm-79.333 319.167 2.385-.865.156-4.243 5.773-3.583.167-4.09 2.228-2.9-2.06-4.772-2.364 4.772-4.088 2.395 1.014 1.7-.67 2.215-4.423 3.07zm-45.919 44.116-5.438-2.568-.523 4.94 1.883 1.7 3.231.336zm80.44-286.047-4.935 3.856-1.286 2.744-3.064 2.378-4.424 4.793-1.7 3.688-3.828.074-4.256 2.382h2.122l2.228.267 1.621 4.176 2.04 5.563-1.632 1.55-.764-3.677-1.97-2.836-1.1 3.771 1.191 4.28 2.971 1.262.523 2.756-1.538 2.986 2.312-1.294 1.62-3.154 3.577-1.2 2.3.848-1.8 1.724 1.705 1.278 3.649-1.105-.408-4.364-2.562-2.315-4.256 1.115.261-1.891 1.172-2.037-1.015-3.6 1.956-2.556 3.931 1.535 4.1 7.014.575 5.206 1.975 2.4.336 8.041-3.4 7.5-4.089.435 1.014 2.66 3.588 6.239 1.526 8.193 3.911 4.619-.083 4.014-1.966 2.487 2.991 3.667 3.736-.514 3.15 1.9 1.53-1.8v-2.488l-3.47-5.369v-7.623l2.12-2.388 2.38 1.954-1.36 2.064-.09 2.226 3.59 3.761 1.43 6.317-1.19 3.771.61 3.327 4.37-2.682 4.59-6.465-4.25-4.268-.17-2.551 2.2-1.011 3.41 1.011 2.03 1.54 1.19-4.773-.16-7.5-1.35-3.74.32-13.446-.49-7.171 2.55-4.254 4.4-4.437-1.01-3.567-2.37-.685-.17-4.432-2.55-.5.83-3.069-7.76.115-1.11-1.7 3.76-2.3 1.27-2.991-1.18-6.156-3.07-1.886-3.75.687v1.535l-3.14 2.31-3.34-.5-5.2-5.657.777-3.332 7.23-3.682 6.48-1.179 6.97 2.478 3.58 1.623.7-1.974-.19-3.243.36-4.787-.68-3.253 1.34-2.551 3.26-.256 1.86 2.807 3.06.173 3.93-2.126 7.75-1.463 7.4-2.4 4.79-.168 1.86.765 2.56-1.19.17-1.528 4.85-2.756 1.2-2.551 5.45-4.525 5.62-1.891 7.07 1.288 4.09-1.11 1.88 1.713v3.928l-3.49 5.045-1.03 4.006 2.11 1.457.53 4.279.34 4.442-.69 1.8 1.2 4.442 4.77 2.148 6.57 6.138 4.42 1.279 2.89-1.535 4.6-6.919.43-4.537 2.55-1.618.69-2.316-.94-3.164 3.05-5.72 4.1-.607h3.65l1.29-2.383-1.1-1.714-1.01-4.866-8.45-3.676-1.1-2.395 1.87-6.332 2.72-2.4 1.79-.586-.93 1.964.51 5.134 1.61 1.367 2.12-1.451 1.04-1.378 3.23.776 2.4 1.618 2.46-.759 1.61.423-.94 1.959-4.24 1.106-.51 1.2 1.52.78 3.59-1.031 5.81-3.081 11.9 1.011 6.11-.675-1.68-1.53-1.19-4.788 1.19-5.442 5.1-2.551 3.91.686.84 4.767-1.36 4.426 1.88 3.4 3.56-.345 3.58-4.946-2.72-8.177 1.36-5.1 5.79-4.415 3.22-.178 1.02-2.216-2.2-2.723 1.18-5.622 2.88-1.875 4.43.854 1.02 2.557-2.2 3.232-1.2 6.479 1.34 13.446 2.24 1.032 3.05-2.048 2.04-4.42 3.9-.336 4.44-4.777 1.69-6.134-1.01-3.918 5.09-4.762-.69-3.075-2.54-2.383-5.44-7.5-1.87-5.62-1.53-11.414 1.71-13.289.32-9.026-4.07-16.516-5.79-7.836-.5-6.134 1.36-7.658 7.31-3.4h3.57l1.88 3.233 1.35-1.7-1.19-5.453-.85-3.577-1.53-1.839-1.19-4.7.34-2.4-.08-3.588 1.7-2.907-.08-1.451.5-3.677-1.36-2.044-.34-5.845 1.03-2.891-1.88-3.405-1.36-9.187-4.26-7.5h-2.37l-2.55-1.367-.5-10.036-4.44-4.092-9.56-10.806-2.64-4.782-1.88-7.355-.52-7.176.35-2.4-2.72 1.728-2.13.251-1.11-1.378-4.18-1.885-2.3-.251.34 1.461-2.29 5.809.08 4.023 2.05 1.959 2.21-1.016 5.28-4.709 2.38 5.9-1.77 4.278-2.82 1.792-3.06-2.306h-1.1l1.43 5.558-2.11 2.217-3.32-1.29-.78-4.1-.76-4.782-1.44-2.4-2.89.948-2.57-1.462-.93 3.767 1.69 6.935.18 4.772-2.83 1.115-2.78 4.176.08 2.665 5.86 5.982 1.97 3.589-2.04 6.416-3.17 2.044-3.65-.771-.77 2.572 3.41 4.348 3.58-.86 3.07-3.456 4.59 10.392 1.71 11.414-1.02 6.3.5 11.242-4.09 16.51 1.21 6.306-1.88 7.172-5.77 3.053-2.55 6.988.33 7.815-2.89 4.6-.85 4.777-5.65 5.349-11.24 6.756-4.43 1.279-2.22 4.52-5.71-3.232-5.53-6.857.16-2.9 2.48-1.2 2.46-4.348-.41-2.477 2.89-2.991-.25-1.2-5.45 1.294-3.93 4.012-5.02 1.97-.96 4.531 3.34 5.631.69 11.12-.69 5.379-5.44 5.632-.09 3.085-1.96 2.21-.77 8.3 2.04 2.305.34 3.415-1.52 1.288 1.01 1.357-1.19 2.918-2.29.256 1.53 2.137-3.57 1.452-2.48-1.886-3.42 2.567-2.03-.77-.87-5.044-1.34-.6-3.08 2.226-2.89.078-1.45-1.021-10.22 3.594-5.37 2.053-5.36 1.875-6.06.42-5.77 1.806-2.05-1.288-4.95.6-8.85 6.154-1.62 5.548-3.24 2.231-.77 3.41-6.47 7.365-3.99 1.524-3.41 4.7-1.04 3.086-3.49 3.577-6.294 1.29-2.217 3.236 1.527 7.434 2.395 1.277.753 2.662-1.443 2.561zm-30.818 26.858.764-1.116-1.527-.178zm4.518-3.431-2.907-1.964-1.37.1.178.843 2.552 1.954zm54.422 75.979-.44-4.023-2.64-2.289-.14 3.159 1.01 7.605 1.1-1.283zm-37.753-58.624-1.014-.173-1.788 2.236.691 4.525 1.683 3.238 2.227.084.952-3.918-2.646-4.531zm-4.581 155.019.23 2.911 3.42 2.809 1.369-1.017-.783-3.845-3.064-2.472zm19.148-22.132-3.409.953-1.433.928-2.646.173-.773 1.445-1.36.352-4.089 1.884-1.621 3.327 1.286 1.027 3.828.167 1.956 1.541 1.108-1.368.261-2.9 4.266-2.823zm-51-128.7 1.611 5.039 3.064.419 2.719-2.215-1.695-3.243-2.729-1.456-.345-2.823-2.468 1.194zm39.1 5.818-1.883 2.059 1.526 1.43 1.705-2.808zm-104.359-53.26h1.758l-.345-4.007-1.235-2.541-1.579 2.792h-1.5l-.93 1.651 2.039 3.309zm17.287 31.67 3.053-5.453-.345-3.069-4.58-.849-10.039 3.064-2.73 3.4 1.715 3.578 4.6.854zm16.617-49.187-2.228 1.525 1.109 2.231 3.493-1.45zm38.285 4.825-2.206 1.4-1.255 2.923-.105 4.017 1.14 3.275 1.757-1.614 2.4-4.82-.836-3.305zm-4.591 19.612 1.872-.294 2.008-1.933 1.266-3.153-3.7-.251-2.008 2.98zm208.527 1891.621-8.92 3.59 1.42 3.21 5.71-.73 6.12.16 2.67-2.76 4.11-.98 4.98-4.1 4 1.16 3.02-.46-2.4 4.11-2.31 3.85-4.27-.27-1.16 2.49 4.18 6.14 1.76 5.15 3.04 7.51.36 8.77-.9 10.92-5.88 6.24 1.07 3.04-.9 8.22 4.11 3.58 3.56 6.27 1.08 7.68 8.39 11.26 6.43 1.61 4.46 3.22 2.14 5.71 4.82.36 1.08-2.14 3.04-1.07 6.04 1.97 5 6.08 5.36.53 5.89 5.53.73 4.84 4.64 1.6 4.81 5.73h3.55l1.62-3.21 9.1-4.31 2.81-4.07 5.7-.19 6.04-6.06 4.37.88 1.96-2.32-1.16-2.39-5.17-1.43 1.69-3.13 9.26-6.15 7.75 5.45-.27 5.17-9.44 5.18 2.22 4.44 2.94.74 3.47-3.69 3.84-2.94 4.79 2.69-.45 4.55-2.82-.08-3.81 3.72 6.27 7.33 1.23 8.04 2.33-1.43 3.21.35.37 4.83 3.36 5 3.41-5.89-.35-6.42-3.75 2.85-.9-2.69 2.86-3.2 11.6.35 1.43 2.32 1.6-2.67 5.9-8.06 12.13-7.32 6.79-6.09h-3.58l-2.68 1.62 1.08-1.43-4.12-1.43 4.46-.37h6.08l8.92-2.68 18.21-3.59 14.62 2.87 6.07-3.58v-3.92h4.3l4.44-3.05 4.1-8.4-1.76-9.3-.2-5.01 8.04-8.03v-13.96l3.76-5.36 1.62-9.43 4.66-2.16-.38-4.62 14.31-17.92 3.92-.7 2.51-9.7m-55.01-1416.107-1.26-2.624-3.86 2.149 2.7.705zm7.49-29.781-4.04 3.048 2.97 6.327.01-4.4 2.19-2.66zm-16.97 42.209-1.48-1.1-4.12.918-2.07 3.4-.85 2.555 1.61 1.591 3.06-.813zm-397.92 46.518-1.6.181.839 1.677 1.933-.467zm-126.19 4.44-1.165-1.95-.727 1.692-1.608 1.16-1.128 2.583 2.95.357 3.149-.046.161-2.382zm115.66 34.411-1.536.25-.178 5.44-1.125 1.95-2.511-2.06-4.471-1.96-2.379 8.1 1.625 1.28-.563 3.3-2.617 1.14-1.958-4.76-4.441 1.67-2.521 7.08-4.854 2.34-4.05.86-3.842 3.6 4.57-6.49-.069-6.99-5.437-4.87-3.339.18-2.547 3.57-4.9 1.96-2.1 3.72 1.7 3.53-5.937 1.04-3.885-1.36-3.122 2.94-4.137.94-3.915 4.41 1.268 3.06-1.416 6.03-3.068 5.8 4.228 4.84 1.83-2.73 3.413-8.69 2.487-2.04 2.448-5.08 2.3-.99 2.722 2.74-1.053 4.3 1.245 1.24 1.941-.99 1.994 1.36.44-3.79 1.642-1.22 2.106.81-1.148 2.55 2.205-.23 3.257 2.61 1.667.28-2.078-3.34 1.417-1.77-.859-1.93 1.734-1.75 1.959.13 3.848 3.63 3.547.87 3.828 3.38.72 3.59 3.242 3.38-3.611-1.48-1.7.77.16 2.22-1.976 2.36 1.9 2.41.34 3.28-1 2.63 2.828 4.04.584 3.51 3.794 4.69 4.707.15 3.527 3.46 4.256 1.95 3.5-1.84.586-2.28 2.182-1.51 1.3 1.78-1.587 2.4 1.239 3.96 1.228 1.73 3.03-2.11 6.02-7.25.373-4.32-1.828-2.7-2.089-5.61-3.548-2.85.941-3.39 5.464-8.8 2.854-1.57 2.821 4.28.849 4.19 1.877 3.25-.291 3.78 1.716 6.45 1.329 2.92.255-2.96.607-4.59-1.324-6.21.845-2.48 2.366-.3 1.347 2.77.01-2.58 1.72.2 2.3-5.53-.53-6.83-2.29-4.03-2.159-3.55.153-4.69-.446-4.87-1.6 2.38.015-5.02.382-2.56-1.66-.2-2.319-3.12.679-2.25 2.859.56.174-5.31-2.865-4.64.244-3.18-2.795 2.34-3.951-4.22-5.6-4.881-.779-3.523-1.369.263-3.314-.854-.3 4.68 1.555 8.235-.253 3.18zm7.8-32.329 1.419 1.044 1.033-1.728-2.533-1.678zm-126.16-25.613 1.431-1.875 1.634-1-1.265-3.175-4.2-1.321-.547 2.462 1.052 4.847zm18.373-171.073 3.95-.616-2.785-2.823zm33.727 169.355-3.886-4.165-4.363 1.014-.921 2.534 4.27 1.734 2.029.6-.215 4.022-1.031 3.911-.087 7.205-1.671 4.971 1.432 7.114 1.922-.7 1.416-1.717 4.728-2.8 2.72.247.584-1.341 2.2.072 1.758-2.778 5.149-3.99 2.193-4.414 2.326-1.667.8-3.537-1.8-3.088-2.553 1.482-2.847 3.339-2.375-3.966-2.931-.917-4.409.164-2.281-.309.826-1.642zm9.231-12.921.375-2.048-2.846-1.52-1.933 1.289.451 2.457zm61.945 49.8 2.175 5.229-.67 2.579.838 1.986 1.58.368 1.142-4.764-2.7-3.585.054-3.925 1.558-.947-.984-2.373-2.066.819zm-51.61-42.7.833 2.452 3.6-5.431 3.115-.177 4.295 5.893 5.084 2.284 3.342-.274.084-2.57-2.395-3.343-6.308-4.393-2.792-.6-3.534-3.538-1.522.109.436-1.366-2.928-1.01v4.56l.726 3.436-1.885 1.543zm-22.467-14.481-1.879 4.042-2.7 3.465 2.016 5.549 2.612-.763 1.762-5.174-1.311-3.763 1.125-4.766zm35.079 7.527 1.813.059-3.352-4.53-2.842-1.062 1.149 2.163zm-21.54 40.53.31-2.647-1.475-1.037-3.535 1.032-1.429 4.131 2.358 2.193zm-27.249-58.885-4.178-1.815-8.509-8.008-5.043 1.046-4.768-1.964-3.859 1.85.848 1.986 2.888-.064.886 5.046 2.84 1.156 2.6 3.712-.214 6.512 3.266 2.055.042 3.825 3.912 5.126 3.449.71 3.89-3.053.109-3.335 2.007-1.286.12-3.642-2.008-3.245 1.6-2.83zm55.731 45.615-2.29.847-1.625 7.538-4.141 6.215-.606 4.838-2.012 6-3.3 3.836-.3 4.382.8 3.5 3.29-3.52 1.8-8.883 5.971-6.324 1.194-4.063-.481-3.793 1.591-2.522zm39.945 36.406 1.768 2.016.838-2.546-1.98-1.818zm-74.274-.836 2.877.561 4.737 3.185 4.213.455v4.844l3.127 1.76 3.85-2.14.282-3.78-2.57-5.39-.318-8.207 2.958-11.876 3.9-3.807.272-3.48-3.092-2.535-2.012 1.157-2.68-1.459-3.4 2.164-.13 3.95-2.532 3.693.551 5.632-2.419 4.778-6.7 1.432-1.907 2.521zm50.776 8.415-3.6-3.16-.832 2.1.753 2.62 2.976 2.06zm-29.1.95 2.576 2.05 3.384-1.26.48-2.41-1.259-1.08-3.893.31zm59.7-12.1-1.375-4.074-1.845-3.949-.987 4.547-.733 1.635 1.956 2.8zm-188.26 29.64-.863-2.7-1.331 1.42zm97.866 38.11-3.731.19.092 2.04 2.378 3.88 2.4.84 5.459-4.61.44-1.51-2.326-.92-2.531-1.74zm-108.5-34.82-.252 2.85 2.263 3.98 2 .07.342-5.33.726-1.72-1.349-1.14zm7.407-4.99.336-1.72-2.2 1.98zm84.261-224.962-2.95-2.045-3.359-4.055-7.958-1.781-6.124 1.917-.9 4.67-4.537 8.346 1.059 5.2-.134 8.621-2.76 10.382-2.127 4.928 3.094 7.077-.09 2.729-3.086 1.549-3.6-.723-2.759-3.569-.774 5.131.911 4.59 2.414.21.7 1.542-1.6 2.829 1.308 6.123 2.993 5.843-.108 7.577 1.769 1.429 1.565-1.171 1.644.67.011 4.242 3.91 5.435 2.71.256 2.537-3.11-2.189-2.5.242-2.565 4.515.6 3.538 2.848-4.723 5.748-2.359 2.664.367 2.427-.61 4.978 2.573 4.784 1.338-4.189 2.447-.815 1.555 3.678-2.067 3.429 3.327-.656 2.968-2.485 4.687 5.011 4-2.293-.826-2.918 1.912-2.67 4.861-.307 8.5 3.785 1.57 3.24 4.57 3.469 3.855 7.111 1.665-.244-1.121-7.021-4.137-7.847.674-2.1 2.246.5 2.347 2.511 2.672 1.458 2.576 4.934 5.961 2.479 1.546 3.985-.148 4.537 3.136 1.175 4.509 5.612 3.662-.952-.1-1.524 3.463.869-.385 2.1-3.376 1.886 3.331 4.333 3.588 1.329 1.723-6-.373-2.594 1.863-1.757-1.591-2.318-3.483.026-2.973-1.608-4.232-.139.243-2.873-2.625-7.415-.709-3.669 2.073-1.3 2.1 1.29 3.029-.366-.846-1.455-4.013-2.872-5-.379-2.221-4.1-1.881 1.44.182 4.118-2.869 1.734-1.911-2.208.683-4.359-2.35-5.029-6.079-4.161-4.105-.051-5.765 4.3-1.02 3.306-3.367 1.017-4.725-1.824-1.838-4.153-3.19-2.688.158-4.526 1.744-2.377-2.617-3.117-1.952-5.519-2.2-1.88.931-5.127 2.207-3.126-.294-4.709 1.64-3.723 6.7-6 2.616-1.434-1.448 2.993.21 2.133 3.681-5.5-1.055-5.042 2.775-5.961 2.275-9.782-2.027-2.649-1.185-5.345-2.4-.992-3.554-6.626 1.169-8.158 2.5-2.8.415-3.008-2.606-3.732-1.987.7-.371 1.956-2.954 2.337-5.9-.193zm56.267 194.821 1.955 2.872-.445 1.971 5.237-.136 6.41-2.69 1.672-2.743-.235-4.493-2.208-2.217-2.422.023-7.358 4.076zm23.892-20.04-.471-6.384-2.173-5.312-.715-1.776-4.288 1.3-3.74-1.782-2.811-.018 1.468 4.058-.07 4.255 2.5 2.664 2.116-2.057 2.353 2.353-.477 5.467 1.839 3.846.5 6.19 3.328 2.459.563-5.838 2.186 3.186 3.67-.869.488-3.256-3.514-6.41zm5.244 13.851-.882 3.617 2.784 3.429.029-3.178zm-19.615-10.6.283-4.094-1.665 1.933zm-143.335 31.69-6.314 7.69-1.129 2.08.415 1.51 4.163-3.14 2.787-.37 2.828-2.79 4.549-1.57 4.92-6.94 4.9-1.519 3.423-2.76.368-2.123 2.987-3.362.209-6.381 2.512-2.8 6.367-.239 1.646-4.208 3.122-2.919 3.349-.487 1.938-3.443-2.1-5.217-2.9-3.88.417-3.921-.248-6.079-1.829.705-1.134 6.471.407 6.084-3.107-2.087 2.432 4.191-.246 3-3.6 3.985-2.715-.387-3.92 4.264-.411 3.166-4.33 2.292-4.524 8.8-6.23 5.708-3.344.348-3.221 5.648zm142.113-52.98 2.985 2.131 3.267-.275.969-3.978-4.943.519zm-27.459-38.049-1.6.33-.154 2.41 5.256 6.121 1.06-1.951-.451-2.43zm29.45 14.793-1.722-.895-.166 2.81 3.046 6.8 5.163 4.412 4.6 5.764 2.085 1.448-.667 1.862-2.066 2.535-.626.939 1.987-.69.734 1.171 1.47 1.186 3.344 2.235 1.115 2.918 6.229.586 1.188.655 1.021-1.039 2.153 1.058-1.887-2.635-1.169-3.834-2.2-2.113.5-6.008-.517-7.515.531-2.285-1.7-1.334-3.34-4.9-2.069-3.928-2.495-.3-1.379.6-1.959-1.025-2.21.385-1.482 1.472-4.18-.314zm-7.166-22.875 5.59-.956 1.65-4.337-1.822-4.331-2.937-3.285-2.109 1.535.618 4.73-1.316 3.211-1.5 1.116zm-45.1-38.4-5.07 2.714 1.938 5.653-.682 1.8.677 2.9 2.951-2.636.664-6.338 2.181-2.054zm-1.371 22.242 2.976 1.831-.647-3.275-2.9-2.072zm-6.58-112.261-2.68 3.1 2.363 2.045 1.765-2.983zm5.854 124.987-2.294 2.956.493 3.131 4.83 3.5.989-2.346 1.809-2.057-2.013-3.628zm-15.335-131.219.754-4.526-3.256 2.177zm-19.152 128.636-3.725-4.216-2.823-.093.378 2.969 5.1 2.386zm15.122-116.646 3.4-1.707-5.292-.173zm-26.808 148.854 1.349 3.159 1.826 2.251 4.463.453 2.685 1.311 1.893-2.065-.83-2.237-4.221-1.043-2.42-2.886-3.321-.631zm-39.494 191.648-4.323.93 3.126.96zm-3.108-8.31 2.053 1.01-1.149-2.16zm5.559-.26-.029-1.41-4.382-1.81-.2.85 1.15 2.11zm192.241 1.86-.84-3.99-2.75-1.93-2.03 1.32 1.36 5.13.33 3.95 2.15-.84zm-160.388-20.09-.922 2.56 1.689 3.87.109-3.36zm13.108-3.66 5.007-3.32-.241-3.21-3.275.5-7.144 5.5 1.1 1.36zm114.736 36.19.58 5.32 3.668 3.45 1.9-2.06-1.224-4.43-4.083-4.98zm28.424-2.18 1.59.06-1.16-3.99-2.26-.69zm7.77 94.19v-2.18l-2.35-.17-1.43 4.07 2.56 1.06zm-136.645-155.3 1.2-2-.922-2.01-2.754 3.09zm5.548 6.87-1.65 1.77 1.172 1.48 3.634.19 1.788-1.15 1.86 1.2 3-1.43-.015-1.82-4.742-1.06zm-14.864 265.88-3.113-6.78-.981 2.09-.406 3.33-1.529 2.6 1.718 3.01.81 3.15 1.733-4.34zm62.658-97.46 1.159 1.55 3.815-.78.848-3.16-2.949-2.36-1.591 2.52-3.206.66 1.447-2.37-.386-1.85-5.743-.65-4.807 2.65.059 3.88 3.1 2.37 2.8-2.32 3.385 2.68zm-5.04 10.61.981-2.4-3.216 1.26zm-24.258-36.63-3.5.81 3.285 1.46zm57.25-18.69 1.928-3.43 2.726-.23 2.358-2.64 2.948-1.86 1.477-3.59 1.913-2.98 2.02-1.43-1.9-2.19-.376-2.44-5.852-1.56-4.118 1.23-.907 4.07-3.241 2.31-.385 2.11-4.486 3.04-3.334.32-2.225 3.13-5.016 1.06-9.925-2.31-8.438-1.04-1.591 2.24-1.973.24-3.973-3.79-3.162-.41-3.632.05-3.914-1.03-5.411-1.1-2.934 1.73-3.111-1.93-3.956-4.06-6.153-1.43-3.791.04-.149 4.53-3.25 2.01-1.943 3.9-2.8 2.33-5.373-1.99-5.034 1.05-2.045 2.2.406 1.51-5.447 4.83-.2 6.08.938 3.51-.535 6.96-1.14 2.4 1.948 5.05.486 3.95-1.6-2.17-1.105-3.23-2.742.68-2.824 3.24-3.4 1.72-.887 4.05.437 4.87-1.6 3.14.764 8.81-1.115 1.93-.715 3.47-2.764 1.12-.025 5.3-4.97 3.64-1.676 5.39.708 1.7-1.911 2.35 2.18 7.36 2.161 3.4 1.536-.84 3.18.1 2.324-1.6 2.077 1.12 1.194 5.35 3.319 9.82-1.614 2.38-1.368 5.4-3.167 4.29-.753 9.07.362 7.14 2.279.08 2.814 1.91 4.377-.02 2.055-2.21 3.895 1.06 3.5-.51 2.522 2.06.843-3.31-.316-4.26-2.8-2.06-.436-5.48 2.4-3.7 1.149-6.93-.559-6.54-1.605-1.88 4.281-5.92 1.537-5.41-1-6.54-2.636-2.52.064-1.96 4.624-2.74 1.9-2.82 4.281-.77 4.181 1.67-.524 2.1 1.857 3.54-.139 4.25-3.453 3.66-1.025 3.74 2.12 4.35 2.86.53 2.473 3.26 4.742 3.04.624 3.97-1.647-.34-1.322 7.67 1.378 4.29 2.988 1.15 2.294-.66 4.614 2.11 3.5-.49-.247-1.52-1.092-3.07 3.736-3.22 3.648-.78 5.08-2.72 6.188.66 2.348-2.33 1.636.94 3.023.1 1.9-2.98-.546-1.84-5.416-.63-1.69.71-1.795-.67-3.949.34-.2-3.05-1.962-.36.213-1.97-1.8-.52-1.858 1.01-.066-2.28-3.6-1.19-1.125-2.62 2.5-2.32.976-1.94 1.5.65-1.134-2.62 1.822-.23.982-2.1-1.89-2.03-2.852-1.01 1.272-1.91-.39-2.3-3.548-2.54-2.4-.24-.931-3.96-5.525-6.71-3.4-2.52-1.987-3.86.5-1.65 1.66.2.833 2.16 3.78.28 3.4-2.46 1.006-2.55 8.554-2.76 6.2-4.5 3.033-4.76 3.859-1.83.233-2.88 4.574-.92 4.014 2.26 2.557.38 3.806-5.02.109-3.34-4.346-1.79-9.395.58-4.187 2.76-6.185-.2-3.062.81-3.76 3.65-3.925-.43-3.029.66-3.855-2.54-3.75-1.21-4.247 5.18-3.1 6.87-4.152 1.98-4.38-.73-.977-2.02-5.252-6.23-5.287-4.86-2.632-7.51.863-8.17 3.587-7.76 3.91-3.67 4.891-1.51 5.668 2.92 6.785.38 7.685-3.55 4.965.77 1.753 2.49 4.382.14 2.607-1.15 8.889 1.21 4.7-.15.95-1.17 4.981.31 3.271 1.93.981 2.16 4.188 1.49 16-3.11zm-29.405 52.09 3 .56-1.14-2.15zm8.108-2.77-.65-2.9-2.5 1.75zm82.958-24.77-2.89.45-1.33 1.18.22 2.5 2.17 3.56 3.57.04 2.18 2.2 1.99-1.89-1.02-1.79-2.92-1.38.33-3.11zm-126.574 96.29-.31 2.64-1.26 1.24 1.366 4.62 1.79.81 3.2-2.03-.866-4.27-2.383-3.73zm1.153-100.39 1.745 2.43 2.99-.6-2.825-1.85zm148.521-49.43 3.13-2.86-1.1-3.31-2.68-1.84-2.72 1.9-3.23 1.02 1.08 6.74 2.43-1.99zm-140.492 154.9 1.62 1.41 3.661-.33.576-1.66 1.623-.4.561-3.48 2.75-2.64.137-2.2-1.781-3.62-3.613 1.71-2.9 2.79 1.127 2.54-3.859 4.12zm-260.928-91.61 2.657-.69 4.193-4.09-2.961-2.28-5.183-.39.329 2.48-.693 2.68zm-2.054-21.76-5.066-1.68-.828.54.708 2 3.713 1.45 2.2-1.13zm140.915 70.44-1.055-1.06-.816 1.63.04 5.3 1.155-.3zm-2.864 6.43.016-7.32-.979-1.68-1.974 1.17-2.366 5.99-.84 6.04 1.607 2.13 3.3-2.15zm2.019-28.13 3.3 1.1 1.4-3.24-.446-2.9-2.425.15-1.337-.96 2.493-1.66.718-3.71-.8-.84-5.087.13 1.744-2.37-.7-1.92 3.111.56 3.525-1.34.811-3.7 3.7-3.98.443-4.45-1.042-2.85 2.085 1.13 1.629 4 3.761-3.66 2.691-3.71-1.933-5.51 5.742-4.2 1.745-7.23 1.908-2.81 1.016-8.02 2.047-2.2.1-3.03 4.524-4.24 1.878 2.65 1.278-2.09-1.174-5.65 6.591 6.87 4.807.77 3.255-2.16 2.7 1.16 2.612-.99 1.165-3.74-3.295-.87-1.125-2.62-3.35-4.04-3.023-.1-8.656-8.64-3.122-1.9-.782-3.68-1.764-1.57.846-2.55 5.48-1.02 2.232-3.89-3.058-2.98-6.72-7.49-1.223-4.44-3.371-3.13 1.611-3.13 1.821-.43-.409-2.33-1.744-1.06-3.192-4.03 2-1.15 4.654.91 4.736-1.06-3.933-4.98-4.327-1.82 1.428-2.08-.244-1.96 2.146-.39.26-1.14-4.5-1.5-5.893-.05-2.205-1.75-9.24-.45-6.652.38-3.439-1.61-4.572 5.15.227 2.73-2.24 3.58-.1 3.18-5.059 16.06-6.656 9.33-3.64 8.81-8.718 12.3.5 3.2-10.039 1.19-8.766 4.41-5-.01-1.581-2.62-5.207-2.75-10.2-.02-3.2 2.63-11.827 4.33-11.5-.98-2.989 1.43-5.214-.56-.768 2.4-6.109 1.49-3.1-.49-1.624-3.56-4.635-4.63-.621-1.78-6.586-5.01-4.009-7.81-3.308.94-2.214 3.08-5.214 6.52-3.5 5.64-.328 2.91.977 2.86-.538 2.48-2.94 1.64.343 8 5.977 8.01 1.783 3.24-2.388-1.29-1.334 1.24 2.491 4.96 4.217 1.44 2.755-.53 6.552-.78 5.723-3.3 3.766 1.26-4.007-.43-5.078 3.72-7.4 1.5-3.367 2.76-3.81.32.1 1.7 4.928 1.32 5.035 3.19 5.795 6.16 1.924 3.79.408 3.74-3.01 4.08-2.38 2.73.9 2.6 3.568 2.5.827 9.44-.089 5 2.227 5.93 2.371.07 3.357-2.7 1.195 2.77 4.389.44 3.152 1.26 5.317-.28 3.665-2.46 2.508 1.89 2.717-1.65 2.029-3.96-.3-2.29 1.192 2.85-.956 3.61 1.589 5.22.364 7.08-.559 3.41 3.023.09 5.052-5.83 2.459-.61 2.131 2.03 3.122-.35.922-2.01 5.168-.61 3.295-3.37 2.28-.24 3.7 2.41 2.468-1.45 2.2 2.05-.106 3.33 1.6 2.21 3.869 1.24-1.359-2.85 1.589-3.29 1.7 3.4 3.3 1.01 2-.99 2.161 3.1 2.012-.85.684 1.55 2.017 3.24-.848 3.16 1.021 5.78 4.093-.46 8.766-3.82 6.08-.85 7.282-4.6 4.626-7.91.094-2.87 1.382-5.24.858 1.68 2.213.06 3.393-6.65-1.245-1.24-1.828-1.88.269-1.67zm-134.116-35.69-.052-1.53-1.658-.56-2.252-2.31-5.345-1.13-.5 1.63 2.844 3.55 2.041-.04zm412.563-8.37 5.6 3.3-.55-2.14-7.82-4.28zm-11.78-24.2 3.43-7.33-.21-3.03-2.33-2.67-6.74 2.21-6.45 2.98-.55 2.87 2.1.22-1.86 2.06-3.69 1.54-1.48 3.29-2.42.37-1.72-3.54 3.13-2.93 3.33-.05 1.84-5.23.21-6.38-3.59-1.62-.66-2.29 3.28-3.54.58-3.31-2.16.53-6.55 6.02-1.55 5.99.27 5.31-2.64 1.89-1.52 5.26 2.03 2.82 2.27 4.44-1.75 2.68-.89 4.2 3.97 3.49-.7 2.55.68 2.45-1.8 4.33 2.56 4.78 4.3 2.89 3.11 6.91 3.58 1.62.8 3.37.38-2.56 1.68-.56-1.13-2-5.3-5.03-1.46-5.95-3.27-6.93.26-7.88 3.07-.97 4.78 1.69 5.44.33 2.81 2.36 4.08-.16-1.91-1.75-.66-3.05-5.16-3.97-2.72-.38-1.57-2.92 2.84-3.11zm-72.328 62.31 4.525 1.44 9.231-1.83 4.969-1.06-4.216-.89-7.778-1.31-2.993 1.26-3.16-1.3-2.313.97 1.648 1.13zm8.162 3.54.658 3.5 1.652 5.01 1.64.8.232-1.96-2.748-4.79.11-3.35zm-14.356-4.58 3.242.5.052-3.57-2.693-1.09-2.733 1.87-2.605-1.51-4.132-1.2-2.611.98-2.038-.6-2.823 2.64-.366 2.06 1.432 2.31 3.945.97 4.609-2.58 2.944.83zm-578.106-91.57-2.693-1.09-2.128 2.16-4.1.01 4.667 5.03.89 4.7 2.923.87 3.758 7.49 1.88-.8 1.045-5.47 1.4-2.9-4.74-3.97zm39.257 79.59 2.314 3.28 4.639 1.64-4.762-7.28zm19.815 19.01-4.28-3.49-2.849 3.69 7.486 7.38-.777-4.13zm-35.32-44.53-4.5 3.35-.11 3.33 4.476 1.8 5.182 8.37 5.228 1.84.258-7.88-5.9-9.14zm-29.23-69.93-3.14.96 4.867 1.77zm32.336 47.85.545-2.71-4.863-1.91-2.381 3.03 4.918.24zm-6.662 11.26-3.209-1.54-2.28 4.5 2.417 2.97 3.046-2.87zm28.535 47.57.456 4.56 3.275-2.76zm112.043 64.16 3.583 6.03 2.383 1.14 2.959-2.78-.13-9.41 2.487-11.43-2.015-7.81 3.751-8.21-1.7-3.24.507-6.67 3.83-1.52 1.774-2.99-.476-3.94-3.132-1.63-3.677-3.16-1.515-4.89-2.513-1.45-1.1-3.36-3.888-1.82-6.36.57-4.071-.75-.4-6.22-2.9-4.18-2.761 1.57 2.087-4.02-1.525-4.6-.259-10.31-5.049 1.79-2.057-2.03-8.161-.42-6.947-5.08.264-3.49 4.3-1.83 4.963-2.56-3.136-1.79-4.561.55-2.47-1.07-4.6 1.52 3.362-2.86 5.108-3.56 6.245-.79-1.059-4.37-6.211-7.36-3.687-.58-4.971 3.12-4.4 2.51-5.311.14 3.061-.51 2.013-1.76 2-.47 2.15-2.82-.909-2.68-4.7-2.45h-7.346l-5.094-4.51.092-2.82-.5-5.49-8.5-8.95-2.873-.71-2.744.76-3.316-2.78-.732-7.8-5.838-6.25-7.734-4.64-4.976-.47-1.144 1.93-2.355-1.74-1.044-5.64-2.949 2.78-2.032-3.1-.093-6.23-3.627-4.98-4.491-1.04-1.58-2.93-11.838-8.43-4.067-.61-4.794-5.74-4.97-.93-1.262-3.23-.843-6.69-4.157-2.41-2.25-5.23-1.794-.67-2.844-5.54-4.787-1.98-4.381-.14-2.908.97-2.22-1.58-5.278-.33-6.249 1.46-2.968-2.06-9.473-6.98-8.573-1.5-3.072 1.4-.949 2.23.859 6.2 4.882 11.59 3.27 1.64 8.751 10.28 2.725.09 5.371 7.16 3.132 1.3 2.75-.95 6.621 5.95 7.017 12.05 7.18 7.38 2.129.07-.178 5.45 1.9 1.71.594 5.43 2.563 2.51 4.4.06 5.367 7.28 2.829 1.75 2.514-.3.681 2.24-1.771 2.9 2.564 3.03 1.872 5.41-.249 1.34 3.874 11.35 1.764 6.12 5.4 1.84 6.056 4.45-.119 3.63 4.855 9.25 4.7 3.79.584 10.32 7.374 14.8-.641 5.91 1.8 5.34 7.364 6.02 7.4 9.79 1.952 5.21 5.858 1.41 2.05 2.5 5.025 3.5.555 6.08 4.435 3.02 5.252 6.24 9.183 6.21 1.962 4.62 5.991 1.86 12.051 11.32.917 4.41 2.685 1.3 2.725 4.94 1.557-1.76.134-4.09-1.149-2.16.074-2.27 3.76.88 7.918 7.85 1.71-1.32.328-5.45 1.759-2.83zm-3.669-108.13 1.72-1.33-6.168-6.15-3.386-.95-2.413 4.05 2.036 2.64 3.442-1.02zm-6.671 4.71-1.237-4.01-3.552-.11-2.212 2.75 3.3 3.37zm-64.38-60.76-3.575.57 2.063 6.37 3.824-.48 3.918-4.21-3.581-4.38zm98.738-15.8 2.3-1.13-2.105-2.27zm-85.967 27.01-2.209.09 4.973 7.91 1.987 1.9 2.8-4.48-2.156-3.26zm-135.393-36.31-1.732 1.69-1.293 2.55 3.936 2.64 4.942-.51-2.757-3.97zm149.385 53.44 4.851 2.58 1.626-1.32-1.16-6.1-4.493-4.1-5.35-1.26-3.27 5.15.634 3.98zm113.775-76.98-3.631 2-2.217 2.91 4.025 4.16 2.354.07-1.01 3.24 3.106.11 1.934-5.88zm-14.329 167.78 3.752-5.41 2.078 3.38 3.2.75 1.352-2.91 3.268-1.43-1.789-4.24-6.864-4.76-7.006-1.56-2.143.58 1.4 3.69-.3 2.06-4.3.89-1.483 2.07 3.334.27-.066-1.39 2.808-1.3-.316 5.94zm-16.122-6.68-1.852-1.45-.713 3.57zm-17.863-134.15-3.37-1.45-2.532.57-.566 3.63 2.232 1.49zm6.367 123.51-4.292-5.09-1.355-9.55-1.624-1.58-.432-3.59-2.967-1.55-2.641-.08.251 3.74 1.425 2.79-3.982-1.51-2.622-2.96-1.382.71-.187 3.41-4.042 2.9 2.474 3.5 7.628.8 1.969 2.13.022 4.18 2.294 1.58 1.1 5.66 4.607 3.2 4.175-.38 1.23 4.22 1.908 1.73 2.223-3.05-1.293-4.31 2.373-5.1zm2.433-124.98-1.421-2.95-1.365 2.47zm-2.067-8.51.178 3.65 2.34-2.36zm347.976 201.99-3.3-.88-.817-3.21 1.271-1.55 2.567-1.89.757-1.81.987 1.7.214-1.97-1.192-2.84.014-2.72-2.942-.56-1.791 1.53-.606 6.58-2.1 6.47-3.763 6.02-.632 3.1 2.741 1.61 2.7-1.28 2.494-3.96 2.52-.73 1.508-1.71zm-111.529-188.24 1.344.47.177-3.72-1.98-1.23zm202.377 95.34-1.26-1.01-1.61 2.75 4.29 1.42zm7.91 22.69 2.84-.45 3.48.12 2.58.08 1.31-2.41-5.01-5.39-5.07-.4-6 4.21 2.29 2.59zm-329.457-104.68-1.2-4.9-2.831.61-.244.05-1.247.26-.068 2.08 2.943 3.09zm110.13-99.01 4.62-1.19.231-3.09-1.889-.61-3.913 3.48zm-5.328-2.22 2.664-1.47.17-1.48-5.488 2.97zm-112.1 100.6.729-.35.3-3.32.055-.25-1.541 2.69zm-27.89 24.59.621 1.78 4.635 4.63 1.624 3.56 3.1.49 6.109-1.49.768-2.4 5.214.56 2.989-1.43 11.5.98 11.827-4.33 3.2-2.63 10.2.02 5.207 2.75 1.581 2.62 5 .01 8.766-4.41 10.039-1.19-.5-3.2 8.718-12.3 3.64-8.81 6.656-9.33 5.059-16.06.1-3.18 2.24-3.58-.227-2.73 4.572-5.15 3.439 1.61 6.652-.38 9.24.45 2.205 1.75 5.893.05 4.5 1.5.433-1.85 4.877 3.48 3.458 1.04 4.455-2.14 5.476-.9.08-2.42-5.436-4.88.178-5.45 2.626-1.73 8.439 1.04 7.031-1.45 4.48-3.17-.794-3.37-3.329-.11-4.816-1.08-3.509-3.44-3.656.2-4.953-5.17-2.873-.09-3.434 3.07-1.921-1.9 4.676-3.78-2.18-2.81-1.852.56-2.984 3.83-1.739-2.33-1.64-.81.343-6.2 3.69-1.25-.069-2.71-4.877-3.5-1.872 1.14-3.8-3.76.03-5.76-4.142-2.87-1.993 1.15 1.057 3.83-4.664 4.23-1.8-.33 1.492-3.77-.658-3.49-2.711-.25-3.191 9.3-3.047.66-4.722 9.99-.923 5.43-7.824 7.78-3.628-.12-6.119 2.08-2.21 2.65 2.264-.07-1.58 2.22 1.928.83 4.9-1.21-2.071 2.97-3.383 1.55-.612.78.346 1.66 2.337 7.4-1.931 3.5-2.757-1.68-.209-5.27-.751-3.8-.749.14.084-.88-1.849.18-2.381 3.34 1.126 9.4-2.23 1-3.988-3.33-3.444-6.29-2.179-.29-3.106-1.5-2.936 3.5-.321 4.95-5.6 4.52-2.092 4.16-6.08 5.43-1.482 3.73-5.351 6.2-5.767 4.65-17.2 3.53-1.917.84.973 5.5 1.936 2.31-2.581-1.07-3 1.45-4.968.45-2.408 2.74-1.529 4.33-.273 6.05-3.8 4.88.105 1.68-8.281-1.34-8.518-3.48-6.059-.03-2.161-3.39-3.484-4.23-1.588.44 4.009 7.81zm28.351-23.3.76 1.84 2.348-.93-2.293-1.92zm-3.506 3.29 3.469-1.32-.955-2.09zm64.232-48.82 3.444 6.29 3.988 3.33 2.23-1-1.126-9.4 2.381-3.34 1.849-.18.143-1.52-.159-4.25-4.122 1.36-5.119 3.62-7.777 2.06-1.017 1.24 3.106 1.5zm14.391 5.51 2.757 1.68 1.931-3.5-2.337-7.4-.346-1.66-1.128 1.43-1.837.38.751 3.8z" fill="#f3f2ea"/>
  <path id="japan" d="m1245.12 71.853-8.66-30.717-1.29-6.1-25.09 16.474-69.93-50.8.53 2.081-5.86 4.531 17.48 51.721-6.14 6.458 6.75 20.948-21.7-2.531-1.74 3.649 8.57 7.773-11.07 20.26 15.05 32.992-1.47 1.038 5.89 6.473 6.84-13.962 12.07 1.213 4.85-8.344-28.84-12.353-1.55-8.532 6.4-3.136 8.45 5.409 11.05-11.822 46.28 23.474 8.96-39.834h14.66l-.32-2.435zm-170.05 268.729h0l7.78 6.9 9.96-16.316-19.15-11.148-14.48 13.807-4.51-6.433-12.62 17.735 6.06 1.568-.14 7.688 8.72 5.8-.32 2.669 1.72.8 1.39-1.587 4.69.318-4.21-6.886m117.17-203.073-12.63-1.568.18 13.535 7.6-5.847.61 10.389-2.86 1.829-4.22-2.354 1.45 5.676-2.14 2.263-3.38-1.316-3.03-11.523-5.54-.525 1.22 40.257-6.92 1.3-.79 2.626 3.46 4.441 6.76-4.407-34.78 116.911-11.24-13.262 7.27-12.485-14.62 7.431-5.28 38.625-2.32.262 1.54 2.182-3.62 1.483-2.51-1.926-3.47 2.621-2.06-.787-.89-5.151-91.32 72.74 3.281 14.231-3.982.252-23.86 20.339 4.418.273 3.717 9.945-1.657 1.584-.691 8.725 9.96-4.9-1.825 1.76 1.73 1.306 2.628-.8 3.786 16.057-4.152.444 18.144 33.97.18-20.082 5.45 23.919 9.1-9.342-4.49-6.965 7.76 1.573 5.53-49.924-2.41-.7-.17-4.526-2.59-.513.85-3.135-7.88.117-1.12-1.738 5.11-5.408-4.33-8.213-3.8.7v1.569l-6.58 1.844-5.28-5.777 25.42-4.178 1.55-16.144 3.32-.263 1.89 2.868 44.393-16.712 27 39 19.67-27 7.87-.62-.84-9.154-9.69-6.2 6.47-9.512-.42 7.25 1.63 1.395 3.21-2.889 9.86 2.1-5.79 4.355 29.38-3.06-2.92-6.452 6.39-8.164 3.97.7 1.38 12.866 7.26-5.4-1.38-13.562 10.18-6.954-1.04-8.522 7.42-1.044 1.38-92.015 11.06-3.476 1.9 3.3zm-106.13 259.576-31 9-6 18 14 23 6-23h16l20-15zm-57 125-1 10-9-8zm-16 68-7 8-9-4 15-10zm23-86 4 11h-7zm-63-64-6 4v8zm-5 22-6-9-3 5 6 10zm-6-45 6-5 1 3-7 7zm4-19 4 8-7 3zm-53 33-1 1 2 9h-16v-5zm77 178 8 5v-8zm-10 25-10 16 6 3 10-14zm22-182-5 13-5-11zm253-415 8-21h15l-7 10zm44-50-9 13-8 2-3 16-4-10 4-12 11-13zm-35 69 6 6-15 8-3 7-12 2-5-2 1-4 12 1z" fill="#47697b"/>
  <path id="south-east-asia" d="m948 908.449 5.583-.965-3.151-11.85-4.263 10.522zm-45.215-37.958-5.056 2.71 1.968 10.271 5.756-10.96zm-36.442 32.252-6.565-4.254.388 2.944 5.105 2.351zm111.94 91.183 1.058 15.974-3.069-3.56-1.534.26-1.275 7.33-6.993-3.97-2.348 8.05 1.629 1.26-.552 3.27-2.611 1.15-1.974-4.72-19.64 15.49 4.449-13.39-8.787-4.63-9.5 9.21 1.712 3.5-17.058 3.58-7.057 19.18 4.242 4.78 12.4-19.41 2.73 2.71-1.037 4.27 1.249 1.23 1.936-.99 2 1.33 2.063-4.97 2.107.8-1.154 2.53 7.135 2.62-2.09-3.31 1.41-1.75-.865-1.92 3.686-1.62 15.229 14.69-5.312-.69 19.225 30.4 6.24-5.61 2.216 9.79 9.011-9.32-7.143-15.33 9.2-13.69 8.386 24.65.324-16.11 2.361-.31 1.36 2.75v-2.56l1.72.19-3.08-29.26-1.584 2.37.369-7.52-3.988-3.28.671-2.24 2.859.55-2.494-13.02-2.784 2.32zm-120.514-44.7 3.052-2.863-5.48-4.443.532 7.25zm52.058-1.869-3.9-4.12-4.357 1.019-.911 2.518 6.307 2.293-1.466 27.017 18.521-20.79-12.006-4.95.819-1.632zm71.273 36.364 2.377 9.709 1.58.361-1.55-12.174 1.554-.944-.993-2.351-2.061.819zm-50.473-54.079-1.26 11.878.84 2.429 3.573-5.4 15.855 7.615-16.513-14.174.431-1.356zm-26.278 10.543 2.609-.765 1.525-13.6-1.623 1.405zm-20.437-3.329 7.326-2.347.1-3.309 2-1.283-.212-13.392-26.373-8.738.854 1.968 2.886-.073zm107.73 60.208-1.985-1.8-.617 2.331 1.774 2zm-65 4.066.017 4.81 3.132 1.73 3.84-2.13 4.394-36.264-3.1-2.506-2.007 1.154-2.684-1.439-15.434 30.515zm38.25 7.66.691-3.6-3.611-3.12-.062 4.68zm-25.805-.54 3.378-1.26.47-2.39-5.152-.75-1.278 2.37zm57.036-14.218-3.247-7.949.269 8.907zm-141.338-142.266 5.154 25.128 1.559-1.167 5.6 10.248 2.71.246 2.51-3.1-1.965-5.016 8.06 3.391-7.262 15.716 2.588 4.738 1.322-4.16 2.443-.817 1.567 3.645-2.053 3.408 6.28-3.137 4.7 4.958 5.058-7.835 25.066 16.84-4.642-16.824 24.929 26.9 3.656-.956-.1-1.512 3.464.851-3.745 3.97 6.935 5.6 3.176-10.277-12.286-3.969-3.142-13.835 7.194-.4-12.1-8.7-1.875 1.435.2 4.085-2.861 1.729-9.712-15.594-10.857 7.527-18.067-24.813 13.711-23.977-1.439-54.039-12.311 6.847-20.4-5.853-6.2 51.567-6.678.84-2.771-3.532.173 9.645zm91.929 145.045 11.63-2.841 1.411-7.183-4.635-2.163-9.932 7.387zm18.87-38.114-10.835-.457 3.933 10.874 2.107-2.048 7.611 20.134.542-5.794 2.2 3.155 3.664-.874-5.809-11.631zm10.623 34.066-1.926-6.985-.869 3.592zm-123.735-15.763-2.972-22.355-1.825.705-.682 12.459-3.112-2.061 2.21 7.132-3.587 3.965-2.715-.376-28.289 30.741-7.4 9.72.421 1.5zm107.128-20.977.953-3.95-7.208 2.129zm-33.84-39.484-1.6.333 5.13 8.447zm39.217 40.021 16.087 7.946 1.017-1.034 2.156 1.044-11.966-34.245-17.025.852-1.724-.884 14.793 21.016zm-65.934-45.318 4.839 3.462 2.78-4.378-5.841-5.129zm-44.262 23.493 10.344 7.084 1.883-2.054-10.808-6.709zm119.7 246.175-2.294-4.58-91.464 3.17-18.666 37.44 12.564-20.02 25.09.44 1.761 2.45 57.706-2.82zm-112.959 37.09.531-1.06-.6.96zm-80.2 34.56 3.189-5.33-5.888-.7 1.735-2.35-.708-1.9 6.63-.79 3.851-14.88 3.731 5.08 21.426-44.33 1.887 2.62.075-7.68 19.973 5.55 1.151-3.72-25.187-23.16 8.526-7.43-14.429-17.85 3.417-3.54-5.368-7.35 11.381-1.32-6.517-5.29 20.492-7.39-5.221-12.63 22.543-5.34-.8-3.35-23.158-9.54-3.42 3.05-1.927-1.87 4.66-3.76-2.189-2.79-4.818 4.38-3.068-9.26 3.684-1.25-.079-2.7-4.887-3.45-1.866 1.14-7.949-12.27-1.988 1.15 1.071 3.79-4.646 4.22-1.795-.33.807-7.2-2.711-.24-31.508 37.57 2.263-.07-1.572 2.2 6.822-.39-5.247 17.73-2.761-1.66-.992-8.99-.748.13.08-.86-4.214 3.5 1.159 9.32-2.225 1-12.751-11.28-48.573 41.34 2.937 7.74-12.937 3.59-5.433 16.81-30.116-11.83-16.959 25.92 8.168 19.06-2.392-1.26-1.328 1.23 25.5 2.95-23.623 7.88 20.415 51.7 5.716-2.63 1.2 2.75 19.023.78 4.417-7.85 1.709 21.99 33.566-9.96 7.587 8.73.207-6.09 5.017 4.36 1.993-.99 2.171 3.07 2.007-.86 2.922 13.62 32.211-25.65.863 1.67 2.213.05 3.366-6.61-3.082-3.09.263-1.65.589.85 3.3 1.07.932-6.08zm-223.322 69.61 11.26-53.68-30.133-30.49-2.753 1.56.234-18.78-22.222-5.62.251-3.46 9.238-4.39-14.764-.74 14.68-7.19-7.307-11.62-18.344 5.2 9.2-5.54-8.381-7.64 4.632.67 4.857 2.54 1.62-1.31-11.039-11.34-2.159 7.53-19.444-17.74-2.739.76-22.662-21.7-1.117 1.92-3.423-7.32-2.938 2.77-13.547-21.56-43-36-41.13-11.48-4 3.62 189.63 254.18.579-10.2 11.7 8.62 3.76-9.53 3.464.86zm-133.9-263.9.162.07-.11-.08zm160.27-217.57 1.809-1 5.828-10.236-31.392-62.9-68.641-55.911 3.6-.948.51-2.175-4.607-3.722 4.607-10.256-3.289-2.338 5.318-11.795 1.058 1.384 9.339-22.978 2.866 2.385 35.306-18.437-.813-1.6-6.179-1.155-34.941-12.068 2.193-7.535 3.126-.446.789-4-45.511-6.944.308 6.353-22.458 6.725-1.019-2.975-2.51-.146-2.27 2.893-4.385-4.067-4.011 6.2-4.925-1.42.28-3.14-12.417 6.042-7.049-4.686-7.387 3.5 1.385 6.916 3.443 21.293-9.386.757-4.646-5.316-13.013 11.812 2.02 2.668-6.722 3.4v10.074l-2.472-4.822-.174.381-11.246 1.933 2.29 5.343-9.878 3.867-1.558 7.261-17.927.656-3.905 23.815-9.7 5.041 32.445 44.989-3.07 1.559.606 4.66-1.522 1.319 1.876 13.623 1.916 2.52 15.7 120.735 3.359.389-3.807 4.859 1.352 2.145-4.265 5.233 3.361.593-2.233 3.9-3.137-.571.225 9.922-3.808 1.563 3.808 21.975 3.779.4-.2-4.858 5.588-2.338-.212 2.52 3.348 2.133v3.9l5.381.8 3.36 9.318h4.264l6.707 11.29 5.814.786 2.021 4.277 3.137.387-2.691 5.258 15.619 13.526-3.735 11.805s10.82 20.88 34 46c32.816 35.56 81.41 79.05 81.41 79.05l1.9-1.76 2.126 2.7 5.906-3.19v-1.17l-2.769-.39 1.876-.56-1.324-4.77 4.12 6.89 4.462.69-65.6-130.21-6.526 2.79-.014-.06-45.318-35.578-1.024 3.82-8.583-2.828 5.46-6.41-6.812-21.063-3.24.091-17.419-24.442-6.93 5.736-3.794-28.43-3.907-1.741 20.5-57.235v.035l17.177 2.02.423-.772-.5-.921 2.471-1.965 11.523 7.689-.078 1.866 6.877 4.631.762-.3 13.155 14.315 3.357 11.693h6.04l4.5-6.807.414 14.7 6.232-4.1 6.713 3.013 1.3-.765 3.972 2.765 6.466-4.02-5.938 9.145 19.227-.136-11.532 20.738 1.3.319-1.048 6.871 5.232.718 24.39-14.488-1.878-5.174 6.04 2.631 2.212-4.278-3.962-4.05 4.7 3.295 3.184-1.548-1.626-3.258 1.308-1.855-5.913-2.585 4.683-.209.086-1.466-2.462-1.874 3.685.938 1.643-3.422.405 5.824 49.184-30.277-1.394-1.7 1.644-3.64-3.02-4.341 6.213-8.272zm-185.922-.649 1.966-11.173-.685 12.064zm101.268-47.321.012-.608.171.225z" fill="#236592"/>
  <path id="korea" d="m904.017 301.191 2.989-2.35-1.163-17-3 1.7-39.743-78.221-30.451-25.363 31.851-96.857 2.657.5 7.17-8.08.851.069-4.923-7.035-12.72-11.544-28.635 38.181 9.554 8.337-2.56 9.306-34.036-11.543-33.852 64.609 3.95 6.312 2.022 7.9 3.488-5.548 6.828 5.548 12.349-4.37-6.351 29.432 14.008-.174-14.82 24.378h10.492l-4 6.409 1.836 3.021 4.493-3.695 2.678 1.842 4-5.212-1.171-2.365 2.5-1.67 4.913 5.39.6.67 10.326-2.528-3.156 1.676 17.332 16.307-1.5 2.355 5 8.415-8.842-4.71-1.5 3.868-3.175-.843-4.493 6.4 12.172 3.7 4.816 15.805 1.68-1.517 3.84 7.573-7.181 4.867 3 8.755-2.648 1.5 2.326 8.41-2.854.162 5.354 10.435 3.145.32 2.537 10.271 3.5-8.065 1.992 2.685 17.008-13.953.675 2.35 3.009-3.69 2.325.33 2.169 4.365 4.161-1.68 1.681 2.04 2.148-1.528-1.65-3.2 16.334-11.09z" fill="#236592"/>
  <path id="taiwan" d="m808.846 612.416-5.106 57.548-1.34.429 20.473 34.881h8.912l12.44-50.135-2.874-1.114 7.993-58.387 2.23-.449-18.709-18.3-24.019 35.524h0z" fill="#7d7f7d"/>
  <path id="china" d="m784.527 152.417 23.894-48.372 31.569 10.675 2.375-8.606-8.865-7.714 26.561-35.31 12.822 12.13-1.83-8 8.853-2.821-.181-74.022 24.764 2.866-1.332-24.386 3.4-2.6-1.557-9.142 2-1.49-2.954-12.863 2.22-1.408-6.406-46 2.048-1.918-18.078-6.8-38.974 31.516-2.89-5.427-8.781 2.829-10.41-27.289-3.39.224 1.694-10.417-37.195-17.092-.816 2.447-4.169.223-.6 1.628-11.789-5.924 1.631-2.821-51.868-48.787-2 .971-15.866-30.857-5.236-.3-6.923-15.391-5.4-.679-.516-5.718-22.532-9.772-1.93 1.185.308 2.524-74.4 5.176-13.256 25.048 11.933-3.112-1.531 79.023 3.543 1.573 1.631-1.19 2.356 5.2-40.974 18.586-.652-1.408-5.183.3-7.123 58.055 40.713 11.865 12.4-19.58 36.789 38.571-138.624 67.407-3.1 20.586 17.534 11.264-129.495 75.42-.739-5.336-336.885-155.734-10.194 6.177-23.877-27.077-2.256 1.891-2.964-10.4-8.418-1.549.5.6-12.523 14.821 1.2 2.215-12.97 14.079 7.5 24.888-50.97 7.715-6.769 44 7.059 3.85-2.356 7.4-45.932 9.674-.072 2.825 13.872 2.971 6.063 63.668-133.491-12.311 1.784 14.517-48.26 1.039 1.486 2.374-6.415 4.6 3.388.438-9.3 19.566 20.343 9.929 4.122-9.638 13.7 12.6-22.835 7.71-6.035-7.559-21.23 12.3-.281 4.88 6.334 3.117-.154 4.146-15.749 5.044 3.082 4.885-7.957 2.816-.588 4.743-16.945 2.971 5.445 14.066 9.289-2.078s-18.576 14.683-17.741 27.674c.187 2.9 16.115 7.675 16 11-.164 4.77.116 8.663.116 8.663l1.884.337s-.907-.028 1.268 2.027l2.611 2.467 18.1-9.93 11.363 5.04-1.785-8.011 8.119-3.408.589 2.224 13.256-25.188 12.079 4.442.29 11.857 3.389-.155 5.156 28.154 42.28-22.965 1.042 4.3 19-4.151.951 3.458-6.189 5.336 113.835 113.742-.752-2.816-3.39-1.189-5.9 6.251 19.609 38.654 2.356-3.865 25.634 17.343 1.178-1.627 61.146 29.636 4.857-9.2 27.268 13.496 1.177 13.187 72.772 4.891 6.632 12.444 51.569-13.629 3.388 4.452 55.692-37.5 16.8 6.379 2.2-2.078-.6-3.708 12.088-4.143 2.211 2.962 2.79-.747.88 1.928-2.946 5.636 1.632 3.258 5.147-1.481 1.63 16.9 29.912 3.394 16.781 53.64-3.815 1.786-.444 3.855-1.92.584-.889 9.2-2.655-1.048 4.577 32.16 14.144-5.5-.453 5.786 2.519 2.078 5.3-1.34-.3 7.109 7.657 4.447-1.033 1.941 1.631 2.643.725-1.622 9.885 1.923-9.423 22.983 9.56-.747 1.042 1.184 3.08-2.807 7.666 15.393 20.633-5.341-6.189 8.913 4.014-3.545 4.377 5.322 8.843-.757-3.244-21.324 2.81-1.932v-2.971l7.647-.3 1.486 2.97-1.322-2.633 13.376-6.917-.263 3.144 4.639 1.422 3.779-6.207 4.132 4.074 2.139-2.9 2.364.146.961 2.979 21.158-6.734-.29-6.361 42.879 6.953-.744 4.01-2.945.447-2.066 7.546 41.557 15.346.77-6.188 17.735 10.623 2.084-3.572 8.019 2.715.227 1.385-3 .4 4.7 24.569 2.465-3.654 4.476.866.072 1.148 5.864-4.493-4.776-7.436h-2.4l4.713-14.281 1.314 2.635h1.069l-.68.646.218.912 1.857.318-.842 1.076 20.115-8.211-1.549-2.734 25.219-11.689 2.781 2.406 7.014-6.288-2.229-13.788 11.864 11.082 2.7-.71-4.64 4.192.462 1.722 7.268-3.581.462-4.037 16.545-7.465 4.64 5.907 2.637-5.286h2.156l.318 1.257 12.84-6.862.462 2.342 6.959-2.806-.308-13.68 8.5-2.341.462 1.876h3.86l.934-4.838h2.011l.626-3.272 1.857-.145.3 1.721 3.715-4.519 2.32 2.8.625-4.192 2.32-.329 1.54-3.262-11.607-3.563 9.9-4.666 1.558 1.549 2.157-2.015 5.564 3.409 1.549-4.346-4.8-3.122.635-2.647 4.168 2.979 2.32-2.806-.472-1.1h-2.781l-2.773-5.441 2.927-.788 1.54 2.032h2.012l1.4 2.023.154-3.426-3.57-2.634.317-3.271h2.175l1.377-2.493 3.1 5.6h2.166l2.156 3.427-1.232-7.928h-2.011l-.77-2.333 2.782-.789.517-2.72-3.407-1.084 4.712-3.96-5.465-2.092-1.559 1.558 11.7-9.117-2.156-2.333-2.483 2.333-4.948-4.343h4.322l-6.025-4.05 2.165-1.873-1.7-2.165 2.637.621.77-3.441h3.407l-.308 4.051 12.685-7.614-5.88-3.727.915-3.586 2.8 2.966 5.564-13.546-5.483-6.908 5.618 1.772 8.726-9.619 1.768 4.821 3.624-5.969-7.856-5.827 6.778-3.022-4.4-3.335 2.765-2.556 1.395.31.553-1.695-8.953-1.8 10.412-7.6 2.455 1.3.245 1.48 2.546-2.014-3.959-10.046-2.474 2.474.77 2.971-12.378 3.1v-3.732l14.689-9.632-6.334-3.441-1.1 1.873-11.426-9.332-6.352 5.445-7.412-7.154-9.6 7.943 10.53-10.59 4.938 2.493 18.711-13.064-34.324-29.7-9.895 3.873-5.418-7-22.273 8.872 23.2-12.613 5.11 8.4h4.029l2.618-3.573 34.642 6.694-38.36-44.462 2.012-4.826-18.866-18.982-2.936 1.718v-2.953l-12.06-4.821.924-27.836h4.34l3.7-6.074 2.012 1.244 3.724-4.351-5.736-4.83 9.433-3.258.154-4.365 5.111-.93-5.111-6.219 23.36-9.177 1.54 2.487 1.858-2.337 5.419 5.6 5.092-6.22-3.244-.624-.462-4.361 4.8-1.39-3.1-7.158 4.485-1.4-13.149-.149.308-1.709-44.37-2.649 1.694 5.14-8.354 4.5 2.782 3.121-17.326 6.211-6.487-20.363-7.576 1.389-.308-2.018h-2.319l-1.7 2.492-1.386-2.187-.154 1.878-11.907-38.581 19.627 2.488 2.021-4.351-1.233-2.019h2.927l28.461-51.959 10.058 1.089 1.386-4.037 15.93 16.481-8.2 14.936-3.86.146 3.706 14.162-1.72.782 1.867 4.661 9.288-5.281-5.718 6.379.462 2.019 2.32.465-13.9 9.1 3.742 5.459 16.492-11.05-1.087-5.682 42.37-24.573 1.368 3.5 5.32-15.975h0zm-223.044 572.258h4.258l2.779 2.349 2.933-.135 3.672 2.65 2.49-1.393 1.037-3.936 3.221-.628 3.384.938 2.472-3.453.306-2.514 3.808-.792 2.932-3.318-.722-3.752 2.049-6.759 2.056-1.741.867-3.133 3.094-5.339-1.759-5.676-4.258-2.978-4.413-1.731-2.914 2.214a14.4 14.4 0 0 1 -2.183-1.857l-4.123.939-2.13-.649-2.877 2.07h-3.753l-4.006 2.157-3.682.619-.875 4.09-6.146 3.927-5.288 5.985 1.9 3.463.145 8.151 2.336 4.265-.28 2.515z" fill="#178f98"/>
 </g>
</svg>
