<?xml version="1.0" encoding="utf-8"?>
<!-- Generator: Adobe Illustrator 21.1.0, SVG Export Plug-In . SVG Version: 6.00 Build 0)  -->
<svg version="1.1" id="Layer_1" xmlns="http://www.w3.org/2000/svg" xmlns:xlink="http://www.w3.org/1999/xlink" x="0px" y="0px"
	 viewBox="0 0 575 593" style="enable-background:new 0 0 575 593;" xml:space="preserve">
<style type="text/css">
	.st0{fill:#BED8F1;}
	.st1{fill:#F3F2EA;}
	.st2{fill:#47697B;}
	.st3{fill:#236592;}
	.st4{fill:#7D7F7D;}
	.st5{fill:#178F98;}
	.st6{fill:#178F98;stroke:#FFFFFF;stroke-miterlimit:10;}
	.st7{fill:#236592;stroke:#FFFFFF;stroke-miterlimit:10;}
	.st8{fill:#47697B;stroke:#FFFFFF;stroke-miterlimit:10;}
	.st9{fill:#7D7F7D;stroke:#FFFFFF;stroke-miterlimit:10;}
	.st10{fill:#FFFFFF;}
	.st11{font-family:'Lato-Black';}
	.st12{font-size:10px;}
	.st13{fill:#FAFAFA;}
	.st14{fill:#89A5BE;}
	.st15{fill:#313030;}
	.st16{font-family:'Lato-Bold';}
	.st17{font-size:7px;}
	.st18{font-family:'Lato-BoldItalic';}
	.st19{font-size:9px;}
</style>
<g id="areas">
	<path id="bg_1_" class="st0" d="M759.9,787H-183v-909.4h942.9V787z"/>
	<path id="asia" class="st1" d="M43.9,383.5l-0.5,0.1l0.2,0.7l-2.2-1.4v-1l2.7-0.2l0.4,0.3L43.9,383.5z M44.6,383.9l1.7,0.8l0.8,0.7
		h1.4l0.8,0.6l-0.4-0.8L47,384l-0.3-1.3l-1.2-0.3l-0.3,0.5l0.5,0.3l-1,0.1L44.6,383.9z M416.2,302.2l0.8,0.7l1.3,0.1l0.3-1.7
		l-2.2-1.1L416.2,302.2z M58.4,401.4l-1.3-1.1l-1.4-3.7l-1.1-2.6l-1.5,0.2v-0.3l-1.3-0.1l1.6-0.9l-0.2-0.7l-0.7-0.3l-1.1-2l-0.8,0.1
		l-0.5-1.6l-0.5-0.6v-0.9l-2.4-0.9l-0.4,0.6l-1.1-0.4l0.1-0.7L44,385l-0.1,0.4l0.3,0.5l-0.2,0.3l-0.5,0.1l0.2,0.6l-0.1,1.1l-0.9,1.5
		l-0.5-0.2l-0.9-0.8l-1-0.1v0.4l0.9,0.4l0.5,0.8l-0.4,0.4L42,392v2.3l-0.6,0.8l-0.2,1.5l-0.3-1.3l0.5-0.2l0.1-0.4l-1,0.4l0.1,1.5
		l-0.3,1.9l0.9-1.9l-0.3,2.2l0.2,1.1l-0.4,0.4l0.8,3.2l-0.3,1.2l1.1,4l1.3,4.5l1.2,2l2,1.1l1.7-0.4l2.9-0.4l2.6-0.8l2.7-2.8l1.2-2.4
		l0.6-1.5l-0.2-1.4l0.4-0.4v-2.5l-0.7-1L58.4,401.4z M101.3,276.1l0.1,0.9l0.6-0.3l0.8-2l-0.5-0.9L101.3,276.1z M103.6,275.5
		l0.2,1.6l0.9,0.7l-0.2-1.5L103.6,275.5z M123.6,265.9l-1.5,0.7l0.1,0.7l1.1,2.5l1.5,0.1l-0.2-2.5L123.6,265.9z M125.2,266.3v0.8
		l0.9,1.8l-0.2,1.4l0.7,1.1l1.1-2.2l-0.4-1.3L125.2,266.3z M105,275.7l0.3,1l0.6,0.4l0.2-1l-0.1-0.9L105,275.7z M106.8,277.3
		l0.5-0.6l-0.5-0.9V277.3z M128.3,267.3l0.2,1.8l0.8-0.4l0.2-1.2l-0.5-0.6L128.3,267.3z M407.1,195.6l0.7,1.5l1.9,0.4l3.3-0.8
		l1.3-2.2l-0.1-1.3l-1.9-0.3l-4.1,1.3L407.1,195.6z M375.5,425.2l-0.5,0.6l0.9,0.5L375.5,425.2z M411.8,143.1l0.6-1l-0.1-1.6
		l-0.7-0.4l-1.3,1.1l0.1,1.1l0.5,1.2L411.8,143.1z M142.9,367l1.9,0.5l-0.7-1.1L142.9,367z M411.3,328.9l0.7-1.2l-0.6-0.9l-1.1,1.3
		L411.3,328.9z M373.8,425.7l0.8-0.1l0.1-0.7L373.8,425.7z M375.5,435.9l0.1-1.3l-0.8-0.2l-1.6,1.4l0.4,0.6L375.5,435.9z
		 M406.1,181.3l-0.7,1.1h-0.6l-0.4,0.7l0.8,1.3l0.8-0.5h0.7l-0.1-1.6L406.1,181.3z M414.7,363.5l-2.1,1.1l0.8,2.3l-0.3,0.7l0.3,1.2
		l1.2-1.1l0.3-2.6l0.9-0.9L414.7,363.5z M414.1,372.5l1.2,0.7l-0.2-1.3l-1.2-0.9L414.1,372.5z M391.9,149.4l-0.1-1.5l-0.5-1
		l-0.6,1.1h-0.6l-0.4,0.7l0.8,1.3l0.7-0.6H391.9z M420.7,177.6l-0.9-0.9l-0.9,0.6l0.4,0.9L420.7,177.6z M403.7,143.1l0.4,0.9
		l1.4-0.6l-0.9-0.9L403.7,143.1z M405.9,329.1l1.4-0.7l-2.2-0.1L405.9,329.1z M407.6,324.2l0.3-1.8l-1.3,0.9L407.6,324.2z
		 M405.3,325.8l-1.1-1.1l-0.5,1.3L405.3,325.8z M200.2,467.1h2l0.7,0.6l0.2-1.1l-2-0.7L200.2,467.1z M216.6,495.4l0.2-1.1l-2-0.8
		l-1,1.2l2,0.1L216.6,495.4z M215.3,504.3l-1.8,1.3v1.3l1.8,0.7l2.1,3.4l2.1,0.7l0.1-3.2l-2.4-3.7L215.3,504.3z M213.9,499.9
		l-1.3-0.6l-0.9,1.8l1,1.2l1.2-1.2V499.9z M204.1,477l-0.7-1.1l-1.3,0.4L204.1,477z M206.3,483.6v-2.7l-2.5-3.5l-1.8-0.8l-1.8,1.4
		v1.3l1.8,0.7l1.8,2.7l-0.1,0.1H202l1.9,2l0.4,1.9l1.2,0.4l1.5,3.1l0.8-0.3l0.4-2.2l0.6-1.2l-1.9-1.6L206.3,483.6z M221.6,514.8
		l0.9,1.3l1.9,0.7l-2-3L221.6,514.8z M214.3,420.9l-0.3-1.1l-0.9-1.2l-0.7-0.2l0.3,1.7l0.9,1.2L214.3,420.9z M203,400.7l-0.4-0.1
		l0.3,1.7l0.2-0.9L203,400.7z M225.5,519.3l0.2,1.9l1.3-1.1L225.5,519.3z M209.2,409.9l-0.2-1l-0.6-0.3l-0.5,0.2l0.7,1.3
		L209.2,409.9z M229.7,522.5l-1.8-1.4l-1.1,1.5l3.1,3l-0.3-1.7L229.7,522.5z M276.7,524.1l-1.5-1.3l-0.6-2l-1-0.6l-0.4-1.4l-1.6-0.7
		l-2.6,0.2l-1.7-0.3l-0.2-2.5l-1.2-1.7l-1.1,0.7l0.9-1.6l-0.6-1.9l-0.1-4.2l-2,0.7l-0.9-0.8l-3.3-0.2l-2.8-2.1l0.1-1.4l1.8-0.7
		l2-1.1l-1.3-0.7l-1.9,0.2l-1-0.4l-1.9,0.6l1.4-1.2l2.1-1.5l2.5-0.3l-0.4-1.8l-2.5-3l-1.5-0.2l-2,1.3l-1.8,1h-2.2l1.3-0.2l0.8-0.7
		l0.8-0.2l0.9-1.1l-0.4-1.1l-1.9-1h-3l-2.1-1.8V488l-0.2-2.2l-3.5-3.6l-1.2-0.3l-1.1,0.3l-1.3-1.1l-0.3-3.2l-2.4-2.5l-3.1-1.9
		l-2-0.2l-0.4,0.8l-1-0.7l-0.4-2.3l-1.2,1.1l-0.8-1.3v-2.5l-1.5-2l-1.8-0.4l-0.7-1.2l-4.8-3.4l-1.7-0.2l-2-2.3l-2-0.4l-0.5-1.3
		l-0.3-2.7l-1.7-1l-0.9-2.1l-0.7-0.3l-1.1-2.2l-2-0.8h-1.8l-1.2,0.4l-0.9-0.7l-2.2-0.1l-2.5,0.6l-1.2-0.9l-3.9-2.9l-3.5-0.6
		l-1.3,0.6l-0.4,0.9l0.4,2.5l2,4.7l1.3,0.7l1.7,2l-1-0.4l-0.8,0.9h-1.6l1.9,2l0.4,1.9l1.2,0.3l1.6,2.9l0.7-0.3l0.3-2.2l0.5-1.2
		l-2-1.5l-1-2.2l1.7,2h1.1l2.2,2.9l1.3,0.5l1.1-0.4l2.7,2.4l2.9,4.9l2.9,3h0.9l-0.1,2.2l0.8,0.7l0.2,2.2l1.1,1h1.8l2.2,3l1.1,0.7
		l1-0.1l0.3,0.9l-0.7,1.2l1.1,1.2l0.8,2.2l-0.1,0.5l1.6,4.6l0.7,2.5l2.2,0.7l2.5,1.8v1.5l2,3.7l1.9,1.5l0.2,4.2l3,6l-0.2,2.4
		l0.7,2.2l3,2.4l3,4l0.8,2.1l2.4,0.6l0.8,1l2,1.4l0.2,2.5l1.8,1.2l2.2,2.5l3.7,2.5l0.8,1.9l2.4,0.8l4.9,4.6l0.4,1.8l1.1,0.5l1.1,2
		l0.7-0.7V547l-0.4-0.9v-0.9l1.5,0.4l3.2,3.2l0.7-0.5l0.1-2.2l0.7-1.1l1.2,0.4l1.5,2.4l1,0.4l1.2-1.1v-3.8l1-4.6l-0.8-3.2l1.5-3.3
		l-0.7-1.3l0.2-2.7l1.5-0.6l0.7-1.2l-0.2-1.6L276.7,524.1z M152.8,393.3l0.4,1.3l1.3,1.3l-0.7-2.2L152.8,393.3z M200.5,472.3
		l-1.3-0.6l-0.9,1.8l1,1.1l1.2-1.2V472.3z M150.2,387.7l0.5-1l-1.5,0.5L150.2,387.7z M146.1,373.3l-0.2,1.8v1.5h1.6l0.9-2.2
		l-0.5-1.9L146.1,373.3z M147.8,363.5l0.5-1.8l1-0.9V360l-2.3,0.8v2.4l-0.5,1.1l0.9,1.9l-0.5,1.4l0.5,1.1l1.2-2.6l-0.2-1.5
		L147.8,363.5z M148.3,359l1.9-1.4v-2.4l-1.1-0.7l1.3-1.9l0.1-1.8l-0.5-0.6l0.5-1.4l-0.4-1l-1.6,1.9l0.3,2.8l-0.5,1l0.3,1.1l-1,3.6
		L148.3,359z M154.8,397.7l0.4,1.1l1.1,0.7l0.8-0.5l-0.9-1.6L154.8,397.7z M148.4,302.3l0.5,1.2l1.7,1l0.4-1.5l-1.3-1.3L148.4,302.3
		z M190.8,468.4l-0.7,0.7l-0.5,1.1l1.6,1.1l2-0.2l-1.1-1.6L190.8,468.4z M157.8,395l-0.6-0.6l-0.7,1.4l0.7,1.2l0.6-0.7V395z
		 M176.8,442.2l-0.7,0.7l-0.5,1l1.6,1l2-0.3l-1.1-1.5L176.8,442.2z M160.4,404.5l-1-0.9l-1.2,1.2v1.7l0.9,0.5l0.7,1.7l1-1.2
		l-0.5-1.4L160.4,404.5z M158.4,401.6l-0.9,1.1l0.5,0.5l1.3-1.6H158.4z M197.6,398.5v-2l-1-0.1l-0.4,1.1l0.4,0.7l-0.1,1.7
		L197.6,398.5z M441.4,409l0.9,1.3l1.5-0.4l0.2-1.3l-1.4-2.6l-1.1-0.8l-0.2-2.6l-0.9-2.2l-0.3-0.7l-1.8,0.5l-1.5-0.7h-1.1l0.6,1.7
		v1.8l1,1.1l0.9-0.9l1,1l-0.2,2.2l0.7,1.5l0.2,2.5l1.3,1L441.4,409z M432.8,406.6l-0.2-1.5l0.7-1v-3.2l-0.9,0.3l-0.7,3.1l-1.7,2.5
		l-0.2,2l-0.8,2.4l-1.3,1.5l-0.1,1.8l0.3,1.4l1.3-1.4l0.7-3.6l2.4-2.6L432.8,406.6z M428.7,405.6l0.1-1.4l-1.3-1l-0.8,0.5l-1.1-0.6
		l-1.4,0.9v1.6l-1,1.5l0.2,2.3l-1,2l-2.7,0.6l-0.8,1l0.5,2.4l1.2,0.2l1.9,1.3l1.7,0.2v2l1.3,0.7l1.5-0.9l0.1-1.5l-1.1-2.2l-0.1-3.3
		l1.2-4.8L428.7,405.6z M428.2,419.2l1.1,0.8l1.4-0.5l0.2-1l-0.5-0.4l-1.6,0.1L428.2,419.2z M434.5,415.4l2.6-1.1l0.7-1.1l-0.1-1.8
		l-0.9-0.9h-1l-3,1.7l-1,1.2l0.8,1.2l-0.2,0.8H434.5z M438.3,418.4l0.3,1.1l1.2,0.9l0.3-1.6l-1.5-1.3L438.3,418.4z M423.9,382.4
		l-0.7,0.1l-0.1,1l2.2,2.5l0.4-0.8l-0.2-1L423.9,382.4z M415.2,444.3l1,0.3l2.2-1.9l0.2-0.6l-0.9-0.4l-1-0.7l-1,0.8l-1.5,0.1v0.8
		L415.2,444.3z M421.4,388.9l-1.1-0.6l-0.8,0.5l0.2,1l1.5-0.1L421.4,388.9z M430.5,389.8h0.7l-1.4-1.8l-1.1-0.4l0.4,0.9L430.5,389.8
		z M425.4,392.6l0.3,1l1.5-2.2l1.3-0.1l1.8,2.4l2.1,0.9l1.3-0.1v-1.1l-1-1.3l-2.6-1.8l-1.1-0.2l-1.4-1.4H427l0.2-0.6l-1.2-0.4v1.9
		l0.3,1.4l-0.8,0.6L425.4,392.6z M413.8,377.7l-0.9,1.2l0.2,1.3l2,1.4l0.4-0.9l0.7-0.9l-0.8-1.5L413.8,377.7z M416.2,386.7l-0.8,1.6
		l-1.1,1.4l0.8,2.2l1.1-0.3l0.7-2.1l-0.5-1.5l0.4-2L416.2,386.7z M415.7,398.8v2.9l-0.7,2l0.6,2.9l0.8-0.3l0.6-0.7l1.9-1.1l1.1,0.1
		l0.2-0.5h0.9l0.7-1.1l2.1-1.6l0.9-1.8l0.9-0.7l0.3-1.4l-0.7-1.3l-1.1,0.6l-1.1,1.3l-1-1.6l-1.2-0.4l-1.8,0.1l-0.9-0.1l0.3-0.7
		l-1.1-0.4l-1.6-1.7l-1.8,0.4l-0.4,1l1.8,0.7l0.8,0.2l-0.1,1.6L415.7,398.8z M452.5,414.3l-0.6-1.7l-0.7-1.6l-0.4,1.8l-0.3,0.7
		l0.8,1.1L452.5,414.3z M467.1,154.9l-0.9-0.9l-0.3,1.1l0.5,0.2L467.1,154.9z M449.6,415.7l0.7,0.8l0.3-1l-0.8-0.7L449.6,415.7z
		 M443.6,389.8l-0.9-1.6l-1-0.1l-0.6,0.2l-0.8-0.4l-0.9,0.2l-0.6,0.6l-1.7-0.1l-1.1-0.2l-0.7-0.4l-0.1,1.1l1.2,2.8l2.1,1.8l1.9,2.4
		l0.9,0.6l-0.3,0.8l-0.9,1l-0.2,0.4l0.8-0.3l0.3,0.5l0.6,0.5l1.3,0.9l0.4,1.2l2.5,0.2l0.5,0.3l0.4-0.4l0.9,0.4l-0.8-1.1l-0.5-1.5
		l-0.9-0.9l0.2-2.4l-0.2-3.1l0.2-0.9l-0.7-0.5L443.6,389.8z M452,256l-0.6,0.4l-1.1,0.1L450,257l-0.6,0.2l-1.7,0.8l-0.7,1.3l0.5,0.4
		l1.5,0.1l0.8,0.6l0.4-0.6l0.1-1.2l1.8-1.1l1.2-1.9L452,256z M468.9,154.1l0.7-0.7l-0.3-1.5l-1.1,0.1l-0.8,1.3l0.6,0.7L468.9,154.1z
		 M501.3,66l1.1-0.8l0.1-1.6l0.4-1.8l-1.1,0.4l-1.5,1.4l0.2,1.5L501.3,66z M447.4,201.4l-0.4-0.1l-0.7,0.9l0.3,1.8l0.7,1.3h0.9
		l0.4-1.6l-1.1-1.8L447.4,201.4z M445.5,264.6l0.1,1.2l1.4,1.1l0.6-0.4l-0.3-1.5l-1.3-1L445.5,264.6z M448.5,205.5l-0.8,0.9l0.6,0.6
		l0.7-1.1L448.5,205.5z M448.7,403.5l-0.7,0.1l0.3,0.7l0.8-0.2L448.7,403.5z M447.6,405.1v1l0.6,0.4l0.4-0.7L447.6,405.1z
		 M447.3,414l0.7,0.2l0.4-2l-1.1-1.5v-1.6l0.7-0.4l-0.4-1l-0.9,0.3l-0.3,2l0.9,2.1l-0.3,1.1L447.3,414z M419,370l-2.4,1.8l-0.4,1.3
		l-1.4,0.4l-1.9-0.7l-0.7-1.7l-1.3-1.1l0.1-1.8l0.7-1l-1.1-1.3l-0.8-2.2l-0.9-0.8l0.4-2.1l0.9-1.3l-0.1-1.9l0.7-1.5l2.7-2.4l1.1-0.6
		l-0.6,1.2l0.1,0.9l1.5-2.2l-0.4-2l1.1-2.4l0.9-4l-0.8-1.1l-0.5-2.2l-1-0.4l-1.5-2.7l0.5-3.3l1-1.1l0.2-1.2l-1.1-1.5l-0.8,0.3
		l-0.2,0.8l-1.2,0.9l-2.4-0.1l-0.6,1.1l-1.2-0.8l-1.4-1.7l-3.3-0.7l-2.5,0.8l-0.4,1.9l-1.8,3.4l0.4,2.1v3.5l-1.1,4.2l-0.9,2l1.3,2.9
		v1.1l-1.3,0.6l-1.5-0.3l-1.1-1.5l-0.3,2.1l0.4,1.9l1,0.1l0.3,0.6l-0.7,1.1l0.5,2.5l1.2,2.4v3.1l0.7,0.6l0.7-0.5l0.7,0.3v1.7
		l1.6,2.2l1.1,0.1l1-1.3l-0.9-1l0.1-1.1l1.8,0.2l1.4,1.1l-1.9,2.3l-1,1.1l0.2,1l-0.2,2l1.1,2l0.5-1.7l1-0.3l0.7,1.5l-1,1.4l1.3-0.3
		l1.2-1l1.9,2l1.6-0.9l-0.3-1.2l0.8-1.1l2-0.1l3.5,1.5l0.7,1.3l1.9,1.4l1.6,2.9l0.7-0.1l-0.4-2.9l-1.7-3.2l0.3-0.9l0.9,0.2l0.9,1
		l1.1,0.6l1.1,2l2.4,1l0.6,1.6v1.8l1.3,0.5l1.8,2.3l1.5-0.4v-0.6l1.4,0.4l-0.2,0.9l-1.4,0.8l1.3,1.8l1.5,0.5l0.7-2.4l-0.2-1.1
		l0.8-0.7l-0.7-0.9h-1.4l-1.2-0.7h-1.7l0.1-1.2l-1.1-3l-0.3-1.5l0.9-0.5l0.9,0.5l1.2-0.2l-0.3-0.6l-1.6-1.2l-2-0.2l-0.9-1.7
		l-0.8,0.6l0.1,1.7l-1.2,0.7l-0.8-0.9l0.3-1.8l-0.9-2l-2.5-1.7H419z M399.8,376.6l-1.5-1.7h-1.1l0.2,1.2l2.1,1L399.8,376.6z
		 M397.9,407l0.1-1l-0.7-0.7l-0.5-0.8l-0.3,0.7l-0.7,0.5l-0.4,1.1l1.2,0.2H397.9z M395.6,389.1l-0.6,0.7l0.5,1.3l0.7,0.9l1.8,0.2
		l1.1,0.5l0.8-0.9l-0.3-0.9l-1.7-0.4l-1-1.2L395.6,389.1z M396.2,395.7l0.6-0.8l0.7-0.4l-0.5-1.3l-1.7-0.5l-0.2,1l0.4,2H396.2z
		 M404.1,444.3l0.5-0.8l-0.4-0.8l-1.1,1.3L404.1,444.3z M406.3,447.1l-0.7,0.7l0.5,0.6l1.5,0.1l0.7-0.5l0.8,0.5l1.2-0.6v-0.7
		l-1.9-0.4L406.3,447.1z M372.5,434.9l0.1-0.6l-2.2,1.2h1L372.5,434.9z M369.5,186.6l-1,0.1l-0.7-0.3l0.4,1.1l1.7,0.5l1.2,0.8v-1.2
		L369.5,186.6z M373.2,428.2l0.3-0.7l-0.5-0.4l-1.5,0.6l-0.1,1.1l0.9,1.6h0.8L373.2,428.2z M419.8,405.2l-0.6,1.7l1,0.9l1.5-1.5
		l0.1-1.1l-0.6-0.4L419.8,405.2z M394.8,405.6l-0.9-2.1l-1.2-1.6l0.2-1.6l-0.1-2.5l-0.7,0.3l-0.4,2.6l0.2,2.5l-1.3-0.9l1,1.7
		l-0.1,1.2l-1.5,1.6l-1.1-0.2l-1.6,1.8l-0.2,1.3l-1.8,0.9l-1.8,3.6l-2.5,2.3l-1.3,0.1l-1.3,2.3l-1.1,0.5l-2.6,3.1l-0.4,0.9l0.2,0.6
		l1.7-1.3l1.1-0.2l1.1-1.1l1.8-0.7l2-2.8l2-0.6l1.4-1.1l0.2-0.9l1.2-1.4l0.1-2.6l1-1.1l2.6-0.1l0.7-1.7l1.3-1.2l1.3-0.2L394.8,405.6
		z M393.2,459.6v-1.4l-0.3-1.3l-0.4,1.1L393.2,459.6z M398.3,455.3l2-1.3l-0.1-1.3l-1.3,0.2l-2.9,2.2l0.4,0.6L398.3,455.3z
		 M410.7,382.3l-1.7-0.7l-3.5-3.3l-2,0.4l-2-0.8l-1.6,0.7l0.3,0.8h1.2l0.4,2l1.1,0.5l1.1,1.5l-0.1,2.6l1.3,0.9v1.5l1.6,2.1l1.4,0.3
		l1.6-1.3v-1.3l0.8-0.5v-1.5l-0.8-1.3l0.7-1.1L410.7,382.3z M444.3,412.4l-0.7-1.6l-0.4,1.5l1.1,1.4V412.4z M439.9,276.9l-1.7,1
		l0.4,0.7l-0.3,0.9l-1.8,1.3l0.8,2.6l1-0.4l0.1-1.7l2.4-1.5l0.1-1.7l0.9-1.2l-0.9-2L439.9,276.9z M440,194.7l0.6-0.3l-1.2-0.8h-0.6
		l0.1,0.3L440,194.7z M377.7,258.8l-3,5.5l-1.5,5.7l-1,0.9l0.9,1.3l0.1,5.6l0.4,5.8l1.4,0.9l0.4,1.7l-0.6,0.2l-0.1,1.8l1.5,2.4
		l1.5,0.4l0.4,1.9l3.9,1.3l2,3.1l-0.2,3.3l0.2,2.4l2-0.7l2,0.7l-0.6-2.9l0.7-3.4l-1.4-4.2l2.3-3.2l3.5-5.5l0.1-3.5l1-1l-1.3-0.5
		l0.8-5.5l0.3-3.8l-0.7-4.2l1.5-3l0.7-7.5l0.9-3.8l1-0.2l-0.5-2.5l-2.4-1.9H393l-1.5-3.2l-3.1-1.1l-1.8,1l0.3,2l-2.5,0.9l-3,3.5
		l-2.8,5l0.7,1.3l-0.5,2L377.7,258.8z M437.6,398.7l0.4-1.6l-2,0.2l-0.9,0.6l1.2,0.9L437.6,398.7z M435.6,406.5l0.1-1.7l-0.7,0.8
		L435.6,406.5z M439.1,195.4l-0.6-0.1l0.3,0.5L439.1,195.4z M434.6,205.4l1.1-0.9l-0.7-1.3l-1.1-0.6l-0.1-1.1l-1,0.5l-0.2,1.2l0.7,2
		L434.6,205.4z M434.3,186.6l0.8-0.8l0.5-1.3l-1.5-0.1l-0.8,1.2l0.2,1.1L434.3,186.6z M436.6,199.8l1.9-3.6l-2.7,3.3L436.6,199.8z
		 M435.3,378.7l0.7-1.8l-0.7-1.8l-1.2-1.3l-0.9,0.6l0.2,1.9l-0.5,1.3l-0.6,0.4l0.7,1.1L435.3,378.7z M435.1,182.7l1-2l-0.3-1.3
		l-0.4-0.7l-0.9,0.6l-0.5,1.2v1.6l0.4,1.3L435.1,182.7z M434.8,201.3l1.1-0.6l-1.3-0.2L434.8,201.3z M247,486.4l0.8,0.8l1.1-1.8
		l-0.9-1.3l-2.1-0.9H245L247,486.4z M440.1,518.7l-1.1-0.6l-1.7-0.5l-1.1,0.4l-0.8-0.2l-1.1,1.1l-0.2,0.9l0.6,0.9l1.6,0.4l1.9-1.1
		l1.2,0.3l1.6-0.7l1.3,0.2v-1.5l-1.1-0.4L440.1,518.7z M425.8,515.7l0.5,0.7l1.5-0.3l0.3-1.3l-1.2-1l-0.7,1L425,515l0.6-1l-0.2-0.7
		l-2.3-0.3l-2,1.1v1.6l1.3,1l1.1-0.9l1.4,1.1L425.8,515.7z M422.9,541.7l-1.2-0.2l-0.7,0.6l-0.2,2.7l-0.9,2.6l-1.5,2.4l-0.2,1.3
		l1.1,0.7l1.1-0.5l1-1.6l1-0.3l0.6-0.7l-0.4-0.8l-1.3-0.4l-0.3-1.3l0.5-0.7l1.1-0.8l0.3-0.7l0.4,0.7l0.1-0.8l-0.5-1.1V541.7z
		 M423.7,520l0.4-1l-1.3,0.5L423.7,520z M425.2,518.7l1.2,0.2L426,518L425.2,518.7z M427.2,517.1l1.3,0.5l-0.3-1.2L427.2,517.1z
		 M418.9,545l-0.7-1.5l-1.5,0.7l-1.2,1.1l0.4,1l-1.6,1.7l0.2,0.8l0.7,0.6l1.5-0.1l0.2-0.7l0.7-0.2l0.2-1.4l1.1-1.1V545z
		 M377.7,464.4l0.9,0.4l-0.4-0.9L377.7,464.4z M379,467.8l-1.8,0.4l1.3,0.4L379,467.8z M379.9,463.7l-1.8-0.7l-0.1,0.3l0.5,0.9
		l1.4,0.1V463.7z M398.5,553.5l-0.2,1.3l-0.6,1.1l0.7,1.2l0.3,1.3l0.7-1.8l0.8-1.2l-1.3-2.8L398.5,553.5z M377.2,471.3l0.5,0.2
		l0.1-1.5l-0.8-0.5L377.2,471.3z M411.3,546.4l-0.6,0.3l-0.1,1.1l-0.5,0.5l0.6,1.9l0.7,0.3l1.3-0.8l-0.4-1.8L411.3,546.4z
		 M455.8,467.3l0.7,1.9h0.7l-0.5-1.6L455.8,467.3z M459.1,227.7l-1.2,0.2l-0.4,1.1l1.1,1.9l1.5,0.5l0.5-0.9l-0.3-1.3L459.1,227.7z
		 M462.3,507.5l-1.2,0.2l-0.5,0.5l0.1,1l0.9,1.5h1.5l0.9,0.9l0.8-0.8l-0.4-0.7l-1.2-0.6l0.1-1.3L462.3,507.5z M386.3,494l-1.1-0.5
		l-1.3,0.9l-2-0.3l-2.7-2.8l0.5,2.3l-0.5,0.9l-0.8-1.1l-1.8,1.7v1.2l-0.8,0.9l-0.4,3.3l-0.8,1.1l-0.7,2.9l-2.3,1.7l0.8,2.2l-1.1,1.5
		l-1.5,1.5l-0.7-1.6l-0.9-0.4l0.4,1.1l-0.2,1.8l-1.5,1.6l-0.3,1.5l-1.4,0.5l-1.3-0.2l0.3,0.8l-0.7,1h2.1l0.3,0.3l-0.3,1.5l-1,0.7
		l0.5,0.4l1-0.1l0.2,1.2l-0.6,1.3l-1.3-0.4l0.5,0.3l-0.1,0.7l0.7,0.8l0.5,0.5l-1.4,2.7h-0.9l-0.4-0.7l-0.6,2.1v1.2l-1.9,3.2l-3,1.9
		l-2.5,0.3l-3.6,1.5l-1.7,0.2l-0.4-2.4l0.3-1.3l-0.8-1.3l-0.3-0.7l-0.8,0.3l-0.9-1.3l-0.8,0.4l-1.3-0.4l-0.7-1.4l-0.7,1.3l0.6,1.1
		l-1.6-0.5l-0.7-0.9v-1.3l-0.9-0.9l-1,0.6l-1.5-1l-0.9,0.1l-1.3,1.4l-2.1,0.2l-0.4,0.8l-1.3,0.1l-0.9-0.8l-1,0.2l-2.1,2.4h-1.2
		l0.2-1.4l-0.2-2.9l-0.7-2.1l0.4-1.5l-0.5-1.1l0.1,0.9l-0.8,1.6l-1.1,0.7l-1-0.8l-1.5,1l-2.2,0.1l-1.3-0.5l-1.8-0.2l-0.5-1.1
		l-1.4,1.1h-1l-0.9-2.4v-2l-0.3-3.8l-1.5-1l-0.4-1.1l1-1.1l1.2-1.7l-0.2-1.5l-0.8-1.5l-2.4-2.5l-2-1.3l-2-0.5v-0.7l1.5-0.1l1.4-1.1
		l3-0.6l2.1-1.5l1.6,0.2l-1.5-0.5l-2.3,1.3l-2.7,0.3l-1.1,0.2l-1.7-0.6l-1-2l0.5-0.5l1,0.5l-0.7-1.3l-2.4-3.3l-0.1-3.3l1.2-0.7
		l0.2-1l-0.4-1.2l0.1-1.2l1.4-2.3l2.1-2.6l0.9-1.3l1.3-0.4l1.6,3.2l2.7,2l0.2,0.7l1.9,1.9l0.7,1.5l1.3,0.2l2.5-0.6l0.3-1l2.1,0.2
		l1.2-0.6l4.7,0.4l4.8-1.8l1.3-1.1h4.2l2.1,1.1l0.7,1.1h2l3.6-1.8l4.1-0.5l0-0.2l-4.1,0.5l-3.6,1.8h-2l-0.7-1.1l-2.1-1.1h-4.2
		l-1.3,1.1l-4.8,1.8l-4.7-0.4l-1.2,0.6l-2.1-0.2l-0.3,1l-2.5,0.6l-1.3-0.2l-0.7-1.5l-1.9-1.9l-0.2-0.7l-2.8-2.1l-1.6-3.2l0.7-0.2
		l1.4,1.7l0.9,1.4h1.9l3.5,1.4l3.4,0.5v-0.7l1.5-2l0.1-2.5l0.6-1.8l0.7-0.8l-0.2,0.1l1-1.4l0.4,0.9l0,0l1.1-0.1l1.2-0.6l1.1,0.4
		l-0.7-0.8l-0.9,0.5l-1.2-1.3V475l0.5-0.1h0.1l1.1-0.2l-0.1-0.3l0.8-0.3l7-1.4l2.4-1.9l2.2-2.5l0.6-1.5l2.5-2.2l0.9-1.7l2.3-1.8
		l0.1-2l1.2-1.4l0.3,0.2l0.4-0.5l3.2-0.9l2.1-1.5l1.7-0.6l0.1,1.7v0.6l-0.4,0.1v0.3h0.3l0.3,1.5l0.1,2.2l1.1,0.7l0.1-0.2l-0.9-0.6
		l0.1-2.1l-0.3-1.5l0.7-0.2l0.1-0.2l0-0.3l0.2-0.3l1.4-0.7l0.9-1.2l-2,0.5l-0.8-0.3l0.7-0.9h-0.9l0.9-1.1l2.5-0.9h1.5l3.2-3.2
		l0.4-2.2l1.9-4.1l1.2-0.3l1.3-3.8l1.1,0.1l0.3,1.4l-0.6,1.5l0.7,0.1l1.9-1.7l-0.4-1.5l0.8-0.5l1.7,1.2v2.4l1.5,1.5l0.8-0.4l2,1.4
		v1.1l-1.5,0.5l-0.1,2.5l0.7,0.3l0.7,0.9l1.2-1.5l0.8-0.2l0.9,1.1l-1.9,1.5l0.8,0.8l1.4-1.3h1.2l2,2.1l1.5-0.1l1.4,1.4l2,0.4h1.3
		l0.3,1.4l-1.8,1.3l-2.9,0.6l-3.4-0.4l-1.1,0.7l-0.1,2.2l2.2,2v1l-2.2,0.4l-1.8,0.9l-1.4-0.4l-2-1.4l-0.2,0.7l-1.8-0.6h-2.4
		l-0.9-0.7l-3.7-0.2l-2.7,0.2l-1.4-0.7l-1.9,2.1l0,0.2l1.9-2.1l1.4,0.7l2.7-0.2l3.7,0.2l0.9,0.7h2.4l1.8,0.6l-0.1,0.4l-0.9,0.2
		l0.1,0.8l-0.6,0.9l1.8,0.7l1.6,2l-1.9,0.4l-1.9-0.4l-0.8,0.5l1.3,1.6l0.7,0.4l0.2,0.9l-0.7,0.2l-0.7,1.3l1.4,1.3l0.5,1.8l2.7,3.1
		l1.3,1.2l-0.9,1.6l-2.2,0.4l-0.3,1.1l0.7,0.7l0.3,1.5l1.3,0.8l3.5,3.5h1.2l1.3,1.6l0.4,1.1l1.3,0.4l-0.5,1.5L386.3,494z M351.7,461
		l1.6,1.3l0.3-0.1l-1.5-1.2l-1.4-2.6l-0.4,0L351.7,461z M361.7,466.1v-0.2l-2.1,6.6l-2.7,3.8l-1.5,3.6l-3.5,5l0,0.2l3.5-5l1.5-3.6
		l2.7-3.8L361.7,466.1z M362.6,463.3l0-0.2l-0.9,1.5v0.2L362.6,463.3z M457.9,463.4l-1.1-0.8l-0.8,0.5l0.6,2.1l0.1,1.6l0.9-0.3
		l0.6-1.5L457.9,463.4z M459.2,509.7l-0.7,1.1l1.8,0.6l-0.6-1.3L459.2,509.7z M459.7,507.5v-0.9l-0.9-0.1l-0.6,1.7l1.1,0.4
		L459.7,507.5z M447.6,521.1l-0.7,0.4l0.3,1.4l0.7,2l0.7,0.3l0.1-0.8l-1.1-2V521.1z M411.2,505.8l0.7,1l1.2-0.2l-1.1-0.7
		L411.2,505.8z M456,435l-0.9-1.6l-0.9-1.5l0.1-1.9l-0.2-2l-0.7,1v-2l0.2-1.1l-0.7-0.1l-0.9-1.3l0.3-0.9l1.2,0.2l0.1-2.2l-1.2-1.9
		l0.1-1.3l-1.1,0.9l-1.6-1.7l-2.3-2l-0.3-1.4l-0.6,0.1l-1.3-0.4L445,416l0.7,3.3l-0.1,1.3l-1.2-1.3l-0.6,0.1l-0.1,2.2l-0.4,0.8
		l-1-0.9l-1.8-0.8l-1,3.3l0.7,0.5l-0.2,1.3l-1.1,0.4l-0.8-2l-1.8,0.7l-1,2.9l-2,0.9l-1.6,0.4l-1.5,1.5l1.9-2.6v-2.9l-2.2-2l-1.3,0.1
		l-1,1.5l-2,0.8l-0.9,1.5l0.7,1.4l-2.4,0.4l-1.6-0.6l-1.3,1.2l-1.7,0.4l-1.6,1.8l0.5,1.3l-0.6,2.4l-1.3,2.4l1.7,2l0.7-1.1l1.4-3.5
		l1-0.8l1-2.1l0.9-0.4l1.1,1.1l-0.4,1.8l0.5,0.5l0.8-0.4l0.8,0.6l0.2-1.5l0.7-0.5l0.9,0.3l-0.4,1l0.9-0.1l1.3,1.1l0.7,0.1l-0.9-1.3
		l0.6-0.7l-0.4-0.8l0.7-0.7h0.8l1.5,1.5l1.4,0.4l1.5,1.4l0.3,1.5l1.3,1.4l-1.5-0.6l-0.7,0.3l0.1,0.9l-0.8,1l0.8,1l0.1,1.3l-0.4,1.1
		l1.1,1.6l0.2,1.4l1.5,1.9l1.9,0.1l1.4,1.4l1.8,0.8l1.4-0.7l0.2-0.9l0.9-0.6l0.5,0.7l-0.7,1l0.5,1.6l0.5,0.7l1.2-0.9l2.4-2.9
		l0.2-1.8l-0.7-1.1l-0.9-2.3l-1.4-1.1l0.4-1.4l2.2-3.6l1.2-0.7l1.1,1.8l0.3,1.7l0.8,1.3l-0.1,1.5l0.7,2.6l0.5,1.2l0.1-1.2l0.2-1.9
		l-0.5-2.5l0.3-1l1-0.1l0.5,1.1v-1.1l0.7,0.1l0.9-2.2L456,435z M413.8,505.1l-1.4,0.3l1.3,0.6L413.8,505.1z M442.7,489.9l-0.2-1
		l-2.4-0.7l-1.7,0.5l-0.4,1.7l-1.3,0.9l-0.2,0.9l-1.8,1.2l-1.3,0.1l-0.9,1.3l-2,0.4l-4-0.9l-3.4-0.4l-0.7,0.9l-0.8,0.1l-1.6-1.5
		l-1.3-0.2h-1.5l-1.6-0.4l-2.2-0.4l-1.2,0.7l-1.3-0.8l-1.6-1.7l-2.5-0.6h-1.5v1.8l-1.3,0.8l-0.8,1.6l-1.1,0.9l-2.2-0.8l-2,0.4
		l-0.8,0.9l0.2,0.6l-2.2,2l-0.1,2.5l0.4,1.4l-0.2,2.9l-0.4,1l0.8,2.1l0.2,1.6l-0.7-0.9l-0.4-1.3l-1.1,0.3l-1.1,1.3l-1.4,0.7
		l-0.4,1.7l0.2,2l-0.7,1.3l0.3,3.6l-0.4,0.8l-0.3,1.4l-1.1,0.4v2.2l-2,1.5l-0.7,2.2l0.3,0.7l-0.8,0.9l0.9,3l0.9,1.4l0.6-0.3h1.3
		l0.9-0.7l0.9,0.4l0.5,2.2l1.3,4l-0.7,1l-0.6,2.2l-1.3,1.8l-0.3,3.7l0.2,2.9h0.9l1.1,0.8h1.8l0.9-0.9l1.6,0.4l1.4-0.2l1,0.9l0.3-1.3
		L399,548l-1.1-0.9l-0.2-2.2l1-1.5l0.4-2.8l-0.2-2.6l-0.7-0.8l1.8-2.4l0.6-2.2l-0.4-2.6l-1.1-1v-0.8l1.9-1.1l0.8-1.1l1.8-0.3
		l1.7,0.7l-0.2,0.9l0.8,1.4v1.7l-1.4,1.5l-0.4,1.5l0.9,1.8l1.2,0.2l1,1.3l1.9,1.2l0.2,1.6l-0.7-0.1l-0.5,3.1l0.6,1.8l1.2,0.5
		l0.9-0.3l1.9,0.9l1.4-0.2l-0.1-0.6l-0.4-1.3l1.5-1.3l1.5-0.3l2.1-1.1l2.5,0.3l0.9-0.9l0.7,0.4h1.2l0.8-1.2l-0.2-0.7L422,538
		l-0.7,0.3l-0.7-0.3l-1.6,0.1l-0.1-1.3l-0.8-0.2l0.1-0.8l-0.7-0.2l-0.8,0.4v-0.9l-1.5-0.5l-0.4-1.1l1-0.9l0.4-0.8l0.6,0.3l-0.4-1.1
		l0.7-0.1l0.4-0.9l-0.8-0.8l-1.2-0.4l0.5-0.8l-0.2-0.9l-1.4-1l-1-0.1l-0.4-1.6l-2.2-2.7l-1.4-1l-0.8-1.6l0.2-0.7l0.7,0.1l0.3,0.9
		l1.5,0.1l1.4-1l0.4-1.1l3.5-1.1l2.5-1.8l1.2-2l1.6-0.7l0.1-1.2l1.9-0.4l1.6,0.9l1.1,0.2l1.5-2V508l-1.8-0.7l-3.8,0.2l-1.7,1.1
		l-2.5-0.1l-1.3,0.3l-1.5,1.5l-1.6-0.2l-1.2,0.3l-1.6-1l-1.5-0.5l-1.7,2.1l-1.3,2.8l-1.7,0.8l-1.8-0.3l-0.4-0.8l-2.2-2.5l-2.2-2
		l-1.1-3.1l0.4-3.3l1.5-3.2l1.6-1.5l2-0.6l2.3,1.2l2.8,0.2l3.1-1.5l2,0.3l0.7,1h1.8l1.1-0.5l3.6,0.5l1.9-0.1l0.4-0.5l2,0.1l1.3,0.8
		l0.4,0.9l1.7,0.6l6.5-1.3l2.9-1.5l0.8-1.4l1.1-0.1l1-1.1l1.2-0.8l0.6-1.5l0.8-1.2l0.8-0.6L442.7,489.9z M447.5,472.8L447,471
		l-1.7-2l-0.3,1.1l0.2,2.2l1.5,1.4L447.5,472.8z M446.2,518.6l-1.2,0.5l-1.3-0.5l-0.9,0.4l0.7,0.4l0.1,0.6l1.8,0.6l3.7-0.7l2-0.4
		l-1.7-0.4L446.2,518.6z M211.1,385.7l0.4-1.7l-0.5-1.2l-1.2,0.8l0.1,1.1L211.1,385.7z M327.1,477.3l-0.9-0.8l-0.3,0.5l0.3,0.7
		L327.1,477.3z M292.3,472.3l-0.4-0.4l-2-0.6l-0.3,0.2l0.3,0.8l1.5,0.5L292.3,472.3z M326.1,475l-0.6,1.1l0.2,0.4l0.3-0.1L326.1,475
		L326.1,475z M354.9,234.7l0.4,1.9l0.9-0.3v-1.2l-0.6-0.7L354.9,234.7z M293,480.6l1.1-0.3l1.6-1.7l-1.2-0.9l-2.1-0.1l0.2,1
		l-0.2,1.1L293,480.6z M292.8,475.3l-2.2-0.4l-0.2,0.7l1.2,1.4h0.8h2v-0.6l-0.7-0.2L292.8,475.3z M337.1,256.3l0.2,0.8l1.5,0.1
		l0.6-0.5l-1-1L337.1,256.3z M360.8,170.5l-2-0.3l-0.2,0.7l1,1h1.8l1.8,0.8l-0.2-1.8l-1.4,0.1L360.8,170.5z M227.2,361.8l1.2,1
		l0.9-0.2l-2.2-2.2L227.2,361.8z M315.9-80.5L336.4-50l24.5,35.5l-24.5,83.1l-1.5,2.3l-1.7,1.9l-0.2,3.3l-0.9,0.2l-1.3,2.3H329
		l-3,1.6l-0.9,4.2l-0.6,0.9l0.5,0.4l0.3,2h-1.2l0.5,0.8l-0.8,1.8l-2.2,0.1h-2.7l-3.2-1.1l-0.2,0.9l-1,0.8l-0.2,1.7l-0.2,0.9v0.8
		l-0.8,0.7l0.9,2l0.2,1.8l1.8,1l2.8,1.9l0.3,1l1.3,2.2l0.1-0.8l0.6,0.9l0.7-1h0.9l0.1,0.8l-1.4,0.7l0.4,1.6l2.4-0.2l2.3,4.4l2.2,0.1
		l1.6-0.9l1.6,0.7l0.8-0.7l0.9-1.6l-0.8-1l-0.4-0.2l2.3-0.9l1.1-0.9v-1.5l-0.7-0.6h2l3.8-1.8l0.5,0.7l0.9,0.4l0.9,1.5l1,0.4l1.1,0.9
		l5.3-0.2l0.7-0.8l1.8-0.1l-0.1,0.7l2.3-0.1l2-0.4l1.1,0.5l-1.8,0.6l-0.1,0.9l1.4,2h-0.9l-1.1,0.6l0.2,1.8l1.3,0.2v0.8l-2.1,1.8
		l-2-1.4l-0.2-0.9l-0.8,0.9l-0.6-1l-1.8,2.4H349l-1.5,1.3l-1.5-0.1l-0.4,1l-1.4-1.1l-1.9,0.2l1.9,1.2l0.2,1.3l-2.1,0.4l-0.1,1.8
		l-2.5-0.1l-1.3,1.5l0.8,1l1.6,0.9l-1.5,1.8l-0.8-0.5l-1.5,2.5l-1.2,0.4l-0.6-0.4l-0.4,2.4l0.7,1.9l-0.7,2.9l0.1,4.2l0.6-0.1l4.3,2
		v1.2l1.2-0.7l4.6,2.4l2.5,5.3l0.6,0.1l-0.8,2l1.7,0.6l0.2,2.5l3.1,2.3v2.5l2.2,3.2l1.6,0.7l1.7-0.1l0.9,0.7v0.6l2,2.4l1.1,0.4
		l1.2,2.4l-0.9,0.6l-3.4-1.3l-2.4,1.4l-1.6-1.7l-1.3-0.1l-1.8-1.3l-2.6-0.4l-1.1,1.5h-1.6l-1.1-0.9l-1-2.5l-2.2,0.9l-1.3-0.5
		l-0.4,0.5h-1.1l-1-0.3l-1.5,0.8l-2,3.8l2.4-2.9l1.8-0.7l2.2,0.2l1.9-0.8l0.9,0.4l0.1,0.9l2.2,2l1.3,0.3l2.7-1.9h1.6l3.3,3.3
		l2.8,1.6l4.3,2.6l2,3.3l-0.1,1.2l-2.3,0.2l-2,2.3l-1-0.1l-0.8,0.8l-0.1,1.5l-1.5,0.7l-2-1l-1.1,0.8h-1.1l-1.9,1.6l-0.2,2l0.5-1.5
		l1.7-1.4l1.7-0.4l1.7,2.5l1.3,0.4l2.6-2.2l2,0.3l2.7,3.5l0.4-0.8l0.7,0.9h1.6l0.2,0.5l-3.7,3.5l-2.3,0.4v1.5l1.1,0.2l2.2-1.8
		l1.8,0.4v-0.8l-0.3-0.4l1-1l0.9,0.6l0.2,2.5l0.5,1l-1.1,0.8l-0.1-0.6l-1-0.5l-0.2,0.9l-0.5,0.4l-1.6-0.4l-1.8,1.5l-0.2,0.8l2.7-0.1
		l0.9,0.9l-0.2,0.7l-0.6-0.1l-1.1,1.1l1.1,0.5l0.8,0.8l-0.9,0.9l-1.1-0.2l-0.7,0.6l0.7,0.7l1.6,0.1l0.9,1.5l-1.2,0.8l-0.3,1.7
		l-0.4-0.6l-0.3-1.3l-1.3,0.2l-1.3,3l-0.9,0.8l-2.3-0.7l1.6,0.9v0.9l0.7,1l-0.9,0.7l-0.1,1.1l0.7,0.9l-0.6,0.7l0.1,1.5l-1.4,0.7
		l-1.1-1.2l-0.4,1.5l1.3,0.1l1.1,1.4l-1.9-0.1l-0.1,1l-2.1,2.2h-1.1l0.1-1.7l-0.9,0.1l-0.5-0.1l-0.3,1.4l-1.1-0.2l0.7,0.9l-0.9,0.8
		l1.3,0.1l1.1,1.5h-1.8l2,1.8l1-0.9l0.9,0.9l-2.8,1.2l-1.8,1.2l-0.3,1.3l0.7-0.7l1.7,0.2l0.9,0.9l-1.9,1.6l1.4,0.4l-0.2,1.1
		l-1.1,0.3l0.3,0.9h0.8l0.7,1.2l-0.1,2l-0.9-1.4h-0.9v-1.1l-1.3-1.1l-0.6,1h-0.9l-0.1,1.3l1.5,1.1l-0.1,1.4l-0.6-0.8h-0.8l-0.6-0.8
		l-1.2,0.3l0.9,0.7l0.2,1.5h1.1l0.2,0.4l-0.9,1.1l-1.7-1.2l-0.2,1.1l0.6,0.8l1.4,0.4l-0.7,1.8l-2.3-1.4l-0.9,0.8l-0.7-0.6l-1.3,1.8
		l-2.8,0.1l2.1,1.6l1.2-0.4l1.5,0.3l-0.6,1.3l-0.9,0.1l-0.2,1.7l-0.9-1.1l-1,1.5l-0.5,0.3l-0.1-0.7h-0.8l-0.2,1.3h-0.8l-0.4,2h-1.6
		l-0.2-0.8l-2.1,0.3l-0.6,0.9l-0.8-0.2l0.8,1.7l-0.6,1.8l-0.7,1l0.6,1.1l-1.4,0.6l-0.9-0.2l-0.6,0.8l-0.2-0.9l-0.8,0.7l-1,1
		l-1.9,0.2l-0.2,0.8h-1.3l1.1-0.9l-0.6-1l-0.4,0.8l-1.3,0.3l-0.1,1.1l-1.3,0.3l-1.3-0.8l-0.8,0.7l-1.5,0.5l-0.2,1.6l-3,1.5l-0.2-0.7
		l1.1-0.5l0.8-1.2l-1.1,0.3l-1.7-1.7l-0.2-1.1l-2.1-1l-0.8-0.7l0.4,0.9l-0.1,1.2l0.4,1.5l0.3,2l-1.3,0.7l-0.8,1.3l-0.8,0.6l-0.7-0.6
		l-0.4-0.4l-0.2,0.7l-1.1,1.5l-1.6,1.6l-1.8,0.9l-1,0.3l-1.6-0.6l-1.6,0.5h-1.4l0.7,1.1l-1.8,1l-1.5,0.5l-1.3-0.5l-0.6,1.2l-1.6,0.2
		l-0.9,0.9l-0.4-0.1l0.3-0.4l-0.8-0.1l-0.1-0.4l0.3-0.2h-0.4l-0.4-0.6l-0.2-0.4l-0.6,0.6h-0.4l0.2,0.9l-0.3,1.1l-1.2,0.9l-0.4,0.7
		l0.6,1.5h1l0.9,1.7v0.5l0.7,0.1l0.4,0.7l-1.5,1.8h-0.9v-0.4l-1.8-0.4l-0.7,1.1l-0.4,0.4l-0.2-1.8v-0.8l-1.2-0.7l-2-2.8v-1l1.2-1.5
		l0.3-1.5l1.2-0.2l-0.1-0.6l-0.9-0.4l-1.2,0.4l-1.2-1.1l-0.9,1.5l-1.1-0.1l-0.9,0.3l-2-1.7l-0.8,0.3l-1.5-1.6l-0.8-1.5l-0.4,1.6
		l0.1,0.9l-1.3,0.6l-1-0.4l-0.6,0.4l-0.5-0.1l-0.5-0.3l0.1,0.3l-0.6,0.9l-0.9,0.4h-0.7l-1.5,0.9l-1.4-0.1l-1.5,0.3l-0.4,0.8h-2.9
		l-0.8,0.6l-0.3,0.6l-0.8-0.5l-1.3,0.3l-0.8,0.7l-0.6,0.2l-0.5-0.8l-0.6-0.2l-0.1,1.2l-0.7,0.9l0.4,0.5l-0.2,1.3l0.1,1.3l-0.2,0.3
		l0.7,1.1l-0.4,0.8l-0.6,0.2l-1.2,2h-1.1l-0.4-0.6v0.7l-0.8,0.6l-0.4,1.5l-0.7,0.6l-0.1,1.5l0.7,0.1l0.7,0.8l-0.8,2.8l-0.9,1.4
		l1.8,1.5l-0.2,0.9l-1.4,0.4l1.5,0.4l2.5,1.5l2.2,2.2h0.8l1.1,1.9v0.9l-0.3,0.6l3.9,3.1l0.3,1v1.4l1.8,1.1l0.2,0.6l4.5,2.5l4,3
		l0.9,1.6l3.7,2.8l1.2,2.2l0.2,1.3h0.5l-0.1,1.1l1.9,2v0.9l0.4,0.7l-0.4,0.7l1.5,1.8l0.4,3.1l0.7,0.5l0.7,2.7l0.5,0.5v1.5l-0.3,0.9
		l0.5,1.4l-0.4,0.6l0.6,2.1v0.8l0.8,0.3l0.4,1.2l1,1.9l-0.2,1.3h-0.4V354l-0.5-0.7l-0.7,0.4l0.1,1.3l0.8,0.8l-0.2,0.7l-0.9,0.7
		l-0.1,0.9l-1.3,1l1.2,1.8l-0.7,1.5l0.5,0.7l-1.1,1.1l-0.9,0.3l-0.2,2l-0.9,0.4l-1.9,1.9l-1.2,0.7l-1.7,1.2l-0.2,1.4h-1.5l-1,1.1
		l-3.6,2.1l-2.2,0.2l-0.9-0.5l-1.6,0.4l-0.3-0.3l0.2-1.1v-1l-0.4,1l-0.2,0.4L262,374l1.4,0.9v0.6l-0.4,0.3l-1.4-0.2l2.3,1.1
		l-0.5,0.8l0.6,1.3l-1.2,0.6l-1.8-1.3l1.5,1.7l-0.2,0.8l-0.7,0.9l-0.7-0.2l-0.7-1l-0.9,0.2l0.4,1.2l-0.1,0.4l0.3,0.4l-0.7,0.4
		l-0.4,0.7l-0.9,0.1l-1.6,1.4l-0.7,0.5l-1.1-0.2l-0.4,0.9l-0.2,1.8l-1.1,0.9h-0.4l0.1,0.4l-3.7,1.7l-2-0.3l1.3-0.8l1.5-0.7l0.8-0.9
		l-0.9,0.3l-1.2-0.7l0.2-2.6l0.2-0.2l-0.5-0.1l0.3-1.1l-0.2-2.6l1.2-2l2.3-1.8l0.7-0.9l-1.2,0.5l-1.8-0.2l-1.3,0.4l-0.8-0.5
		l-0.8,0.3l-1.6-0.4l0.2-0.4l-0.1-1.4l-0.4-0.3l1.5-1.9l1.8-0.3l1-2.4h1.7l0.9,0.6l3.9-1l1.5,0.9l0,0l-1.6-1l-3.9,1l-0.9-0.6h-1.7
		l-1,2.4l-2.3,0.3l-1.5,1.9l-1.5-1.1l-0.5,0.3l-1.7-0.5l-0.9-0.7l-0.1,0.5l-1.3,1.3l-0.9-0.1l-0.2-0.6l-0.5-0.8l1.1-1.2l0.1-1.1
		l-0.6-1.3v-1l-0.7,0.5l-1,0.9v1.4l-1,0.2l-1.3-0.2l-0.2-1.3l-0.6-0.9l0.1-1.3l-0.6-1.1l1.4-0.3l-0.1-1.6l-1.1-1V362l-1.1-1.3l0-0.1
		l-0.2,0.1l-0.2-0.4l-1.8-1.5H228V358l-1.1-0.5l-2.2-2.2l-1.2-0.4l-0.9,0.8l0.2,0.4l-0.2,0.3l-0.7-0.5l-1.8-0.4l-1.7,0.4l-1.2-0.4
		l-1.3,0.1l0.4-1.3l0.5-0.6l-0.8-1.3l0.1-2.2l0.4-0.5l-0.4-1.1l-1.5-0.3l-0.3-0.2l-0.5,0.2l-0.6-0.4l-1.3,0.6l-1,0.1l-0.6-0.5
		l-0.5,0.7h-0.9l-0.5-0.2v0.4l-0.4,1.1l1.4,0.7l0.2,1.5l-0.9,1.5l0.1,1.8l-0.3,1l0.7,0.5l-0.2,2.4l-1.2,1.5l-0.2,1.7l-1.2,1.8
		l-0.4,6.4l-2,2.6v1.8l-0.8,1.7l0.9,0.2l0.2,0.4l-0.8,1l0.1,0.8l0.4,1.8v1.1l1.6,2.4l-0.8,1.6l0.5,0.7l0.9-0.2l0.2-0.7l0.8-0.9
		l0.4,0.3l1.3,0.2l0.7,0.7l0.2,1.8l0.8,1l-0.2,1.8l0.9,0.3l0.9,1.9h0.9v-0.9l0.1-0.7l0.4,1.3l0.9,1.4v1.4l0.8,0.4l0.7,3.4l-0.3,0.5
		l-0.3,0.6L215,400l-1.3,0.9l-0.2,1.2l2.4,0.9l0.3-1.3l0.5,0.4l0.2,1.5l1.1,0.9l2.4,2.4l1,0.8l0.7-0.5l1.7,0.2l1.5,0.6l1.1,2.4
		l0.9,1.2l1.5,1l0.2,0.8h0.6l0.8-0.8l0.7-0.2l1.3,2.3l6.1,6.2l1.8,2.9l0.8,3.4l-0.7,0.9l0.2,4.1l-0.4,0.7v1.5l0.6,1.1v4.2l1.1,2.2
		l1.9,1.8h1.3l0.4,0.7l-0.2,0.6l0.3,2.5l0.6,0.5l0.3,0.7v0.5l0.5,0.2l1.8,3.5v2.1l-1.3-0.2l-0.3-0.7l0.1-0.9l-0.9-0.7l0.5,0.7
		l-0.1,0.9l-0.5,0.2l0.8,0.1v0.4l-1.7,1.1l-0.6-0.9l-0.5,0.6l-1.6-0.8l-1.1-1.3l-2.7-0.5l-2.5-1.3l-1.3-1.4l-0.9-0.7l-1.2,0.3
		l-1.2-0.1l-2-2.2l0.2-1.5l-2.6-2l-3-1.2l-1.1-0.9l0.2-1.1l1.3-1.2l-1-1.5l-1.5-0.9l-1.5-2.3l-2.3-1.3l-1-1.5l0.4-0.8l-1.3-1.2
		l-0.2-1.8l0.5-0.4l0.3-2.7l-1-2.1l-0.9-2.3l-0.9-6.9l-1.7-2.8l0.2-0.8l-0.4-0.7l-3.6-2.6l-0.1-0.7l0.7-0.8l0.1-0.9l-0.9-0.1
		l-0.6-1.4l-1.6-0.2v-1.1l-1.9-2.5h-1.2l-0.9-3l-1.5-0.2v-1.3l-0.9-0.7v-0.8l-1.6,0.8v1.6l-1.1-0.1l-0.8-1.1l-0.4-2.9l0.4-0.8
		l-0.2-2.4l1.1-0.5l-0.1-3.2l0.9,0.2l0.6-1.3l-0.9-0.2l1.2-1.7l-0.4-0.7l1.1-1.6l-0.9-0.1l0.3-2.8l0.4-1.3l0.8-1.3l0.2-2.1l1.8-1.3
		l2-5.3l1-0.6l0.3-2.7l-1.1-1.9l0.1-2.4l-0.7-1.5l-0.4-2.5l-1-1l0.2-1.8l-0.4-1.6l0.6-1.4l-1.1-3.5l-2.3-2.2l-2.5-2l-2.2-2.7
		l-0.1-1.5l-1.2-2.9l1.8-1l0.2-1.3l-1-4.3l0.7-1.2l1.5-0.9l-0.2-1.7l-1.8-0.9l-0.3-1.8l-1-2.2l-1.3-0.5l-2-4.4l-2.2-1.5l-0.5-1.3
		l-1.2-1.1l-1.4-2.4l-1.3-0.4l-0.2-1.3l2.2-0.9l1.5-1l-0.6-1.4v-2.5l1.2-1.1l-0.4-2.9l1.3-1.8l-0.3-0.1l-1.3,1.8l0.4,2.9l-1.2,1.1
		v2.5l0.6,1.4l-1.6,1.1l-2.2,0.9l0.2,1.3l1.3,0.4l1.4,2.4l1.2,1.1l0.5,1.3l2.2,1.5l2,4.4l1.3,0.5l1,2.2l0.3,1.8l1.8,0.9l0.2,1.7
		l-1.5,0.9l-0.7,1.2l1,4.3l-0.2,1.3l-1.8,1l1.2,2.9l0.1,1.5l2.2,2.7l2.5,2l2.3,2.2l1.1,3.5l-0.6,1.4l0.4,1.6l-0.2,1.8l1,1l0.4,2.5
		l0.7,1.5l-0.1,2.4l1.1,1.9l-0.1,2.8l-1,0.6l-2,5.3l-1.8,1.3l-0.2,2.1l-0.8,1.3l-0.4,1.3v-0.3l-0.8,1.7l-0.2,2.5l-0.8-2.6l-0.1-2.4
		l-0.6-1l-0.1-0.8l0.7,0.2l0.6-0.6l1-1.7v-1.3l-0.5-0.5l0.3-2.2l0.5-0.2l0.4-1l-0.8-2.3l1.1-0.9l-1.2-1.3l-0.8-1.2l-0.1-2.2l0.6-0.8
		l-0.5-1.5l-0.8-0.6l-0.6-5.1l-1.1-1l-0.4-1.8l-1.2-2l-0.3,2.7l-0.5,0.4l0.1-1.5l-0.8-1.5l0.1-3.7l-1.2-1.5L191,339l0.6-0.7
		l-2.1-1.2l-0.1-2.9l-0.6-0.1l-0.7-6.2l-1-0.7l-0.3-1.6l0.6-0.2v-1l-1-2l0.4-0.8l0.1-0.9l-0.6,1l-1.1,0.4h-1.5l-0.4-2l-0.7-0.9
		L181,316l-0.3-0.9h-0.8v-1l-1.5-0.9l0.9,1.1l-0.3,0.6l-0.1,0.9l0.9,0.7l-0.2,1.7l-0.8,0.8l0.3,1l-2.2,1.8l-1.4-0.2l-0.9-1.2H174
		l0.6,1.3l-0.1,0.6l1.3,0.4l-1.8,1.1h-1.2l-1.1-0.5l-0.4,1.5l-3.3,2.3l-1.6-0.2l-0.2,0.4h-0.9l-0.1-0.4l-0.2,0.8l-0.8,0.2l-0.9-1.2
		l-2.3,1.2l-0.2,1.1l-0.9,0.1v-2.3l2.2-2.1l0.1-2.7l-1,2.4l-1.8,1.5l-1.3,2l-0.2-0.8l0.2-0.6l-0.5-1.8l1.3-8.3l1.9-1.2l-0.8-0.8
		l-1.5-3.7l-0.2-3.3l-0.8-0.4l-0.5-0.9l0.5-0.3l-1.2-0.9l-0.6-2.4l-0.9-1.3l-0.6-1.3v-1.5l-2-1.3l0.7,1.4l0.4,2.9l-3.1-0.9l-1.5-1.8
		l-0.1-0.9l-1.6-1.4l-0.2-0.9l1.5,0.1l0.6,1.3l1.3,0.7l0.5-0.6l-0.5-0.2l-1.2-1.1l1.3-0.8l0.9,0.9l1-0.4l-0.1-1.4l-1.6-2.4l-2.6-0.5
		l-0.7-1.1l-1.5-0.2l-0.4-1.1l-0.2,1.1l-1.5,0.2l-0.1-0.7l1.3-1.5l-1.6,0.1l-1.3-1.1v0.8l0.8,1.5l-3.7-3.3l-0.7-2.2l-0.8-1.8
		l-0.1-0.6l0.1-0.5l-0.2,0.6l0.1,0.6l-0.2,0.2l0.4,2.1l-0.2,0.1l-1.2-3l-1.5-2.2l-0.7-0.9l0.4-1l0.1-1.3l-0.2,0.7l-1,0.9L133,277
		l0.6-2.3l-0.6-0.4l0.4-1.9l0.1-1.1l-1.1-0.7l-2.6-5.8h-0.7l0.1,0.5l-0.6-0.2L127,266l-3-1.4l-0.3-0.6l-0.9,0.1l-1.5-1.4l-0.7-2.5
		l0.3,2.9l1.1,1.7l-0.2,0.9l-1.7,0.7l1.1,0.4l1.1,1.9l-0.2,2.2l-1.6,0.6l-1.3,2.5l-1.3-0.9l0.8-1.5l0.7-0.3l0.4-0.8l-1.2,0.6l-1,1.7
		l-1.1-1.6l0.9-2.8v-0.5l-0.6-0.7l0.4,0.8l-0.7,1.1l-0.2,1.8h-0.5l0.9,2l-0.1,1.5l-0.8,0.5l-0.1-0.2l-1.1-0.7l-0.7,0.3l-0.4,1.2h-1
		l-0.4-0.8l-0.7-1.6l-0.8,0.3l-0.2-2.6l-0.6-1.4v-2.3l-2.4-3.4l-0.4-2.6l0.3-1.5l-0.8-2.1v-2.8l-2-2.6l-0.1,0l1.9,2.4v2.8l0.8,2.1
		l-0.3,1.5l0.4,2.6l2.4,3.4v2.3l0.6,1.2l0.2,2.6l-0.4,0.1l0.9,1.9l-0.9,1.5l-1.3-1.4v0.9l-0.9-0.5l-0.6-1.9l-0.3-0.9l-0.2,0.7
		l-0.2,1l-0.2-0.4l-0.3,0.6h-1.3l-0.2,0.3l-1.4-0.4l-0.4-2.1l0.7-0.9l-1.3-1.1h-1.4l0.1,0.4l1,0.2l0.7,0.8l-0.5,0.5l-0.5,1.2
		l-0.1,1.2l-1.2,1.4L95,278l-0.9,0.8l-0.4,1.3l-0.8,1.6l0.3,1l0.9,1.8L94,285l0.5-0.3l-1.9,1.6l-0.4,1.5l-0.9,0.1l0.3,1.1l-3.1,2.2
		l-0.2,1.1l-4.5,2.3l-0.5-0.7V293l0-0.1l-1,0.8l-0.9,0.1L81,296l1.3-0.5l0.4-0.6l0.7,0.4l-5.7,5l-1.5,4l-7.5,6l-1.1,2.2l-1.7,1.7
		l-3.2,1.1l-2.4,2l-0.2,1.8l0.3,2l-1.4,2l-2,1.3l-3.7-0.6l-1.6,1.4v1.8l-2.3,2.9l-1.3-0.1l-0.9-1.3h-0.7l-2.8,2.8l-0.8,1.5v3
		l1.4,4.1l-1.3,1.5l0.2,2.3v6.5l2.1,0.7l0.3,4.1l-1.9,5.5l-2.2,3.9v3.2l0.8,1.3l0.7,7v1.9l-1.6,0.6l-0.9-0.4l-2.2,0.3l-0.9,1.7
		l0.4,0.7l-2.2,2.9l-0.8,0.9l0.2,1.1l2.7,1.4l0.3,0.5v0.6l-0.4-0.8l-1.3-0.5l-3.6,1.3l-0.6-0.1l-2.9,1.3l-0.9,1.5l-0.1,0.9l-0.4,0.4
		l0.4,0.7l-0.8,2.2l-3.3,2l-2.7-0.2l-2.5-1.8l-2.5-2.9l-3-6.2l-0.2-3.5l-0.9-3.2l-1.9-3.5v-1.6L9.7,374l-0.8-2.3l-0.8-2.9l-2.5-2.9
		l-1.5-2.3l-0.7-0.1l-2.3-2.4l-1-2.2l-0.8-0.7l-0.2-3.5l-0.9-1.5l-1.5-3.8l-0.4-2.6l-0.9-1.8l-0.9-1.3l-0.2-3.1l-0.5-0.1l-2.2-2.5
		v-0.9L-9,337l-2-3.5l-0.1-1.1l-1.1-0.6l-0.7-2.5l-1.4-0.9l-1.3-3.6l-0.1-4.7l-3.5-6.9v-2.3l-1.6-2.4l1.8-0.1l-2.4-3.2v-1.8l1.1-0.2
		l-0.9-1.2l-0.1-1.5l-2.5-4.6l-0.4-2.9l1.5-0.8l-1.3-0.8l-0.1-1.5l0.9-1.9l-0.2-2.4l-0.8-2.4l-0.9-0.6l-0.7-3.9l1.8-1.1l0.6-0.9h1.3
		l-1.4-0.3l-2,0.3l-1.1-0.1l0.2-1.6l-0.8-1.4l0.3-1.7l0.4-0.3l1.1,0.2l1.4-1.4l0.7-1.1l-1.5,0.9l-1-0.5l-2,0.2l-0.6-1.3l-0.2,1.1
		l-0.1,1.7l-1.2,3.2l1.2,1.5l-0.3,3l-1.3,1.3l-0.1,0.9l-2.8,1.5l-4.3,2.7l-2,0.7l-3-0.7l-6.4-5.2l-2.6-3.5v-0.6h-0.8l-1.1-0.6
		l-3.7-3.7l-0.3-1.1l0.3-0.9l1-0.1l0.3,0.5l1-0.3v1.9l1.4,0.2l0.9-0.8l0.5-0.1l0.9,0.6l0.2-0.6l3.4-2.7h1l1.6-2.4l0.5,0.1l0.7-1.6
		l-1.7-0.1l-0.5-0.3l0.2,0.5l-0.2,0.7l-3.5,1.5h-2l-1.6,0.5l-5.5-1.9l-2.6-2.7l-1.1-0.5l0.1-1.7l1.6-2.2l1.8-1l-2.3,0.4l-2.3,1.5
		l0.1-2.2l1.8-1.1l1.1-0.3l0.7-2.1l1.3,0.3l1.4-0.7l5.7,0.3l3.3-1.2l0.7-0.7l1.9-0.6l-0.7,1.2l0.8,1l1.9-1.1l1.5-0.5l-0.7-0.8
		l0.2-1.2l-1.9-5.3l-1.6-2.2l0.4-1.1l-1.1-1l-1.6,0.1l-2.7-1.8l-0.4-3.1l0.1-2l-1.2-2.6l-1.5-0.1l-0.9,0.5l-2-0.7l-1.4,0.1v-2.1
		l1.3-3.4l1.3-0.4l2.2-3.2l0.4-1.4l1.5-0.8l1.1-0.8l1.8,0.8l0.4,1.6l1.2,0.2l3.1-1.6l4.4-0.2l2.6-3l1.6-4.9l3.9-2.7l1-1.8l0.4-2.7
		l1.9-2.6l2.7-1.3l0.9-2l-0.1-1.6l-1.1-0.9l2.4-2.6l1.3-1l0.2-2l0.4-4.2l-0.9-3.1l-0.5-0.7l2.6-2.5l1.5-0.5l1.6-1l1,0.2l1.7-1.9
		l0.5-0.6l2.5-4.1l2.5-2.2l2.1-0.1l1.1-2h1.8l4.6,3.1l2.4-1.3l2.3,0.9l1,2.2l2.1-0.1l3.4,2.1l0.5,1.1l0.1,1.4l2.2,1.1l0-0.3
		l-2.2-1.1l-0.1-1.4l-0.5-1.1l2.4-2.6l1.4,0.5l0.3,1.1l1.1-1.8l-0.5-3l-1-3.7l-2.2-0.5l-1.6-3.7l0.2-4l-1.2-2.1l-2.8-1.4l-2.2-2.5
		l-1.4-4.1l-2.7-1.4l-3.3-1.1l-0.4-1.9l-1.5-0.4h-3.3l-3.4-0.4l-0.9-1.1l-1.4-1l-0.1-2.2l-2.2-1.5l-3.8-5.4l-0.9-2.6l-1.3-1.2
		l-1-0.1l-0.8,0.9l-1,0.7l-1.4-0.1l-0.9,0.6l-1.5-1.4l-1.1,0.3l-0.8,0.5l-1.3-0.3l2.5-2.2l-0.4-1.4h-3.5l-1.1,1.3l-3.1,0.4l-0.4-1.8
		l-2.4,0.5l-3.8,2.4l-1.1,1l-0.4,1.5l-1.3,1.2l-2.9,1.3l-0.3,0.9l-1.4,1.1h-2.1l-1.5-0.6v-1.1l-1.3-1.7l-0.1-3.3l-0.2-1.7l0.1-2.1
		l-0.6-1.6l-1.4,0.1l-0.5-1.6l0.4-1.9v-1.3l-1.5-0.8l-1.5-1h-2l-0.9,1.5l-0.3,2.4l-1,0.9l-0.7,1.1l0.4,2.3l-1.1,1.8l-1.8,0.2
		l-0.2-0.9h-0.9l-0.7,0.9l-1.8,0.5l-0.1,1.1l0.8,0.8l0.1,1.3l-2.9-0.2l-0.9-1.2l-0.9-0.6l-1,0.9l-1,0.2l-0.9,1.3l-1.8,1l-2.8,0.6
		L-84,130l-1.8-2.4l0.7,0.9l0.6-5.3l1.8-4.1l0.8-1l-0.2-2.3l-1.7-0.7l-0.9-2.4l0.8-1.7l-0.4-1.9h-2.4l-1.5,0.8l-2.2-3.1l-0.1-2.6
		l1.7-1.3l3.7,0.5l1.5-0.4l0.2-1.9l3.3-1.1l-0.5-1.3l-0.7-0.7l3.6-0.9l2.8-1.2l0.1-1.7l-2.6-1.3l0.1-2l2.1-0.8l2.2-1.6l1.7,0.1
		l2.6-2.7l1.8,1.9l0.7,1.2l4.1-0.7l2.9,0.2l2.4-2.6l-0.4-1.7l-4.1-3.2l-1.1-0.2l-0.2,2.4l-1.4,1.6l-1.5-0.5l-1.5-1.5l-3.7-1.1
		l-1.6-1l1.3-2.1l2.6-4.1l-0.1-1.8l-0.9-0.1l0.2-0.7l1.8-1.2l-0.6-1l1.6-1.7l2.8,0.4l1.5,0.9l6.1,0.6l5.2-0.1l2.6-0.4l-0.1-2.2
		l-0.5-1.9l-0.2-1.8l1-0.5l1.5,0.4l2,0.1l0.9-0.4h2.6l1.8,1l3.4,0.9l4.6,0.6l1.5-0.7l1.5-1.3l1.9,0.6l2-0.3l4-1L-16,64l2.7-0.9
		l5.1,0.3l3.5,1.4l1.5-0.4l3.5,4.1l3.7,1l1.7-0.9l-0.1-2.2l1.6-1.1l0.2-1l0.7-0.4l-1.4-1.6l0.5-1.5l1-0.9l-0.7-3.4l-1.8-1.3
		l-0.3-1.4l-1.5-2.5l-0.3-1.8l-0.7-1.1l-0.1-1.3L2,44.6l1.1-1.3v-0.8l-1.9-0.2l-2.3,0.2l-1.4-1.1v-1.1l1.5-1.4l1.3-0.6l1,0.5h1.2
		l2.6-1L8.8,37l2-0.5l1.1-0.5l1,0.9h1.3l1-0.6h1.1l0.2-1.3l0.8-1.7l-1.9-0.9l-1-0.7l0.4-1.3v-3.7l0.8-4.8l0.1-1.9l0.7-2.4l0.7-3.8
		l1-0.1l1.9,0.2l3.3,1.1l2.2,0.2l3.3-0.7h1.4l0.4,1l0.8,0.3l1.2-0.4l1.5-1.7l1.8-0.7l2.1-2.4l0.2-1.1l8.5-49.6l75.4-5.5
		 M224.9,415.4l-0.5,0.4l1.5-0.2l1.1,1l0.5-0.4l-1.1-1L224.9,415.4z M214.8,407.5l-0.4,0.5l1.4,1.3l2.3,0.7l0.4,1h1.8l1.1,1.1
		l-0.2,2.4l-0.9,1.2v1.2l2.2,0.5l0.5-0.4l-2.2-0.5v-1.2l0.9-1.2l0.2-2.4l-1.1-1.1H219l-0.4-1l-2.3-0.7L214.8,407.5z M91.9,217.6
		l0.9,0.4l0.5-0.2l-0.9-0.4L91.9,217.6z M96.9,217.2L96.9,217.2L96.9,217.2L96.9,217.2L96.9,217.2z M266.9,273.6l-0.3,0.1l0.3,0.3
		l0.2-0.2L266.9,273.6z M14.4,180.9l0,0.2l0.8,1.4 M260.1,371.6l-0.8-1.8l0.3-1.1l-1.5-1.6l0,0l1.4,1.5l-0.3,1.1l0.8,1.8l-2.5,0.2
		l0,0.1L260.1,371.6z M240.6,378.7l0.9-0.4l0.4-2.5l-0.5-0.2l-0.5-1.1l-1.5,1l0.9,1.1l-0.4,0.9L240.6,378.7z M462.9,515.8l-2.4,1.7
		l0.9,1.1l1.5,0.8l1.1-0.2h1.4h1.1l0.5-1l-2-2.2L462.9,515.8z M209.1,381.6l1.1,0.3l0.4-0.9L209.1,381.6z M309.8,507.9v-0.6
		l-0.7-0.2l-0.9-0.9l-2.2-0.4l-0.2,0.7l1.1,1.5h0.8L309.8,507.9z M296.4,459.6l-0.9,1.2l1.6,1.7h1l-0.4,1.3h1.3l0.8-2.4l-1.9-2.6
		L296.4,459.6z M305.1,458.5l2.1,0.2l0.7-10.2l-0.6,1.8v2.4l-1.5,2l0.1,0.7l-3.3-0.4l-3.4-1.3l-2.4,0.1l-0.9-1.3l-1.4-1.6l-0.6,0.2
		l1.7,3.1l2.7,1.9l0.3,0.7l1.9,1.8l0.7,1.4l1.2,0.2l2.4-0.7L305.1,458.5z M364.1,531.6v2.2l0.5-0.1l0.2-2.4l-0.4-0.4L364.1,531.6z
		 M307.7,503.1l-0.3-0.5l-2.1-0.7l-0.3,0.2l0.3,0.8l1.5,0.6L307.7,503.1z M289.2,279.2l0.7,0.8l1.1-0.1l1.6,0.3l0.1-0.7l-1.5-0.6
		L289.2,279.2z M309.8,508.6l-2.1-0.2l0.1,1l-0.3,1.1l0.7,1l1.1-0.3l1.7-1.7L309.8,508.6z M362.4,530.7l-1,2.4l-0.3,2.4l0.7,0.9
		l1.3-0.9l0.5-1.6v-3l-0.4-0.7L362.4,530.7z M284.4,525.3l1.1-0.9l-0.8-0.6L284.4,525.3z M294.2,521.1l-2.9-0.7l-0.9,0.2l0.6,1.5
		l-0.1,0.9l-1.8,0.4l-0.6,0.9l1.3,0.1v-0.6l1.1-0.5l-0.1,2.4l1.3,1.4l1.5-2.2l0.9,1.4l1.3,0.3l0.6-1.2l1.3-0.6l-0.7-1.7L294.2,521.1
		z M240.4,300.4l0.2,0.3l0.1,0.1l-0.2-0.3L240.4,300.4z M288,482.4h-1.2l0.1,0.8l1.3,0.6l0.5-0.7L288,482.4z M289.4,300.8l-0.3-1.4
		l0.9-2.6l0.9-0.7l0.4-1.2l1.3-2l-0.7-2.2l-1.8-1.1l-1.8-0.7l-1.2,0.9l-0.9-0.7l-1.7,0.4l-0.9-0.2l-1.2,0.8h-1.5l-1.6,0.8l-1.5,0.2
		l-0.4,1.6l-2.5,1.5l-2.2,2.3l0.8,1.3v3.1l1,1.6l-0.1,1l1.5,1.1h1.8l1.1,0.9h1.2l1.5,1l1-0.5l0.4-1.5l1.3-0.2l1.4,0.4l1-1.3l0.1-1
		l1.5-0.3L289.4,300.8z M265,443l0.9-0.5l-0.9-0.9V443z M281.2,468l-0.6,1l1.2,0.2L281.2,468z M283,432l-1.8-2.6l-1.4,0.9l-0.9,1.2
		l1.7,1.6h0.9l-0.4,1.3h1.2L283,432z M281,465.7l0.1,1.5l0.9-1L281,465.7z M281.8,471.8l-0.9-0.9v1.3L281.8,471.8z M278.2,469.8
		l-1.4-0.6l-1,0.2l-0.2,1.5l0.9,0.6L278.2,469.8z M280.8,520l-1.8-2.1l-0.6-3.9l-0.7-0.7l-0.2-1.5l-1.2-0.7h-1.1l0.1,1.5l0.6,1.1
		l-1.6-0.6l-1.1-1.2l-0.6,0.3l-0.1,1.4l-1.6,1.2l1,1.4l3.1,0.3l0.8,0.9v1.7l0.9,0.7l0.4,2.3l1.9,1.3l1.7-0.2l0.5,1.7l0.8,0.7
		l0.9-1.3l-0.5-1.8l1-2.1L280.8,520z M-69.4,72.6L-69.4,72.6l-0.5-0.1L-69.4,72.6z M349.8,70.5l1-0.6l-0.2-1.4l-3.7-2.2l-2.6-3.1
		l-0.6,1.6h-1.5l-0.8-0.5h-1.9l-1.1,1.8l-0.7,0.4l-1.3,2.1l13.2,2.6L349.8,70.5z M231.1,366.6l0.7-0.1l0-0.1L231.1,366.6z
		 M408.9,4.3l-1.1-0.4l-1.3-0.4l-0.7,0.2l-1.5,2.4l-0.4,1.1l-0.8,1.1l-1,0.1l-1,0.7l-0.4,0.8l0.6,1.4l2,3.1l0.4,1.3l0.5,1l-0.5-0.2
		l-0.1,1.2l9.5-12.7L408.9,4.3z M265.3,504.2l1.6-0.9l-0.5-1.6h-1.5l-0.9,1.1L265.3,504.2z M80.7,14.5l0.1,0.2l-0.2-0.4L80.7,14.5z
		 M231.2,454.9l-0.9,0.1l2.1,3.1l0.8,0.7l1.1-1.8l-0.9-1.3L231.2,454.9z M415,5.5h0.9l0.7-0.8l-0.2-1.2L415.7,3l-0.1-0.9l0.3-0.7
		l-2.8,3.7l1.1,0.2L415,5.5z M254.9,472l0.7-0.6l-2.5-2.4l-1.3-0.3l-0.9,1.6l0.9,1l1.3-0.4L254.9,472z M251.8,456.7l-0.8,0.7
		l-1.3-0.1l-0.8,1.7l1.8,0.5l0.5,2.1l1.1-0.4l0.5-2.6l-0.8-0.9l0.7-1.3L251.8,456.7z M265.8,440l-0.6-1.1l-0.5,1L265.8,440z
		 M237.3,458l-2.2-0.4l-1.2,2.1l0.3,1.6l2.8,0.2l2,1l0.6-0.5l-0.5-2.4L237.3,458z M241.6,481.2l1.6-1.7l-1.5-1.8l-1,0.9l-1.5,0.2
		l0.9,2.6L241.6,481.2z M248.2,457.9l-0.3-1.2l-2.2,2.2l1.7,0.6L248.2,457.9z M267.6,500.4l2,1l0.7-0.5l-2.5-2.5l-1.4-0.4l-1,1.7
		l0.8,1.1L267.6,500.4z M226.9,453.2l1.5-1.7l-1.5-1.7l-1,0.8l-1.4,0.3l0.9,2.5L226.9,453.2z M249.6,473.4l1.3,1.3l1.5-0.8l-0.5-1.6
		h-1.4L249.6,473.4z M265,438.2l0.9-1l-1-0.5L265,438.2z M262.3,440.7l-1.3-0.5l-1,0.2l-0.2,1.5l0.9,0.6L262.3,440.7z M211.7,275.8
		L211.7,275.8l-0.5,0.4l0,0L211.7,275.8z M248.7,489.7l2.9,0.4l2,1.1l0.7-0.5l-0.5-2.5l-1.8-1.7l-2.2-0.5l-1.3,2.1L248.7,489.7z
		 M80.8,14.7L80.8,14.7l0.6,0.8l0,0L80.8,14.7z M489.6,174.7l-0.4-1.3l-1,0.2l-0.7,1.1v1.5l0.9,1.9h1l0.3-1.2l-0.3-0.8L489.6,174.7z
		 M252,33l3.2,2v-0.1l-3.4-2.1l-3.5-2.4l0,0.1L252,33z M282.8,11.9l-1.8,0.4l-3.7,2.5h-2l-2-0.4l-1,0.7l-1.6,3.3l-1.5,1.1l-1.9,1.4
		l-1.1,1.2l-0.5,1.3l-0.9,0.2l-1.8-0.9l-2-0.4l-2.5-0.9l-2-1.5l-2-0.1l-3.3,0.7l-1.9,1.4l-1.2,1.8l-0.1,3.7l0.2,1.8l-0.1,1.1
		l0.2,0.1l0.1-1l-0.2-1.8l0.1-3.7l1.2-1.8l1.9-1.4l3.3-0.7l2,0.1l2,1.5l2.5,0.9l2,0.4l1.8,0.9l0.9-0.2l0.5-1.3l1.1-1.2l1.9-1.4
		l1.5-1.1l1.6-3.3l1-0.7l2,0.4h2l3.7-2.5l1.8-0.4l0.9-1.1l-0.1-1.8l-0.2,0l0.1,1.6L282.8,11.9z M484.2,176.2v-1l-1.2-0.3l-1.5,1.5
		l1.5,0.4L484.2,176.2z M462.3,226.7l0.5-1.4l-0.2-1.6l-1.1-0.9v1.3l0.4,3.1L462.3,226.7z M473,494.7l1.4-3l-0.1-1.2l-0.9-1.1
		l-2.7,0.9l-2.6,1.2l-0.2,1.2l0.9,0.1l-0.8,0.9l-1.5,0.6l-0.6,1.3l-1,0.2l-0.7-1.4l1.3-1.2h1.3l0.7-2.1l0.1-2.6l-1.5-0.7l-0.3-0.9
		l1.3-1.4l0.2-1.3l-0.9,0.2l-2.6,2.4l-0.6,2.4l0.1,2.2l-1.1,0.8l-0.6,2.2l0.8,1.1l0.9,1.8l-0.7,1.1l-0.4,1.7l1.6,1.4l-0.3,1.1l0.3,1
		l-0.7,1.8l1.1,2l1.8,1.2l1.3,2.8l1.5,0.7l0.3,1.4l0.2-1.1l0.7-0.2l-0.4-0.8l-2.2-2l-0.6-2.4l-1.3-2.8l0.1-3.2l1.3-0.4l2,0.7
		l2.2,0.1l1.1,1l1.7-0.1l-0.8-0.7l-0.3-1.3l-2.1-1.6l-1.1-0.2l-0.7-1.2l1.1-1.3L473,494.7z M471.7,485.7l1.3-1.2l-0.4-1.3l-1.1-0.7
		l-1.1,0.8l-1.3,0.4l0.4,2.7l1-0.8L471.7,485.7z M487.9,180.5l-2.1-1.7l-1.5-0.1l-1.4-1.1l-2.5-0.1l-2.4,2v1.2l-0.9,1.4l-1.7,0.6
		l-1.5,1.1l-0.9-0.3l-1-2.5l-0.9,0.1l-2.6,2.9l-0.1,1.8l-1.7,1.2l-0.4,2l2.7,0.7l0.5,1.9L469,192v1l1.5,2.3l2.4,0.3l-0.1,1.2
		l0.8,0.4l0.6-0.7l1.2,0.4l0.9-0.3l-0.1-1.2l-1.7-1.9l0.8-1.7l0.9-2.8l2.3-1.4l0.6-1.1l2,0.3l2.7,1.7l0.7,1.3l1.2-0.6l0.9-3.4l2.2-2
		l0.2-1.3l-0.7-0.7L487.9,180.5z M476.7,503.1l1.1,1.4l2.3,1.3l-0.2-0.9L476.7,503.1z M402.1,33.8l-0.1,0.1l2.3,0.1L402.1,33.8z
		 M325.6,263h-0.9l-0.2,1.5l-0.8,0.7l2.1-1.7h-0.1L325.6,263z M375.5,55.2L375.5,55.2l-1-0.6l-1.8-2.7l-0.2,0.2l1.5,2.3L375.5,55.2z
		 M358.9,80l0-0.1l-0.1,0.3l-1-0.1l-1.8,2.2l2.9-1.5l0-0.1V80z M555.8,25.1l-1.1-0.4l-1-0.9l-0.6,0.7l-0.3,2.3l-0.5,2l-0.4,2.9
		l-1,1.9l0.4,1.2l1.7,2l0.1-2.7l1.1-4.7L555,29l2.4-2.2l0.4-2.1h-0.6L555.8,25.1z M561.5,34.1l0.9,0.3l1.7-1.1l0.3-1.4l-1.4,0.6
		L561.5,34.1z M323.9,104.4l-0.9,0.5l0,0L323.9,104.4z M575,8l-1.5,0.9l-0.3,0l0.1,0.2L575,8z M571.5,7.6l-2,2.3l1.1-1.5l-1.2,0.1
		l-1.4,1l-1-0.4l-0.7-1.5l-0.4,0.2l-0.7,1.6l0.6,1.1l-0.7,1.3l-1.1,2h-0.9l0.1,1.1l-0.5,1.9l-1.5,0.8l-0.2,1.1l0.9,1l-0.8,0.7
		l-0.3,1.4l0.5,2.1l0.9-0.4l0.6-2l1.3-1.2l-0.3-2.5l0.9-0.9l0.1-1l0.9-0.7l1,0.4l1.3-1.3l1.4-2.9l1.9-2.3l1.9-0.2l-0.5-1.7
		L571.5,7.6z M555,39.6l-0.9,1.5h-1.5l0.2-1l-0.1-1.5l-1.6-2l-2.3-1.5l-0.7-0.9v-2.6l0.9-1.9v-1.6l-0.5-0.8l-0.4,0.6l-0.4,1.7
		l-1.5,2l-3.1,2.1l-2.4,0.3l-0.7-0.5l-1.5,0.3l-1.9-1.8l-2.4-0.3l-2.9-1.4l-1.7-1.8l-1.9-0.4l-0.8-1.4l-2.4-1.8l-4.4-4.3l-1.3-2.6
		l-2.6-0.6l-3.1-2.6l-0.7-1.5h-2.2l0.2,0.8l-1,1.2h-0.9l-0.5,0.6l0.8,1.3l0.5,2.3l3.3,5.1l0.8,2.2l0.2,3.6l-0.3,1.3l0.9,2.9l0.7,1.9
		l-0.2,0.8l-0.8,0.1l-1.5,1.7l0.6,1.8l1.1,1.7l0.4,0.9l0.9,0.5l0.6,1.4l-0.6,0.6l-0.1,1.4l-1.1,0.9l-3.2-0.5l-3-1.7l-1.4,0.3
		l-0.7,1.5l0.6,0.7l0.7,0.1l2,1.5l0.2,0.8l-0.7,0.9l-0.9,1.9l-1.3,0.2l-0.3,0.9l-1.1,0.7l-0.7,1.5l0.5,1.9l-0.2,2.6l0.2,1.3h1.1
		l1.6,1.1l1.5,1.3l1.2,3.3l0.6,3.5l-0.6,0.4l0.7,1.6l1.6,1l2.3-2.6l0.7-1.6l-0.2-1.4l1-0.7l2.6,0.1l1.3,1.1l0.5-1.4l1.5-2l-0.8-1.1
		h-2.2l-2.1-0.6l-2.4-2.7l-2.1,0.6l-2-1.1l-0.6-1.5v-1.9l1.3-1.1l1.3-0.1l2.4,1.5l1,0.6l2.3-3.1l2.2-1.6l1.8,0.1l0.8,0.8l1.5,0.3
		l1.7-0.3l1.7,1.9l2.6,2.3l2.9,1.5l3,0.8l1,1.3l1.7,0.7l-0.1-1.5l0.3-1.6l-0.5-2.2l0.4-3.2l1-3.9l2.6-3.6l1.6-0.5l1.9,0.5h2.4
		l-0.1-1l1.3-1.1l0.7,0.6l1.3-0.1l0.7-1.1l0.3-1.5l1.7-0.7l1.2-0.9l0.1-1.9l0.9-0.6l0.6-1.4l-1.2,0.1L555,39.6z M542,153.9l-1-1
		l-2.2-3.1l-0.8-2.3l-0.6-4.6l0.7-5.4l0.1-3.7l-1.7-6.7l-2.4-3.2L533,122l0.6-3.1l3-1.4h1.5l0.8,1.3l0.5-0.7l-0.5-2.2l-0.3-1.5
		l-0.6-0.7l-0.5-1.9l0.1-1v-1.5l0.7-1.2v-0.6l0.2-1.5l-0.6-0.8l-0.1-2.4l0.4-1.2l-0.8-1.4l-0.6-3.7l-1.8-3.1h-1l-1.1-0.6l-0.2-4.1
		l-1.8-1.7l-3.9-4.4l-1.1-2l-0.8-3l-0.2-2.9l0.1-1l-1.1,0.7l-0.9,0.1l-0.4-0.6l-1.7-0.8L520,73l0.1,0.6l-0.9,2.4v1.6l0.9,0.8L521,78
		l2.2-1.9l1,2.4l-0.7,1.8l-1.1,0.7l-1.3-0.9h-0.4l0.6,2.3l-0.9,0.9l-1.3-0.5l-0.3-1.7l-0.3-2l-0.6-1l-1.2,0.4l-1.1-0.6l-0.4,1.5
		l0.7,2.8l0.1,2l-1.1,0.4l-1.1,1.7v1.1l2.4,2.4l0.8,1.5l-0.8,2.6l-1.3,0.8l-1.5-0.3l-0.3,1.1l1.4,1.8l1.5-0.4l1.3-1.4l1.9,4.2
		l0.7,4.6l-0.4,2.6l0.2,4.6l-1.7,6.7l0.5,2.6l-0.8,2.9l-2.4,1.3l-1.1,2.9l0.1,3.2L513,133l-0.3,2l-2.3,2.2l-4.6,2.8l-1.8,0.5
		l-0.9,1.8l-2.3-1.3l-2.2-2.8l0.1-1.2l1-0.5l1-1.8l-0.2-1l1.2-1.2l-0.1-0.5l-2.2,0.5l-1.6,1.6l-2,0.8l-0.4,1.8l1.3,2.3l0.3,4.5
		l-0.3,2.2l-2.2,2.3v1.3l-0.8,0.9l-0.3,3.4l0.8,0.9l0.1,1.4l-0.6,0.5l0.4,0.6l-0.5,1.2l-0.9,0.1l0.6,0.9l-1.5,0.6l-1-0.8l-1.4,1.1
		l-0.8-0.3l-0.4-2l-0.5-0.2l-1.3,0.9h-1.2l-0.6-0.4l-4.2,1.5l-2.2,0.9l-2.2,0.8l-2.5,0.2l-2.4,0.7l-0.9-0.5l-2,0.2l-3.6,2.5
		l-0.7,2.2l-1.3,0.9l-0.3,1.4l-2.6,3l-1.6,0.6l-1.4,1.9l-0.4,1.3l-1.4,1.5l-2.6,0.5l-0.9,1.3l0.6,3l1,0.5l0.3,1.1l-0.6,1.1l-1.4,0.1
		l-2,1.6l-0.5,1.1l-1.3,1l-1.8,2L445,192h-1.5l-1.8,1h0.9l0.9,0.1l0.7,1.7l0.8,2.3l-0.7,0.6l-0.3-1.5l-0.8-1.1l-0.4,1.5l0.5,1.8
		l1.2,0.5l0.2,1.1l-0.6,1.2l0.9-0.5l0.7-1.3l1.5-0.5l0.9,0.3l-0.7,0.7l0.7,0.5l1.5-0.4l-0.2-1.8l-1.1-0.9l-1.8,0.4l0.1-0.8l0.5-0.8
		l-0.4-1.5l0.8-1.1l1.6,0.6l1.7,2.9l0.2,2.1l0.8,1l0.1,3.3l-1.4,3.1l-1.7,0.2l0.4,1.1l1.5,2.5l0.6,3.3l1.6,1.9v1.6l-0.8,1l1.2,1.5
		l1.5-0.2l1.3,0.8l0.6-0.7v-1l-1.4-2.2v-3.1l0.9-1l1,0.8l-0.6,0.9v0.9l1.5,1.5l0.6,2.6l-0.5,1.5l0.2,1.3l1.8-1.1l1.9-2.6l-1.7-1.8
		l-0.1-1.1l0.9-0.4l1.4,0.4l0.8,0.6l0.5-2l-0.1-3.1l-0.5-1.5l0.1-5.5l-0.2-2.9l1-1.8l1.8-1.8l-0.4-1.5l-1-0.3l-0.1-1.8l-1-0.2
		l0.3-1.3h-3.2l-0.4-0.7l1.5-0.9l0.5-1.2l-0.5-2.5l-1.3-0.8l-1.5,0.3v0.6l-1.3,0.9l-1.3-0.2l-2.1-2.3l0.3-1.3l2.9-1.5l2.6-0.5l2.9,1
		l1.5,0.7l0.3-0.8l-0.1-1.3l0.2-2l-0.3-1.3l0.5-1.1l1.3-0.1l0.8,1.1l1.3,0.1l1.6-0.9l3.2-0.6l3-1l2-0.1l0.8,0.3l1.1-0.5l0.1-0.6
		l2-1.1l0.5-1.1l2.2-1.8l2.3-0.8l2.9,0.5l1.7-0.4l0.8,0.7v1.6l-1.4,2l-0.4,1.6l0.9,0.6l0.2,1.8l0.1,1.8l-0.3,0.7l0.5,1.8l2,0.9
		l2.7,2.5l1.8,0.5l1.2-0.6l1.9-2.8l0.2-1.8l1.1-0.7l0.3-0.9l-0.4-1.3l1.3-2.3l1.7-0.2h1.5l0.5-1l-0.4-0.7l-0.4-2l-3.4-1.5l-0.4-1
		l0.8-2.6l1.1-1l0.7-0.2l-0.4,0.8l0.2,2.1l0.7,0.6l0.9-0.6l0.4-0.6l1.3,0.3l1,0.7l1-0.3l0.7,0.2l-0.4,0.8l-1.7,0.4l-0.2,0.5l0.6,0.3
		l1.5-0.4l2.4-1.3l4.8,0.4l2.5-0.3l-0.7-0.6l-0.5-2l0.5-2.2l2.1-1.1l1.6,0.3l0.3,2l-0.6,1.8l0.8,1.4l1.5-0.1l1.5-2l-1.1-3.3l0.6-2.1
		l2.4-1.8l1.3-0.1l0.4-0.9l-0.9-1.1l0.5-2.3l1.2-0.8l1.8,0.4l0.4,1.1l-0.9,1.3l-0.5,2.6l0.5,5.5l0.9,0.4l1.3-0.8l0.8-1.8l1.6-0.1
		l1.8-2l0.7-2.5l-0.4-1.6l2.1-2L542,153.9z M370.8,57.1l0.1,0.9l-0.8,1.6l-1.5,4.5l-1.8,0.8l-1.6,3.1l-2.4,1.6v1.6l-1.1,2.4
		l13.8-18.4l0.1,0l1.3,1.2l0.1-0.1l-1-0.9l-0.5-0.2l28.1-37.4l0,0.5l0.2,2.2l0.2,1.5v3.2l-3.8,0.8l0.1,1.6l0.1,1.7l-0.5,0.9
		l-0.1,1.2l0.3,0.9v1.6l1.9,0.1l-1,0.6l-0.1,0.7l0.3,1.6l0.7,0.4v1.1l-0.2,0.5l-0.4-0.7l-2.9-0.7l-0.8-0.9v-1.9l-1.6-1.3l-1.2,0.5v0
		l1-0.4l1.6,1.3v1.9l0.8,0.9l2.9,0.7l0.1,1.2l1.6,2.2h-0.6l-3,3.4l-1.1-0.2L398,47l-1.3,4.6l0.2,2.6l-3,1.5l0.1,4.8l1.5,1.1
		l-0.8,2.2l-2.4,2l0.5,0.7l0.3,4.8l0.6,1.4l-1.3,1.2l-0.4,1l-1.9-0.1l-1.8,1.2l-0.8,2l-2.4,1.5v2.3l0.7,2.1l-0.9,1l0.6,2.4l3.4,0.6
		l1,1.5l6.8,3.9l1,1.9l0.5-0.3l3.4,6.2l5,5.2l5.5,6.8l0.2,4.1l1.4,1.5l1.3,6.5l0.1,2.2l0.6-0.7h0.6l0.5,7.1l-1.3,1l0.6,1l-2.5,3.2
		h-2.1l-2.2,1.4l0.7,1.3l-0.9,0.7l-0.7-0.9l-1.8,0.7l-0.9-1.8l-1-0.1l-1.3,1.5l-0.3-1l-1.7,0.4l-4.1,3.6l-1.3,1.9l-0.9-1.1L395,148
		l-1.3,1l0.1-1.6l-0.7-0.6l-0.4-2.1l-1.3-0.1l-2.2-4.4l1.2-0.1l-1-1.8v-1.8l1.1-0.6l-0.1-1.6l-1.3-1l0.1-1.1l3-2l-1.6-3.1l-0.7,0.7
		l-1.1-0.7l-0.1-3.9l-0.9-2l-1.1,0.4l-4.1-1.9l1.9-2.6l1.3,0.4l0.6-1.6l0.6,0.9l3.1,1.1l-0.8-1.6l-1.3-1.9l0.6-1l-1.3-0.3l-2.4-3.4
		l-3.6-3.1l1.3-0.7l-2.8-0.1l-1.5,1.1l-0.2-0.3l0.7-2.1l2.7-2.7l-0.3,0.1l-2.8,2.8l-0.7,2.1l-2.1-2.2l-1.1,0.7l0.5,1l-1.7,2.2
		l-1.1-0.8l-1.9,1.5l-0.8-1.3l1.7-2.7l-2-0.7l-1.6,0.9l-0.9-0.2l0.5-1.7l0.1-3.9l1.3-2.6l2.4-0.2l2-1.8l-1.8,0.9l-3.4-0.1l-0.7-0.8
		l-0.1-4.4l2.2-3.6l-1.2-1.8l1.3-0.9l0.5-1.6l-1.2,0.1l-1,1.3l-3,0.4l-0.8-1.2l-2-1.1l-0.1,1.4l-1.3,0.9l-0.9-3.3l-0.4,0.2l-0.2-0.6
		l0.2-0.1l-0.3-0.7v-0.4l0,0.3l-0.3-0.7l-0.8,0.9l-0.1,0l-3.7,2.8l-2.1,1.6l0.7,1.6l-0.2,0.7l-2.4,1l-1.3,2h-1l-1,1.3l-1.1,0.2
		l-0.2-1.3l-1.3-0.9l0.7-1.3l1.4-0.1l0.9-1.1l1.9,0.2l0.7-0.5l0.2-0.9l-0.9-0.2l-0.2-0.8l1.6-1.1l0.8-1.5l-2,1.5l-1.8,0.7l-0.8-0.9
		v-1l0.7-0.3l0.1-1.1l-1.8-1.8l0.4-2.2l-0.2-0.7h1.6l0.2-2.1l1.8-2.3l0.1-0.4l11.6,2.3l0.1-0.1l1.1-2.4v-1.6l2.4-1.6l1.6-3.1
		l1.8-0.8l1.5-4.5l0.8-1.6l-0.1-0.9l0.1-3.1l1.8-2.1l0.2,0.4 M384.6,101l0.2-0.1l3.1-2.7l-0.2,0L384.6,101z M394.5,40.9L394.5,40.9
		l-1.3,0.1L394.5,40.9z M360.9,79h-1.7v1.7l5.7-2.8l-0.9,0.3l-0.9-0.8L360.9,79z M510.3,121.2l-0.7,0.7l-0.8,3.2l0.2,1.2l1.2-0.7
		l0.4,0.3L510,127l-0.2,1.8l0.7-0.2l1.1-1.1l0.5-2.1l-0.3-1.1l-1.3-0.4l0.1-1.4L510.3,121.2z M450.5,202.1l-0.7-0.4l-0.6,0.7l0.1,1
		l1-0.1L450.5,202.1z"/>
	<path id="japan" class="st2" d="M554.3,39.9l-3.5-12.5l-0.5-2.5L540,31.6l-28.5-20.7l0.2,0.9l-2.4,1.8l7.1,21.1l-2.5,2.6l2.8,8.5
		l-8.8-1l-0.7,1.5l3.5,3.2l-4.5,8.3l6.1,13.4l-0.6,0.4l2.4,2.6l2.8-5.7l4.9,0.5l2-3.4l-11.7-5l-0.7-3.5l2.6-1.3l3.4,2.2l4.5-4.8
		l18.9,9.6l3.7-16.2h6l-0.1-1L554.3,39.9z M485.1,149.3L485.1,149.3l3.2,2.8l4.1-6.6l-7.8-4.5l-5.9,5.6l-1.8-2.6l-5.1,7.2l2.5,0.7
		v3.1l3.5,2.4l-0.1,1.1l0.7,0.3l0.6-0.7l1.9,0.1l-1.7-2.8 M526.6,72.7l-5.1-0.7l0.1,5.5l3.1-2.4l0.2,4.2l-1.2,0.7l-1.7-1l0.6,2.3
		l-0.9,0.9l-1.4-0.5l-1.2-4.7l-2.2-0.2l0.5,16.4l-2.8,0.5l-0.3,1.1l1.4,1.8l2.8-1.8l-14.2,47.6l-4.6-5.4l3-5.1l-5.9,3l-2.2,15.7
		l-0.9,0.1l0.6,0.9l-1.5,0.6l-1-0.8l-1.4,1.1l-0.9-0.3l-0.4-2.1L452,179.9l1.3,5.8l-1.6,0.1l-9.8,8.3l1.8,0.1l1.5,4l-0.7,0.7
		l-0.3,3.5l4.1-2l-0.7,0.7l0.7,0.5l1.1-0.3l1.5,6.6l-1.7,0.2l7.4,13.8l0.1-8.2l2.2,9.7l3.7-3.8l-1.8-2.9l3.2,0.7l2.2-20.3l-1-0.3
		l-0.1-1.8l-1.1-0.2l0.4-1.3h-3.2l-0.4-0.7l2.1-2.2l-1.8-3.3l-1.5,0.3v0.7l-2.7,0.7l-2.2-2.4L465,185l0.7-6.6l1.3-0.1l0.8,1.2
		l18.1-6.9l11,15.9l8-11l3.2-0.2l-0.3-3.7l-3.9-2.5l2.6-3.9l-0.2,2.9l0.7,0.6l1.3-1.2l4,0.9l-2.4,1.8l12-1.3l-1.2-2.6l2.6-3.3
		l1.6,0.3l0.6,5.3l3-2.2l-0.6-5.5l4.2-2.9l-0.4-3.5l3-0.4l0.6-37.5l4.5-1.4l0.8,1.3L526.6,72.7z M483.4,178.4l-12.6,3.7l-2.4,7.3
		l5.7,9.4l2.4-9.4h6.5l8.1-6.1L483.4,178.4z M460.2,229.3l-0.4,4.1l-3.7-3.3L460.2,229.3z M453.7,256.9l-2.9,3.3l-3.7-1.6l6.1-4.1
		L453.7,256.9z M463.1,221.9l1.6,4.5h-2.9L463.1,221.9z M437.4,195.9l-2.4,1.6v3.3L437.4,195.9z M435.4,204.8l-2.4-3.7l-1.2,2
		l2.4,4.1L435.4,204.8z M432.9,186.5l2.4-2l0.4,1.2l-2.9,2.9v-2.1L432.9,186.5L432.9,186.5z M434.6,178.8l1.6,3.3l-2.9,1.2
		L434.6,178.8z M413,192.2l-0.4,0.4l0.8,3.7h-6.5v-2L413,192.2z M444.3,264.7l3.3,2v-3.3L444.3,264.7z M440.3,274.9l-4.1,6.5
		l2.4,1.2l4.1-5.7L440.3,274.9z M449.2,200.7l-2,5.3l-2-4.5L449.2,200.7z M552.2,31.8l3.3-8.6h6.1l-2.9,4.1L552.2,31.8z M570.2,11.4
		l-3.7,5.3l-3.3,0.8L562,24l-1.6-4.1L562,15l4.5-5.3L570.2,11.4z M555.9,39.5l2.4,2.4l-6.1,3.3l-1.2,2.9l-4.9,0.8l-2-0.8l0.4-1.6
		l4.9,0.4L555.9,39.5z"/>
	<path id="south-east-asia" class="st3" d="M433.3,380.5l2.3-0.4l-1.3-4.8l-1.8,4.3L433.3,380.5L433.3,380.5z M414.9,365l-2.1,1.1
		l0.8,4.2l2.4-4.5L414.9,365L414.9,365L414.9,365z M400.1,378.1l-2.7-1.8l0.2,1.2l2.1,1L400.1,378.1L400.1,378.1L400.1,378.1z
		 M445.7,415.3l0.4,6.5l-1.3-1.5l-0.6,0.1l-0.5,3l-2.9-1.6l-0.9,3.3l0.7,0.5l-0.2,1.3l-1.1,0.5l-0.8-1.9l-8,6.3l1.8-5.5l-3.6-1.9
		l-3.9,3.7l0.7,1.4l-7,1.5l-2.9,7.8l1.7,2l5-7.9l1.1,1.1l-0.4,1.8l0.5,0.5l0.8-0.4l0.8,0.5l0.9-2l0.9,0.3l-0.5,1l2.9,1.1l-0.9-1.3
		l0.6-0.7l-0.4-0.8l1.5-0.7l6.2,6l-2.2-0.3l7.8,12.4l2.5-2.3l0.9,4l3.7-3.8l-2.9-6.2l3.7-5.6l3.4,10.1l0.1-6.6l1-0.1l0.6,1.1v-1
		l0.7,0.1l-1.3-11.9l-0.7,1l0.2-3.1l-1.6-1.3l0.3-0.9l1.2,0.2l-1-5.3l-1.1,0.9L445.7,415.3z M396.6,397.1l1.3-1.2l-2.2-1.8l0.2,2.9
		L396.6,397.1z M417.8,396.3l-1.6-1.7l-1.8,0.4l-0.4,1l2.6,0.9l-0.6,11l7.5-8.5l-4.9-2l0.3-0.7L417.8,396.3z M446.8,411.1l1,3.9
		l0.7,0.2l-0.6-5l0.7-0.4l-0.4-1l-0.9,0.3L446.8,411.1z M426.3,389.1l-0.5,4.8l0.3,1l1.5-2.2l6.5,3.1l-6.7-5.7l0.2-0.6L426.3,389.1z
		 M415.6,393.4l1.1-0.3l0.6-5.5l-0.7,0.6L415.6,393.4z M407.2,392.1l3-0.9v-1.3l0.8-0.5l-0.1-5.5l-10.7-3.5l0.4,0.8h1.2L407.2,392.1
		z M451.1,416.6l-0.8-0.7l-0.2,0.9l0.7,0.8L451.1,416.6z M424.6,418.2v2l1.3,0.7l1.5-0.9l1.8-14.8l-1.3-1l-0.8,0.5l-1.1-0.6
		l-6.2,12.4L424.6,418.2z M440.2,421.3l0.3-1.5l-1.5-1.3v1.9L440.2,421.3z M429.7,421.1l1.4-0.5l0.2-1l-2.1-0.3l-0.5,1L429.7,421.1z
		 M452.9,415.3l-1.3-3.2l0.1,3.6L452.9,415.3z M395.4,357.4l2.1,10.2l0.7-0.5l2.3,4.2l1.1,0.1l1-1.3l-0.8-2l3.3,1.4l-3,6.4l1.1,1.9
		l0.5-1.7l1-0.3l0.7,1.5l-0.9,1.5l2.6-1.3l1.9,2l2.1-3.2l10.2,6.8l-1.9-6.8l10.1,11l1.5-0.4v-0.6l1.4,0.4l-1.5,1.6l2.8,2.3l1.3-4.2
		l-5-1.6l-1.3-5.6l2.9-0.2l-4.9-3.5l-0.8,0.6l0.1,1.7l-1.2,0.7l-3.9-6.4l-4.4,3.1l-7.4-10.1l5.6-9.8l-0.6-22l-5,2.8l-8.3-2.4
		l-2.5,21l-2.7,0.3l-1.1-1.4l0.1,3.9L395.4,357.4z M432.8,416.5l4.7-1.1l0.6-2.9l-1.9-0.9l-4,3L432.8,416.5z M440.5,401l-4.4-0.2
		l1.6,4.4l0.9-0.8l3.1,8.2l0.2-2.4l0.9,1.3l1.5-0.4l-2.4-4.7L440.5,401z M444.8,414.8l-0.8-2.9l-0.4,1.5L444.8,414.8z M394.5,408.4
		l-1.2-9.1l-0.7,0.3l-0.3,5.1l-1.3-0.9l0.9,2.9l-1.5,1.6l-1.1-0.2l-11.5,12.5l-3,3.9l0.2,0.6L394.5,408.4z M438.1,399.9l0.4-1.6
		l-2.9,0.9L438.1,399.9z M424.3,383.8l-0.7,0.1l2.1,3.4L424.3,383.8z M440.3,400.1l6.6,3.2l0.4-0.4l0.9,0.4l-4.9-13.9l-6.9,0.4
		l-0.7-0.4l6,8.6L440.3,400.1z M413.4,381.6l2,1.4l1.1-1.8l-2.4-2.1L413.4,381.6z M395.4,391.2l4.2,2.9l0.8-0.9l-4.4-2.7
		L395.4,391.2z M444.1,491.4l-0.9-1.9l-37.3,1.3l-7.6,15.2l5.1-8.1l10.2,0.2l0.7,1l23.5-1.1L444.1,491.4z M398.1,506.5l0.2-0.4
		L398.1,506.5L398.1,506.5z M365.5,520.6l1.3-2.2l-2.4-0.3l0.7-0.9l-0.3-0.8l2.7-0.3l1.6-6.1l1.5,2.1l8.7-18l0.8,1.1v-3.1l8.1,2.3
		l0.5-1.5l-10.3-9.4l3.5-3l-5.9-7.2l1.4-1.4l-2.2-3l4.6-0.5l-2.6-2.2l8.3-3l-2.1-5.1l9.2-2.2l-0.3-1.3l-9.4-3.9l-1.4,1.3l-0.8-0.8
		l1.9-1.5l-0.9-1.1l-2,1.8l-1.3-3.8l1.5-0.5V445l-2-1.4l-0.8,0.4l-3.2-5l-0.8,0.5l0.4,1.5l-1.9,1.7l-0.7-0.1l0.3-2.9l-1.1-0.1
		l-12.8,15.3h0.9l-0.7,0.9l2.8-0.2l-2.1,7.2l-1.1-0.7l-0.4-3.7h-0.3V458l-1.7,1.4l0.5,3.8l-0.9,0.4l-5.2-4.6l-19.8,16.8l1.2,3.1
		l-5.3,1.5l-2.2,6.8l-12.3-4.8l-6.9,10.5l3.3,7.8l-1-0.5l-0.5,0.5l10.4,1.2l-9.6,3.2l8.3,21.1l2.3-1.1l0.5,1.1l7.7,0.3l1.8-3.2
		l0.7,9l13.7-4.1l3.1,3.5l0.1-2.5l2,1.8l0.8-0.4l0.9,1.3l0.8-0.4l1.2,5.5l13.1-10.5l0.4,0.7h0.9l1.4-2.7l-1.3-1.3l0.1-0.7l0.2,0.3
		l1.3,0.4l0.4-2.5L365.5,520.6z M274.6,549l4.6-21.9l-12.3-12.4l-1.1,0.7l0.1-7.7l-9-2.3l0.1-1.4l3.7-1.8l-6-0.3l6-2.9l-3-4.7
		l-7.5,2.1l3.7-2.2l-3.4-3.1l1.9,0.3l2,1l0.7-0.5l-4.5-4.6l-0.9,3.1l-7.9-7.2l-1.1,0.3l-9.2-8.8l-0.4,0.8l-1.4-3l-1.2,1.1l-5.6-8.9
		L205.4,450l-16.7-4.7l-1.6,1.5l77.2,103.5l0.2-4.2l4.8,3.5l1.5-3.9l1.4,0.4L274.6,549z M220,441.5L220,441.5L220,441.5L220,441.5z
		 M285.3,352.9l0.7-0.4l2.4-4.2l-12.8-25.6L247.7,300l1.5-0.4l0.2-0.9l-1.9-1.5l1.9-4.2l-1.3-0.9l2.2-4.8l0.4,0.6l3.8-9.4l1.2,1
		L270,272l-0.3-0.7l-2.5-0.5l-14.2-4.9l0.9-3.1l1.3-0.2l0.3-1.6l-18.5-2.8l0.1,2.6l-9.2,2.7l-0.4-1.2h-1l-0.9,1.2l-1.8-1.7l-1.6,2.5
		l-2-0.6l0.1-1.3l-5,2.4l-2.9-1.9l-3,1.4l0.6,2.8l1.4,8.7l-3.8,0.3l-1.9-2.2l-5.3,4.8l0.8,1.1l-2.7,1.4v4.1l-1-2l-0.1,0.2l-4.6,0.8
		l0.9,2.2l-4,1.6l-0.7,3l-7.3,0.3l-1.6,9.7l-3.9,2l13.2,18.3l-1.3,0.7l0.2,1.9l-0.6,0.5l0.8,5.5l0.8,1l6.4,49l1.4,0.2l-1.5,2
		l0.6,0.9l-1.8,2.1l1.4,0.2l-0.9,1.6l-1.3-0.2l0.1,4l-1.5,0.7l1.5,9l1.5,0.2l-0.1-2l2.3-0.9l-0.1,1l1.3,0.9v1.6l2.2,0.3l1.4,3.8h1.8
		l2.7,4.6l2.4,0.3l0.8,1.8l1.3,0.2l-1.1,2.2l6.4,5.5l-1.6,4.8c0,0,4.4,8.5,13.8,18.7c13.4,14.5,33.1,32.2,33.1,32.2l0.8-0.7l0.9,1.1
		l2.4-1.3v-0.5l-1.1-0.2l0.8-0.2l-0.5-2l1.7,2.8l1.8,0.3l-26.7-53l-2.6,1.1l0,0l-18.4-14.5l-0.4,1.5L217,409l2.2-2.6l-2.8-8.6h-1.3
		l-7.1-9.9l-2.8,2.3l-1.5-11.6l-1.6-0.7l8.3-23.3l0,0l7,0.8l0.2-0.3l-0.2-0.4l1-0.8l4.7,3.1v0.8l2.8,1.9l0.3-0.1l5.4,5.8l1.4,4.8
		h2.4l1.8-2.8l0.2,6l2.5-1.7l2.7,1.2l0.5-0.3l1.6,1.1l2.6-1.6l-2.4,3.7h7.8l-4.7,8.4l0.5,0.1l-0.4,2.8l2.1,0.3l9.9-5.9l-0.8-2.1
		l2.4,1.1l0.9-1.8l-1.6-1.6l1.9,1.3l1.3-0.6l-0.7-1.3l0.5-0.8l-2.4-1.1l1.9-0.1v-0.6l-1-0.8l1.5,0.4l0.7-1.4l0.2,2.4l20-12.3
		l-0.6-0.7l0.7-1.5l-1.2-1.8l2.5-3.4L285.3,352.9z M209.6,352.7l0.8-4.6l-0.3,4.9L209.6,352.7z M250.8,333.4v-0.2l0.1,0.1
		L250.8,333.4z"/>
	<path id="korea" class="st3" d="M415.4,133.2l1.2-1l-0.5-6.9l-1.2,0.7l-16.2-31.8l-12.4-10.3l13-39.5l1.1,0.2l2.9-3.3h0.4l-2-2.9
		l-5.3-4.7l-11.6,15.6l3.9,3.4l-1.1,3.8l-13.8-4.7L360,78.1l1.6,2.6l0.8,3.2l1.4-2.2l2.8,2.2l5-1.8l-2.6,12l5.7-0.1l-6,9.9h4.3
		l-1.6,2.6l0.7,1.2l1.8-1.5l1.1,0.7l1.6-2.1l-0.5-1l1-0.7l2,2.2l0.2,0.3l4.2-1l-1.3,0.7l7,6.6l-0.6,1l2,3.4l-3.6-1.9l-0.6,1.6
		l-1.3-0.3l-1.8,2.6l5,1.5l2,6.4l0.7-0.6l1.5,3.1l-2.9,2l1.2,3.6l-1.1,0.6l0.9,3.4h-1.1l2.2,4.2l1.3,0.1l1,4.2l1.4-3.3l0.8,1.1
		l6.9-5.7l0.3,1l1.2-1.5l0.9,0.1l0.9,1.8l1.7-0.7l0.7,0.8l0.9-0.6l-0.7-1.3l6.6-4.5L415.4,133.2z"/>
	<path id="taiwan" class="st4" d="M376.7,260l-2.1,23.4l-0.5,0.2l8.3,14.2h3.6l5-20.4l-1.2-0.4l3.3-23.8l0.9-0.2l-7.6-7.5L376.7,260
		L376.7,260L376.7,260z"/>
	<path id="china" class="st5" d="M366.8,72.7l9.7-19.7l12.9,4.4l1-3.5l-3.6-3.1l10.8-14.4l5.2,4.9L402,38l3.6-1.1l-0.1-30.1L415.6,8
		l-0.5-9.9l1.4-1.1l-0.7-3.7l0.8-0.6l-1.2-5.3l0.9-0.6L413.8-32l0.8-0.8l-7.4-2.8l-15.9,12.8l-1.2-2.2l-3.6,1.1L382.3-35l-1.4,0.1
		l0.7-4.2l-15.1-7l-0.3,1l-1.7,0.1l-0.2,0.7l-4.8-2.4l0.7-1.1L339-67.7l-0.8,0.4l-6.5-12.6l-2.1-0.1l-2.8-6.3l-2.2-0.3l-0.2-2.3
		l-9.2-4l-0.8,0.5l0.1,1l-30.3,2.1l-5.4,10.2l4.8-1.3L283-48.2l1.4,0.7l0.7-0.5l1,2.1l-16.7,7.6l-0.3-0.6l-2.1,0.1L264.2-15
		l16.6,4.8l5-8l15,15.7l-56.4,27.4l-1.3,8.4l7.1,4.6l-52.7,30.7l-0.3-2.2L60,3l-4.2,2.5l-9.7-11l-0.9,0.8L44-8.9l-3.4-0.6l0.2,0.2
		l-5.1,6l0.5,0.9l-5.3,5.7L34,13.4l-20.8,3.1l-2.8,17.9l2.9,1.5l-1,3l-18.7,3.9v1.1l5.7,1.2L1.8,71l-54.4-5l0.7,5.9l-19.7,0.4l0.6,1
		l-2.6,1.9l1.4,0.2l-3.8,8l8.3,4l1.7-3.9l5.6,5.1l-9.3,3.1l-2.4-3.1l-8.6,5l-0.1,2l2.6,1.3l-0.1,1.7l-6.4,2l1.3,2l-3.3,1.1l-0.2,1.9
		l-6.9,1.2l2.2,5.7l3.8-0.9c0,0-7.6,6-7.2,11.3c0.1,1.2,6.6,3.1,6.5,4.5c-0.1,2,0,3.5,0,3.5l0.8,0.1c0,0-0.4,0,0.5,0.8l1.1,1l7.4-4
		l4.6,2l-0.7-3.3l3.3-1.4l0.2,0.9l5.4-10.3l4.9,1.8l0.1,4.8l1.4-0.1l2.1,11.5l17.2-9.4l0.4,1.8l7.7-1.7l0.4,1.4l-2.5,2.2l46.3,46.3
		l-0.3-1.1l-1.4-0.5L8,176.8l8,15.8l1-1.6l10.4,7l0.5-0.7l24.9,12.1l2-3.7l11.1,5.5l0.5,5.4l29.6,2l2.7,5l21-5.5l1.4,1.8l22.7-15.3
		l6.8,2.6l0.9-0.9l-0.2-1.5l4.9-1.7l0.9,1.2l1.1-0.3l0.4,0.8l-1.3,2.3l0.7,1.3l2.1-0.6l0.7,6.9l12.2,1.4l6.8,21.8l-1.5,0.7l-0.2,1.6
		l-0.8,0.2l-0.4,3.7l-1.1-0.4l1.9,13.1l5.7-2.2l-0.2,2.4l1,0.9l2.2-0.5l-0.1,2.9l3.1,1.8l-0.4,0.8l0.7,1.1l0.3-0.7l4,0.8l-3.8,9.4
		l3.9-0.3l0.4,0.5l1.3-1.1l3.1,6.3l8.4-2.2l-2.5,3.6l1.6-1.4l1.8,2.2l3.6-0.3l-1.3-8.7l1.1-0.8v-1.2l3.1-0.1l0.6,1.2l-0.5-1.1
		l5.5-2.8l-0.1,1.3l1.9,0.6l1.5-2.5l1.7,1.7l0.9-1.2h1l0.4,1.2l8.6-2.7l-0.1-2.6l17.5,2.9l-0.3,1.6l-1.2,0.2l-0.9,3.1l16.9,6.2
		l0.3-2.5l7.2,4.3l0.9-1.5l3.3,1.1l0.1,0.6l-1.2,0.2l1.9,10l1-1.5l1.8,0.4v0.4l2.4-1.8l-2-3h-1l1.9-5.8l0.5,1.1h0.4l-0.3,0.2
		l0.1,0.4l0.8,0.1l-0.3,0.4l8.2-3.3l-0.6-1.1l10.3-4.8l1.1,1l2.9-2.6l-0.9-5.6l4.8,4.5l1.1-0.3l-1.9,1.7l0.2,0.7l3-1.5l0.2-1.6
		l6.7-3.1l1.9,2.4l1.1-2.2h0.9l0.1,0.5l5.2-2.8l0.2,0.9l2.9-1.1l-0.1-5.6l3.5-0.9l0.2,0.8h1.6l0.4-2h0.8l0.2-1.3h0.8l0.1,0.7
		l1.5-1.8l0.9,1.1l0.2-1.7l0.9-0.1l0.6-1.3l-4.7-1.5l4-1.9l0.7,0.6l0.9-0.8l2.3,1.4l0.6-1.8l-2-1.3l0.2-1.1l1.7,1.2l0.9-1.1
		l-0.2-0.4h-1.1l-1.1-2.2l1.2-0.3l0.6,0.8h0.8l0.6,0.8l0.1-1.4l-1.5-1.1l0.1-1.3h0.9l0.6-1l1.3,2.3h0.9l0.9,1.4l-0.5-3.2h-0.8
		L352,237l1.1-0.3l0.2-1.1l-1.4-0.4l1.9-1.6l-2.2-0.9l-0.7,0.7l4.8-3.7l-0.9-0.9l-1,0.9l-2-1.8h1.8L351,226l0.9-0.8l-0.7-0.9
		l1.1,0.2l0.3-1.4h1.4l-0.1,1.7l5.2-3.1l-2.4-1.5l0.4-1.5l1.1,1.2l2.3-5.5l-2.2-2.8l2.3,0.7l3.5-3.9l0.7,2l1.5-2.4l-3.2-2.4l2.8-1.2
		l-1.8-1.3l1.1-1.1l0.6,0.1l0.2-0.7l-3.7-0.7l4.2-3.1l1,0.5l0.1,0.6l1-0.8l-1.6-4.1l-1,1l0.3,1.2l-5,1.3v-1.5l6-3.9l-2.6-1.4
		l-0.4,0.8l-4.6-3.8l-2.6,2.2l-3-2.9l-3.9,3.2l4.3-4.3l2,1l7.6-5.3l-14-12.3l-4,1.6l-2.2-2.9l-9.1,3.6l9.4-5.1l2.1,3.4h1.6l1.1-1.5
		l14.1,2.7L347.2,153l0.8-2l-7.7-7.7l-1.2,0.7v-1.2l-4.9-2l0.4-11.3h1.8l1.5-2.5l0.8,0.5l1.5-1.8l-2.3-2l3.8-1.3l0.1-1.8l2.1-0.4
		l-2.1-2.5l9.5-3.7l0.6,1l0.8-0.9l2.2,2.3l2.1-2.5l-1.3-0.2l-0.2-1.8l2-0.6l-1.3-2.9l1.8-0.6h-5.3l0.1-0.7l-18.1-1.1l0.7,2.1
		l-3.4,1.8l1.1,1.3l-7,2.5l-2.6-8.3l-3.1,0.6l-0.1-0.8h-0.9l-0.7,1l-0.6-0.9L318,106l-4.8-15.7l8,1l0.8-1.8l-0.5-0.8h1.2l11.6-21.2
		l4.1,0.4l0.6-1.6l6.5,6.7l-3.3,6.1h-1.6l1.5,5.8l-0.7,0.3l0.8,1.9l3.8-2.2l-2.3,2.6l0.2,0.8l0.9,0.2l-5.7,3.7l1.5,2.2l6.7-4.5
		l-0.4-2.3l17.3-10l0.6,1.4L366.8,72.7L366.8,72.7L366.8,72.7z M276,305.7h1.8l1.1,0.9h1.2l1.5,1.1l1-0.6l0.4-1.6l1.3-0.2l1.4,0.4
		l1-1.4l0.1-1l1.5-0.3l1.2-1.3l-0.3-1.5l0.8-2.8l0.9-0.7l0.4-1.3l1.3-2.2l-0.7-2.3l-1.8-1.2l-1.8-0.7l-1.2,0.9
		c-0.3-0.2-0.6-0.5-0.9-0.8l-1.7,0.4l-0.9-0.2l-1.2,0.9h-1.5l-1.6,0.9l-1.5,0.2l-0.4,1.7l-2.5,1.6l-2.2,2.4l0.8,1.4v3.3l0.9,1.8
		l-0.1,1L276,305.7z"/>
</g>
<g id="cities">
	<path id="chengdu_1_" class="st6" d="M184.3,154.6c1.7,0,3,1.3,3,3s-1.3,3-3,3s-3-1.3-3-3S182.6,154.6,184.3,154.6z"/>
	<path id="shanghai_1_" class="st6" d="M343.7,158.6c1.7,0,3,1.3,3,3s-1.3,3-3,3s-3-1.3-3-3S342,158.6,343.7,158.6z"/>
	<path id="hongkong_1_" class="st6" d="M320.1,255.2c1.7,0,3,1.3,3,3s-1.3,3-3,3s-3-1.3-3-3S318.4,255.2,320.1,255.2z"/>
	<path id="beijing_1_" class="st6" d="M293.3,78.7c1.7,0,3,1.3,3,3s-1.3,3-3,3s-3-1.3-3-3S291.6,78.7,293.3,78.7z"/>
	<path id="seoul_1_" class="st7" d="M392.6,104.3c1.7,0,3,1.3,3,3s-1.3,3-3,3s-3-1.3-3-3S390.9,104.3,392.6,104.3z"/>
	<path id="sapporo_1_" class="st8" d="M528.6,45.4c1.7,0,3,1.3,3,3s-1.3,3-3,3s-3-1.3-3-3S526.9,45.4,528.6,45.4z"/>
	<path id="tokyo_1_" class="st8" d="M526.8,152.5c1.7,0,3,1.3,3,3s-1.3,3-3,3s-3-1.3-3-3S525.1,152.5,526.8,152.5z"/>
	<path id="kyoto_1_" class="st8" d="M496.8,171.4c1.7,0,3,1.3,3,3s-1.3,3-3,3s-3-1.3-3-3S495.1,171.4,496.8,171.4z"/>
	<path id="tapei_1_" class="st9" d="M388.1,250.9c1.7,0,3,1.3,3,3s-1.3,3-3,3s-3-1.3-3-3S386.4,250.9,388.1,250.9z"/>
	<path id="hanoi_1_" class="st7" d="M232.5,283.6c1.7,0,3,1.3,3,3s-1.3,3-3,3s-3-1.3-3-3S230.8,283.6,232.5,283.6z"/>
	<path id="singapore_1_" class="st7" d="M259.5,465.1c1.7,0,3,1.3,3,3s-1.3,3-3,3s-3-1.3-3-3S257.8,465.1,259.5,465.1z"/>
</g>
<g id="text">
	<text transform="matrix(1 0 0 1 202.1792 131.1262)" class="st10 st11 st12">CHINA</text>
	<text transform="matrix(1 0 0 1 391.9998 137.5553)" class="st10 st11 st12">KOREA</text>
	<text transform="matrix(1 0 0 1 248.887 349.2436)" class="st13 st11 st12">VIETNAM</text>
	<text transform="matrix(1 0 0 1 509.2167 137.1499)" class="st10 st11 st12">JAPAN</text>
	<text transform="matrix(1 0 0 1 285.5703 411.15)" class="st14 st11 st12">SOUTHEAST</text>
	<text transform="matrix(1 0 0 1 303.1703 423.15)" class="st14 st11 st12">ASIA</text>
	<text transform="matrix(1 0 0 1 202.7397 430.0247)" class="st13 st11 st12">MALAYSIA</text>
	<text transform="matrix(1 0 0 1 228.4998 457.8233)" class="st13 st11 st12">SINGAPORE</text>
	<text transform="matrix(1 0 0 1 353.6169 295.5004)" class="st10 st11 st12">TAIWAN</text>
	<text transform="matrix(1 0 0 1 158.2225 180.3612)" class="st15 st16 st17">CLIENTELING</text>
	<text transform="matrix(1 0 0 1 161.4225 188.7612)" class="st15 st16 st17">PLATFORM</text>
	<text transform="matrix(1 0 0 1 294.0677 179.3613)" class="st15 st16 st17">CLIENTELING</text>
	<text transform="matrix(1 0 0 1 287.7677 187.7613)" class="st15 st16 st17">FUNDAMENTALS</text>
	<text transform="matrix(1 0 0 1 270.145 107.3326)" class="st15 st16 st17">HOSTING </text>
	<text transform="matrix(1 0 0 1 259.145 115.7326)" class="st15 st16 st17">APPOINTMENTS</text>
	<text transform="matrix(1 0 0 1 273.745 124.1326)" class="st15 st16 st17">&amp; GIFTS</text>
	<text transform="matrix(1 0 0 1 390.4305 120.2629)" class="st15 st16 st17">LEATHER &amp; CARE</text>
	<text transform="matrix(1 0 0 1 384.9187 274.4792)" class="st15 st16 st17">MONO-</text>
	<text transform="matrix(1 0 0 1 377.6187 282.8792)" class="st15 st16 st17">GRAMMING</text>
	<text transform="matrix(1 0 0 1 268.2463 260.2)" class="st15 st16 st17">CUSTOMER</text>
	<text transform="matrix(1 0 0 1 271.5463 268.6)" class="st15 st16 st17">CAPTURE</text>
	<text transform="matrix(1 0 0 1 206.4314 307.87)" class="st16 st17">QUALITY &amp;</text>
	<text transform="matrix(1 0 0 1 195.4314 316.27)" class="st16 st17">CRAFTSMANSHIP</text>
	<text transform="matrix(1 0 0 1 272.2625 481.0568)" class="st15 st16 st17">REPAIRS</text>
	<text transform="matrix(1 0 0 1 531.5941 174.4497)" class="st15 st16 st17">STYLING</text>
	<text transform="matrix(1 0 0 1 533.5941 182.8497)" class="st15 st16 st17">BAGS &amp;</text>
	<text transform="matrix(1 0 0 1 522.8941 191.2497)" class="st15 st16 st17">ACCESSOIRES</text>
	<text transform="matrix(1 0 0 1 483.2838 194.4669)" class="st15 st16 st17">FASHION</text>
	<text transform="matrix(1 0 0 1 483.9838 202.8669)" class="st15 st16 st17">&amp; TREND</text>
	<text transform="matrix(1 0 0 1 164.5695 170.4498)" class="st10 st18 st19">Chengdu</text>
	<text transform="matrix(1 0 0 1 272.6102 96.2826)" class="st10 st18 st19">Beijing</text>
	<text transform="matrix(1 0 0 1 399.4258 111.3324)" class="st10 st18 st19">Seoul</text>
	<text transform="matrix(1 0 0 1 535.5378 51.3985)" class="st10 st18 st19">Sapporo</text>
	<text transform="matrix(1 0 0 1 533.2595 164.603)" class="st10 st18 st19">Tokyo</text>
	<text transform="matrix(1 0 0 1 486.4766 186.4104)" class="st10 st18 st19">Kyoto</text>
	<text transform="matrix(1 0 0 1 386.0474 266.6537)" class="st10 st18 st19">Taipei</text>
	<text transform="matrix(1 0 0 1 266.7384 472.0911)" class="st10 st18 st19">Singapore</text>
	<text transform="matrix(1 0 0 1 297.1107 169.6843)" class="st10 st18 st19">Shanghai</text>
	<text transform="matrix(1 0 0 1 268.1449 250.8998)" class="st10 st18 st19">Hong Kong</text>
	<text transform="matrix(1 0 0 1 213.1174 298.7998)" class="st10 st18 st19">Hanoi</text>
</g>
</svg>
