<svg id="Layer_1" enable-background="new 0 0 575 593" viewBox="0 0 575 593" xml:space="preserve" xmlns="http://www.w3.org/2000/svg">
 <path id="bg_1_" d="m759.9 787h-942.9v-909.4h942.9z" fill="#bed8f1"/>
 <path id="asia" d="m43.9 383.5-.5.1.2.7-2.2-1.4v-1l2.7-.2.4.3zm.7.4 1.7.8.8.7h1.4l.8.6-.4-.8-1.9-1.2-.3-1.3-1.2-.3-.3.5.5.3-1 .1zm371.6-81.7.8.7 1.3.1.3-1.7-2.2-1.1zm-357.8 99.2-1.3-1.1-1.4-3.7-1.1-2.6-1.5.2v-.3l-1.3-.1 1.6-.9-.2-.7-.7-.3-1.1-2-.8.1-.5-1.6-.5-.6v-.9l-2.4-.9-.4.6-1.1-.4.1-.7-1.8-.5-.1.4.3.5-.2.3-.5.1.2.6-.1 1.1-.9 1.5-.5-.2-.9-.8-1-.1v.4l.9.4.5.8-.4.4.7 1.6v2.3l-.6.8-.2 1.5-.3-1.3.5-.2.1-.4-1 .4.1 1.5-.3 1.9.9-1.9-.3 2.2.2 1.1-.4.4.8 3.2-.3 1.2 1.1 4 1.3 4.5 1.2 2 2 1.1 1.7-.4 2.9-.4 2.6-.8 2.7-2.8 1.2-2.4.6-1.5-.2-1.4.4-.4v-2.5l-.7-1zm42.9-125.3.1.9.6-.3.8-2-.5-.9zm2.3-.6.2 1.6.9.7-.2-1.5zm20-9.6-1.5.7.1.7 1.1 2.5 1.5.1-.2-2.5zm1.6.4v.8l.9 1.8-.2 1.4.7 1.1 1.1-2.2-.4-1.3zm-20.2 9.4.3 1 .6.4.2-1-.1-.9zm1.8 1.6.5-.6-.5-.9zm21.5-10 .2 1.8.8-.4.2-1.2-.5-.6zm278.8-71.7.7 1.5 1.9.4 3.3-.8 1.3-2.2-.1-1.3-1.9-.3-4.1 1.3zm-31.6 229.6-.5.6.9.5zm36.3-282.1.6-1-.1-1.6-.7-.4-1.3 1.1.1 1.1.5 1.2zm-268.9 223.9 1.9.5-.7-1.1zm268.4-38.1.7-1.2-.6-.9-1.1 1.3zm-37.5 96.8.8-.1.1-.7zm1.7 10.2.1-1.3-.8-.2-1.6 1.4.4.6zm30.6-254.6-.7 1.1h-.6l-.4.7.8 1.3.8-.5h.7l-.1-1.6zm8.6 182.2-2.1 1.1.8 2.3-.3.7.3 1.2 1.2-1.1.3-2.6.9-.9zm-.6 9 1.2.7-.2-1.3-1.2-.9zm-22.2-223.1-.1-1.5-.5-1-.6 1.1h-.6l-.4.7.8 1.3.7-.6zm28.8 28.2-.9-.9-.9.6.4.9zm-17-34.5.4.9 1.4-.6-.9-.9zm2.2 186 1.4-.7-2.2-.1zm1.7-4.9.3-1.8-1.3.9zm-2.3 1.6-1.1-1.1-.5 1.3zm-205.1 141.3h2l .7.6.2-1.1-2-.7zm16.4 28.3.2-1.1-2-.8-1 1.2 2 .1zm-1.3 8.9-1.8 1.3v1.3l1.8.7 2.1 3.4 2.1.7.1-3.2-2.4-3.7zm-1.4-4.4-1.3-.6-.9 1.8 1 1.2 1.2-1.2zm-9.8-22.9-.7-1.1-1.3.4zm2.2 6.6v-2.7l-2.5-3.5-1.8-.8-1.8 1.4v1.3l1.8.7 1.8 2.7-.1.1h-1.7l1.9 2 .4 1.9 1.2.4 1.5 3.1.8-.3.4-2.2.6-1.2-1.9-1.6zm15.3 31.2.9 1.3 1.9.7-2-3zm-7.3-93.9-.3-1.1-.9-1.2-.7-.2.3 1.7.9 1.2zm-11.3-20.2-.4-.1.3 1.7.2-.9zm22.5 118.6.2 1.9 1.3-1.1zm-16.3-109.4-.2-1-.6-.3-.5.2.7 1.3zm20.5 112.6-1.8-1.4-1.1 1.5 3.1 3-.3-1.7zm47 1.6-1.5-1.3-.6-2-1-.6-.4-1.4-1.6-.7-2.6.2-1.7-.3-.2-2.5-1.2-1.7-1.1.7.9-1.6-.6-1.9-.1-4.2-2 .7-.9-.8-3.3-.2-2.8-2.1.1-1.4 1.8-.7 2-1.1-1.3-.7-1.9.2-1-.4-1.9.6 1.4-1.2 2.1-1.5 2.5-.3-.4-1.8-2.5-3-1.5-.2-2 1.3-1.8 1h-2.2l1.3-.2.8-.7.8-.2.9-1.1-.4-1.1-1.9-1h-3l-2.1-1.8v-1.1l-.2-2.2-3.5-3.6-1.2-.3-1.1.3-1.3-1.1-.3-3.2-2.4-2.5-3.1-1.9-2-.2-.4.8-1-.7-.4-2.3-1.2 1.1-.8-1.3v-2.5l-1.5-2-1.8-.4-.7-1.2-4.8-3.4-1.7-.2-2-2.3-2-.4-.5-1.3-.3-2.7-1.7-1-.9-2.1-.7-.3-1.1-2.2-2-.8h-1.8l-1.2.4-.9-.7-2.2-.1-2.5.6-1.2-.9-3.9-2.9-3.5-.6-1.3.6-.4.9.4 2.5 2 4.7 1.3.7 1.7 2-1-.4-.8.9h-1.6l1.9 2 .4 1.9 1.2.3 1.6 2.9.7-.3.3-2.2.5-1.2-2-1.5-1-2.2 1.7 2h1.1l2.2 2.9 1.3.5 1.1-.4 2.7 2.4 2.9 4.9 2.9 3h .9l-.1 2.2.8.7.2 2.2 1.1 1h1.8l2.2 3 1.1.7 1-.1.3.9-.7 1.2 1.1 1.2.8 2.2-.1.5 1.6 4.6.7 2.5 2.2.7 2.5 1.8v1.5l2 3.7 1.9 1.5.2 4.2 3 6-.2 2.4.7 2.2 3 2.4 3 4 .8 2.1 2.4.6.8 1 2 1.4.2 2.5 1.8 1.2 2.2 2.5 3.7 2.5.8 1.9 2.4.8 4.9 4.6.4 1.8 1.1.5 1.1 2 .7-.7v-1.7l-.4-.9v-.9l1.5.4 3.2 3.2.7-.5.1-2.2.7-1.1 1.2.4 1.5 2.4 1 .4 1.2-1.1v-3.8l1-4.6-.8-3.2 1.5-3.3-.7-1.3.2-2.7 1.5-.6.7-1.2-.2-1.6zm-123.9-130.8.4 1.3 1.3 1.3-.7-2.2zm47.7 79-1.3-.6-.9 1.8 1 1.1 1.2-1.2zm-50.3-84.6.5-1-1.5.5zm-4.1-14.4-.2 1.8v1.5h1.6l.9-2.2-.5-1.9zm1.7-9.8.5-1.8 1-.9v-.8l-2.3.8v2.4l-.5 1.1.9 1.9-.5 1.4.5 1.1 1.2-2.6-.2-1.5zm.5-4.5 1.9-1.4v-2.4l-1.1-.7 1.3-1.9.1-1.8-.5-.6.5-1.4-.4-1-1.6 1.9.3 2.8-.5 1 .3 1.1-1 3.6zm6.5 38.7.4 1.1 1.1.7.8-.5-.9-1.6zm-6.4-95.4.5 1.2 1.7 1 .4-1.5-1.3-1.3zm42.4 166.1-.7.7-.5 1.1 1.6 1.1 2-.2-1.1-1.6zm-33-73.4-.6-.6-.7 1.4.7 1.2.6-.7zm19 47.2-.7.7-.5 1 1.6 1 2-.3-1.1-1.5zm-16.4-37.7-1-.9-1.2 1.2v1.7l.9.5.7 1.7 1-1.2-.5-1.4zm-2-2.9-.9 1.1.5.5 1.3-1.6zm39.2-3.1v-2l-1-.1-.4 1.1.4.7-.1 1.7zm243.8 10.5.9 1.3 1.5-.4.2-1.3-1.4-2.6-1.1-.8-.2-2.6-.9-2.2-.3-.7-1.8.5-1.5-.7h-1.1l.6 1.7v1.8l1 1.1.9-.9 1 1-.2 2.2.7 1.5.2 2.5 1.3 1zm-8.6-2.4-.2-1.5.7-1v-3.2l-.9.3-.7 3.1-1.7 2.5-.2 2-.8 2.4-1.3 1.5-.1 1.8.3 1.4 1.3-1.4.7-3.6 2.4-2.6zm-4.1-1 .1-1.4-1.3-1-.8.5-1.1-.6-1.4.9v1.6l-1 1.5.2 2.3-1 2-2.7.6-.8 1 .5 2.4 1.2.2 1.9 1.3 1.7.2v2l1.3.7 1.5-.9.1-1.5-1.1-2.2-.1-3.3 1.2-4.8zm-.5 13.6 1.1.8 1.4-.5.2-1-.5-.4-1.6.1zm6.3-3.8 2.6-1.1.7-1.1-.1-1.8-.9-.9h-1l-3 1.7-1 1.2.8 1.2-.2.8zm3.8 3 .3 1.1 1.2.9.3-1.6-1.5-1.3zm-14.4-36-.7.1-.1 1 2.2 2.5.4-.8-.2-1zm-8.7 61.9 1 .3 2.2-1.9.2-.6-.9-.4-1-.7-1 .8-1.5.1v.8zm6.2-55.4-1.1-.6-.8.5.2 1 1.5-.1zm9.1.9h.7l-1.4-1.8-1.1-.4.4.9zm-5.1 2.8.3 1 1.5-2.2 1.3-.1 1.8 2.4 2.1.9 1.3-.1v-1.1l-1-1.3-2.6-1.8-1.1-.2-1.4-1.4h-.6l.2-.6-1.2-.4v1.9l.3 1.4-.8.6zm-11.6-14.9-.9 1.2.2 1.3 2 1.4.4-.9.7-.9-.8-1.5zm2.4 9-.8 1.6-1.1 1.4.8 2.2 1.1-.3.7-2.1-.5-1.5.4-2zm-.5 12.1v2.9l-.7 2 .6 2.9.8-.3.6-.7 1.9-1.1 1.1.1.2-.5h.9l.7-1.1 2.1-1.6.9-1.8.9-.7.3-1.4-.7-1.3-1.1.6-1.1 1.3-1-1.6-1.2-.4-1.8.1-.9-.1.3-.7-1.1-.4-1.6-1.7-1.8.4-.4 1 1.8.7.8.2-.1 1.6zm36.8 15.5-.6-1.7-.7-1.6-.4 1.8-.3.7.8 1.1zm14.6-259.4-.9-.9-.3 1.1.5.2zm-17.5 260.8.7.8.3-1-.8-.7zm-6-25.9-.9-1.6-1-.1-.6.2-.8-.4-.9.2-.6.6-1.7-.1-1.1-.2-.7-.4-.1 1.1 1.2 2.8 2.1 1.8 1.9 2.4.9.6-.3.8-.9 1-.2.4.8-.3.3.5.6.5 1.3.9.4 1.2 2.5.2.5.3.4-.4.9.4-.8-1.1-.5-1.5-.9-.9.2-2.4-.2-3.1.2-.9-.7-.5zm8.4-133.8-.6.4-1.1.1-.3.5-.6.2-1.7.8-.7 1.3.5.4 1.5.1.8.6.4-.6.1-1.2 1.8-1.1 1.2-1.9zm16.9-101.9.7-.7-.3-1.5-1.1.1-.8 1.3.6.7zm32.4-88.1 1.1-.8.1-1.6.4-1.8-1.1.4-1.5 1.4.2 1.5zm-53.9 135.4-.4-.1-.7.9.3 1.8.7 1.3h.9l.4-1.6-1.1-1.8zm-1.9 63.2.1 1.2 1.4 1.1.6-.4-.3-1.5-1.3-1zm3-59.1-.8.9.6.6.7-1.1zm.2 198-.7.1.3.7.8-.2zm-1.1 1.6v1l .6.4.4-.7zm-.3 8.9.7.2.4-2-1.1-1.5v-1.6l.7-.4-.4-1-.9.3-.3 2 .9 2.1-.3 1.1zm-28.3-44-2.4 1.8-.4 1.3-1.4.4-1.9-.7-.7-1.7-1.3-1.1.1-1.8.7-1-1.1-1.3-.8-2.2-.9-.8.4-2.1.9-1.3-.1-1.9.7-1.5 2.7-2.4 1.1-.6-.6 1.2.1.9 1.5-2.2-.4-2 1.1-2.4.9-4-.8-1.1-.5-2.2-1-.4-1.5-2.7.5-3.3 1-1.1.2-1.2-1.1-1.5-.8.3-.2.8-1.2.9-2.4-.1-.6 1.1-1.2-.8-1.4-1.7-3.3-.7-2.5.8-.4 1.9-1.8 3.4.4 2.1v3.5l-1.1 4.2-.9 2 1.3 2.9v1.1l-1.3.6-1.5-.3-1.1-1.5-.3 2.1.4 1.9 1 .1.3.6-.7 1.1.5 2.5 1.2 2.4v3.1l.7.6.7-.5.7.3v1.7l1.6 2.2 1.1.1 1-1.3-.9-1 .1-1.1 1.8.2 1.4 1.1-1.9 2.3-1 1.1.2 1-.2 2 1.1 2 .5-1.7 1-.3.7 1.5-1 1.4 1.3-.3 1.2-1 1.9 2 1.6-.9-.3-1.2.8-1.1 2-.1 3.5 1.5.7 1.3 1.9 1.4 1.6 2.9.7-.1-.4-2.9-1.7-3.2.3-.9.9.2.9 1 1.1.6 1.1 2 2.4 1 .6 1.6v1.8l1.3.5 1.8 2.3 1.5-.4v-.6l1.4.4-.2.9-1.4.8 1.3 1.8 1.5.5.7-2.4-.2-1.1.8-.7-.7-.9h-1.4l-1.2-.7h-1.7l.1-1.2-1.1-3-.3-1.5.9-.5.9.5 1.2-.2-.3-.6-1.6-1.2-2-.2-.9-1.7-.8.6.1 1.7-1.2.7-.8-.9.3-1.8-.9-2-2.5-1.7zm-19.2 6.6-1.5-1.7h-1.1l.2 1.2 2.1 1zm-1.9 30.4.1-1-.7-.7-.5-.8-.3.7-.7.5-.4 1.1 1.2.2zm-2.3-17.9-.6.7.5 1.3.7.9 1.8.2 1.1.5.8-.9-.3-.9-1.7-.4-1-1.2zm.6 6.6.6-.8.7-.4-.5-1.3-1.7-.5-.2 1 .4 2zm7.9 48.6.5-.8-.4-.8-1.1 1.3zm2.2 2.8-.7.7.5.6 1.5.1.7-.5.8.5 1.2-.6v-.7l-1.9-.4zm-33.8-12.2.1-.6-2.2 1.2h1zm-3-248.3-1 .1-.7-.3.4 1.1 1.7.5 1.2.8v-1.2zm3.7 241.6.3-.7-.5-.4-1.5.6-.1 1.1.9 1.6h.8zm46.6-23-.6 1.7 1 .9 1.5-1.5.1-1.1-.6-.4zm-25 .4-.9-2.1-1.2-1.6.2-1.6-.1-2.5-.7.3-.4 2.6.2 2.5-1.3-.9 1 1.7-.1 1.2-1.5 1.6-1.1-.2-1.6 1.8-.2 1.3-1.8.9-1.8 3.6-2.5 2.3-1.3.1-1.3 2.3-1.1.5-2.6 3.1-.4.9.2.6 1.7-1.3 1.1-.2 1.1-1.1 1.8-.7 2-2.8 2-.6 1.4-1.1.2-.9 1.2-1.4.1-2.6 1-1.1 2.6-.1.7-1.7 1.3-1.2 1.3-.2zm-1.6 54v-1.4l-.3-1.3-.4 1.1zm5.1-4.3 2-1.3-.1-1.3-1.3.2-2.9 2.2.4.6zm12.4-73-1.7-.7-3.5-3.3-2 .4-2-.8-1.6.7.3.8h1.2l.4 2 1.1.5 1.1 1.5-.1 2.6 1.3.9v1.5l1.6 2.1 1.4.3 1.6-1.3v-1.3l.8-.5v-1.5l-.8-1.3.7-1.1zm33.6 30.1-.7-1.6-.4 1.5 1.1 1.4zm-4.4-135.5-1.7 1 .4.7-.3.9-1.8 1.3.8 2.6 1-.4.1-1.7 2.4-1.5.1-1.7.9-1.2-.9-2zm .1-82.2.6-.3-1.2-.8h-.6l.1.3zm-62.3 64.1-3 5.5-1.5 5.7-1 .9.9 1.3.1 5.6.4 5.8 1.4.9.4 1.7-.6.2-.1 1.8 1.5 2.4 1.5.4.4 1.9 3.9 1.3 2 3.1-.2 3.3.2 2.4 2-.7 2 .7-.6-2.9.7-3.4-1.4-4.2 2.3-3.2 3.5-5.5.1-3.5 1-1-1.3-.5.8-5.5.3-3.8-.7-4.2 1.5-3 .7-7.5.9-3.8 1-.2-.5-2.5-2.4-1.9h-.9l-1.5-3.2-3.1-1.1-1.8 1 .3 2-2.5.9-3 3.5-2.8 5 .7 1.3-.5 2zm59.9 139.9.4-1.6-2 .2-.9.6 1.2.9zm-2 7.8.1-1.7-.7.8zm3.5-211.1-.6-.1.3.5zm-4.5 10 1.1-.9-.7-1.3-1.1-.6-.1-1.1-1 .5-.2 1.2.7 2zm-.3-18.8.8-.8.5-1.3-1.5-.1-.8 1.2.2 1.1zm2.3 13.2 1.9-3.6-2.7 3.3zm-1.3 178.9.7-1.8-.7-1.8-1.2-1.3-.9.6.2 1.9-.5 1.3-.6.4.7 1.1zm-.2-196 1-2-.3-1.3-.4-.7-.9.6-.5 1.2v1.6l.4 1.3zm-.3 18.6 1.1-.6-1.3-.2zm-187.8 285.1.8.8 1.1-1.8-.9-1.3-2.1-.9h-.9zm193.1 32.3-1.1-.6-1.7-.5-1.1.4-.8-.2-1.1 1.1-.2.9.6.9 1.6.4 1.9-1.1 1.2.3 1.6-.7 1.3.2v-1.5l-1.1-.4zm-14.3-3 .5.7 1.5-.3.3-1.3-1.2-1-.7 1-1.2.2.6-1-.2-.7-2.3-.3-2 1.1v1.6l1.3 1 1.1-.9 1.4 1.1zm-2.9 26-1.2-.2-.7.6-.2 2.7-.9 2.6-1.5 2.4-.2 1.3 1.1.7 1.1-.5 1-1.6 1-.3.6-.7-.4-.8-1.3-.4-.3-1.3.5-.7 1.1-.8.3-.7.4.7.1-.8-.5-1.1zm.8-21.7.4-1-1.3.5zm1.5-1.3 1.2.2-.4-.9zm2-1.6 1.3.5-.3-1.2zm-8.3 27.9-.7-1.5-1.5.7-1.2 1.1.4 1-1.6 1.7.2.8.7.6 1.5-.1.2-.7.7-.2.2-1.4 1.1-1.1zm-41.2-80.6.9.4-.4-.9zm1.3 3.4-1.8.4 1.3.4zm.9-4.1-1.8-.7-.1.3.5.9 1.4.1zm18.6 89.8-.2 1.3-.6 1.1.7 1.2.3 1.3.7-1.8.8-1.2-1.3-2.8zm-21.3-82.2.5.2.1-1.5-.8-.5zm34.1 75.1-.6.3-.1 1.1-.5.5.6 1.9.7.3 1.3-.8-.4-1.8zm44.5-79.1.7 1.9h.7l-.5-1.6zm3.3-239.6-1.2.2-.4 1.1 1.1 1.9 1.5.5.5-.9-.3-1.3zm3.2 279.8-1.2.2-.5.5.1 1 .9 1.5h1.5l.9.9.8-.8-.4-.7-1.2-.6.1-1.3zm-76-13.5-1.1-.5-1.3.9-2-.3-2.7-2.8.5 2.3-.5.9-.8-1.1-1.8 1.7v1.2l-.8.9-.4 3.3-.8 1.1-.7 2.9-2.3 1.7.8 2.2-1.1 1.5-1.5 1.5-.7-1.6-.9-.4.4 1.1-.2 1.8-1.5 1.6-.3 1.5-1.4.5-1.3-.2.3.8-.7 1h2.1l.3.3-.3 1.5-1 .7.5.4 1-.1.2 1.2-.6 1.3-1.3-.4.5.3-.1.7.7.8.5.5-1.4 2.7h-.9l-.4-.7-.6 2.1v1.2l-1.9 3.2-3 1.9-2.5.3-3.6 1.5-1.7.2-.4-2.4.3-1.3-.8-1.3-.3-.7-.8.3-.9-1.3-.8.4-1.3-.4-.7-1.4-.7 1.3.6 1.1-1.6-.5-.7-.9v-1.3l-.9-.9-1 .6-1.5-1-.9.1-1.3 1.4-2.1.2-.4.8-1.3.1-.9-.8-1 .2-2.1 2.4h-1.2l.2-1.4-.2-2.9-.7-2.1.4-1.5-.5-1.1.1.9-.8 1.6-1.1.7-1-.8-1.5 1-2.2.1-1.3-.5-1.8-.2-.5-1.1-1.4 1.1h-1l-.9-2.4v-2l-.3-3.8-1.5-1-.4-1.1 1-1.1 1.2-1.7-.2-1.5-.8-1.5-2.4-2.5-2-1.3-2-.5v-.7l1.5-.1 1.4-1.1 3-.6 2.1-1.5 1.6.2-1.5-.5-2.3 1.3-2.7.3-1.1.2-1.7-.6-1-2 .5-.5 1 .5-.7-1.3-2.4-3.3-.1-3.3 1.2-.7.2-1-.4-1.2.1-1.2 1.4-2.3 2.1-2.6.9-1.3 1.3-.4 1.6 3.2 2.7 2 .2.7 1.9 1.9.7 1.5 1.3.2 2.5-.6.3-1 2.1.2 1.2-.6 4.7.4 4.8-1.8 1.3-1.1h4.2l2.1 1.1.7 1.1h2l3.6-1.8 4.1-.5v-.2l-4.1.5-3.6 1.8h-2l-.7-1.1-2.1-1.1h-4.2l-1.3 1.1-4.8 1.8-4.7-.4-1.2.6-2.1-.2-.3 1-2.5.6-1.3-.2-.7-1.5-1.9-1.9-.2-.7-2.8-2.1-1.6-3.2.7-.2 1.4 1.7.9 1.4h1.9l3.5 1.4 3.4.5v-.7l1.5-2 .1-2.5.6-1.8.7-.8-.2.1 1-1.4.4.9 0 0 1.1-.1 1.2-.6 1.1.4-.7-.8-.9.5-1.2-1.3v-.9l.5-.1h.1l1.1-.2-.1-.3.8-.3 7-1.4 2.4-1.9 2.2-2.5.6-1.5 2.5-2.2.9-1.7 2.3-1.8.1-2 1.2-1.4.3.2.4-.5 3.2-.9 2.1-1.5 1.7-.6.1 1.7v.6l-.4.1v.3h.3l.3 1.5.1 2.2 1.1.7.1-.2-.9-.6.1-2.1-.3-1.5.7-.2.1-.2v-.3l.2-.3 1.4-.7.9-1.2-2 .5-.8-.3.7-.9h-.9l.9-1.1 2.5-.9h1.5l3.2-3.2.4-2.2 1.9-4.1 1.2-.3 1.3-3.8 1.1.1.3 1.4-.6 1.5.7.1 1.9-1.7-.4-1.5.8-.5 1.7 1.2v2.4l1.5 1.5.8-.4 2 1.4v1.1l-1.5.5-.1 2.5.7.3.7.9 1.2-1.5.8-.2.9 1.1-1.9 1.5.8.8 1.4-1.3h1.2l2 2.1 1.5-.1 1.4 1.4 2 .4h1.3l.3 1.4-1.8 1.3-2.9.6-3.4-.4-1.1.7-.1 2.2 2.2 2v1l-2.2.4-1.8.9-1.4-.4-2-1.4-.2.7-1.8-.6h-2.4l-.9-.7-3.7-.2-2.7.2-1.4-.7-1.9 2.1v.2l1.9-2.1 1.4.7 2.7-.2 3.7.2.9.7h2.4l1.8.6-.1.4-.9.2.1.8-.6.9 1.8.7 1.6 2-1.9.4-1.9-.4-.8.5 1.3 1.6.7.4.2.9-.7.2-.7 1.3 1.4 1.3.5 1.8 2.7 3.1 1.3 1.2-.9 1.6-2.2.4-.3 1.1.7.7.3 1.5 1.3.8 3.5 3.5h1.2l1.3 1.6.4 1.1 1.3.4-.5 1.5zm-34.6-33 1.6 1.3.3-.1-1.5-1.2-1.4-2.6h-.4zm10 5.1v-.2l-2.1 6.6-2.7 3.8-1.5 3.6-3.5 5v .2l3.5-5 1.5-3.6 2.7-3.8zm.9-2.8v-.2l-.9 1.5v.2zm95.3.1-1.1-.8-.8.5.6 2.1.1 1.6.9-.3.6-1.5zm1.3 46.3-.7 1.1 1.8.6-.6-1.3zm.5-2.2v-.9l-.9-.1-.6 1.7 1.1.4zm-12.1 13.6-.7.4.3 1.4.7 2 .7.3.1-.8-1.1-2zm-36.4-15.3.7 1 1.2-.2-1.1-.7zm44.8-70.8-.9-1.6-.9-1.5.1-1.9-.2-2-.7 1v-2l .2-1.1-.7-.1-.9-1.3.3-.9 1.2.2.1-2.2-1.2-1.9.1-1.3-1.1.9-1.6-1.7-2.3-2-.3-1.4-.6.1-1.3-.4-.3 2.1.7 3.3-.1 1.3-1.2-1.3-.6.1-.1 2.2-.4.8-1-.9-1.8-.8-1 3.3.7.5-.2 1.3-1.1.4-.8-2-1.8.7-1 2.9-2 .9-1.6.4-1.5 1.5 1.9-2.6v-2.9l-2.2-2-1.3.1-1 1.5-2 .8-.9 1.5.7 1.4-2.4.4-1.6-.6-1.3 1.2-1.7.4-1.6 1.8.5 1.3-.6 2.4-1.3 2.4 1.7 2 .7-1.1 1.4-3.5 1-.8 1-2.1.9-.4 1.1 1.1-.4 1.8.5.5.8-.4.8.6.2-1.5.7-.5.9.3-.4 1 .9-.1 1.3 1.1.7.1-.9-1.3.6-.7-.4-.8.7-.7h.8l1.5 1.5 1.4.4 1.5 1.4.3 1.5 1.3 1.4-1.5-.6-.7.3.1.9-.8 1 .8 1 .1 1.3-.4 1.1 1.1 1.6.2 1.4 1.5 1.9 1.9.1 1.4 1.4 1.8.8 1.4-.7.2-.9.9-.6.5.7-.7 1 .5 1.6.5.7 1.2-.9 2.4-2.9.2-1.8-.7-1.1-.9-2.3-1.4-1.1.4-1.4 2.2-3.6 1.2-.7 1.1 1.8.3 1.7.8 1.3-.1 1.5.7 2.6.5 1.2.1-1.2.2-1.9-.5-2.5.3-1 1-.1.5 1.1v-1.1l.7.1.9-2.2zm-42.2 70.1-1.4.3 1.3.6zm28.9-15.2-.2-1-2.4-.7-1.7.5-.4 1.7-1.3.9-.2.9-1.8 1.2-1.3.1-.9 1.3-2 .4-4-.9-3.4-.4-.7.9-.8.1-1.6-1.5-1.3-.2h-1.5l-1.6-.4-2.2-.4-1.2.7-1.3-.8-1.6-1.7-2.5-.6h-1.5v1.8l-1.3.8-.8 1.6-1.1.9-2.2-.8-2 .4-.8.9.2.6-2.2 2-.1 2.5.4 1.4-.2 2.9-.4 1 .8 2.1.2 1.6-.7-.9-.4-1.3-1.1.3-1.1 1.3-1.4.7-.4 1.7.2 2-.7 1.3.3 3.6-.4.8-.3 1.4-1.1.4v2.2l-2 1.5-.7 2.2.3.7-.8.9.9 3 .9 1.4.6-.3h1.3l.9-.7.9.4.5 2.2 1.3 4-.7 1-.6 2.2-1.3 1.8-.3 3.7.2 2.9h.9l1.1.8h1.8l.9-.9 1.6.4 1.4-.2 1 .9.3-1.3-.1-1.8-1.1-.9-.2-2.2 1-1.5.4-2.8-.2-2.6-.7-.8 1.8-2.4.6-2.2-.4-2.6-1.1-1v-.8l1.9-1.1.8-1.1 1.8-.3 1.7.7-.2.9.8 1.4v1.7l-1.4 1.5-.4 1.5.9 1.8 1.2.2 1 1.3 1.9 1.2.2 1.6-.7-.1-.5 3.1.6 1.8 1.2.5.9-.3 1.9.9 1.4-.2-.1-.6-.4-1.3 1.5-1.3 1.5-.3 2.1-1.1 2.5.3.9-.9.7.4h1.2l.8-1.2-.2-.7-2.6-.5-.7.3-.7-.3-1.6.1-.1-1.3-.8-.2.1-.8-.7-.2-.8.4v-.9l-1.5-.5-.4-1.1 1-.9.4-.8.6.3-.4-1.1.7-.1.4-.9-.8-.8-1.2-.4.5-.8-.2-.9-1.4-1-1-.1-.4-1.6-2.2-2.7-1.4-1-.8-1.6.2-.7.7.1.3.9 1.5.1 1.4-1 .4-1.1 3.5-1.1 2.5-1.8 1.2-2 1.6-.7.1-1.2 1.9-.4 1.6.9 1.1.2 1.5-2v-1.3l-1.8-.7-3.8.2-1.7 1.1-2.5-.1-1.3.3-1.5 1.5-1.6-.2-1.2.3-1.6-1-1.5-.5-1.7 2.1-1.3 2.8-1.7.8-1.8-.3-.4-.8-2.2-2.5-2.2-2-1.1-3.1.4-3.3 1.5-3.2 1.6-1.5 2-.6 2.3 1.2 2.8.2 3.1-1.5 2 .3.7 1h1.8l1.1-.5 3.6.5 1.9-.1.4-.5 2 .1 1.3.8.4.9 1.7.6 6.5-1.3 2.9-1.5.8-1.4 1.1-.1 1-1.1 1.2-.8.6-1.5.8-1.2.8-.6zm4.8-17.1-.5-1.8-1.7-2-.3 1.1.2 2.2 1.5 1.4zm-1.3 45.8-1.2.5-1.3-.5-.9.4.7.4.1.6 1.8.6 3.7-.7 2-.4-1.7-.4zm-235.1-132.9.4-1.7-.5-1.2-1.2.8.1 1.1zm116 91.6-.9-.8-.3.5.3.7zm-34.8-5-.4-.4-2-.6-.3.2.3.8 1.5.5zm33.8 2.7-.6 1.1.2.4.3-.1zm28.8-240.3.4 1.9.9-.3v-1.2l-.6-.7zm-61.9 245.9 1.1-.3 1.6-1.7-1.2-.9-2.1-.1.2 1-.2 1.1zm-.2-5.3-2.2-.4-.2.7 1.2 1.4h.8 2v-.6l-.7-.2zm44.3-219 .2.8 1.5.1.6-.5-1-1zm23.7-85.8-2-.3-.2.7 1 1h1.8l1.8.8-.2-1.8-1.4.1zm-133.6 191.3 1.2 1 .9-.2-2.2-2.2zm88.7-442.3 20.5 30.5 24.5 35.5-24.5 83.1-1.5 2.3-1.7 1.9-.2 3.3-.9.2-1.3 2.3h-1.8l-3 1.6-.9 4.2-.6.9.5.4.3 2h-1.2l.5.8-.8 1.8-2.2.1h-2.7l-3.2-1.1-.2.9-1 .8-.2 1.7-.2.9v.8l-.8.7.9 2 .2 1.8 1.8 1 2.8 1.9.3 1 1.3 2.2.1-.8.6.9.7-1h .9l.1.8-1.4.7.4 1.6 2.4-.2 2.3 4.4 2.2.1 1.6-.9 1.6.7.8-.7.9-1.6-.8-1-.4-.2 2.3-.9 1.1-.9v-1.5l-.7-.6h2l3.8-1.8.5.7.9.4.9 1.5 1 .4 1.1.9 5.3-.2.7-.8 1.8-.1-.1.7 2.3-.1 2-.4 1.1.5-1.8.6-.1.9 1.4 2h-.9l-1.1.6.2 1.8 1.3.2v.8l-2.1 1.8-2-1.4-.2-.9-.8.9-.6-1-1.8 2.4h-1.1l-1.5 1.3-1.5-.1-.4 1-1.4-1.1-1.9.2 1.9 1.2.2 1.3-2.1.4-.1 1.8-2.5-.1-1.3 1.5.8 1 1.6.9-1.5 1.8-.8-.5-1.5 2.5-1.2.4-.6-.4-.4 2.4.7 1.9-.7 2.9.1 4.2.6-.1 4.3 2v1.2l1.2-.7 4.6 2.4 2.5 5.3.6.1-.8 2 1.7.6.2 2.5 3.1 2.3v2.5l2.2 3.2 1.6.7 1.7-.1.9.7v.6l2 2.4 1.1.4 1.2 2.4-.9.6-3.4-1.3-2.4 1.4-1.6-1.7-1.3-.1-1.8-1.3-2.6-.4-1.1 1.5h-1.6l-1.1-.9-1-2.5-2.2.9-1.3-.5-.4.5h-1.1l-1-.3-1.5.8-2 3.8 2.4-2.9 1.8-.7 2.2.2 1.9-.8.9.4.1.9 2.2 2 1.3.3 2.7-1.9h1.6l3.3 3.3 2.8 1.6 4.3 2.6 2 3.3-.1 1.2-2.3.2-2 2.3-1-.1-.8.8-.1 1.5-1.5.7-2-1-1.1.8h-1.1l-1.9 1.6-.2 2 .5-1.5 1.7-1.4 1.7-.4 1.7 2.5 1.3.4 2.6-2.2 2 .3 2.7 3.5.4-.8.7.9h1.6l.2.5-3.7 3.5-2.3.4v1.5l1.1.2 2.2-1.8 1.8.4v-.8l-.3-.4 1-1 .9.6.2 2.5.5 1-1.1.8-.1-.6-1-.5-.2.9-.5.4-1.6-.4-1.8 1.5-.2.8 2.7-.1.9.9-.2.7-.6-.1-1.1 1.1 1.1.5.8.8-.9.9-1.1-.2-.7.6.7.7 1.6.1.9 1.5-1.2.8-.3 1.7-.4-.6-.3-1.3-1.3.2-1.3 3-.9.8-2.3-.7 1.6.9v.9l.7 1-.9.7-.1 1.1.7.9-.6.7.1 1.5-1.4.7-1.1-1.2-.4 1.5 1.3.1 1.1 1.4-1.9-.1-.1 1-2.1 2.2h-1.1l.1-1.7-.9.1-.5-.1-.3 1.4-1.1-.2.7.9-.9.8 1.3.1 1.1 1.5h-1.8l2 1.8 1-.9.9.9-2.8 1.2-1.8 1.2-.3 1.3.7-.7 1.7.2.9.9-1.9 1.6 1.4.4-.2 1.1-1.1.3.3.9h.8l.7 1.2-.1 2-.9-1.4h-.9v-1.1l-1.3-1.1-.6 1h-.9l-.1 1.3 1.5 1.1-.1 1.4-.6-.8h-.8l-.6-.8-1.2.3.9.7.2 1.5h1.1l.2.4-.9 1.1-1.7-1.2-.2 1.1.6.8 1.4.4-.7 1.8-2.3-1.4-.9.8-.7-.6-1.3 1.8-2.8.1 2.1 1.6 1.2-.4 1.5.3-.6 1.3-.9.1-.2 1.7-.9-1.1-1 1.5-.5.3-.1-.7h-.8l-.2 1.3h-.8l-.4 2h-1.6l-.2-.8-2.1.3-.6.9-.8-.2.8 1.7-.6 1.8-.7 1 .6 1.1-1.4.6-.9-.2-.6.8-.2-.9-.8.7-1 1-1.9.2-.2.8h-1.3l1.1-.9-.6-1-.4.8-1.3.3-.1 1.1-1.3.3-1.3-.8-.8.7-1.5.5-.2 1.6-3 1.5-.2-.7 1.1-.5.8-1.2-1.1.3-1.7-1.7-.2-1.1-2.1-1-.8-.7.4.9-.1 1.2.4 1.5.3 2-1.3.7-.8 1.3-.8.6-.7-.6-.4-.4-.2.7-1.1 1.5-1.6 1.6-1.8.9-1 .3-1.6-.6-1.6.5h-1.4l.7 1.1-1.8 1-1.5.5-1.3-.5-.6 1.2-1.6.2-.9.9-.4-.1.3-.4-.8-.1-.1-.4.3-.2h-.4l-.4-.6-.2-.4-.6.6h-.4l.2.9-.3 1.1-1.2.9-.4.7.6 1.5h1l .9 1.7v.5l.7.1.4.7-1.5 1.8h-.9v-.4l-1.8-.4-.7 1.1-.4.4-.2-1.8v-.8l-1.2-.7-2-2.8v-1l1.2-1.5.3-1.5 1.2-.2-.1-.6-.9-.4-1.2.4-1.2-1.1-.9 1.5-1.1-.1-.9.3-2-1.7-.8.3-1.5-1.6-.8-1.5-.4 1.6.1.9-1.3.6-1-.4-.6.4-.5-.1-.5-.3.1.3-.6.9-.9.4h-.7l-1.5.9-1.4-.1-1.5.3-.4.8h-2.9l-.8.6-.3.6-.8-.5-1.3.3-.8.7-.6.2-.5-.8-.6-.2-.1 1.2-.7.9.4.5-.2 1.3.1 1.3-.2.3.7 1.1-.4.8-.6.2-1.2 2h-1.1l-.4-.6v.7l-.8.6-.4 1.5-.7.6-.1 1.5.7.1.7.8-.8 2.8-.9 1.4 1.8 1.5-.2.9-1.4.4 1.5.4 2.5 1.5 2.2 2.2h.8l1.1 1.9v.9l-.3.6 3.9 3.1.3 1v1.4l1.8 1.1.2.6 4.5 2.5 4 3 .9 1.6 3.7 2.8 1.2 2.2.2 1.3h.5l-.1 1.1 1.9 2v .9l.4.7-.4.7 1.5 1.8.4 3.1.7.5.7 2.7.5.5v1.5l-.3.9.5 1.4-.4.6.6 2.1v.8l.8.3.4 1.2 1 1.9-.2 1.3h-.4v-.7l-.5-.7-.7.4.1 1.3.8.8-.2.7-.9.7-.1.9-1.3 1 1.2 1.8-.7 1.5.5.7-1.1 1.1-.9.3-.2 2-.9.4-1.9 1.9-1.2.7-1.7 1.2-.2 1.4h-1.5l-1 1.1-3.6 2.1-2.2.2-.9-.5-1.6.4-.3-.3.2-1.1v-1l-.4 1-.2.4-1.4-.4 1.4.9v.6l-.4.3-1.4-.2 2.3 1.1-.5.8.6 1.3-1.2.6-1.8-1.3 1.5 1.7-.2.8-.7.9-.7-.2-.7-1-.9.2.4 1.2-.1.4.3.4-.7.4-.4.7-.9.1-1.6 1.4-.7.5-1.1-.2-.4.9-.2 1.8-1.1.9h-.4l.1.4-3.7 1.7-2-.3 1.3-.8 1.5-.7.8-.9-.9.3-1.2-.7.2-2.6.2-.2-.5-.1.3-1.1-.2-2.6 1.2-2 2.3-1.8.7-.9-1.2.5-1.8-.2-1.3.4-.8-.5-.8.3-1.6-.4.2-.4-.1-1.4-.4-.3 1.5-1.9 1.8-.3 1-2.4h1.7l.9.6 3.9-1 1.5.9 0 0-1.6-1-3.9 1-.9-.6h-1.7l-1 2.4-2.3.3-1.5 1.9-1.5-1.1-.5.3-1.7-.5-.9-.7-.1.5-1.3 1.3-.9-.1-.2-.6-.5-.8 1.1-1.2.1-1.1-.6-1.3v-1l-.7.5-1 .9v1.4l-1 .2-1.3-.2-.2-1.3-.6-.9.1-1.3-.6-1.1 1.4-.3-.1-1.6-1.1-1v-1.6l-1.1-1.3v-.1l-.2.1-.2-.4-1.8-1.5h-.7v-.8l-1.1-.5-2.2-2.2-1.2-.4-.9.8.2.4-.2.3-.7-.5-1.8-.4-1.7.4-1.2-.4-1.3.1.4-1.3.5-.6-.8-1.3.1-2.2.4-.5-.4-1.1-1.5-.3-.3-.2-.5.2-.6-.4-1.3.6-1 .1-.6-.5-.5.7h-.9l-.5-.2v.4l-.4 1.1 1.4.7.2 1.5-.9 1.5.1 1.8-.3 1 .7.5-.2 2.4-1.2 1.5-.2 1.7-1.2 1.8-.4 6.4-2 2.6v1.8l-.8 1.7.9.2.2.4-.8 1 .1.8.4 1.8v1.1l1.6 2.4-.8 1.6.5.7.9-.2.2-.7.8-.9.4.3 1.3.2.7.7.2 1.8.8 1-.2 1.8.9.3.9 1.9h.9v-.9l.1-.7.4 1.3.9 1.4v1.4l.8.4.7 3.4-.3.5-.3.6-.4-.6-1.3.9-.2 1.2 2.4.9.3-1.3.5.4.2 1.5 1.1.9 2.4 2.4 1 .8.7-.5 1.7.2 1.5.6 1.1 2.4.9 1.2 1.5 1 .2.8h.6l.8-.8.7-.2 1.3 2.3 6.1 6.2 1.8 2.9.8 3.4-.7.9.2 4.1-.4.7v1.5l.6 1.1v4.2l1.1 2.2 1.9 1.8h1.3l.4.7-.2.6.3 2.5.6.5.3.7v.5l.5.2 1.8 3.5v2.1l-1.3-.2-.3-.7.1-.9-.9-.7.5.7-.1.9-.5.2.8.1v.4l-1.7 1.1-.6-.9-.5.6-1.6-.8-1.1-1.3-2.7-.5-2.5-1.3-1.3-1.4-.9-.7-1.2.3-1.2-.1-2-2.2.2-1.5-2.6-2-3-1.2-1.1-.9.2-1.1 1.3-1.2-1-1.5-1.5-.9-1.5-2.3-2.3-1.3-1-1.5.4-.8-1.3-1.2-.2-1.8.5-.4.3-2.7-1-2.1-.9-2.3-.9-6.9-1.7-2.8.2-.8-.4-.7-3.6-2.6-.1-.7.7-.8.1-.9-.9-.1-.6-1.4-1.6-.2v-1.1l-1.9-2.5h-1.2l-.9-3-1.5-.2v-1.3l-.9-.7v-.8l-1.6.8v1.6l-1.1-.1-.8-1.1-.4-2.9.4-.8-.2-2.4 1.1-.5-.1-3.2.9.2.6-1.3-.9-.2 1.2-1.7-.4-.7 1.1-1.6-.9-.1.3-2.8.4-1.3.8-1.3.2-2.1 1.8-1.3 2-5.3 1-.6.3-2.7-1.1-1.9.1-2.4-.7-1.5-.4-2.5-1-1 .2-1.8-.4-1.6.6-1.4-1.1-3.5-2.3-2.2-2.5-2-2.2-2.7-.1-1.5-1.2-2.9 1.8-1 .2-1.3-1-4.3.7-1.2 1.5-.9-.2-1.7-1.8-.9-.3-1.8-1-2.2-1.3-.5-2-4.4-2.2-1.5-.5-1.3-1.2-1.1-1.4-2.4-1.3-.4-.2-1.3 2.2-.9 1.5-1-.6-1.4v-2.5l1.2-1.1-.4-2.9 1.3-1.8-.3-.1-1.3 1.8.4 2.9-1.2 1.1v2.5l.6 1.4-1.6 1.1-2.2.9.2 1.3 1.3.4 1.4 2.4 1.2 1.1.5 1.3 2.2 1.5 2 4.4 1.3.5 1 2.2.3 1.8 1.8.9.2 1.7-1.5.9-.7 1.2 1 4.3-.2 1.3-1.8 1 1.2 2.9.1 1.5 2.2 2.7 2.5 2 2.3 2.2 1.1 3.5-.6 1.4.4 1.6-.2 1.8 1 1 .4 2.5.7 1.5-.1 2.4 1.1 1.9-.1 2.8-1 .6-2 5.3-1.8 1.3-.2 2.1-.8 1.3-.4 1.3v-.3l-.8 1.7-.2 2.5-.8-2.6-.1-2.4-.6-1-.1-.8.7.2.6-.6 1-1.7v-1.3l-.5-.5.3-2.2.5-.2.4-1-.8-2.3 1.1-.9-1.2-1.3-.8-1.2-.1-2.2.6-.8-.5-1.5-.8-.6-.6-5.1-1.1-1-.4-1.8-1.2-2-.3 2.7-.5.4.1-1.5-.8-1.5.1-3.7-1.2-1.5-.1-1.7.6-.7-2.1-1.2-.1-2.9-.6-.1-.7-6.2-1-.7-.3-1.6.6-.2v-1l-1-2 .4-.8.1-.9-.6 1-1.1.4h-1.5l-.4-2-.7-.9-1.6-3.2-.3-.9h-.8v-1l-1.5-.9.9 1.1-.3.6-.1.9.9.7-.2 1.7-.8.8.3 1-2.2 1.8-1.4-.2-.9-1.2h-.6l.6 1.3-.1.6 1.3.4-1.8 1.1h-1.2l-1.1-.5-.4 1.5-3.3 2.3-1.6-.2-.2.4h-.9l-.1-.4-.2.8-.8.2-.9-1.2-2.3 1.2-.2 1.1-.9.1v-2.3l2.2-2.1.1-2.7-1 2.4-1.8 1.5-1.3 2-.2-.8.2-.6-.5-1.8 1.3-8.3 1.9-1.2-.8-.8-1.5-3.7-.2-3.3-.8-.4-.5-.9.5-.3-1.2-.9-.6-2.4-.9-1.3-.6-1.3v-1.5l-2-1.3.7 1.4.4 2.9-3.1-.9-1.5-1.8-.1-.9-1.6-1.4-.2-.9 1.5.1.6 1.3 1.3.7.5-.6-.5-.2-1.2-1.1 1.3-.8.9.9 1-.4-.1-1.4-1.6-2.4-2.6-.5-.7-1.1-1.5-.2-.4-1.1-.2 1.1-1.5.2-.1-.7 1.3-1.5-1.6.1-1.3-1.1v.8l.8 1.5-3.7-3.3-.7-2.2-.8-1.8-.1-.6.1-.5-.2.6.1.6-.2.2.4 2.1-.2.1-1.2-3-1.5-2.2-.7-.9.4-1 .1-1.3-.2.7-1 .9-.3-.5.6-2.3-.6-.4.4-1.9.1-1.1-1.1-.7-2.6-5.8h-.7l.1.5-.6-.2-1.6.9-3-1.4-.3-.6-.9.1-1.5-1.4-.7-2.5.3 2.9 1.1 1.7-.2.9-1.7.7 1.1.4 1.1 1.9-.2 2.2-1.6.6-1.3 2.5-1.3-.9.8-1.5.7-.3.4-.8-1.2.6-1 1.7-1.1-1.6.9-2.8v-.5l-.6-.7.4.8-.7 1.1-.2 1.8h-.5l.9 2-.1 1.5-.8.5-.1-.2-1.1-.7-.7.3-.4 1.2h-1l-.4-.8-.7-1.6-.8.3-.2-2.6-.6-1.4v-2.3l-2.4-3.4-.4-2.6.3-1.5-.8-2.1v-2.8l-2-2.6h-.1l1.9 2.4v2.8l.8 2.1-.3 1.5.4 2.6 2.4 3.4v2.3l.6 1.2.2 2.6-.4.1.9 1.9-.9 1.5-1.3-1.4v.9l-.9-.5-.6-1.9-.3-.9-.2.7-.2 1-.2-.4-.3.6h-1.3l-.2.3-1.4-.4-.4-2.1.7-.9-1.3-1.1h-1.4l.1.4 1 .2.7.8-.5.5-.5 1.2-.1 1.2-1.2 1.4-5.2 1.9-.9.8-.4 1.3-.8 1.6.3 1 .9 1.8-.1.5.5-.3-1.9 1.6-.4 1.5-.9.1.3 1.1-3.1 2.2-.2 1.1-4.5 2.3-.5-.7v-.9-.1l-1 .8-.9.1-.4 2.2 1.3-.5.4-.6.7.4-5.7 5-1.5 4-7.5 6-1.1 2.2-1.7 1.7-3.2 1.1-2.4 2-.2 1.8.3 2-1.4 2-2 1.3-3.7-.6-1.6 1.4v1.8l-2.3 2.9-1.3-.1-.9-1.3h-.7l-2.8 2.8-.8 1.5v3l1.4 4.1-1.3 1.5.2 2.3v6.5l2.1.7.3 4.1-1.9 5.5-2.2 3.9v3.2l.8 1.3.7 7v1.9l-1.6.6-.9-.4-2.2.3-.9 1.7.4.7-2.2 2.9-.8.9.2 1.1 2.7 1.4.3.5v.6l-.4-.8-1.3-.5-3.6 1.3-.6-.1-2.9 1.3-.9 1.5-.1.9-.4.4.4.7-.8 2.2-3.3 2-2.7-.2-2.5-1.8-2.5-2.9-3-6.2-.2-3.5-.9-3.2-1.9-3.5v-1.6l-.7-.1-.8-2.3-.8-2.9-2.5-2.9-1.5-2.3-.7-.1-2.3-2.4-1-2.2-.8-.7-.2-3.5-.9-1.5-1.5-3.8-.4-2.6-.9-1.8-.9-1.3-.2-3.1-.5-.1-2.2-2.5v-.9l-.6-.1-2-3.5-.1-1.1-1.1-.6-.7-2.5-1.4-.9-1.3-3.6-.1-4.7-3.5-6.9v-2.3l-1.6-2.4 1.8-.1-2.4-3.2v-1.8l1.1-.2-.9-1.2-.1-1.5-2.5-4.6-.4-2.9 1.5-.8-1.3-.8-.1-1.5.9-1.9-.2-2.4-.8-2.4-.9-.6-.7-3.9 1.8-1.1.6-.9h1.3l-1.4-.3-2 .3-1.1-.1.2-1.6-.8-1.4.3-1.7.4-.3 1.1.2 1.4-1.4.7-1.1-1.5.9-1-.5-2 .2-.6-1.3-.2 1.1-.1 1.7-1.2 3.2 1.2 1.5-.3 3-1.3 1.3-.1.9-2.8 1.5-4.3 2.7-2 .7-3-.7-6.4-5.2-2.6-3.5v-.6h-.8l-1.1-.6-3.7-3.7-.3-1.1.3-.9 1-.1.3.5 1-.3v1.9l1.4.2.9-.8.5-.1.9.6.2-.6 3.4-2.7h1l1.6-2.4.5.1.7-1.6-1.7-.1-.5-.3.2.5-.2.7-3.5 1.5h-2l-1.6.5-5.5-1.9-2.6-2.7-1.1-.5.1-1.7 1.6-2.2 1.8-1-2.3.4-2.3 1.5.1-2.2 1.8-1.1 1.1-.3.7-2.1 1.3.3 1.4-.7 5.7.3 3.3-1.2.7-.7 1.9-.6-.7 1.2.8 1 1.9-1.1 1.5-.5-.7-.8.2-1.2-1.9-5.3-1.6-2.2.4-1.1-1.1-1-1.6.1-2.7-1.8-.4-3.1.1-2-1.2-2.6-1.5-.1-.9.5-2-.7-1.4.1v-2.1l1.3-3.4 1.3-.4 2.2-3.2.4-1.4 1.5-.8 1.1-.8 1.8.8.4 1.6 1.2.2 3.1-1.6 4.4-.2 2.6-3 1.6-4.9 3.9-2.7 1-1.8.4-2.7 1.9-2.6 2.7-1.3.9-2-.1-1.6-1.1-.9 2.4-2.6 1.3-1 .2-2 .4-4.2-.9-3.1-.5-.7 2.6-2.5 1.5-.5 1.6-1 1 .2 1.7-1.9.5-.6 2.5-4.1 2.5-2.2 2.1-.1 1.1-2h1.8l4.6 3.1 2.4-1.3 2.3.9 1 2.2 2.1-.1 3.4 2.1.5 1.1.1 1.4 2.2 1.1v-.3l-2.2-1.1-.1-1.4-.5-1.1 2.4-2.6 1.4.5.3 1.1 1.1-1.8-.5-3-1-3.7-2.2-.5-1.6-3.7.2-4-1.2-2.1-2.8-1.4-2.2-2.5-1.4-4.1-2.7-1.4-3.3-1.1-.4-1.9-1.5-.4h-3.3l-3.4-.4-.9-1.1-1.4-1-.1-2.2-2.2-1.5-3.8-5.4-.9-2.6-1.3-1.2-1-.1-.8.9-1 .7-1.4-.1-.9.6-1.5-1.4-1.1.3-.8.5-1.3-.3 2.5-2.2-.4-1.4h-3.5l-1.1 1.3-3.1.4-.4-1.8-2.4.5-3.8 2.4-1.1 1-.4 1.5-1.3 1.2-2.9 1.3-.3.9-1.4 1.1h-2.1l-1.5-.6v-1.1l-1.3-1.7-.1-3.3-.2-1.7.1-2.1-.6-1.6-1.4.1-.5-1.6.4-1.9v-1.3l-1.5-.8-1.5-1h-2l-.9 1.5-.3 2.4-1 .9-.7 1.1.4 2.3-1.1 1.8-1.8.2-.2-.9h-.9l-.7.9-1.8.5-.1 1.1.8.8.1 1.3-2.9-.2-.9-1.2-.9-.6-1 .9-1 .2-.9 1.3-1.8 1-2.8.6-1.3-.5-1.8-2.4.7.9.6-5.3 1.8-4.1.8-1-.2-2.3-1.7-.7-.9-2.4.8-1.7-.4-1.9h-2.4l-1.5.8-2.2-3.1-.1-2.6 1.7-1.3 3.7.5 1.5-.4.2-1.9 3.3-1.1-.5-1.3-.7-.7 3.6-.9 2.8-1.2.1-1.7-2.6-1.3.1-2 2.1-.8 2.2-1.6 1.7.1 2.6-2.7 1.8 1.9.7 1.2 4.1-.7 2.9.2 2.4-2.6-.4-1.7-4.1-3.2-1.1-.2-.2 2.4-1.4 1.6-1.5-.5-1.5-1.5-3.7-1.1-1.6-1 1.3-2.1 2.6-4.1-.1-1.8-.9-.1.2-.7 1.8-1.2-.6-1 1.6-1.7 2.8.4 1.5.9 6.1.6 5.2-.1 2.6-.4-.1-2.2-.5-1.9-.2-1.8 1-.5 1.5.4 2 .1.9-.4h2.6l1.8 1 3.4.9 4.6.6 1.5-.7 1.5-1.3 1.9.6 2-.3 4-1 4.3 1.1 2.7-.9 5.1.3 3.5 1.4 1.5-.4 3.5 4.1 3.7 1 1.7-.9-.1-2.2 1.6-1.1.2-1 .7-.4-1.4-1.6.5-1.5 1-.9-.7-3.4-1.8-1.3-.3-1.4-1.5-2.5-.3-1.8-.7-1.1-.1-1.3-.8-2.5 1.1-1.3v-.8l-1.9-.2-2.3.2-1.4-1.1v-1.1l1.5-1.4 1.3-.6 1 .5h1.2l2.6-1 3.7-.8 2-.5 1.1-.5 1 .9h1.3l1-.6h1.1l.2-1.3.8-1.7-1.9-.9-1-.7.4-1.3v-3.7l.8-4.8.1-1.9.7-2.4.7-3.8 1-.1 1.9.2 3.3 1.1 2.2.2 3.3-.7h1.4l.4 1 .8.3 1.2-.4 1.5-1.7 1.8-.7 2.1-2.4.2-1.1 8.5-49.6 75.4-5.5m102.8 461-.5.4 1.5-.2 1.1 1 .5-.4-1.1-1zm-10.1-7.9-.4.5 1.4 1.3 2.3.7.4 1h1.8l1.1 1.1-.2 2.4-.9 1.2v1.2l2.2.5.5-.4-2.2-.5v-1.2l.9-1.2.2-2.4-1.1-1.1h-1.8l-.4-1-2.3-.7zm-122.9-189.9.9.4.5-.2-.9-.4zm175 56-.3.1.3.3.2-.2zm-252.5-92.7v.2l.8 1.4m244.9 189.1-.8-1.8.3-1.1-1.5-1.6 0 0 1.4 1.5-.3 1.1.8 1.8-2.5.2v.1zm-19.5 7.1.9-.4.4-2.5-.5-.2-.5-1.1-1.5 1 .9 1.1-.4.9zm222.3 137.1-2.4 1.7.9 1.1 1.5.8 1.1-.2h1.4 1.1l.5-1-2-2.2zm-253.8-134.2 1.1.3.4-.9zm100.7 126.3v-.6l-.7-.2-.9-.9-2.2-.4-.2.7 1.1 1.5h.8zm-13.4-48.3-.9 1.2 1.6 1.7h1l-.4 1.3h1.3l.8-2.4-1.9-2.6zm8.7-1.1 2.1.2.7-10.2-.6 1.8v2.4l-1.5 2 .1.7-3.3-.4-3.4-1.3-2.4.1-.9-1.3-1.4-1.6-.6.2 1.7 3.1 2.7 1.9.3.7 1.9 1.8.7 1.4 1.2.2 2.4-.7zm59 73.1v2.2l.5-.1.2-2.4-.4-.4zm-56.4-28.5-.3-.5-2.1-.7-.3.2.3.8 1.5.6zm-18.5-223.9.7.8 1.1-.1 1.6.3.1-.7-1.5-.6zm20.6 229.4-2.1-.2.1 1-.3 1.1.7 1 1.1-.3 1.7-1.7zm52.6 22.1-1 2.4-.3 2.4.7.9 1.3-.9.5-1.6v-3l-.4-.7zm-78-5.4 1.1-.9-.8-.6zm9.8-4.2-2.9-.7-.9.2.6 1.5-.1.9-1.8.4-.6.9 1.3.1v-.6l1.1-.5-.1 2.4 1.3 1.4 1.5-2.2.9 1.4 1.3.3.6-1.2 1.3-.6-.7-1.7zm-53.8-220.7.2.3.1.1-.2-.3zm47.6 182h-1.2l.1.8 1.3.6.5-.7zm1.4-181.6-.3-1.4.9-2.6.9-.7.4-1.2 1.3-2-.7-2.2-1.8-1.1-1.8-.7-1.2.9-.9-.7-1.7.4-.9-.2-1.2.8h-1.5l-1.6.8-1.5.2-.4 1.6-2.5 1.5-2.2 2.3.8 1.3v3.1l1 1.6-.1 1 1.5 1.1h1.8l1.1.9h1.2l1.5 1 1-.5.4-1.5 1.3-.2 1.4.4 1-1.3.1-1 1.5-.3zm-24.4 142.2.9-.5-.9-.9zm16.2 25-.6 1 1.2.2zm1.8-36-1.8-2.6-1.4.9-.9 1.2 1.7 1.6h.9l-.4 1.3h1.2zm-2 33.7.1 1.5.9-1zm .8 6.1-.9-.9v1.3zm-3.6-2-1.4-.6-1 .2-.2 1.5.9.6zm2.6 50.2-1.8-2.1-.6-3.9-.7-.7-.2-1.5-1.2-.7h-1.1l.1 1.5.6 1.1-1.6-.6-1.1-1.2-.6.3-.1 1.4-1.6 1.2 1 1.4 3.1.3.8.9v1.7l.9.7.4 2.3 1.9 1.3 1.7-.2.5 1.7.8.7.9-1.3-.5-1.8 1-2.1zm-350.2-447.4 0 0-.5-.1zm419.2-2.1 1-.6-.2-1.4-3.7-2.2-2.6-3.1-.6 1.6h-1.5l-.8-.5h-1.9l-1.1 1.8-.7.4-1.3 2.1 13.2 2.6zm-118.7 296.1.7-.1v-.1zm177.8-362.3-1.1-.4-1.3-.4-.7.2-1.5 2.4-.4 1.1-.8 1.1-1 .1-1 .7-.4.8.6 1.4 2 3.1.4 1.3.5 1-.5-.2-.1 1.2 9.5-12.7zm-143.6 499.9 1.6-.9-.5-1.6h-1.5l-.9 1.1zm-184.6-489.7.1.2-.2-.4zm150.5 440.4-.9.1 2.1 3.1.8.7 1.1-1.8-.9-1.3zm183.8-449.4h.9l.7-.8-.2-1.2-.7-.5-.1-.9.3-.7-2.8 3.7 1.1.2zm-160.1 466.5.7-.6-2.5-2.4-1.3-.3-.9 1.6.9 1 1.3-.4zm-3.1-15.3-.8.7-1.3-.1-.8 1.7 1.8.5.5 2.1 1.1-.4.5-2.6-.8-.9.7-1.3zm14-16.7-.6-1.1-.5 1zm-28.5 18-2.2-.4-1.2 2.1.3 1.6 2.8.2 2 1 .6-.5-.5-2.4zm4.3 23.2 1.6-1.7-1.5-1.8-1 .9-1.5.2.9 2.6zm6.6-23.3-.3-1.2-2.2 2.2 1.7.6zm19.4 42.5 2 1 .7-.5-2.5-2.5-1.4-.4-1 1.7.8 1.1zm-40.7-47.2 1.5-1.7-1.5-1.7-1 .8-1.4.3.9 2.5zm22.7 20.2 1.3 1.3 1.5-.8-.5-1.6h-1.4zm15.4-35.2.9-1-1-.5zm-2.7 2.5-1.3-.5-1 .2-.2 1.5.9.6zm-50.6-164.9 0 0-.5.4 0 0zm37 213.9 2.9.4 2 1.1.7-.5-.5-2.5-1.8-1.7-2.2-.5-1.3 2.1zm-167.9-475 0 0 .6.8 0 0zm408.8 160-.4-1.3-1 .2-.7 1.1v1.5l.9 1.9h1l .3-1.2-.3-.8zm-237.6-141.7 3.2 2v-.1l-3.4-2.1-3.5-2.4v.1zm30.8-21.1-1.8.4-3.7 2.5h-2l-2-.4-1 .7-1.6 3.3-1.5 1.1-1.9 1.4-1.1 1.2-.5 1.3-.9.2-1.8-.9-2-.4-2.5-.9-2-1.5-2-.1-3.3.7-1.9 1.4-1.2 1.8-.1 3.7.2 1.8-.1 1.1.2.1.1-1-.2-1.8.1-3.7 1.2-1.8 1.9-1.4 3.3-.7 2 .1 2 1.5 2.5.9 2 .4 1.8.9.9-.2.5-1.3 1.1-1.2 1.9-1.4 1.5-1.1 1.6-3.3 1-.7 2 .4h2l3.7-2.5 1.8-.4.9-1.1-.1-1.8h-.2l.1 1.6zm201.4 164.3v-1l-1.2-.3-1.5 1.5 1.5.4zm-21.9 50.5.5-1.4-.2-1.6-1.1-.9v1.3l.4 3.1zm10.7 268 1.4-3-.1-1.2-.9-1.1-2.7.9-2.6 1.2-.2 1.2.9.1-.8.9-1.5.6-.6 1.3-1 .2-.7-1.4 1.3-1.2h1.3l.7-2.1.1-2.6-1.5-.7-.3-.9 1.3-1.4.2-1.3-.9.2-2.6 2.4-.6 2.4.1 2.2-1.1.8-.6 2.2.8 1.1.9 1.8-.7 1.1-.4 1.7 1.6 1.4-.3 1.1.3 1-.7 1.8 1.1 2 1.8 1.2 1.3 2.8 1.5.7.3 1.4.2-1.1.7-.2-.4-.8-2.2-2-.6-2.4-1.3-2.8.1-3.2 1.3-.4 2 .7 2.2.1 1.1 1 1.7-.1-.8-.7-.3-1.3-2.1-1.6-1.1-.2-.7-1.2 1.1-1.3zm-1.3-9 1.3-1.2-.4-1.3-1.1-.7-1.1.8-1.3.4.4 2.7 1-.8zm16.2-305.2-2.1-1.7-1.5-.1-1.4-1.1-2.5-.1-2.4 2v1.2l-.9 1.4-1.7.6-1.5 1.1-.9-.3-1-2.5-.9.1-2.6 2.9-.1 1.8-1.7 1.2-.4 2 2.7.7.5 1.9-.5.4v1l1.5 2.3 2.4.3-.1 1.2.8.4.6-.7 1.2.4.9-.3-.1-1.2-1.7-1.9.8-1.7.9-2.8 2.3-1.4.6-1.1 2 .3 2.7 1.7.7 1.3 1.2-.6.9-3.4 2.2-2 .2-1.3-.7-.7zm-11.2 322.6 1.1 1.4 2.3 1.3-.2-.9zm-74.6-469.3-.1.1 2.3.1zm-76.5 229.2h-.9l-.2 1.5-.8.7 2.1-1.7h-.1zm49.9-207.8 0 0-1-.6-1.8-2.7-.2.2 1.5 2.3zm-16.6 24.8v-.1l-.1.3-1-.1-1.8 2.2 2.9-1.5v-.1zm196.9-54.9-1.1-.4-1-.9-.6.7-.3 2.3-.5 2-.4 2.9-1 1.9.4 1.2 1.7 2 .1-2.7 1.1-4.7.8-.4 2.4-2.2.4-2.1h-.6zm5.7 9 .9.3 1.7-1.1.3-1.4-1.4.6zm-237.6 70.3-.9.5 0 0zm251.1-96.4-1.5.9h-.3l.1.2zm-3.5-.4-2 2.3 1.1-1.5-1.2.1-1.4 1-1-.4-.7-1.5-.4.2-.7 1.6.6 1.1-.7 1.3-1.1 2h-.9l.1 1.1-.5 1.9-1.5.8-.2 1.1.9 1-.8.7-.3 1.4.5 2.1.9-.4.6-2 1.3-1.2-.3-2.5.9-.9.1-1 .9-.7 1 .4 1.3-1.3 1.4-2.9 1.9-2.3 1.9-.2-.5-1.7zm-16.5 32-.9 1.5h-1.5l.2-1-.1-1.5-1.6-2-2.3-1.5-.7-.9v-2.6l.9-1.9v-1.6l-.5-.8-.4.6-.4 1.7-1.5 2-3.1 2.1-2.4.3-.7-.5-1.5.3-1.9-1.8-2.4-.3-2.9-1.4-1.7-1.8-1.9-.4-.8-1.4-2.4-1.8-4.4-4.3-1.3-2.6-2.6-.6-3.1-2.6-.7-1.5h-2.2l.2.8-1 1.2h-.9l-.5.6.8 1.3.5 2.3 3.3 5.1.8 2.2.2 3.6-.3 1.3.9 2.9.7 1.9-.2.8-.8.1-1.5 1.7.6 1.8 1.1 1.7.4.9.9.5.6 1.4-.6.6-.1 1.4-1.1.9-3.2-.5-3-1.7-1.4.3-.7 1.5.6.7.7.1 2 1.5.2.8-.7.9-.9 1.9-1.3.2-.3.9-1.1.7-.7 1.5.5 1.9-.2 2.6.2 1.3h1.1l1.6 1.1 1.5 1.3 1.2 3.3.6 3.5-.6.4.7 1.6 1.6 1 2.3-2.6.7-1.6-.2-1.4 1-.7 2.6.1 1.3 1.1.5-1.4 1.5-2-.8-1.1h-2.2l-2.1-.6-2.4-2.7-2.1.6-2-1.1-.6-1.5v-1.9l1.3-1.1 1.3-.1 2.4 1.5 1 .6 2.3-3.1 2.2-1.6 1.8.1.8.8 1.5.3 1.7-.3 1.7 1.9 2.6 2.3 2.9 1.5 3 .8 1 1.3 1.7.7-.1-1.5.3-1.6-.5-2.2.4-3.2 1-3.9 2.6-3.6 1.6-.5 1.9.5h2.4l-.1-1 1.3-1.1.7.6 1.3-.1.7-1.1.3-1.5 1.7-.7 1.2-.9.1-1.9.9-.6.6-1.4-1.2.1zm-13 114.3-1-1-2.2-3.1-.8-2.3-.6-4.6.7-5.4.1-3.7-1.7-6.7-2.4-3.2-1.1-1.9.6-3.1 3-1.4h1.5l.8 1.3.5-.7-.5-2.2-.3-1.5-.6-.7-.5-1.9.1-1v-1.5l.7-1.2v-.6l.2-1.5-.6-.8-.1-2.4.4-1.2-.8-1.4-.6-3.7-1.8-3.1h-1l-1.1-.6-.2-4.1-1.8-1.7-3.9-4.4-1.1-2-.8-3-.2-2.9.1-1-1.1.7-.9.1-.4-.6-1.7-.8-.9-.1.1.6-.9 2.4v1.6l.9.8.9-.4 2.2-1.9 1 2.4-.7 1.8-1.1.7-1.3-.9h-.4l.6 2.3-.9.9-1.3-.5-.3-1.7-.3-2-.6-1-1.2.4-1.1-.6-.4 1.5.7 2.8.1 2-1.1.4-1.1 1.7v1.1l2.4 2.4.8 1.5-.8 2.6-1.3.8-1.5-.3-.3 1.1 1.4 1.8 1.5-.4 1.3-1.4 1.9 4.2.7 4.6-.4 2.6.2 4.6-1.7 6.7.5 2.6-.8 2.9-2.4 1.3-1.1 2.9.1 3.2-1.3 1.9-.3 2-2.3 2.2-4.6 2.8-1.8.5-.9 1.8-2.3-1.3-2.2-2.8.1-1.2 1-.5 1-1.8-.2-1 1.2-1.2-.1-.5-2.2.5-1.6 1.6-2 .8-.4 1.8 1.3 2.3.3 4.5-.3 2.2-2.2 2.3v1.3l-.8.9-.3 3.4.8.9.1 1.4-.6.5.4.6-.5 1.2-.9.1.6.9-1.5.6-1-.8-1.4 1.1-.8-.3-.4-2-.5-.2-1.3.9h-1.2l-.6-.4-4.2 1.5-2.2.9-2.2.8-2.5.2-2.4.7-.9-.5-2 .2-3.6 2.5-.7 2.2-1.3.9-.3 1.4-2.6 3-1.6.6-1.4 1.9-.4 1.3-1.4 1.5-2.6.5-.9 1.3.6 3 1 .5.3 1.1-.6 1.1-1.4.1-2 1.6-.5 1.1-1.3 1-1.8 2-.7 1.5h-1.5l-1.8 1h .9l.9.1.7 1.7.8 2.3-.7.6-.3-1.5-.8-1.1-.4 1.5.5 1.8 1.2.5.2 1.1-.6 1.2.9-.5.7-1.3 1.5-.5.9.3-.7.7.7.5 1.5-.4-.2-1.8-1.1-.9-1.8.4.1-.8.5-.8-.4-1.5.8-1.1 1.6.6 1.7 2.9.2 2.1.8 1 .1 3.3-1.4 3.1-1.7.2.4 1.1 1.5 2.5.6 3.3 1.6 1.9v1.6l-.8 1 1.2 1.5 1.5-.2 1.3.8.6-.7v-1l-1.4-2.2v-3.1l.9-1 1 .8-.6.9v.9l1.5 1.5.6 2.6-.5 1.5.2 1.3 1.8-1.1 1.9-2.6-1.7-1.8-.1-1.1.9-.4 1.4.4.8.6.5-2-.1-3.1-.5-1.5.1-5.5-.2-2.9 1-1.8 1.8-1.8-.4-1.5-1-.3-.1-1.8-1-.2.3-1.3h-3.2l-.4-.7 1.5-.9.5-1.2-.5-2.5-1.3-.8-1.5.3v.6l-1.3.9-1.3-.2-2.1-2.3.3-1.3 2.9-1.5 2.6-.5 2.9 1 1.5.7.3-.8-.1-1.3.2-2-.3-1.3.5-1.1 1.3-.1.8 1.1 1.3.1 1.6-.9 3.2-.6 3-1 2-.1.8.3 1.1-.5.1-.6 2-1.1.5-1.1 2.2-1.8 2.3-.8 2.9.5 1.7-.4.8.7v1.6l-1.4 2-.4 1.6.9.6.2 1.8.1 1.8-.3.7.5 1.8 2 .9 2.7 2.5 1.8.5 1.2-.6 1.9-2.8.2-1.8 1.1-.7.3-.9-.4-1.3 1.3-2.3 1.7-.2h1.5l.5-1-.4-.7-.4-2-3.4-1.5-.4-1 .8-2.6 1.1-1 .7-.2-.4.8.2 2.1.7.6.9-.6.4-.6 1.3.3 1 .7 1-.3.7.2-.4.8-1.7.4-.2.5.6.3 1.5-.4 2.4-1.3 4.8.4 2.5-.3-.7-.6-.5-2 .5-2.2 2.1-1.1 1.6.3.3 2-.6 1.8.8 1.4 1.5-.1 1.5-2-1.1-3.3.6-2.1 2.4-1.8 1.3-.1.4-.9-.9-1.1.5-2.3 1.2-.8 1.8.4.4 1.1-.9 1.3-.5 2.6.5 5.5.9.4 1.3-.8.8-1.8 1.6-.1 1.8-2 .7-2.5-.4-1.6 2.1-2zm-171.2-96.8.1.9-.8 1.6-1.5 4.5-1.8.8-1.6 3.1-2.4 1.6v1.6l-1.1 2.4 13.8-18.4h.1l1.3 1.2.1-.1-1-.9-.5-.2 28.1-37.4v.5l.2 2.2.2 1.5v3.2l-3.8.8.1 1.6.1 1.7-.5.9-.1 1.2.3.9v1.6l1.9.1-1 .6-.1.7.3 1.6.7.4v1.1l-.2.5-.4-.7-2.9-.7-.8-.9v-1.9l-1.6-1.3-1.2.5v0l1-.4 1.6 1.3v1.9l.8.9 2.9.7.1 1.2 1.6 2.2h-.6l-3 3.4-1.1-.2-.1 2.1-1.3 4.6.2 2.6-3 1.5.1 4.8 1.5 1.1-.8 2.2-2.4 2 .5.7.3 4.8.6 1.4-1.3 1.2-.4 1-1.9-.1-1.8 1.2-.8 2-2.4 1.5v2.3l.7 2.1-.9 1 .6 2.4 3.4.6 1 1.5 6.8 3.9 1 1.9.5-.3 3.4 6.2 5 5.2 5.5 6.8.2 4.1 1.4 1.5 1.3 6.5.1 2.2.6-.7h.6l.5 7.1-1.3 1 .6 1-2.5 3.2h-2.1l-2.2 1.4.7 1.3-.9.7-.7-.9-1.8.7-.9-1.8-1-.1-1.3 1.5-.3-1-1.7.4-4.1 3.6-1.3 1.9-.9-1.1-.1 2.4-1.3 1 .1-1.6-.7-.6-.4-2.1-1.3-.1-2.2-4.4 1.2-.1-1-1.8v-1.8l1.1-.6-.1-1.6-1.3-1 .1-1.1 3-2-1.6-3.1-.7.7-1.1-.7-.1-3.9-.9-2-1.1.4-4.1-1.9 1.9-2.6 1.3.4.6-1.6.6.9 3.1 1.1-.8-1.6-1.3-1.9.6-1-1.3-.3-2.4-3.4-3.6-3.1 1.3-.7-2.8-.1-1.5 1.1-.2-.3.7-2.1 2.7-2.7-.3.1-2.8 2.8-.7 2.1-2.1-2.2-1.1.7.5 1-1.7 2.2-1.1-.8-1.9 1.5-.8-1.3 1.7-2.7-2-.7-1.6.9-.9-.2.5-1.7.1-3.9 1.3-2.6 2.4-.2 2-1.8-1.8.9-3.4-.1-.7-.8-.1-4.4 2.2-3.6-1.2-1.8 1.3-.9.5-1.6-1.2.1-1 1.3-3 .4-.8-1.2-2-1.1-.1 1.4-1.3.9-.9-3.3-.4.2-.2-.6.2-.1-.3-.7v-.4.3l-.3-.7-.8.9h-.1l-3.7 2.8-2.1 1.6.7 1.6-.2.7-2.4 1-1.3 2h-1l-1 1.3-1.1.2-.2-1.3-1.3-.9.7-1.3 1.4-.1.9-1.1 1.9.2.7-.5.2-.9-.9-.2-.2-.8 1.6-1.1.8-1.5-2 1.5-1.8.7-.8-.9v-1l .7-.3.1-1.1-1.8-1.8.4-2.2-.2-.7h1.6l.2-2.1 1.8-2.3.1-.4 11.6 2.3.1-.1 1.1-2.4v-1.6l2.4-1.6 1.6-3.1 1.8-.8 1.5-4.5.8-1.6-.1-.9.1-3.1 1.8-2.1.2.4m12.3 48.9.2-.1 3.1-2.7h-.2zm9.9-60.1 0 0-1.3.1zm-33.6 38.1h-1.7v1.7l5.7-2.8-.9.3-.9-.8zm149.4 42.2-.7.7-.8 3.2.2 1.2 1.2-.7.4.3-.6 1.1-.2 1.8.7-.2 1.1-1.1.5-2.1-.3-1.1-1.3-.4.1-1.4zm-59.8 80.9-.7-.4-.6.7.1 1 1-.1z" fill="#f3f2ea"/>
 <path id="japan" d="m554.3 39.9-3.5-12.5-.5-2.5-10.3 6.7-28.5-20.7.2.9-2.4 1.8 7.1 21.1-2.5 2.6 2.8 8.5-8.8-1-.7 1.5 3.5 3.2-4.5 8.3 6.1 13.4-.6.4 2.4 2.6 2.8-5.7 4.9.5 2-3.4-11.7-5-.7-3.5 2.6-1.3 3.4 2.2 4.5-4.8 18.9 9.6 3.7-16.2h6l-.1-1zm-69.2 109.4 0 0 3.2 2.8 4.1-6.6-7.8-4.5-5.9 5.6-1.8-2.6-5.1 7.2 2.5.7v3.1l3.5 2.4-.1 1.1.7.3.6-.7 1.9.1-1.7-2.8m47.4-82.7-5.1-.7.1 5.5 3.1-2.4.2 4.2-1.2.7-1.7-1 .6 2.3-.9.9-1.4-.5-1.2-4.7-2.2-.2.5 16.4-2.8.5-.3 1.1 1.4 1.8 2.8-1.8-14.2 47.6-4.6-5.4 3-5.1-5.9 3-2.2 15.7-.9.1.6.9-1.5.6-1-.8-1.4 1.1-.9-.3-.4-2.1-37.1 29.8 1.3 5.8-1.6.1-9.8 8.3 1.8.1 1.5 4-.7.7-.3 3.5 4.1-2-.7.7.7.5 1.1-.3 1.5 6.6-1.7.2 7.4 13.8.1-8.2 2.2 9.7 3.7-3.8-1.8-2.9 3.2.7 2.2-20.3-1-.3-.1-1.8-1.1-.2.4-1.3h-3.2l-.4-.7 2.1-2.2-1.8-3.3-1.5.3v.7l-2.7.7-2.2-2.4 10.3-1.6.7-6.6 1.3-.1.8 1.2 18.1-6.9 11 15.9 8-11 3.2-.2-.3-3.7-3.9-2.5 2.6-3.9-.2 2.9.7.6 1.3-1.2 4 .9-2.4 1.8 12-1.3-1.2-2.6 2.6-3.3 1.6.3.6 5.3 3-2.2-.6-5.5 4.2-2.9-.4-3.5 3-.4.6-37.5 4.5-1.4.8 1.3zm-43.2 105.7-12.6 3.7-2.4 7.3 5.7 9.4 2.4-9.4h6.5l8.1-6.1zm-23.2 50.9-.4 4.1-3.7-3.3zm-6.5 27.6-2.9 3.3-3.7-1.6 6.1-4.1zm9.4-35 1.6 4.5h-2.9zm-25.7-26-2.4 1.6v3.3zm-2 8.9-2.4-3.7-1.2 2 2.4 4.1zm-2.5-18.3 2.4-2 .4 1.2-2.9 2.9v-2.1zm1.7-7.7 1.6 3.3-2.9 1.2zm-21.6 13.4-.4.4.8 3.7h-6.5v-2zm31.3 72.5 3.3 2v-3.3zm-4 10.2-4.1 6.5 2.4 1.2 4.1-5.7zm8.9-74.2-2 5.3-2-4.5zm103-168.9 3.3-8.6h6.1l-2.9 4.1zm18-20.4-3.7 5.3-3.3.8-1.2 6.5-1.6-4.1 1.6-4.9 4.5-5.3zm-14.3 28.1 2.4 2.4-6.1 3.3-1.2 2.9-4.9.8-2-.8.4-1.6 4.9.4z" fill="#47697b"/>
 <path id="south-east-asia" d="m433.3 380.5 2.3-.4-1.3-4.8-1.8 4.3zm-18.4-15.5-2.1 1.1.8 4.2 2.4-4.5zm-14.8 13.1-2.7-1.8.2 1.2 2.1 1zm45.6 37.2.4 6.5-1.3-1.5-.6.1-.5 3-2.9-1.6-.9 3.3.7.5-.2 1.3-1.1.5-.8-1.9-8 6.3 1.8-5.5-3.6-1.9-3.9 3.7.7 1.4-7 1.5-2.9 7.8 1.7 2 5-7.9 1.1 1.1-.4 1.8.5.5.8-.4.8.5.9-2 .9.3-.5 1 2.9 1.1-.9-1.3.6-.7-.4-.8 1.5-.7 6.2 6-2.2-.3 7.8 12.4 2.5-2.3.9 4 3.7-3.8-2.9-6.2 3.7-5.6 3.4 10.1.1-6.6 1-.1.6 1.1v-1l .7.1-1.3-11.9-.7 1 .2-3.1-1.6-1.3.3-.9 1.2.2-1-5.3-1.1.9zm-49.1-18.2 1.3-1.2-2.2-1.8.2 2.9zm21.2-.8-1.6-1.7-1.8.4-.4 1 2.6.9-.6 11 7.5-8.5-4.9-2 .3-.7zm29 14.8 1 3.9.7.2-.6-5 .7-.4-.4-1-.9.3zm-20.5-22-.5 4.8.3 1 1.5-2.2 6.5 3.1-6.7-5.7.2-.6zm-10.7 4.3 1.1-.3.6-5.5-.7.6zm-8.4-1.3 3-.9v-1.3l.8-.5-.1-5.5-10.7-3.5.4.8h1.2zm43.9 24.5-.8-.7-.2.9.7.8zm-26.5 1.6v2l1.3.7 1.5-.9 1.8-14.8-1.3-1-.8.5-1.1-.6-6.2 12.4zm15.6 3.1.3-1.5-1.5-1.3v1.9zm-10.5-.2 1.4-.5.2-1-2.1-.3-.5 1zm23.2-5.8-1.3-3.2.1 3.6zm-57.5-57.9 2.1 10.2.7-.5 2.3 4.2 1.1.1 1-1.3-.8-2 3.3 1.4-3 6.4 1.1 1.9.5-1.7 1-.3.7 1.5-.9 1.5 2.6-1.3 1.9 2 2.1-3.2 10.2 6.8-1.9-6.8 10.1 11 1.5-.4v-.6l1.4.4-1.5 1.6 2.8 2.3 1.3-4.2-5-1.6-1.3-5.6 2.9-.2-4.9-3.5-.8.6.1 1.7-1.2.7-3.9-6.4-4.4 3.1-7.4-10.1 5.6-9.8-.6-22-5 2.8-8.3-2.4-2.5 21-2.7.3-1.1-1.4.1 3.9zm37.4 59.1 4.7-1.1.6-2.9-1.9-.9-4 3zm7.7-15.5-4.4-.2 1.6 4.4.9-.8 3.1 8.2.2-2.4.9 1.3 1.5-.4-2.4-4.7zm4.3 13.8-.8-2.9-.4 1.5zm-50.3-6.4-1.2-9.1-.7.3-.3 5.1-1.3-.9.9 2.9-1.5 1.6-1.1-.2-11.5 12.5-3 3.9.2.6zm43.6-8.5.4-1.6-2.9.9zm-13.8-16.1-.7.1 2.1 3.4zm16 16.3 6.6 3.2.4-.4.9.4-4.9-13.9-6.9.4-.7-.4 6 8.6zm-26.9-18.5 2 1.4 1.1-1.8-2.4-2.1zm-18 9.6 4.2 2.9.8-.9-4.4-2.7zm48.7 100.2-.9-1.9-37.3 1.3-7.6 15.2 5.1-8.1 10.2.2.7 1 23.5-1.1zm-46 15.1.2-.4zm-32.6 14.1 1.3-2.2-2.4-.3.7-.9-.3-.8 2.7-.3 1.6-6.1 1.5 2.1 8.7-18 .8 1.1v-3.1l8.1 2.3.5-1.5-10.3-9.4 3.5-3-5.9-7.2 1.4-1.4-2.2-3 4.6-.5-2.6-2.2 8.3-3-2.1-5.1 9.2-2.2-.3-1.3-9.4-3.9-1.4 1.3-.8-.8 1.9-1.5-.9-1.1-2 1.8-1.3-3.8 1.5-.5v-1.1l-2-1.4-.8.4-3.2-5-.8.5.4 1.5-1.9 1.7-.7-.1.3-2.9-1.1-.1-12.8 15.3h.9l-.7.9 2.8-.2-2.1 7.2-1.1-.7-.4-3.7h-.3v-.4l-1.7 1.4.5 3.8-.9.4-5.2-4.6-19.8 16.8 1.2 3.1-5.3 1.5-2.2 6.8-12.3-4.8-6.9 10.5 3.3 7.8-1-.5-.5.5 10.4 1.2-9.6 3.2 8.3 21.1 2.3-1.1.5 1.1 7.7.3 1.8-3.2.7 9 13.7-4.1 3.1 3.5.1-2.5 2 1.8.8-.4.9 1.3.8-.4 1.2 5.5 13.1-10.5.4.7h.9l1.4-2.7-1.3-1.3.1-.7.2.3 1.3.4.4-2.5zm-90.9 28.4 4.6-21.9-12.3-12.4-1.1.7.1-7.7-9-2.3.1-1.4 3.7-1.8-6-.3 6-2.9-3-4.7-7.5 2.1 3.7-2.2-3.4-3.1 1.9.3 2 1 .7-.5-4.5-4.6-.9 3.1-7.9-7.2-1.1.3-9.2-8.8-.4.8-1.4-3-1.2 1.1-5.6-8.9-17.5-14.7-16.7-4.7-1.6 1.5 77.2 103.5.2-4.2 4.8 3.5 1.5-3.9 1.4.4zm10.7-196.1.7-.4 2.4-4.2-12.8-25.6-27.9-22.7 1.5-.4.2-.9-1.9-1.5 1.9-4.2-1.3-.9 2.2-4.8.4.6 3.8-9.4 1.2 1 14.3-7.5-.3-.7-2.5-.5-14.2-4.9.9-3.1 1.3-.2.3-1.6-18.5-2.8.1 2.6-9.2 2.7-.4-1.2h-1l-.9 1.2-1.8-1.7-1.6 2.5-2-.6.1-1.3-5 2.4-2.9-1.9-3 1.4.6 2.8 1.4 8.7-3.8.3-1.9-2.2-5.3 4.8.8 1.1-2.7 1.4v4.1l-1-2-.1.2-4.6.8.9 2.2-4 1.6-.7 3-7.3.3-1.6 9.7-3.9 2 13.2 18.3-1.3.7.2 1.9-.6.5.8 5.5.8 1 6.4 49 1.4.2-1.5 2 .6.9-1.8 2.1 1.4.2-.9 1.6-1.3-.2.1 4-1.5.7 1.5 9 1.5.2-.1-2 2.3-.9-.1 1 1.3.9v1.6l2.2.3 1.4 3.8h1.8l2.7 4.6 2.4.3.8 1.8 1.3.2-1.1 2.2 6.4 5.5-1.6 4.8s4.4 8.5 13.8 18.7c13.4 14.5 33.1 32.2 33.1 32.2l.8-.7.9 1.1 2.4-1.3v-.5l-1.1-.2.8-.2-.5-2 1.7 2.8 1.8.3-26.7-53-2.6 1.1 0 0-18.4-14.5-.4 1.5-3.5-1.1 2.2-2.6-2.8-8.6h-1.3l-7.1-9.9-2.8 2.3-1.5-11.6-1.6-.7 8.3-23.3 0 0 7 .8.2-.3-.2-.4 1-.8 4.7 3.1v.8l2.8 1.9.3-.1 5.4 5.8 1.4 4.8h2.4l1.8-2.8.2 6 2.5-1.7 2.7 1.2.5-.3 1.6 1.1 2.6-1.6-2.4 3.7h7.8l-4.7 8.4.5.1-.4 2.8 2.1.3 9.9-5.9-.8-2.1 2.4 1.1.9-1.8-1.6-1.6 1.9 1.3 1.3-.6-.7-1.3.5-.8-2.4-1.1 1.9-.1v-.6l-1-.8 1.5.4.7-1.4.2 2.4 20-12.3-.6-.7.7-1.5-1.2-1.8 2.5-3.4zm-75.7-.2.8-4.6-.3 4.9zm41.2-19.3v-.2l.1.1z" fill="#236592"/>
 <path id="korea" d="m415.4 133.2 1.2-1-.5-6.9-1.2.7-16.2-31.8-12.4-10.3 13-39.5 1.1.2 2.9-3.3h.4l-2-2.9-5.3-4.7-11.6 15.6 3.9 3.4-1.1 3.8-13.8-4.7-13.8 26.3 1.6 2.6.8 3.2 1.4-2.2 2.8 2.2 5-1.8-2.6 12 5.7-.1-6 9.9h4.3l-1.6 2.6.7 1.2 1.8-1.5 1.1.7 1.6-2.1-.5-1 1-.7 2 2.2.2.3 4.2-1-1.3.7 7 6.6-.6 1 2 3.4-3.6-1.9-.6 1.6-1.3-.3-1.8 2.6 5 1.5 2 6.4.7-.6 1.5 3.1-2.9 2 1.2 3.6-1.1.6.9 3.4h-1.1l2.2 4.2 1.3.1 1 4.2 1.4-3.3.8 1.1 6.9-5.7.3 1 1.2-1.5.9.1.9 1.8 1.7-.7.7.8.9-.6-.7-1.3 6.6-4.5z" fill="#236592"/>
 <path id="taiwan" d="m376.7 260-2.1 23.4-.5.2 8.3 14.2h3.6l5-20.4-1.2-.4 3.3-23.8.9-.2-7.6-7.5z" fill="#7d7f7d"/>
 <path id="china" d="m366.8 72.7 9.7-19.7 12.9 4.4 1-3.5-3.6-3.1 10.8-14.4 5.2 4.9-.8-3.3 3.6-1.1-.1-30.1 10.1 1.2-.5-9.9 1.4-1.1-.7-3.7.8-.6-1.2-5.3.9-.6-2.5-18.8.8-.8-7.4-2.8-15.9 12.8-1.2-2.2-3.6 1.1-4.2-11.1-1.4.1.7-4.2-15.1-7-.3 1-1.7.1-.2.7-4.8-2.4.7-1.1-21.2-19.9-.8.4-6.5-12.6-2.1-.1-2.8-6.3-2.2-.3-.2-2.3-9.2-4-.8.5.1 1-30.3 2.1-5.4 10.2 4.8-1.3-.6 32.2 1.4.7.7-.5 1 2.1-16.7 7.6-.3-.6-2.1.1-2.8 23.8 16.6 4.8 5-8 15 15.7-56.4 27.4-1.3 8.4 7.1 4.6-52.7 30.7-.3-2.2-137.2-63.4-4.2 2.5-9.7-11-.9.8-1.2-4.2-3.4-.6.2.2-5.1 6 .5.9-5.3 5.7 3.1 10.1-20.8 3.1-2.8 17.9 2.9 1.5-1 3-18.7 3.9v1.1l5.7 1.2 2.5 25.9-54.4-5 .7 5.9-19.7.4.6 1-2.6 1.9 1.4.2-3.8 8 8.3 4 1.7-3.9 5.6 5.1-9.3 3.1-2.4-3.1-8.6 5-.1 2 2.6 1.3-.1 1.7-6.4 2 1.3 2-3.3 1.1-.2 1.9-6.9 1.2 2.2 5.7 3.8-.9s-7.6 6-7.2 11.3c.1 1.2 6.6 3.1 6.5 4.5-.1 2 0 3.5 0 3.5l.8.1s-.4 0 .5.8l1.1 1 7.4-4 4.6 2-.7-3.3 3.3-1.4.2.9 5.4-10.3 4.9 1.8.1 4.8 1.4-.1 2.1 11.5 17.2-9.4.4 1.8 7.7-1.7.4 1.4-2.5 2.2 46.3 46.3-.3-1.1-1.4-.5-2.4 3.1 8 15.8 1-1.6 10.4 7 .5-.7 24.9 12.1 2-3.7 11.1 5.5.5 5.4 29.6 2 2.7 5 21-5.5 1.4 1.8 22.7-15.3 6.8 2.6.9-.9-.2-1.5 4.9-1.7.9 1.2 1.1-.3.4.8-1.3 2.3.7 1.3 2.1-.6.7 6.9 12.2 1.4 6.8 21.8-1.5.7-.2 1.6-.8.2-.4 3.7-1.1-.4 1.9 13.1 5.7-2.2-.2 2.4 1 .9 2.2-.5-.1 2.9 3.1 1.8-.4.8.7 1.1.3-.7 4 .8-3.8 9.4 3.9-.3.4.5 1.3-1.1 3.1 6.3 8.4-2.2-2.5 3.6 1.6-1.4 1.8 2.2 3.6-.3-1.3-8.7 1.1-.8v-1.2l3.1-.1.6 1.2-.5-1.1 5.5-2.8-.1 1.3 1.9.6 1.5-2.5 1.7 1.7.9-1.2h1l .4 1.2 8.6-2.7-.1-2.6 17.5 2.9-.3 1.6-1.2.2-.9 3.1 16.9 6.2.3-2.5 7.2 4.3.9-1.5 3.3 1.1.1.6-1.2.2 1.9 10 1-1.5 1.8.4v.4l2.4-1.8-2-3h-1l1.9-5.8.5 1.1h.4l-.3.2.1.4.8.1-.3.4 8.2-3.3-.6-1.1 10.3-4.8 1.1 1 2.9-2.6-.9-5.6 4.8 4.5 1.1-.3-1.9 1.7.2.7 3-1.5.2-1.6 6.7-3.1 1.9 2.4 1.1-2.2h.9l.1.5 5.2-2.8.2.9 2.9-1.1-.1-5.6 3.5-.9.2.8h1.6l.4-2h .8l.2-1.3h.8l.1.7 1.5-1.8.9 1.1.2-1.7.9-.1.6-1.3-4.7-1.5 4-1.9.7.6.9-.8 2.3 1.4.6-1.8-2-1.3.2-1.1 1.7 1.2.9-1.1-.2-.4h-1.1l-1.1-2.2 1.2-.3.6.8h.8l.6.8.1-1.4-1.5-1.1.1-1.3h.9l.6-1 1.3 2.3h.9l.9 1.4-.5-3.2h-.8l-.3-.9 1.1-.3.2-1.1-1.4-.4 1.9-1.6-2.2-.9-.7.7 4.8-3.7-.9-.9-1 .9-2-1.8h1.8l-2.6-1.9.9-.8-.7-.9 1.1.2.3-1.4h1.4l-.1 1.7 5.2-3.1-2.4-1.5.4-1.5 1.1 1.2 2.3-5.5-2.2-2.8 2.3.7 3.5-3.9.7 2 1.5-2.4-3.2-2.4 2.8-1.2-1.8-1.3 1.1-1.1.6.1.2-.7-3.7-.7 4.2-3.1 1 .5.1.6 1-.8-1.6-4.1-1 1 .3 1.2-5 1.3v-1.5l6-3.9-2.6-1.4-.4.8-4.6-3.8-2.6 2.2-3-2.9-3.9 3.2 4.3-4.3 2 1 7.6-5.3-14-12.3-4 1.6-2.2-2.9-9.1 3.6 9.4-5.1 2.1 3.4h1.6l1.1-1.5 14.1 2.7-15.9-17.9.8-2-7.7-7.7-1.2.7v-1.2l-4.9-2 .4-11.3h1.8l1.5-2.5.8.5 1.5-1.8-2.3-2 3.8-1.3.1-1.8 2.1-.4-2.1-2.5 9.5-3.7.6 1 .8-.9 2.2 2.3 2.1-2.5-1.3-.2-.2-1.8 2-.6-1.3-2.9 1.8-.6h-5.3l.1-.7-18.1-1.1.7 2.1-3.4 1.8 1.1 1.3-7 2.5-2.6-8.3-3.1.6-.1-.8h-.9l-.7 1-.6-.9-.1.7-4.8-15.7 8 1 .8-1.8-.5-.8h1.2l11.6-21.2 4.1.4.6-1.6 6.5 6.7-3.3 6.1h-1.6l1.5 5.8-.7.3.8 1.9 3.8-2.2-2.3 2.6.2.8.9.2-5.7 3.7 1.5 2.2 6.7-4.5-.4-2.3 17.3-10 .6 1.4zm-90.8 233h1.8l1.1.9h1.2l1.5 1.1 1-.6.4-1.6 1.3-.2 1.4.4 1-1.4.1-1 1.5-.3 1.2-1.3-.3-1.5.8-2.8.9-.7.4-1.3 1.3-2.2-.7-2.3-1.8-1.2-1.8-.7-1.2.9c-.3-.2-.6-.5-.9-.8l-1.7.4-.9-.2-1.2.9h-1.5l-1.6.9-1.5.2-.4 1.7-2.5 1.6-2.2 2.4.8 1.4v3.3l.9 1.8-.1 1z" fill="#178f98"/>
 <path id="chengdu_1_" d="m184.3 154.6c1.7 0 3 1.3 3 3s-1.3 3-3 3-3-1.3-3-3 1.3-3 3-3z" fill="#178f98" stroke="#fff" stroke-miterlimit="10"/>
 <path id="shanghai_1_" d="m343.7 158.6c1.7 0 3 1.3 3 3s-1.3 3-3 3-3-1.3-3-3 1.3-3 3-3z" fill="#178f98" stroke="#fff" stroke-miterlimit="10"/>
 <path id="hongkong_1_" d="m320.1 255.2c1.7 0 3 1.3 3 3s-1.3 3-3 3-3-1.3-3-3 1.3-3 3-3z" fill="#178f98" stroke="#fff" stroke-miterlimit="10"/>
 <path id="beijing_1_" d="m293.3 78.7c1.7 0 3 1.3 3 3s-1.3 3-3 3-3-1.3-3-3 1.3-3 3-3z" fill="#178f98" stroke="#fff" stroke-miterlimit="10"/>
 <path id="seoul_1_" d="m392.6 104.3c1.7 0 3 1.3 3 3s-1.3 3-3 3-3-1.3-3-3 1.3-3 3-3z" fill="#236592" stroke="#fff" stroke-miterlimit="10"/>
 <path id="sapporo_1_" d="m528.6 45.4c1.7 0 3 1.3 3 3s-1.3 3-3 3-3-1.3-3-3 1.3-3 3-3z" fill="#47697b" stroke="#fff" stroke-miterlimit="10"/>
 <path id="tokyo_1_" d="m526.8 152.5c1.7 0 3 1.3 3 3s-1.3 3-3 3-3-1.3-3-3 1.3-3 3-3z" fill="#47697b" stroke="#fff" stroke-miterlimit="10"/>
 <path id="kyoto_1_" d="m496.8 171.4c1.7 0 3 1.3 3 3s-1.3 3-3 3-3-1.3-3-3 1.3-3 3-3z" fill="#47697b" stroke="#fff" stroke-miterlimit="10"/>
 <path id="tapei_1_" d="m388.1 250.9c1.7 0 3 1.3 3 3s-1.3 3-3 3-3-1.3-3-3 1.3-3 3-3z" fill="#7d7f7d" stroke="#fff" stroke-miterlimit="10"/>
 <path id="hanoi_1_" d="m232.5 283.6c1.7 0 3 1.3 3 3s-1.3 3-3 3-3-1.3-3-3 1.3-3 3-3z" fill="#236592" stroke="#fff" stroke-miterlimit="10"/>
 <path id="singapore_1_" d="m259.5 465.1c1.7 0 3 1.3 3 3s-1.3 3-3 3-3-1.3-3-3 1.3-3 3-3z" fill="#236592" stroke="#fff" stroke-miterlimit="10"/>
 <text fill="#fff" font-family="'Lato-Black'" font-size="10" transform="translate(202.1792 131.1262)">
  CHINA
 </text>
 <text fill="#fff" font-family="'Lato-Black'" font-size="10" transform="translate(391.9998 137.5553)">
  KOREA
 </text>
 <text fill="#fafafa" font-family="'Lato-Black'" font-size="10" transform="translate(248.887 349.2436)">
  VIETNAM
 </text>
 <text fill="#fff" font-family="'Lato-Black'" font-size="10" transform="translate(509.2167 137.1499)">
  JAPAN
 </text>
 <text fill="#89a5be" font-family="'Lato-Black'" font-size="10" transform="translate(285.5703 411.15)">
  SOUTHEAST
 </text>
 <text fill="#89a5be" font-family="'Lato-Black'" font-size="10" transform="translate(303.1703 423.15)">
  ASIA
 </text>
 <text fill="#fafafa" font-family="'Lato-Black'" font-size="10" transform="translate(202.7397 430.0247)">
  MALAYSIA
 </text>
 <text fill="#fafafa" font-family="'Lato-Black'" font-size="10" transform="translate(228.4998 457.8233)">
  SINGAPORE
 </text>
 <text fill="#fff" font-family="'Lato-Black'" font-size="10" transform="translate(353.6169 295.5004)">
  TAIWAN
 </text>
 <text fill="#313030" font-family="'Lato-Bold'" font-size="7" transform="translate(158.2225 180.3612)">
  CLIENTELING
 </text>
 <text fill="#313030" font-family="'Lato-Bold'" font-size="7" transform="translate(161.4225 188.7612)">
  PLATFORM
 </text>
 <text fill="#313030" font-family="'Lato-Bold'" font-size="7" transform="translate(294.0677 179.3613)">
  CLIENTELING
 </text>
 <text fill="#313030" font-family="'Lato-Bold'" font-size="7" transform="translate(287.7677 187.7613)">
  FUNDAMENTALS
 </text>
 <text fill="#313030" font-family="'Lato-Bold'" font-size="7" transform="translate(270.145 107.3326)">
  HOSTING
 </text>
 <text fill="#313030" font-family="'Lato-Bold'" font-size="7" transform="translate(259.145 115.7326)">
  APPOINTMENTS
 </text>
 <text fill="#313030" font-family="'Lato-Bold'" font-size="7" transform="translate(273.745 124.1326)">
  &amp; GIFTS
 </text>
 <text fill="#313030" font-family="'Lato-Bold'" font-size="7" transform="translate(390.4305 120.2629)">
  LEATHER &amp; CARE
 </text>
 <text fill="#313030" font-family="'Lato-Bold'" font-size="7" transform="translate(384.9187 274.4792)">
  MONO-
 </text>
 <text fill="#313030" font-family="'Lato-Bold'" font-size="7" transform="translate(377.6187 282.8792)">
  GRAMMING
 </text>
 <text fill="#313030" font-family="'Lato-Bold'" font-size="7" transform="translate(268.2463 260.2)">
  CUSTOMER
 </text>
 <text fill="#313030" font-family="'Lato-Bold'" font-size="7" transform="translate(271.5463 268.6)">
  CAPTURE
 </text>
 <text font-family="'Lato-Bold'" font-size="7" transform="translate(206.4314 307.87)">
  QUALITY &amp;
 </text>
 <text font-family="'Lato-Bold'" font-size="7" transform="translate(195.4314 316.27)">
  CRAFTSMANSHIP
 </text>
 <text fill="#313030" font-family="'Lato-Bold'" font-size="7" transform="translate(272.2625 481.0568)">
  REPAIRS
 </text>
 <text fill="#313030" font-family="'Lato-Bold'" font-size="7" transform="translate(531.5941 174.4497)">
  STYLING
 </text>
 <text fill="#313030" font-family="'Lato-Bold'" font-size="7" transform="translate(533.5941 182.8497)">
  BAGS &amp;
 </text>
 <text fill="#313030" font-family="'Lato-Bold'" font-size="7" transform="translate(522.8941 191.2497)">
  ACCESSOIRES
 </text>
 <text fill="#313030" font-family="'Lato-Bold'" font-size="7" transform="translate(483.2838 194.4669)">
  FASHION
 </text>
 <text fill="#313030" font-family="'Lato-Bold'" font-size="7" transform="translate(483.9838 202.8669)">
  &amp; TREND
 </text>
 <text fill="#fff" font-family="'Lato-BoldItalic'" font-size="9" transform="translate(164.5695 170.4498)">
  Chengdu
 </text>
 <text fill="#fff" font-family="'Lato-BoldItalic'" font-size="9" transform="translate(272.6102 96.2826)">
  Beijing
 </text>
 <text fill="#fff" font-family="'Lato-BoldItalic'" font-size="9" transform="translate(399.4258 111.3324)">
  Seoul
 </text>
 <text fill="#fff" font-family="'Lato-BoldItalic'" font-size="9" transform="translate(535.5378 51.3985)">
  Sapporo
 </text>
 <text fill="#fff" font-family="'Lato-BoldItalic'" font-size="9" transform="translate(533.2595 164.603)">
  Tokyo
 </text>
 <text fill="#fff" font-family="'Lato-BoldItalic'" font-size="9" transform="translate(486.4766 186.4104)">
  Kyoto
 </text>
 <text fill="#fff" font-family="'Lato-BoldItalic'" font-size="9" transform="translate(386.0474 266.6537)">
  Taipei
 </text>
 <text fill="#fff" font-family="'Lato-BoldItalic'" font-size="9" transform="translate(266.7384 472.0911)">
  Singapore
 </text>
 <text fill="#fff" font-family="'Lato-BoldItalic'" font-size="9" transform="translate(297.1107 169.6843)">
  Shanghai
 </text>
 <text fill="#fff" font-family="'Lato-BoldItalic'" font-size="9" transform="translate(268.1449 250.8998)">
  Hong Kong
 </text>
 <text fill="#fff" font-family="'Lato-BoldItalic'" font-size="9" transform="translate(213.1174 298.7998)">
  Hanoi
 </text>
</svg>
