<?xml version="1.0" encoding="utf-8"?>
<!-- Generator: Adobe Illustrator 21.1.0, SVG Export Plug-In . SVG Version: 6.00 Build 0)  -->
<svg version="1.1" id="Layer_3" xmlns="http://www.w3.org/2000/svg" xmlns:xlink="http://www.w3.org/1999/xlink" x="0px" y="0px"
	 viewBox="0 0 575 593" style="enable-background:new 0 0 575 593;" xml:space="preserve">
<style type="text/css">
	.st0{fill:#BED8F1;}
	.st1{fill:#F3F2EA;}
	.st2{fill:#47697B;}
	.st3{fill:#236592;}
	.st4{fill:#7D7F7D;}
	.st5{fill:#178F98;}
</style>
<path id="bg_1_" class="st0" d="M759.9,787H-183v-909.4h942.9V787z"/>
<path id="map-background" class="st1" d="M118.7,376.7l2-1.5v-2.5l-1.2-0.8l1.3-2l0.1-1.9l-0.6-0.7l0.6-1.5l-0.4-1l-1.7,2l0.3,3
	l-0.5,1l0.3,1.2l-1,3.9L118.7,376.7z M131.6,425.2l-1-1l-1.3,1.3l0,1.8l0.9,0.5l0.7,1.8l1-1.3l-0.5-1.5L131.6,425.2z M120.7,407.3
	l0.6-1.1l-1.7,0.5L120.7,407.3z M129.5,422.1l-0.9,1.2l0.6,0.6l1.4-1.7L129.5,422.1z M128.8,415.1l-0.7-0.7l-0.7,1.5l0.8,1.3
	l0.7-0.8L128.8,415.1z M112.9,385.2l2,0.5l-0.7-1.2L112.9,385.2z M125.6,417.9l0.4,1.2l1.2,0.8l0.8-0.6l-0.9-1.7L125.6,417.9z
	 M123.5,413.3l0.5,1.3l1.4,1.4l-0.7-2.4L123.5,413.3z M118.2,381.5l0.6-1.9l1-0.9v-0.8l-2.4,0.8v2.6l-0.6,1.2l1,2l-0.5,1.5l0.5,1.2
	l1.3-2.8l-0.2-1.7L118.2,381.5z M116.3,391.9l-0.2,1.9v1.6l1.7,0l0.9-2.3l-0.6-2L116.3,391.9z M357,193.8l-1.7-1l-1,0.1l-0.7-0.3
	l0.4,1.2l1.8,0.6l1.3,0.9L357,193.8z M364,269.7l-3.2,5.9l-1.6,6.1l-1,0.9l1,1.4l0.1,6l0.4,6.2l1.5,1l0.4,1.8l-0.7,0.2l-0.1,1.9
	l1.6,2.6l1.6,0.4l0.4,2l4.1,1.4l2.1,3.3l-0.2,3.5l0.2,2.6l2.1-0.8l2.1,0.8l-0.7-3.1l0.7-3.7l-1.5-4.5l2.4-3.4l3.7-5.9l0.1-3.8l1-1.1
	l-1.3-0.6l0.8-5.9l0.3-4.1l-0.7-4.5l1.6-3.2l0.7-8l1-4.1l1-0.2l-0.5-2.7l-2.5-2h-1l-1.6-3.4l-3.3-1.2l-1.9,1.1l0.3,2.1l-2.7,1
	l-3.2,3.8l-3,5.3l0.7,1.4l-0.5,2.1L364,269.7z M346.9,72.1l1.1-2.6v-1.7l2.6-1.7l1.7-3.3l1.9-0.9l1.6-4.8l0.9-1.7l-0.1-1l0.1-3.3
	l1.9-2.3l1.9,2.9l1.6,0.9l1.4,1.3l1.7-0.7l2.1,0.9l4-0.4l2.6,0.4l1.3-2.7l-0.1-1.4l-2.1-2.1l-2.1-1.6l1.7-1l2.3-0.3l3.9-3.1v-2.1
	l1.4-2.3l2-0.3l0.7-1.9l-0.7-1.4l0.1-2v-2.1l1.3-0.6l1.7,1.4v2l0.9,1l3.1,0.7l0.5,0.7l0.2-0.5v-1.1l-0.7-0.5l-0.3-1.7l0.1-0.7
	l1.1-0.7l2.4,0.3l-4.5-0.2l0-1.7l-0.3-1l0.1-1.3l0.5-0.9l-0.1-1.8l-0.1-1.7l4.1-0.9v-3.4l-0.2-1.7l-0.2-2.4l0.1-1.8l0.5,0.3
	l-0.6-1.1l-0.4-1.3l-2.1-3.3l-0.7-1.5l0.4-0.8l1.1-0.7l1-0.1l0.9-1.1l0.4-1.2l1.7-2.5l0.7-0.2l1.4,0.4l1.1,0.4l5.7,1l0.9,0.3h1
	l0.7-0.9l-0.2-1.3l-0.6-1l-0.1-0.9l0.3-0.7 M263.3,3.1l0.1,1.9l-1,1.2l-1.9,0.4l-4,2.7h-2.1l-2.2-0.4l-1,0.8l-1.7,3.6l-1.7,1.2
	l-2,1.5l-1.2,1.3l-0.5,1.4l-0.9,0.2l-1.9-0.9l-2.2-0.4l-2.7-1l-2.2-1.6l-2.2-0.1l-3.5,0.7l-2,1.5l-1.3,1.9l-0.1,3.9l0.2,2l-0.1,1.2
	l4,2.7l3.7,2.3V32l-0.9,1.7l-1.2,1.7l-3.9,4.4l-2.3,3.8l-1.3,3h-1.5l-2.8,0.9l-2.1,0.1l-2.4,1.6l-2.4,1.8l-2.5,0.1l-3.7,0.4
	l-2.5,0.8l-2.9,0.8l-6.4,2.3l-5,1.7l-2.5,2.8l-3.9,3.1l-1.6,1.3l-2.1,0l-2.7-0.8v-1l-0.3-1.3l-3.8,1.1L169,63l-3.2-1.7l-2.6-0.3
	l-5.7-2.1l-5.6-2.6l-3-2.9l-2.4,0l-6.4-0.7l-5.4,0.1l-1.4-0.3l-1,0.6l-0.5,1l-3,1.1l-4.2,0.4l-7.4-0.6l-5.4,0.3l-4.1-0.3l-3.5,0.4
	l-1.8,0.2l-1.6-0.5l-2-3.9L98,49.3l-1.9-2.8l-1.6-1.9l-1-2.6L93.4,41l-1.3-1.4l-1.3-0.5L89.9,39l-0.4-1l-0.2-1.6l-0.6-0.3l-0.8,0.2
	l-2.5,0l-2.1-1.2l-3.3-2.3l-1.1-0.3l-0.8,0l-1.6-0.3l-0.7-1l-2.8-1.8L66.8,28l-0.6,0.2l-0.8,0.7l-2.4,0.3l-3.9,0l-8.8-1.9l-1.9-1.1
	l-2-3L46,21.7v-1.3l0.6-0.9l1.3-1l0.6-1.6l-1-1.2L47,13.5l0.4-1.1l-0.1-2l-0.7-1.1l-1-1.8l-1.3-0.7l-1.4-1.2l-0.6-1.6l-0.9-1.3
	 M0.9,3.7L0.7,4.9l-2.3,2.5l-1.9,0.7l-1.6,1.8l-1.3,0.4l-0.8-0.3l-0.4-1h-1.5l-3.5,0.8L-15,9.6l-3.5-1.2l-2-0.3l-1,0.1l-0.8,4
	l-0.8,2.6l-0.1,2l-0.8,5.2v4l-0.4,1.3l1,0.8l2,0.9l-0.8,1.8l-0.2,1.4h-1.2l-1,0.7h-1.4l-1-0.9l-1.2,0.5l-2.1,0.5l-3.9,0.8l-2.8,1.1
	l-1.3,0l-1.1-0.6L-41,35l-1.6,1.5l0,1.2l1.5,1.2l2.5-0.2l2,0.3l0,0.8l-1.3,1.3l0.9,2.7l0.1,1.3l0.8,1.2l0.3,1.9l1.7,2.7l0.3,1.5
	l1.9,1.4l0.7,3.7l-1.1,1l-0.6,1.6l1.5,1.7l-0.8,0.4l-0.3,1l-1.7,1.2l0.1,2.3l-1.7,1l-4-1l-3.8-4.4l-1.6,0.4l-3.7-1.5l-5.5-0.3
	l-2.7,1l-4.6-1.2l-4.3,1L-68,62l-2-0.7l-1.6,1.4l-1.7,0.7l-4.9-0.7l-3.6-1l-1.9-1.1l-2.8,0l-1,0.4l-2.1-0.1l-1.7-0.3l-1,0.6l0.2,1.9
	l0.5,2l0.1,2.4l-2.8,0.4l-5.5,0.1l-6.6-0.7l-1.6-0.9l-3-0.4l-1.7,1.8l0.7,1l-2,1.3l-0.3,0.8l-0.6-0.1l1.5,0.2l0.1,1.9l-2.8,4.4
	l-1.3,2.3l1.7,1l4,1.2l1.6,1.6l1.6,0.6l1.5-1.7l0.3-2.5l1.1,0.3l4.4,3.4l0.4,1.8l-2.5,2.8l-3.1-0.2l-4.4,0.7l-0.7-1.3l-1.9-2
	l-2.8,2.9l-1.8-0.1l-2.4,1.7l-2.3,0.8l-0.1,2.1l2.8,1.3l-0.1,1.8l-3,1.3l-3.9,0.9l0.8,0.7l0.6,1.4l-3.5,1.2l-0.3,2l-1.6,0.4l-4-0.6
	l-1.8,1.4l0.1,2.8l2.3,3.3l1.6-0.8l2.5,0l0.4,2l-0.8,1.8l1,2.5l1.8,0.8l0.3,2.4l-0.8,1l-1.9,4.4l-0.7,5.6l-0.8-1l1.9,2.5l1.3,0.6
	l3-0.7l1.9-1.1l1-1.4l1-0.2l1-1l0.9,0.7l1,1.3l3.1,0.3l-0.1-1.4l-0.8-0.8l0.1-1.2l2-0.5l0.7-1h0.9l0.3,1l1.9-0.2l1.2-2l-0.4-2.4
	l0.8-1.2l1.1-1l0.3-2.6l0.9-1.6h2.1l1.6,1.1l1.6,0.8v1.4l-0.4,2l0.5,1.7l1.5-0.1l0.7,1.7l-0.1,2.3l0.3,1.8l0.1,3.5l1.3,1.8v1.2
	l1.6,0.7h2.3l1.5-1.2l0.3-0.9l3.1-1.4l1.4-1.3l0.4-1.7l1.2-1l4-2.6l2.6-0.6l0.4,1.9l3.4-0.4l1.2-1.4h3.8l0.4,1.5l-2.7,2.3l1.3,0.3
	l0.8-0.5l1.2-0.3l1.7,1.5l0.9-0.7l1.5,0.1l1-0.7l0.8-0.9l1.1,0.1l1.3,1.3l1,2.8l4,5.8l2.4,1.6l0.1,2.4l1.5,1.1l0.9,1.2l3.6,0.4
	l3.5,0l1.7,0.4l0.4,2l3.5,1.2l2.9,1.5l1.5,4.4l2.3,2.7l3,1.5l1.3,2.3l-0.2,4.3l1.7,4l2.3,0.6l1,3.9l0.6,3.2l-1.2,1.9l-0.3-1.2
	l-1.5-0.5l-2.6,2.7l0.6,1.1l0.1,1.5l2.4,1.2l-0.4,3.5l1,1.7l-0.6,1.1l1,0.7l1.1,1.6v1.3l0.8,0.3l0.6,2l2,1l1-1.7l2,0l0.8,1l2,0.3
	l1.7,1.9l1.3,0.4l1,2.1l1.5,0.3l0.7,1.5l0.1-0.2l0.4-0.5l2.7,1.3l0.7,1l1.8,0l1,0.4l1.1-1.6l2.2-0.2l3.3,1.2l0.9,0.9l2.1,0.1l1.3,1
	l2.7,2.8l2,0l1.9,1l0.7,1.2l1.6,1.9l0.8,1.9l0.9-0.4l0.2-2.7l1-1l0.7,0.8h2.1l1.9,1.2l0.3,2.4l2.2,1.9l2.8-0.8l2.3,0.3l-0.5,3.7l1,2
	l1.5-0.3l2.5,1.2l1.1-1l1.9-0.6l1.6-1.8l3.4,0.4l2.2,1.1l0.5,2.1l2.7,1l1.8,2.4l1.6,0.4l2.3-1l0.9,0.4l2.4-0.8l1.7,0.1h0.2l1.6-1.4
	l2-0.3l1,1.9l0.1,2.3l1.7,1.3l0.1,0l1.7-0.8l2-3.9l4.4-2.6l2.8-0.4l0.9,1.5l4.3,0.4l1.7,0.8l2.3-0.9l2.3,0.1l1.5,2l0.4,0l1.2-0.1
	l3.3-0.8l1.4-0.1l0.9-2.2l1.3-1l1.4,0.5l0-1.2l1.9-0.5l0.6-1.8l1.5-1.9l2-0.3l3.3-0.8l2-2.5l-0.1-2l1.3-0.3l2-1.4l1.6,2.3l2.3-0.7
	l3.4,1.1l1-0.9l-0.3-1.6l3.9-2.3l1.4,0.4l1,1.3l1.2-0.3l0.4,0.8l-1.3,2.4l0.7,1.4l1.1-0.3l1.2-0.3l0.4,1.3l1.3,1.7v1.2l-1.4,1.6
	l0.4,1.5l1.9,0.3l1.1-0.4l1.7,0.7l1.4,1.4l1.5-0.7l2,0.9l1.3-0.8l2,0l1.2,2.4l1.7,1.3l0.5,2.8l1.6,0l1.6,1.8v2.7l1.5,3l0.2,2.7
	l-0.5,3.8v1.8l-0.4,1.1l-1.7,0.8l-0.2,1.7l-0.8,0.3l-0.4,1.2l0.8,1.7l-0.7,1l-1.2-0.4l-1.2,1.3l-0.7,1.6l0.8,1.2l-0.8,1.3v1.5
	l1.5,0.7l0.7,1.2l1.3,1.2l-0.3,2.1l0.8,2l2.1-1.6l4-0.8l0.4,1.4L161,265l1.1,0.9l2.3-0.6l0.4,1.6l-0.6,1.5l1,1.4l2.3,0.5l-0.4,0.8
	l0.7,1.1l0.3-0.7l2.5-0.3l1.8,1.2v1.3l-0.8,1.6l0,1.3l-2,2.9l-1.7,1.7l0.3,1.2l1.3-0.7l2.8,0.3l0.4,0.5l1.3-1.2l1.2,1.6l-0.5,2.4
	l0.6,1.7l2,1l1.2-1.2h2l4-1.7l1.7,0.6l-0.2,1.7l-2.5,2.2l1.7-1.5l1.1,0.8l0.8,1.5l2.3-0.7l1.5,0.4l-0.5-2.3l-0.1-2.1l-0.7-1.9
	l-0.1-3l1.2-0.8v-1.3l3.4-0.1l0.7,1.3l-0.6-1.1l0.6-0.5l0.7-0.1l0.5-0.9l1-0.9l1.9-0.7l1.2,0.1l-0.1,1.3l0.8,0.7h1.2l0.3-1.7l1.3-1
	l1.8,1.8l0.9-1.3l1,0l0.4,1.3l2-1l0.3-1.3l2.2-0.7l1.7,1l3-1l-0.1-2.8l1.9-1.1h2.2l1.2-1.2l1.9,1.6v1.2l2,0.4l0.8,1.2l4,0l0.7,0.9
	l2.4-1l1.6,1.2l-0.3,1.7l-1.3,0.2l-0.9,3.3l1,0.4l0.5,1.9l3.6,1.3l0.5,1.3l1.7,0.8l1.8,0.9l1.8-0.6l0.8,0.6l1.1-0.3l1.5,0.8l0.5,0.1
	l0.7-0.4l1.1,0.5l1.4-0.6l-0.1-1l0.4-1.7l0.9,1.6l1.7,1.7l0.9-0.3l2.2,1.8l1-0.3l1.2,0.1l0.9-1.6l1.3,1.2l1.3-0.4l1,0.4l0.1,0.6
	l-1.3,0.2l-0.3,1.6l-1.3,1.6l0,1l2.1,3l1.3,0.8l0,0.8l0.3,1.9l0.4-0.4l0.7-1.2l2,0.4l0,0.5h1l1.6-2l-0.4-0.8l-0.7-0.1v-0.5l-0.9-1.8
	h-1l-0.7-1.7l0.4-0.7l1.3-1l0.3-1.2l-0.3-1l0.4,0l0.6-0.7l0.2,0.5l0.4,0.7h0.5l-0.3,0.3l0.1,0.4l0.8,0.1l-0.3,0.5l0.5,0.1l1-1
	l1.7-0.3l0.7-1.3l1.4,0.5l1.6-0.6l1.9-1l-0.7-1.2l1.5,0l1.7-0.5l1.7,0.6l1-0.3l2-1l1.7-1.7l1.1-1.6l0.2-0.7l0.5,0.4l0.7,0.6l0.8-0.7
	l0.8-1.3l1.4-0.7l-0.3-2.2l-0.4-1.6l0.1-1.3l-0.4-1l0.9,0.8l2.2,1.1l0.3,1.2l1.8,1.8l1.2-0.3l-0.9,1.3l-1.1,0.5l0.2,0.7l3.2-1.6
	l0.2-1.7l1.6-0.6l0.8-0.7l1.4,0.8l1.4-0.3l0.1-1.2l1.4-0.3l0.4-0.9l0.7,1.1l-3.4,2.8l0.9-0.7l0.3-1.6h1l0.1,0.6h1.5l0.2-0.9l2-0.3
	l1.1-1.1l0.8-0.7l0.2,1l0.6-0.8l1,0.3l1.5-0.7l-0.7-1.2l0.7-1.1l0.6-1.9l-0.8-1.8l0.9,0.3l0.6-1l2.2-0.3l0.2,0.8h1.7l0.4-2.1h0.9
	l0.3-1.4l0.8,0l0.1,0.7l0.5-0.3l1.1-1.6l1,1.2l0.3-1.8l1-0.1l0.7-1.4l-1.6-0.3l-1.3,0.5l-2.2-1.7l3-0.1l1.3-1.9l0.7,0.7l1-0.9
	l2.4,1.5l0.7-1.9l-1.5-0.5l-0.6-0.9l0.3-1.1l1.8,1.3l1-1.2l-0.2-0.5h-1.2l-0.3-1.6l-1-0.7l1.3-0.3l0.7,0.9h0.9l0.6,0.9l0.1-1.5
	l-1.6-1.1l0.1-1.4h1l0.6-1.1l1.3,1.2v1.2h1l1,1.5l0.1-2.2l-0.7-1.3h-0.9l-0.3-1l1.2-0.3l0.2-1.2l-1.5-0.5l2-1.7l-1-1l-1.4,0.1
	l-0.7,0.7l0.3-1.4l1.9-1.3l3-1.3l-1-1l-1.1,1l-2.2-1.9h1.9l-1.2-1.6l-1.4-0.1l1-0.8l-0.7-1l1.1,0.3l0.3-1.5l0.5,0.1l1-0.1L339,232
	h1.1l2.2-2.3l0.1-1.1l2,0.1l-1.2-1.5l-1.3-0.1l0.4-1.6l1.2,1.3l1.5-0.7l-0.1-1.6l0.6-0.7l-0.7-1l0.1-1.2l1-0.7l-0.7-1.1v-1l-1.7-1
	l2.4,0.8l1-0.8l1.3-3.2l1.4-0.2l0.3,1.4l0.5,0.7l0.3-1.8l1.3-0.8l-1-1.7l-1.7-0.1l-0.8-0.7l0.7-0.6l1.2,0.2l1-1l-0.8-0.9l-1.1-0.6
	l1.2-1.1l0.6,0.1l0.3-0.7l-1-0.9l-2.9,0.1l0.2-0.8l1.9-1.6l1.7,0.4l0.5-0.4l0.2-0.9l1.1,0.6l0.1,0.7l1.1-0.9l-0.5-1.1l-0.3-2.7
	l-1-0.6l-1.1,1.1l0.3,0.5v0.8l-1.9-0.4l-2.3,2l-1.2-0.2V201l2.4-0.5l4-3.7l-0.3-0.6h-1.7l-0.7-1l-0.5,0.8l-2.9-3.7l-2.1-0.3
	l-2.8,2.3l-1.4-0.5l-1.8-2.7l-1.8,0.4l-1.8,1.5l-0.5,1.6l0.2-2.1l2-1.7l1.1,0l1.2-0.9l2.2,1.1l1.6-0.7l0.1-1.6l0.9-0.8l1.1,0.1
	l2.1-2.4l2.4-0.3l0.1-1.3l-2.2-3.5l-4.6-2.8l-3-1.7l-3.6-3.5l-1.7,0l-2.9,2l-1.4-0.3l-2.3-2.1l-0.1-1l-1-0.4l-2,0.8l-2.3-0.3l-2,0.7
	l-2.5,3l2.1-4l1.6-0.8l1.1,0.3h1.1l0.5-0.5l1.3,0.5l2.4-1l1.1,2.7l1.1,1h1.7l1.1-1.6l2.8,0.4l2,1.3l1.3,0.1l1.7,1.8l2.6-1.5l3.7,1.3
	l1-0.6l-1.3-2.6l-1.1-0.5l-2.1-2.6v-0.7l-1-0.7l-1.8,0.1l-1.7-0.7l-2.4-3.4l0-2.7l-3.3-2.4l-0.2-2.7l-1.8-0.6l0.9-2.1l-0.6-0.1
	l-2.7-5.6l-4.9-2.5l-1.3,0.7v-1.3l-4.6-2.2l-0.7,0.1l-0.1-4.5l0.7-3l-0.7-2l0.5-2.6l0.6,0.4l1.3-0.4l1.6-2.7l0.9,0.5l1.6-1.9l-1.7-1
	l-0.8-1.1l1.4-1.6l2.7,0.1l0.1-1.9l2.2-0.4l-0.2-1.4l-2-1.3l2-0.3l1.5,1.1l0.4-1.1l1.6,0.1l1.6-1.3h1.1l1.9-2.5l0.7,1.1l0.8-1l0.2,1
	l2.2,1.5l2.2-1.9v-0.8l-1.4-0.3l-0.2-1.9l1.1-0.6h1l-1.5-2.1l0.1-1l2-0.6l-1.1-0.5l-2.1,0.4l-2.5,0.1l0.1-0.7l-2,0.1l-0.7,0.8
	l-5.7,0.2l-1.1-1l-1.1-0.5l-1-1.6l-1-0.4l-0.5-0.7l-4,1.9l-2.1,0l0.7,0.6v1.6l-1.2,1l-2.4,1l0.4,0.3l0.8,1.1l-1,1.7L315,113
	l-1.7-0.7l-1.7,1l-2.4-0.1l-2.4-4.7l-2.6,0.2l-0.4-1.7l2.4-1.3l-1,0.5l-0.1-0.9h-1l-0.7,1.1l-0.6-1l-0.1,0.8l-1.3-2.3l-0.3-1.1l-3-2
	l-1.9-1.1l-0.2-2l-1-2.1l0.8-0.7l0-0.9l0.3-1l0.2-1.8l1.1-0.8l0.2-1l3.4,1.2l2.9,0l2.3-0.1l0.9-1.9l-0.5-0.9h1.3l-0.3-2.2l-0.5-0.5
	l0.7-1l1-4.5l3.2-1.7l1.9,0l1.4-2.4l1-0.2l0.2-3.5l1.8-2l3-4.6l0.7-0.4l1.1-2l2,0l0.8,0.5h1.6l0.6-1.7l2.8,3.3l4,2.3l0.2,1.5
	l-1.1,0.6l-0.4,1.2l-1.9,2.4l-0.2,2.2l-1.7,0l0.2,0.7l-0.4,2.3l2,2l-0.1,1.2l-0.7,0.3v1.1l0.8,1l2-0.7l2.1-1.6l-0.8,1.6l-1.7,1.2
	l0.2,0.9l1,0.2l-0.2,1l-0.7,0.5l-2-0.3l-0.9,1.2l-1.5,0.1l-0.7,1.3l1.4,1l0.2,1.4l1.1-0.2l1.1-1.4l1,0l1.4-2.2l2.5-1.1l0.3-0.7
	l-0.7-1.7l2.2-1.7l3.9-3l1.1,0.1l0.3-1.8h2l2.4-1.7l1,0.8l1-0.3l-9.5,4.6l2.8-3.3l0.7,1.7v-5.5l2.6-2.1 M345.9,175.4l-2.2-0.3
	l-0.2,0.7l1,1.1l1.9,0l1.9,0.8l-0.2-1.9l-1.5,0.1L345.9,175.4z M273.1,291.9l-1.6-0.7l-2.1,0.3l0.8,0.9l1.2-0.1l1.7,0.3L273.1,291.9
	L273.1,291.9z M340.9,245.7l0-1.3l-0.7-0.7l-0.7,0.3l0.4,2L340.9,245.7z M248.1,286.4L248.1,286.4L248.1,286.4L248.1,286.4
	L248.1,286.4z M322.4,268l0.6-0.5l-1.1-1l-1.3,0.7l0.3,0.8L322.4,268z M378.5,152.9h0.7l-0.1-1.7l-0.5-1l-0.7,1.2h-0.6l-0.4,0.7
	l0.9,1.4L378.5,152.9z M392.7,145.6l-0.9,0.7l0.5,0.9l1.5-0.6L392.7,145.6z M400.4,146.3l0.7-1l-0.1-1.7l-0.7-0.5l-1.4,1.1l0.1,1.1
	l0.6,1.3L400.4,146.3z M375.1,98.1l-3.6,3.1l-3.4,0.9l-3,3l-0.7,2.3l0.3,0.3l1.7-1.2l3,0.1l-1.4,0.7l3.9,3.3l2.5,3.7l1.3,0.3l-0.7,1
	l1.4,2l0.8,1.7l-3.3-1.1l-0.7-1l-0.7,1.7l-1.4-0.4l-2,2.8l4.4,2l1.1-0.4l1,2.2l0.1,4.1l1.1,0.7l0.7-0.7l1.7,3.3l-3.2,2.2L376,136
	l1.3,1l0.1,1.7l-1.2,0.7v1.9l1,1.9l-1.3,0.1l2.4,4.6l1.4,0.1l0.4,2.3l0.7,0.6l-0.1,1.7l1.4-1l0.1-2.5l0.9,1.2l1.4-2l4.4-3.8l1.8-0.4
	l0.3,1l1.3-1.7l1,0.1l1,2l1.9-0.7l0.7,0.9l1-0.7l-0.7-1.4l2.4-1.5h2.3l2.7-3.4l-0.6-1l1.3-1l-0.5-7.6h-0.7l-0.7,0.7l-0.1-2.3l-1.3-7
	l-1.5-1.6l-0.2-4.4l-5.8-7.3l-5.3-5.5l-3.6-6.6l-3.9,2.5L375.1,98.1z M389.1,34.3l-3.1-0.7l-0.9-1v-2l-1.7-1.4l-1.3,0.6v2.1l-0.1,2
	l0.7,1.4l-0.7,1.9l-2,0.3l-1.6,2.1v2.1l-3.9,3.1l-2.3,0.3l-1.7,1l2.1,1.6l2.1,2.1l0.1,1.4l-1.3,2.7l-2.6-0.4l-4,0.4l-2.1-0.9
	l-1.7,0.7l-1.4-1.3l-1.6-0.9l-1.9-2.9l-1.9,2.3l-0.1,3.3l0.1,1l-0.9,1.7l-1.6,4.8l-1.9,0.9l-1.7,3.3l-2.6,1.7v1.7l-1.1,2.6l-2.6,2.1
	v5.7l0.3,0.7l0.4-0.2l0.9,3.5l1.4-1l0.1-1.5l2.2,1.2l0.9,1.3l3.2-0.4l1-1.3l1.3-0.1l-0.5,1.7l-1.3,0.9l1.3,1.9l-2.4,3.9l0.1,4.7
	l0.7,0.8l3.7,0.1l2-1l-2.1,2l-2.5,0.2l-1.3,2.8l-0.1,4.1l-0.5,1.8l0.9,0.2l1.7-1l2.1,0.7l-1.8,2.9l0.8,1.3l2-1.7l1.2,0.8l1.8-2.3
	l-0.5-1l1.1-0.7l2.2,2.4l0.7-2.3l3-3l3.4-0.9l3.6-3.1l6.8-0.6l3.9-2.5l-1.2-2.1l-7.3-4.2l-1-1.7l-3.6-0.7l-0.6-2.6l1-1l-0.7-2.3V78
	l2.6-1.7l0.8-2.2l2-1.3l2,0.1l0.4-1l1.4-1.3l-0.6-1.5l-0.3-5.2l-0.5-0.7l2.5-2.2l0.8-2.3l-1.6-1.2l-0.1-5.2l3.2-1.6l-0.2-2.8
	l1.3-4.9l0.1-2.4l1.2,0.2l3.2-3.6l0.7,0l0,0l-1.7-2.4L389.1,34.3z M41.3,2.8l0.9,1.3l0.6,1.6l1.4,1.2l1.3,0.7l1.1,1.8l0.7,1.1l0.1,2
	L47,13.5l0.4,2.1l1,1.2l-0.6,1.6l-1.3,1l-0.6,1v1.3l0.3,1.4l2,3l1.9,1.1l8.8,1.9l3.9,0l2.4-0.3l0.8-0.7l0.6-0.2l6.1,1.4l2.8,1.8
	l0.7,1l1.6,0.3l0.8,0l1.1,0.3l3.3,2.3l2.1,1.2l2.5,0l0.8-0.2l0.6,0.3l0.2,1.6l0.4,1l0.9,0.1l1.3,0.5l1.3,1.4l0.1,1.1l1,2.6l1.5,1.9
	l1.9,2.8l0.8,1.9l2,3.9l1.6,0.5l1.8-0.2l3.6-0.4l4.1,0.3l5.4-0.3l7.4,0.6l4.2-0.4l3-1.1l0.5-1l1-0.6l1.4,0.3l5.4-0.1l6.4,0.7l2.4,0
	l3,2.9l5.6,2.6l5.7,2.1l2.6,0.3L169,63l3.1-0.4l3.8-1.1l0.3,1.3v1l2.7,0.8l2.1,0l1.6-1.3l3.9-3.1l2.5-2.8l5-1.7l6.4-2.3l2.9-0.8
	l2.5-0.8l3.7-0.4l2.5-0.1l2.4-1.8l2.4-1.6l2.1-0.1l2.8-0.9h1.5l1.3-3l2.3-3.8l3.9-4.4l1.2-1.7l0.9-1.7V31l-3.7-2.3l-4-2.7l0.1-1.2
	l-0.2-2l0.1-3.9l1.3-1.9l2-1.5l3.5-0.7l2.2,0.1l2.2,1.6l2.7,1l2.2,0.4l1.9,0.9l0.9-0.2l0.5-1.4l1.2-1.3l2-1.5l1.7-1.2l1.7-3.5l1-0.8
	l2.2,0.4h2.1l4-2.7l1.9-0.4l1-1.2l-0.1-1.9 M273.4,506.4l1.1-0.3l1.7-1.8l-1.3-0.9l-2.2-0.1l0.2,1l-0.3,1.1L273.4,506.4z
	 M272.2,497.2l-2.2-0.7l-0.3,0.3l0.3,0.8l1.6,0.6l0.9-0.5L272.2,497.2z M266.9,509.3l1.3,0.6l0.6-0.8l-0.7-0.8l-1.3,0L266.9,509.3z
	 M274.9,502.6l0-0.7l-0.7-0.2l-1-1l-2.3-0.4l-0.2,0.7l1.3,1.5l0.9,0L274.9,502.6z M165.2,479.5l-1.2-0.4l-0.9,1l-1.7,0l2,2.1l0.4,2
	l1.3,0.3l1.7,3.1l0.8-0.3l0.3-2.3l0.6-1.3l-2.1-1.6L165.2,479.5z M176.1,502.1l-1.9,1.5v1.4l1.9,0.7l2.3,3.5l2.3,0.7v-3.3l-2.7-3.8
	L176.1,502.1z M162.7,472.8l-1.3,0.4l2.1,0.7L162.7,472.8z M177.1,492.7l0.2-1.2l-2.1-0.7l-1,1.3l2.1,0L177.1,492.7z M174.4,497.6
	L173,497l-0.9,2l1.1,1.2l1.3-1.3L174.4,497.6z M229.4,480.9l-0.8,0.8l-1.4-0.1l-0.8,1.8l1.9,0.5l0.6,2.2l1.2-0.4l0.6-2.7l-0.9-0.9
	l0.7-1.4L229.4,480.9z M232.7,497.2l0.7-0.6l-2.7-2.5l-1.4-0.3l-1,1.7l0.9,1.1l1.4-0.5L232.7,497.2z M224.7,483.9l0.9-1.7l-0.3-1.3
	l-2.4,2.4L224.7,483.9z M229.9,499.3l-0.6-1.7h-1.5l-0.9,1.2l1.4,1.4L229.9,499.3z M201.7,474.4l-1.5,0.3l1,2.7l1.6-0.3l1.6-1.8
	l-1.6-1.8L201.7,474.4z M243.5,466.3l1-0.5l-0.9-1L243.5,466.3z M207.3,479l-1,0.1l2.2,3.3l0.9,0.8l1.1-2l-1-1.3L207.3,479z
	 M149.2,465.4l-0.7,0.7l-0.5,1.1l1.7,1.1l2.1-0.3l-1.2-1.7L149.2,465.4z M213.5,486.1l2.1,1l0.7-0.6l-0.6-2.6l-2-1.7l-2.3-0.5
	l-1.3,2.2l0.3,1.7L213.5,486.1z M260.8,451.8l-1.5,0.9l-0.9,1.3l1.8,1.7h1l-0.4,1.4h1.3l0.7-2.5L260.8,451.8z M240.6,463.9l-1.4-0.6
	l-1.1,0.3l-0.2,1.6l1,0.6L240.6,463.9z M244.4,463.2l-0.7-1.2l-0.6,1.1L244.4,463.2z M243.4,459.5l0.1,1.6l1-1L243.4,459.5z
	 M203.9,437.2l-1.2,0.9l-1.2-1l-1.6,0.2l-2,1.7l-2.4-0.6l0-1.3l1-1.3l0.3-2.6l-1.2-1.2h-1.9l-0.4-1l-2.4-0.7l-1.7-1.5l-1.2,1.5
	l-0.6,2l1.8,3l1,7.3l1,2.4l1.1,2.2l-0.3,2.9l-0.5,0.5l0.2,2l1.3,1.3l-0.5,0.8l1.1,1.6l2.4,1.4l1.6,2.4l1.6,1l1,1.7l-1.3,1.3
	l-0.2,1.2l1.1,1l3.2,1.3l2.7,2.2l-0.2,1.7l2.2,2.3l1.3,0.1l1.3-0.3l1,0.8l1.3,1.5l2.7,1.4l2.9,0.6l1.1,1.3l1.7,0.8l0.6-0.6l0.7,1
	l1.8-1.1v-0.4l-0.8-0.1l0.6-0.2l0.1-1l-0.5-0.7l1,0.7l-0.1,1l0.3,0.7l1.3,0.3l0-2.2l-1.9-3.7l-0.5-0.3l0-0.5l-0.3-0.7l-0.6-0.5
	l-0.3-2.7l0.2-0.7l-0.4-0.8l-1.4,0l-2-1.9l-1.1-2.3v-4.4l-0.7-1.2v-1.6l0.4-0.8l-0.2-4.4l0.7-1l-0.9-3.7l-2-3.1l-6.5-6.6l-1.3-2.4
	l-0.7,0.2l-0.8,0.9l-1.3,0l0,0l-0.4,0.4L203.9,437.2L203.9,437.2z M289.4,472.2l-0.6,1.9l0,2.6l-1.6,2.1l0.1,0.7l-3.5-0.4l-3.7-1.3
	l-2.6,0.1l-1-1.4l-1.5-1.7l-0.7,0.2l1.8,3.3l2.9,2l0.3,0.7l2,1.9l0.7,1.5l1.3,0.2l2.6-0.7l0.3-1l2.2,0.2 M187.2,440.1l0.3,1.8l1,1.3
	l0.7-0.5l-0.3-1.2l-1-1.3L187.2,440.1z M217.3,397.7l1-0.5l0.4-2.7l-0.6-0.2l-0.5-1.2l-1.7,1l1,1.2l-0.4,1L217.3,397.7z
	 M245.5,285.9l-0.8-0.6l-1.8,0.6l-1.8-0.9l-1.7-0.8l-0.5-1.3l-3.6-1.3l-0.5-1.9l-1-0.4l0.9-3.3l1.3-0.2l0.3-1.7l-1.6-1.2l-2.4,1
	l-0.7-0.9l-4,0l-0.8-1.2l-2-0.4v-1.2l-1.9-1.6l-1.2,1.2h-2.2l-1.9,1.1l0.1,2.8l-3,1l-1.7-1l-2.2,0.7l-0.3,1.3l-2,1l-0.4-1.3l-1,0
	l-0.9,1.3l-1.8-1.8l-1.3,1l-0.3,1.7h-1.2l-0.8-0.7l0.1-1.3l-1.2-0.1l-1.9,0.7l-1,0.9l-0.5,0.9l-0.7,0.1l-0.6,0.5l0.6,1.1l3.1,1.3
	l1.5,2.3l1.6,1.3l0.3,1.9l-0.7,1.5l3.1,2.9l1.9,3l3.7,0l2.2,0.7l2-1.2h2.5l1.3,1.6l-1.2-0.9l0.3,1.8l0,1.6l2.5,0.6v1.2l-1.3,0.4
	l-1,3.5l-1,1l1.7,1.6l-2.6,0.9l-1.3,0.1l0.3,1.5l1.9,2.1l-1.3,1.4l0.4,1.2h1.4l1.3,2.3l-0.7-1.1l2.7,1.4l1.8,0.2l2.3,3.1l2.6,1.2
	l1.8,2.6l3.4,2.7l-0.7,1.8l0.8,2.1l1.2,0.6h2.2l1,1.6l0.3,1.6l1.2,1.2l0.8-0.3l1.3,0.6l-0.3,1.5l0.7,0.9l2,0.1l1.1,1.5l0.9,0.3
	l1.7-0.7l0.6,1.3l-1.3,1.3l-0.3,2.4l0.7,1l1.3,0.2v2.1l-2.5,2l0.4,2.3l0.7,1.2l0.3,2.7l-1.7,1h-0.3l1,2.7l1.6,0.8l1.6,3.6l-0.4,2.8
	l0.7,1.7l-0.6,2.4l0.3,2.1l-1.3,2.7l-1.4,0.6l-0.4,1.2l-2.4,0.7l-2.6,1.7l-0.9,1.7l-3.3-0.1l-1.8,1.3l0.4,3.2l2,0.6l1.6,1.7
	l-0.3,1.2l0.8,1.9l-2.8,0.2l-0.4-1.2l-1.7-1l-4.2,1l-1-0.7l-1.8,0l-1,2.6l-1.9,0.3l-1.7,2l0.4,0.3l0.1,1.5l-0.3,0.4l1.7,0.5l0.8-0.3
	l0.8,0.5l1.3-0.4l1.9,0.3l1.3-0.6l-0.8,0.9l-2.5,2l-1.3,2.2l0.2,2.8l-0.3,1.2l0.5,0.1l-0.2,0.3l-0.2,2.7l1.3,0.7l0.9-0.3l-0.9,1
	l-1.6,0.7l-1.3,0.8l2.1,0.3l4-1.8l-0.1-0.4l0.4,0l1.1-1l0.2-1.9l0.4-1l1.2,0.2l0.7-0.5l1.7-1.5l0.9-0.1l0.5-0.7l0.7-0.5l-0.3-0.5
	l0.1-0.4l-0.5-1.3l1-0.2l0.7,1l0.8,0.3l0.7-1l0.2-0.9l-1.6-1.8l1.9,1.4l1.3-0.7l-0.7-1.4l0.5-0.8l-2.4-1.1l1.5,0.2l0.5-0.3l0-0.7
	l-1-0.8l1.5,0.4l0.3-0.4l0.4-1l0,1.1l-0.2,1.1l0.3,0.3l1.7-0.4l1,0.5l2.3-0.3l3.9-2.3l1-1.2h1.6l0.2-1.5l1.8-1.3l1.3-0.7l2-2l1-0.4
	l0.3-2.2l1-0.3l1.2-1.1l-0.6-0.7l0.7-1.6l-1.3-1.9l1.4-1.1l0.1-1l0.9-0.7l0.2-0.8l-0.8-0.9l-0.1-1.4l0.7-0.4l0.6,0.7l0,0.7l0.4,0
	l0.2-1.3l-1-2l-0.4-1.3L263,367l0-0.9l-0.7-2.3l0.4-0.6l-0.6-1.5l0.3-1l0-1.6l-0.6-0.6l-0.7-2.9l-0.7-0.5L260,352l-1.6-1.9l0.4-0.7
	l-0.5-0.7v-1l-2-2.1l0.1-1.2h-0.5l-0.3-1.4l-1.3-2.3l-4-3l-1-1.7l-4.3-3.2l-4.8-2.7l-0.2-0.6l-2-1.1l0-1.5l-0.3-1.1l-4.2-3.3
	l0.3-0.6v-1l-1.1-2l-0.9,0l-2.4-2.3l-2.7-1.6l-1.6-0.5l1.5-0.4l0.2-1l-1.9-1.6l1-1.5l0.9-3l-0.7-0.9l-0.7-0.1l0.1-1.6l0.7-0.6
	l0.5-1.6l0.8-0.6l0-0.7l0.4,0.6l1.1,0l1.3-2.1l0.7-0.2l0.5-0.8l-0.7-1.1l0.3-0.3l-0.1-1.4l0.2-1.3l-0.5-0.5l0.7-1l0.1-1.3l0.6,0.2
	l0.6,0.8l0.6-0.2l0.8-0.8l1.3-0.3l0.8,0.5l0.3-0.6l0.9-0.6l3.1,0l0.5-0.8l1.6-0.3l1.5,0.1l1.6-1l0.7,0l1-0.4l0.6-1l-0.3-0.7l0,0h0
	l0.1,0l-0.1,0l-1.5-0.8L245.5,285.9z M225.2,391l1-2.6l1.8,0l1,0.7l4.2-1l1.7,1l0.4,1.2l2.8-0.2l-0.8-1.9l0.3-1.2l-1.6-1.7l-2-0.6
	l-0.4-3.2l1.8-1.3l3.3,0.1l0.9-1.7l2.6-1.7l2.4-0.7l0.4-1.2l1.4-0.6l1.3-2.7l-0.3-2.1l0.6-2.4l-0.7-1.7l0.4-2.8l-1.6-3.6l-1.6-0.8
	l-1-2.7l-1.3,0l-1.8-1.2l-1.3-0.4l-0.8-1.4l-3,0.7l-1.6,1.5l1.9,1.9l-0.3,1.7l0.6,1.7l-0.1,1.2l-2.8-1l-1.6-2.7l-2.6,0l-0.8-1.2
	l-2.1-1.5l-1.1,0.6l-1.6-1.2l-2.5,0.3l-1.9-0.5h-1.9l-2.5,0.9l-0.8-0.8l-2.6-0.1l-0.7,2.7h-1.7l-1.9,2.7L206,362l-1.5,2l-0.2,3.5
	l0.8,3.5l1.5,0.8l0.8,1.7l-0.2,3.3l-0.3,1.3h0l1.2,1.4l0,1.7l1.2,1l0.1,1.7l-2.2,0.5l0.7-0.3l0.7,1.3l-0.1,1.4l0.6,1l0.3,1.3
	l1.4,0.2l1.1-0.2l0-1.5l1.1-1l0.7-0.5v1.1l0.6,1.4l-0.1,1.1l-1.1,1.3l0.6,0.8l0.2,0.7l1,0.1l1.4-1.3l0.1-0.5l1,0.7l1.8,0.6l0.5-0.3
	l1.7,1.2l1.7-2L225.2,391z M180.8,299.6l1.7,2l0.4,3.1l-1.4,1l1.3,2.3l1.4,0.5l1.5-1.3l3.3,0.1l0,1.5l-1,2l1,1.7l0,1.4l-1,1.3
	l0.8,2.2v3.1l0.2,4.7l2.4-1.3l2.2-0.5l0.3-1.8l2.8-1.3l3,1.6l1.8-0.1l1.6,2l3.7-0.4l2-4l3-0.7l4,1l1.3,2.6l3.9,2.8l2.2,1.6l-2.6,0.6
	l-0.3,1.6l-0.7,1.1l1,2.1l-0.1,2.5l-0.4,1.3l1.6,1.2l1.9,2l1.7,0.1l1.5,0.7l-0.6,1l2.3,1.5l0.4,1.2l-0.6,2l0.1,1.2l-0.7,1.7l0.7,1.4
	l-0.1,3.2l-1.2,1.3l-1,0.5l2.1,1.5l0.8,1.2l2.6,0l1.6,2.7l2.8,1l0.1-1.2l-0.6-1.7l0.3-1.7l-1.9-1.9l1.6-1.5l3-0.7l0.8,1.4l1.3,0.4
	l1.8,1.2l1.3,0h0.3l1.7-1l-0.3-2.7l-0.7-1.2l-0.4-2.3l2.5-2v-2.1l-1.3-0.2l-0.7-1l0.3-2.4l1.3-1.3l-0.6-1.3l-1.7,0.7l-0.9-0.3
	l-1.1-1.5l-2-0.1l-0.7-0.9l0.3-1.5l-1.3-0.6l-0.8,0.3l-1.2-1.2l-0.3-1.6l-1-1.6H233l-1.2-0.6l-0.8-2.1l0.7-1.8l-3.4-2.7l-1.8-2.6
	L224,319l-2.3-3.1l-1.8-0.2l-2.7-1.4l0.7,1.1l-1.3-2.3h-1.4l-0.4-1.2l1.3-1.4l-1.9-2.1l-0.3-1.5l1.3-0.1l2.6-0.9l-1.7-1.6l1-1l1-3.5
	l1.3-0.4v-1.2l-2.5-0.6l0-1.6l-0.4-1.7l1.2,0.9l-1.3-1.6H214l-2,1.2l-2.2-0.7l-3.7,0l-1.9-3l-3.1-2.9l0.7-1.5l-0.3-1.9l-1.6-1.3
	l-1.5-2.3l-3.1-1.3l-0.7-1.3l-3.4,0.1v1.3l-1.2,0.8l0.1,3l0.7,1.9l0.1,2.1l0.5,2.3l-1.5-0.4l-2.3,0.7l-0.8-1.5l-1.1-0.8l-1.7,1.5
	l-2.5,0.5l0,1.7l-1,1.4l0.8,1.2l-1.8,1.5h-1l-1,2.3l1,2.1L180.8,299.6z M185.8,405.2l0.4-1.8l-0.5-1.3l-1.3,0.8l0.1,1.2L185.8,405.2
	z M183.7,400.8l1.2,0.3l0.5-1L183.7,400.8z M182.3,429.8l0.7,1.4l0.7-0.3l-0.3-1.1l-0.7-0.3L182.3,429.8z M177,422.9l0.3-1l-0.1-0.8
	l-0.5-0.1L177,422.9z M203,379.7l1.3,1.1l1-0.2l-2.4-2.4L203,379.7z M207.6,373.7l-0.8-1.7l-1.5-0.8l-0.8-3.5l0.2-3.5l1.5-2l0.6-2.7
	l1.9-2.7h1.7l0.7-2.7l2.6,0.1l0.8,0.8l2.5-0.9h1.9l1.9,0.5l2.5-0.3l1.6,1.2l2.1-1l1.2-1.3l0.1-3.2l-0.7-1.4l0.7-1.7l-0.1-1.2l0.6-2
	l-0.4-1.2l-2.3-1.5l0.6-1l-1.5-0.7l-1.7-0.1l-1.9-2l-1.6-1.2l0.4-1.3l0.1-2.5l-1-2.1l0.7-1.1l0.3-1.6l2.6-0.6l-2.2-1.6l-3.9-2.8
	l-1.3-2.6l-4-1l-3,0.7l-2,4l-3.7,0.4l-1.6-2l-1.8,0.1l-3-1.6l-2.8,1.3l-0.3,1.8l-2.2,0.5l-2.4,1.3l-0.2-4.7v-3.1l-0.8-2.2l1-1.3
	l0-1.4l-1-1.7l1-2l0-1.5l-3.3-0.1l-1.5,1.3l-1.4-0.5l-1.3-2.3l1.4-1l-0.4-3.1l-1.7-2l-2.4,0.6l-1-2.1l-0.1,0.2l-2.6,0.1l-2,0.7l0,1
	l1,1.3l-0.7,1l-2.3-0.3l-1.1,1l0,2.2l-0.6,1l-2,0l-2.1,1.7l-3.4-1.3l-1.4,2l0.4,3.1l-1.3,1.2v2.7l0.7,1.5l-1.6,1l-2.3,1l0.2,1.4
	l1.3,0.4l1.5,2.6l1.3,1.2l0.5,1.3l2.3,1.6l2.1,4.6l1.4,0.5l1,2.3l0.3,2l1.9,0.9l0.2,1.8l-1.7,0.9l-0.7,1.3l1,4.6l-0.3,1.3l-1.9,1.1
	l1.3,3.1l0.1,1.6l2.3,2.9l2.7,2.1l2.4,2.4l1.2,3.8l-0.7,1.5l0.4,1.7l-0.2,1.9l1,1.1l0.4,2.7l0.8,1.6l-0.1,2.6l1.2,2l-0.3,2.9l-1,0.7
	l-2.1,5.6l-1.9,1.4l-0.3,2.3l-0.8,1.4l-0.5,1.3l-0.3,3l1,0.1l-1.1,1.7l0.4,0.7l-1.3,1.8l1,0.2l-0.7,1.3l-1-0.2l0.1,3.4l-1.1,0.5
	l0.3,2.6l-0.4,0.8l0.5,3l0.8,1.2l1.1,0.1l0-1.7l1.7-0.8l0,0.9l1,0.7v1.3l1.6,0.3l1,3.2h1.3l2,2.7v1.2l1.7,0.3l0.6,1.5l1,0.1l-0.1,1
	l-0.7,0.9l0.1,0.7l3.8,2.8l0.7,1.2l0.6-2l1.2-1.5l1.7,1.5l2.4,0.7l0.4,1h1.9l1.2,1.2l-0.3,2.6l-1,1.3l0,1.3l2.4,0.6l2-1.7l1.6-0.2
	l1.2,1l1.2-0.9v-1.6l0.4-0.4l-0.2-0.9l-1.6-1l-1-1.3l-1.2-2.6l-1.7-0.6l-1.8-0.2l-0.7,0.5l-1-0.8l-2.6-2.5l-1.2-1l-0.2-1.6l-0.5-0.4
	l-0.3,1.3l-2.6-1l0.2-1.3l1.4-1l0.4,0.6l0.3-0.7l0.3-0.5l-0.7-3.7l-0.8-0.5l0-1.5l-1-1.5l-0.4-1.4l-0.1,0.7l0,1l-1,0l-0.9-2l-1-0.3
	l0.2-1.9l-0.8-1.1l-0.2-1.9l-0.8-0.7l-1.3-0.3l-0.4-0.3l-0.9,1l-0.2,0.7l-1,0.3l-0.5-0.7l0.9-1.7l-1.7-2.6v-1.2l-0.4-1.9l-0.1-0.8
	l0.8-1.1l-0.3-0.4l-0.9-0.2l0.8-1.8v-1.9l2.1-2.7l0.5-6.8l1.3-1.9l0.3-1.8l1.3-1.6l0.3-2.5l-0.7-0.5l0.3-1.1l-0.1-2l1-1.6l-0.3-1.6
	l-1.5-0.7l0.4-1.2v-0.4l0.5,0.3h1l0.6-0.7l0.7,0.6l1.1-0.1l1.4-0.6l0.7,0.5l0.6-0.2l0.3,0.2l1.6,0.3l0.5,1.2l-0.5,0.5l-0.1,2.3
	l0.8,1.4l-0.6,0.6l-0.5,1.4l1.3-0.1l1.3,0.4l1.8-0.4l1.9,0.5l0.8,0.6l0.2-0.3l-0.2-0.4l1-0.9l1.3,0.5l2.4,2.3l1.1,0.6l0,0.8l0.7,0
	l1.9,1.6l0.3,0.4l0.3-0.1l0.1-1.2l0.8,0.1l0.3-1.3L207.6,373.7z M171.4,418.8v-2.2l-1-0.1l-0.4,1.2l0.4,0.7l-0.1,1.8L171.4,418.8z
	 M144.8,339.1h1.3l2-1.2l-1.4-0.4l0.1-0.6l-0.6-1.4h0.6l1,1.3l1.5,0.3l2.3-1.9l-0.3-1.1l0.8-0.9l0.2-1.8l-1-0.7l0.1-1l0.3-0.6
	l-1-1.2l1.6,1v1l0.9,0l0.3,1l1.7,3.4l0.7,1l0.5,2.2h1.6l1.2-0.5l0.6-1.1l-0.1,1l-0.5,0.8l1.1,2.1v1.1l-0.7,0.3l0.3,1.7l1.1,0.7
	l0.7,6.6l0.6,0.1l0.1,3.1l2.2,1.3l-0.7,0.7l0.1,1.8l1.3,1.6l-0.1,3.9l0.8,1.6l-0.1,1.6l0.5-0.4l0.3-2.9l1.3,2.2l0.4,1.9l1.2,1.1
	l0.6,5.5l0.9,0.7l0.5,1.6l-0.6,0.9l0.1,2.3l0.9,1.3l1.3,1.4l-1.2,1l0.8,2.4l-0.4,1l-0.6,0.3l-0.3,2.3l0.5,0.5v1.4l-1.1,1.8l-0.7,0.6
	l-0.7-0.3l0.1,0.9l0.6,1.1l0.1,2.6l0.9,2.8l0.2-2.7l0.8-1.8l0,0.3l0.5-1.3l0.8-1.4l0.3-2.3l1.9-1.4l2.1-5.6l1-0.7l0.1-3l-1.2-2
	l0.1-2.6l-0.8-1.6l-0.4-2.7l-1-1.1l0.2-1.9l-0.4-1.7l0.7-1.5l-1.2-3.8l-2.4-2.4l-2.7-2.1l-2.3-2.9l-0.1-1.6l-1.3-3.1l1.9-1.1
	l0.3-1.3l-1-4.6l0.7-1.3l1.7-0.9l-0.2-1.8L168,337l-0.3-2l-1-2.3l-1.4-0.5l-2.1-4.6l-2.3-1.6l-0.5-1.3l-1.3-1.2l-1.5-2.6l-1.3-0.4
	L156,319l2.3-1l1.7-1.2l-0.7-1.5v-2.7l1.3-1.2l-0.4-3.1l1.4-2l3.4,1.3l2-1.7l2,0l0.6-1l0-2.2l1.1-1l2.3,0.3l0.7-1l-1-1.3l0-1l2-0.7
	l2.6-0.1l0.1-0.2l1-2.3h1l1.8-1.5l-0.8-1.2l1-1.4l0-1.7l2.5-0.5l2.5-2.2l0.2-1.7L185,285l-4,1.7h-2l-1.2,1.2l-2-1l-0.6-1.7l0.5-2.4
	l-1.2-1.6l-1.3,1.2l-0.4-0.5l-2.8-0.3l-1.3,0.7l-0.3-1.2l1.7-1.7l2-2.9l0-1.3l0.8-1.6v-1.3l-1.8-1.1l-2.5,0.3l-0.3,0.7l-0.7-1.1
	l0.4-0.8l-2.3-0.5l-1-1.4l0.6-1.5l-0.4-1.6l-2.3,0.6l-1.1-0.9l0.6-1.1l-0.4-1.4l-4,0.8l-2.1,1.6l-0.8-2l0.3-2.1l-1.3-1.2l-0.7-1.2
	l-1.5-0.7v-1.5l0.8-1.3l-0.8-1.2l0.7-1.6l1.2-1.3l1.2,0.4l0.7-1l-0.8-1.7l0.4-1.2l0.8-0.3l0.2-1.7l1.7-0.8l0.4-1.1v-1.6l0.5-3.8
	l-0.2-2.7l-1.5-3v-2.7l-1.6-1.8l-1.6,0l-0.5-2.8l-1.7-1.3l-1.2-2.4l-2,0l-1.3,0.8l-2-0.9l-1.5,0.7l0.4,0.4l0.2,1.3l-1.7,1.6v2.4
	l0.4,1.5l-1.7-0.8l-1.5-1.2l-2.5,1.8l-2.9,0.9l-0.9,2.1l-2.1,2.7l-2,0.7l-3,4.6L125,242l0.9,1.2l-1.2,3.5l-2.5,4l0.1,1.3l2.1,1
	l-1.9,4.7l-0.8,3.8l-1.4,3.3l-2.4,0l-1.5-0.5l-1.9-0.1l1.1,4.4l0,2.3l-0.2,3.2l-1.9-0.3l0.3,2.4l-0.3,2.2l0.4,1.8l-1,3l-1,0.5
	l-0.8-0.4l-0.4,1.7v3.1l-1,2.2l-0.7-0.5l-1.7,2.1l-0.3,1.7l0.1,0.6l0,0l0.9,1.9l0.7,2.3l4,3.6l-0.9-1.6v-0.8l1.4,1.2l1.7-0.1
	l-1.3,1.6l0.1,0.7l1.6-0.2l0.2-1.1l0.4,1.1l1.6,0.3l0.7,1.1l2.8,0.6l1.7,2.6l0.1,1.5l-1.1,0.4l-1-1l-1.3,0.8l1.3,1.2l0.5,0.3
	l-0.5,0.6l-1.3-0.7l-0.6-1.3l-1.6-0.1l0.2,1l1.7,1.5l0.1,1l1.6,1.9l3.3,1l-0.4-3.1l-0.7-1.5l2.2,1.3v1.6l0.7,1.4l1,1.3l0.7,2.6
	l1.3,1l-0.6,0.3l0.6,1l0.9,0.4l0.2,3.5l1.6,3.9l0.8,0.8l-2,1.3l-1.4,8.9l0.5,1.9l-0.3,0.7l0.2,0.8l1.3-2.2l1.9-1.6l1.1-2.6l-0.1,2.9
	l-2.4,2.2v2.4l1-0.1l0.3-1.2l2.4-1.3l1,1.3l0.9-0.2l0.2-0.9l0.1,0.5h1l0.3-0.4l1.7,0.2l3.6-2.4l0.5-1.6L144.8,339.1z M118.7,316.1
	l0.5,1.3l1.8,1l0.4-1.6l-1.4-1.4L118.7,316.1z M4.1,416.7l-0.3-1.4l0.5-0.2l0.1-0.4l-1,0.4l0.1,1.6l-0.3,2L4.1,416.7z M22.8,424.4
	l-0.7-1.1l0.4-1.4l-1.3-1.1l-1.5-4l-1.1-2.8l-1.6,0.2l0-0.3l-1.3-0.1l1.7-1L17,412l-0.7-0.3l-1.1-2.1l-0.9,0.1l-0.6-1.7l-0.6-0.7v-1
	l-2.6-1l-0.5,0.6L9,405.5l0.1-0.7l-2-0.5l-0.1,0.5l0.3,0.6l-0.3,0.3l-0.5,0.1l0.2,0.6l-0.1,1.2l-0.9,1.6L5.3,409l-1-0.9L3.2,408v0.4
	l1,0.5l0.5,0.8l-0.4,0.4l0.7,1.7l0,2.4l-0.6,0.9l-0.5,4l0.2,1.1l-0.5,0.5l0.8,3.4l-0.3,1.3l1.2,4.3l1.4,4.8l1.3,2.1l2.1,1.1l1.8-0.4
	l3-0.4l2.8-0.9l2.9-3l1.3-2.6l0.6-1.6l-0.2-1.5l0.4-0.5L22.8,424.4z M7.6,401.2l-0.5-0.3l-2.9,0.2l0,1.1l2.3,1.5l-0.2-0.7l0.5-0.1
	L7.6,401.2z M7.7,403.3l1.8,0.8l0.8,0.7l1.5,0l0.9,0.7l-0.4-0.8l-2-1.3l-0.3-1.3l-1.3-0.3l-0.3,0.6l0.5,0.3l-1,0.1L7.7,403.3z
	 M77.3,280.8l0-2.4l-2.5-3.7l-0.4-2.8l0.3-1.6l-0.8-2.3v-3l-2.2-2.8l-2.3-0.9l-2-2.4l0-3.5l1.7-0.4l0.8-2.4l1.3-0.8l1.1,0.4l1.2-0.9
	l-0.5-2.3l0.4-1.1l-2.3-0.2l-1.6,0.7l-4.2-1.5l0.3-2.1l1.7-2l0.8-2.3l-0.9-0.8l-0.1-1.2l0.8-0.1l0.5-1.3l0.7,1l1.2,1.4l0,1l1.3,1.6
	l1.9,0.3l0.9-0.4l-1.3-0.8l0.4-1l0.8,0.1l1.3,1.1l0.9,0.9l1.7,0.6l0.1-0.7l0.9-0.2l1.2,2.2l0.4,2.1l0.3,1.1l0.7,2l-0.1,1.3l1.7,0.7
	l1.7-0.1l1.9,0.8H89l3.6-0.3l2.7,0.3l3-0.1l1.5-0.1l0.7,0.4l1-0.3l1.6,1.6l0.9,0.4l-1,1.9l-0.3,2.2l-1.2,3l-1.1,0.6v1.2l-0.7,0.9
	l-1-0.2l-0.7-0.7l-1.7,1.2l-0.3,1.2l-0.7,0.6v1.1l0.9,2.4l0.9,0.8l0.3,0.9l1.4,1.3l1.4,1.8l0.9,0l0.2-1.4l-0.6-0.4l0.9-1.3l0-1
	l0.5-0.8l-0.6-0.8l0.8-0.7l1.1,0.8l1.5-0.1l0.4,0.8l0.8,1.3l0.6,2.5v1.9l0.7,1.3l0.5,3.6l0.7,2.4l0.7,1.4l0.4,0.6l0.1,1l0.4,0.7
	l0.3,0.3v-1l0.4-1.7l0.8,0.4l1-0.5l1-3l-0.4-1.8l0.3-2.2l-0.3-2.4l1.9,0.3l0.2-3.2l0-2.3l-1.1-4.4l1.9,0.1l1.5,0.5l2.4,0l1.4-3.3
	l0.8-3.8l1.9-4.7l-2.1-1l-0.1-1.3l2.5-4l1.2-3.5l-0.9-1.2l0.4-2.1l3-4.6l2-0.7l2.1-2.7l0.9-2.1l2.9-0.9l2.5-1.8l1.5,1.2l1.7,0.8
	l-0.4-1.5v-2.4l1.7-1.6l-0.2-1.3l-0.4-0.4l-1.4-1.4l-1.7-0.7l-1.1,0.4l-1.9-0.3l-0.4-1.5l1.4-1.6v-1.2l-1.3-1.7l-0.4-1.3l-1.2,0.3
	l-1.1,0.3l-0.7-1.4l1.3-2.4l-0.4-0.8l-1.2,0.3l-1-1.3l-1.4-0.4l-3.9,2.3l0.3,1.6l-1,0.9l-3.4-1.1l-2.3,0.7l-1.6-2.3l-2.2,1.3
	l-1.3,0.3l0.1,1.9l-2,2.5l-3.3,0.8l-2,0.3l-1.5,1.9l-0.6,1.8l-1.9,0.5l0,1.2l-1.4-0.5l-1.3,1l-0.9,2.2l-1.4,0.1l-3.3,0.8l-1.2,0.1
	l-0.6,2.2l0.3,1.8l2.8,1.2v2.5l0.1,1.4l-3.6,1.2l-2.4-0.1l-3.2,0.9l-1.9-0.8l-2,0.3l-1.8,2.2h-2.4l-4.4-2.5l-1.2,0.8l-3-0.7
	l-1.7-2.8l0.7-1.5l0.2-2l-0.1,0l-1.7-1.3l-0.1-2.3l-1-1.9l-2,0.3l-1.6,1.4h-0.2l0.6,1.9l-0.8,4.3l1.7,3.5l-0.7,4.1l-5.5,1.2
	l-3.4-1.8l-1.9,1l-7.8-2.8l-3.1,0.1l-1.7,0.9l-4.8-1.3l-2.3-2l-0.5-2.3l-4.3-1l-4.7,1.3l-1.6-1.4l-4.5,0.4l-3-2h-2.3l-1.7-1.3
	l-3.5-0.8l-2.7-3.3l-4.1-2.7l-3.2-0.9l-1.5-1.1l-1.6,0l-1.6-1.3l-1.9-0.2l-0.5-2.2l2-3.1v-3l1.4-4.8l-0.3-3.1l-0.1,0.2l-0.7-1.5
	l-1.5-0.3l-1-2.1l-1.3-0.4l-1.7-1.9l-2-0.3l-0.8-1l-2,0l-1,1.7l-2-1l-0.6-2l-0.8-0.3v-1.3l-1.1-1.6l-1-0.7l0.6-1.1l-1-1.7l0.4-3.5
	l-2.4-1.2l-0.1-1.5l-0.6-1.1l0,0l-3.6-2.3l-2.3,0.1l-0.9-2.4l-2.4-1l-2.6,1.4l-4.9-3.3h-1.9l-1.2,2.1l-2.3,0.1l-2.7,2.4l-2.7,4.4
	l-0.5,0.6l-1.8,2l-1.1-0.2l-1.7,1.1l-1.7,0.6l-2.8,2.7l0.5,0.8l0.9,3.3l-0.4,4.4l-0.3,2.1l-1.4,1.1l-2.6,2.8l1.2,0.9l0.1,1.7l-1,2.2
	l-2.9,1.4l-2,2.8l-0.4,2.9l-1,1.9l-4.1,2.9l-1.7,5.3l-2.8,3.2l-4.7,0.3l-3.4,1.7l-1.3-0.3l-0.4-1.7l-1.9-0.8l-1.2,0.8l-1.7,0.8
	L-97,230l-2.4,3.4l-1.3,0.4l-1.4,3.6v2.3l1.5-0.1l2.1,0.7l1-0.5l1.7,0.1l1.3,2.8l-0.1,2.2l0.4,3.3l2.9,1.9l1.7-0.1l1.2,1l-0.4,1.2
	l1.7,2.3l2,5.6l-0.3,1.3l0.7,0.8l-1.7,0.6l-2,1.2l-0.8-1l0.7-1.3l-2,0.7l-0.7,0.8l-3.5,1.3l-6.1-0.3l-1.5,0.8l-1.3-0.3l-0.8,2.3
	l-1.2,0.3l-1.9,1.2l-0.1,2.3l2.5-1.6l2.5-0.4l-2,1.1l-1.7,2.3l-0.1,1.8l1.1,0.5l2.8,2.9l5.8,2l1.7-0.6h2.2l3.7-1.6l0.2-0.8l-0.3-0.6
	l0.5,0.3l1.8,0.1l-0.7,1.7l-0.5-0.1l-1.7,2.6l-1.1,0l-3.7,2.9l-0.2,0.7l-1-0.6l-0.6,0.1l-1,0.9l-1.5-0.2l0-2l-1.1,0.3l-0.3-0.5
	l-1.1,0.1l-0.3,1l0.3,1.2l4,4l1.2,0.7l0.8,0l0,0.7l2.8,3.7l6.9,5.5l3.2,0.7l2.2-0.7l4.6-2.9l3-1.6l0.1-1l1.4-1.4l0.3-3.2l-1.3-1.7
	l1.3-3.4l0.1-1.8l0.2-1.1l0.7,1.4l2.2-0.3l1.1,0.5l1.6-1l-0.7,1.1l-1.5,1.5l-1.2-0.3l-0.5,0.3l-0.3,1.8l0.8,1.5l-0.2,1.7l1.1,0.1
	l2.1-0.3l1.5,0.3h-1.4l-0.7,1l-1.9,1.2l0.8,4.2l1,0.7l0.8,2.6l0.2,2.6l-1,2l0.1,1.6l1.4,0.8l-1.6,0.8l0.4,3l2.7,4.9l0.1,1.6l1,1.3
	l-1.2,0.3l0,1.9l2.6,3.4l-2,0.1l1.7,2.6v2.4l3.8,7.3l0.1,5l1.4,3.8l1.5,1l0.7,2.7l1.1,0.7l0.1,1.1l2.1,3.8l0.6,0.1v1l2.3,2.7
	l0.5,0.1l0.2,3.3l1,1.4l1,2l0.5,2.8l1.6,4l1,1.6l0.3,3.7l0.8,0.7l1.1,2.3l2.4,2.6l0.7,0.1l1.6,2.5l2.7,3l0.8,3l0.9,2.5l0.7,0.1v1.7
	l2,3.7l1,3.4l0.2,3.7l3.2,6.6l2.7,3.1l2.7,1.9l2.9,0.3l3.5-2.2l0.8-2.3l-0.4-0.7l0.4-0.4l0.1-1l1-1.6l3.1-1.3l0.6,0.1l3.8-1.3
	l1.4,0.5l0.4,0.8l0-0.7l-0.3-0.5l-2.9-1.5l-0.3-1.1l0.8-1l2.3-3l-0.4-0.7l1-1.8l2.4-0.3l0.9,0.4l1.7-0.7v-2l-0.7-7.4l-0.9-1.3v-3.4
	l2.3-4.1l2-5.9l-0.3-4.4l-2.2-0.7v-6.9l-0.3-2.4l1.4-1.6l-1.5-4.4l0-3.2l0.9-1.6l3-3h0.7l1,1.3l1.3,0.1l2.4-3.1V341l1.7-1.5l4,0.6
	l2.1-1.3l1.5-2.2l-0.3-2.1l0.3-1.9l2.5-2.1l3.4-1.1l1.8-1.8l1.2-2.3l8-6.4l1.6-4.3l6.1-5.4l-0.8-0.4l-0.5,0.6l-1.4,0.6l0.4-2.3
	l1-0.1l1.5-1.2h0.7l0.3,0.4l0,0.9l0.5,0.7l4.8-2.5l0.2-1.1l3.3-2.3l-0.3-1.1l1-0.1l0.5-1.6l2-1.7l-0.6-0.3l0.1-0.6l-1-1.9l-0.3-1.1
	l0.9-1.7l0.4-1.3l1-0.8l5.6-2l1.3-1.5l0.1-1.3l0.5-1.3l0.5-0.5l-0.7-0.8l-1-0.3l-0.1-0.5h1.5l1.3,1.2l-0.7,1l0.5,2.2l1.5,0.5
	l0.2-0.3h1.4l0.3-0.6l0.2,0.4l0.3-1l0.2-0.8l0.3,1l0.7,2l1,0.5v-1l1.4,1.5l1-1.6l-1-2l0.4-0.1l-0.3-2.8L77.3,280.8 M74.3,289.5
	l0.6-0.6l-0.6-1V289.5L74.3,289.5z M70.9,287.6l0.2,1.7l1,0.7l-0.3-1.6L70.9,287.6z M72.3,287.8l0.3,1l0.6,0.4l0.2-1.1l-0.1-0.9
	L72.3,287.8z M68.3,288.2l0.1,0.9l0.7-0.3l0.8-2.1l-0.6-0.9L68.3,288.2z M107.4,292.1l1.7-2.1l0.7,0.5l1-2.2v-2.1l-0.3-0.3l-0.4-0.7
	l-0.1-1l-0.4-0.6l-0.7-1.4l-0.7-2.4l-0.5-3.6l-0.7-1.3V273l-0.6-2.5l-0.8-1.3l-0.4-0.8l-1.5,0.1l-1.1-0.8l-0.8,0.7l0.6,0.8l-0.5,0.8
	l0,1l-0.9,1.3l0.6,0.4l-0.2,1.4l-0.9,0l-1.4-1.8l-1.4-1.3l-0.3-0.9l-0.9-0.8l-0.9-2.4v-1.1l0.7-0.6l0.3-1.2l1.7-1.2l0.7,0.7l1,0.2
	l0.7-0.9v-1.2l1.1-0.6l1.2-3l0.3-2.2l1-1.9l-0.9-0.4l-1.5-1.6l-1,0.3l-0.7-0.4l-1.5,0.1l-3,0.1l-2.7-0.3l-3.6,0.3h-2.3l-1.9-0.8
	l-1.7,0.1l-1.7-0.7l0.1-1.3l-0.7-2l-0.3-1.1l-0.4-2.1l-1.2-2.2l-0.9,0.2l-0.1,0.7l-1.7-0.6l-0.9-0.9l-1.3-1.1l-0.8-0.1l-0.4,1
	l1.3,0.8l-0.9,0.4l-1.9-0.3l-1.3-1.6l0-1l-1.2-1.4l-0.7-1l-0.5,1.3l-0.8,0.1l0.1,1.2l0.9,0.8l-0.8,2.3l-1.7,2l-0.3,2.1l4.2,1.5
	l1.6-0.7l2.3,0.2l-0.4,1.1l0.5,2.3l-1.2,0.9L71,252l-1.3,0.8l-0.8,2.4l-1.7,0.4l0,3.5l2,2.4l2.3,0.9l2.2,2.8v3l0.8,2.3l-0.3,1.6
	l0.4,2.8l2.6,3.7l0,2.4l0.6,1.5l0.3,2.8l0.9-0.3l0.7,1.7l0.4,0.8h1l0.4-1.3l0.8-0.3l1.2,0.8l0.1,0.3l0.9-0.5l0.1-1.6l-1-2.1l0.5,0
	l0.2-1.9l0.7-1.1l-0.4-0.9l0.7,0.8v0.6l-0.9,3l1.2,1.7l1.1-1.8l1.3-0.6l-0.4,0.8l-0.7,0.3l-0.8,1.6l1.4,1l1.4-2.7l1.7-0.7l0.2-2.4
	l-1.2-2l-1.1-0.5l1.8-0.7l0.3-1l-1.2-1.8l-0.3-3.1l0.7,2.7l1.6,1.5l1-0.1l0.3,0.6l3.2,1.5l1.7-1l0.6,0.3l-0.1-0.6h0.7l2.8,6.2
	l1.1,0.8l-0.1,1.2l-0.4,2l0.6,0.4l-0.5,2.7l0.3,0.5l1.1-1l0.3-0.7l-0.1,1.4l-0.5,1.1l0.7,1l1.6,2.3l1.3,3.2l0.3-0.1l-0.4-2.2
	l0.2-0.2l-0.1-0.6L107.4,292.1z M97.3,278.8l0.3,1.9l0.8-0.4l0.2-1.3l-0.6-0.6L97.3,278.8z M94,277.7v0.8l0.9,1.9l-0.2,1.5l0.8,1.2
	l1.2-2.3l-0.4-1.4L94,277.7z M92.2,277.3l-1.6,0.7l0.1,0.8l1.2,2.7l1.6,0.1l-0.2-2.7L92.2,277.3z M92.6,223.3l-2.3,0l-2.3,0.9
	l-1.7-0.8l-4.3-0.4l-0.9-1.5l-2.8,0.4l-4.4,2.6l-2,3.9l-1.7,0.8l-0.2,2l-0.7,1.5l1.7,2.8l3,0.7l1.2-0.8l4.4,2.5h2.4l1.8-2.2l2-0.3
	l1.9,0.8l3.2-0.9l2.4,0.1l3.6-1.2l-0.1-1.4v-2.5l-2.8-1.2l-0.3-1.8l0.6-2.2l-0.4,0L92.6,223.3z M59.2,226.2l-0.9-0.4l-2.3,1
	l-1.6-0.4l-1.8-2.4l-2.7-1l-0.5-2.1l-2.2-1.1l-3.4-0.4l-1.6,1.8l-1.9,0.6l-1.1,1l-2.5-1.2l-1.5,0.3l-1-2l0.5-3.7l-2.3-0.3l-2.8,0.8
	l-2.2-1.9l-0.3-2.4l-1.9-1.2h-1.9l-0.7-0.8l-1,1l-0.2,2.7l-0.9,0.4l-0.8-1.9l-1.6-1.9l-0.7-1.2l-1.9-1l-2-0.1l-2.6-2.8l-1.3-1
	l-2.1-0.1l-0.9-0.9l-3.3-1.2l-2.2,0.2L0.2,204l-1-0.4l-1.8,0l-0.7-1l-2.7-1.3l-0.4,0.5l0.3,3.1l-1.4,4.8v3l-2,3.1l0.5,2.2l1.9,0.2
	l1.6,1.3l1.6,0l1.5,1.1l3.2,0.9l4.1,2.7l2.7,3.3l3.5,0.8l1.7,1.2h2.4l3,2l4.5-0.4l1.6,1.4l4.7-1.3l4.3,1l0.5,2.3l2.3,2l4.8,1.3
	l1.7-0.9l3.1-0.1l7.8,2.8l1.9-1l3.4,1.8l5.5-1.2l0.7-4.1l-1.7-3.5l0.8-4.3l-0.6-1.9l-1.7-0.1L59.2,226.2z M255.1,318.6h1.9l1.2,1
	l1.3,0l1.6,1.1l1.1-0.6l0.4-1.6l1.4-0.3l1.5,0.4l1.1-1.4l0.1-1l1.7-0.3l1.3-1.3l-0.3-1.5l0.9-2.8l0.9-0.7l0.4-1.3l1.3-2.2l-0.8-2.3
	l-1.9-1.2l-1.9-0.7l-1.3,0.9l-1-0.7l-1.8,0.4l-0.9-0.3l-1.3,0.9h-1.7l-1.7,0.9l-1.6,0.3l-0.4,1.7l-2.7,1.6l-2.3,2.4l0.8,1.4l0,3.3
	l1,1.7l-0.1,1L255.1,318.6z M559.8,16.8l0.5,2.3l1-0.4l0.6-2.2l1.4-1.3l-0.3-2.7l1-0.9l0.1-1.1l1-0.8l1.1,0.5l1.4-1.3l1.5-3l2-2.4
	l2.3-0.2l1.6-1l-1.8,1.2l-0.7-2l-1.3,0.4l-2.2,2.5l1.2-1.7L569,2.7l-1.4,1l-1.1-0.4l-0.7-1.6L565.3,2l-0.7,1.7l0.6,1.1l-0.8,1.4
	l-1.2,2.1l-0.9,0l0.1,1.2l-0.6,2l-1.7,0.9l-0.2,1.2l1,1l-0.8,0.7L559.8,16.8z M560.6,29.9l0.9,0.3l1.8-1.2l0.3-1.5l-1.5,0.7
	L560.6,29.9z M552.8,24.9l0.9-0.4l2.5-2.4l0.4-2.2H556l-1.5,0.4l-1.1-0.4l-1-1l-0.6,0.7l-0.3,2.4l-0.5,2.1l-0.4,3l-1,2l0.4,1.3
	l1.8,2.1l0.1-2.9L552.8,24.9z M547.2,25.2v-1.7l-0.6-0.9l-0.5,0.6l-0.4,1.8l-1.7,2.2l-3.3,2.3l-2.6,0.3l-0.7-0.5l-1.6,0.3l-2-1.9
	l-2.5-0.3l-3-1.5l-1.8-1.9l-2-0.4l-0.8-1.5l-2.6-1.9l-4.7-4.6l-1.4-2.7l-2.8-0.6l-3.4-2.7L508.1,8h-2.3l0.2,0.9l-1,1.3h-1l-0.5,0.7
	l0.9,1.3l0.6,2.4l3.6,5.5l0.8,2.3l0.2,3.9l-0.3,1.4l1,3.1l0.8,2l-0.2,0.9l-0.9,0.1l-1.6,1.8l0.6,1.9l1.1,1.8l0.4,1l0.9,0.5l0.7,1.5
	l-0.7,0.7l-0.1,1.5l-1.1,0.9l-3.4-0.6l-3.2-1.8l-1.5,0.3l-0.7,1.6l0.6,0.7l0.8,0.1l2.1,1.6l0.2,0.9l-0.7,1l-0.9,2l-1.4,0.3l-0.3,0.9
	l-1.2,0.7l-0.7,1.7l0.5,2l-0.2,2.8l0.3,1.4l1.2,0l1.7,1.2l1.6,1.4l1.3,3.5l0.6,3.7l-0.6,0.4l0.8,1.7l1.7,1l2.4-2.8l0.7-1.7l-0.2-1.5
	l1-0.7l2.7,0.1l1.4,1.1l0.5-1.5l1.6-2.1l-0.8-1.2h-2.4l-2.2-0.6l-2.6-2.9l-2.2,0.6l-2.1-1.2l-0.7-1.7v-2l1.3-1.2l1.4-0.1l2.6,1.7
	l1,0.7l2.4-3.3l2.3-1.7l1.9,0.1l0.8,0.8l1.7,0.3l1.8-0.3l1.8,2l2.7,2.4l3.1,1.6l3.2,0.8l1,1.4l1.8,0.7l-0.1-1.6l0.3-1.7l-0.6-2.3
	l0.4-3.4l1-4.1l2.7-3.8l1.7-0.5l2,0.5h2.6l-0.1-1l1.4-1.1l0.7,0.6l1.4-0.1l0.7-1.1l0.3-1.6l1.8-0.7l1.3-1l0.1-2l1-0.6l0.7-1.5
	l-1.3,0.1l-1.5,1.4l-1,1.6h-1.6l0.2-1l-0.1-1.6l-1.7-2.1l-2.5-1.6l-0.7-1l0-2.8L547.2,25.2z M495.1,61.4l0.2,1.6l0.8,1l1.2-0.9
	l0.1-1.7l0.4-1.9l-1.1,0.4L495.1,61.4z M505.2,131l0.7-0.3l1.1-1.1l0.5-2.3l-0.3-1.1l-1.4-0.4l0.1-1.5l-0.3-1.4l-0.7,0.7l-0.9,3.4
	l0.2,1.3l1.3-0.7l0.4,0.3l-0.6,1.2L505.2,131z M483.2,178.6l-1.1,0.2l-0.7,1.1l0,1.7l0.9,2l1.1,0l0.3-1.3l-0.3-0.9l0.3-1.5
	L483.2,178.6z M474.6,192.9l2.9,1.8l0.8,1.4l1.3-0.6l1-3.6l2.3-2.2l0.2-1.3l-0.7-0.7l-0.4-1.4l-2.2-1.8l-1.6-0.1l-1.5-1.1l-2.7-0.1
	l-2.5,2.1v1.3l-1,1.5l-1.8,0.6l-1.6,1.1l-1-0.3l-1.2-2.7l-1,0.1l-2.7,3.1l-0.1,1.9l-1.8,1.3l-0.4,2.1l2.9,0.7l0.5,2l-0.6,0.6v1
	l1.6,2.4l2.5,0.3l-0.1,1.3l0.8,0.4l0.7-0.7l1.3,0.4l1-0.3l-0.1-1.3l-1.8-2l0.9-1.8l0.9-3l2.4-1.5l0.7-1.1L474.6,192.9z M477.9,180.5
	l-1.3-0.3l-1.6,1.6l1.6,0.4l1.3-0.7L477.9,180.5z M452.2,240.5l0.5-0.9l-0.3-1.4l-1.3-1.6l-1.3,0.3l-0.5,1.2l1.2,2L452.2,240.5z
	 M458.7,157.8l-0.3,1.1l0.5,0.3l0.7-0.4L458.7,157.8z M425.1,208.4l1.2-0.7l-1.4-0.3L425.1,208.4z M441.8,209.2l-0.7-0.4l-0.6,0.7
	l0.1,1.1l1-0.1L441.8,209.2z M426.9,206.8l2-3.9l-2.9,3.5L426.9,206.8z M462.3,157.2l-0.3-1.6l-1.2,0.1l-0.8,1.4l0.7,0.8l0.9,0.1
	L462.3,157.2z M427.7,295.9l1-0.4l0.1-1.8l2.5-1.6l0.1-1.8l1-1.3l-0.9-2.1l-1,2.1l-1.8,1l0.4,0.7l-0.3,1l-1.9,1.3L427.7,295.9z
	 M407.7,315.1l-2.4-1.1l-0.2,2.1l0.8,0.7l1.4,0.1L407.7,315.1z M442.8,190.8l-2.1,1.7l-0.6,1.2l-1.3,1l-1.9,2.1l-0.7,1.6l-1.7,0
	l-1.9,1h0.9l1,0.1l0.7,1.8l0.9,2.4l-0.7,0.7l-0.3-1.6l-0.9-1.2l-0.5,1.7l0.5,1.9l1.3,0.6l0.2,1.2l-0.7,1.3l1-0.6l0.7-1.4l1.6-0.5
	l1,0.3l-0.8,0.7l0.7,0.6l1.6-0.5l-0.2-1.9l-1.1-1l-1.9,0.5l0.1-0.8l0.5-0.9l-0.4-1.6l0.9-1.1l1.7,0.7l1.8,3l0.3,2.3l0.9,1l0.1,3.5
	l-1.5,3.3l-1.8,0.2l0.4,1.2l1.6,2.7l0.7,3.6l1.7,2l0,1.7l-0.9,1.1l1.3,1.6l1.6-0.2l1.4,0.8l0.7-0.8v-1.1l-1.5-2.3V221l0.9-1l1,0.9
	l-0.6,0.9l0,1l1.6,1.7l0.6,2.7l-0.5,1.7l0.3,1.4l1.9-1.2l2-2.8l-1.8-1.9l-0.1-1.1l1-0.4l1.5,0.4l0.9,0.7l0.5-2.1l-0.1-3.3l-0.6-1.6
	l0.1-5.8l-0.2-3.1l1.1-1.9l1.9-1.9l-0.4-1.6l-1-0.3l-0.1-1.9l-1.1-0.2l0.3-1.3l-3.4,0l-0.5-0.7l1.7-1l0.6-1.3l-0.5-2.7l-1.3-0.8
	l-1.7,0.3v0.7l-1.3,1l-1.4-0.2l-2.3-2.5l0.3-1.4l3.1-1.6l2.8-0.5l3,1.1l1.6,0.7l0.3-0.9l-0.1-1.4l0.2-2.1l-0.3-1.4l0.6-1.1l1.4-0.1
	l0.8,1.2l1.3,0.1l1.7-0.9l3.4-0.7l3.2-1l2.1-0.1l0.8,0.3l1.1-0.5l0.1-0.7l2.1-1.2l0.5-1.1l2.4-2l2.4-0.8l3.1,0.6l1.8-0.5l0.8,0.7
	v1.7l-1.5,2.2l-0.4,1.7l0.9,0.7l0.2,1.9l0.1,1.9l-0.3,0.8l0.5,1.9l2.1,0.9l2.9,2.7l1.9,0.6l1.3-0.7l2-3l0.2-2l1.1-0.7l0.3-1
	l-0.4-1.4l1.3-2.5l1.8-0.3h1.6l0.6-1l-0.5-0.7l-0.4-2.1l-3.7-1.6l-0.5-1l0.8-2.7l1.2-1l0.8-0.3l-0.4,0.9l0.2,2.2l0.7,0.6l0.9-0.7
	l0.4-0.6l1.4,0.3l1,0.7l1.1-0.3l0.7,0.2l-0.4,0.9l-1.8,0.5l-0.2,0.5l0.7,0.3l1.6-0.4l2.5-1.3l5.2,0.4l2.7-0.3l-0.7-0.7l-0.5-2.1
	l0.5-2.3l2.2-1.1l1.7,0.3l0.3,2.1l-0.6,1.9l0.8,1.5l1.6-0.1l1.6-2.1l-1.2-3.6l0.6-2.2l2.5-1.9l1.4-0.1l0.4-1l-1-1.2l0.5-2.4l1.3-0.8
	l1.9,0.4l0.4,1.1l-1,1.4l-0.5,2.8l0.6,5.8l1,0.4l1.3-0.9l0.9-1.9l1.7-0.1l1.9-2.1l0.7-2.7l-0.4-1.7l2.2-2.1l-0.3-1.3l-1.1-1
	l-2.4-3.3l-0.8-2.4l-0.7-5l0.7-5.8l0.1-3.9l-1.8-7.2l-2.5-3.4l-0.2-2.7l0.6-3.3l3.2-1.5h1.6l0.8,1.4l0.6-0.7l-0.5-2.4l-0.3-1.6
	l-0.7-0.8l-0.5-2l0.1-1l0-1.6l0.7-1.3l0-0.7l0.2-1.6l-0.6-0.9l-0.1-2.5l0.4-1.3l-0.8-1.5l-0.6-4l-1.9-3.3h-1l-1.1-0.6l-0.2-4.3
	l-1.9-1.8l-4.2-4.7l-1.1-2.1l-0.8-3.2l-0.2-3.1l0.1-1l-1.2,0.7l-0.9,0.1l-0.5-0.6l-1.8-0.8l-1-0.1l0.1,0.7l-1,2.5l0,1.7l0.9,0.9
	l1-0.4l2.3-2l1,2.6l-0.8,1.9l-1.2,0.8l-1.3-1h-0.5l0.6,2.4l-0.9,1l-1.4-0.6l-0.3-1.8l-0.3-2.1l-0.6-1l-1.3,0.4l-1.1-0.7l-0.4,1.7
	l0.7,3l0.1,2.1l-1.2,0.5l-1.2,1.8l0,1.2l2.6,2.6l0.9,1.6L512,94l-1.4,0.9l-1.6-0.3l-0.3,1.1l1.5,1.9l1.6-0.4l1.3-1.5l2,4.5l0.7,5
	l-0.4,2.7l0.2,4.9l-1.8,7.2l0.5,2.7l-0.8,3.1l-2.5,1.3l-1.1,3l0.1,3.4l-1.3,2l-0.3,2.1l-2.5,2.3l-4.9,3l-1.9,0.6l-1,2l-2.5-1.4
	l-2.4-3l0.1-1.3l1.1-0.5l1.1-1.9l-0.2-1.1l1.3-1.3l-0.1-0.5l-2.4,0.6l-1.7,1.7l-2.2,0.9l-0.4,2l1.4,2.4l0.3,4.8l-0.3,2.3l-2.4,2.4
	l0,1.3l-0.9,1l-0.3,3.6l0.9,1l0.1,1.5l-0.7,0.6l0.4,0.6l-0.5,1.3l-1,0.1l0.7,0.9l-1.6,0.7l-1.1-0.8l-1.5,1.1l-0.9-0.3l-0.4-2.2
	l-0.6-0.3l-1.3,1l-1.3,0l-0.6-0.4l-4.4,1.6l-2.4,0.9l-2.4,0.8l-2.7,0.2l-2.5,0.8l-0.9-0.6l-2.1,0.3l-3.8,2.7l-0.7,2.4l-1.4,1
	l-0.3,1.5l-2.8,3.2l-1.7,0.7l-1.5,2l-0.4,1.3l-1.5,1.6L444,183l-1,1.4l0.7,3.2l1,0.6l0.3,1.2l-0.6,1.1L442.8,190.8z M429.3,202.5
	l0.3-0.5l-0.7-0.1L429.3,202.5z M431.3,201l-1.3-0.9l-0.6,0l0.1,0.3l1.1,0.9L431.3,201z M455,234l-0.2-1.7l-1.1-1l0,1.4l0.4,3.3
	l0.5-0.6L455,234z M438.5,208.5l-0.4-0.1l-0.8,1l0.3,2l0.7,1.4l1,0l0.4-1.7l-1.1-2L438.5,208.5z M436.5,275.9l0.1,1.3l1.5,1.2
	l0.6-0.4l-0.3-1.7l-1.3-1.1L436.5,275.9z M444.9,266.3l-1.5,0.4l-0.6,0.4l-1.1,0.1l-0.3,0.6l-0.6,0.2l-1.8,0.8l-0.7,1.4l0.6,0.4
	l1.7,0.1l0.9,0.7l0.5-0.6l0.1-1.3l1.9-1.2L444.9,266.3z M422.7,210.3l0.7,2.2l1.3,0.2l1.2-1l-0.7-1.4l-1.2-0.7l-0.1-1.2l-1.1,0.5
	L422.7,210.3z M439.7,212.9l-0.8,0.9l0.7,0.6l0.7-1.2L439.7,212.9z M394.2,189.7h0.8l-0.1-1.7l-0.5-1.1l-0.7,1.2H393l-0.4,0.7
	l0.9,1.4L394.2,189.7z M401.8,203.5l1.3-2.4l-0.1-1.3l-2-0.3l-4.4,1.3l-1.2,1.5l0.7,1.6l2,0.4L401.8,203.5z M409,182.1l-1,0.7l0.5,1
	l1.5-0.7L409,182.1z M425.7,184.2l-1,0.6l-0.6,1.3l0,1.7l0.5,1.4l0.8-0.7l1-2.1l-0.3-1.4L425.7,184.2z M423.7,192.7l0.8-0.1l0.9-0.8
	l0.6-1.4l-1.6-0.1l-0.9,1.3L423.7,192.7z M439.9,424.1l-0.7,0.1l0.3,0.7l0.8-0.2L439.9,424.1z M385,426l-0.5-0.9l-0.3,0.7l-0.7,0.5
	l-0.5,1.1l1.3,0.2h1.3l0.1-1L385,426z M435.3,441l-0.7,0.1l-0.1,2.3l-0.5,0.9l-1.1-0.9l-2-0.9l-1,3.5l0.7,0.6l-0.3,1.4l-1.1,0.5
	l-0.9-2.1l-1.9,0.7l-1.1,3.1l-2.1,1l-1.7,0.4l-1.7,1.6l2-2.8l0-3l-2.4-2.1l-1.4,0.1l-1.1,1.6l-2.1,0.9l-0.9,1.6l0.7,1.5l-2.6,0.4
	l-1.7-0.6l-1.3,1.3l-1.8,0.4l-1.7,1.9l0.6,1.3l-0.6,2.6l-1.3,2.5l1.8,2.1l0.8-1.2l1.5-3.8l1.1-0.9l1-2.2l1-0.4l1.2,1.2l-0.5,1.9
	l0.5,0.5l0.8-0.4l0.9,0.6l0.2-1.7l0.7-0.5l0.9,0.3l-0.5,1.1l1-0.1l1.4,1.1l0.7,0.1l-0.9-1.4l0.6-0.8l-0.4-0.8l0.7-0.8l0.9,0l1.7,1.6
	l1.5,0.4l1.7,1.5l0.3,1.6l1.4,1.5l-1.6-0.7l-0.7,0.3l0.1,1l-0.9,1l0.8,1l0.1,1.4l-0.4,1.1l1.2,1.7l0.3,1.5l1.7,2l2,0.1l1.5,1.5
	l1.9,0.8l1.5-0.8l0.3-1l1-0.7l0.6,0.8l-0.7,1l0.5,1.7l0.5,0.7l1.3-0.9l2.6-3.1l0.2-1.9l-0.8-1.2l-0.9-2.4l-1.5-1.2l0.4-1.5l2.4-3.8
	l1.3-0.7l1.2,1.9l0.3,1.8l0.8,1.4l-0.1,1.7l0.7,2.8l0.6,1.3l0.1-1.3l0.3-2l-0.6-2.7l0.3-1.1l1-0.1l0.6,1.2V463l0.7,0.1l1-2.4l-0.2-3
	l-1-1.7l-1-1.6l0.1-2l-0.2-2.1l-0.7,1v-2.2l0.2-1.1l-0.7-0.1l-1-1.3l0.3-1l1.3,0.3l0.1-2.3l-1.3-2l0.1-1.4l-1.2,1l-1.7-1.8l-2.4-2.1
	l-0.3-1.5l-0.6,0.1l-1.4-0.4l-0.1,2l0.7,3.6l-0.1,1.4L435.3,441z M438.7,427l0.6,0.4l0.4-0.7l-1.1-0.7L438.7,427z M383.8,415.8
	l0.6-0.8l0.7-0.4l-0.6-1.4l-1.8-0.6l-0.2,1.1l0.5,2.1L383.8,415.8z M391.8,341.5l1.7-0.3l-1.2-1.2L391.8,341.5z M406.5,415.1
	l-1.7-1.8l-1.9,0.4l-0.4,1.1l1.9,0.7l0.9,0.3l-0.1,1.7l-0.4,1.7l0,3.1l-0.7,2.2l0.6,3.1l0.8-0.3l0.6-0.7l2-1.2l1.2,0.1l0.3-0.6l1,0
	l0.8-1.2l2.2-1.7l1-1.9l1-0.7l0.3-1.5l-0.8-1.3l-1.1,0.7l-1.2,1.4l-1-1.7l-1.3-0.4l-1.9,0.1l-1-0.1l0.3-0.7L406.5,415.1z
	 M410.5,409.4l0.2-0.9l-1.2-0.7l-0.8,0.6l0.2,1.1L410.5,409.4z M437.5,431.1l1,2.3l-0.3,1.1l0.3,0.9l0.7,0.2l0.5-2.1l-1.2-1.6l0-1.7
	l0.7-0.4l-0.4-1l-0.9,0.3L437.5,431.1z M415,412.5l0.3,1.1l1.6-2.3l1.3-0.1l1.9,2.6l2.2,1l1.4-0.1l0-1.1l-1-1.4l-2.7-1.9l-1.2-0.3
	l-1.5-1.5l-0.7,0l0.2-0.6l-1.3-0.4v2l0.3,1.5l-0.8,0.7L415,412.5z M405.2,406.3l-0.8,1.7l-1.2,1.5l0.9,2.4l1.1-0.3l0.8-2.3l-0.6-1.7
	l0.5-2.1L405.2,406.3z M420.5,409.5l0.8,0l-1.5-2l-1.2-0.5l0.5,1L420.5,409.5z M411.1,427.1l0.1-1.1l-0.7-0.4L409,426l-0.6,1.8l1,1
	L411.1,427.1z M399.2,401.5l-1.8-0.8l-3.7-3.5l-2.2,0.4l-2.1-0.9l-1.7,0.8l0.3,0.9l1.3,0l0.4,2.2l1.2,0.5l1.1,1.6l-0.1,2.8l1.4,0.9
	v1.7l1.7,2.2l1.5,0.3l1.7-1.3l0-1.4l0.9-0.6l0-1.6l-0.9-1.4l0.7-1.2L399.2,401.5z M423.5,421.4l-1,0.3l-0.7,3.3l-1.8,2.7l-0.3,2.1
	l-0.9,2.6l-1.4,1.7l-0.1,1.9l0.3,1.5l1.4-1.5l0.8-3.9l2.6-2.7l0.5-1.8l-0.2-1.7l0.7-1.1L423.5,421.4z M440.9,437.2l0.8,0.9l0.3-1.1
	l-0.9-0.8L440.9,437.2z M408.6,436.8l1.3,0.3l2,1.4l1.8,0.2v2.1l1.3,0.8l1.7-0.9l0.1-1.7l-1.1-2.3l-0.1-3.6l1.3-5.2l1.7-1.7l0.1-1.5
	l-1.3-1.1l-0.9,0.5l-1.2-0.7l-1.5,1l0,1.7l-1.1,1.6l0.3,2.4l-1,2.1L409,433l-0.8,1.1L408.6,436.8z M430.7,440.5l-1.6-1.4l-0.3,0.9
	l0.3,1.1l1.3,0.9L430.7,440.5z M418,440.9l1.1,0.9l1.5-0.6l0.2-1l-0.6-0.5l-1.7,0.1L418,440.9z M444,435.6l-0.6-1.8l-0.8-1.7l-0.4,2
	l-0.3,0.7l0.9,1.2L444,435.6z M362,448.5l-0.4-1.2l-0.6,0.6L362,448.5z M404.6,465.1l-1.6,0.1l0,0.9l1,1.7l1,0.3l2.4-2l0.2-0.7
	l-1-0.4l-1.1-0.7L404.6,465.1z M357.4,449.9l-0.1,1.2l1,1.7l0.9,0l0.1-2.3l0.3-0.7l-0.6-0.5L357.4,449.9z M360.6,447.8l0.1-0.7
	l-1,0.9L360.6,447.8z M397.3,350l-1.3-0.9l-1.5-1.8l-3.5-0.8l-2.7,0.8l-0.4,2l-2,3.6l0.5,2.3l0,3.7l-1.2,4.5l-0.9,2.1l1.3,3.1l0,1.2
	l-1.3,0.7l-1.6-0.3l-1.2-1.6l-0.3,2.2l0.4,2l1,0.1l0.3,0.7l-0.7,1.2l0.6,2.7l1.3,2.5l0,3.3l0.8,0.6l0.7-0.5l0.7,0.3v1.8l1.7,2.3
	l1.2,0.1l1.1-1.3l-1-1.1l0.1-1.1l2,0.3l1.5,1.2l-2,2.5l-1,1.2l0.2,1l-0.3,2.2l1.1,2.1l0.6-1.8l1-0.3l0.7,1.6l-0.9,1.5l1.4-0.3
	l1.3-1.1l2,2.2l1.7-1l-0.3-1.3l0.8-1.2l2.1-0.1l3.7,1.7l0.7,1.4l2,1.5l1.7,3.1l0.7-0.1l-0.5-3l-1.8-3.4l0.3-0.9l1,0.2l1,1.1l1.2,0.7
	l1.1,2.1l2.6,1.1l0.7,1.7l0,2l1.3,0.5l2,2.4l1.6-0.4l0-0.7l1.5,0.4l-0.2,0.9l-1.5,0.8l1.4,1.9l1.6,0.6l0.7-2.6l-0.2-1.1l0.8-0.8
	l-0.7-1h-1.5l-1.3-0.7l-1.8,0l0.1-1.3l-1.1-3.2l-0.3-1.6l0.9-0.6l0.9,0.6l1.3-0.2l-0.3-0.7l-1.7-1.3l-2.2-0.2l-1-1.8l-0.8,0.6
	l0.1,1.8l-1.3,0.7l-0.8-1l0.3-1.9l-1-2.2l-2.7-1.8l-1.8,0l-2.5,1.9l-0.4,1.4l-1.5,0.4l-2-0.8l-0.8-1.8l-1.4-1.2l0.1-2l0.7-1
	l-1.1-1.3l-0.9-2.4l-1-0.8l0.4-2.2l1-1.3l-0.1-2l0.7-1.6l2.9-2.6l1.1-0.6l-0.6,1.3l0.1,0.9l1.6-2.4l-0.5-2.2l1.2-2.6l1-4.3l-0.9-1.1
	l-0.5-2.3l-1-0.4l-1.6-2.9l0.5-3.6l1.1-1.2l0.2-1.3l-1.1-1.6l-0.9,0.3l-0.2,0.9l-1.3,1l-2.6-0.1L397.3,350z M421.8,434.7l0.9,1.3
	l-0.2,0.9l2.3,0l2.8-1.2l0.7-1.2l-0.1-2l-1-1h-1l-3.2,1.8L421.8,434.7z M432.2,426l-0.2-2.8l-1-2.3l-0.3-0.8l-1.9,0.6l-1.6-0.8H426
	l0.7,1.8l0,1.9l1.1,1.2l0.9-0.9l1,1l-0.2,2.4l0.8,1.7l0.2,2.7l1.4,1.1l0.3-2.5l1,1.4l1.6-0.4l0.2-1.4l-1.5-2.8L432.2,426z
	 M434.5,432l-0.4,1.6l1.2,1.5v-1.4L434.5,432z M425.9,427.4l0.1-1.8l-0.7,0.8L425.9,427.4z M363.5,441.2l-2.7,3.3l-0.5,0.9l0.2,0.7
	l1.8-1.3l1.2-0.2l1.2-1.2l2-0.7l2.1-3l2.1-0.7l1.5-1.2l0.2-0.9l1.3-1.5l0.1-2.8l1.1-1.2l2.8-0.1l0.7-1.8l1.3-1.3l1.4-0.2l0.8-1.5
	l-0.9-2.3l-1.3-1.7l0.2-1.7l-0.1-2.7l-0.8,0.3l-0.5,2.8l0.2,2.7l-1.3-0.9l1,1.8l-0.1,1.3l-1.6,1.7l-1.2-0.2l-1.7,1.9L374,431l-1.9,1
	l-2,3.8l-2.7,2.5l-1.4,0.1l-1.4,2.4L363.5,441.2z M425.4,418.1l1.3,0.9l1.4-0.1l0.4-1.7l-2.1,0.2L425.4,418.1z M413.4,401.6
	l-0.7,0.1l-0.1,1l2.3,2.7l0.5-0.9l-0.2-1L413.4,401.6z M426.3,408l-0.7-0.4l-0.1,1.2l1.3,3l2.3,1.9l2,2.5l0.9,0.6l-0.3,0.8l-0.9,1.1
	l-0.3,0.4l0.9-0.3l0.3,0.5l0.7,0.5l1.4,1l0.5,1.3l2.7,0.3l0.5,0.3l0.4-0.4l1,0.5l-0.8-1.1l-0.5-1.7l-0.9-1l0.2-2.6l-0.2-3.3l0.2-1
	l-0.7-0.6l-1.4-2.1l-0.9-1.7l-1.1-0.1l-0.6,0.3l-0.9-0.4l-1,0.2l-0.7,0.7l-1.8-0.1L426.3,408z M423.2,398.1l2.4-0.4l0.7-1.9
	l-0.8-1.9l-1.3-1.4l-0.9,0.7l0.3,2l-0.6,1.4l-0.7,0.5L423.2,398.1z M403.5,381.4l-2.2,1.2l0.8,2.5l-0.3,0.8l0.3,1.3l1.3-1.1l0.3-2.7
	l1-0.9L403.5,381.4z M402.9,391.1l1.3,0.8l-0.3-1.4l-1.3-0.9L402.9,391.1z M400.1,342.3l-1.2,1.3l1,0.9l0.8-1.3L400.1,342.3z
	 M402.6,396.6l-1,1.3l0.2,1.3l2.1,1.5l0.4-1l0.8-0.9l-0.9-1.6L402.6,396.6z M395.9,339.6l0.3-2l-1.4,1L395.9,339.6z M387.6,395.5
	l-1.6-1.8l-1.2,0l0.2,1.3l2.2,1L387.6,395.5z M394.2,344.8l1.5-0.7l-2.3-0.1L394.2,344.8z M382.5,409.5l0.6,1.4l0.8,1l2,0.2l1.2,0.6
	l0.8-0.9l-0.3-1l-1.8-0.4l-1-1.3l-1.4-0.3L382.5,409.5z M365.3,492.7l-1.9,0.4l1.3,0.4L365.3,492.7z M364,489.1l0.9,0.4l-0.5-1
	L364,489.1z M366.4,489v-0.6l-1.9-0.8l-0.1,0.3l0.5,0.9L366.4,489z M450.1,489.8l-0.3-1.7l-1.2-0.8l-0.9,0.6l0.6,2.2l0.1,1.7l1-0.3
	L450.1,489.8z M380.3,481.1l-0.4,1.1l0.7,1.7l0-1.5L380.3,481.1z M386,479.5l2.2-1.4l-0.1-1.4l-1.4,0.2l-3.1,2.4l0.5,0.6L386,479.5z
	 M435.9,495.2l0.3,2.3l1.6,1.5l0.8-0.9l-0.5-1.9l-1.8-2.2L435.9,495.2z M448.3,494.3l0.7,0l-0.5-1.7l-1-0.3L448.3,494.3z
	 M451.7,535.2v-1l-1-0.1l-0.6,1.8l1.1,0.5L451.7,535.2z M392.2,467.7l0.5-0.9l-0.4-0.9l-1.2,1.3L392.2,467.7z M394.6,470.7l-0.7,0.8
	l0.5,0.7l1.6,0.1l0.8-0.5l0.8,0.5l1.3-0.6v-0.8l-2-0.5L394.6,470.7z M388.1,586.3l-1.3-3l-0.4,0.9l-0.2,1.4l-0.7,1.1l0.7,1.3
	l0.3,1.4l0.7-1.9L388.1,586.3z M415.4,543.9l0.5,0.7l1.7-0.3l0.3-1.4l-1.3-1l-0.7,1.1l-1.4,0.3l0.6-1l-0.2-0.8l-2.5-0.3l-2.1,1.2
	l0,1.7l1.3,1l1.2-1l1.5,1.2L415.4,543.9z M413.2,548.5l0.4-1l-1.4,0.6L413.2,548.5z M402.6,532.6l-1.5,0.3l1.4,0.7L402.6,532.6z
	 M427.6,524.5l0.8-1.5l1.2-0.1l1-1.1l1.3-0.8l0.7-1.6l0.8-1.3l0.9-0.6l-0.8-1l-0.2-1l-2.6-0.7l-1.8,0.5l-0.4,1.8l-1.4,1l-0.2,0.9
	l-2,1.3l-1.4,0.1l-1,1.3l-2.2,0.5l-4.3-1l-3.7-0.4l-0.7,1l-0.9,0.1l-1.7-1.7l-1.4-0.2l-1.6,0l-1.7-0.4l-2.4-0.5l-1.3,0.7l-1.3-0.8
	l-1.7-1.8l-2.7-0.6h-1.7l0,2l-1.4,0.9l-0.8,1.7l-1.2,1l-2.4-0.9l-2.2,0.5l-0.9,1l0.2,0.7l-2.4,2.1l-0.1,2.7l0.4,1.5l-0.2,3l-0.5,1
	l0.8,2.2l0.2,1.7l-0.7-1l-0.5-1.4l-1.2,0.3l-1.2,1.4l-1.5,0.7l-0.4,1.8l0.2,2.1L377,543l0.3,3.8l-0.5,0.8l-0.3,1.5l-1.2,0.5v2.3
	l-2.2,1.6l-0.7,2.3l0.3,0.7l-0.8,1l1,3.2l1,1.5l0.7-0.3l1.4,0l1-0.7l0.9,0.5l0.5,2.3l1.4,4.3l-0.7,1l-0.6,2.3l-1.4,1.9l-0.3,4
	l0.2,3.1l1,0l1.2,0.8h1.9l0.9-1l1.7,0.5l1.5-0.2l1.1,0.9l0.3-1.4l-0.1-1.9l-1.2-0.9l-0.2-2.4l1-1.6l0.5-3l-0.3-2.8l-0.7-0.8l1.9-2.6
	l0.7-2.3l-0.4-2.8l-1.1-1.1l0-0.9l2-1.2l0.8-1.2l1.9-0.3l1.8,0.7l-0.2,0.9l0.8,1.5l0,1.8l-1.5,1.6l-0.4,1.6l0.9,1.9l1.3,0.2l1.1,1.4
	l2,1.3l0.3,1.7l-0.7-0.1l-0.6,3.3l0.6,1.9l1.3,0.5l1-0.3l2,0.9l1.5-0.2l-0.1-0.7l-0.5-1.3l1.6-1.4l1.6-0.3l2.2-1.2l2.7,0.3l1-1
	l0.7,0.4l1.3,0l0.8-1.3l-0.2-0.8l-2.4-0.3l-0.7,0.3l-0.8-0.3l-1.7,0.1l-0.1-1.3l-0.9-0.2l0.1-0.9l-0.8-0.2l-0.8,0.4l0-1l-1.6-0.5
	l-0.5-1.1l1.1-1l0.4-0.8l0.7,0.3l-0.5-1.1l0.8-0.1l0.4-0.9l-0.8-0.9l-1.3-0.4l0.6-0.8l-0.2-1l-1.5-1.1l-1-0.1l-0.4-1.7l-2.4-2.9
	l-1.5-1.1l-0.9-1.7l0.2-0.7l0.7,0.1l0.3,1l1.7,0.1l1.5-1.1l0.4-1.1l3.7-1.2l2.7-2l1.3-2.1l1.7-0.8l0.1-1.3l2-0.4l1.7,1l1.1,0.2
	l1.7-2.2l0-1.4l-1.9-0.8l-4.1,0.3l-1.8,1.2l-2.7-0.1l-1.3,0.3l-1.7,1.6l-1.7-0.2l-1.3,0.3l-1.7-1.1l-1.7-0.5l-1.8,2.3l-1.3,3
	l-1.8,0.9l-1.9-0.3l-0.4-0.9l-2.3-2.7l-2.3-2.1l-1.1-3.3l0.4-3.6l1.6-3.4l1.7-1.6l2.1-0.7l2.5,1.3l3,0.2l3.4-1.6l2.2,0.3l0.8,1.1
	l1.9,0l1.1-0.5l3.9,0.5l2-0.1l0.4-0.5l2.2,0.1l1.4,0.8l0.4,1l1.8,0.7l7-1.3L427.6,524.5z M414.8,547.1l1.3,0.3l-0.5-1L414.8,547.1z
	 M418.3,545.9l-0.3-1.3l-1.1,0.8L418.3,545.9z M454.4,535.2l-1.3,0.2l-0.6,0.5l0.1,1.1l1,1.6h1.6l1,1l0.9-0.8l-0.4-0.8l-1.3-0.6
	l0.1-1.3L454.4,535.2z M399.3,577l-0.1,1.1l-0.6,0.5l0.6,2l0.8,0.3l1.4-0.9l-0.4-1.9l-1-1.6L399.3,577z M399.8,533.4l0.7,1l1.3-0.3
	l-1.2-0.8H399.8z M464.5,511.9l1.3-1.3l-0.5-1.4l-1.2-0.8l-1.2,0.8l-1.4,0.4l0.5,2.9l1-0.9L464.5,511.9z M403.3,579.2l0.7,0.6
	l1.6-0.1l0.3-0.7l0.7-0.2l0.3-1.5l1.2-1.1l0-1l-0.8-1.6l-1.6,0.7l-1.3,1.2l0.5,1.1l-1.7,1.8L403.3,579.2z M289.7,539.4l1.2-0.3
	l1.8-1.8l-1.3-1l-2.3-0.2l0.1,1.1l-0.3,1.2L289.7,539.4z M288.8,529.9l-2.2-0.7l-0.3,0.2l0.3,0.9l1.6,0.6l1-0.5L288.8,529.9z
	 M350.2,560.5l-0.5-0.5l-0.3,0.7v2.3l0.5-0.1L350.2,560.5z M348.9,563.4v-3.2l-0.4-0.7l-0.9,0.5l-1,2.6l-0.3,2.6l0.7,0.9l1.4-1
	L348.9,563.4z M349.8,551.1l1.4,0.5l0.6-1.4l-0.2-1.3l-1,0.1l-0.6-0.4l1.1-0.7l0.3-1.6l-0.3-0.3l-2.2,0l0.7-1l-0.3-0.8l1.3,0.3
	l1.5-0.6l0.3-1.6l1.6-1.7l0.2-1.9l-0.4-1.2l0.9,0.5l0.7,1.7l1.7-1.6l1.2-1.6l-0.8-2.4l2.5-1.8l0.7-3.1l0.8-1.2l0.4-3.5l0.9-1l0-1.3
	l2-1.8l0.8,1.2l0.6-0.9l-0.5-2.5l2.9,3l2.1,0.3l1.4-1l1.2,0.5l1.1-0.4l0.5-1.6l-1.4-0.4l-0.5-1.1l-1.4-1.7l-1.3,0l-3.8-3.7l-1.3-0.8
	l-0.3-1.6l-0.8-0.7l0.3-1.1l2.4-0.4l1-1.7l-1.3-1.3l-2.9-3.3l-0.5-1.9l-1.5-1.3l0.7-1.3l0.8-0.2l-0.2-1l-0.7-0.5l-1.4-1.7l0.9-0.5
	l2,0.4l2-0.5l-1.7-2.2l-1.9-0.8l0.6-0.9l-0.1-0.9l0.9-0.2l0.1-0.5l-2-0.7l-2.6,0l-1-0.8l-4-0.2l-2.9,0.2l-1.5-0.7l-2,2.3l0.1,1.2
	l-1,1.6l0,1.4l-2.2,7l-2.9,4l-1.6,3.8l-3.8,5.3l0.2,1.4l-4.4,0.5l-3.8,1.9h-2.2l-0.7-1.1l-2.3-1.2h-4.4l-1.4,1.1l-5.1,1.9l-5-0.4
	l-1.3,0.6l-2.3-0.3l-0.3,1l-2.7,0.7l-1.3-0.2l-0.7-1.6l-2-2l-0.3-0.8l-2.9-2.2l-1.7-3.4l-1.4,0.4l-1,1.3l-2.3,2.8l-1.5,2.4l-0.1,1.3
	l0.4,1.3l-0.2,1.1l-1.3,0.7l0.1,3.5l2.6,3.5l0.8,1.4l-1-0.6l-0.6,0.5l1.1,2.2l1.8,0.6l1.2-0.2l2.9-0.3l2.5-1.4l1.7,0.6l-1.7-0.2
	l-2.2,1.6l-3.2,0.7l-1.5,1.2l-1.7,0.1l0,0.7l2.1,0.6l2.2,1.4l2.5,2.7l0.8,1.7l0.2,1.6l-1.3,1.8l-1,1.2l0.4,1.1l1.6,1.1l0.3,4.1
	l0,2.2l1,2.6l1,0l1.5-1.2l0.5,1.2l1.9,0.2l1.4,0.6l2.3-0.1l1.6-1.1l1.1,0.8l1.2-0.7l0.9-1.7l-0.1-1l0.5,1.2l-0.4,1.6l0.7,2.3
	l0.2,3.1l-0.3,1.5l1.3,0l2.2-2.5l1.1-0.3l0.9,0.9l1.3-0.1l0.4-0.9l2.3-0.3l1.4-1.5l1-0.1l1.6,1l1.1-0.6l1,0.9l0,1.4l0.7,1l1.7,0.5
	l-0.6-1.2l0.7-1.4l0.7,1.5l1.4,0.4l0.9-0.4l1,1.3l0.9-0.3l0.3,0.7l0.9,1.4l-0.3,1.4l0.4,2.5l1.8-0.2l3.8-1.7l2.7-0.3l3.2-2l2-3.4
	l0-1.3l0.6-2.3l0.4,0.7l1,0l1.5-2.9l-0.5-0.5l-0.8-0.8l0.1-0.7L349.8,551.1z M291.4,535.6l0-0.7l-0.7-0.3l-1-1l-2.3-0.5l-0.2,0.7
	l1.2,1.6h0.9L291.4,535.6z M471.1,532l2.4,1.4l-0.3-0.9l-3.4-1.9L471.1,532z M465.9,521.5l1.5-3.2l-0.1-1.3l-1-1.2l-2.9,1l-2.8,1.3
	l-0.3,1.3l0.9,0.1l-0.8,0.9l-1.6,0.7l-0.7,1.4l-1,0.2l-0.7-1.5l1.3-1.3l1.4,0l0.8-2.3l0.1-2.8l-1.6-0.7l-0.3-1l1.4-1.5l0.3-1.4
	l-1,0.2l-2.8,2.6l-0.7,2.6l0.1,2.3l-1.1,0.8l-0.7,2.3l0.9,1.2l1,1.9l-0.8,1.2l-0.4,1.8l1.7,1.5l-0.3,1.1l0.3,1l-0.8,1.9l1.1,2.1
	l1.9,1.3l1.3,3l1.6,0.7l0.3,1.5l0.2-1.1l0.7-0.3l-0.5-0.9l-2.3-2.2l-0.7-2.6l-1.4-3l0.1-3.4l1.3-0.4l2.1,0.7l2.4,0.1l1.2,1l1.8-0.1
	l-0.8-0.8l-0.3-1.3l-2.3-1.7l-1.2-0.2l-0.7-1.3l1.2-1.3L465.9,521.5z M434.4,548.5l2,0.6l4-0.8l2.2-0.5l-1.8-0.4l-3.4-0.6l-1.3,0.6
	l-1.4-0.6l-1,0.4l0.7,0.5L434.4,548.5z M438,550.1l0.3,1.5l0.7,2.2l0.7,0.3l0.1-0.9l-1.2-2.1l0-1.4L438,550.1z M431.7,548.1l1.4,0.2
	l0-1.6l-1.2-0.5l-1.2,0.8l-1.1-0.7l-1.8-0.5l-1.1,0.4l-0.9-0.3l-1.2,1.1l-0.2,0.9l0.6,1l1.7,0.4l2-1.1l1.3,0.3L431.7,548.1z
	 M180,508.3l-1.2-0.5l-0.9,1h-1.8l2,2.2l0.4,2l1.3,0.4l1.7,3.3l0.8-0.3l0.4-2.4l0.6-1.3l-2-1.7L180,508.3z M197.1,542.9l1,1.4l2,0.7
	l-2.1-3.2L197.1,542.9z M205.7,551.2l-1.9-1.5l-1.2,1.6l3.3,3.2l-0.3-1.8L205.7,551.2z M190.3,531.8l-2,1.4l0,1.4l2,0.8l2.3,3.7
	l2.3,0.8l0.1-3.4l-2.6-4L190.3,531.8z M177.6,501.4l-1.3,0.4l2.1,0.8L177.6,501.4z M191.7,522.2l0.2-1.2l-2.1-0.8l-1,1.3l2.1,0.1
	L191.7,522.2z M188.8,527.1l-1.4-0.7l-1,2l1,1.3l1.3-1.3L188.8,527.1z M201.2,547.8l0.2,2l1.4-1.2L201.2,547.8z M250,575.6l1.6,2.6
	l1,0.5l1.3-1.2l0-4.1l1.1-5l-0.9-3.4l1.7-3.6l-0.7-1.4l0.2-2.9l1.7-0.7l0.8-1.3l-0.2-1.7l-1.3-0.7l-1.6-1.4l-0.7-2.1l-1.1-0.6
	l-0.5-1.5l-1.7-0.8l-2.8,0.3l-1.8-0.3l-0.2-2.7l-1.3-1.8l-1.2,0.7l0.9-1.7l-0.7-2l-0.1-4.5l-2.2,0.8l-0.9-0.9l-3.6-0.2l-3-2.2
	l0.1-1.5l1.9-0.8l2.2-1.1l-1.3-0.8l-2,0.3l-1.1-0.5l-2,0.7l1.5-1.3l2.2-1.6l2.7-0.3l-0.5-1.9l-2.7-3.2l-1.6-0.3l-2.2,1.3L229,522
	l-2.3,0l1.3-0.2l0.9-0.8l0.9-0.2l0.9-1.2l-0.4-1.2l-2-1h-3.2l-2.2-2l0-1.2l-0.2-2.4l-3.7-3.9l-1.3-0.3l-1.2,0.3l-1.4-1.2l-0.3-3.4
	l-2.5-2.7l-3.4-2l-2.2-0.2l-0.5,0.8l-1-0.7l-0.4-2.4l-1.3,1.2l-0.9-1.3l0-2.7l-1.6-2.2l-2-0.4l-0.7-1.3l-5.1-3.7l-1.8-0.3l-2.1-2.5
	l-2.2-0.4l-0.6-1.4l-0.3-2.9l-1.8-1l-1-2.3l-0.8-0.3l-1.2-2.4l-2.1-0.9l-1.9,0l-1.3,0.4l-1-0.7L173,471l-2.7,0.7l-1.3-0.9l-4.1-3
	l-3.7-0.7l-1.3,0.6l-0.4,1l0.4,2.7l2.1,5l1.4,0.7l3.8,4.5l1.2,0l2.4,3.1l1.3,0.6l1.2-0.4l2.9,2.6l3,5.3l3.1,3.2l0.9,0l-0.1,2.3
	l0.8,0.7l0.3,2.3l1.1,1.1l1.9,0l2.4,3.2l1.2,0.8l1.1-0.1l0.3,1l-0.8,1.3l1.1,1.3l0.8,2.3l-0.1,0.6l1.7,4.9l0.8,2.7l2.4,0.8l2.7,1.9
	l0,1.6l2.1,4l2,1.7l0.3,4.5l3.2,6.4l-0.3,2.6l0.8,2.3l3.2,2.6l3.2,4.3l0.9,2.3l2.6,0.6l0.9,1.1l2.2,1.5l0.3,2.7l1.9,1.3l2.3,2.7
	l4,2.7l0.9,2l2.6,0.8l5.3,4.9l0.4,1.9l1.2,0.6l1.2,2.1l0.7-0.8l0-1.8l-0.5-1l0-1l1.7,0.4l3.4,3.4l0.7-0.6l0.1-2.3l0.8-1.2L250,575.6
	z M248.4,528.6l0.7-0.6l-2.7-2.7L245,525l-1,1.8l0.9,1.1l1.5-0.4L248.4,528.6z M245.5,530.7l-0.5-1.7l-1.6,0l-1,1.2l1.4,1.5
	L245.5,530.7z M217.4,504.3l-1.6,0.3l0.9,2.8l1.7-0.2l1.7-1.8l-1.6-1.9L217.4,504.3z M260.4,497.4l1-0.5l-0.9-1L260.4,497.4z
	 M223,509.2l-1,0l2.2,3.4l0.9,0.8l1.2-2l-1-1.4L223,509.2z M164.1,493.4l-0.7,0.7l-0.6,1.1l1.7,1.1l2.1-0.2l-1.2-1.7L164.1,493.4z
	 M229.1,516.6l2.1,1.1l0.7-0.6l-0.5-2.7l-2-1.8l-2.4-0.6l-1.4,2.3l0.3,1.7L229.1,516.6z M278.6,483.1l-1.6,0.9l-1,1.3l1.7,1.8l1,0
	l-0.4,1.4l1.3,0l0.8-2.6L278.6,483.1z M272.4,556.1l1.7-2.3l0.9,1.5l1.4,0.3l0.6-1.3l1.4-0.6l-0.8-1.8l-3-2.1l-3-0.7l-0.9,0.3
	l0.6,1.6l-0.1,0.9l-1.9,0.4l-0.7,0.9l1.4,0.1l0-0.6l1.2-0.6l-0.1,2.6L272.4,556.1z M265.4,553.2l-0.8-0.6l-0.3,1.6L265.4,553.2z
	 M257.6,494.9l-1.5-0.6l-1.1,0.3l-0.3,1.6l1,0.7L257.6,494.9z M260.4,548.5l-1.9-2.2l-0.6-4.2l-0.7-0.7l-0.2-1.6l-1.3-0.7l-1.1,0
	l0.1,1.6l0.6,1.2l-1.7-0.7l-1.1-1.3l-0.6,0.3l-0.1,1.5l-1.7,1.3l1.1,1.5l3.3,0.3l0.9,0.9v1.8l1,0.7l0.5,2.5l2,1.4l1.8-0.2l0.5,1.8
	l0.8,0.7l1-1.3l-0.6-1.9l1-2.2L260.4,548.5z M261.4,494.2l-0.6-1.3l-0.6,1.1L261.4,494.2z M260.6,490.5l0.1,1.6l1-1L260.6,490.5z
	 M412,578.3l-1.4-0.4l-0.3-1.4l0.6-0.7l1.1-0.8l0.3-0.8l0.4,0.7l0.1-0.9l-0.5-1.2v-1.2l-1.3-0.3l-0.8,0.7L410,575l-0.9,2.8l-1.7,2.6
	l-0.3,1.3l1.2,0.7l1.2-0.6l1.1-1.7l1.1-0.3l0.7-0.7L412,578.3z M363.5,496.5l0.6,0.2l0.1-1.6l-0.9-0.5L363.5,496.5z M451.6,537.9
	l-0.6-0.4l-0.7,1.2l1.9,0.6L451.6,537.9z M455.1,547.8l1.2-0.2l1.5,0l1.1,0l0.6-1l-2.2-2.3l-2.2-0.2l-2.6,1.8l1,1.1L455.1,547.8z
	 M311.6,502.3l-0.5-2.1l-1.2,0.3l-0.1,0l-0.5,0.1l0,0.9l1.3,1.3L311.6,502.3z M359.6,459.3l2-0.5l0.1-1.3l-0.8-0.3l-1.7,1.5
	L359.6,459.3z M357.2,458.3l1.2-0.7l0.1-0.7l-2.4,1.3H357.2z M308.4,502l0.3-0.1l0.1-1.4l0-0.1l-0.7,1.2L308.4,502z M296.3,512.7
	l0.3,0.8l2,2l0.7,1.6l1.3,0.2l2.7-0.7l0.3-1l2.3,0.3l1.3-0.6l5,0.4l5.1-1.9l1.4-1.1h4.4l2.3,1.2l0.7,1.1h2.2l3.8-1.9l4.4-0.5
	l-0.2-1.4l3.8-5.3l1.6-3.8l2.9-4l2.2-7l0-1.4l1-1.6l-0.1-1.2l2-2.3l1.5,0.7l2.9-0.2l4,0.2l1,0.8l2.6,0l2,0.7l0.2-0.8l2.1,1.5
	l1.5,0.4l2-0.9l2.4-0.4l0-1l-2.4-2.1l0.1-2.3l1.1-0.7l3.7,0.4l3-0.6l2-1.4l-0.3-1.5l-1.4,0l-2.1-0.5l-1.5-1.5l-1.6,0.1l-2.2-2.3
	l-1.3,0l-1.5,1.3l-0.8-0.8l2-1.7l-1-1.2l-0.8,0.3l-1.3,1.7l-0.7-1l-0.7-0.3l0.1-2.7l1.6-0.5l0-1.2l-2.1-1.5l-0.8,0.5l-1.7-1.7v-2.5
	l-1.8-1.3l-0.9,0.5l0.5,1.7l-2,1.8l-0.8-0.1l0.7-1.7l-0.3-1.5l-1.2-0.1l-1.4,4l-1.3,0.3l-2,4.3l-0.4,2.3l-3.4,3.4l-1.6,0l-2.7,0.9
	l-1,1.2l1,0l-0.7,1l0.8,0.3l2.1-0.5l-0.9,1.3l-1.5,0.7l-0.3,0.3l0.1,0.7l1,3.2l-0.8,1.5l-1.2-0.7l-0.1-2.3l-0.3-1.7l-0.3,0l0-0.4
	l-0.8,0.1l-1,1.4l0.5,4.1l-1,0.4l-1.7-1.4l-1.5-2.7l-1-0.1l-1.3-0.7l-1.3,1.5l-0.1,2.1l-2.4,2l-0.9,1.8l-2.7,2.3l-0.7,1.6l-2.4,2.7
	l-2.5,2l-7.5,1.5l-0.8,0.3l0.4,2.4l0.8,1l-1.1-0.5l-1.3,0.6l-2.2,0.2l-1,1.2l-0.7,1.9l-0.1,2.7l-1.7,2.1l0,0.7l-3.6-0.6l-3.7-1.5
	h-2.7l-1-1.5l-1.5-1.8l-0.7,0.2l1.7,3.4L296.3,512.7z M308.6,502.6l0.3,0.8l1-0.4l-1-0.8L308.6,502.6z M307.1,504l1.5-0.6l-0.4-0.9
	L307.1,504z M335.1,482.8l1.5,2.7l1.7,1.4l1-0.4l-0.5-4.1l1-1.4l0.8-0.1l0-0.7l-0.1-1.8l-1.8,0.6l-2.2,1.6l-3.4,0.9l-0.4,0.5
	l1.3,0.7L335.1,482.8z M341.3,485.2l1.2,0.7l0.8-1.5l-1-3.2l-0.1-0.7l-0.5,0.6l-0.8,0.2l0.3,1.7L341.3,485.2z"/>
<path id="japan" class="st2" d="M552.9,36.1l-3.8-13.3l-0.6-2.7l-10.9,7.2L507.2,5.2l0.2,0.9l-2.6,2l7.6,22.5l-2.7,2.8l3,9.1
	l-9.4-1.1l-0.7,1.6l3.7,3.4l-4.8,8.8l6.6,14.3l-0.7,0.4l2.6,2.8l3-6.1l5.3,0.5l2.1-3.6l-12.5-5.4l-0.7-3.7l2.8-1.3l3.7,2.3l4.8-5.1
	l20.2,10.2l3.9-17.3h6.4l-0.1-1L552.9,36.1z M478.8,152.8L478.8,152.8l3.4,3l4.4-7.1l-8.4-4.8l-6.3,6l-2-2.8l-5.5,7.7l2.7,0.7l0,3.3
	l3.8,2.5l-0.1,1.2l0.7,0.3l0.6-0.7l2,0.1l-1.8-3 M523.3,71.1l-5.5-0.7l0.1,5.9l3.3-2.5l0.3,4.5l-1.3,0.8l-1.8-1l0.6,2.5l-0.9,1
	l-1.5-0.6l-1.3-5l-2.4-0.2l0.5,17.5l-3,0.6l-0.3,1.1l1.5,1.9l3-1.9l-15.2,50.8l-4.9-5.8l3.2-5.4l-6.4,3.2l-2.3,16.8l-1,0.1l0.7,1
	l-1.6,0.7l-1.1-0.8l-1.5,1.1l-0.9-0.3l-0.4-2.3l-39.8,31.6l1.4,6.2l-1.7,0.1l-10.5,8.9l1.9,0.1l1.6,4.3l-0.7,0.7l-0.3,3.8l4.4-2.1
	l-0.8,0.8l0.7,0.6l1.1-0.3l1.7,7l-1.8,0.2l7.9,14.8l0.1-8.7l2.4,10.4l4-4l-2-3l3.4,0.7l2.4-21.7l-1-0.3l-0.1-2l-1.1-0.2l0.4-1.3
	l-3.4,0l-0.5-0.7l2.2-2.3l-1.9-3.6l-1.7,0.3v0.7l-2.9,0.8l-2.3-2.5l11.1-1.8l0.7-7l1.4-0.1l0.8,1.3l19.4-7.3l11.8,16.9L500,183
	l3.4-0.3l-0.3-4l-4.2-2.7l2.8-4.1l-0.2,3.1l0.7,0.6l1.4-1.3l4.3,0.9l-2.5,1.9l12.8-1.3l-1.3-2.8l2.8-3.6l1.7,0.3l0.6,5.6l3.2-2.3
	l-0.6-5.9l4.4-3l-0.4-3.7l3.2-0.4l0.6-40l4.8-1.5l0.8,1.4L523.3,71.1z M477.1,183.9l-13.5,3.9l-2.6,7.8l6.1,10l2.6-10h7l8.7-6.5
	L477.1,183.9z M452.2,238.2l-0.4,4.3l-3.9-3.5L452.2,238.2z M445.3,267.7l-3,3.5l-3.9-1.7l6.5-4.3L445.3,267.7z M455.3,230.4
	l1.7,4.8h-3L455.3,230.4z M427.9,202.6l-2.6,1.7v3.5L427.9,202.6z M425.7,212.1l-2.6-3.9l-1.3,2.2l2.6,4.3L425.7,212.1z
	 M423.1,192.6l2.6-2.2l0.4,1.3l-3,3V192.6z M424.8,184.3l1.7,3.5l-3,1.3L424.8,184.3z M401.7,198.6l-0.4,0.4l0.9,3.9h-7v-2.2
	L401.7,198.6z M435.3,276l3.5,2.2v-3.5L435.3,276z M430.9,286.9l-4.4,7l2.6,1.3l4.4-6.1L430.9,286.9z M440.5,207.8l-2.2,5.6
	l-2.2-4.8L440.5,207.8z M550.7,27.4l3.5-9.1h6.5l-3,4.3L550.7,27.4z M569.8,5.7l-3.9,5.6l-3.5,0.9l-1.3,7l-1.7-4.3l1.7-5.2l4.8-5.6
	L569.8,5.7z M554.6,35.7l2.6,2.6l-6.5,3.5l-1.3,3l-5.2,0.9l-2.2-0.9l0.4-1.7l5.2,0.4L554.6,35.7z"/>
<path id="south-east-asia" class="st3" d="M423.5,399.6l2.4-0.4l-1.4-5.1l-1.9,4.6L423.5,399.6L423.5,399.6z M403.8,383.1l-2.2,1.2
	l0.9,4.5l2.5-4.8L403.8,383.1L403.8,383.1L403.8,383.1z M387.9,397.1l-2.9-1.9l0.2,1.3l2.2,1L387.9,397.1L387.9,397.1L387.9,397.1z
	 M436.7,436.7l0.5,7l-1.3-1.6l-0.7,0.1l-0.6,3.2l-3-1.7l-1,3.5l0.7,0.6l-0.3,1.4l-1.1,0.5l-0.9-2l-8.5,6.7l1.9-5.8l-3.8-2l-4.1,4
	l0.7,1.5l-7.4,1.6l-3.1,8.3l1.8,2.1l5.4-8.4l1.2,1.2l-0.4,1.9l0.5,0.5l0.8-0.4l0.9,0.6l0.9-2.2l0.9,0.3l-0.5,1.1l3.1,1.1l-0.9-1.4
	l0.6-0.8l-0.4-0.8l1.6-0.7l6.6,6.4l-2.3-0.3l8.4,13.2l2.7-2.4l1,4.3l3.9-4l-3.1-6.6l4-6l3.7,10.7l0.1-7l1-0.1l0.6,1.2v-1.1l0.7,0.1
	l-1.3-12.7l-0.7,1l0.2-3.3l-1.7-1.4l0.3-1l1.3,0.2l-1.1-5.6l-1.2,1L436.7,436.7z M384.2,417.3l1.3-1.3l-2.4-1.9l0.2,3.1L384.2,417.3
	z M406.9,416.5l-1.7-1.8l-1.9,0.4l-0.4,1.1l2.7,1L405,429l8.1-9l-5.2-2.2l0.3-0.7L406.9,416.5z M437.9,432.3l1,4.2l0.7,0.2l-0.7-5.3
	l0.7-0.4l-0.4-1l-0.9,0.3L437.9,432.3z M415.9,408.8l-0.6,5.2l0.3,1l1.6-2.3l6.9,3.3l-7.2-6.1l0.2-0.6L415.9,408.8z M404.5,413.4
	l1.1-0.3l0.7-5.9l-0.7,0.6L404.5,413.4z M395.6,412l3.2-1l0-1.4l0.9-0.6l-0.1-5.8l-11.5-3.8l0.4,0.9l1.3,0L395.6,412z M442.5,438.1
	l-0.9-0.8l-0.3,1l0.8,0.9L442.5,438.1z M414.2,439.9v2.1l1.3,0.7l1.7-0.9l1.9-15.8l-1.3-1.1l-0.9,0.5l-1.2-0.6l-6.7,13.3
	L414.2,439.9z M430.9,443.2l0.3-1.6l-1.6-1.3l0,2L430.9,443.2z M419.6,443l1.5-0.6l0.2-1l-2.3-0.3l-0.6,1L419.6,443z M444.4,436.8
	l-1.4-3.4l0.1,3.9L444.4,436.8z M382.9,375l2.3,10.9l0.7-0.5l2.4,4.4l1.2,0.1l1.1-1.3l-0.9-2.2l3.5,1.5l-3.2,6.8l1.1,2l0.6-1.8
	l1-0.3l0.7,1.6l-0.9,1.6l2.7-1.3l2,2.2l2.2-3.4l10.9,7.3l-2-7.3l10.8,11.7l1.6-0.4l0-0.7l1.5,0.4l-1.6,1.7l3,2.4l1.4-4.5l-5.4-1.7
	l-1.3-6l3.1-0.2l-5.3-3.8l-0.8,0.6l0.1,1.8l-1.3,0.7l-4.2-6.8l-4.7,3.3l-7.9-10.8l6-10.4l-0.6-23.5l-5.4,3l-8.9-2.6l-2.7,22.4
	l-2.9,0.3l-1.2-1.5l0.1,4.2L382.9,375z M422.9,438l5.1-1.2l0.6-3.1l-2-1l-4.3,3.2L422.9,438z M431.2,421.4l-4.7-0.2l1.7,4.7l0.9-0.9
	l3.3,8.7l0.2-2.5l1,1.4l1.6-0.4l-2.5-5L431.2,421.4z M435.8,436.3l-0.8-3l-0.4,1.6L435.8,436.3z M381.9,429.4l-1.3-9.7l-0.8,0.3
	l-0.3,5.4l-1.3-0.9l1,3.1l-1.6,1.7l-1.2-0.2l-12.3,13.3l-3.2,4.2l0.2,0.7L381.9,429.4z M428.6,420.3l0.4-1.7l-3.1,0.9L428.6,420.3z
	 M413.8,403.1l-0.7,0.1l2.2,3.7L413.8,403.1z M430.9,420.5l7,3.4l0.4-0.4l1,0.4l-5.2-14.9l-7.4,0.4l-0.7-0.4l6.4,9.1L430.9,420.5z
	 M402.2,400.8l2.1,1.5l1.2-1.9l-2.5-2.2L402.2,400.8z M382.9,411l4.5,3.1l0.8-0.9l-4.7-2.9L382.9,411z M435,518l-1-2l-39.8,1.4
	l-8.1,16.3l5.5-8.7l10.9,0.2l0.8,1l25.1-1.2L435,518z M385.8,534.1l0.2-0.5L385.8,534.1L385.8,534.1z M350.9,549.2l1.4-2.3l-2.6-0.3
	l0.7-1l-0.3-0.8l2.9-0.3l1.7-6.5l1.6,2.2l9.3-19.3l0.8,1.1l0-3.3l8.7,2.4l0.5-1.6l-11-10.1l3.7-3.2l-6.3-7.7l1.5-1.5l-2.4-3.2l5-0.6
	l-2.8-2.3l8.9-3.2l-2.3-5.5l9.8-2.3l-0.3-1.4l-10.1-4.1l-1.5,1.3l-0.8-0.8l2-1.7l-1-1.2l-2.1,1.9l-1.3-4l1.6-0.5l0-1.2l-2.1-1.5
	l-0.8,0.5l-3.4-5.3l-0.9,0.5l0.5,1.7l-2,1.8l-0.8-0.1l0.3-3.1l-1.2-0.1l-13.7,16.3l1,0l-0.7,1l3-0.2l-2.3,7.7l-1.2-0.7l-0.4-3.9
	l-0.3,0l0-0.4l-1.8,1.5l0.5,4l-1,0.4l-5.6-4.9l-21.2,17.9l1.3,3.3l-5.6,1.6l-2.4,7.3l-13.1-5.1l-7.4,11.3l3.6,8.3l-1-0.6l-0.6,0.5
	l11.1,1.3l-10.3,3.4l8.9,22.5l2.5-1.1l0.5,1.2l8.3,0.3l1.9-3.4l0.7,9.6l14.6-4.3l3.3,3.8l0.1-2.7l2.2,1.9l0.9-0.4l1,1.3l0.9-0.4
	l1.3,5.9l14-11.2l0.4,0.7l1,0l1.5-2.9l-1.3-1.3l0.1-0.7l0.3,0.3l1.4,0.5l0.4-2.7L350.9,549.2z M253.7,579.4l4.9-23.3l-13.1-13.3
	l-1.2,0.7l0.1-8.2l-9.7-2.4l0.1-1.5l4-1.9l-6.4-0.3l6.4-3.1l-3.2-5l-8,2.3l4-2.4l-3.7-3.3l2,0.3l2.1,1.1l0.7-0.6l-4.8-4.9l-1,3.3
	l-8.4-7.7l-1.2,0.3l-9.9-9.4l-0.5,0.8l-1.5-3.2l-1.3,1.2l-6-9.5l-18.7-15.6l-17.9-5l-1.7,1.6l82.6,110.5l0.3-4.4l5.1,3.7l1.7-4.1
	l1.5,0.4L253.7,579.4z M195.4,464.7L195.4,464.7L195.4,464.7L195.4,464.7z M265.2,370.2l0.8-0.4l2.5-4.4L254.8,338l-29.9-24.3
	l1.6-0.4l0.2-1l-2-1.6l2-4.5l-1.4-1l2.3-5.1l0.5,0.6l4-10l1.3,1l15.4-8l-0.3-0.7l-2.7-0.5l-15.2-5.3l1-3.3l1.3-0.2l0.3-1.7l-19.8-3
	l0.1,2.8l-9.8,2.9l-0.4-1.3l-1.1,0l-1,1.3l-1.9-1.8l-1.7,2.7l-2.1-0.6l0.1-1.3l-5.4,2.6l-3-2l-3.2,1.5l0.6,3l1.5,9.3l-4.1,0.3
	l-2-2.3l-5.7,5.1l0.9,1.2l-2.9,1.5v4.4l-1.1-2.1l-0.1,0.2l-4.9,0.8l1,2.3l-4.3,1.7l-0.7,3.2l-7.8,0.3l-1.7,10.3l-4.2,2.2l14.1,19.6
	l-1.3,0.7l0.3,2l-0.7,0.6l0.8,5.9l0.8,1.1l6.8,52.3l1.5,0.2l-1.7,2.1l0.6,0.9l-1.9,2.3l1.5,0.3l-1,1.7l-1.3-0.3l0.1,4.3l-1.7,0.7
	l1.7,9.6l1.7,0.2l-0.1-2.1l2.4-1l-0.1,1.1l1.4,0.9v1.7l2.4,0.3l1.5,4h1.9l2.9,4.9l2.5,0.3l0.9,1.9l1.3,0.2l-1.2,2.3l6.8,5.9
	l-1.7,5.1c0,0,4.7,9.1,14.8,20c14.3,15.5,35.4,34.4,35.4,34.4l0.8-0.8l0.9,1.2l2.6-1.4v-0.5l-1.2-0.2l0.8-0.3l-0.6-2.1l1.8,3l2,0.3
	l-28.6-56.6l-2.8,1.2v0l-19.7-15.5l-0.4,1.7l-3.7-1.2l2.4-2.8l-3-9.2l-1.4,0l-7.6-10.6l-3,2.5l-1.7-12.3l-1.7-0.7l8.9-24.9l0,0
	l7.5,0.9l0.2-0.3l-0.2-0.4l1.1-0.9l5,3.3l0,0.8l3,2l0.3-0.1l5.7,6.2l1.5,5.1h2.6l2-3l0.2,6.4l2.7-1.8l2.9,1.3l0.6-0.3l1.7,1.2
	l2.8-1.7l-2.6,4l8.4,0l-5,9l0.6,0.1l-0.4,3l2.3,0.3l10.6-6.3l-0.8-2.3l2.6,1.1l1-1.9l-1.7-1.7l2,1.4l1.4-0.7l-0.7-1.4l0.6-0.8
	l-2.6-1.1l2-0.1l0-0.7l-1.1-0.8l1.6,0.4l0.7-1.5l0.2,2.5l21.4-13.2l-0.6-0.7l0.7-1.6l-1.3-1.9l2.7-3.6L265.2,370.2z M184.2,369.9
	l0.9-4.9l-0.3,5.3L184.2,369.9z M228.3,349.3V349l0.1,0.1L228.3,349.3z"/>
<path id="korea" class="st3" d="M404.3,135.7l1.3-1l-0.5-7.4l-1.3,0.7l-17.3-34l-13.3-11L387.1,41l1.2,0.2l3.1-3.5l0.4,0l-2.1-3
	l-5.6-5l-12.5,16.6l4.2,3.6l-1.1,4l-14.8-5l-14.8,28.1l1.7,2.7l0.9,3.4l1.5-2.4l3,2.4l5.4-1.9L354.8,94l6.1-0.1l-6.4,10.6h4.6
	l-1.7,2.8l0.8,1.3l2-1.6l1.2,0.8l1.7-2.3l-0.5-1l1.1-0.7l2.1,2.3l0.3,0.3l4.5-1.1L369,106l7.5,7.1l-0.7,1l2.2,3.7l-3.8-2l-0.7,1.7
	l-1.4-0.3l-2,2.8l5.3,1.6l2.1,6.9l0.7-0.7l1.7,3.3l-3.1,2.1l1.3,3.8l-1.1,0.7l1,3.7l-1.2,0l2.4,4.5l1.3,0.1l1.1,4.5l1.5-3.5l0.9,1.2
	l7.4-6.1l0.3,1l1.3-1.6l1,0.1l1,1.9l1.8-0.7l0.7,0.9l0.9-0.7l-0.7-1.4l7.1-4.8L404.3,135.7z"/>
<path id="taiwan" class="st4" d="M362.9,271l-2.2,25l-0.6,0.2l8.9,15.2h3.9l5.4-21.8L377,289l3.5-25.4l1-0.2l-8.1-8L362.9,271
	L362.9,271L362.9,271z"/>
<path id="china" class="st5" d="M352.3,71.1l10.4-21l13.8,4.6l1-3.7l-3.9-3.3l11.6-15.3l5.6,5.3L390,34l3.9-1.2l-0.1-32.2l10.8,1.3
	L404-8.7l1.5-1.1l-0.7-4l0.9-0.7l-1.3-5.6l1-0.6l-2.8-20l0.9-0.8l-7.9-3l-17,13.7l-1.3-2.3l-3.8,1.2l-4.5-11.9l-1.5,0.1l0.7-4.5
	L352-55.6l-0.3,1l-1.8,0.1l-0.3,0.7l-5.1-2.6l0.7-1.2l-22.6-21.2l-0.9,0.4l-6.9-13.4l-2.3-0.1l-3-6.7l-2.4-0.3l-0.2-2.5l-9.8-4.3
	l-0.8,0.5l0.1,1.1l-32.4,2.3l-5.8,10.9l5.2-1.3l-0.7,34.3l1.5,0.7l0.7-0.5l1,2.3l-17.9,8.1l-0.3-0.6l-2.3,0.1l-3,25.3l17.7,5.2
	l5.4-8.5l16,16.8l-60.4,29.2l-1.3,9l7.6,4.9l-56.4,32.8l-0.3-2.3L24.2-3.2l-4.4,2.7L9.4-12.3l-1,0.8L7.1-16l-3.7-0.7l0.2,0.3
	L-1.8-10l0.5,1L-7-2.9l3.3,10.8l-22.2,3.3l-3,19.1l3.1,1.7l-1,3.2l-20,4.2l0,1.2l6.1,1.3l2.7,27.7l-58.1-5.3l0.8,6.3l-21,0.4l0.7,1
	l-2.8,2l1.5,0.2l-4,8.5l8.8,4.3l1.8-4.2l6,5.5l-9.9,3.3l-2.6-3.3l-9.2,5.3l-0.1,2.1l2.7,1.3l-0.1,1.8l-6.8,2.2l1.3,2.1l-3.5,1.2
	l-0.3,2l-7.4,1.3l2.4,6.1l4-0.9c0,0-8.1,6.4-7.7,12c0.1,1.3,7,3.3,7,4.8c-0.1,2.1,0,3.8,0,3.8l0.8,0.1c0,0-0.4,0,0.6,0.9l1.1,1.1
	l7.9-4.3l5,2.2l-0.8-3.5l3.5-1.5l0.3,1l5.8-11l5.3,1.9l0.1,5.2l1.5-0.1l2.3,12.3l18.4-10l0.4,1.9l8.3-1.8l0.4,1.5l-2.7,2.3
	l49.6,49.4l-0.3-1.2l-1.5-0.5l-2.6,2.7l8.5,16.8l1-1.7l11.1,7.5l0.5-0.7l26.6,12.9l2.1-4l11.9,5.9l0.5,5.7l31.7,2.1l2.9,5.4
	l22.5-5.9l1.5,2l24.3-16.3l7.3,2.8l1-0.9l-0.3-1.6l5.3-1.8l1,1.3l1.2-0.3l0.4,0.8l-1.3,2.5l0.7,1.4l2.2-0.7l0.7,7.3l13,1.5l7.3,23.3
	l-1.7,0.8l-0.2,1.7l-0.8,0.3l-0.4,4l-1.2-0.4l2,14l6.1-2.4l-0.2,2.5l1.1,0.9l2.3-0.6l-0.1,3.1l3.4,1.9l-0.4,0.8l0.7,1.1l0.3-0.7
	l4.3,0.8l-4.1,10l4.2-0.3l0.4,0.5l1.3-1.2l3.4,6.7l9-2.3l-2.7,3.9l1.7-1.5l1.9,2.3l3.8-0.3l-1.4-9.3l1.2-0.8v-1.3l3.3-0.1l0.7,1.3
	l-0.6-1.1l5.8-3l-0.1,1.3l2,0.6l1.7-2.7l1.8,1.8l0.9-1.3l1,0l0.4,1.3l9.2-2.9l-0.1-2.8l18.7,3l-0.3,1.7l-1.3,0.2l-0.9,3.3l18.1,6.6
	l0.3-2.7l7.7,4.6l0.9-1.6l3.5,1.2l0.1,0.6l-1.3,0.2l2,10.7l1.1-1.6l2,0.4l0,0.5l2.6-2l-2.1-3.2h-1l2-6.2l0.6,1.1h0.5l-0.3,0.3
	l0.1,0.4l0.8,0.1l-0.3,0.5l8.8-3.6l-0.7-1.2l11-5.1l1.2,1l3-2.7l-1-6l5.2,4.8l1.2-0.3l-2,1.8l0.2,0.7l3.2-1.6l0.2-1.7l7.2-3.3l2,2.6
	l1.1-2.3h1l0.1,0.6l5.6-3l0.2,1l3-1.2l-0.1-6l3.7-1l0.2,0.8h1.7l0.4-2.1h0.9l0.3-1.4l0.8,0l0.1,0.7l1.6-2l1,1.2l0.3-1.8l1-0.1
	l0.7-1.4l-5.1-1.6l4.3-2l0.7,0.7l1-0.9l2.4,1.5l0.7-1.9l-2.1-1.3l0.3-1.1l1.8,1.3l1-1.2l-0.2-0.5h-1.2l-1.2-2.3l1.3-0.3l0.7,0.9h0.9
	l0.6,0.9l0.1-1.5l-1.6-1.1l0.1-1.4h1l0.6-1.1l1.3,2.4h1l1,1.5l-0.5-3.4h-0.9l-0.3-1l1.2-0.3l0.2-1.2l-1.5-0.5l2-1.7l-2.4-0.9
	l-0.7,0.7l5.1-4l-1-1l-1.1,1l-2.1-1.9h1.9l-2.6-1.7l1-0.8l-0.7-1l1.1,0.3l0.3-1.5h1.5l-0.1,1.8l5.5-3.3l-2.6-1.6l0.4-1.6l1.2,1.3
	l2.4-5.9l-2.4-3l2.4,0.8l3.8-4.2l0.8,2.1l1.6-2.6l-3.4-2.5l3-1.3l-1.9-1.4l1.2-1.1l0.6,0.1l0.3-0.7l-3.9-0.8l4.5-3.3l1.1,0.6
	l0.1,0.7l1.1-0.9l-1.7-4.3l-1.1,1.1l0.3,1.3l-5.4,1.3v-1.6l6.4-4.2L350,197l-0.5,0.8l-5-4l-2.8,2.3l-3.2-3.1l-4.2,3.4l4.6-4.6
	l2.1,1.1l8.1-5.7l-15-13.1l-4.3,1.7l-2.4-3l-9.7,3.9l10.1-5.5l2.2,3.7h1.7l1.1-1.6l15.1,2.9l-16.7-19.3l0.9-2.1l-8.2-8.3l-1.3,0.7
	v-1.3l-5.3-2.1l0.4-12.1h1.9l1.6-2.7l0.9,0.5l1.6-1.9l-2.5-2.1l4.1-1.4l0.1-1.9l2.2-0.4l-2.2-2.7l10.2-4l0.7,1.1l0.8-1l2.4,2.4
	l2.2-2.7l-1.4-0.3l-0.2-1.9l2.1-0.6l-1.3-3.1l2-0.6l-5.7,0l0.1-0.7l-19.3-1.1l0.7,2.2l-3.7,2l1.2,1.3l-7.5,2.7l-2.8-8.9l-3.3,0.6
	l-0.1-0.9h-0.9l-0.7,1.1l-0.6-1l-0.1,0.8L295,89.8l8.5,1.1l0.9-1.9l-0.5-0.9h1.3l12.4-22.6l4.4,0.5l0.6-1.7l6.9,7.2l-3.6,6.5l-1.7,0
	l1.6,6.2l-0.7,0.3l0.8,2l4-2.3l-2.5,2.8l0.2,0.9l1,0.2l-6.1,4l1.6,2.4l7.2-4.8l-0.5-2.5l18.5-10.7L350,78L352.3,71.1L352.3,71.1
	L352.3,71.1z M255.2,319.8h1.9l1.2,1l1.3,0l1.6,1.2l1.1-0.6l0.4-1.7l1.4-0.3l1.5,0.4l1.1-1.5l0.1-1.1l1.7-0.3l1.3-1.4l-0.3-1.7
	l0.9-3l0.9-0.7l0.4-1.3l1.3-2.3l-0.8-2.5l-1.9-1.3l-1.9-0.7l-1.3,1c-0.3-0.2-0.7-0.5-1-0.8l-1.8,0.4l-0.9-0.3l-1.3,0.9h-1.7l-1.7,1
	l-1.6,0.3l-0.4,1.8l-2.7,1.7l-2.3,2.6l0.8,1.5l0,3.6l1,1.9l-0.1,1.1L255.2,319.8z"/>
</svg>
