<?xml version="1.0" encoding="UTF-8"?>
<svg width="575px" height="593px" viewBox="0 0 575 593" version="1.1" xmlns="http://www.w3.org/2000/svg" xmlns:xlink="http://www.w3.org/1999/xlink">
    <!-- Generator: Sketch 43.2 (39069) - http://www.bohemiancoding.com/sketch -->
    <title>EU-map-cutout-countries</title>
    <desc>Created with Sketch.</desc>
    <defs></defs>
    <g id="Page-1" stroke="none" stroke-width="1" fill="none" fill-rule="evenodd">
        <g id="EU-map-cutout-countries">
            <path d="M75.4,55.4 L76.4,57.5 L75.1,58.7 L73.6,55.7 L75.4,55.4 Z M81.5,75.7 L84.8,73.2 L78,66.4 L74.5,68.8 L79.4,71.2 L76.7,72.7 L77.4,73.9 L74.2,76.2 L81.2,74.6 L81.5,75.7 Z M78.7,91.8 L77.1,85.7 L71.7,87.9 L71.8,92.7 L75.3,90.5 L74.9,94.1 L78.7,91.8 Z M77.1,82 L76.6,80.1 L75.4,83.7 L77.1,82 Z M69.5,68.1 L72,67 L72.8,64.1 L69.5,68.1 Z M88.8,93.4 L89.7,98.9 L93.3,100.4 L91.8,91.4 L88.8,93.4 Z M106.6,158.5 L111.1,155 L107.9,155.4 L106.4,152.3 L102.4,152.8 L101.5,156 L106.6,158.5 Z M94.8,88.4 L93.2,86.8 L92.9,89.4 L95,91 L94.8,88.4 Z M99.2,130.9 L97.8,135.8 L105.5,130.7 L105.4,125.5 L99.2,130.9 Z M76.5,38.6 L74.6,39.5 L75,43.7 L71,41 L71.2,44.3 L69.9,43.4 L68.5,44.8 L72,47.3 L72.1,45.9 L73.5,46.9 L73,48.1 L75.5,52.6 L79.9,52.1 L80.2,55.7 L81.7,55.5 L85.4,50.7 L78,48.2 L76.5,38.6 Z M247.2,200.3 L249.1,200.7 L249.8,199.8 L243.6,198.3 L244.2,199.9 L246.5,199.1 L247.2,200.3 Z M64.8,71.9 L68.1,69.4 L65.1,69.2 L64.8,71.9 Z M286.9,28.8 L297.3,35 L311,26.2 L321.6,22.8 L326.4,14.7 L334.4,8 L333.3,0 L274.7,0 L274.7,0.4 L285.3,5 L267,5.6 L286.9,28.8 Z M562.3,0.6 L562.1,0 L558.5,0 L558.9,1.2 L562.3,0.6 Z M77.1,58.9 L77.2,60.7 L78.9,58.9 L77.1,58.9 Z M67.9,32.2 L64.3,35.3 L66.7,37.1 L70.9,33.4 L67.9,32.2 Z M81.9,86.3 L84.8,79.9 L78.3,85.9 L79.6,89.3 L81.9,86.3 Z M154.9,225 L165.9,230.4 L163.7,223.5 L159.9,222.3 L154.9,225 Z M59.1,57.1 L58.2,54.8 L56.5,58.7 L59.1,57.1 Z M247.5,482 L256.7,484.2 L257.7,482.3 L253.9,478.3 L248.4,479.4 L247.5,482 Z M328.8,449.1 L327.2,454.1 L328.4,453.9 L330.3,450.4 L328.8,449.1 Z M210.5,504.7 L213.2,507.3 L215.4,504.3 L217.5,502.3 L216,499.8 L211.1,501.3 L210.5,504.7 Z M229.6,490.8 L236.5,494.8 L242.4,486.1 L234.2,485.1 L229.6,490.8 Z M331,426 L331.7,428.7 L334.4,430.1 L334.4,431.5 L333,432.4 L336.7,435.7 L336.6,438.3 L337.9,438.3 L338.9,440 L337.5,439.7 L336.2,441.7 L343,445.9 L346.6,444.2 L348.2,406.6 L346.3,406.6 L346.2,415.8 L344.8,415.8 L342.5,413.4 L331.8,422.3 L334,424.3 L333.3,426 L331,426 L331,426 Z M422.1,448.6 L428.6,457.6 L440.4,460.6 L453.8,475.5 L464.9,506.1 L457,522.3 L466.7,526 L479,502 L483.2,491.8 L472.5,479.4 L479.1,465.3 L496.4,468.8 L503.5,479.8 L505,465 L459.9,443.1 L463.7,432.5 L390.9,369.1 L390.9,356 L414.8,344.4 L423,349.9 L426.4,369 L434.6,354.2 L458.4,380.9 L495,409.5 L505.9,412 L532.5,437.4 L531.6,474.2 L539.2,483.6 L538,482.9 L534.7,484.1 L543.7,493 L544.6,492.3 L539.6,487.7 L539.7,484.3 L567.3,518.1 L573.8,518.3 L573.8,56.6 L556,35.1 L540,41.9 L532.6,96.9 L550.2,105.6 L560.5,109 L563.2,121.3 L503.5,129.9 L512.6,120.4 L491.6,125.6 L497.7,118.6 L455.2,124.1 L431,136.4 L426.4,148.2 L416.8,152.6 L407.9,148.3 L393.3,135.6 L383.4,135.6 L372.9,142 L357.7,139.3 L350.5,132 L347,121.4 L340.4,114.5 L339,104.6 L344.6,97.4 L349.4,84.1 L360.1,83.5 L359.2,74.9 L346.8,70.5 L333.6,63.6 L347.3,62.1 L354.3,39 L324.1,61 L320,60.2 L315.9,67.2 L317.7,68.7 L319.3,67.8 L323.3,72.3 L323.3,64.8 L328.8,64.2 L324.1,66.5 L324.4,70.4 L329.5,64.1 L333.4,63.7 L337.2,74.3 L330.3,67.5 L324.4,76.7 L314.3,75.8 L315,85.7 L319.8,93.6 L312.4,101.5 L322.9,111.1 L326.7,120.9 L324.1,132.1 L327.9,142.3 L348.9,153.6 L324.8,152.4 L324.8,161.9 L320.9,152.9 L317.8,165.9 L307.8,153.4 L297.3,155 L304,162.9 L256.3,169.2 L247.1,195.8 L255.3,200.8 L246.6,202.4 L245.4,200.7 L242.1,202.1 L244.3,202.2 L244.7,202.7 L241.8,203.2 L250.2,211.1 L236.1,208.2 L222.1,219.4 L208,244.1 L186.4,252 L167.5,258.6 L154.5,249.8 L162.9,275.4 L145.3,275.7 L131.5,269.8 L104,280.3 L112.9,283.9 L107,290.8 L134.2,300.8 L144.4,301.9 L154.5,306.6 L150,321.5 L167,331.1 L166.1,344.6 L179.5,360.5 L169.4,349.2 L165.8,366.9 L162.7,394.7 L142.7,391.7 C139.2,394.7 134.8,395.1 132.7,393.7 C130.1,392 55.4,386.6 55.4,386.6 L31.6,397.7 L33.6,407.2 L39.2,416.4 L22.7,496.5 L33.2,497 L30.2,506.3 L31.9,535.2 L58.6,535.2 L76.1,542.6 L85.3,558.8 L97.1,556.8 L148.6,539.8 L160.7,533.8 L169.4,521 L189.8,499.4 L184.1,482.7 L203,456.6 L235.6,425.3 L237.5,410 C237.5,410 226.5,392.3 247.5,390.7 C268.5,389.1 293.8,402.9 293.8,402.9 L315.1,378.1 L357.5,383.4 L411.5,447.6 L422.1,448.6 Z M377.9,424.1 L377.1,422.4 L375.7,423.1 L377.9,424.1 Z M337.1,505.1 L338.5,504.2 L340.4,505.1 L343.1,504 L344.5,497.1 L352.6,499.7 L355.3,473.4 L350.4,469.1 L354.6,466.4 L349,451.3 L347.6,452.7 L341.4,450.4 L334.5,458.6 L327.2,456.1 L326.5,463 L329.5,466 L332.7,471 L330,478.3 L331.1,480.6 L334.8,480.9 L330.8,491.8 L337.1,505.1 Z M367.9,413.6 L365.6,409.4 L358.9,414 L367.9,413.6 Z M121,10.4 L121.8,8.6 L120.6,6.7 L119,7.1 L121,10.4 Z M64.2,26.5 L66.2,28.6 L64.5,29.9 L72.8,31.7 L75.2,28.3 L74.1,27.4 L77.8,16.7 L69.3,22.7 L70.2,25.5 L66.2,23.7 L64.2,26.5 Z M82.9,42.2 L83.4,47.7 L88.2,46.9 L84.8,49.3 L85.8,49.9 L88.8,48.8 L88,49.7 L89.2,51.2 L87,50.3 L85.5,53 L86.7,53.9 L84.9,54.2 L83.7,56 L85.8,56.7 L86.3,58.3 L82.9,57 L82.3,59.3 L83.7,60.2 L81.3,62.9 L78,63 L76.6,64.5 L82.6,65.7 L82,66.3 L79.8,66.3 L82.7,69.1 L83.6,68.7 L85.1,70.3 L92.8,62.5 L91.6,64.8 L92.8,65.5 L90.5,66.3 L86.5,76.4 L87.5,77 L84.6,88 L85.7,89.7 L87.1,89 L82.6,101.3 L86.6,101.3 L88,82.9 L89.5,82.9 L94.3,77.2 L90.3,86.6 L91.7,87.6 L94.4,83.3 L95.5,86.9 L97,79.5 L98.6,78.7 L98,82.6 L102,85.6 L98.5,84.7 L98,93.5 L100.1,94 L95.8,112.3 L93,110.6 L96.9,119.8 L95.7,115 L98.3,114.3 L104.9,119.1 L105,115.3 L102.3,113.1 L113.1,115.4 L113.1,113.8 L116.6,113.9 L117.6,110.7 L127,111.1 L120.8,112.7 L117,123.4 L121.6,131.7 L123.9,130.4 L123.9,134.8 L126.9,131.1 L130.7,131.7 L129.4,136.2 L130.6,136.9 L126.9,139.8 L126,148.8 L133.3,154.4 L129.3,155.7 L127.1,152.6 L125,153.4 L128.6,157.5 L114.5,156 L98.5,169.3 L102.8,169.3 L103.2,167.6 L109.6,165.9 L109,169.3 L111.2,171.6 L108.8,173.4 L110.2,175.9 L111.7,176.3 L88.7,193 L92.3,193.5 L92.5,196.1 L89.9,197.3 L94.5,198.1 L93.3,199.2 L95.1,200.2 L105.6,196 L106,198.3 L109.9,199.2 L106.7,200.1 L106.3,201.9 L111.6,202 L111.6,201 L114.3,200.3 L119.5,206.3 L138.7,197.3 L129.4,212 L107.5,211.9 L107.6,214.7 L85.9,237.8 L83.9,237.1 L80.8,239.3 L80.8,242.1 L84.2,242.3 L84.3,239.8 L88.4,240.9 L90.1,243.9 L92.1,242 L91.2,240.6 L93.1,238.1 L94,239.3 L109.1,233.5 L118.2,237.5 L117.6,235.5 L120,234.4 L120,229 L165.6,219.6 L168.6,222.4 L199.5,216.1 L199.1,214 L206.2,210.4 L206.5,203.4 L197.5,203.6 L196.7,202.6 L194.9,202.6 L193.6,203.3 L195.9,203.6 L191.5,203.7 L194,201.8 L188.4,202 L197.4,198.3 L196.5,195.8 L193.6,195.8 L197.3,192.4 L199,193.9 L202.7,190.3 L201.4,190 L202.3,188.7 L199.2,188.3 L200.4,186.3 L202.3,186.8 L202.9,188.3 L209.7,173.9 L207.2,167.2 L187,162 L185.1,168.5 L178.7,164.4 L184.2,159 L172.7,143.4 L165.7,143.4 L174.5,143.4 L176,144.9 L179.8,145 L172.3,135.6 L175.2,132.7 L130.4,82.1 L125.6,85.6 L114.3,81.3 L124.4,81.6 L125.5,78.8 L132.5,76.4 L129.1,74.8 L128.9,72.8 L127.5,71.7 L122.8,74.2 L122,73.3 L140.3,53.6 L139.7,52.4 L144.3,42.4 L118,38.5 L117.7,39.5 L108.4,43.7 L107.8,43.1 L113.6,35.1 L111.4,36.3 L108.7,35.3 L124.2,18.7 L122.9,17.2 L124.2,13.4 L103.6,18.3 L104,16.6 L102.5,15.9 L99.4,18.6 L100.3,16.2 L96,14.2 L94.3,20.3 L93.4,20.4 L93.5,23.4 L90.4,24.1 L91.9,26.6 L90.6,29.2 L89.1,29.3 L94.1,34.9 L90.4,33 L89,34.2 L86.3,32.4 L86,36.8 L84.6,34 L83.3,37 L84.7,38.6 L83.5,40.1 L85.7,42.6 L87.9,42.7 L85.4,43.7 L82.9,42.2 Z M122.1,0.6 L119.3,0.8 L120.5,5.6 L121.3,3.3 L121.5,6 L127,6.8 L127,4 L122.9,4.4 L124.3,2.8 L122.1,0.6 Z M574,20.3 L574,0 L565.4,0 L564.6,6.1 L574,20.3 Z M63.7,39.2 L57.6,39.5 L60.2,42.1 L63.5,41.3 L63.7,39.2 Z M62.6,43 L59.2,43.5 L59.2,44.7 L61.6,45.6 L62.6,43 Z M59.2,53 L61.4,53.5 L61.3,46.4 L59.3,46 L59.2,53 Z M7.6,177.9 L6.6,179.4 L5.7,178.4 L0.7,181.1 L1.2,182.5 L12.9,181.8 L2.4,190.2 L5.5,190.2 L6.2,192.5 L15.1,189.6 L5.6,196.3 L16.5,192.9 L16.2,195.3 L10.9,197.7 L13.8,197.7 L12.9,199.5 L37.2,194.2 L35.6,190.6 L39.2,190.9 L38.2,193.1 L42,193.1 L45.5,189.4 L48.1,189.5 L49,186 L59.7,184.8 L60.6,182.5 L62.2,185.3 L64.5,183.1 L72.2,183.9 L68.4,179.1 L76.1,155.7 L73.8,154.3 L76.6,152.5 L74.9,141.1 L72,139.1 L73.4,136.9 L76.4,137.3 L76.1,134.5 L77.8,134.9 L80.7,132.5 L81,129.9 L85.5,130.5 L86.1,127.4 L83.3,126.8 L84.4,123.9 L83.3,121.7 L85.4,121.4 L87.6,127.9 L86.4,119.6 L81.3,119.3 L84,117 L78.1,105.6 L57.3,108.5 L64.5,103.6 L57.7,99 L59,101.6 L55.1,101.6 L54.4,104.5 L53,102.1 L50.5,102.6 L52,104.7 L49,104.8 L47.4,103.2 L42.2,104.5 L42.1,107 L40.4,107.1 L39.2,110.2 L41.8,111.3 L41.1,112.8 L38.4,112.9 L38.7,114.4 L35,115.4 L36,118.4 L40.1,118.4 L39.5,119.5 L45,118.5 L35.3,125.1 L37.2,126.8 L29.1,126.5 L26.7,129.2 L25.5,125.7 L16.8,124.4 L16.8,125.9 L12,124.6 L11.1,129.9 L13.5,127.5 L16.2,134.4 L14,134.5 L13.6,132.7 L9,132.8 L14.4,136.6 L18.1,135.6 L19.3,138.6 L14.6,139.6 L13.9,141.7 L15.3,143.6 L10,143.7 L11.2,146.9 L9.3,147.6 L12.1,149.3 L14.4,148.5 L13,150.3 L17.3,149.4 L18.5,154.1 L28.8,154 L25.5,157.4 L23.1,155.9 L19.2,162.3 L20.9,162.1 L11.1,171 L27.1,167.1 L27.4,168.5 L31.2,168.8 L10.9,175.1 L12.3,177.1 L11.4,178.9 L13.2,179.4 L10.2,180 L7.6,177.9 Z M436.7,358.1 L434.8,359.5 L435.2,364.8 L439.5,367.4 L442.2,366.3 L436.7,358.1 Z M480,406.5 L484,404.6 L474.3,404.5 L480,406.5 Z M542.9,27.7 L541.4,32.4 L543,32.8 L558.2,16.3 L561.6,16.3 L550.2,11.4 L548.6,10.5 L543.7,15.4 L542.7,13.5 L540.7,12.9 L540.8,14.4 L539,15.2 L541.5,16 L541.5,17.8 L539.6,19.2 L539.6,21.4 L545.4,25 L544.4,27.9 L542.9,27.7 Z M485.2,408.4 L478.6,408.5 L487.7,410.7 L485.2,408.4 Z M451.9,379.7 L447.2,375.9 L450.5,380.7 L451.9,379.7 Z M541.2,4.8 L542.6,5.8 L549.1,4.1 L551.4,8 L555.8,3.7 L558.1,4.5 L556.6,0.8 L554.5,0 L547.1,0 L541.2,4.8 Z M561,532.2 L563.3,532.5 L557.8,527.4 L556.3,528.2 L555.8,530.3 L560.5,533.5 L561,532.2 Z M444.2,370.8 L444.1,373.4 L447.7,374.4 L444.2,370.8 Z M551,521.7 L552.7,523.5 L553.7,520.5 L554.6,523.6 L559.5,525.2 L560.7,523.3 L555,512.7 L555,517.3 L551.1,517.6 L551.1,521.7 L551,521.7 Z M558,509.8 L557.5,506.6 L556.2,506.8 L554.7,511.1 L556.9,511.2 L558,509.8 Z M438.4,374.4 L439.9,374.1 L433.4,365.8 L435.9,369.8 L435.1,370.9 L438.4,374.4 Z M124.6,1 L124.7,0 L123.6,0 L124.6,1 Z M271.5,2 L269.5,0 L268.9,0 L268.5,3 L271.5,2 Z M564.7,13 L563,8.8 L558.1,8.7 L558.3,10.9 L562.7,14.3 L564.7,13 Z M384,591.4 L372.2,568.9 L381.7,547.9 L370.9,555.2 L364.3,546.9 L355.9,542 L312.4,546.9 L302.5,551.4 L290.7,550.7 L275.3,555.6 L248.5,550.8 L134.2,585 L103.2,586.9 L90.8,575.9 L78.2,593 L382.6,593 L384,591.4 Z M571.4,520.2 L565.4,527.5 L574.1,536.5 L574.1,519.8 L571.4,520.2 Z M443.1,377.2 L440.2,376 L443.5,380 L443.1,377.2 Z M433,544.4 L449.9,553 L454.5,524.7 L455.2,519.7 L452.3,516.3 L406.5,523.1 L405.2,521.4 L400.6,523.5 L400,529.7 L431.3,545.6 L433,544.4 Z M443.1,573.9 L447,577.1 L449.1,574.9 L449,572 L435.5,569.1 L443.1,573.9 Z M474.4,400.1 L476.2,402.4 L483.6,401.2 L474.4,400.1 Z M432.1,114.3 L432.8,111.1 L426,103.8 L426,112.3 L432.1,114.3 Z M390,99.9 L388.8,95.1 L387.4,99.1 L390,99.9 Z M453.7,81.3 L454.9,82.5 L461.6,54.9 L459.5,52.7 L454.4,64.9 L453.7,81.3 Z M394.5,135.1 L399.5,137.7 L402,134.3 L404.3,135 L403.8,127.3 L395.5,127.4 L395.7,129.7 L398.7,130 L395.5,132.3 L394.5,135.1 Z M474.2,0 L359.7,0 L367.3,27.5 L367.5,28.7 L366.9,28.9 L366.7,31.6 L367.9,31.5 L369.1,40.8 L390.4,72.1 L387.4,82.2 L394.5,88.4 L394.1,100.7 L414.3,101.7 L418.2,87.2 L425.4,80.4 L443,86.1 L453.9,58.1 L454.2,47.7 L450.3,38.2 L458.5,32 L456.2,21.7 L452.9,12.5 L463.7,4.6 L474.2,0 Z M501.4,33.4 L500.6,32.1 L496.7,32.2 L494.7,34.5 L496,36.3 L501.4,33.4 Z M486.1,36.8 L479.2,46.1 L480.4,50.4 L479,51.3 L482.8,56.8 L484.3,56.3 L481.6,63.9 L486,62.7 L486.9,60.4 L485.6,59.4 L494,47.9 L490.9,43.8 L494.4,37 L486.1,36.8 Z M496.8,17.6 L494.8,15.9 L493.2,16.9 L494.8,20.1 L496.8,17.6 Z M362.9,112.4 L360.4,109.7 L358.6,119.7 L360.7,116.8 L362.9,112.4 Z M382.4,99.8 L386.4,97.9 L386.1,86.1 L376.7,87.5 L374.9,90.9 L379.2,94.5 L378.9,96.5 L376.9,96 L376.1,97 L370.7,90.6 L365.1,95.4 L365.6,98.1 L369.1,107 L375.9,108.2 L376.6,109.9 L374.9,111.9 L376.3,113.9 L379.2,113.8 L386.4,105.8 L382.4,99.8 Z M360.1,50 L358.3,52.3 L364.2,50 L360.1,50 Z M340.4,0 L334.4,0 L335.9,2.1 L340.4,0 Z M357,92.2 L355.6,87.3 L353.7,95.4 L356.7,94.8 L357,92.2 Z M375.4,123.3 L377.3,121 L379.2,124.4 L380.2,115.4 L376.4,115.8 L375.2,118.7 L370.9,119.5 L367.4,114.6 L364,117.5 L365.3,119.1 L363.2,119.9 L375.4,123.3 Z M382.1,116.4 L383.8,113.9 L386.3,113.4 L385.8,111.3 L381.5,114.9 L382.1,116.4 Z M356,117.3 L351.8,115.7 L354.6,118.5 L356,117.3 Z M358.9,109 L355.5,100.7 L343,99.9 L344.1,108.7 L356.6,113.5 L358.9,109 Z" id="eu-bg" fill="#F3F2EA" fill-rule="nonzero"></path>
            <g id="eu-countries" transform="translate(19.000000, 14.000000)">
                <g id="france" transform="translate(85.000000, 201.000000)" fill-rule="nonzero" fill="#921F34">
                    <polygon id="Shape" points="198.3 124.7 209.5 87 204.5 77.9 215 50.7 187.8 44.8 146.1 25.8 145.9 20.6 133.4 13.3 132.7 10.2 128.4 8.6 127.6 2.1 125.4 0.5 118.1 3.8 116.6 2.5 104.2 28.3 82.8 36.1 87.3 39.5 64.1 42.6 60.6 38.2 61.7 35.2 49.2 33.9 57.4 59.2 42 59.5 40.8 58.3 36.6 61.7 28.4 53.7 0 63.9 1.4 66.4 3.1 67.1 5.6 67.9 7.8 68.8 8.4 71.2 2.9 73.3 3 74.3 6.3 74.3 7.3 80.6 29.9 85.5 32.9 82.8 34.8 83.3 34.1 85.4 35.1 86.7 38.2 84.8 40 86.7 38.6 90.4 40.3 93.1 50 91.4 52.4 94.6 46 93.1 43.9 96.1 45.9 96.9 45.6 106.1 62.4 115.7 60.8 129 64.1 133.6 62.3 134.9 60.6 151.1 63.6 153.1 56.7 178.8 52.4 181.4 58.3 184.5 58.5 191.4 75 197.5 78.8 195.8 90.8 201.3 94 197.9 133.9 205.6 134.1 188.9 144.9 178.1 189.6 190.5 193.2 187.5 192.5 185.6 207.6 165.8 197.8 158.8 192.3 144.1 199.4 140.6 196.4 126.5 198 124.6"></polygon>
                </g>
                <g id="germany" transform="translate(259.000000, 102.000000)" fill-rule="nonzero" fill="#E18A9F">
                    <polygon id="Shape" points="139.1 50.3 144.3 47.6 142.9 32.9 139.5 33.1 137.3 31.1 134.2 31.5 130.8 28.8 131.5 25.3 116.4 15.5 106.8 19.4 105.4 18 102.6 17.7 102.4 19.4 95.6 20.5 92.3 26.8 88.5 27.1 87.3 25 77.5 24.1 83.1 22.1 85.5 16 84 15.1 80 18.8 73.9 13.4 68.3 18.6 67.2 15.5 64.2 14.6 63.2 12.5 67.1 6.4 42.7 0 42.6 3.9 47.2 5.8 46.9 8.5 51 12.3 44.5 13.6 44.6 16.9 47.9 15.5 47.9 19.9 51.2 22 48.3 24.3 48.3 27 56 32.4 45 30.7 45.3 46.5 41.2 41.8 41.5 37.5 38.8 35.1 37.1 35.8 38.8 41.8 37 43.8 29.8 32.8 19.1 36.2 20.1 43.2 24.2 43.9 25 47.5 24.7 47.3 23.5 49.5 19.3 60.6 15.4 58.8 14.3 64.9 18.9 64.8 20.8 66.6 16.7 74.7 18.7 78.2 6.4 79.8 0 102.5 0.5 102.6 2.1 122.1 3.3 122.1 10.2 139.5 10.3 139.5 13.8 144.5 40.6 150.4 30.3 177.7 30.9 184.6 35.2 186.8 38.2 184.3 41.6 185.8 46.1 184 47.1 182.9 50.8 181.5 52.2 181.7 54.5 182.4 56.3 184.1 66.8 185.8 72.3 183.5 79.6 187.6 80.8 186.1 80.4 183.5 125.9 181.6 125.4 178.1 120.8 175.8 132.3 161.1 135.2 161.1 135.7 153.8 104.8 117 106.4 115.7 111.3 118.7 142.7 103.5 142.7 100.2 148.5 101.5 150.9 99.9 153.6 101.2"></polygon>
                </g>
                <g id="italy" transform="translate(277.000000, 299.000000)" fill-rule="nonzero" fill="#C52528">
                    <path d="M159.7,212.6 L160.5,207.7 L157.7,204.3 L112.5,210.2 L111.3,208.5 L106.7,210.5 L106,216.6 L136.5,232.8 L138.2,231.7 L154.6,240.5 L159.7,212.6 L159.7,212.6 L159.7,212.6 Z M166.4,132.7 L164.8,128 L170.3,122.3 L97,55.8 L101.6,50.2 L97.2,42.9 L120.3,33.6 L122,23.5 L120.7,20.5 L125.1,14.4 L95.8,4.4 L96.4,0.6 L69.9,2.6 L66,7.1 L67.8,13.1 L60.5,14.6 L59.6,21.6 L45,16.7 L36.1,18.8 L33.9,17.3 L29.6,14.5 L22.6,26 L17.8,23.8 L10.4,29.1 L6.1,27.4 L4.4,29.3 L7.1,43.4 L0,46.8 L5.2,61.5 L11.5,68.6 L15.4,75.4 L27.7,69.9 L27.9,66.8 L59.2,69.2 L115.7,137.3 L129,137.1 L135.2,146.1 L140.4,146.5 L140.1,149 L146.8,149.3 L149.1,152.5 L147.7,157.7 L159.6,164.3 L162,163 L170.2,194.5 L167.6,195.2 L162.1,210.4 L166.1,214.6 L171.5,214.2 L184,190.8 L187.3,190 L188.4,180.8 L178.1,168.4 L184.9,154.7 L201.9,158.4 L208.7,169.4 L210.4,154.9 L166.4,132.7 Z" id="Shape"></path>
                </g>
                <g id="border-germany-france" transform="translate(262.000000, 240.000000)" stroke-width="1.5" stroke="#FFFFFF">
                    <polyline id="Shape" points="28.7 40.7 27.7 38.2 37.9 11.2 10.5 5.7 0.4 0.2"></polyline>
                </g>
                <g id="border-france-switzerland-italy" transform="translate(277.000000, 335.000000)" stroke-width="1.5" stroke="#FFFFFF">
                    <polyline id="Shape" points="9.3 41.5 12.3 35.6 6.1 24.6 0.5 9.6 7.7 6.6 3.6 5.1 10 0.1"></polyline>
                </g>
                <g id="portugal" transform="translate(0.000000, 408.000000)" fill-rule="nonzero" fill="#A3957E">
                    <polyline id="Shape" points="36.8 103 45.7 87.4 42.4 86.9 38.7 81.9 45.2 76.3 36.8 58.3 43.8 55.7 48 48.7 46.7 44.7 48 41.7 48.5 24.6 56.9 17.1 53.7 3 27.4 6 26.5 0 13.3 0.5 0 70.3 1.9 75.8 10.3 71.3 11.2 73.8 6.6 77.8 6.6 81.4 8.9 83.4 11.7 82.9 14 84.4 9.8 112.5 31.6 113 33.9 112 36.8 103.5"></polyline>
                </g>
                <g id="spain" transform="translate(9.000000, 371.000000)" fill-rule="nonzero" fill="#906A46">
                    <polygon id="Shape" points="203.8 27.7 172.9 24.6 169.6 28 157.8 22.4 154 24.2 137.6 18.1 137.4 11.1 131.5 8 125.4 12 112.2 6.1 108.8 9.5 102.2 8.3 100.9 5.3 25.8 1.3 24.8 0 18 3.8 18.5 6.4 20.7 8 2.5 12.2 0.5 16.4 2.2 20.4 4.6 19.5 4.5 21.7 6 22.4 5 27.6 6.4 28.2 9.4 25.4 8.6 29.3 10 30.8 7.9 33 11 33.6 6.6 37.5 6.7 38.5 18.1 38.1 14.2 44.9 43.1 41.3 46.3 55.2 36.6 62 36.8 78.8 32.8 82.9 36 86.2 31.2 93 27.3 95.9 32.8 113.1 26.9 119 29.6 124.5 33.6 124.7 24.7 149.4 43.2 157.9 42.4 159.1 52.2 173.9 63.8 171.9 63.9 168.9 119.3 155.1 126.8 160.1 131.2 149.1 150.4 141 148.8 139.4 165.7 115.5 154.2 98.4 172.7 72.5 174.7 73.2 174.1 73.8 174.5 74.2 177.1 72.6 178 68.2 176 66.5 210.6 42.3 209.6 36.3 212.6 34.3 212.4 32.3 203.8 27.7"></polygon>
                </g>
                <g id="border-spain-portugal" transform="translate(13.000000, 409.000000)" stroke-width="1.5" stroke="#FFFFFF">
                    <polyline id="Shape" points="0.1 1.3 12.6 0.3 10.1 7.3 38.1 2.8 42.6 17.8 32.6 24.8 31.1 42.3 28.6 44.8 31.1 48.8 27.1 55.8 22.1 57.8 28.1 76.3 21.6 81.8 25.1 86.8 28.6 87.3 20.1 112.8"></polyline>
                </g>
                <g id="border-france-spain" transform="translate(140.000000, 378.000000)" stroke-width="1.5" stroke="#FFFFFF">
                    <polyline id="Shape" points="80.9 23.6 72.9 20.6 41.9 17.5 37.9 20.6 26.9 14.9 22.4 17 6.4 10.9 5.9 3.7 0.4 0.1"></polyline>
                </g>
                <g id="UK" transform="translate(29.000000, 0.000000)" fill-rule="nonzero" fill="#7C3842">
                    <path d="M40.6,36.7 L39.1,39.3 L40.3,40.2 L38.5,40.5 L37.4,42.2 L40.6,36.7 Z M145.5,187.4 L148.8,183.9 L148,181.4 L145.2,181.4 L148.9,178 L150.6,179.4 L154.3,175.8 L153,175.5 L153.8,174.2 L154.4,173.8 L161,159.4 L158.6,152.7 L138.4,147.5 L136.6,153.9 L130.4,149.9 L135.8,144.5 L124.6,129 L126.4,129 L127.9,130.5 L131.6,130.6 L124.3,121.3 L127.1,118.4 L83.2,68.1 L78.5,71.6 L72.4,68.1 L77.3,67.6 L78.4,64.8 L85.2,62.4 L81.9,60.8 L81.7,58.8 L80.4,57.7 L75.8,60.2 L75,59.3 L92.8,40 L92.2,38.8 L96.7,28.8 L70.9,25 L70.6,26 L61.5,30.2 L60.9,29.6 L64.4,22.8 L61.8,21.8 L77,5.2 L75.7,3.8 L77,0 L56.8,4.9 L57.1,3.2 L55.6,2.5 L53.5,2.8 L49.3,0.9 L47.7,7 L46.9,7.1 L47,10.1 L44,10.8 L45.5,13.3 L44.2,15.9 L42.7,16 L43.9,19.7 L42.6,20.9 L39.9,19.1 L39.6,23.4 L38.2,20.6 L36.9,23.6 L38.3,25.2 L37.2,26.7 L39.4,29.2 L39,30.2 L36.5,28.8 L37,34.3 L38.3,35.9 L39.3,36.5 L36.5,43.3 L35.9,45.5 L37.2,46.4 L34.9,49 L31.6,49.1 L30.2,50.6 L36.1,51.8 L35.7,52.6 L33.6,52.6 L36.5,55.4 L37.4,55 L38.9,56.6 L44.1,52.7 L40.2,62.7 L41.2,63.3 L38.3,74.2 L39.3,75.9 L40.6,75.2 L41.6,69 L43.1,69 L45.2,69.8 L43.8,72.7 L45.1,73.7 L48.8,73 L50.3,65.6 L51.9,64.8 L51.3,68.7 L51.9,70.8 L51.5,79.5 L53.5,80 L49.3,98.2 L51.8,100.1 L58.3,104.9 L58.4,101.1 L55.7,98.9 L66.3,101.2 L66.3,99.6 L69.7,99.7 L70.7,96.5 L73.8,98.5 L70.1,109.1 L74.6,117.4 L76.9,116.1 L76.9,120.5 L79.9,116.9 L83.6,117.5 L82.3,122 L83.4,122.7 L79.7,125.6 L78.9,134.5 L86,140.1 L82,141.4 L79.9,138.4 L77.8,139.2 L67.5,141.8 L51.9,155 L56.1,155 L56.5,153.3 L62.8,151.6 L62.2,154.9 L64.4,157.2 L62.1,158.9 L63.4,161.4 L64.9,161.8 L42.4,178.4 L45.9,178.9 L46.1,181.5 L43.6,182.7 L48.1,183.5 L47,184.6 L48.8,185.6 L59.1,181.4 L59.5,183.6 L60.2,185.4 L59.8,187.2 L65,187.3 L65,186.3 L67.6,185.6 L72.7,191.6 L81.7,189.3 L82.4,197.3 L61,197.2 L61.1,200 L39.9,223 L37.9,222.3 L34.9,224.5 L34.9,227.3 L38.2,227.5 L38.3,225 L42.3,226.1 L44,229.1 L46,227.2 L45.2,225.8 L47,223.3 L47.9,224.5 L62.6,218.7 L71.5,222.7 L70.9,220.7 L73.2,219.6 L73.2,214.5 L117.8,205.2 L120.7,208 L150.9,201.7 L150.5,199.6 L157.5,196 L157.8,189 L143,189.3 L145.5,187.4 Z M37.9,109.6 L36.8,107.4 L38.8,107.1 L39.8,105.3 L34.8,105 L37.6,103 L31.8,91.7 L8.9,97.5 L7.8,100.8 L4,101.3 L0,109.7 L7.8,117 L10.5,116.5 L13.7,109.7 L30,122.9 L31.4,120.6 L34.2,118.3 L34.5,115.7 L38.9,116.3 L39.5,113.2 L36.8,112.6 L37.9,109.6 Z" id="Shape"></path>
                </g>
                <g id="switzerland" transform="translate(252.000000, 273.000000)" fill-rule="nonzero" fill="#AC5F6F">
                    <polyline id="Shape" points="82.9 12.5 67.9 3.4 65.5 5.8 62.6 4.9 60.9 0 56.1 1.8 55 8 29.2 9.1 27.8 5.8 22.4 6.2 19.3 10.1 24.2 12.8 5.6 50.2 0 51.4 0.5 55.4 11.4 53.4 9.2 47.2 14.6 47.7 21.6 48 27 62 32.1 64 41.3 56.7 47.5 59.6 60.8 53.5 70.7 62.5 77.6 52.2 94 52.7 95 43.3 104.2 41.2 101.8 33.2 106.5 27.2 104.6 23 96.8 27 91.8 21.9"></polyline>
                </g>
                <g id="switzerland-border" transform="translate(252.000000, 273.000000)" stroke-width="1.5" stroke="#FFFFFF">
                    <polyline id="Shape" points="88.3 16.4 83.8 12.9 69.3 3.9 65.8 6.4 62.8 4.9 61.8 0.4 55.8 1.9 55.3 7.9 28.8 8.9 28.8 5.9 21.8 5.9 18.8 10.9 24.3 12.9 5.3 49.9 0.3 50.9 0.8 55.4 12.3 53.9 9.8 47.4 21.8 47.9 27.3 61.9 32.3 63.9 41.8 56.4 47.8 59.4 61.3 53.4 70.8 62.4 77.8 52.4 94.3 52.4 95.3 43.4 104.3 41.4 102.3 33.4 107.8 25.9"></polyline>
                </g>
            </g>
        </g>
    </g>
</svg>