<?xml version="1.0" encoding="utf-8"?>
<!-- Generator: Adobe Illustrator 21.1.0, SVG Export Plug-In . SVG Version: 6.00 Build 0)  -->
<svg version="1.1" id="Layer_2" xmlns="http://www.w3.org/2000/svg" xmlns:xlink="http://www.w3.org/1999/xlink" x="0px" y="0px"
	 viewBox="0 0 575 593" style="enable-background:new 0 0 575 593;" xml:space="preserve">
<style type="text/css">
	.st0{fill:#BED8F1;}
	.st1{fill:#F3F2EA;}
	.st2{fill:#921F34;}
	.st3{fill:#E18A9F;}
	.st4{fill:#C52528;}
	.st5{fill:#FFFFFF;}
	.st6{fill:#A3957E;}
	.st7{fill:#906A46;}
	.st8{fill:#7C3842;}
	.st9{fill:#AC5F6F;}
	.st10{font-family:'Lato-Bold';}
	.st11{font-size:10px;}
	.st12{font-family:'Lato-Italic';}
</style>
<path id="bg_1_" class="st0" d="M759.9,787H-183v-909.4h942.9V787z"/>
<path id="eu" class="st1" d="M75.4,55.4l1,2.1l-1.3,1.2l-1.5-3L75.4,55.4z M81.5,75.7l3.3-2.5L78,66.4l-3.5,2.4l4.9,2.4l-2.7,1.5
	l0.7,1.2l-3.2,2.3l7-1.6L81.5,75.7z M78.7,91.8l-1.6-6.1l-5.4,2.2l0.1,4.8l3.5-2.2l-0.4,3.6L78.7,91.8z M77.1,82l-0.5-1.9l-1.2,3.6
	L77.1,82z M69.5,68.1L72,67l0.8-2.9L69.5,68.1z M88.8,93.4l0.9,5.5l3.6,1.5l-1.5-9L88.8,93.4z M106.6,158.5l4.5-3.5l-3.2,0.4
	l-1.5-3.1l-4,0.5l-0.9,3.2L106.6,158.5z M94.8,88.4l-1.6-1.6l-0.3,2.6L95,91L94.8,88.4z M99.2,130.9l-1.4,4.9l7.7-5.1l-0.1-5.2
	L99.2,130.9z M76.5,38.6l-1.9,0.9l0.4,4.2L71,41l0.2,3.3l-1.3-0.9l-1.4,1.4l3.5,2.5l0.1-1.4l1.4,1L73,48.1l2.5,4.5l4.4-0.5l0.3,3.6
	l1.5-0.2l3.7-4.8L78,48.2L76.5,38.6z M247.2,200.3l1.9,0.4l0.7-0.9l-6.2-1.5l0.6,1.6l2.3-0.8L247.2,200.3z M64.8,71.9l3.3-2.5
	l-3-0.2L64.8,71.9z M286.9,28.8l10.4,6.2l13.7-8.8l10.6-3.4l4.8-8.1l8-6.7l-1.1-8h-58.6v0.4L285.3,5L267,5.6L286.9,28.8z M562.3,0.6
	L562.1,0h-3.6l0.4,1.2L562.3,0.6z M77.1,58.9l0.1,1.8l1.7-1.8H77.1z M67.9,32.2l-3.6,3.1l2.4,1.8l4.2-3.7L67.9,32.2z M81.9,86.3
	l2.9-6.4l-6.5,6l1.3,3.4L81.9,86.3z M154.9,225l11,5.4l-2.2-6.9l-3.8-1.2L154.9,225z M59.1,57.1l-0.9-2.3l-1.7,3.9L59.1,57.1z
	 M247.5,482l9.2,2.2l1-1.9l-3.8-4l-5.5,1.1L247.5,482z M328.8,449.1l-1.6,5l1.2-0.2l1.9-3.5L328.8,449.1z M210.5,504.7l2.7,2.6
	l2.2-3l2.1-2l-1.5-2.5l-4.9,1.5L210.5,504.7z M229.6,490.8l6.9,4l5.9-8.7l-8.2-1L229.6,490.8z M331,426l0.7,2.7l2.7,1.4v1.4
	l-1.4,0.9l3.7,3.3l-0.1,2.6h1.3l1,1.7l-1.4-0.3l-1.3,2l6.8,4.2l3.6-1.7l1.6-37.6h-1.9l-0.1,9.2h-1.4l-2.3-2.4l-10.7,8.9l2.2,2
	l-0.7,1.7L331,426L331,426z M422.1,448.6l6.5,9l11.8,3l13.4,14.9l11.1,30.6l-7.9,16.2l9.7,3.7l12.3-24l4.2-10.2l-10.7-12.4l6.6-14.1
	l17.3,3.5l7.1,11L505,465l-45.1-21.9l3.8-10.6l-72.8-63.4V356l23.9-11.6l8.2,5.5l3.4,19.1l8.2-14.8l23.8,26.7l36.6,28.6l10.9,2.5
	l26.6,25.4l-0.9,36.8l7.6,9.4l-1.2-0.7l-3.3,1.2l9,8.9l0.9-0.7l-5-4.6l0.1-3.4l27.6,33.8l6.5,0.2V56.6L556,35.1l-16,6.8l-7.4,55
	l17.6,8.7l10.3,3.4l2.7,12.3l-59.7,8.6l9.1-9.5l-21,5.2l6.1-7l-42.5,5.5L431,136.4l-4.6,11.8l-9.6,4.4l-8.9-4.3l-14.6-12.7h-9.9
	l-10.5,6.4l-15.2-2.7l-7.2-7.3l-3.5-10.6l-6.6-6.9l-1.4-9.9l5.6-7.2l4.8-13.3l10.7-0.6l-0.9-8.6l-12.4-4.4l-13.2-6.9l13.7-1.5
	l7-23.1l-30.2,22l-4.1-0.8l-4.1,7l1.8,1.5l1.6-0.9l4,4.5v-7.5l5.5-0.6l-4.7,2.3l0.3,3.9l5.1-6.3l3.9-0.4l3.8,10.6l-6.9-6.8l-5.9,9.2
	l-10.1-0.9l0.7,9.9l4.8,7.9l-7.4,7.9l10.5,9.6l3.8,9.8l-2.6,11.2l3.8,10.2l21,11.3l-24.1-1.2v9.5l-3.9-9l-3.1,13l-10-12.5l-10.5,1.6
	l6.7,7.9l-47.7,6.3l-9.2,26.6l8.2,5l-8.7,1.6l-1.2-1.7l-3.3,1.4l2.2,0.1l0.4,0.5l-2.9,0.5l8.4,7.9l-14.1-2.9l-14,11.2L208,244.1
	l-21.6,7.9l-18.9,6.6l-13-8.8l8.4,25.6l-17.6,0.3l-13.8-5.9L104,280.3l8.9,3.6l-5.9,6.9l27.2,10l10.2,1.1l10.1,4.7l-4.5,14.9l17,9.6
	l-0.9,13.5l13.4,15.9l-10.1-11.3l-3.6,17.7l-3.1,27.8l-20-3c-3.5,3-7.9,3.4-10,2c-2.6-1.7-77.3-7.1-77.3-7.1l-23.8,11.1l2,9.5
	l5.6,9.2l-16.5,80.1l10.5,0.5l-3,9.3l1.7,28.9h26.7l17.5,7.4l9.2,16.2l11.8-2l51.5-17l12.1-6l8.7-12.8l20.4-21.6l-5.7-16.7
	l18.9-26.1l32.6-31.3l1.9-15.3c0,0-11-17.7,10-19.3c21-1.6,46.3,12.2,46.3,12.2l21.3-24.8l42.4,5.3l54,64.2L422.1,448.6z
	 M377.9,424.1l-0.8-1.7l-1.4,0.7L377.9,424.1z M337.1,505.1l1.4-0.9l1.9,0.9l2.7-1.1l1.4-6.9l8.1,2.6l2.7-26.3l-4.9-4.3l4.2-2.7
	l-5.6-15.1l-1.4,1.4l-6.2-2.3l-6.9,8.2l-7.3-2.5l-0.7,6.9l3,3l3.2,5l-2.7,7.3l1.1,2.3l3.7,0.3l-4,10.9L337.1,505.1z M367.9,413.6
	l-2.3-4.2l-6.7,4.6L367.9,413.6z M121,10.4l0.8-1.8l-1.2-1.9L119,7.1L121,10.4z M64.2,26.5l2,2.1l-1.7,1.3l8.3,1.8l2.4-3.4l-1.1-0.9
	l3.7-10.7l-8.5,6l0.9,2.8l-4-1.8L64.2,26.5z M82.9,42.2l0.5,5.5l4.8-0.8l-3.4,2.4l1,0.6l3-1.1L88,49.7l1.2,1.5L87,50.3L85.5,53
	l1.2,0.9l-1.8,0.3L83.7,56l2.1,0.7l0.5,1.6L82.9,57l-0.6,2.3l1.4,0.9l-2.4,2.7L78,63l-1.4,1.5l6,1.2L82,66.3h-2.2l2.9,2.8l0.9-0.4
	l1.5,1.6l7.7-7.8l-1.2,2.3l1.2,0.7l-2.3,0.8l-4,10.1l1,0.6l-2.9,11l1.1,1.7l1.4-0.7l-4.5,12.3h4L88,82.9h1.5l4.8-5.7l-4,9.4l1.4,1
	l2.7-4.3l1.1,3.6l1.5-7.4l1.6-0.8L98,82.6l4,3l-3.5-0.9L98,93.5l2.1,0.5l-4.3,18.3l-2.8-1.7l3.9,9.2l-1.2-4.8l2.6-0.7l6.6,4.8
	l0.1-3.8l-2.7-2.2l10.8,2.3v-1.6l3.5,0.1l1-3.2l9.4,0.4l-6.2,1.6l-3.8,10.7l4.6,8.3l2.3-1.3v4.4l3-3.7l3.8,0.6l-1.3,4.5l1.2,0.7
	l-3.7,2.9l-0.9,9l7.3,5.6l-4,1.3l-2.2-3.1l-2.1,0.8l3.6,4.1l-14.1-1.5l-16,13.3h4.3l0.4-1.7l6.4-1.7l-0.6,3.4l2.2,2.3l-2.4,1.8
	l1.4,2.5l1.5,0.4l-23,16.7l3.6,0.5l0.2,2.6l-2.6,1.2l4.6,0.8l-1.2,1.1l1.8,1l10.5-4.2l0.4,2.3l3.9,0.9l-3.2,0.9l-0.4,1.8l5.3,0.1v-1
	l2.7-0.7l5.2,6l19.2-9l-9.3,14.7l-21.9-0.1l0.1,2.8l-21.7,23.1l-2-0.7l-3.1,2.2v2.8l3.4,0.2l0.1-2.5l4.1,1.1l1.7,3l2-1.9l-0.9-1.4
	l1.9-2.5l0.9,1.2l15.1-5.8l9.1,4l-0.6-2l2.4-1.1V229l45.6-9.4l3,2.8l30.9-6.3l-0.4-2.1l7.1-3.6l0.3-7l-9,0.2l-0.8-1h-1.8l-1.3,0.7
	l2.3,0.3l-4.4,0.1l2.5-1.9l-5.6,0.2l9-3.7l-0.9-2.5h-2.9l3.7-3.4l1.7,1.5l3.7-3.6l-1.3-0.3l0.9-1.3l-3.1-0.4l1.2-2l1.9,0.5l0.6,1.5
	l6.8-14.4l-2.5-6.7L187,162l-1.9,6.5l-6.4-4.1l5.5-5.4l-11.5-15.6h-7h8.8l1.5,1.5l3.8,0.1l-7.5-9.4l2.9-2.9l-44.8-50.6l-4.8,3.5
	l-11.3-4.3l10.1,0.3l1.1-2.8l7-2.4l-3.4-1.6l-0.2-2l-1.4-1.1l-4.7,2.5l-0.8-0.9l18.3-19.7l-0.6-1.2l4.6-10L118,38.5l-0.3,1l-9.3,4.2
	l-0.6-0.6l5.8-8l-2.2,1.2l-2.7-1l15.5-16.6l-1.3-1.5l1.3-3.8l-20.6,4.9l0.4-1.7l-1.5-0.7l-3.1,2.7l0.9-2.4l-4.3-2l-1.7,6.1l-0.9,0.1
	l0.1,3l-3.1,0.7l1.5,2.5l-1.3,2.6l-1.5,0.1l5,5.6L90.4,33L89,34.2l-2.7-1.8L86,36.8L84.6,34l-1.3,3l1.4,1.6l-1.2,1.5l2.2,2.5
	l2.2,0.1l-2.5,1L82.9,42.2z M122.1,0.6l-2.8,0.2l1.2,4.8l0.8-2.3l0.2,2.7l5.5,0.8V4l-4.1,0.4l1.4-1.6L122.1,0.6z M574,20.3V0h-8.6
	l-0.8,6.1L574,20.3z M63.7,39.2l-6.1,0.3l2.6,2.6l3.3-0.8L63.7,39.2z M62.6,43l-3.4,0.5v1.2l2.4,0.9L62.6,43z M59.2,53l2.2,0.5
	l-0.1-7.1l-2-0.4L59.2,53z M7.6,177.9l-1,1.5l-0.9-1l-5,2.7l0.5,1.4l11.7-0.7l-10.5,8.4h3.1l0.7,2.3l8.9-2.9l-9.5,6.7l10.9-3.4
	l-0.3,2.4l-5.3,2.4h2.9l-0.9,1.8l24.3-5.3l-1.6-3.6l3.6,0.3l-1,2.2H42l3.5-3.7l2.6,0.1L49,186l10.7-1.2l0.9-2.3l1.6,2.8l2.3-2.2
	l7.7,0.8l-3.8-4.8l7.7-23.4l-2.3-1.4l2.8-1.8l-1.7-11.4l-2.9-2l1.4-2.2l3,0.4l-0.3-2.8l1.7,0.4l2.9-2.4l0.3-2.6l4.5,0.6l0.6-3.1
	l-2.8-0.6l1.1-2.9l-1.1-2.2l2.1-0.3l2.2,6.5l-1.2-8.3l-5.1-0.3L84,117l-5.9-11.4l-20.8,2.9l7.2-4.9L57.7,99l1.3,2.6h-3.9l-0.7,2.9
	l-1.4-2.4l-2.5,0.5l1.5,2.1l-3,0.1l-1.6-1.6l-5.2,1.3l-0.1,2.5l-1.7,0.1l-1.2,3.1l2.6,1.1l-0.7,1.5l-2.7,0.1l0.3,1.5l-3.7,1l1,3h4.1
	l-0.6,1.1l5.5-1l-9.7,6.6l1.9,1.7l-8.1-0.3l-2.4,2.7l-1.2-3.5l-8.7-1.3v1.5l-4.8-1.3l-0.9,5.3l2.4-2.4l2.7,6.9l-2.2,0.1l-0.4-1.8
	L9,132.8l5.4,3.8l3.7-1l1.2,3l-4.7,1l-0.7,2.1l1.4,1.9l-5.3,0.1l1.2,3.2l-1.9,0.7l2.8,1.7l2.3-0.8l-1.4,1.8l4.3-0.9l1.2,4.7
	l10.3-0.1l-3.3,3.4l-2.4-1.5l-3.9,6.4l1.7-0.2l-9.8,8.9l16-3.9l0.3,1.4l3.8,0.3l-20.3,6.3l1.4,2l-0.9,1.8l1.8,0.5l-3,0.6L7.6,177.9z
	 M436.7,358.1l-1.9,1.4l0.4,5.3l4.3,2.6l2.7-1.1L436.7,358.1z M480,406.5l4-1.9l-9.7-0.1L480,406.5z M542.9,27.7l-1.5,4.7l1.6,0.4
	l15.2-16.5h3.4l-11.4-4.9l-1.6-0.9l-4.9,4.9l-1-1.9l-2-0.6l0.1,1.5l-1.8,0.8l2.5,0.8v1.8l-1.9,1.4v2.2l5.8,3.6l-1,2.9L542.9,27.7z
	 M485.2,408.4l-6.6,0.1l9.1,2.2L485.2,408.4z M451.9,379.7l-4.7-3.8l3.3,4.8L451.9,379.7z M541.2,4.8l1.4,1l6.5-1.7l2.3,3.9l4.4-4.3
	l2.3,0.8l-1.5-3.7L554.5,0h-7.4L541.2,4.8z M561,532.2l2.3,0.3l-5.5-5.1l-1.5,0.8l-0.5,2.1l4.7,3.2L561,532.2z M444.2,370.8
	l-0.1,2.6l3.6,1L444.2,370.8z M551,521.7l1.7,1.8l1-3l0.9,3.1l4.9,1.6l1.2-1.9l-5.7-10.6v4.6l-3.9,0.3L551,521.7L551,521.7z
	 M558,509.8l-0.5-3.2l-1.3,0.2l-1.5,4.3l2.2,0.1L558,509.8z M438.4,374.4l1.5-0.3l-6.5-8.3l2.5,4l-0.8,1.1L438.4,374.4z M124.6,1
	l0.1-1h-1.1L124.6,1z M271.5,2l-2-2h-0.6l-0.4,3L271.5,2z M564.7,13L563,8.8l-4.9-0.1l0.2,2.2l4.4,3.4L564.7,13z M384,591.4
	l-11.8-22.5l9.5-21l-10.8,7.3l-6.6-8.3l-8.4-4.9l-43.5,4.9l-9.9,4.5l-11.8-0.7l-15.4,4.9l-26.8-4.8L134.2,585l-31,1.9l-12.4-11
	L78.2,593h304.4L384,591.4z M571.4,520.2l-6,7.3l8.7,9v-16.7L571.4,520.2z M443.1,377.2l-2.9-1.2l3.3,4L443.1,377.2z M433,544.4
	l16.9,8.6l4.6-28.3l0.7-5l-2.9-3.4l-45.8,6.8l-1.3-1.7l-4.6,2.1l-0.6,6.2l31.3,15.9L433,544.4z M443.1,573.9l3.9,3.2l2.1-2.2
	L449,572l-13.5-2.9L443.1,573.9z M474.4,400.1l1.8,2.3l7.4-1.2L474.4,400.1z M432.1,114.3l0.7-3.2l-6.8-7.3v8.5L432.1,114.3z
	 M390,99.9l-1.2-4.8l-1.4,4L390,99.9z M453.7,81.3l1.2,1.2l6.7-27.6l-2.1-2.2l-5.1,12.2L453.7,81.3z M394.5,135.1l5,2.6l2.5-3.4
	l2.3,0.7l-0.5-7.7l-8.3,0.1l0.2,2.3l3,0.3l-3.2,2.3L394.5,135.1z M474.2,0H359.7l7.6,27.5l0.2,1.2l-0.6,0.2l-0.2,2.7l1.2-0.1
	l1.2,9.3l21.3,31.3l-3,10.1l7.1,6.2l-0.4,12.3l20.2,1l3.9-14.5l7.2-6.8l17.6,5.7l10.9-28l0.3-10.4l-3.9-9.5l8.2-6.2l-2.3-10.3
	l-3.3-9.2l10.8-7.9L474.2,0z M501.4,33.4l-0.8-1.3l-3.9,0.1l-2,2.3l1.3,1.8L501.4,33.4z M486.1,36.8l-6.9,9.3l1.2,4.3l-1.4,0.9
	l3.8,5.5l1.5-0.5l-2.7,7.6l4.4-1.2l0.9-2.3l-1.3-1l8.4-11.5l-3.1-4.1l3.5-6.8L486.1,36.8z M496.8,17.6l-2-1.7l-1.6,1l1.6,3.2
	L496.8,17.6z M362.9,112.4l-2.5-2.7l-1.8,10l2.1-2.9L362.9,112.4z M382.4,99.8l4-1.9l-0.3-11.8l-9.4,1.4l-1.8,3.4l4.3,3.6l-0.3,2
	l-2-0.5l-0.8,1l-5.4-6.4l-5.6,4.8l0.5,2.7l3.5,8.9l6.8,1.2l0.7,1.7l-1.7,2l1.4,2l2.9-0.1l7.2-8L382.4,99.8z M360.1,50l-1.8,2.3
	l5.9-2.3H360.1z M340.4,0h-6l1.5,2.1L340.4,0z M357,92.2l-1.4-4.9l-1.9,8.1l3-0.6L357,92.2z M375.4,123.3l1.9-2.3l1.9,3.4l1-9
	l-3.8,0.4l-1.2,2.9l-4.3,0.8l-3.5-4.9l-3.4,2.9l1.3,1.6l-2.1,0.8L375.4,123.3z M382.1,116.4l1.7-2.5l2.5-0.5l-0.5-2.1l-4.3,3.6
	L382.1,116.4z M356,117.3l-4.2-1.6l2.8,2.8L356,117.3z M358.9,109l-3.4-8.3L343,99.9l1.1,8.8l12.5,4.8L358.9,109z"/>
<polygon id="france" class="st2" points="302.3,339.7 313.5,302 308.5,292.9 319,265.7 291.8,259.8 250.1,240.8 249.9,235.6 
	237.4,228.3 236.7,225.2 232.4,223.6 231.6,217.1 229.4,215.5 222.1,218.8 220.6,217.5 208.2,243.3 186.8,251.1 191.3,254.5 
	168.1,257.6 164.6,253.2 165.7,250.2 153.2,248.9 161.4,274.2 146,274.5 144.8,273.3 140.6,276.7 132.4,268.7 104,278.9 
	105.4,281.4 107.1,282.1 109.6,282.9 111.8,283.8 112.4,286.2 106.9,288.3 107,289.3 110.3,289.3 111.3,295.6 133.9,300.5 
	136.9,297.8 138.8,298.3 138.1,300.4 139.1,301.7 142.2,299.8 144,301.7 142.6,305.4 144.3,308.1 154,306.4 156.4,309.6 150,308.1 
	147.9,311.1 149.9,311.9 149.6,321.1 166.4,330.7 164.8,344 168.1,348.6 166.3,349.9 164.6,366.1 167.6,368.1 160.7,393.8 
	156.4,396.4 162.3,399.5 162.5,406.4 179,412.5 182.8,410.8 194.8,416.3 198,412.9 237.9,420.6 238.1,403.9 248.9,393.1 
	293.6,405.5 297.2,402.5 296.5,400.6 311.6,380.8 301.8,373.8 296.3,359.1 303.4,355.6 300.4,341.5 302,339.6 "/>
<polygon id="germany" class="st3" points="417.1,166.3 422.3,163.6 420.9,148.9 417.5,149.1 415.3,147.1 412.2,147.5 408.8,144.8 
	409.5,141.3 394.4,131.5 384.8,135.4 383.4,134 380.6,133.7 380.4,135.4 373.6,136.5 370.3,142.8 366.5,143.1 365.3,141 
	355.5,140.1 361.1,138.1 363.5,132 362,131.1 358,134.8 351.9,129.4 346.3,134.6 345.2,131.5 342.2,130.6 341.2,128.5 345.1,122.4 
	320.7,116 320.6,119.9 325.2,121.8 324.9,124.5 329,128.3 322.5,129.6 322.6,132.9 325.9,131.5 325.9,135.9 329.2,138 326.3,140.3 
	326.3,143 334,148.4 323,146.7 323.3,162.5 319.2,157.8 319.5,153.5 316.8,151.1 315.1,151.8 316.8,157.8 315,159.8 307.8,148.8 
	297.1,152.2 298.1,159.2 302.2,159.9 303,163.5 302.7,163.3 301.5,165.5 297.3,176.6 293.4,174.8 292.3,180.9 296.9,180.8 
	298.8,182.6 294.7,190.7 296.7,194.2 284.4,195.8 278,218.5 278.5,218.6 280.1,238.1 281.3,238.1 288.2,255.5 288.3,255.5 
	291.8,260.5 318.6,266.4 308.3,293.7 308.9,300.6 313.2,302.8 316.2,300.3 319.6,301.8 324.1,300 325.1,298.9 328.8,297.5 
	330.2,297.7 332.5,298.4 334.3,300.1 344.8,301.8 350.3,299.5 357.6,303.6 358.8,302.1 358.4,299.5 403.9,297.6 403.4,294.1 
	398.8,291.8 410.3,277.1 413.2,277.1 413.7,269.8 382.8,233 384.4,231.7 389.3,234.7 420.7,219.5 420.7,216.2 426.5,217.5 
	428.9,215.9 431.6,217.2 "/>
<path id="italy" class="st4" d="M455.7,525.6l0.8-4.9l-2.8-3.4l-45.2,5.9l-1.2-1.7l-4.6,2l-0.7,6.1l30.5,16.2l1.7-1.1l16.4,8.8
	L455.7,525.6L455.7,525.6L455.7,525.6z M462.4,445.7l-1.6-4.7l5.5-5.7L393,368.8l4.6-5.6l-4.4-7.3l23.1-9.3l1.7-10.1l-1.3-3l4.4-6.1
	l-29.3-10l0.6-3.8l-26.5,2l-3.9,4.5l1.8,6l-7.3,1.5l-0.9,7l-14.6-4.9l-8.9,2.1l-2.2-1.5l-4.3-2.8l-7,11.5l-4.8-2.2l-7.4,5.3
	l-4.3-1.7l-1.7,1.9l2.7,14.1l-7.1,3.4l5.2,14.7l6.3,7.1l3.9,6.8l12.3-5.5l0.2-3.1l31.3,2.4l56.5,68.1l13.3-0.2l6.2,9l5.2,0.4
	l-0.3,2.5l6.7,0.3l2.3,3.2l-1.4,5.2l11.9,6.6l2.4-1.3l8.2,31.5l-2.6,0.7l-5.5,15.2l4,4.2l5.4-0.4l12.5-23.4l3.3-0.8l1.1-9.2
	l-10.3-12.4l6.8-13.7l17,3.7l6.8,11l1.7-14.5L462.4,445.7z"/>
<path id="france-border" class="st5" d="M306,390.8l-1.3-0.7l2.8-5.5l-6.1-10.8l-5.9-15.7l6.1-2.5l-3.6-1.3l7.5-5.8l0.9,1.2
	l-5.3,4.2l4.6,1.7l-8.3,3.5l5.3,14.3l6.4,11.3L306,390.8z M309,295l-1.1-2.8l10-26.4l-26.7-5.4l-10.1-5.5l0.7-1.3l10,5.4l28.2,5.7
	l-10.4,27.6l0.9,2.2L309,295z"/>
<polyline id="portugal" class="st6" points="55.8,525 64.7,509.4 61.4,508.9 57.7,503.9 64.2,498.3 55.8,480.3 62.8,477.7 67,470.7 
	65.7,466.7 67,463.7 67.5,446.6 75.9,439.1 72.7,425 46.4,428 45.5,422 32.3,422.5 19,492.3 20.9,497.8 29.3,493.3 30.2,495.8 
	25.6,499.8 25.6,503.4 27.9,505.4 30.7,504.9 33,506.4 28.8,534.5 50.6,535 52.9,534 55.8,525.5 "/>
<polygon id="spain" class="st7" points="231.8,412.7 200.9,409.6 197.6,413 185.8,407.4 182,409.2 165.6,403.1 165.4,396.1 
	159.5,393 153.4,397 140.2,391.1 136.8,394.5 130.2,393.3 128.9,390.3 53.8,386.3 52.8,385 46,388.8 46.5,391.4 48.7,393 
	30.5,397.2 28.5,401.4 30.2,405.4 32.6,404.5 32.5,406.7 34,407.4 33,412.6 34.4,413.2 37.4,410.4 36.6,414.3 38,415.8 35.9,418 
	39,418.6 34.6,422.5 34.7,423.5 46.1,423.1 42.2,429.9 71.1,426.3 74.3,440.2 64.6,447 64.8,463.8 60.8,467.9 64,471.2 59.2,478 
	55.3,480.9 60.8,498.1 54.9,504 57.6,509.5 61.6,509.7 52.7,534.4 71.2,542.9 70.4,544.1 80.2,558.9 91.8,556.9 91.9,553.9 
	147.3,540.1 154.8,545.1 159.2,534.1 178.4,526 176.8,524.4 193.7,500.5 182.2,483.4 200.7,457.5 202.7,458.2 202.1,458.8 
	202.5,459.2 205.1,457.6 206,453.2 204,451.5 238.6,427.3 237.6,421.3 240.6,419.3 240.4,417.3 "/>
<polygon id="portugal-border" class="st5" points="52.8,536 51.4,535.6 59.6,510.9 56.7,510.5 52.6,504.7 59.2,499.1 53.2,480.4 
	58.6,478.2 62.2,471.8 59.6,467.7 62.4,465 63.9,447.4 73.7,440.5 69.6,426.6 41,431.2 43.5,424.1 32.2,425 32,423.6 45.7,422.5 
	43.2,429.4 70.6,425 75.5,441.1 65.3,448.2 63.8,465.6 61.6,467.9 64,471.8 59.6,479.4 55,481.2 61,499.5 54.6,504.9 57.5,509.1 
	61.6,509.7 "/>
<polygon id="france-spain-border" class="st5" points="239.6,416.3 231.7,413.3 201.1,410.3 197,413.5 185.9,407.7 181.4,409.8 
	164.7,403.4 164.2,396.1 159,392.7 159.8,391.5 165.6,395.3 166.1,402.4 181.4,408.2 185.9,406.1 196.8,411.7 200.7,408.7 
	201,408.8 232.2,411.9 240.2,414.9 "/>
<path id="uk" class="st8" d="M88.6,50.7l-1.5,2.6l1.2,0.9l-1.8,0.3l-1.1,1.7L88.6,50.7z M193.5,201.4l3.3-3.5l-0.8-2.5h-2.8l3.7-3.4
	l1.7,1.4l3.7-3.6l-1.3-0.3l0.8-1.3l0.6-0.4l6.6-14.4l-2.4-6.7l-20.2-5.2l-1.8,6.4l-6.2-4l5.4-5.4L172.6,143h1.8l1.5,1.5l3.7,0.1
	l-7.3-9.3l2.8-2.9l-43.9-50.3l-4.7,3.5l-6.1-3.5l4.9-0.5l1.1-2.8l6.8-2.4l-3.3-1.6l-0.2-2l-1.3-1.1l-4.6,2.5l-0.8-0.9L140.8,54
	l-0.6-1.2l4.5-10L118.9,39l-0.3,1l-9.1,4.2l-0.6-0.6l3.5-6.8l-2.6-1L125,19.2l-1.3-1.4L125,14l-20.2,4.9l0.3-1.7l-1.5-0.7l-2.1,0.3
	l-4.2-1.9L95.7,21l-0.8,0.1l0.1,3l-3,0.7l1.5,2.5l-1.3,2.6L90.7,30l1.2,3.7l-1.3,1.2l-2.7-1.8l-0.3,4.3l-1.4-2.8l-1.3,3l1.4,1.6
	l-1.1,1.5l2.2,2.5l-0.4,1l-2.5-1.4l0.5,5.5l1.3,1.6l1,0.6l-2.8,6.8l-0.6,2.2l1.3,0.9L82.9,63l-3.3,0.1l-1.4,1.5l5.9,1.2l-0.4,0.8
	h-2.1l2.9,2.8l0.9-0.4l1.5,1.6l5.2-3.9l-3.9,10l1,0.6l-2.9,10.9l1,1.7l1.3-0.7l1-6.2h1.5l2.1,0.8l-1.4,2.9l1.3,1l3.7-0.7l1.5-7.4
	l1.6-0.8l-0.6,3.9l0.6,2.1l-0.4,8.7l2,0.5l-4.2,18.2l2.5,1.9l6.5,4.8l0.1-3.8l-2.7-2.2l10.6,2.3v-1.6l3.4,0.1l1-3.2l3.1,2l-3.7,10.6
	l4.5,8.3l2.3-1.3v4.4l3-3.6l3.7,0.6l-1.3,4.5l1.1,0.7l-3.7,2.9l-0.8,8.9l7.1,5.6l-4,1.3l-2.1-3l-2.1,0.8l-10.3,2.6L99.9,169h4.2
	l0.4-1.7l6.3-1.7l-0.6,3.3l2.2,2.3l-2.3,1.7l1.3,2.5l1.5,0.4l-22.5,16.6l3.5,0.5l0.2,2.6l-2.5,1.2l4.5,0.8l-1.1,1.1l1.8,1l10.3-4.2
	l0.4,2.2l0.7,1.8l-0.4,1.8l5.2,0.1v-1l2.6-0.7l5.1,6l9-2.3l0.7,8l-21.4-0.1l0.1,2.8l-21.2,23l-2-0.7l-3,2.2v2.8l3.3,0.2l0.1-2.5
	l4,1.1l1.7,3l2-1.9l-0.8-1.4l1.8-2.5l0.9,1.2l14.7-5.8l8.9,4l-0.6-2l2.3-1.1v-5.1l44.6-9.3l2.9,2.8l30.2-6.3l-0.4-2.1l7-3.6l0.3-7
	l-14.8,0.3L193.5,201.4z M85.9,123.6l-1.1-2.2l2-0.3l1-1.8l-5-0.3l2.8-2l-5.8-11.3l-22.9,5.8l-1.1,3.3l-3.8,0.5l-4,8.4l7.8,7.3
	l2.7-0.5l3.2-6.8L78,136.9l1.4-2.3l2.8-2.3l0.3-2.6l4.4,0.6l0.6-3.1l-2.7-0.6L85.9,123.6z"/>
<polyline id="switzerland" class="st9" points="353.9,299.5 338.9,290.4 336.5,292.8 333.6,291.9 331.9,287 327.1,288.8 326,295 
	300.2,296.1 298.8,292.8 293.4,293.2 290.3,297.1 295.2,299.8 276.6,337.2 271,338.4 271.5,342.4 282.4,340.4 280.2,334.2 
	285.6,334.7 292.6,335 298,349 303.1,351 312.3,343.7 318.5,346.6 331.8,340.5 341.7,349.5 348.6,339.2 365,339.7 366,330.3 
	375.2,328.2 372.8,320.2 377.5,314.2 375.6,310 367.8,314 362.8,308.9 "/>
<polygon id="switzerland-border" class="st5" points="303.4,351.8 297.7,349.5 292.3,335.6 281.9,335.2 284.3,341.5 271.1,343.2 
	270.5,337.3 275.8,336.2 294.2,300.3 288.7,298.3 292.4,292.1 300.5,292.1 300.5,295.1 325.6,294.2 326.1,288.3 333.4,286.5 
	334.5,291.4 336.7,292.5 340.3,290 355.2,299.3 359.8,302.8 358.8,304 354.3,300.5 340.3,291.8 336.9,294.3 333.1,292.4 
	332.2,288.3 327.5,289.5 327,295.6 299,296.7 299,293.6 293.2,293.6 290.9,297.5 296.4,299.5 276.8,337.6 272.1,338.5 272.5,341.6 
	282.3,340.3 279.7,333.6 293.3,334.2 298.9,348.3 303.2,350 312.7,342.5 318.8,345.6 332.5,339.5 341.7,348.3 348.4,338.7 
	364.6,338.7 365.6,329.8 374.4,327.8 372.5,320.2 378.2,312.5 379.4,313.3 374.1,320.6 376.2,329 367,331 366,340.2 349.2,340.2 
	341.9,350.5 332.1,341.3 318.8,347.2 312.9,344.3 "/>
<g id="EU-map-titles" transform="translate(27.000000, 160.000000)">
	<g id="UK_2_" transform="translate(98.000000, 0.000000)">
		<text transform="matrix(1 0 0 1 12.495 31)" class="st5 st10 st11">WEAR</text>
		<text transform="matrix(1 0 0 1 0.5 21)" class="st5 st10 st11">READY-TO-</text>
		<text transform="matrix(1 0 0 1 22 10)" class="st5 st12 st11">UK</text>
	</g>
	<g id="france_1_" transform="translate(171.000000, 145.000000)">
		<text transform="matrix(1 0 0 1 0 21)" class="st5 st10 st11">FRAGRANCE</text>
		<text transform="matrix(1 0 0 1 17 10)" class="st5 st12 st11">France</text>
	</g>
	<g id="switzerland_1_" transform="translate(272.000000, 146.000000)">
		<text transform="matrix(1 0 0 1 1 21)" class="st5 st10 st11">WATCHES</text>
		<text transform="matrix(1 0 0 1 0 10)" class="st5 st12 st11">Switzerland</text>
	</g>
	<g id="germany_1_" transform="translate(296.000000, 39.000000)">
		<text transform="matrix(1 0 0 1 0 21)" class="st5 st10 st11">TEXTILES</text>
		<text transform="matrix(1 0 0 1 3 10)" class="st5 st12 st11">Germany</text>
	</g>
	
		<g id="italy_1_" transform="translate(376.642053, 244.560492) rotate(44.000000) translate(-376.642053, -244.560492) translate(345.142053, 233.060492)">
		<text transform="matrix(1 0 0 1 0.4998 21.0001)" class="st5 st10 st11">SUNGLASSES</text>
		<text transform="matrix(1 0 0 1 24.0001 10)" class="st5 st12 st11">Italy</text>
	</g>
	<g id="spain_1_" transform="translate(82.000000, 295.000000)">
		<text transform="matrix(1 0 0 1 0.5 21)" class="st5 st10 st11">SHOES</text>
		<text transform="matrix(1 0 0 1 6 10)" class="st5 st12 st11">Spain</text>
	</g>
	
		<g id="portugal_1_" transform="translate(16.506638, 303.932202) rotate(-79.000000) translate(-16.506638, -303.932202) translate(-5.993362, 292.432202)">
		<text transform="matrix(1 0 0 1 2.480324e-04 20.9999)" class="st5 st10 st11">JEWELRY</text>
		<text transform="matrix(1 0 0 1 5.0001 10)" class="st5 st12 st11">Portugal</text>
	</g>
</g>
</svg>
