<svg id="Layer_1" data-name="Layer 1" xmlns="http://www.w3.org/2000/svg" viewBox="0 0 38.3 58.63"><defs><style>.cls-1{fill:#ac5f6f;stroke:#fff;stroke-miterlimit:10;stroke-width:3px;}.cls-2{opacity:0.3;}.cls-3{opacity:0.5;}.cls-4{fill:#178f98;}</style></defs><path id="marker" d="M640.47,538.74c-7.2-9.36-14.41-18.71-17.8-30.26C618.73,495,627.55,482.89,641,483a19,19,0,0,1,18.54,23.42C657.51,515.49,647.84,532,640.47,538.74Zm9.73-38.18a9.27,9.27,0,0,0-9.28-9.17,9.63,9.63,0,0,0-9.62,9.49,9.51,9.51,0,0,0,9.42,9.12A9.24,9.24,0,0,0,650.2,500.56Z" transform="translate(-621.73 -482.97)"/><path id="circle" class="cls-1" d="M650.33,500.56a9.24,9.24,0,0,1-9.48,9.43,9.51,9.51,0,0,1-9.42-9.12,9.63,9.63,0,0,1,9.62-9.49A9.27,9.27,0,0,1,650.33,500.56Z" transform="translate(-621.73 -482.97)"/><ellipse id="shadow" class="cls-2" cx="19.15" cy="56.37" rx="4.28" ry="2.27"/><path id="progress" class="cls-3" d="M635.82,500.56a1.12,1.12,0,0,1,1.14-1.2,1.2,1.2,0,1,1-1.14,1.2Zm3.93,0a1.12,1.12,0,0,1,1.14-1.2,1.2,1.2,0,1,1-1.14,1.2Zm3.93,0a1.12,1.12,0,0,1,1.14-1.2,1.2,1.2,0,0,1,0,2.39A1.12,1.12,0,0,1,643.68,500.56Z" transform="translate(-621.73 -482.97)"/><path id="done" class="cls-4" d="M651.53,495.52a1,1,0,0,1-.3.72l-7.68,7.68-1.44,1.44a1,1,0,0,1-1.44,0l-1.44-1.44-3.84-3.84a1,1,0,0,1,0-1.44l1.44-1.44a1,1,0,0,1,1.44,0l3.12,3.13,7-7a1,1,0,0,1,1.44,0l1.44,1.44A1,1,0,0,1,651.53,495.52Z" transform="translate(-621.73 -482.97)"/></svg>