<?xml version="1.0" encoding="utf-8"?>
<!-- Generator: Adobe Illustrator 20.0.0, SVG Export Plug-In . SVG Version: 6.00 Build 0)  -->
<svg version="1.1" id="Layer_1" xmlns="http://www.w3.org/2000/svg" xmlns:xlink="http://www.w3.org/1999/xlink" x="0px" y="0px"
	 viewBox="0 0 183.6 103.6" style="enable-background:new 0 0 183.6 103.6;" xml:space="preserve">
<style type="text/css">
	.st0{fill:#FFFFFF;}
</style>
<g>
	<g>
		<path class="st0" d="M65.2,59.6L65.2,59.6c-0.2,0-0.2,0-0.5,0c-0.2,0-0.2,0-0.5,0l-0.1,0l0,0l0.5,1.1l0,0.1l0.1-0.2l0.5-1l0,0
			C65.3,59.6,65.3,59.6,65.2,59.6"/>
		<path class="st0" d="M68.8,59.7c-0.9-0.4-1.4-0.6-2.4-0.9l0-2.2c0.4,0,1.2,0,2.1-0.2C68.5,57.2,68.6,58.7,68.8,59.7"/>
		<path class="st0" d="M65.2,58.6c-0.1,0-0.3,0-0.4,0c-0.2,0-0.3,0-0.5,0l0-2.1c0.2,0,0.6,0,0.8,0h0.1L65.2,58.6z"/>
		<path class="st0" d="M76.2,63.1c-1.2-0.5-4.3-1.8-6.1-2.8c-0.4-1.5-0.5-3.3-0.4-4c0.3,0,1-0.1,2-0.1c1.2,0,2.7,0.2,3.7,1l0,0h0
			c0.7,0.6,1.7,2,1.7,3.6l0,0C77.1,60.7,77.1,61.7,76.2,63.1"/>
		<path class="st0" d="M67.4,74.5c-0.3-0.3-0.2-1-0.1-1.6c0.1-0.4,0.1-0.8,0-1.1c0,0-0.1-0.5,0.7-1.1l0.1,0l-0.1,0
			c0.1-0.1,0.4-0.3,0.6-0.6c1.1-1,1.5-1.4,1.6-1.7c0.3-0.8-0.6-1.4-1-2.1c-0.3-0.5-0.4-1.4-0.4-1.7c0.3-0.1,0.7-0.3,1-0.3
			c0.6,0,1.2,0.3,1.6,1c-0.2,0.4-0.7,1.2,0.2,2.2l0,0.1c0,0,0.3,0.3,0.2,0.5c0,0.1,0,0.3-0.2,0.4c-0.4,0.2-2.9,2.1-3,2.8
			c0,0,0,0.1,0,0.1c0,0.1,0,0.3-0.1,0.3c-0.1,0.1-0.3,0.3-0.3,0.3c-0.1,0,0-0.1-0.1,0.1c0,0.1,0,0,0.1,0.2c0.1,0.2,0.4,0.6,0.4,0.7
			c0,0.2-0.7,1.4-1.4,1.5C67.6,74.6,67.4,74.5,67.4,74.5"/>
		<path class="st0" d="M58.4,75.6c-0.3,0-0.3-0.1-0.3-0.1c0.1-0.4,0.3-0.8,0.7-1.2c0.1-0.1,0.2-0.3,0.3-0.4c0.1-0.1,0.1-0.1,0.1-0.2
			c0-0.1,0.1-0.2,0.1-0.3c0.4-0.5,0.3-3.1,0-3.9c-0.1-0.1-0.3-1.4-0.2-1.7c0.1-0.6-0.2-1.4-0.5-2.1l0.1-0.1c0.4-0.2,1.5-0.9,1.7-1.8
			c0.1-0.4,0-0.7-0.3-1.1L60,62.5l0,0.4c-0.1,1.4-2.4,2.4-5.9,3.8c-0.6,0.2-0.6,1.2-0.7,1.9c-0.1,1.1,0.1,2.3,0.5,2.5
			c0.1,0,0.2,0.1,0.2,0.3c0.1,0.1-0.1,0.3,0,0.5c0,0,0.1,0.1,0.2,0.1h0c0.1,0,0.2,0,0.3,0c0.1,0,0.3,0,0.4,0c0.2,0,0.1,0,0.2,0.4
			c0.1,0.6,0.1,1.6-0.5,1.4c-0.4,0-1-0.9-1.4-1.3c-0.1-0.1-0.7-0.5-0.7-1.1c0-0.5-0.1-1.2-0.2-2.1c-0.1-0.9-0.3-2.3-0.2-2.5
			c0.2-0.4,1.3-1.3,2.1-1.9c0.5-0.4,1-0.8,1.2-1l0,0c0.1-0.1,0.2-0.2,0.2-0.5c0-0.3-0.1-0.6-0.3-0.8c-0.2-0.4-0.5-0.9-0.4-1.6
			c2.5-1.2,5.4-3.3,7-4.8c0.2,0,0.5,0.2,1,0.2l0,2.3c-1.6,0.3-4.1,1.9-5,3.1C58,62,58,62.2,58,62.2l0,0l0,0c0,0.1,0.1,0.2,0.2,0.2
			c0.1,0,0.2,0,0.3-0.1c1.8-1.7,4.2-2.3,4.7-2.4l1,1.7c0,1.6,0,2.2,0,2.6c0,0.1,0,0.4,0,0.6h-0.1c-1.2,0-2-0.1-2.8-0.3
			c0,0-0.6,2.6-0.6,3c0.1,0.5,0,1.9-0.1,2.1c-0.3,0.9-0.2,2.9,0.1,3.8c0.1,0.2-0.1,0.5-0.3,0.7c0,0-0.1,0.1-0.2,0.1
			c-0.1,0-0.1,0-0.3,0.1c0,0-0.1,0.2,0,0.4c0,0.1,0,0,0,0c0.1,0.2,0,0.3-0.1,0.4C59.6,75.5,58.9,75.6,58.4,75.6"/>
		<path class="st0" d="M65.4,64.2c0-0.5,0-1,0-2.6c0.1-0.2,0.6-1.2,0.9-1.6c0.4,0.1,1.7,0.4,2.8,1.2c0.1,0.3,0.4,1,1.2,2.3
			c-0.2,0-0.4-0.1-0.6-0.1c-0.8,0-1.6,0.3-2.4,0.6c-0.6,0.2-1.2,0.5-1.9,0.6V64.2z"/>
		<path class="st0" d="M79.1,63.9c-0.7-0.1-1.3-0.3-1.9-0.4c1.3-2.6,0.6-4.2-0.5-5.9C78.6,58.5,79.4,59.8,79.1,63.9"/>
		<path class="st0" d="M52,59.1c-0.1-0.9,0.8-2.2,1.1-3c0.4-0.8,0.5-1.2,0.5-1.2c0.2-0.2,0.5-0.3,0.7-0.4c0.1-0.1,0.4-0.1,0.6-0.3
			c0.2,1,0.1,1.8-0.2,2.7C54.2,57.2,52.6,58.5,52,59.1"/>
		<path class="st0" d="M46.8,72.8c0-0.4,0-1.7,0-2.1c0.1-0.4,0.3-1.5,0.3-1.7c0,0,0.1-0.3,0.1-0.4c0.4-1.2,0.8-2.5,0.8-2.8
			c0-0.3,0.3-0.6,0.6-0.8c0,0,0.2-0.1,0.4-0.1c2.9-0.9,3.7-1.4,4-2c0.1-0.2-0.1-0.3-0.2-0.5c-0.3-0.5-0.7-1.2-0.5-1.8
			c0.3-0.5,1.4-1.6,2.2-2.2c-0.8,3.1-0.4,4.1,0,5c-0.2,0.2-1.1,1-1.6,1.5c-0.2,0.2-0.4,0.4-0.5,0.5c-2.5,0.3-2.3,0.4-2.6,0.6
			c-0.6,0.4-1.3,2.2-1.7,3.5c0,0.1-0.1,0.2,0.2,0.5c0.1,0.1,0.1,0.5,0,0.6c0,0-0.1,0.1-0.1,0.2c-0.2,0.1-0.1,0,0,0.1L48,71
			c0,0.1,0.1,0.6,0,1C47.9,72.3,47.3,72.6,46.8,72.8"/>
		<path class="st0" d="M65.4,74c-0.2-0.4-0.2-1.1-0.1-1.6c0.1-0.4,0.1-0.8,0-1.1c0,0,0-0.6,0.7-1.1c0.1-0.1,0.2-0.2,0.4-0.3
			c0.8-0.7,1.5-1.3,1.5-1.7c0-0.6-0.3-0.9-0.6-1.3c-0.3-0.4-0.6-0.8-0.7-1.3c0.1,0,0.4-0.1,0.5-0.2c0.2-0.1,0.6-0.2,0.9-0.3
			c0,0.9,0.7,2,1.3,2.7c0.1,0.1,0.2,0.3,0,0.7c-0.1,0.1-0.3,0.3-0.5,0.4c-1.2,0.8-2,1.7-2,2.1c0,0.1,0,0.3,0,0.3
			c0,0.3-0.1,0.4-0.5,0.5c-0.1,0-0.1,0-0.1,0c0,0.2,0,0.4,0.3,0.7c0.1,0.1,0.2,0.2,0.2,0.3C66.6,73.3,66,74,65.4,74L65.4,74z"/>
		<path class="st0" d="M56.4,75.1c-0.7-0.1-0.8-0.2-0.9-0.3c0.1-0.1,0.3-0.5,0.5-0.7c0.3-0.4,0.5-0.5,0.5-0.5c0.7-0.3,1-1.2,1-2.2
			c0-0.2-0.1-1.6-0.5-2.6c-0.1-0.2-0.2-0.3-0.3-0.6c-0.3-0.4-0.6-0.8-0.7-1.3c0.9-0.4,1.5-0.7,1.9-0.8c0,0,0.1,0.3,0.2,0.7
			c0.2,0.6,0.3,1.3,0.2,1.8c-0.2,1.1,0.1,3.6,0.3,4.1c0,0.1,0,0.5-0.1,0.7c0,0.1-0.1,0.2-0.4,0.2l0,0c-0.1,0-0.2,0-0.3,0.2
			c-0.1,0.2-0.1,0.3,0,0.6c0,0.3-0.2,0.7-0.3,0.7C57.4,75,56.8,75.1,56.4,75.1"/>
		<path class="st0" d="M80.3,63.1c0.1-2.2-0.3-3.9-1.6-5.2c-0.8-0.8-1.6-1.1-2.8-1.2c0,0-0.3-0.2-0.3-0.2c0.5-0.4,1.4-0.7,2-0.7
			c1.9,0,3.8,2,5.2,6.3L80.3,63.1z"/>
		<path class="st0" d="M74.8,75c-0.2,0-0.5,0-0.6-0.1c0-0.1,0.2-0.6,0.5-1c0.1-0.1,0.8-1,0.8-1.6c0-2.5-1-4.3-2.9-5.2
			c-0.1-0.2-0.5-0.6-0.1-1.3c0.7,0.7,1.6,1.3,2.1,1.6c1.2,0.7,1.4,1,1.5,1c-0.2,1.3,0.3,2.6,0.6,3.4c0.1,0.2,0.2,0.5,0.2,0.6
			c0.1,0.4-0.2,0.8-0.5,0.8l-0.1-0.2l0.1,0.2c0,0-0.2,0.1-0.3,0.3c-0.1,0.2,0,0.3,0.2,0.5c0,0.1,0.1,0.5,0,0.6
			C76,74.9,75.4,75,74.8,75L74.8,75z"/>
		<path class="st0" d="M53.9,49.6c-0.1-0.1-0.9-0.4-1.6-0.4c0.1-0.1,0.2-0.2,0.5-0.3l0.2-0.1c0,0-0.1-0.1-0.2-0.1
			c0,0-0.3-0.2-0.3-0.6c0-0.1-0.2-0.7-0.1-0.8c0.4,0.3,1.4,0.9,1.7,1.1C54.2,49,54,49.4,53.9,49.6"/>
		<path class="st0" d="M50.5,53.2c0,0,0.1-0.1,0.1-0.2c0.2-0.4,0.6-1.2,0.7-1.7c0-0.3,0.2-0.9,0.6-1.5c0.2,0,1.7,0.5,1.7,0.6
			c0,0.1-0.3,0.6-0.4,0.7l-0.7-0.3c0,0-0.1,0-0.1,0c-0.1,0-0.1,0-0.2,0.1c0,0,0,0.2-0.5,1c0,0.1,0,0.2,0.1,0.3l0.7,0.3
			c-0.2,0.4-0.7,1.2-1,1.5L50.5,53.2z"/>
		<path class="st0" d="M50.9,55.6c-0.2,0-0.6-0.1-0.7-0.3c-0.3-0.3-0.3-1-0.3-1.1c0,0,0,0,0-0.1c0-0.1,0-0.4,0.2-0.4
			c0.4,0.5,1.4,1.1,1.8,1.3C51.8,55.5,50.9,55.6,50.9,55.6"/>
		<path class="st0" d="M63.2,55.8c-1.3-0.4-2.3-1.4-2.6-2.6c0,0,0-0.1,0-0.1c-1-2.6-2-5.1-5.3-5.2c-0.2,0-0.3,0-0.5,0
			c0,0-0.4,0-0.6-0.3c0,0,1-0.5,2.4-0.4c3.7,0.3,4.7,3.3,5.3,5.7c0.2,0.9,0.7,2,1.5,2.6V55.8z"/>
		<path class="st0" d="M55.4,59.5c0.5-2.3,1.3-5.6,0-7l-0.1-0.1l-0.1,0.1c-0.1,0.2-0.6,0.6-0.8,0.8c-0.2,0.1-0.4,0.2-0.6,0.3
			c-0.1,0-1.1,0.5-1.2,0.6c1.7-1.9,2.8-4.2,2.8-5.6c1.5,0.3,2.9,1.7,3.4,2.9c0.1,0.2,0.2,0.5,0.3,0.8c0.4,1.2,1,2.8,2,3.5
			C60.3,56.4,58,58.2,55.4,59.5"/>
		<path class="st0" d="M49.8,55.9L49.8,55.9c-0.7-0.1-0.6-1.9-0.6-1.9c0,0,0,0,0,0s-0.6,0-0.6,0c0,0,0,0,0-0.1c0,0-0.1-0.7-0.2-1.1
			c0-0.1,0.1-0.2,0.2-0.2c0.3-0.1,1-0.2,1-0.2c0,0,0,0,0,0c0-0.1,0-0.4-0.1-0.6c-0.8,0-1.8,0.3-2,0.4c0,0,0,0,0,0
			c-0.2,1.2,0.4,1.5,0.4,1.5c0.4,0.4,0.7,1.9,0.8,2.1C49,56,49.6,55.9,49.8,55.9"/>
		<path class="st0" d="M51.3,56.7L51.3,56.7L51.3,56.7c0-0.2-0.1-0.3-0.1-0.3c-0.7,0.2-1.9,0.4-2.3,0.3c0,0,0,0,0,0h0
			c0,0,0,0.1,0.1,0.3c0.1,0.6,0.1,0.9,0.8,0.9c0,0,1.3,0,1.3-0.7C50.9,57,51.3,56.9,51.3,56.7"/>
		<path class="st0" d="M47.4,50.5L47.4,50.5C47.4,50.5,47.4,50.5,47.4,50.5c-0.3-0.1-1-0.5-1.4-0.5h0l0,0c-0.1,0,0.4,0.8,0.9,1.2
			C47,51.1,47.3,50.7,47.4,50.5"/>
		<path class="st0" d="M47.6,51.4c0,0,0,0.1,0,0.1c0.1,0,0.4-0.2,0.7-0.2c0.2,0,0.4-0.1,0.6-0.1c0.2,0,0.4,0,0.6-0.1
			c0,0,0-0.1,0-0.1h0c-0.6-0.8-1.5-2.2-1.5-2.2s0,0,0,0c0,0,0,0,0,0s-0.1,0.1-0.1,0.4c-0.1,0.8,0.4,1.4,0.4,1.5c0,0,0,0,0,0
			C47.8,51,47.6,51.2,47.6,51.4"/>
		<polygon class="st0" points="98.4,53.3 98.2,51 99.4,51 99.2,53.3 		"/>
		<path class="st0" d="M50.4,51.6c0-0.3-0.1-0.8-0.3-1.3c-0.1-0.2-0.5-0.6-0.9-1c0.3-0.3,1.3-0.9,2.6-0.9c0,0,0.3,0,0.3,0
			c-0.8,0.4-1,0.8-1.2,1.2c-0.3,0.6-0.3,0.7-0.3,0.8C50.5,51,50.4,51.6,50.4,51.6"/>
		<path class="st0" d="M113.5,61.8c0.9-1.2,2.8-3.4,7.1-3.4c0,0,0,0,0,0c0,0,0.1,0,0.1-0.2c0-0.2-0.1-0.2-0.1-0.2
			c-0.9,0-2.5,0.2-3.3,0.3c-0.3,0-0.6,0-0.8,0c-0.4-0.1-0.8-0.5-0.8-1.1c0-0.1,0-3.4,0-4.6h1.1l0.1,1.9h0.4c0.5,0,0.6,0.5,0.6,0.5
			l0.1,0.6h0.3l0.1-0.6c0,0,0.1-0.5,0.6-0.5h0.4l0.4-4.5h-0.7c-0.5,0-0.5-0.3-0.5-0.3s0-0.3-0.4-0.3c-0.3,0-0.4,0.3-0.4,0.3
			s0,0.3-0.5,0.3h-0.7l0.2,1.9h-1c0-0.2,0-2.8,0-2.9v0h0.3c0,0,0.1,0,0.1-0.1c0-0.1,0-0.2,0-0.2c0,0-3.9-0.7-10.3-0.7
			c-6.3,0-10.2,0.8-10.2,0.8c0,0,0,0.1,0,0.2c0,0.1,0.1,0.1,0.1,0.2h0.3v7.8c0,0.1,0,1.3-0.3,1.6c0,0-0.1,0.1-0.2,0.1
			c-0.1,0-0.2-0.1-0.2-0.1c-0.2-0.4-0.6-1.4-0.6-1.5l0,0H95c0,0,0.1-0.1,0.1-0.2s-0.1-0.2-0.1-0.2h-1.9c1.5-0.3,1.7-1,1.7-1.8
			c0.1-3.2-0.1-4.1-0.2-5c-0.1-0.3-0.2-0.4-0.2-0.4l-1.9,2.2l-0.2,0.3l-0.1,0.8l-2.2,0.2l0.1,1.1l2.1-0.1l-0.2,0.3
			c0,0-1.5,0.2-1.7,0.3c0,0,0,0.2,0,0.2c-0.6,0.1-3,0.4-3.2,0.9c-0.2,0.5-1.1,2.3-1.2,2.6c-0.2,0.5-0.7,1-0.9,1.1
			c-0.3,0.2-0.9,0-1.1-0.2c-0.1-0.1-0.3-0.3-0.4-0.2c-0.1,0.1-0.2,0.2-0.2,0.3c-0.2-0.2-0.5-0.4-0.7-0.6c0,0-0.2,0-0.3,0.1
			c-0.1,0.1,0,0.2,0,0.2c0.5,0.4,1,0.9,1.5,1.5c1.3,1.4,2.7,2.9,4.4,3.3c-1.6,0.6-3.5,1.5-6,1.4c-0.1,0-0.2,0-0.3,0
			c-3.7-0.1-7.2-1.1-11-3.2c1.2,3,3.4,4.6,5.1,5.6c1.1,0.7,2,1.2,2.2,2c0.4,1.2,0.3,3,0.2,3.6c0,0.2-0.3,0.6-0.6,1
			c-0.4,0.4-0.8,1.1-0.7,1.4c0.1,0.1,0.4,0.2,1.1,0.2c0.1,0,0.2,0,0.2,0c0,0,0.1,0,0.1,0c0.1,0,0.3,0,0.3-0.1c0-0.1,0.2-0.4,0.1-0.6
			c0,0,0-0.1-0.2-0.2c0,0,0,0,0,0c-0.1-0.2-0.1-0.2,0-0.3c0.1-0.1,0.1-0.1,0.3-0.2l0,0c0.1,0,0.3-0.1,0.4-0.2
			c0.1-0.1,0.2-0.3,0.1-0.4c-0.3-0.7-0.3-4.5-0.3-4.9l0-0.1v-0.3c-0.1-0.7-0.4-0.8-0.6-0.9c-1.2-0.6-2.1-2-2.2-2.5l0-0.1
			c0.9,0.3,2.8,0.8,5.3,0.8c2.3,0,4.1-0.5,5.8-1.1c0.7-0.2,1.3-0.5,2-0.7c1-0.3,2.1-0.4,3.4-0.4c3.3,0,4.7,1.4,5.5,1.8
			c1.7,0.9,3.6,1.7,6.3,1.9l-0.1,1.8c0,0.1,0,0.2-0.1,0.2h-1.8c0,0,0,0.1,0,0.3c0,0.1,0,0.2,0,0.2s0.2,0.3,0.3,0.3c0.7,0,5.4,0,6,0
			c0.1,0,0.3-0.3,0.3-0.3s0-0.1,0-0.2c0-0.1,0-0.3,0-0.3h-2c-0.1,0-0.1-0.1-0.1-0.2l0-1.7c2.7-0.2,4.4-1.1,4.5-1.1
			C111.4,65.9,111.9,63.9,113.5,61.8 M117.3,50.9h1.4l-0.2,2.8l-1,0L117.3,50.9z M106.4,67l-0.1,1.7c0,0.1,0,0.2-0.1,0.2h-1.2
			c0,0-0.1-0.1-0.1-0.1c0,0,0,0,0,0l0-1.8C105.2,67.1,106.2,67.1,106.4,67 M110.8,65.3c0,0-2.1,1-5.1,1c-1.4,0-2.7-0.1-3.9-0.5
			c-1.2-0.4-5.4-2.1-5.4-7.2l0-0.5h5.4v-8.8l7.9,0v8.8h5.3l0.8,0.6C111.9,61.1,110.8,65.3,110.8,65.3 M97.4,50.1h0.7
			c0.4,0,0.4-0.3,0.4-0.3s0-0.3,0.3-0.3c0.3,0,0.3,0.3,0.3,0.3s0,0.3,0.4,0.3h0.7l-0.3,4h-0.3c-0.4,0-0.6,0.4-0.6,0.4l-0.1,0.5h-0.2
			l-0.1-0.5c0,0-0.1-0.4-0.5-0.4h-0.4L97.4,50.1z M90.9,61.7L90.9,61.7c-0.2-0.5-0.7-2.3-0.8-2.6c-0.1-0.4-0.6-1.6-0.7-1.7
			c0,0-0.4,0.2-0.4,0.2s-0.6-0.5-0.3-0.8c0.3-0.4,2.2-0.2,2.6-0.1l0,3.6C91.2,60.2,91.2,60.9,90.9,61.7 M87.9,62.7
			c0,0.1,0,0.2,0.1,0.3c-1-0.1-2-0.9-2.9-1.8c0.1-0.1,2.3-2.6,2.4-2.7c0.3,0.4,1.1,1.4,1.2,1.7c1,1.5,0.3,2-0.3,2.3
			C88.3,62.5,87.9,62.5,87.9,62.7"/>
		<path class="st0" d="M84.3,47.9c0.3,0.1,0.7,0.3,1,0.4l3,4.7h0h-0.1c-0.2,0-0.5,0-0.5,0.2c0.1,0.2,0.3,0,0.5,0.4
			c0.2,0.6,1.2,0.4,1.2,0.4L89,53h-0.3l-2.8-4.5c1.5,0.6,2.8,1.2,3.4,1.9c0,0,0.1,0,0.1,0c0.1,0,0.1,0,0.1-0.1c0,0,0-0.1,0-0.1
			c-0.7-0.9-2.1-1.6-4-2.4l-1.4-2.3c0,0,0,0,0-0.1c-2.4-3.9-4.5-4.2-5-4.2c0,0-0.1,0-0.1,0c-0.5,0-0.9,0.2-1.1,0.6
			c-0.3,0.6-0.1,1.5,0.6,2.5C79.4,45.9,81.9,46.9,84.3,47.9 M84.4,47.5c-2.3-0.9-4.7-1.9-5.6-3.2c-0.6-0.8-0.8-1.6-0.5-2
			c0.1-0.2,0.4-0.4,0.7-0.4h0.1c1,0,2.8,1.1,4.6,4c0,0,0,0,0,0l1.1,1.8C84.7,47.6,84.6,47.5,84.4,47.5"/>
		<path class="st0" d="M93,49.5L92.9,49l1-0.4c-0.1-0.1,0-0.2,0.1-0.3c0.1-0.1,0.6-0.6,0.6-0.7c0.2-0.8-0.9-1.3-1.7-1.2
			c-0.2,0-0.8,0.1-1.2,0c-0.1,0-0.3,0-0.3,0l-0.1,0.2c0,0.1,0.5,0.6,0.7,0.9c0.2,0.2-0.4,0.7-0.2,0.8c0,0,0.1,0,0.2,0
			c0,0,0,0.2,0,0.2c0,0,0.1,0.1,0.1,0.1c0,0,0,0.4,0,0.4c0.1,0.1,0.6,0.2,0.6,0.2c0,0,0,0,0,0.1c0,0-0.2,0.1-0.2,0.1
			c-0.1,0-0.2,0.2-0.1,0.3c0.1,0.1,0.3,0.2,0.3,0.2c-0.1,0.1-0.4,0.1-0.4,0.5c0,0.3,0.1,1.2,0.1,1.4l0.3-0.2l0.2-1.7L93,49.5z"/>
		<path class="st0" d="M101.6,64.7v-5.6h-4.2C97.5,62.8,100.7,64.3,101.6,64.7"/>
		<path class="st0" d="M109.8,64.7c0.1,0,0.1,0,0.2-0.1c1.2-3.1,3-4.8,3.8-5.5c-1.3,0-3,0-4,0V64.7z"/>
		<path class="st0" d="M102.8,50.4l0,14.6c1,0.3,1.9,0.4,3,0.4c0.1,0,1.9,0,2.9-0.4c0-3.5,0-13.2,0-14.6H102.8z M107,59.3
			c0,0.3-0.1,0.5-0.2,0.5l0,0h-1.9l0-0.1c0,0-0.1-0.2-0.1-0.4v-0.4h2.3V59.3z M107.6,58l-0.2,0c0,0-0.4,0-1.8,0c-1.3,0-1.7,0-1.7,0
			l-0.2,0v-6.6h3.8V58z"/>
		<path class="st0" d="M92.6,64.3c-3.2,0-5.9,2.6-5.9,5.9s2.6,5.9,5.9,5.9c3.2,0,5.9-2.6,5.9-5.9S95.9,64.3,92.6,64.3 M93.1,69.3
			C93.1,69.3,93,69.3,93.1,69.3C93,69.3,93,69.3,93.1,69.3l-0.2-4.1c0,0,0,0,0,0c1.1,0.1,2.2,0.5,3.1,1.3c0,0,0,0,0,0L93.1,69.3z
			 M93,71.1L93,71.1C93,71,93,70.9,93,71.1l3,2.8v0c-0.9,0.8-2,1.2-3.1,1.3L93,71.1z M97.6,69.9l-4.2-0.1c0,0,0,0,0,0c0,0,0,0,0,0
			l2.9-3c0,0,0,0,0,0h0C97.1,67.6,97.6,68.7,97.6,69.9C97.7,69.9,97.7,69.9,97.6,69.9 M96.4,73.5L96.4,73.5l-2.9-3l0,0l0,0v0
			c0,0,0,0,0,0l4.2-0.1c0,0,0,0,0,0c0,0.9-0.3,1.8-0.8,2.5C96.7,73.1,96.5,73.3,96.4,73.5 M91.8,69.8C91.9,69.8,91.8,69.8,91.8,69.8
			l-4.2,0.1c0-0.6,0.2-1.2,0.4-1.7c0.2-0.5,0.5-1,0.9-1.4h0h0l2.8,2.8L91.8,69.8z M92.3,71C92.3,71,92.3,70.9,92.3,71l0.1,4.1
			c-1.1-0.1-2.2-0.5-3.1-1.3L92.3,71z M92.3,69.3C92.3,69.3,92.3,69.3,92.3,69.3L92.3,69.3l-3-2.9c0,0,0,0,0,0
			c0.9-0.8,1.9-1.2,3.1-1.3c0,0,0,0,0,0L92.3,69.3z M91.8,70.5C91.9,70.5,91.8,70.5,91.8,70.5l-2.9,3c-0.8-0.8-1.2-1.9-1.3-3.1
			L91.8,70.5z"/>
		<path class="st0" d="M120.7,59.5C120.7,59.5,120.6,59.5,120.7,59.5L120.7,59.5c-2.3,0-4.3,0.9-5.9,2.4c-1.6,1.6-2.4,3.6-2.4,5.8
			c0,2.1,0.8,4.2,2.3,5.7c0.1,0.1,0.2,0.2,0.3,0.3l0,0c1.5,1.5,3.6,2.2,5.7,2.2c4.6,0,8.3-3.7,8.3-8.3
			C128.9,63.2,125.2,59.5,120.7,59.5 M125.7,62.4l-4.5,4.4l-0.1,0.1c0,0,0,0,0,0c0,0,0-0.1,0-0.1l-0.1-6.4
			C122.7,60.5,124.4,61.2,125.7,62.4L125.7,62.4L125.7,62.4z M121.1,68.9C121.1,68.9,121.1,68.8,121.1,68.9
			C121.2,68.9,121.2,68.9,121.1,68.9l4.6,4.4c-1.3,1.2-2.9,1.8-4.6,1.9C121,75.2,121.1,68.9,121.1,68.9 M121.7,67.5
			C121.7,67.5,121.7,67.4,121.7,67.5C121.7,67.4,121.7,67.4,121.7,67.5C121.7,67.4,121.7,67.4,121.7,67.5l4.4-4.6
			c1.2,1.3,1.8,3,1.9,4.7L121.7,67.5z M121.7,68.3C121.7,68.3,121.7,68.3,121.7,68.3C121.7,68.3,121.7,68.3,121.7,68.3
			C121.7,68.3,121.7,68.2,121.7,68.3l6.4-0.1c-0.1,1.7-0.8,3.4-2,4.6L121.7,68.3z M120.3,66.7C120.3,66.7,120.3,66.9,120.3,66.7
			L120.3,66.7l-4.6-4.4c1.3-1.2,2.9-1.9,4.7-2L120.3,66.7z M120.2,68.9L120.2,68.9C120.2,68.9,120.3,68.8,120.2,68.9l0.2,6.3
			c-1.7-0.1-3.4-0.8-4.6-1.9L120.2,68.9z M119.6,67.3L119.6,67.3c0.1,0.2,0,0.1,0,0.1l-6.3,0.1c0.1-1.7,0.7-3.4,1.9-4.7L119.6,67.3z
			 M113.3,68.2l6.3,0.1c0,0,0.1,0,0.1,0c0,0,0,0,0,0l-4.4,4.5C114.1,71.5,113.4,69.9,113.3,68.2L113.3,68.2L113.3,68.2z"/>
	</g>
	<g>
		<g>
			<path class="st0" d="M108.9,92.3c0-1.8-1.4-2.9-3.8-2.9H99v9.3h1.4v-3.4h4.2l2.8,3.4h1.8l-2.8-3.5
				C107.2,94.9,108.9,94.3,108.9,92.3 M100.4,90.7h4.7c1.5,0,2.3,0.5,2.3,1.6c0,0.7-0.4,1.6-2.3,1.6h-4.7V90.7z"/>
		</g>
		<g>
			<polygon class="st0" points="121.3,96.6 113.5,89.4 112.2,89.4 112.2,98.6 113.6,98.6 113.6,91.4 121.4,98.6 122.7,98.6 
				122.7,89.4 121.3,89.4 			"/>
		</g>
		<g>
			<polygon class="st0" points="126,98.6 135.5,98.6 135.5,97.3 127.5,97.3 127.5,94.5 134.9,94.5 134.9,93.2 127.5,93.2 
				127.5,90.7 135.5,90.7 135.5,89.3 126,89.3 			"/>
		</g>
		<g>
			<polygon class="st0" points="147.4,89.3 143.6,93.8 139.7,89.3 137.9,89.4 142.8,95 142.8,98.6 144.3,98.6 144.3,95.1 
				149.2,89.4 			"/>
		</g>
		<g>
			<polygon class="st0" points="53.8,89.3 50,93.8 46.1,89.3 44.3,89.4 49.2,95 49.2,98.6 50.7,98.6 50.7,95.1 55.6,89.4 			"/>
		</g>
		<g>
			<path class="st0" d="M76.7,89.1c-3.5,0-6.3,2.1-6.3,4.8c0,2.6,2.8,4.8,6.3,4.8c3.5,0,6.3-2.1,6.3-4.8
				C83,91.2,80.2,89.1,76.7,89.1 M76.7,97.3c-2.6,0-4.8-1.6-4.8-3.4c0-1.9,2.2-3.4,4.8-3.4c2.6,0,4.8,1.6,4.8,3.4
				C81.5,95.7,79.3,97.3,76.7,97.3"/>
		</g>
		<g>
			<path class="st0" d="M95.9,93.9L95.9,93.9C95.9,93.9,95.9,93.8,95.9,93.9l0-4.5h-1.5v4.5h0c0,1.9-1,3.4-3.6,3.4
				c-2.6,0-3.6-1.6-3.6-3.4h0v-4.5h-1.5v4.5c0,0,0,0,0,0h0c0,0,0,0,0,0c0,0,0,0,0,0l0,0c0,2.6,1.6,4.7,5.1,4.7v0c0,0,0,0,0,0
				s0,0,0,0v0C94.3,98.6,95.9,96.5,95.9,93.9L95.9,93.9C95.9,93.9,95.9,93.9,95.9,93.9C95.9,93.9,95.9,93.9,95.9,93.9z M95.9,93.9
				L95.9,93.9L95.9,93.9L95.9,93.9z"/>
		</g>
		<path class="st0" d="M65.8,89.4V95c0,0.7-0.1,1.1-0.3,1.3c-0.3,0.4-0.8,0.7-1.3,0.7c-0.7,0-1.3-0.4-1.6-0.9l-1.5,0.6
			c0.5,1.2,1.7,1.9,3.1,1.9c1.2,0,2.4-0.7,2.9-1.7c0.3-0.5,0.4-1.1,0.4-2v-5.6H65.8z"/>
		<polygon class="st0" points="42.1,98.6 42,89.4 40.9,89.4 37.5,94.1 37.5,94.2 37.5,94.1 34.2,89.4 33,89.4 33,98.6 34.3,98.6 
			34.3,92.1 37.1,96.2 36.5,96.2 38,96.2 38.1,96.2 40.7,92.1 40.7,98.6 		"/>
		<polygon class="st0" points="38,93.4 37.4,94.3 37.8,94.5 38.5,93.9 		"/>
		<polygon class="st0" points="37,93.4 37.6,94.3 37.2,94.5 36.5,93.9 		"/>
		<polygon class="st0" points="36.5,95.3 37.5,97.2 38.8,95.2 		"/>
	</g>
	<g>
		<path class="st0" d="M148.1,50.9c-0.1,0-0.2,0.1-0.2,0.2v15c0,0.1,0.1,0.2,0.2,0.2c0.1,0,0.2-0.1,0.2-0.2v-15
			C148.3,51,148.2,50.9,148.1,50.9z"/>
		<path class="st0" d="M136.8,31.3c0.1,0,0.2-0.1,0.2-0.2v-1c0-0.1-0.1-0.2-0.2-0.2s-0.2,0.1-0.2,0.2v1
			C136.7,31.3,136.8,31.3,136.8,31.3z"/>
		<path class="st0" d="M135,31.3c0.1,0,0.2-0.1,0.2-0.2v-1c0-0.1-0.1-0.2-0.2-0.2c-0.1,0-0.2,0.1-0.2,0.2v1
			C134.9,31.3,134.9,31.3,135,31.3z"/>
		<path class="st0" d="M133.2,31.3c0.1,0,0.2-0.1,0.2-0.2v-1c0-0.1-0.1-0.2-0.2-0.2c-0.1,0-0.2,0.1-0.2,0.2v1
			C133.1,31.3,133.1,31.3,133.2,31.3z"/>
		<path class="st0" d="M131.6,30.2c0-0.1-0.1-0.2-0.2-0.2c-0.1,0-0.2,0.1-0.2,0.2v1c0,0.1,0.1,0.2,0.2,0.2c0.1,0,0.2-0.1,0.2-0.2
			V30.2z"/>
		<path class="st0" d="M135.9,33.2c0.1,0,0.2-0.1,0.2-0.2v-1c0-0.1-0.1-0.2-0.2-0.2c-0.1,0-0.2,0.1-0.2,0.2v1
			C135.8,33.1,135.8,33.2,135.9,33.2z"/>
		<path class="st0" d="M134.1,33.2c0.1,0,0.2-0.1,0.2-0.2v-1c0-0.1-0.1-0.2-0.2-0.2c-0.1,0-0.2,0.1-0.2,0.2v1
			C134,33.1,134,33.2,134.1,33.2z"/>
		<path class="st0" d="M132.3,33.2c0.1,0,0.2-0.1,0.2-0.2v-1c0-0.1-0.1-0.2-0.2-0.2c-0.1,0-0.2,0.1-0.2,0.2v1
			C132.2,33.1,132.2,33.2,132.3,33.2z"/>
		<path class="st0" d="M136.7,34.8c0,0.1,0.1,0.2,0.2,0.2s0.2-0.1,0.2-0.2v-1c0-0.1-0.1-0.2-0.2-0.2s-0.2,0.1-0.2,0.2V34.8z"/>
		<path class="st0" d="M134.9,34.8c0,0.1,0.1,0.2,0.2,0.2c0.1,0,0.2-0.1,0.2-0.2v-1c0-0.1-0.1-0.2-0.2-0.2c-0.1,0-0.2,0.1-0.2,0.2
			V34.8z"/>
		<path class="st0" d="M133.1,34.8c0,0.1,0.1,0.2,0.2,0.2c0.1,0,0.2-0.1,0.2-0.2v-1c0-0.1-0.1-0.2-0.2-0.2c-0.1,0-0.2,0.1-0.2,0.2
			V34.8z"/>
		<path class="st0" d="M131.6,33.8c0-0.1-0.1-0.2-0.2-0.2c-0.1,0-0.2,0.1-0.2,0.2v1c0,0.1,0.1,0.2,0.2,0.2c0.1,0,0.2-0.1,0.2-0.2
			V33.8z"/>
		<path class="st0" d="M135.8,36.6c0,0.1,0.1,0.2,0.2,0.2c0.1,0,0.2-0.1,0.2-0.2v-1c0-0.1-0.1-0.2-0.2-0.2c-0.1,0-0.2,0.1-0.2,0.2
			V36.6z"/>
		<path class="st0" d="M134,36.6c0,0.1,0.1,0.2,0.2,0.2c0.1,0,0.2-0.1,0.2-0.2v-1c0-0.1-0.1-0.2-0.2-0.2c-0.1,0-0.2,0.1-0.2,0.2
			V36.6z"/>
		<path class="st0" d="M132.2,36.6c0,0.1,0.1,0.2,0.2,0.2c0.1,0,0.2-0.1,0.2-0.2v-1c0-0.1-0.1-0.2-0.2-0.2c-0.1,0-0.2,0.1-0.2,0.2
			V36.6z"/>
		<path class="st0" d="M135.8,40.2c0,0.1,0.1,0.2,0.2,0.2c0.1,0,0.2-0.1,0.2-0.2v-1c0-0.1-0.1-0.2-0.2-0.2c-0.1,0-0.2,0.1-0.2,0.2
			V40.2z"/>
		<path class="st0" d="M134,40.2c0,0.1,0.1,0.2,0.2,0.2c0.1,0,0.2-0.1,0.2-0.2v-1c0-0.1-0.1-0.2-0.2-0.2c-0.1,0-0.2,0.1-0.2,0.2
			V40.2z"/>
		<path class="st0" d="M132.2,40.2c0,0.1,0.1,0.2,0.2,0.2c0.1,0,0.2-0.1,0.2-0.2v-1c0-0.1-0.1-0.2-0.2-0.2c-0.1,0-0.2,0.1-0.2,0.2
			V40.2z"/>
		<path class="st0" d="M136.7,42c0,0.1,0.1,0.2,0.2,0.2s0.2-0.1,0.2-0.2v-1c0-0.1-0.1-0.2-0.2-0.2s-0.2,0.1-0.2,0.2V42z"/>
		<path class="st0" d="M134.9,42c0,0.1,0.1,0.2,0.2,0.2c0.1,0,0.2-0.1,0.2-0.2v-1c0-0.1-0.1-0.2-0.2-0.2c-0.1,0-0.2,0.1-0.2,0.2V42z
			"/>
		<path class="st0" d="M133.1,42c0,0.1,0.1,0.2,0.2,0.2c0.1,0,0.2-0.1,0.2-0.2v-1c0-0.1-0.1-0.2-0.2-0.2c-0.1,0-0.2,0.1-0.2,0.2V42z
			"/>
		<path class="st0" d="M131.4,40.9c-0.1,0-0.2,0.1-0.2,0.2v1c0,0.1,0.1,0.2,0.2,0.2c0.1,0,0.2-0.1,0.2-0.2v-1
			C131.6,41,131.5,40.9,131.4,40.9z"/>
		<path class="st0" d="M136.7,38.4c0,0.1,0.1,0.2,0.2,0.2s0.2-0.1,0.2-0.2v-1c0-0.1-0.1-0.2-0.2-0.2s-0.2,0.1-0.2,0.2V38.4z"/>
		<path class="st0" d="M134.9,38.4c0,0.1,0.1,0.2,0.2,0.2c0.1,0,0.2-0.1,0.2-0.2v-1c0-0.1-0.1-0.2-0.2-0.2c-0.1,0-0.2,0.1-0.2,0.2
			V38.4z"/>
		<path class="st0" d="M133.1,38.4c0,0.1,0.1,0.2,0.2,0.2c0.1,0,0.2-0.1,0.2-0.2v-1c0-0.1-0.1-0.2-0.2-0.2c-0.1,0-0.2,0.1-0.2,0.2
			V38.4z"/>
		<path class="st0" d="M131.6,37.4c0-0.1-0.1-0.2-0.2-0.2c-0.1,0-0.2,0.1-0.2,0.2v1c0,0.1,0.1,0.2,0.2,0.2c0.1,0,0.2-0.1,0.2-0.2
			V37.4z"/>
		<path class="st0" d="M137.8,42.7c-0.1,0-0.2,0.1-0.2,0.2v0.5H137h-0.4h-0.5h-0.4h-0.5h-0.4h-0.5H134h-0.5h-2.2h-0.5h-0.4h-0.4
			l0-3.7c0,0.2,0,0.4,0,0.5l-0.1-10l0.8-0.6c0,0,0.1-0.1,0.1-0.2l-0.2-4.4l0.6-0.9h5.5c0.1,0,0.2-0.1,0.2-0.2c0-0.1-0.1-0.2-0.2-0.2
			H131c-0.1,0-0.1,0-0.1,0.1l-0.7,1c0,0,0,0.1,0,0.1l0.2,4.4l-0.8,0.6c0,0-0.1,0.1-0.1,0.1l0.1,13.4c0,0,0,0,0,0.1l0.1,6.9
			c0,0.1,0.1,0.2,0.2,0.2c0,0,0,0,0,0c0.1,0,0.2-0.1,0.2-1.2l-0.1-5.8h7.8c0.1,0,0.2-0.1,0.2-0.2v-0.7
			C137.9,42.8,137.9,42.7,137.8,42.7z"/>
		<path class="st0" d="M135.2,25.8v0.7v0.2v0.7c0,0.1,0.1,0.2,0.2,0.2c0.1,0,0.2-0.1,0.2-0.2v-0.7v-0.2v-0.7c0-0.1-0.1-0.2-0.2-0.2
			C135.2,25.7,135.2,25.7,135.2,25.8z"/>
		<path class="st0" d="M133.7,25.8v0.7v0.2v0.7c0,0.1,0.1,0.2,0.2,0.2c0.1,0,0.2-0.1,0.2-0.2v-0.7v-0.2v-0.7c0-0.1-0.1-0.2-0.2-0.2
			C133.8,25.7,133.7,25.7,133.7,25.8z"/>
		<path class="st0" d="M132.2,25.8v0.7v0.2v0.7c0,0.1,0.1,0.2,0.2,0.2c0.1,0,0.2-0.1,0.2-0.2v-0.7v-0.2v-0.7c0-0.1-0.1-0.2-0.2-0.2
			C132.3,25.7,132.2,25.7,132.2,25.8z"/>
		<path class="st0" d="M172.4,61.9l-10.8,0c-0.1,0-0.2,0.1-0.2,0.2V75h0c0,0.1,0.1,0.2,0.2,0.2c0.1,0,0.2-0.1,0.2-0.2h0v0
			c0,0,0,0,0,0h0V62.3l10.6,0c0.1,0,0.2,0,0.2-0.1C172.6,62.1,172.5,61.9,172.4,61.9z"/>
		<path class="st0" d="M177,75V63.3l-0.2-0.4c-0.1,0-0.2,0.1-0.2,0.2v1.4l-0.4-0.6l0-8.5c0,0,0,0,0-0.1v-4.1v-0.4V31.8
			c0-0.1-0.1-0.2-0.2-0.2h-0.7v-1.5c0-0.1-0.1-0.2-0.2-0.2h-0.8v-0.9c0-0.1-0.1-0.2-0.2-0.2h-0.9c-0.1,0-0.2,0.1-0.2,0.2V30h-0.3
			v-0.2c0,0,0-0.1-0.1-0.1l-1.2-1.2c-0.1-0.1-0.1-0.1-0.2,0c-0.1,0-0.1,0.1-0.1,0.2v0.5h-2c-0.1,0-0.2,0.1-0.2,0.2V30h-3.6
			c-0.1,0-0.2,0.1-0.2,0.2v1.7h-2c-0.1,0-0.2,0.1-0.2,0.2v16.7h-0.5V48c0-0.1-0.1-0.2-0.2-0.2h-0.8v-1.7c0-0.1-0.1-0.2-0.2-0.2h-0.7
			V45c0-0.1-0.1-0.2-0.2-0.2h-0.8c-0.1,0-0.2,0.1-0.2,0.2V46h-0.7l-0.1-4.1c0-0.1-0.1-0.2-0.2-0.2c-0.1,0-0.2,0.1-0.2,0.2l0.1,4.1
			h-0.8v-0.7c0-0.1-0.1-0.2-0.2-0.2h-0.8c-0.1,0-0.2,0.1-0.2,0.2V46H156c-0.1,0-0.2,0.1-0.2,0.2v1.8l-0.6,0.6c0,0-0.1,0.1-0.1,0.1
			V54l-0.5,0.1c-0.1,0-0.2,0.1-0.2,0.2V59l-1.5,0.1c-0.1,0-0.2,0.1-0.2,0.2V66h-0.7v-7.7c0-0.1-0.1-0.2-0.2-0.2l-1.2-0.1v-6.2
			c0-0.1-0.1-0.2-0.2-0.2h-0.6v-1.2c0-0.1-0.1-0.2-0.1-0.2l-1.9-0.4v-4.9c0,0,0-0.1,0-0.1l-0.5-0.7V42c0-0.1-0.1-0.2-0.2-0.2
			l-0.5-0.1v-0.8c0-0.1-0.1-0.2-0.2-0.2h-4.1c-0.1,0-0.2,0.1-0.2,0.2v2.7l-0.6,0.4c0,0-0.1,0.1-0.1,0.1v3.6l-1.4,0.4v-0.6
			c0-0.1,0-0.1-0.1-0.1c0,0-0.1,0-0.1,0l-1,0.2c-0.1,0-0.2,0.1-0.2,0.2v0.4h0V29.9c0,0,0-0.1,0-0.1l-0.5-0.9v-4.7
			c0-0.1-0.1-0.2-0.1-0.2l-0.6-0.1v-4c0-0.1-0.1-0.2-0.2-0.2l-0.9-0.1v-0.2c0,0,0-0.1,0-0.1l-1.9-3.9v-4.1c0,0,0-0.1,0-0.1l-0.5-0.8
			l-0.5-5.3c0-0.1-0.1-0.2-0.2-0.2h0c-0.1,0-0.2,0.1-0.2,0.2l-0.4,5.5l-0.3,0.8c0,0,0,0,0,0.1v4l-1.5,3.9h-0.7
			c-0.1,0-0.2,0.1-0.2,0.2V20l-0.5,0.3c-0.1,0-0.1,0.1-0.1,0.2v3.8l-0.5,0.5c0,0-0.1,0.1-0.1,0.1v4.3h-0.1c-0.1,0-0.2,0.1-0.2,0.2
			v0.5h-0.1c-0.1,0-0.2,0.1-0.2,0.2v9.6h-0.8v-0.8c0-0.1-0.1-0.2-0.2-0.2h-0.8V37c0-0.1-0.1-0.2-0.2-0.2h-1v-0.9
			c0-0.1-0.1-0.2-0.2-0.2h-0.5c-0.1,0-0.2,0.1-0.2,0.2v0.9h-0.7l-0.2-4.1c0-0.1-0.1-0.2-0.2-0.2c-0.1,0-0.2,0.1-0.2,0.2l0.2,4.1
			h-0.9v-0.7c0-0.1-0.1-0.2-0.2-0.2H122c-0.1,0-0.2,0.1-0.2,0.2v0.7H121c-0.1,0-0.2,0.1-0.2,0.2v1.8l-0.6,0.6c0,0-0.1,0.1-0.1,0.1
			v3.4l0.4,0.2v-3.5l0.6-0.6c0,0,0.1-0.1,0.1-0.1v-1.7h0.8c0.1,0,0.2-0.1,0.2-0.2v-0.7h0.1V37c0,0.1,0.1,0.2,0.2,0.2h1.3h0h1
			c0.1,0,0.2-0.1,0.2-0.2V36h0.2V37c0,0.1,0.1,0.2,0.2,0.2h1v1.7c0,0.1,0.1,0.2,0.2,0.2h0.8v0.8c0,0.1,0.1,0.2,0.2,0.2h1v3.6
			l0.2,0.4c0.1,0,0.2-0.1,0.2-0.2V30.1h0.1c0.1,0,0.2-0.1,0.2-0.2v-0.5h0.1c0.1,0,0.2-0.1,0.2-0.2v-4.4l0.5-0.5c0,0,0.1-0.1,0.1-0.1
			v-3.7l0.5-0.3c0.1,0,0.1-0.1,0.1-0.2v-0.3h0.6c0.1,0,0.1,0,0.2-0.1l1.6-4c0,0,0,0,0-0.1v-4l0.3-0.8c0,0,0,0,0-0.1l0.2-2l0.3,1.8
			c0,0,0,0.1,0,0.1l0.5,0.8v4.1c0,0,0,0.1,0,0.1l1.9,3.9v0.1h-3.4c-0.1,0-0.2,0.1-0.2,0.2s0.1,0.2,0.2,0.2h3.5l0.9,0.1v4
			c0,0.1,0.1,0.2,0.1,0.2l0.6,0.1v4.4h-6.3c-0.1,0-0.2,0.1-0.2,0.2c0,0.1,0.1,0.2,0.2,0.2h6.3l0.5,0.8v18.4c0,0.1,0.1,0.2,0.2,0.2
			h0.4c0.1,0,0.2-0.1,0.2-0.2v-0.4l0.7-0.1v0.6c0,0.1,0,0.1,0.1,0.1c0,0,0.1,0,0.2,0l1.8-0.5c0.1,0,0.1-0.1,0.1-0.2v-3.7l0.6-0.4
			c0,0,0.1-0.1,0.1-0.1v-2.6h3.7v0.8c0,0.1,0.1,0.2,0.2,0.2l0.5,0.1v2.1c0,0,0,0.1,0,0.1l0.5,0.7v5c0,0.1,0.1,0.2,0.1,0.2l1.9,0.4
			v1.3c0,0.1,0.1,0.2,0.2,0.2h0.6v6.1c0,0.1,0.1,0.2,0.2,0.2l1.2,0.1v7.7c0,0.1,0.1,0.2,0.2,0.2h1.1c0.1,0,0.2-0.1,0.2-0.2v-6.8
			l1.4-0.1v0.4c0,0.1,0.1,0.2,0.2,0.2c0.1,0,0.2-0.1,0.2-0.2v-5.4l0.5-0.1c0.1,0,0.2-0.1,0.2-0.2v-5.5l0.6-0.6c0,0,0.1-0.1,0.1-0.1
			v-1.7h0.7c0.1,0,0.2-0.1,0.2-0.2v-0.7h0.4v0.7c0,0.1,0,0.2,0.2,0.2h1.2h0.1h0.9c0.1,0,0.2-0.1,0.2-0.2v-0.9h0.5v0.9
			c0,0.1,0.1,0.2,0.2,0.2h0.7V48c0,0.1,0.1,0.2,0.2,0.2h0.8v0.8c0,0.1,0.1,0.2,0.2,0.2h0.9c0.1,0,0.2-0.1,0.2-0.2V32.2h2
			c0.1,0,0.2-0.1,0.2-0.2v-1.7h3.6c0.1,0,0.2-0.1,0.2-0.2v-0.7h2c0.1,0,0.2-0.1,0.2-0.2v-0.3l0.8,0.8v0.3c0,0.1,0.1,0.2,0.2,0.2h0.7
			c0.1,0,0.2-0.1,0.2-0.2v-0.9h0.6v0.9c0,0.1,0.1,0.2,0.2,0.2h0.8v1.5c0,0.1,0.1,0.2,0.2,0.2h0.7v24.5c0,0,0,0.1,0,0.1l0,7.4
			c0,0,0,0.1,0,0.1l0.7,1V75h0c0,0.1,0.1,0.2,0.2,0.2C176.9,75.2,177,75.1,177,75L177,75L177,75C177,75,177,75,177,75L177,75z"/>
		<rect x="167.7" y="36.7" class="st0" width="6.8" height="0.7"/>
		<rect x="167.7" y="38.3" class="st0" width="6.8" height="0.7"/>
		<rect x="167.7" y="35" class="st0" width="6.8" height="0.7"/>
		<rect x="167.7" y="46.8" class="st0" width="6.8" height="0.7"/>
		<rect x="167.7" y="48.5" class="st0" width="6.8" height="0.7"/>
		<rect x="167.7" y="45.1" class="st0" width="6.8" height="0.7"/>
		<rect x="167.7" y="55.3" class="st0" width="6.8" height="0.7"/>
		<rect x="167.7" y="57" class="st0" width="6.8" height="0.7"/>
		<rect x="167.7" y="53.6" class="st0" width="6.8" height="0.7"/>
	</g>
	<g>
		<path class="st0" d="M23.2,19.6l3.9-2.5c0.1,0,0.1-0.1,0.1-0.2v-2.8H28v2.7c0,0.1,0,0.1,0.1,0.2l3.2,1.5v2.2
			c0,0.1,0.1,0.2,0.2,0.2c0.1,0,0.2-0.1,0.2-0.2v-2.4c0-0.1,0-0.1-0.1-0.2l-3.2-1.5V14c0-0.1-0.1-0.2-0.2-0.2h-0.4c0,0,0,0,0-0.1
			V8.3c0-0.1-0.1-0.2-0.2-0.2c-0.1,0-0.2,0.1-0.2,0.2v5.4c0,0,0,0,0,0.1H27c-0.1,0-0.2,0.1-0.2,0.2v2.9L23,19.3
			c-0.1,0-0.1,0.2-0.1,0.2C23,19.7,23.1,19.7,23.2,19.6z"/>
		<path class="st0" d="M39.9,19.8C39.9,19.8,40,19.8,39.9,19.8l2.4,0v0.8c0,0.1,0.1,0.2,0.2,0.2h4c0.1,0,0.2-0.1,0.2-0.2
			c0-0.1-0.1-0.2-0.2-0.2h-3.9v-0.8c0-0.1-0.1-0.2-0.2-0.2h-2.4v-3.6l0-1.3h5.1v4.6c0,0.1,0.1,0.2,0.2,0.2c0.1,0,0.2-0.1,0.2-0.2
			v-4.8c0-0.1-0.1-0.2-0.2-0.2h-5.5c0,0-0.1,0-0.1,0.1c0,0-0.1,0.1-0.1,0.1l0,5l-1.8-0.6c-0.1,0-0.1,0-0.2,0l-0.7,0.7l-1.2,0
			c-0.1,0-0.1,0-0.1,0c0,0-0.1,0.1-0.1,0.1v0.8h-0.4v-5.3c0,0,0-0.1-0.1-0.1c0,0-0.1-0.1-0.1-0.1l-5,0c-0.1,0-0.2,0.1-0.2,0.2v1.3
			c0,0.1,0.1,0.2,0.2,0.2c0.1,0,0.2-0.1,0.2-0.2v-1.2l4.7,0v5.3c0,0.1,0.1,0.2,0.2,0.2h0.8c0.1,0,0.2-0.1,0.2-0.2v-0.8l1.4,0
			l0.7-0.7L39.9,19.8C39.9,19.8,39.9,19.8,39.9,19.8z"/>
		<path class="st0" d="M35.2,22h-4.5c-0.1,0-0.2,0.1-0.2,0.2v0.3h-1.3c0,0-0.1,0-0.1,0.1L28.7,23h-1l-0.4-0.5c0,0-0.1-0.1-0.1-0.1
			h-0.7c0,0-0.1,0-0.1,0.1L25.9,23h-0.7l-0.4-0.5c0,0-0.1-0.1-0.1-0.1h-1.3l0,0H22c-0.1,0-0.2,0.1-0.2,0.2v1l0,0l0,2.1l0,1.4h-1.1
			v-0.6c0-0.1,0-0.1-0.1-0.2l-1.6-0.7c0,0-0.1,0-0.1,0l-1.9,0.8c-0.1,0-0.1,0.1-0.1,0.2v0.5h-0.5c-0.1,0-0.1,0-0.2,0.1l0,0.3h0.8
			l0,0l0,0h3.5l0,0l0,0H22c0,0,0.1,0,0.1-0.1c0,0,0.1-0.1,0.1-0.1l0-1.5l0-1.4l0,0v-1.6h1.2l0,0h1.1l0.4,0.5c0,0,0.1,0.1,0.1,0.1
			h0.9c0,0,0.1,0,0.1-0.1l0.5-0.5h0.5l0.4,0.5c0,0,0.1,0.1,0.1,0.1h1.1c0,0,0.1,0,0.1-0.1l0.4-0.5h1.4c0.1,0,0.2-0.1,0.2-0.2v-0.3
			h4.2v29.8c0,0.1,0,0.2,0.2,0.2c0.2,0,0.1-0.2,0.1-0.2v-30C35.4,22.1,35.3,22,35.2,22z M20.4,27.1h-3.1v-0.4L19,26l1.4,0.6V27.1z"
			/>
		<path class="st0" d="M42.8,26.8h-3.6l-0.8-0.3c0,0-0.1,0.1-0.1,0.1v18.8c0,0.1,0.1,0.2,0.2,0.2c0.1,0,0.2-0.1,0.2-0.2l0-18.5
			l0.6,0.2h3.6c0.1,0,0.2-0.1,0.2-0.2C43,26.9,42.9,26.8,42.8,26.8z"/>
		<path class="st0" d="M18.1,64.4H9c-0.1,0-0.2,0.1-0.2,0.2l0,3.9c0,0.1,0.1,0.2,0.2,0.2l0.1-0.1c0,0,0,0,0,0l0-1.1c0,0,0,0,0,0
			v-1.6l0,0l0-1h8.7v1.4c0,0.1,0.1,0.2,0.2,0.2c0.1,0,0.2-0.1,0.2-0.2v-1.6C18.3,64.4,18.2,64.4,18.1,64.4z"/>
		<path class="st0" d="M5.3,46.2l-0.2,0.4V75c0,0.1,0.1,0.2,0.2,0.2c0.1,0,0.2-0.1,0.2-0.2V46.3C5.4,46.2,5.4,46.2,5.3,46.2z"/>
		<path class="st0" d="M9.4,62c0.1,0,0.2-0.1,0.2-0.2V40.2v-0.4v-1.3v-0.4v-1.3v-0.4v-0.3v-0.4v-0.7l1.1,0c0.1,0,0.1,0,0.1-0.1
			c0,0,0-0.1,0-0.2l-0.3-0.8h4.4c0.1,0,0.2-0.1,0.2-0.2c0-0.1-0.1-0.2-0.2-0.2h-4.6c-0.1,0-0.1,0-0.1,0.1c0,0,0,0.1,0,0.2l0.3,0.8
			l-1,0c-0.1,0-0.2,0.1-0.2,0.2v0.9v0.3v0.3v0.3v1.3v0.3v1.3v0.3v21.6C9.3,61.9,9.3,62,9.4,62z"/>
		<path class="st0" d="M54.3,34.6L53.8,34v-1.8c0-0.1-0.1-0.2-0.2-0.2h-2.8l-0.4,0.2c0,0.1,0.1,0.2,0.2,0.2h2.8v1.7
			c0,0,0,0.1,0.1,0.1l0.6,0.6V41l0.4,0.1v-6.4C54.4,34.7,54.4,34.6,54.3,34.6z"/>
		<path class="st0" d="M48.1,32.1c-0.1,0-0.2,0.1-0.2,0.2v1.7h-0.4l0.1-0.4c0-0.1,0-0.1-0.1-0.2l-0.9-0.7V21.6
			c0-0.1-0.1-0.2-0.2-0.2c-0.1,0-0.2,0.1-0.2,0.2v11.2c0,0.1,0,0.1,0.1,0.1l0.9,0.6l-0.1,0.4h-0.7c0,0-0.1,0-0.1,0.1
			c0,0-0.1,0.1,0,0.1l0,4.4c0,0.1,0.1,0.2,0.2,0.2c0,0,0,0,0,0c0.1,0,0.2-0.1,0.2-0.2l0-4.2h0.7c0,0,0,0,0,0l0,0h0.8
			c0.1,0,0.2-0.1,0.2-0.2v-1.7h1c0.1,0,0.2-0.1,0.2-0.2L49,32.1H48.1z"/>
		<rect x="17.8" y="42.6" class="st0" width="2.7" height="0.7"/>
		<rect x="17.8" y="44.2" class="st0" width="2.7" height="0.7"/>
		<rect x="17.8" y="41.1" class="st0" width="2.7" height="0.7"/>
		<rect x="17.8" y="33.9" class="st0" width="2.7" height="0.7"/>
		<rect x="17.8" y="35.5" class="st0" width="2.7" height="0.7"/>
		<rect x="17.8" y="32.4" class="st0" width="2.7" height="0.7"/>
		<rect x="17.8" y="51.9" class="st0" width="2.7" height="0.7"/>
		<rect x="17.8" y="53.4" class="st0" width="2.7" height="0.7"/>
		<rect x="17.8" y="50.3" class="st0" width="2.7" height="0.7"/>
		<path class="st0" d="M26.1,25.1c-0.1,0-0.2,0.1-0.2,0.2v1c0,0.1,0.1,0.2,0.2,0.2c0.1,0,0.2-0.1,0.2-0.2v-1
			C26.2,25.2,26.1,25.1,26.1,25.1z"/>
		<path class="st0" d="M24.2,25.1c-0.1,0-0.2,0.1-0.2,0.2v1c0,0.1,0.1,0.2,0.2,0.2c0.1,0,0.2-0.1,0.2-0.2v-1
			C24.4,25.2,24.3,25.1,24.2,25.1z"/>
		<path class="st0" d="M25.1,26.9c-0.1,0-0.2,0.1-0.2,0.2v1c0,0.1,0.1,0.2,0.2,0.2c0.1,0,0.2-0.1,0.2-0.2v-1
			C25.3,27,25.2,26.9,25.1,26.9z"/>
		<path class="st0" d="M26.1,28.8c-0.1,0-0.2,0.1-0.2,0.2v1c0,0.1,0.1,0.2,0.2,0.2c0.1,0,0.2-0.1,0.2-0.2v-1
			C26.2,28.8,26.1,28.8,26.1,28.8z"/>
		<path class="st0" d="M24.2,28.8c-0.1,0-0.2,0.1-0.2,0.2v1c0,0.1,0.1,0.2,0.2,0.2c0.1,0,0.2-0.1,0.2-0.2v-1
			C24.4,28.8,24.3,28.8,24.2,28.8z"/>
		<path class="st0" d="M25.1,30.6c-0.1,0-0.2,0.1-0.2,0.2v1c0,0.1,0.1,0.2,0.2,0.2c0.1,0,0.2-0.1,0.2-0.2v-1
			C25.3,30.6,25.2,30.6,25.1,30.6z"/>
		<path class="st0" d="M25.1,34.2c-0.1,0-0.2,0.1-0.2,0.2v1c0,0.1,0.1,0.2,0.2,0.2c0.1,0,0.2-0.1,0.2-0.2v-1
			C25.3,34.3,25.2,34.2,25.1,34.2z"/>
		<path class="st0" d="M26.1,36c-0.1,0-0.2,0.1-0.2,0.2v0v1v0c0,0.1,0.1,0.2,0.2,0.2c0.1,0,0.2-0.1,0.2-0.2v0v-1v0
			C26.2,36.1,26.1,36,26.1,36z"/>
		<path class="st0" d="M24.2,36c-0.1,0-0.2,0.1-0.2,0.2v0v1v0c0,0.1,0.1,0.2,0.2,0.2c0.1,0,0.2-0.1,0.2-0.2v0v-1v0
			C24.4,36.1,24.3,36,24.2,36z"/>
		<path class="st0" d="M29.7,25.1c-0.1,0-0.2,0.1-0.2,0.2v1c0,0.1,0.1,0.2,0.2,0.2s0.2-0.1,0.2-0.2v-1
			C29.8,25.2,29.8,25.1,29.7,25.1z"/>
		<path class="st0" d="M27.9,25.1c-0.1,0-0.2,0.1-0.2,0.2v1c0,0.1,0.1,0.2,0.2,0.2c0.1,0,0.2-0.1,0.2-0.2v-1
			C28,25.2,28,25.1,27.9,25.1z"/>
		<path class="st0" d="M28.8,26.9c-0.1,0-0.2,0.1-0.2,0.2v1c0,0.1,0.1,0.2,0.2,0.2c0.1,0,0.2-0.1,0.2-0.2v-1
			C28.9,27,28.9,26.9,28.8,26.9z"/>
		<path class="st0" d="M27,26.9c-0.1,0-0.2,0.1-0.2,0.2v1c0,0.1,0.1,0.2,0.2,0.2c0.1,0,0.2-0.1,0.2-0.2v-1
			C27.1,27,27.1,26.9,27,26.9z"/>
		<path class="st0" d="M29.7,28.8c-0.1,0-0.2,0.1-0.2,0.2v1c0,0.1,0.1,0.2,0.2,0.2s0.2-0.1,0.2-0.2v-1
			C29.8,28.8,29.8,28.8,29.7,28.8z"/>
		<path class="st0" d="M27.9,28.8c-0.1,0-0.2,0.1-0.2,0.2v1c0,0.1,0.1,0.2,0.2,0.2c0.1,0,0.2-0.1,0.2-0.2v-1
			C28,28.8,28,28.8,27.9,28.8z"/>
		<path class="st0" d="M28.8,30.6c-0.1,0-0.2,0.1-0.2,0.2v1c0,0.1,0.1,0.2,0.2,0.2c0.1,0,0.2-0.1,0.2-0.2v-1
			C28.9,30.6,28.9,30.6,28.8,30.6z"/>
		<path class="st0" d="M27,30.6c-0.1,0-0.2,0.1-0.2,0.2v1c0,0.1,0.1,0.2,0.2,0.2c0.1,0,0.2-0.1,0.2-0.2v-1
			C27.1,30.6,27.1,30.6,27,30.6z"/>
		<path class="st0" d="M28.8,34.2c-0.1,0-0.2,0.1-0.2,0.2v1c0,0.1,0.1,0.2,0.2,0.2c0.1,0,0.2-0.1,0.2-0.2v-1
			C28.9,34.3,28.9,34.2,28.8,34.2z"/>
		<path class="st0" d="M27,34.2c-0.1,0-0.2,0.1-0.2,0.2v1c0,0.1,0.1,0.2,0.2,0.2c0.1,0,0.2-0.1,0.2-0.2v-1
			C27.1,34.3,27.1,34.2,27,34.2z"/>
		<path class="st0" d="M29.7,36c-0.1,0-0.2,0.1-0.2,0.2v0v1v0c0,0.1,0.1,0.2,0.2,0.2s0.2-0.1,0.2-0.2v0v-1v0
			C29.8,36.1,29.8,36,29.7,36z"/>
		<path class="st0" d="M27.9,36c-0.1,0-0.2,0.1-0.2,0.2v0v1v0c0,0.1,0.1,0.2,0.2,0.2c0.1,0,0.2-0.1,0.2-0.2v0v-1v0
			C28,36.1,28,36,27.9,36z"/>
		<path class="st0" d="M29.7,32.4c-0.1,0-0.2,0.1-0.2,0.2v1c0,0.1,0.1,0.2,0.2,0.2s0.2-0.1,0.2-0.2v-1
			C29.8,32.5,29.8,32.4,29.7,32.4z"/>
		<path class="st0" d="M27.9,32.4c-0.1,0-0.2,0.1-0.2,0.2v1c0,0.1,0.1,0.2,0.2,0.2c0.1,0,0.2-0.1,0.2-0.2v-1
			C28,32.5,28,32.4,27.9,32.4z"/>
		<path class="st0" d="M33,25.1c-0.1,0-0.2,0.1-0.2,0.2v1c0,0.1,0.1,0.2,0.2,0.2s0.2-0.1,0.2-0.2v-1C33.2,25.2,33.1,25.1,33,25.1z"
			/>
		<path class="st0" d="M31.2,25.1c-0.1,0-0.2,0.1-0.2,0.2v1c0,0.1,0.1,0.2,0.2,0.2c0.1,0,0.2-0.1,0.2-0.2v-1
			C31.4,25.2,31.3,25.1,31.2,25.1z"/>
		<path class="st0" d="M32.1,26.9C32,26.9,32,27,32,27.1v1c0,0.1,0.1,0.2,0.2,0.2c0.1,0,0.2-0.1,0.2-0.2v-1
			C32.3,27,32.2,26.9,32.1,26.9z"/>
		<path class="st0" d="M30.3,26.9c-0.1,0-0.2,0.1-0.2,0.2v1c0,0.1,0.1,0.2,0.2,0.2c0.1,0,0.2-0.1,0.2-0.2v-1
			C30.5,27,30.4,26.9,30.3,26.9z"/>
		<path class="st0" d="M33,28.8c-0.1,0-0.2,0.1-0.2,0.2v1c0,0.1,0.1,0.2,0.2,0.2s0.2-0.1,0.2-0.2v-1C33.2,28.8,33.1,28.8,33,28.8z"
			/>
		<path class="st0" d="M31.2,28.8c-0.1,0-0.2,0.1-0.2,0.2v1c0,0.1,0.1,0.2,0.2,0.2c0.1,0,0.2-0.1,0.2-0.2v-1
			C31.4,28.8,31.3,28.8,31.2,28.8z"/>
		<path class="st0" d="M32.1,30.6c-0.1,0-0.2,0.1-0.2,0.2v1c0,0.1,0.1,0.2,0.2,0.2c0.1,0,0.2-0.1,0.2-0.2v-1
			C32.3,30.6,32.2,30.6,32.1,30.6z"/>
		<path class="st0" d="M30.3,30.6c-0.1,0-0.2,0.1-0.2,0.2v1c0,0.1,0.1,0.2,0.2,0.2c0.1,0,0.2-0.1,0.2-0.2v-1
			C30.5,30.6,30.4,30.6,30.3,30.6z"/>
		<path class="st0" d="M32.1,34.2c-0.1,0-0.2,0.1-0.2,0.2v1c0,0.1,0.1,0.2,0.2,0.2c0.1,0,0.2-0.1,0.2-0.2v-1
			C32.3,34.3,32.2,34.2,32.1,34.2z"/>
		<path class="st0" d="M30.3,34.2c-0.1,0-0.2,0.1-0.2,0.2v1c0,0.1,0.1,0.2,0.2,0.2c0.1,0,0.2-0.1,0.2-0.2v-1
			C30.5,34.3,30.4,34.2,30.3,34.2z"/>
		<path class="st0" d="M33,36c-0.1,0-0.2,0.1-0.2,0.2v0v1v0c0,0.1,0.1,0.2,0.2,0.2s0.2-0.1,0.2-0.2v0v-1v0C33.2,36.1,33.1,36,33,36z
			"/>
		<path class="st0" d="M31.2,36c-0.1,0-0.2,0.1-0.2,0.2v0v1v0c0,0.1,0.1,0.2,0.2,0.2c0.1,0,0.2-0.1,0.2-0.2v0v-1v0
			C31.4,36.1,31.3,36,31.2,36z"/>
		<path class="st0" d="M33,32.4c-0.1,0-0.2,0.1-0.2,0.2v1c0,0.1,0.1,0.2,0.2,0.2s0.2-0.1,0.2-0.2v-1C33.2,32.5,33.1,32.4,33,32.4z"
			/>
		<path class="st0" d="M31.2,32.4c-0.1,0-0.2,0.1-0.2,0.2v1c0,0.1,0.1,0.2,0.2,0.2c0.1,0,0.2-0.1,0.2-0.2v-1
			C31.4,32.5,31.3,32.4,31.2,32.4z"/>
		<path class="st0" d="M26.1,32.4c-0.1,0-0.2,0.1-0.2,0.2v1c0,0.1,0.1,0.2,0.2,0.2c0.1,0,0.2-0.1,0.2-0.2v-1
			C26.2,32.5,26.1,32.4,26.1,32.4z"/>
		<path class="st0" d="M24.2,32.4c-0.1,0-0.2,0.1-0.2,0.2v1c0,0.1,0.1,0.2,0.2,0.2c0.1,0,0.2-0.1,0.2-0.2v-1
			C24.4,32.5,24.3,32.4,24.2,32.4z"/>
		<path class="st0" d="M25.1,37.8c-0.1,0-0.2,0.1-0.2,0.2v1c0,0.1,0.1,0.2,0.2,0.2c0.1,0,0.2-0.1,0.2-0.2v-1
			C25.3,37.9,25.2,37.8,25.1,37.8z"/>
		<path class="st0" d="M26.1,39.6c-0.1,0-0.2,0.1-0.2,0.2v1c0,0.1,0.1,0.2,0.2,0.2c0.1,0,0.2-0.1,0.2-0.2v-1
			C26.2,39.7,26.1,39.6,26.1,39.6z"/>
		<path class="st0" d="M24.2,39.6c-0.1,0-0.2,0.1-0.2,0.2v1c0,0.1,0.1,0.2,0.2,0.2c0.1,0,0.2-0.1,0.2-0.2v-1
			C24.4,39.7,24.3,39.6,24.2,39.6z"/>
		<path class="st0" d="M25.1,41.4c-0.1,0-0.2,0.1-0.2,0.2v1c0,0.1,0.1,0.2,0.2,0.2c0.1,0,0.2-0.1,0.2-0.2v-1
			C25.3,41.5,25.2,41.4,25.1,41.4z"/>
		<path class="st0" d="M25.1,45.1c-0.1,0-0.2,0.1-0.2,0.2v1c0,0.1,0.1,0.2,0.2,0.2c0.1,0,0.2-0.1,0.2-0.2v-1
			C25.3,45.1,25.2,45.1,25.1,45.1z"/>
		<path class="st0" d="M26.1,46.9c-0.1,0-0.2,0.1-0.2,0.2v1c0,0.1,0.1,0.2,0.2,0.2c0.1,0,0.2-0.1,0.2-0.2v-1
			C26.2,47,26.1,46.9,26.1,46.9z"/>
		<path class="st0" d="M24.2,46.9c-0.1,0-0.2,0.1-0.2,0.2v1c0,0.1,0.1,0.2,0.2,0.2c0.1,0,0.2-0.1,0.2-0.2v-1
			C24.4,47,24.3,46.9,24.2,46.9z"/>
		<path class="st0" d="M28.8,37.8c-0.1,0-0.2,0.1-0.2,0.2v1c0,0.1,0.1,0.2,0.2,0.2c0.1,0,0.2-0.1,0.2-0.2v-1
			C28.9,37.9,28.9,37.8,28.8,37.8z"/>
		<path class="st0" d="M27,37.8c-0.1,0-0.2,0.1-0.2,0.2v1c0,0.1,0.1,0.2,0.2,0.2c0.1,0,0.2-0.1,0.2-0.2v-1
			C27.1,37.9,27.1,37.8,27,37.8z"/>
		<path class="st0" d="M29.7,39.6c-0.1,0-0.2,0.1-0.2,0.2v1c0,0.1,0.1,0.2,0.2,0.2s0.2-0.1,0.2-0.2v-1
			C29.8,39.7,29.8,39.6,29.7,39.6z"/>
		<path class="st0" d="M27.9,39.6c-0.1,0-0.2,0.1-0.2,0.2v1c0,0.1,0.1,0.2,0.2,0.2c0.1,0,0.2-0.1,0.2-0.2v-1
			C28,39.7,28,39.6,27.9,39.6z"/>
		<path class="st0" d="M28.8,41.4c-0.1,0-0.2,0.1-0.2,0.2v1c0,0.1,0.1,0.2,0.2,0.2c0.1,0,0.2-0.1,0.2-0.2v-1
			C28.9,41.5,28.9,41.4,28.8,41.4z"/>
		<path class="st0" d="M27,41.4c-0.1,0-0.2,0.1-0.2,0.2v1c0,0.1,0.1,0.2,0.2,0.2c0.1,0,0.2-0.1,0.2-0.2v-1
			C27.1,41.5,27.1,41.4,27,41.4z"/>
		<path class="st0" d="M28.8,45.1c-0.1,0-0.2,0.1-0.2,0.2v1c0,0.1,0.1,0.2,0.2,0.2c0.1,0,0.2-0.1,0.2-0.2v-1
			C28.9,45.1,28.9,45.1,28.8,45.1z"/>
		<path class="st0" d="M27,45.1c-0.1,0-0.2,0.1-0.2,0.2v1c0,0.1,0.1,0.2,0.2,0.2c0.1,0,0.2-0.1,0.2-0.2v-1
			C27.1,45.1,27.1,45.1,27,45.1z"/>
		<path class="st0" d="M29.7,46.9c-0.1,0-0.2,0.1-0.2,0.2v1c0,0.1,0.1,0.2,0.2,0.2s0.2-0.1,0.2-0.2v-1C29.8,47,29.8,46.9,29.7,46.9z
			"/>
		<path class="st0" d="M27.9,46.9c-0.1,0-0.2,0.1-0.2,0.2v1c0,0.1,0.1,0.2,0.2,0.2c0.1,0,0.2-0.1,0.2-0.2v-1
			C28,47,28,46.9,27.9,46.9z"/>
		<path class="st0" d="M29.7,43.3c-0.1,0-0.2,0.1-0.2,0.2v1c0,0.1,0.1,0.2,0.2,0.2s0.2-0.1,0.2-0.2v-1
			C29.8,43.3,29.8,43.3,29.7,43.3z"/>
		<path class="st0" d="M27.9,43.3c-0.1,0-0.2,0.1-0.2,0.2v1c0,0.1,0.1,0.2,0.2,0.2c0.1,0,0.2-0.1,0.2-0.2v-1
			C28,43.3,28,43.3,27.9,43.3z"/>
		<path class="st0" d="M32.1,37.8C32,37.8,32,37.9,32,38v1c0,0.1,0.1,0.2,0.2,0.2c0.1,0,0.2-0.1,0.2-0.2v-1
			C32.3,37.9,32.2,37.8,32.1,37.8z"/>
		<path class="st0" d="M30.3,37.8c-0.1,0-0.2,0.1-0.2,0.2v1c0,0.1,0.1,0.2,0.2,0.2c0.1,0,0.2-0.1,0.2-0.2v-1
			C30.5,37.9,30.4,37.8,30.3,37.8z"/>
		<path class="st0" d="M33,39.6c-0.1,0-0.2,0.1-0.2,0.2v1c0,0.1,0.1,0.2,0.2,0.2s0.2-0.1,0.2-0.2v-1C33.2,39.7,33.1,39.6,33,39.6z"
			/>
		<path class="st0" d="M31.2,39.6c-0.1,0-0.2,0.1-0.2,0.2v1c0,0.1,0.1,0.2,0.2,0.2c0.1,0,0.2-0.1,0.2-0.2v-1
			C31.4,39.7,31.3,39.6,31.2,39.6z"/>
		<path class="st0" d="M32.1,41.4c-0.1,0-0.2,0.1-0.2,0.2v1c0,0.1,0.1,0.2,0.2,0.2c0.1,0,0.2-0.1,0.2-0.2v-1
			C32.3,41.5,32.2,41.4,32.1,41.4z"/>
		<path class="st0" d="M30.3,41.4c-0.1,0-0.2,0.1-0.2,0.2v1c0,0.1,0.1,0.2,0.2,0.2c0.1,0,0.2-0.1,0.2-0.2v-1
			C30.5,41.5,30.4,41.4,30.3,41.4z"/>
		<path class="st0" d="M32.1,45.1c-0.1,0-0.2,0.1-0.2,0.2v1c0,0.1,0.1,0.2,0.2,0.2c0.1,0,0.2-0.1,0.2-0.2v-1
			C32.3,45.1,32.2,45.1,32.1,45.1z"/>
		<path class="st0" d="M30.3,45.1c-0.1,0-0.2,0.1-0.2,0.2v1c0,0.1,0.1,0.2,0.2,0.2c0.1,0,0.2-0.1,0.2-0.2v-1
			C30.5,45.1,30.4,45.1,30.3,45.1z"/>
		<path class="st0" d="M33,46.9c-0.1,0-0.2,0.1-0.2,0.2v1c0,0.1,0.1,0.2,0.2,0.2s0.2-0.1,0.2-0.2v-1C33.2,47,33.1,46.9,33,46.9z"/>
		<path class="st0" d="M31.2,46.9c-0.1,0-0.2,0.1-0.2,0.2v1c0,0.1,0.1,0.2,0.2,0.2c0.1,0,0.2-0.1,0.2-0.2v-1
			C31.4,47,31.3,46.9,31.2,46.9z"/>
		<path class="st0" d="M33,43.3c-0.1,0-0.2,0.1-0.2,0.2v1c0,0.1,0.1,0.2,0.2,0.2s0.2-0.1,0.2-0.2v-1C33.2,43.3,33.1,43.3,33,43.3z"
			/>
		<path class="st0" d="M31.2,43.3c-0.1,0-0.2,0.1-0.2,0.2v1c0,0.1,0.1,0.2,0.2,0.2c0.1,0,0.2-0.1,0.2-0.2v-1
			C31.4,43.3,31.3,43.3,31.2,43.3z"/>
		<path class="st0" d="M26.1,43.3c-0.1,0-0.2,0.1-0.2,0.2v1c0,0.1,0.1,0.2,0.2,0.2c0.1,0,0.2-0.1,0.2-0.2v-1
			C26.2,43.3,26.1,43.3,26.1,43.3z"/>
		<path class="st0" d="M24.2,43.3c-0.1,0-0.2,0.1-0.2,0.2v1c0,0.1,0.1,0.2,0.2,0.2c0.1,0,0.2-0.1,0.2-0.2v-1
			C24.4,43.3,24.3,43.3,24.2,43.3z"/>
		<path class="st0" d="M20.9,29.1h-3.6c-0.1,0-0.2,0.1-0.2,0.2c0,0.1,0.1,0.2,0.2,0.2h3.6l0.6-0.2l0,26.5c0,0.1,0.1,0.2,0.2,0.2
			c0.1,0,0.2-0.1,0.2-0.2V29c0-0.1,0-0.1-0.1-0.1L20.9,29.1z"/>
	</g>
	<g>
		<path class="st0" d="M65.2,59.6L65.2,59.6c-0.2,0-0.2,0-0.5,0c-0.2,0-0.2,0-0.5,0l-0.1,0l0,0l0.5,1.1l0,0.1l0.1-0.2l0.5-1l0,0
			C65.3,59.6,65.3,59.6,65.2,59.6"/>
		<path class="st0" d="M68.8,59.7c-0.9-0.4-1.4-0.6-2.4-0.9l0-2.2c0.4,0,1.2,0,2.1-0.2C68.5,57.2,68.6,58.7,68.8,59.7"/>
		<path class="st0" d="M65.2,58.6c-0.1,0-0.3,0-0.4,0c-0.2,0-0.3,0-0.5,0l0-2.1c0.2,0,0.6,0,0.8,0h0.1L65.2,58.6z"/>
		<path class="st0" d="M76.2,63.1c-1.2-0.5-4.3-1.8-6.1-2.8c-0.4-1.5-0.5-3.3-0.4-4c0.3,0,1-0.1,2-0.1c1.2,0,2.7,0.2,3.7,1l0,0h0
			c0.7,0.6,1.7,2,1.7,3.6l0,0C77.1,60.7,77.1,61.7,76.2,63.1"/>
		<path class="st0" d="M67.4,74.5c-0.3-0.3-0.2-1-0.1-1.6c0.1-0.4,0.1-0.8,0-1.1c0,0-0.1-0.5,0.7-1.1l0.1,0l-0.1,0
			c0.1-0.1,0.4-0.3,0.6-0.6c1.1-1,1.5-1.4,1.6-1.7c0.3-0.8-0.6-1.4-1-2.1c-0.3-0.5-0.4-1.4-0.4-1.7c0.3-0.1,0.7-0.3,1-0.3
			c0.6,0,1.2,0.3,1.6,1c-0.2,0.4-0.7,1.2,0.2,2.2l0,0.1c0,0,0.3,0.3,0.2,0.5c0,0.1,0,0.3-0.2,0.4c-0.4,0.2-2.9,2.1-3,2.8
			c0,0,0,0.1,0,0.1c0,0.1,0,0.3-0.1,0.3c-0.1,0.1-0.3,0.3-0.3,0.3c-0.1,0,0-0.1-0.1,0.1c0,0.1,0,0,0.1,0.2c0.1,0.2,0.4,0.6,0.4,0.7
			c0,0.2-0.7,1.4-1.4,1.5C67.6,74.6,67.4,74.5,67.4,74.5"/>
		<path class="st0" d="M58.4,75.6c-0.3,0-0.3-0.1-0.3-0.1c0.1-0.4,0.3-0.8,0.7-1.2c0.1-0.1,0.2-0.3,0.3-0.4c0.1-0.1,0.1-0.1,0.1-0.2
			c0-0.1,0.1-0.2,0.1-0.3c0.4-0.5,0.3-3.1,0-3.9c-0.1-0.1-0.3-1.4-0.2-1.7c0.1-0.6-0.2-1.4-0.5-2.1l0.1-0.1c0.4-0.2,1.5-0.9,1.7-1.8
			c0.1-0.4,0-0.7-0.3-1.1L60,62.5l0,0.4c-0.1,1.4-2.4,2.4-5.9,3.8c-0.6,0.2-0.6,1.2-0.7,1.9c-0.1,1.1,0.1,2.3,0.5,2.5
			c0.1,0,0.2,0.1,0.2,0.3c0.1,0.1-0.1,0.3,0,0.5c0,0,0.1,0.1,0.2,0.1h0c0.1,0,0.2,0,0.3,0c0.1,0,0.3,0,0.4,0c0.2,0,0.1,0,0.2,0.4
			c0.1,0.6,0.1,1.6-0.5,1.4c-0.4,0-1-0.9-1.4-1.3c-0.1-0.1-0.7-0.5-0.7-1.1c0-0.5-0.1-1.2-0.2-2.1c-0.1-0.9-0.3-2.3-0.2-2.5
			c0.2-0.4,1.3-1.3,2.1-1.9c0.5-0.4,1-0.8,1.2-1l0,0c0.1-0.1,0.2-0.2,0.2-0.5c0-0.3-0.1-0.6-0.3-0.8c-0.2-0.4-0.5-0.9-0.4-1.6
			c2.5-1.2,5.4-3.3,7-4.8c0.2,0,0.5,0.2,1,0.2l0,2.3c-1.6,0.3-4.1,1.9-5,3.1C58,62,58,62.2,58,62.2l0,0l0,0c0,0.1,0.1,0.2,0.2,0.2
			c0.1,0,0.2,0,0.3-0.1c1.8-1.7,4.2-2.3,4.7-2.4l1,1.7c0,1.6,0,2.2,0,2.6c0,0.1,0,0.4,0,0.6h-0.1c-1.2,0-2-0.1-2.8-0.3
			c0,0-0.6,2.6-0.6,3c0.1,0.5,0,1.9-0.1,2.1c-0.3,0.9-0.2,2.9,0.1,3.8c0.1,0.2-0.1,0.5-0.3,0.7c0,0-0.1,0.1-0.2,0.1
			c-0.1,0-0.1,0-0.3,0.1c0,0-0.1,0.2,0,0.4c0,0.1,0,0,0,0c0.1,0.2,0,0.3-0.1,0.4C59.6,75.5,58.9,75.6,58.4,75.6"/>
		<path class="st0" d="M65.4,64.2c0-0.5,0-1,0-2.6c0.1-0.2,0.6-1.2,0.9-1.6c0.4,0.1,1.7,0.4,2.8,1.2c0.1,0.3,0.4,1,1.2,2.3
			c-0.2,0-0.4-0.1-0.6-0.1c-0.8,0-1.6,0.3-2.4,0.6c-0.6,0.2-1.2,0.5-1.9,0.6V64.2z"/>
		<path class="st0" d="M79.1,63.9c-0.7-0.1-1.3-0.3-1.9-0.4c1.3-2.6,0.6-4.2-0.5-5.9C78.6,58.5,79.4,59.8,79.1,63.9"/>
		<path class="st0" d="M52,59.1c-0.1-0.9,0.8-2.2,1.1-3c0.4-0.8,0.5-1.2,0.5-1.2c0.2-0.2,0.5-0.3,0.7-0.4c0.1-0.1,0.4-0.1,0.6-0.3
			c0.2,1,0.1,1.8-0.2,2.7C54.2,57.2,52.6,58.5,52,59.1"/>
		<path class="st0" d="M46.8,72.8c0-0.4,0-1.7,0-2.1c0.1-0.4,0.3-1.5,0.3-1.7c0,0,0.1-0.3,0.1-0.4c0.4-1.2,0.8-2.5,0.8-2.8
			c0-0.3,0.3-0.6,0.6-0.8c0,0,0.2-0.1,0.4-0.1c2.9-0.9,3.7-1.4,4-2c0.1-0.2-0.1-0.3-0.2-0.5c-0.3-0.5-0.7-1.2-0.5-1.8
			c0.3-0.5,1.4-1.6,2.2-2.2c-0.8,3.1-0.4,4.1,0,5c-0.2,0.2-1.1,1-1.6,1.5c-0.2,0.2-0.4,0.4-0.5,0.5c-2.5,0.3-2.3,0.4-2.6,0.6
			c-0.6,0.4-1.3,2.2-1.7,3.5c0,0.1-0.1,0.2,0.2,0.5c0.1,0.1,0.1,0.5,0,0.6c0,0-0.1,0.1-0.1,0.2c-0.2,0.1-0.1,0,0,0.1L48,71
			c0,0.1,0.1,0.6,0,1C47.9,72.3,47.3,72.6,46.8,72.8"/>
		<path class="st0" d="M65.4,74c-0.2-0.4-0.2-1.1-0.1-1.6c0.1-0.4,0.1-0.8,0-1.1c0,0,0-0.6,0.7-1.1c0.1-0.1,0.2-0.2,0.4-0.3
			c0.8-0.7,1.5-1.3,1.5-1.7c0-0.6-0.3-0.9-0.6-1.3c-0.3-0.4-0.6-0.8-0.7-1.3c0.1,0,0.4-0.1,0.5-0.2c0.2-0.1,0.6-0.2,0.9-0.3
			c0,0.9,0.7,2,1.3,2.7c0.1,0.1,0.2,0.3,0,0.7c-0.1,0.1-0.3,0.3-0.5,0.4c-1.2,0.8-2,1.7-2,2.1c0,0.1,0,0.3,0,0.3
			c0,0.3-0.1,0.4-0.5,0.5c-0.1,0-0.1,0-0.1,0c0,0.2,0,0.4,0.3,0.7c0.1,0.1,0.2,0.2,0.2,0.3C66.6,73.3,66,74,65.4,74L65.4,74z"/>
		<path class="st0" d="M56.4,75.1c-0.7-0.1-0.8-0.2-0.9-0.3c0.1-0.1,0.3-0.5,0.5-0.7c0.3-0.4,0.5-0.5,0.5-0.5c0.7-0.3,1-1.2,1-2.2
			c0-0.2-0.1-1.6-0.5-2.6c-0.1-0.2-0.2-0.3-0.3-0.6c-0.3-0.4-0.6-0.8-0.7-1.3c0.9-0.4,1.5-0.7,1.9-0.8c0,0,0.1,0.3,0.2,0.7
			c0.2,0.6,0.3,1.3,0.2,1.8c-0.2,1.1,0.1,3.6,0.3,4.1c0,0.1,0,0.5-0.1,0.7c0,0.1-0.1,0.2-0.4,0.2l0,0c-0.1,0-0.2,0-0.3,0.2
			c-0.1,0.2-0.1,0.3,0,0.6c0,0.3-0.2,0.7-0.3,0.7C57.4,75,56.8,75.1,56.4,75.1"/>
		<path class="st0" d="M80.3,63.1c0.1-2.2-0.3-3.9-1.6-5.2c-0.8-0.8-1.6-1.1-2.8-1.2c0,0-0.3-0.2-0.3-0.2c0.5-0.4,1.4-0.7,2-0.7
			c1.9,0,3.8,2,5.2,6.3L80.3,63.1z"/>
		<path class="st0" d="M74.8,75c-0.2,0-0.5,0-0.6-0.1c0-0.1,0.2-0.6,0.5-1c0.1-0.1,0.8-1,0.8-1.6c0-2.5-1-4.3-2.9-5.2
			c-0.1-0.2-0.5-0.6-0.1-1.3c0.7,0.7,1.6,1.3,2.1,1.6c1.2,0.7,1.4,1,1.5,1c-0.2,1.3,0.3,2.6,0.6,3.4c0.1,0.2,0.2,0.5,0.2,0.6
			c0.1,0.4-0.2,0.8-0.5,0.8l-0.1-0.2l0.1,0.2c0,0-0.2,0.1-0.3,0.3c-0.1,0.2,0,0.3,0.2,0.5c0,0.1,0.1,0.5,0,0.6
			C76,74.9,75.4,75,74.8,75L74.8,75z"/>
		<path class="st0" d="M53.9,49.6c-0.1-0.1-0.9-0.4-1.6-0.4c0.1-0.1,0.2-0.2,0.5-0.3l0.2-0.1c0,0-0.1-0.1-0.2-0.1
			c0,0-0.3-0.2-0.3-0.6c0-0.1-0.2-0.7-0.1-0.8c0.4,0.3,1.4,0.9,1.7,1.1C54.2,49,54,49.4,53.9,49.6"/>
		<path class="st0" d="M50.5,53.2c0,0,0.1-0.1,0.1-0.2c0.2-0.4,0.6-1.2,0.7-1.7c0-0.3,0.2-0.9,0.6-1.5c0.2,0,1.7,0.5,1.7,0.6
			c0,0.1-0.3,0.6-0.4,0.7l-0.7-0.3c0,0-0.1,0-0.1,0c-0.1,0-0.1,0-0.2,0.1c0,0,0,0.2-0.5,1c0,0.1,0,0.2,0.1,0.3l0.7,0.3
			c-0.2,0.4-0.7,1.2-1,1.5L50.5,53.2z"/>
		<path class="st0" d="M50.9,55.6c-0.2,0-0.6-0.1-0.7-0.3c-0.3-0.3-0.3-1-0.3-1.1c0,0,0,0,0-0.1c0-0.1,0-0.4,0.2-0.4
			c0.4,0.5,1.4,1.1,1.8,1.3C51.8,55.5,50.9,55.6,50.9,55.6"/>
		<path class="st0" d="M63.2,55.8c-1.3-0.4-2.3-1.4-2.6-2.6c0,0,0-0.1,0-0.1c-1-2.6-2-5.1-5.3-5.2c-0.2,0-0.3,0-0.5,0
			c0,0-0.4,0-0.6-0.3c0,0,1-0.5,2.4-0.4c3.7,0.3,4.7,3.3,5.3,5.7c0.2,0.9,0.7,2,1.5,2.6V55.8z"/>
		<path class="st0" d="M55.4,59.5c0.5-2.3,1.3-5.6,0-7l-0.1-0.1l-0.1,0.1c-0.1,0.2-0.6,0.6-0.8,0.8c-0.2,0.1-0.4,0.2-0.6,0.3
			c-0.1,0-1.1,0.5-1.2,0.6c1.7-1.9,2.8-4.2,2.8-5.6c1.5,0.3,2.9,1.7,3.4,2.9c0.1,0.2,0.2,0.5,0.3,0.8c0.4,1.2,1,2.8,2,3.5
			C60.3,56.4,58,58.2,55.4,59.5"/>
		<path class="st0" d="M49.8,55.9L49.8,55.9c-0.7-0.1-0.6-1.9-0.6-1.9c0,0,0,0,0,0s-0.6,0-0.6,0c0,0,0,0,0-0.1c0,0-0.1-0.7-0.2-1.1
			c0-0.1,0.1-0.2,0.2-0.2c0.3-0.1,1-0.2,1-0.2c0,0,0,0,0,0c0-0.1,0-0.4-0.1-0.6c-0.8,0-1.8,0.3-2,0.4c0,0,0,0,0,0
			c-0.2,1.2,0.4,1.5,0.4,1.5c0.4,0.4,0.7,1.9,0.8,2.1C49,56,49.6,55.9,49.8,55.9"/>
		<path class="st0" d="M51.3,56.7L51.3,56.7L51.3,56.7c0-0.2-0.1-0.3-0.1-0.3c-0.7,0.2-1.9,0.4-2.3,0.3c0,0,0,0,0,0h0
			c0,0,0,0.1,0.1,0.3c0.1,0.6,0.1,0.9,0.8,0.9c0,0,1.3,0,1.3-0.7C50.9,57,51.3,56.9,51.3,56.7"/>
		<path class="st0" d="M47.4,50.5L47.4,50.5C47.4,50.5,47.4,50.5,47.4,50.5c-0.3-0.1-1-0.5-1.4-0.5h0l0,0c-0.1,0,0.4,0.8,0.9,1.2
			C47,51.1,47.3,50.7,47.4,50.5"/>
		<path class="st0" d="M47.6,51.4c0,0,0,0.1,0,0.1c0.1,0,0.4-0.2,0.7-0.2c0.2,0,0.4-0.1,0.6-0.1c0.2,0,0.4,0,0.6-0.1
			c0,0,0-0.1,0-0.1h0c-0.6-0.8-1.5-2.2-1.5-2.2s0,0,0,0c0,0,0,0,0,0s-0.1,0.1-0.1,0.4c-0.1,0.8,0.4,1.4,0.4,1.5c0,0,0,0,0,0
			C47.8,51,47.6,51.2,47.6,51.4"/>
		<polygon class="st0" points="98.4,53.3 98.2,51 99.4,51 99.2,53.3 		"/>
		<path class="st0" d="M50.4,51.6c0-0.3-0.1-0.8-0.3-1.3c-0.1-0.2-0.5-0.6-0.9-1c0.3-0.3,1.3-0.9,2.6-0.9c0,0,0.3,0,0.3,0
			c-0.8,0.4-1,0.8-1.2,1.2c-0.3,0.6-0.3,0.7-0.3,0.8C50.5,51,50.4,51.6,50.4,51.6"/>
		<path class="st0" d="M113.5,61.8c0.9-1.2,2.8-3.4,7.1-3.4c0,0,0,0,0,0c0,0,0.1,0,0.1-0.2c0-0.2-0.1-0.2-0.1-0.2
			c-0.9,0-2.5,0.2-3.3,0.3c-0.3,0-0.6,0-0.8,0c-0.4-0.1-0.8-0.5-0.8-1.1c0-0.1,0-3.4,0-4.6h1.1l0.1,1.9h0.4c0.5,0,0.6,0.5,0.6,0.5
			l0.1,0.6h0.3l0.1-0.6c0,0,0.1-0.5,0.6-0.5h0.4l0.4-4.5h-0.7c-0.5,0-0.5-0.3-0.5-0.3s0-0.3-0.4-0.3c-0.3,0-0.4,0.3-0.4,0.3
			s0,0.3-0.5,0.3h-0.7l0.2,1.9h-1c0-0.2,0-2.8,0-2.9v0h0.3c0,0,0.1,0,0.1-0.1c0-0.1,0-0.2,0-0.2c0,0-3.9-0.7-10.3-0.7
			c-6.3,0-10.2,0.8-10.2,0.8c0,0,0,0.1,0,0.2c0,0.1,0.1,0.1,0.1,0.2h0.3v7.8c0,0.1,0,1.3-0.3,1.6c0,0-0.1,0.1-0.2,0.1
			c-0.1,0-0.2-0.1-0.2-0.1c-0.2-0.4-0.6-1.4-0.6-1.5l0,0H95c0,0,0.1-0.1,0.1-0.2s-0.1-0.2-0.1-0.2h-1.9c1.5-0.3,1.7-1,1.7-1.8
			c0.1-3.2-0.1-4.1-0.2-5c-0.1-0.3-0.2-0.4-0.2-0.4l-1.9,2.2l-0.2,0.3l-0.1,0.8l-2.2,0.2l0.1,1.1l2.1-0.1l-0.2,0.3
			c0,0-1.5,0.2-1.7,0.3c0,0,0,0.2,0,0.2c-0.6,0.1-3,0.4-3.2,0.9c-0.2,0.5-1.1,2.3-1.2,2.6c-0.2,0.5-0.7,1-0.9,1.1
			c-0.3,0.2-0.9,0-1.1-0.2c-0.1-0.1-0.3-0.3-0.4-0.2c-0.1,0.1-0.2,0.2-0.2,0.3c-0.2-0.2-0.5-0.4-0.7-0.6c0,0-0.2,0-0.3,0.1
			c-0.1,0.1,0,0.2,0,0.2c0.5,0.4,1,0.9,1.5,1.5c1.3,1.4,2.7,2.9,4.4,3.3c-1.6,0.6-3.5,1.5-6,1.4c-0.1,0-0.2,0-0.3,0
			c-3.7-0.1-7.2-1.1-11-3.2c1.2,3,3.4,4.6,5.1,5.6c1.1,0.7,2,1.2,2.2,2c0.4,1.2,0.3,3,0.2,3.6c0,0.2-0.3,0.6-0.6,1
			c-0.4,0.4-0.8,1.1-0.7,1.4c0.1,0.1,0.4,0.2,1.1,0.2c0.1,0,0.2,0,0.2,0c0,0,0.1,0,0.1,0c0.1,0,0.3,0,0.3-0.1c0-0.1,0.2-0.4,0.1-0.6
			c0,0,0-0.1-0.2-0.2c0,0,0,0,0,0c-0.1-0.2-0.1-0.2,0-0.3c0.1-0.1,0.1-0.1,0.3-0.2l0,0c0.1,0,0.3-0.1,0.4-0.2
			c0.1-0.1,0.2-0.3,0.1-0.4c-0.3-0.7-0.3-4.5-0.3-4.9l0-0.1v-0.3c-0.1-0.7-0.4-0.8-0.6-0.9c-1.2-0.6-2.1-2-2.2-2.5l0-0.1
			c0.9,0.3,2.8,0.8,5.3,0.8c2.3,0,4.1-0.5,5.8-1.1c0.7-0.2,1.3-0.5,2-0.7c1-0.3,2.1-0.4,3.4-0.4c3.3,0,4.7,1.4,5.5,1.8
			c1.7,0.9,3.6,1.7,6.3,1.9l-0.1,1.8c0,0.1,0,0.2-0.1,0.2h-1.8c0,0,0,0.1,0,0.3c0,0.1,0,0.2,0,0.2s0.2,0.3,0.3,0.3c0.7,0,5.4,0,6,0
			c0.1,0,0.3-0.3,0.3-0.3s0-0.1,0-0.2c0-0.1,0-0.3,0-0.3h-2c-0.1,0-0.1-0.1-0.1-0.2l0-1.7c2.7-0.2,4.4-1.1,4.5-1.1
			C111.4,65.9,111.9,63.9,113.5,61.8 M117.3,50.9h1.4l-0.2,2.8l-1,0L117.3,50.9z M106.4,67l-0.1,1.7c0,0.1,0,0.2-0.1,0.2h-1.2
			c0,0-0.1-0.1-0.1-0.1c0,0,0,0,0,0l0-1.8C105.2,67.1,106.2,67.1,106.4,67 M110.8,65.3c0,0-2.1,1-5.1,1c-1.4,0-2.7-0.1-3.9-0.5
			c-1.2-0.4-5.4-2.1-5.4-7.2l0-0.5h5.4v-8.8l7.9,0v8.8h5.3l0.8,0.6C111.9,61.1,110.8,65.3,110.8,65.3 M97.4,50.1h0.7
			c0.4,0,0.4-0.3,0.4-0.3s0-0.3,0.3-0.3c0.3,0,0.3,0.3,0.3,0.3s0,0.3,0.4,0.3h0.7l-0.3,4h-0.3c-0.4,0-0.6,0.4-0.6,0.4l-0.1,0.5h-0.2
			l-0.1-0.5c0,0-0.1-0.4-0.5-0.4h-0.4L97.4,50.1z M90.9,61.7L90.9,61.7c-0.2-0.5-0.7-2.3-0.8-2.6c-0.1-0.4-0.6-1.6-0.7-1.7
			c0,0-0.4,0.2-0.4,0.2s-0.6-0.5-0.3-0.8c0.3-0.4,2.2-0.2,2.6-0.1l0,3.6C91.2,60.2,91.2,60.9,90.9,61.7 M87.9,62.7
			c0,0.1,0,0.2,0.1,0.3c-1-0.1-2-0.9-2.9-1.8c0.1-0.1,2.3-2.6,2.4-2.7c0.3,0.4,1.1,1.4,1.2,1.7c1,1.5,0.3,2-0.3,2.3
			C88.3,62.5,87.9,62.5,87.9,62.7"/>
		<path class="st0" d="M84.3,47.9c0.3,0.1,0.7,0.3,1,0.4l3,4.7h0h-0.1c-0.2,0-0.5,0-0.5,0.2c0.1,0.2,0.3,0,0.5,0.4
			c0.2,0.6,1.2,0.4,1.2,0.4L89,53h-0.3l-2.8-4.5c1.5,0.6,2.8,1.2,3.4,1.9c0,0,0.1,0,0.1,0c0.1,0,0.1,0,0.1-0.1c0,0,0-0.1,0-0.1
			c-0.7-0.9-2.1-1.6-4-2.4l-1.4-2.3c0,0,0,0,0-0.1c-2.4-3.9-4.5-4.2-5-4.2c0,0-0.1,0-0.1,0c-0.5,0-0.9,0.2-1.1,0.6
			c-0.3,0.6-0.1,1.5,0.6,2.5C79.4,45.9,81.9,46.9,84.3,47.9 M84.4,47.5c-2.3-0.9-4.7-1.9-5.6-3.2c-0.6-0.8-0.8-1.6-0.5-2
			c0.1-0.2,0.4-0.4,0.7-0.4h0.1c1,0,2.8,1.1,4.6,4c0,0,0,0,0,0l1.1,1.8C84.7,47.6,84.6,47.5,84.4,47.5"/>
		<path class="st0" d="M93,49.5L92.9,49l1-0.4c-0.1-0.1,0-0.2,0.1-0.3c0.1-0.1,0.6-0.6,0.6-0.7c0.2-0.8-0.9-1.3-1.7-1.2
			c-0.2,0-0.8,0.1-1.2,0c-0.1,0-0.3,0-0.3,0l-0.1,0.2c0,0.1,0.5,0.6,0.7,0.9c0.2,0.2-0.4,0.7-0.2,0.8c0,0,0.1,0,0.2,0
			c0,0,0,0.2,0,0.2c0,0,0.1,0.1,0.1,0.1c0,0,0,0.4,0,0.4c0.1,0.1,0.6,0.2,0.6,0.2c0,0,0,0,0,0.1c0,0-0.2,0.1-0.2,0.1
			c-0.1,0-0.2,0.2-0.1,0.3c0.1,0.1,0.3,0.2,0.3,0.2c-0.1,0.1-0.4,0.1-0.4,0.5c0,0.3,0.1,1.2,0.1,1.4l0.3-0.2l0.2-1.7L93,49.5z"/>
		<path class="st0" d="M101.6,64.7v-5.6h-4.2C97.5,62.8,100.7,64.3,101.6,64.7"/>
		<path class="st0" d="M109.8,64.7c0.1,0,0.1,0,0.2-0.1c1.2-3.1,3-4.8,3.8-5.5c-1.3,0-3,0-4,0V64.7z"/>
		<path class="st0" d="M102.8,50.4l0,14.6c1,0.3,1.9,0.4,3,0.4c0.1,0,1.9,0,2.9-0.4c0-3.5,0-13.2,0-14.6H102.8z M107,59.3
			c0,0.3-0.1,0.5-0.2,0.5l0,0h-1.9l0-0.1c0,0-0.1-0.2-0.1-0.4v-0.4h2.3V59.3z M107.6,58l-0.2,0c0,0-0.4,0-1.8,0c-1.3,0-1.7,0-1.7,0
			l-0.2,0v-6.6h3.8V58z"/>
		<path class="st0" d="M92.6,64.3c-3.2,0-5.9,2.6-5.9,5.9s2.6,5.9,5.9,5.9c3.2,0,5.9-2.6,5.9-5.9S95.9,64.3,92.6,64.3 M93.1,69.3
			C93.1,69.3,93,69.3,93.1,69.3C93,69.3,93,69.3,93.1,69.3l-0.2-4.1c0,0,0,0,0,0c1.1,0.1,2.2,0.5,3.1,1.3c0,0,0,0,0,0L93.1,69.3z
			 M93,71.1L93,71.1C93,71,93,70.9,93,71.1l3,2.8v0c-0.9,0.8-2,1.2-3.1,1.3L93,71.1z M97.6,69.9l-4.2-0.1c0,0,0,0,0,0c0,0,0,0,0,0
			l2.9-3c0,0,0,0,0,0h0C97.1,67.6,97.6,68.7,97.6,69.9C97.7,69.9,97.7,69.9,97.6,69.9 M96.4,73.5L96.4,73.5l-2.9-3l0,0l0,0v0
			c0,0,0,0,0,0l4.2-0.1c0,0,0,0,0,0c0,0.9-0.3,1.8-0.8,2.5C96.7,73.1,96.5,73.3,96.4,73.5 M91.8,69.8C91.9,69.8,91.8,69.8,91.8,69.8
			l-4.2,0.1c0-0.6,0.2-1.2,0.4-1.7c0.2-0.5,0.5-1,0.9-1.4h0h0l2.8,2.8L91.8,69.8z M92.3,71C92.3,71,92.3,70.9,92.3,71l0.1,4.1
			c-1.1-0.1-2.2-0.5-3.1-1.3L92.3,71z M92.3,69.3C92.3,69.3,92.3,69.3,92.3,69.3L92.3,69.3l-3-2.9c0,0,0,0,0,0
			c0.9-0.8,1.9-1.2,3.1-1.3c0,0,0,0,0,0L92.3,69.3z M91.8,70.5C91.9,70.5,91.8,70.5,91.8,70.5l-2.9,3c-0.8-0.8-1.2-1.9-1.3-3.1
			L91.8,70.5z"/>
		<path class="st0" d="M120.7,59.5C120.7,59.5,120.6,59.5,120.7,59.5L120.7,59.5c-2.3,0-4.3,0.9-5.9,2.4c-1.6,1.6-2.4,3.6-2.4,5.8
			c0,2.1,0.8,4.2,2.3,5.7c0.1,0.1,0.2,0.2,0.3,0.3l0,0c1.5,1.5,3.6,2.2,5.7,2.2c4.6,0,8.3-3.7,8.3-8.3
			C128.9,63.2,125.2,59.5,120.7,59.5 M125.7,62.4l-4.5,4.4l-0.1,0.1c0,0,0,0,0,0c0,0,0-0.1,0-0.1l-0.1-6.4
			C122.7,60.5,124.4,61.2,125.7,62.4L125.7,62.4L125.7,62.4z M121.1,68.9C121.1,68.9,121.1,68.8,121.1,68.9
			C121.2,68.9,121.2,68.9,121.1,68.9l4.6,4.4c-1.3,1.2-2.9,1.8-4.6,1.9C121,75.2,121.1,68.9,121.1,68.9 M121.7,67.5
			C121.7,67.5,121.7,67.4,121.7,67.5C121.7,67.4,121.7,67.4,121.7,67.5C121.7,67.4,121.7,67.4,121.7,67.5l4.4-4.6
			c1.2,1.3,1.8,3,1.9,4.7L121.7,67.5z M121.7,68.3C121.7,68.3,121.7,68.3,121.7,68.3C121.7,68.3,121.7,68.3,121.7,68.3
			C121.7,68.3,121.7,68.2,121.7,68.3l6.4-0.1c-0.1,1.7-0.8,3.4-2,4.6L121.7,68.3z M120.3,66.7C120.3,66.7,120.3,66.9,120.3,66.7
			L120.3,66.7l-4.6-4.4c1.3-1.2,2.9-1.9,4.7-2L120.3,66.7z M120.2,68.9L120.2,68.9C120.2,68.9,120.3,68.8,120.2,68.9l0.2,6.3
			c-1.7-0.1-3.4-0.8-4.6-1.9L120.2,68.9z M119.6,67.3L119.6,67.3c0.1,0.2,0,0.1,0,0.1l-6.3,0.1c0.1-1.7,0.7-3.4,1.9-4.7L119.6,67.3z
			 M113.3,68.2l6.3,0.1c0,0,0.1,0,0.1,0c0,0,0,0,0,0l-4.4,4.5C114.1,71.5,113.4,69.9,113.3,68.2L113.3,68.2L113.3,68.2z"/>
	</g>
	<g>
		<g>
			<path class="st0" d="M108.9,92.3c0-1.8-1.4-2.9-3.8-2.9H99v9.3h1.4v-3.4h4.2l2.8,3.4h1.8l-2.8-3.5
				C107.2,94.9,108.9,94.3,108.9,92.3 M100.4,90.7h4.7c1.5,0,2.3,0.5,2.3,1.6c0,0.7-0.4,1.6-2.3,1.6h-4.7V90.7z"/>
		</g>
		<g>
			<polygon class="st0" points="121.3,96.6 113.5,89.4 112.2,89.4 112.2,98.6 113.6,98.6 113.6,91.4 121.4,98.6 122.7,98.6 
				122.7,89.4 121.3,89.4 			"/>
		</g>
		<g>
			<polygon class="st0" points="126,98.6 135.5,98.6 135.5,97.3 127.5,97.3 127.5,94.5 134.9,94.5 134.9,93.2 127.5,93.2 
				127.5,90.7 135.5,90.7 135.5,89.3 126,89.3 			"/>
		</g>
		<g>
			<polygon class="st0" points="147.4,89.3 143.6,93.8 139.7,89.3 137.9,89.4 142.8,95 142.8,98.6 144.3,98.6 144.3,95.1 
				149.2,89.4 			"/>
		</g>
		<g>
			<polygon class="st0" points="53.8,89.3 50,93.8 46.1,89.3 44.3,89.4 49.2,95 49.2,98.6 50.7,98.6 50.7,95.1 55.6,89.4 			"/>
		</g>
		<g>
			<path class="st0" d="M76.7,89.1c-3.5,0-6.3,2.1-6.3,4.8c0,2.6,2.8,4.8,6.3,4.8c3.5,0,6.3-2.1,6.3-4.8
				C83,91.2,80.2,89.1,76.7,89.1 M76.7,97.3c-2.6,0-4.8-1.6-4.8-3.4c0-1.9,2.2-3.4,4.8-3.4c2.6,0,4.8,1.6,4.8,3.4
				C81.5,95.7,79.3,97.3,76.7,97.3"/>
		</g>
		<g>
			<path class="st0" d="M95.9,93.9L95.9,93.9C95.9,93.9,95.9,93.8,95.9,93.9l0-4.5h-1.5v4.5h0c0,1.9-1,3.4-3.6,3.4
				c-2.6,0-3.6-1.6-3.6-3.4h0v-4.5h-1.5v4.5c0,0,0,0,0,0h0c0,0,0,0,0,0c0,0,0,0,0,0l0,0c0,2.6,1.6,4.7,5.1,4.7v0c0,0,0,0,0,0
				s0,0,0,0v0C94.3,98.6,95.9,96.5,95.9,93.9L95.9,93.9C95.9,93.9,95.9,93.9,95.9,93.9C95.9,93.9,95.9,93.9,95.9,93.9z M95.9,93.9
				L95.9,93.9L95.9,93.9L95.9,93.9z"/>
		</g>
		<path class="st0" d="M65.8,89.4V95c0,0.7-0.1,1.1-0.3,1.3c-0.3,0.4-0.8,0.7-1.3,0.7c-0.7,0-1.3-0.4-1.6-0.9l-1.5,0.6
			c0.5,1.2,1.7,1.9,3.1,1.9c1.2,0,2.4-0.7,2.9-1.7c0.3-0.5,0.4-1.1,0.4-2v-5.6H65.8z"/>
		<polygon class="st0" points="42.1,98.6 42,89.4 40.9,89.4 37.5,94.1 37.5,94.2 37.5,94.1 34.2,89.4 33,89.4 33,98.6 34.3,98.6 
			34.3,92.1 37.1,96.2 36.5,96.2 38,96.2 38.1,96.2 40.7,92.1 40.7,98.6 		"/>
		<polygon class="st0" points="38,93.4 37.4,94.3 37.8,94.5 38.5,93.9 		"/>
		<polygon class="st0" points="37,93.4 37.6,94.3 37.2,94.5 36.5,93.9 		"/>
		<polygon class="st0" points="36.5,95.3 37.5,97.2 38.8,95.2 		"/>
	</g>
	<g>
		<path class="st0" d="M148.1,50.9c-0.1,0-0.2,0.1-0.2,0.2v15c0,0.1,0.1,0.2,0.2,0.2c0.1,0,0.2-0.1,0.2-0.2v-15
			C148.3,51,148.2,50.9,148.1,50.9z"/>
		<path class="st0" d="M136.8,31.3c0.1,0,0.2-0.1,0.2-0.2v-1c0-0.1-0.1-0.2-0.2-0.2s-0.2,0.1-0.2,0.2v1
			C136.7,31.3,136.8,31.3,136.8,31.3z"/>
		<path class="st0" d="M135,31.3c0.1,0,0.2-0.1,0.2-0.2v-1c0-0.1-0.1-0.2-0.2-0.2c-0.1,0-0.2,0.1-0.2,0.2v1
			C134.9,31.3,134.9,31.3,135,31.3z"/>
		<path class="st0" d="M133.2,31.3c0.1,0,0.2-0.1,0.2-0.2v-1c0-0.1-0.1-0.2-0.2-0.2c-0.1,0-0.2,0.1-0.2,0.2v1
			C133.1,31.3,133.1,31.3,133.2,31.3z"/>
		<path class="st0" d="M131.6,30.2c0-0.1-0.1-0.2-0.2-0.2c-0.1,0-0.2,0.1-0.2,0.2v1c0,0.1,0.1,0.2,0.2,0.2c0.1,0,0.2-0.1,0.2-0.2
			V30.2z"/>
		<path class="st0" d="M135.9,33.2c0.1,0,0.2-0.1,0.2-0.2v-1c0-0.1-0.1-0.2-0.2-0.2c-0.1,0-0.2,0.1-0.2,0.2v1
			C135.8,33.1,135.8,33.2,135.9,33.2z"/>
		<path class="st0" d="M134.1,33.2c0.1,0,0.2-0.1,0.2-0.2v-1c0-0.1-0.1-0.2-0.2-0.2c-0.1,0-0.2,0.1-0.2,0.2v1
			C134,33.1,134,33.2,134.1,33.2z"/>
		<path class="st0" d="M132.3,33.2c0.1,0,0.2-0.1,0.2-0.2v-1c0-0.1-0.1-0.2-0.2-0.2c-0.1,0-0.2,0.1-0.2,0.2v1
			C132.2,33.1,132.2,33.2,132.3,33.2z"/>
		<path class="st0" d="M136.7,34.8c0,0.1,0.1,0.2,0.2,0.2s0.2-0.1,0.2-0.2v-1c0-0.1-0.1-0.2-0.2-0.2s-0.2,0.1-0.2,0.2V34.8z"/>
		<path class="st0" d="M134.9,34.8c0,0.1,0.1,0.2,0.2,0.2c0.1,0,0.2-0.1,0.2-0.2v-1c0-0.1-0.1-0.2-0.2-0.2c-0.1,0-0.2,0.1-0.2,0.2
			V34.8z"/>
		<path class="st0" d="M133.1,34.8c0,0.1,0.1,0.2,0.2,0.2c0.1,0,0.2-0.1,0.2-0.2v-1c0-0.1-0.1-0.2-0.2-0.2c-0.1,0-0.2,0.1-0.2,0.2
			V34.8z"/>
		<path class="st0" d="M131.6,33.8c0-0.1-0.1-0.2-0.2-0.2c-0.1,0-0.2,0.1-0.2,0.2v1c0,0.1,0.1,0.2,0.2,0.2c0.1,0,0.2-0.1,0.2-0.2
			V33.8z"/>
		<path class="st0" d="M135.8,36.6c0,0.1,0.1,0.2,0.2,0.2c0.1,0,0.2-0.1,0.2-0.2v-1c0-0.1-0.1-0.2-0.2-0.2c-0.1,0-0.2,0.1-0.2,0.2
			V36.6z"/>
		<path class="st0" d="M134,36.6c0,0.1,0.1,0.2,0.2,0.2c0.1,0,0.2-0.1,0.2-0.2v-1c0-0.1-0.1-0.2-0.2-0.2c-0.1,0-0.2,0.1-0.2,0.2
			V36.6z"/>
		<path class="st0" d="M132.2,36.6c0,0.1,0.1,0.2,0.2,0.2c0.1,0,0.2-0.1,0.2-0.2v-1c0-0.1-0.1-0.2-0.2-0.2c-0.1,0-0.2,0.1-0.2,0.2
			V36.6z"/>
		<path class="st0" d="M135.8,40.2c0,0.1,0.1,0.2,0.2,0.2c0.1,0,0.2-0.1,0.2-0.2v-1c0-0.1-0.1-0.2-0.2-0.2c-0.1,0-0.2,0.1-0.2,0.2
			V40.2z"/>
		<path class="st0" d="M134,40.2c0,0.1,0.1,0.2,0.2,0.2c0.1,0,0.2-0.1,0.2-0.2v-1c0-0.1-0.1-0.2-0.2-0.2c-0.1,0-0.2,0.1-0.2,0.2
			V40.2z"/>
		<path class="st0" d="M132.2,40.2c0,0.1,0.1,0.2,0.2,0.2c0.1,0,0.2-0.1,0.2-0.2v-1c0-0.1-0.1-0.2-0.2-0.2c-0.1,0-0.2,0.1-0.2,0.2
			V40.2z"/>
		<path class="st0" d="M136.7,42c0,0.1,0.1,0.2,0.2,0.2s0.2-0.1,0.2-0.2v-1c0-0.1-0.1-0.2-0.2-0.2s-0.2,0.1-0.2,0.2V42z"/>
		<path class="st0" d="M134.9,42c0,0.1,0.1,0.2,0.2,0.2c0.1,0,0.2-0.1,0.2-0.2v-1c0-0.1-0.1-0.2-0.2-0.2c-0.1,0-0.2,0.1-0.2,0.2V42z
			"/>
		<path class="st0" d="M133.1,42c0,0.1,0.1,0.2,0.2,0.2c0.1,0,0.2-0.1,0.2-0.2v-1c0-0.1-0.1-0.2-0.2-0.2c-0.1,0-0.2,0.1-0.2,0.2V42z
			"/>
		<path class="st0" d="M131.4,40.9c-0.1,0-0.2,0.1-0.2,0.2v1c0,0.1,0.1,0.2,0.2,0.2c0.1,0,0.2-0.1,0.2-0.2v-1
			C131.6,41,131.5,40.9,131.4,40.9z"/>
		<path class="st0" d="M136.7,38.4c0,0.1,0.1,0.2,0.2,0.2s0.2-0.1,0.2-0.2v-1c0-0.1-0.1-0.2-0.2-0.2s-0.2,0.1-0.2,0.2V38.4z"/>
		<path class="st0" d="M134.9,38.4c0,0.1,0.1,0.2,0.2,0.2c0.1,0,0.2-0.1,0.2-0.2v-1c0-0.1-0.1-0.2-0.2-0.2c-0.1,0-0.2,0.1-0.2,0.2
			V38.4z"/>
		<path class="st0" d="M133.1,38.4c0,0.1,0.1,0.2,0.2,0.2c0.1,0,0.2-0.1,0.2-0.2v-1c0-0.1-0.1-0.2-0.2-0.2c-0.1,0-0.2,0.1-0.2,0.2
			V38.4z"/>
		<path class="st0" d="M131.6,37.4c0-0.1-0.1-0.2-0.2-0.2c-0.1,0-0.2,0.1-0.2,0.2v1c0,0.1,0.1,0.2,0.2,0.2c0.1,0,0.2-0.1,0.2-0.2
			V37.4z"/>
		<path class="st0" d="M137.8,42.7c-0.1,0-0.2,0.1-0.2,0.2v0.5H137h-0.4h-0.5h-0.4h-0.5h-0.4h-0.5H134h-0.5h-2.2h-0.5h-0.4h-0.4
			l0-3.7c0,0.2,0,0.4,0,0.5l-0.1-10l0.8-0.6c0,0,0.1-0.1,0.1-0.2l-0.2-4.4l0.6-0.9h5.5c0.1,0,0.2-0.1,0.2-0.2c0-0.1-0.1-0.2-0.2-0.2
			H131c-0.1,0-0.1,0-0.1,0.1l-0.7,1c0,0,0,0.1,0,0.1l0.2,4.4l-0.8,0.6c0,0-0.1,0.1-0.1,0.1l0.1,13.4c0,0,0,0,0,0.1l0.1,6.9
			c0,0.1,0.1,0.2,0.2,0.2c0,0,0,0,0,0c0.1,0,0.2-0.1,0.2-1.2l-0.1-5.8h7.8c0.1,0,0.2-0.1,0.2-0.2v-0.7
			C137.9,42.8,137.9,42.7,137.8,42.7z"/>
		<path class="st0" d="M135.2,25.8v0.7v0.2v0.7c0,0.1,0.1,0.2,0.2,0.2c0.1,0,0.2-0.1,0.2-0.2v-0.7v-0.2v-0.7c0-0.1-0.1-0.2-0.2-0.2
			C135.2,25.7,135.2,25.7,135.2,25.8z"/>
		<path class="st0" d="M133.7,25.8v0.7v0.2v0.7c0,0.1,0.1,0.2,0.2,0.2c0.1,0,0.2-0.1,0.2-0.2v-0.7v-0.2v-0.7c0-0.1-0.1-0.2-0.2-0.2
			C133.8,25.7,133.7,25.7,133.7,25.8z"/>
		<path class="st0" d="M132.2,25.8v0.7v0.2v0.7c0,0.1,0.1,0.2,0.2,0.2c0.1,0,0.2-0.1,0.2-0.2v-0.7v-0.2v-0.7c0-0.1-0.1-0.2-0.2-0.2
			C132.3,25.7,132.2,25.7,132.2,25.8z"/>
		<path class="st0" d="M172.4,61.9l-10.8,0c-0.1,0-0.2,0.1-0.2,0.2V75h0c0,0.1,0.1,0.2,0.2,0.2c0.1,0,0.2-0.1,0.2-0.2h0v0
			c0,0,0,0,0,0h0V62.3l10.6,0c0.1,0,0.2,0,0.2-0.1C172.6,62.1,172.5,61.9,172.4,61.9z"/>
		<path class="st0" d="M177,75V63.3l-0.2-0.4c-0.1,0-0.2,0.1-0.2,0.2v1.4l-0.4-0.6l0-8.5c0,0,0,0,0-0.1v-4.1v-0.4V31.8
			c0-0.1-0.1-0.2-0.2-0.2h-0.7v-1.5c0-0.1-0.1-0.2-0.2-0.2h-0.8v-0.9c0-0.1-0.1-0.2-0.2-0.2h-0.9c-0.1,0-0.2,0.1-0.2,0.2V30h-0.3
			v-0.2c0,0,0-0.1-0.1-0.1l-1.2-1.2c-0.1-0.1-0.1-0.1-0.2,0c-0.1,0-0.1,0.1-0.1,0.2v0.5h-2c-0.1,0-0.2,0.1-0.2,0.2V30h-3.6
			c-0.1,0-0.2,0.1-0.2,0.2v1.7h-2c-0.1,0-0.2,0.1-0.2,0.2v16.7h-0.5V48c0-0.1-0.1-0.2-0.2-0.2h-0.8v-1.7c0-0.1-0.1-0.2-0.2-0.2h-0.7
			V45c0-0.1-0.1-0.2-0.2-0.2h-0.8c-0.1,0-0.2,0.1-0.2,0.2V46h-0.7l-0.1-4.1c0-0.1-0.1-0.2-0.2-0.2c-0.1,0-0.2,0.1-0.2,0.2l0.1,4.1
			h-0.8v-0.7c0-0.1-0.1-0.2-0.2-0.2h-0.8c-0.1,0-0.2,0.1-0.2,0.2V46H156c-0.1,0-0.2,0.1-0.2,0.2v1.8l-0.6,0.6c0,0-0.1,0.1-0.1,0.1
			V54l-0.5,0.1c-0.1,0-0.2,0.1-0.2,0.2V59l-1.5,0.1c-0.1,0-0.2,0.1-0.2,0.2V66h-0.7v-7.7c0-0.1-0.1-0.2-0.2-0.2l-1.2-0.1v-6.2
			c0-0.1-0.1-0.2-0.2-0.2h-0.6v-1.2c0-0.1-0.1-0.2-0.1-0.2l-1.9-0.4v-4.9c0,0,0-0.1,0-0.1l-0.5-0.7V42c0-0.1-0.1-0.2-0.2-0.2
			l-0.5-0.1v-0.8c0-0.1-0.1-0.2-0.2-0.2h-4.1c-0.1,0-0.2,0.1-0.2,0.2v2.7l-0.6,0.4c0,0-0.1,0.1-0.1,0.1v3.6l-1.4,0.4v-0.6
			c0-0.1,0-0.1-0.1-0.1c0,0-0.1,0-0.1,0l-1,0.2c-0.1,0-0.2,0.1-0.2,0.2v0.4h0V29.9c0,0,0-0.1,0-0.1l-0.5-0.9v-4.7
			c0-0.1-0.1-0.2-0.1-0.2l-0.6-0.1v-4c0-0.1-0.1-0.2-0.2-0.2l-0.9-0.1v-0.2c0,0,0-0.1,0-0.1l-1.9-3.9v-4.1c0,0,0-0.1,0-0.1l-0.5-0.8
			l-0.5-5.3c0-0.1-0.1-0.2-0.2-0.2h0c-0.1,0-0.2,0.1-0.2,0.2l-0.4,5.5l-0.3,0.8c0,0,0,0,0,0.1v4l-1.5,3.9h-0.7
			c-0.1,0-0.2,0.1-0.2,0.2V20l-0.5,0.3c-0.1,0-0.1,0.1-0.1,0.2v3.8l-0.5,0.5c0,0-0.1,0.1-0.1,0.1v4.3h-0.1c-0.1,0-0.2,0.1-0.2,0.2
			v0.5h-0.1c-0.1,0-0.2,0.1-0.2,0.2v9.6h-0.8v-0.8c0-0.1-0.1-0.2-0.2-0.2h-0.8V37c0-0.1-0.1-0.2-0.2-0.2h-1v-0.9
			c0-0.1-0.1-0.2-0.2-0.2h-0.5c-0.1,0-0.2,0.1-0.2,0.2v0.9h-0.7l-0.2-4.1c0-0.1-0.1-0.2-0.2-0.2c-0.1,0-0.2,0.1-0.2,0.2l0.2,4.1
			h-0.9v-0.7c0-0.1-0.1-0.2-0.2-0.2H122c-0.1,0-0.2,0.1-0.2,0.2v0.7H121c-0.1,0-0.2,0.1-0.2,0.2v1.8l-0.6,0.6c0,0-0.1,0.1-0.1,0.1
			v3.4l0.4,0.2v-3.5l0.6-0.6c0,0,0.1-0.1,0.1-0.1v-1.7h0.8c0.1,0,0.2-0.1,0.2-0.2v-0.7h0.1V37c0,0.1,0.1,0.2,0.2,0.2h1.3h0h1
			c0.1,0,0.2-0.1,0.2-0.2V36h0.2V37c0,0.1,0.1,0.2,0.2,0.2h1v1.7c0,0.1,0.1,0.2,0.2,0.2h0.8v0.8c0,0.1,0.1,0.2,0.2,0.2h1v3.6
			l0.2,0.4c0.1,0,0.2-0.1,0.2-0.2V30.1h0.1c0.1,0,0.2-0.1,0.2-0.2v-0.5h0.1c0.1,0,0.2-0.1,0.2-0.2v-4.4l0.5-0.5c0,0,0.1-0.1,0.1-0.1
			v-3.7l0.5-0.3c0.1,0,0.1-0.1,0.1-0.2v-0.3h0.6c0.1,0,0.1,0,0.2-0.1l1.6-4c0,0,0,0,0-0.1v-4l0.3-0.8c0,0,0,0,0-0.1l0.2-2l0.3,1.8
			c0,0,0,0.1,0,0.1l0.5,0.8v4.1c0,0,0,0.1,0,0.1l1.9,3.9v0.1h-3.4c-0.1,0-0.2,0.1-0.2,0.2s0.1,0.2,0.2,0.2h3.5l0.9,0.1v4
			c0,0.1,0.1,0.2,0.1,0.2l0.6,0.1v4.4h-6.3c-0.1,0-0.2,0.1-0.2,0.2c0,0.1,0.1,0.2,0.2,0.2h6.3l0.5,0.8v18.4c0,0.1,0.1,0.2,0.2,0.2
			h0.4c0.1,0,0.2-0.1,0.2-0.2v-0.4l0.7-0.1v0.6c0,0.1,0,0.1,0.1,0.1c0,0,0.1,0,0.2,0l1.8-0.5c0.1,0,0.1-0.1,0.1-0.2v-3.7l0.6-0.4
			c0,0,0.1-0.1,0.1-0.1v-2.6h3.7v0.8c0,0.1,0.1,0.2,0.2,0.2l0.5,0.1v2.1c0,0,0,0.1,0,0.1l0.5,0.7v5c0,0.1,0.1,0.2,0.1,0.2l1.9,0.4
			v1.3c0,0.1,0.1,0.2,0.2,0.2h0.6v6.1c0,0.1,0.1,0.2,0.2,0.2l1.2,0.1v7.7c0,0.1,0.1,0.2,0.2,0.2h1.1c0.1,0,0.2-0.1,0.2-0.2v-6.8
			l1.4-0.1v0.4c0,0.1,0.1,0.2,0.2,0.2c0.1,0,0.2-0.1,0.2-0.2v-5.4l0.5-0.1c0.1,0,0.2-0.1,0.2-0.2v-5.5l0.6-0.6c0,0,0.1-0.1,0.1-0.1
			v-1.7h0.7c0.1,0,0.2-0.1,0.2-0.2v-0.7h0.4v0.7c0,0.1,0,0.2,0.2,0.2h1.2h0.1h0.9c0.1,0,0.2-0.1,0.2-0.2v-0.9h0.5v0.9
			c0,0.1,0.1,0.2,0.2,0.2h0.7V48c0,0.1,0.1,0.2,0.2,0.2h0.8v0.8c0,0.1,0.1,0.2,0.2,0.2h0.9c0.1,0,0.2-0.1,0.2-0.2V32.2h2
			c0.1,0,0.2-0.1,0.2-0.2v-1.7h3.6c0.1,0,0.2-0.1,0.2-0.2v-0.7h2c0.1,0,0.2-0.1,0.2-0.2v-0.3l0.8,0.8v0.3c0,0.1,0.1,0.2,0.2,0.2h0.7
			c0.1,0,0.2-0.1,0.2-0.2v-0.9h0.6v0.9c0,0.1,0.1,0.2,0.2,0.2h0.8v1.5c0,0.1,0.1,0.2,0.2,0.2h0.7v24.5c0,0,0,0.1,0,0.1l0,7.4
			c0,0,0,0.1,0,0.1l0.7,1V75h0c0,0.1,0.1,0.2,0.2,0.2C176.9,75.2,177,75.1,177,75L177,75L177,75C177,75,177,75,177,75L177,75z"/>
		<rect x="167.7" y="36.7" class="st0" width="6.8" height="0.7"/>
		<rect x="167.7" y="38.3" class="st0" width="6.8" height="0.7"/>
		<rect x="167.7" y="35" class="st0" width="6.8" height="0.7"/>
		<rect x="167.7" y="46.8" class="st0" width="6.8" height="0.7"/>
		<rect x="167.7" y="48.5" class="st0" width="6.8" height="0.7"/>
		<rect x="167.7" y="45.1" class="st0" width="6.8" height="0.7"/>
		<rect x="167.7" y="55.3" class="st0" width="6.8" height="0.7"/>
		<rect x="167.7" y="57" class="st0" width="6.8" height="0.7"/>
		<rect x="167.7" y="53.6" class="st0" width="6.8" height="0.7"/>
	</g>
	<g>
		<path class="st0" d="M23.2,19.6l3.9-2.5c0.1,0,0.1-0.1,0.1-0.2v-2.8H28v2.7c0,0.1,0,0.1,0.1,0.2l3.2,1.5v2.2
			c0,0.1,0.1,0.2,0.2,0.2c0.1,0,0.2-0.1,0.2-0.2v-2.4c0-0.1,0-0.1-0.1-0.2l-3.2-1.5V14c0-0.1-0.1-0.2-0.2-0.2h-0.4c0,0,0,0,0-0.1
			V8.3c0-0.1-0.1-0.2-0.2-0.2c-0.1,0-0.2,0.1-0.2,0.2v5.4c0,0,0,0,0,0.1H27c-0.1,0-0.2,0.1-0.2,0.2v2.9L23,19.3
			c-0.1,0-0.1,0.2-0.1,0.2C23,19.7,23.1,19.7,23.2,19.6z"/>
		<path class="st0" d="M39.9,19.8C39.9,19.8,40,19.8,39.9,19.8l2.4,0v0.8c0,0.1,0.1,0.2,0.2,0.2h4c0.1,0,0.2-0.1,0.2-0.2
			c0-0.1-0.1-0.2-0.2-0.2h-3.9v-0.8c0-0.1-0.1-0.2-0.2-0.2h-2.4v-3.6l0-1.3h5.1v4.6c0,0.1,0.1,0.2,0.2,0.2c0.1,0,0.2-0.1,0.2-0.2
			v-4.8c0-0.1-0.1-0.2-0.2-0.2h-5.5c0,0-0.1,0-0.1,0.1c0,0-0.1,0.1-0.1,0.1l0,5l-1.8-0.6c-0.1,0-0.1,0-0.2,0l-0.7,0.7l-1.2,0
			c-0.1,0-0.1,0-0.1,0c0,0-0.1,0.1-0.1,0.1v0.8h-0.4v-5.3c0,0,0-0.1-0.1-0.1c0,0-0.1-0.1-0.1-0.1l-5,0c-0.1,0-0.2,0.1-0.2,0.2v1.3
			c0,0.1,0.1,0.2,0.2,0.2c0.1,0,0.2-0.1,0.2-0.2v-1.2l4.7,0v5.3c0,0.1,0.1,0.2,0.2,0.2h0.8c0.1,0,0.2-0.1,0.2-0.2v-0.8l1.4,0
			l0.7-0.7L39.9,19.8C39.9,19.8,39.9,19.8,39.9,19.8z"/>
		<path class="st0" d="M35.2,22h-4.5c-0.1,0-0.2,0.1-0.2,0.2v0.3h-1.3c0,0-0.1,0-0.1,0.1L28.7,23h-1l-0.4-0.5c0,0-0.1-0.1-0.1-0.1
			h-0.7c0,0-0.1,0-0.1,0.1L25.9,23h-0.7l-0.4-0.5c0,0-0.1-0.1-0.1-0.1h-1.3l0,0H22c-0.1,0-0.2,0.1-0.2,0.2v1l0,0l0,2.1l0,1.4h-1.1
			v-0.6c0-0.1,0-0.1-0.1-0.2l-1.6-0.7c0,0-0.1,0-0.1,0l-1.9,0.8c-0.1,0-0.1,0.1-0.1,0.2v0.5h-0.5c-0.1,0-0.1,0-0.2,0.1l0,0.3h0.8
			l0,0l0,0h3.5l0,0l0,0H22c0,0,0.1,0,0.1-0.1c0,0,0.1-0.1,0.1-0.1l0-1.5l0-1.4l0,0v-1.6h1.2l0,0h1.1l0.4,0.5c0,0,0.1,0.1,0.1,0.1
			h0.9c0,0,0.1,0,0.1-0.1l0.5-0.5h0.5l0.4,0.5c0,0,0.1,0.1,0.1,0.1h1.1c0,0,0.1,0,0.1-0.1l0.4-0.5h1.4c0.1,0,0.2-0.1,0.2-0.2v-0.3
			h4.2v29.8c0,0.1,0,0.2,0.2,0.2c0.2,0,0.1-0.2,0.1-0.2v-30C35.4,22.1,35.3,22,35.2,22z M20.4,27.1h-3.1v-0.4L19,26l1.4,0.6V27.1z"
			/>
		<path class="st0" d="M42.8,26.8h-3.6l-0.8-0.3c0,0-0.1,0.1-0.1,0.1v18.8c0,0.1,0.1,0.2,0.2,0.2c0.1,0,0.2-0.1,0.2-0.2l0-18.5
			l0.6,0.2h3.6c0.1,0,0.2-0.1,0.2-0.2C43,26.9,42.9,26.8,42.8,26.8z"/>
		<path class="st0" d="M18.1,64.4H9c-0.1,0-0.2,0.1-0.2,0.2l0,3.9c0,0.1,0.1,0.2,0.2,0.2l0.1-0.1c0,0,0,0,0,0l0-1.1c0,0,0,0,0,0
			v-1.6l0,0l0-1h8.7v1.4c0,0.1,0.1,0.2,0.2,0.2c0.1,0,0.2-0.1,0.2-0.2v-1.6C18.3,64.4,18.2,64.4,18.1,64.4z"/>
		<path class="st0" d="M5.3,46.2l-0.2,0.4V75c0,0.1,0.1,0.2,0.2,0.2c0.1,0,0.2-0.1,0.2-0.2V46.3C5.4,46.2,5.4,46.2,5.3,46.2z"/>
		<path class="st0" d="M9.4,62c0.1,0,0.2-0.1,0.2-0.2V40.2v-0.4v-1.3v-0.4v-1.3v-0.4v-0.3v-0.4v-0.7l1.1,0c0.1,0,0.1,0,0.1-0.1
			c0,0,0-0.1,0-0.2l-0.3-0.8h4.4c0.1,0,0.2-0.1,0.2-0.2c0-0.1-0.1-0.2-0.2-0.2h-4.6c-0.1,0-0.1,0-0.1,0.1c0,0,0,0.1,0,0.2l0.3,0.8
			l-1,0c-0.1,0-0.2,0.1-0.2,0.2v0.9v0.3v0.3v0.3v1.3v0.3v1.3v0.3v21.6C9.3,61.9,9.3,62,9.4,62z"/>
		<path class="st0" d="M54.3,34.6L53.8,34v-1.8c0-0.1-0.1-0.2-0.2-0.2h-2.8l-0.4,0.2c0,0.1,0.1,0.2,0.2,0.2h2.8v1.7
			c0,0,0,0.1,0.1,0.1l0.6,0.6V41l0.4,0.1v-6.4C54.4,34.7,54.4,34.6,54.3,34.6z"/>
		<path class="st0" d="M48.1,32.1c-0.1,0-0.2,0.1-0.2,0.2v1.7h-0.4l0.1-0.4c0-0.1,0-0.1-0.1-0.2l-0.9-0.7V21.6
			c0-0.1-0.1-0.2-0.2-0.2c-0.1,0-0.2,0.1-0.2,0.2v11.2c0,0.1,0,0.1,0.1,0.1l0.9,0.6l-0.1,0.4h-0.7c0,0-0.1,0-0.1,0.1
			c0,0-0.1,0.1,0,0.1l0,4.4c0,0.1,0.1,0.2,0.2,0.2c0,0,0,0,0,0c0.1,0,0.2-0.1,0.2-0.2l0-4.2h0.7c0,0,0,0,0,0l0,0h0.8
			c0.1,0,0.2-0.1,0.2-0.2v-1.7h1c0.1,0,0.2-0.1,0.2-0.2L49,32.1H48.1z"/>
		<rect x="17.8" y="42.6" class="st0" width="2.7" height="0.7"/>
		<rect x="17.8" y="44.2" class="st0" width="2.7" height="0.7"/>
		<rect x="17.8" y="41.1" class="st0" width="2.7" height="0.7"/>
		<rect x="17.8" y="33.9" class="st0" width="2.7" height="0.7"/>
		<rect x="17.8" y="35.5" class="st0" width="2.7" height="0.7"/>
		<rect x="17.8" y="32.4" class="st0" width="2.7" height="0.7"/>
		<rect x="17.8" y="51.9" class="st0" width="2.7" height="0.7"/>
		<rect x="17.8" y="53.4" class="st0" width="2.7" height="0.7"/>
		<rect x="17.8" y="50.3" class="st0" width="2.7" height="0.7"/>
		<path class="st0" d="M26.1,25.1c-0.1,0-0.2,0.1-0.2,0.2v1c0,0.1,0.1,0.2,0.2,0.2c0.1,0,0.2-0.1,0.2-0.2v-1
			C26.2,25.2,26.1,25.1,26.1,25.1z"/>
		<path class="st0" d="M24.2,25.1c-0.1,0-0.2,0.1-0.2,0.2v1c0,0.1,0.1,0.2,0.2,0.2c0.1,0,0.2-0.1,0.2-0.2v-1
			C24.4,25.2,24.3,25.1,24.2,25.1z"/>
		<path class="st0" d="M25.1,26.9c-0.1,0-0.2,0.1-0.2,0.2v1c0,0.1,0.1,0.2,0.2,0.2c0.1,0,0.2-0.1,0.2-0.2v-1
			C25.3,27,25.2,26.9,25.1,26.9z"/>
		<path class="st0" d="M26.1,28.8c-0.1,0-0.2,0.1-0.2,0.2v1c0,0.1,0.1,0.2,0.2,0.2c0.1,0,0.2-0.1,0.2-0.2v-1
			C26.2,28.8,26.1,28.8,26.1,28.8z"/>
		<path class="st0" d="M24.2,28.8c-0.1,0-0.2,0.1-0.2,0.2v1c0,0.1,0.1,0.2,0.2,0.2c0.1,0,0.2-0.1,0.2-0.2v-1
			C24.4,28.8,24.3,28.8,24.2,28.8z"/>
		<path class="st0" d="M25.1,30.6c-0.1,0-0.2,0.1-0.2,0.2v1c0,0.1,0.1,0.2,0.2,0.2c0.1,0,0.2-0.1,0.2-0.2v-1
			C25.3,30.6,25.2,30.6,25.1,30.6z"/>
		<path class="st0" d="M25.1,34.2c-0.1,0-0.2,0.1-0.2,0.2v1c0,0.1,0.1,0.2,0.2,0.2c0.1,0,0.2-0.1,0.2-0.2v-1
			C25.3,34.3,25.2,34.2,25.1,34.2z"/>
		<path class="st0" d="M26.1,36c-0.1,0-0.2,0.1-0.2,0.2v0v1v0c0,0.1,0.1,0.2,0.2,0.2c0.1,0,0.2-0.1,0.2-0.2v0v-1v0
			C26.2,36.1,26.1,36,26.1,36z"/>
		<path class="st0" d="M24.2,36c-0.1,0-0.2,0.1-0.2,0.2v0v1v0c0,0.1,0.1,0.2,0.2,0.2c0.1,0,0.2-0.1,0.2-0.2v0v-1v0
			C24.4,36.1,24.3,36,24.2,36z"/>
		<path class="st0" d="M29.7,25.1c-0.1,0-0.2,0.1-0.2,0.2v1c0,0.1,0.1,0.2,0.2,0.2s0.2-0.1,0.2-0.2v-1
			C29.8,25.2,29.8,25.1,29.7,25.1z"/>
		<path class="st0" d="M27.9,25.1c-0.1,0-0.2,0.1-0.2,0.2v1c0,0.1,0.1,0.2,0.2,0.2c0.1,0,0.2-0.1,0.2-0.2v-1
			C28,25.2,28,25.1,27.9,25.1z"/>
		<path class="st0" d="M28.8,26.9c-0.1,0-0.2,0.1-0.2,0.2v1c0,0.1,0.1,0.2,0.2,0.2c0.1,0,0.2-0.1,0.2-0.2v-1
			C28.9,27,28.9,26.9,28.8,26.9z"/>
		<path class="st0" d="M27,26.9c-0.1,0-0.2,0.1-0.2,0.2v1c0,0.1,0.1,0.2,0.2,0.2c0.1,0,0.2-0.1,0.2-0.2v-1
			C27.1,27,27.1,26.9,27,26.9z"/>
		<path class="st0" d="M29.7,28.8c-0.1,0-0.2,0.1-0.2,0.2v1c0,0.1,0.1,0.2,0.2,0.2s0.2-0.1,0.2-0.2v-1
			C29.8,28.8,29.8,28.8,29.7,28.8z"/>
		<path class="st0" d="M27.9,28.8c-0.1,0-0.2,0.1-0.2,0.2v1c0,0.1,0.1,0.2,0.2,0.2c0.1,0,0.2-0.1,0.2-0.2v-1
			C28,28.8,28,28.8,27.9,28.8z"/>
		<path class="st0" d="M28.8,30.6c-0.1,0-0.2,0.1-0.2,0.2v1c0,0.1,0.1,0.2,0.2,0.2c0.1,0,0.2-0.1,0.2-0.2v-1
			C28.9,30.6,28.9,30.6,28.8,30.6z"/>
		<path class="st0" d="M27,30.6c-0.1,0-0.2,0.1-0.2,0.2v1c0,0.1,0.1,0.2,0.2,0.2c0.1,0,0.2-0.1,0.2-0.2v-1
			C27.1,30.6,27.1,30.6,27,30.6z"/>
		<path class="st0" d="M28.8,34.2c-0.1,0-0.2,0.1-0.2,0.2v1c0,0.1,0.1,0.2,0.2,0.2c0.1,0,0.2-0.1,0.2-0.2v-1
			C28.9,34.3,28.9,34.2,28.8,34.2z"/>
		<path class="st0" d="M27,34.2c-0.1,0-0.2,0.1-0.2,0.2v1c0,0.1,0.1,0.2,0.2,0.2c0.1,0,0.2-0.1,0.2-0.2v-1
			C27.1,34.3,27.1,34.2,27,34.2z"/>
		<path class="st0" d="M29.7,36c-0.1,0-0.2,0.1-0.2,0.2v0v1v0c0,0.1,0.1,0.2,0.2,0.2s0.2-0.1,0.2-0.2v0v-1v0
			C29.8,36.1,29.8,36,29.7,36z"/>
		<path class="st0" d="M27.9,36c-0.1,0-0.2,0.1-0.2,0.2v0v1v0c0,0.1,0.1,0.2,0.2,0.2c0.1,0,0.2-0.1,0.2-0.2v0v-1v0
			C28,36.1,28,36,27.9,36z"/>
		<path class="st0" d="M29.7,32.4c-0.1,0-0.2,0.1-0.2,0.2v1c0,0.1,0.1,0.2,0.2,0.2s0.2-0.1,0.2-0.2v-1
			C29.8,32.5,29.8,32.4,29.7,32.4z"/>
		<path class="st0" d="M27.9,32.4c-0.1,0-0.2,0.1-0.2,0.2v1c0,0.1,0.1,0.2,0.2,0.2c0.1,0,0.2-0.1,0.2-0.2v-1
			C28,32.5,28,32.4,27.9,32.4z"/>
		<path class="st0" d="M33,25.1c-0.1,0-0.2,0.1-0.2,0.2v1c0,0.1,0.1,0.2,0.2,0.2s0.2-0.1,0.2-0.2v-1C33.2,25.2,33.1,25.1,33,25.1z"
			/>
		<path class="st0" d="M31.2,25.1c-0.1,0-0.2,0.1-0.2,0.2v1c0,0.1,0.1,0.2,0.2,0.2c0.1,0,0.2-0.1,0.2-0.2v-1
			C31.4,25.2,31.3,25.1,31.2,25.1z"/>
		<path class="st0" d="M32.1,26.9C32,26.9,32,27,32,27.1v1c0,0.1,0.1,0.2,0.2,0.2c0.1,0,0.2-0.1,0.2-0.2v-1
			C32.3,27,32.2,26.9,32.1,26.9z"/>
		<path class="st0" d="M30.3,26.9c-0.1,0-0.2,0.1-0.2,0.2v1c0,0.1,0.1,0.2,0.2,0.2c0.1,0,0.2-0.1,0.2-0.2v-1
			C30.5,27,30.4,26.9,30.3,26.9z"/>
		<path class="st0" d="M33,28.8c-0.1,0-0.2,0.1-0.2,0.2v1c0,0.1,0.1,0.2,0.2,0.2s0.2-0.1,0.2-0.2v-1C33.2,28.8,33.1,28.8,33,28.8z"
			/>
		<path class="st0" d="M31.2,28.8c-0.1,0-0.2,0.1-0.2,0.2v1c0,0.1,0.1,0.2,0.2,0.2c0.1,0,0.2-0.1,0.2-0.2v-1
			C31.4,28.8,31.3,28.8,31.2,28.8z"/>
		<path class="st0" d="M32.1,30.6c-0.1,0-0.2,0.1-0.2,0.2v1c0,0.1,0.1,0.2,0.2,0.2c0.1,0,0.2-0.1,0.2-0.2v-1
			C32.3,30.6,32.2,30.6,32.1,30.6z"/>
		<path class="st0" d="M30.3,30.6c-0.1,0-0.2,0.1-0.2,0.2v1c0,0.1,0.1,0.2,0.2,0.2c0.1,0,0.2-0.1,0.2-0.2v-1
			C30.5,30.6,30.4,30.6,30.3,30.6z"/>
		<path class="st0" d="M32.1,34.2c-0.1,0-0.2,0.1-0.2,0.2v1c0,0.1,0.1,0.2,0.2,0.2c0.1,0,0.2-0.1,0.2-0.2v-1
			C32.3,34.3,32.2,34.2,32.1,34.2z"/>
		<path class="st0" d="M30.3,34.2c-0.1,0-0.2,0.1-0.2,0.2v1c0,0.1,0.1,0.2,0.2,0.2c0.1,0,0.2-0.1,0.2-0.2v-1
			C30.5,34.3,30.4,34.2,30.3,34.2z"/>
		<path class="st0" d="M33,36c-0.1,0-0.2,0.1-0.2,0.2v0v1v0c0,0.1,0.1,0.2,0.2,0.2s0.2-0.1,0.2-0.2v0v-1v0C33.2,36.1,33.1,36,33,36z
			"/>
		<path class="st0" d="M31.2,36c-0.1,0-0.2,0.1-0.2,0.2v0v1v0c0,0.1,0.1,0.2,0.2,0.2c0.1,0,0.2-0.1,0.2-0.2v0v-1v0
			C31.4,36.1,31.3,36,31.2,36z"/>
		<path class="st0" d="M33,32.4c-0.1,0-0.2,0.1-0.2,0.2v1c0,0.1,0.1,0.2,0.2,0.2s0.2-0.1,0.2-0.2v-1C33.2,32.5,33.1,32.4,33,32.4z"
			/>
		<path class="st0" d="M31.2,32.4c-0.1,0-0.2,0.1-0.2,0.2v1c0,0.1,0.1,0.2,0.2,0.2c0.1,0,0.2-0.1,0.2-0.2v-1
			C31.4,32.5,31.3,32.4,31.2,32.4z"/>
		<path class="st0" d="M26.1,32.4c-0.1,0-0.2,0.1-0.2,0.2v1c0,0.1,0.1,0.2,0.2,0.2c0.1,0,0.2-0.1,0.2-0.2v-1
			C26.2,32.5,26.1,32.4,26.1,32.4z"/>
		<path class="st0" d="M24.2,32.4c-0.1,0-0.2,0.1-0.2,0.2v1c0,0.1,0.1,0.2,0.2,0.2c0.1,0,0.2-0.1,0.2-0.2v-1
			C24.4,32.5,24.3,32.4,24.2,32.4z"/>
		<path class="st0" d="M25.1,37.8c-0.1,0-0.2,0.1-0.2,0.2v1c0,0.1,0.1,0.2,0.2,0.2c0.1,0,0.2-0.1,0.2-0.2v-1
			C25.3,37.9,25.2,37.8,25.1,37.8z"/>
		<path class="st0" d="M26.1,39.6c-0.1,0-0.2,0.1-0.2,0.2v1c0,0.1,0.1,0.2,0.2,0.2c0.1,0,0.2-0.1,0.2-0.2v-1
			C26.2,39.7,26.1,39.6,26.1,39.6z"/>
		<path class="st0" d="M24.2,39.6c-0.1,0-0.2,0.1-0.2,0.2v1c0,0.1,0.1,0.2,0.2,0.2c0.1,0,0.2-0.1,0.2-0.2v-1
			C24.4,39.7,24.3,39.6,24.2,39.6z"/>
		<path class="st0" d="M25.1,41.4c-0.1,0-0.2,0.1-0.2,0.2v1c0,0.1,0.1,0.2,0.2,0.2c0.1,0,0.2-0.1,0.2-0.2v-1
			C25.3,41.5,25.2,41.4,25.1,41.4z"/>
		<path class="st0" d="M25.1,45.1c-0.1,0-0.2,0.1-0.2,0.2v1c0,0.1,0.1,0.2,0.2,0.2c0.1,0,0.2-0.1,0.2-0.2v-1
			C25.3,45.1,25.2,45.1,25.1,45.1z"/>
		<path class="st0" d="M26.1,46.9c-0.1,0-0.2,0.1-0.2,0.2v1c0,0.1,0.1,0.2,0.2,0.2c0.1,0,0.2-0.1,0.2-0.2v-1
			C26.2,47,26.1,46.9,26.1,46.9z"/>
		<path class="st0" d="M24.2,46.9c-0.1,0-0.2,0.1-0.2,0.2v1c0,0.1,0.1,0.2,0.2,0.2c0.1,0,0.2-0.1,0.2-0.2v-1
			C24.4,47,24.3,46.9,24.2,46.9z"/>
		<path class="st0" d="M28.8,37.8c-0.1,0-0.2,0.1-0.2,0.2v1c0,0.1,0.1,0.2,0.2,0.2c0.1,0,0.2-0.1,0.2-0.2v-1
			C28.9,37.9,28.9,37.8,28.8,37.8z"/>
		<path class="st0" d="M27,37.8c-0.1,0-0.2,0.1-0.2,0.2v1c0,0.1,0.1,0.2,0.2,0.2c0.1,0,0.2-0.1,0.2-0.2v-1
			C27.1,37.9,27.1,37.8,27,37.8z"/>
		<path class="st0" d="M29.7,39.6c-0.1,0-0.2,0.1-0.2,0.2v1c0,0.1,0.1,0.2,0.2,0.2s0.2-0.1,0.2-0.2v-1
			C29.8,39.7,29.8,39.6,29.7,39.6z"/>
		<path class="st0" d="M27.9,39.6c-0.1,0-0.2,0.1-0.2,0.2v1c0,0.1,0.1,0.2,0.2,0.2c0.1,0,0.2-0.1,0.2-0.2v-1
			C28,39.7,28,39.6,27.9,39.6z"/>
		<path class="st0" d="M28.8,41.4c-0.1,0-0.2,0.1-0.2,0.2v1c0,0.1,0.1,0.2,0.2,0.2c0.1,0,0.2-0.1,0.2-0.2v-1
			C28.9,41.5,28.9,41.4,28.8,41.4z"/>
		<path class="st0" d="M27,41.4c-0.1,0-0.2,0.1-0.2,0.2v1c0,0.1,0.1,0.2,0.2,0.2c0.1,0,0.2-0.1,0.2-0.2v-1
			C27.1,41.5,27.1,41.4,27,41.4z"/>
		<path class="st0" d="M28.8,45.1c-0.1,0-0.2,0.1-0.2,0.2v1c0,0.1,0.1,0.2,0.2,0.2c0.1,0,0.2-0.1,0.2-0.2v-1
			C28.9,45.1,28.9,45.1,28.8,45.1z"/>
		<path class="st0" d="M27,45.1c-0.1,0-0.2,0.1-0.2,0.2v1c0,0.1,0.1,0.2,0.2,0.2c0.1,0,0.2-0.1,0.2-0.2v-1
			C27.1,45.1,27.1,45.1,27,45.1z"/>
		<path class="st0" d="M29.7,46.9c-0.1,0-0.2,0.1-0.2,0.2v1c0,0.1,0.1,0.2,0.2,0.2s0.2-0.1,0.2-0.2v-1C29.8,47,29.8,46.9,29.7,46.9z
			"/>
		<path class="st0" d="M27.9,46.9c-0.1,0-0.2,0.1-0.2,0.2v1c0,0.1,0.1,0.2,0.2,0.2c0.1,0,0.2-0.1,0.2-0.2v-1
			C28,47,28,46.9,27.9,46.9z"/>
		<path class="st0" d="M29.7,43.3c-0.1,0-0.2,0.1-0.2,0.2v1c0,0.1,0.1,0.2,0.2,0.2s0.2-0.1,0.2-0.2v-1
			C29.8,43.3,29.8,43.3,29.7,43.3z"/>
		<path class="st0" d="M27.9,43.3c-0.1,0-0.2,0.1-0.2,0.2v1c0,0.1,0.1,0.2,0.2,0.2c0.1,0,0.2-0.1,0.2-0.2v-1
			C28,43.3,28,43.3,27.9,43.3z"/>
		<path class="st0" d="M32.1,37.8C32,37.8,32,37.9,32,38v1c0,0.1,0.1,0.2,0.2,0.2c0.1,0,0.2-0.1,0.2-0.2v-1
			C32.3,37.9,32.2,37.8,32.1,37.8z"/>
		<path class="st0" d="M30.3,37.8c-0.1,0-0.2,0.1-0.2,0.2v1c0,0.1,0.1,0.2,0.2,0.2c0.1,0,0.2-0.1,0.2-0.2v-1
			C30.5,37.9,30.4,37.8,30.3,37.8z"/>
		<path class="st0" d="M33,39.6c-0.1,0-0.2,0.1-0.2,0.2v1c0,0.1,0.1,0.2,0.2,0.2s0.2-0.1,0.2-0.2v-1C33.2,39.7,33.1,39.6,33,39.6z"
			/>
		<path class="st0" d="M31.2,39.6c-0.1,0-0.2,0.1-0.2,0.2v1c0,0.1,0.1,0.2,0.2,0.2c0.1,0,0.2-0.1,0.2-0.2v-1
			C31.4,39.7,31.3,39.6,31.2,39.6z"/>
		<path class="st0" d="M32.1,41.4c-0.1,0-0.2,0.1-0.2,0.2v1c0,0.1,0.1,0.2,0.2,0.2c0.1,0,0.2-0.1,0.2-0.2v-1
			C32.3,41.5,32.2,41.4,32.1,41.4z"/>
		<path class="st0" d="M30.3,41.4c-0.1,0-0.2,0.1-0.2,0.2v1c0,0.1,0.1,0.2,0.2,0.2c0.1,0,0.2-0.1,0.2-0.2v-1
			C30.5,41.5,30.4,41.4,30.3,41.4z"/>
		<path class="st0" d="M32.1,45.1c-0.1,0-0.2,0.1-0.2,0.2v1c0,0.1,0.1,0.2,0.2,0.2c0.1,0,0.2-0.1,0.2-0.2v-1
			C32.3,45.1,32.2,45.1,32.1,45.1z"/>
		<path class="st0" d="M30.3,45.1c-0.1,0-0.2,0.1-0.2,0.2v1c0,0.1,0.1,0.2,0.2,0.2c0.1,0,0.2-0.1,0.2-0.2v-1
			C30.5,45.1,30.4,45.1,30.3,45.1z"/>
		<path class="st0" d="M33,46.9c-0.1,0-0.2,0.1-0.2,0.2v1c0,0.1,0.1,0.2,0.2,0.2s0.2-0.1,0.2-0.2v-1C33.2,47,33.1,46.9,33,46.9z"/>
		<path class="st0" d="M31.2,46.9c-0.1,0-0.2,0.1-0.2,0.2v1c0,0.1,0.1,0.2,0.2,0.2c0.1,0,0.2-0.1,0.2-0.2v-1
			C31.4,47,31.3,46.9,31.2,46.9z"/>
		<path class="st0" d="M33,43.3c-0.1,0-0.2,0.1-0.2,0.2v1c0,0.1,0.1,0.2,0.2,0.2s0.2-0.1,0.2-0.2v-1C33.2,43.3,33.1,43.3,33,43.3z"
			/>
		<path class="st0" d="M31.2,43.3c-0.1,0-0.2,0.1-0.2,0.2v1c0,0.1,0.1,0.2,0.2,0.2c0.1,0,0.2-0.1,0.2-0.2v-1
			C31.4,43.3,31.3,43.3,31.2,43.3z"/>
		<path class="st0" d="M26.1,43.3c-0.1,0-0.2,0.1-0.2,0.2v1c0,0.1,0.1,0.2,0.2,0.2c0.1,0,0.2-0.1,0.2-0.2v-1
			C26.2,43.3,26.1,43.3,26.1,43.3z"/>
		<path class="st0" d="M24.2,43.3c-0.1,0-0.2,0.1-0.2,0.2v1c0,0.1,0.1,0.2,0.2,0.2c0.1,0,0.2-0.1,0.2-0.2v-1
			C24.4,43.3,24.3,43.3,24.2,43.3z"/>
		<path class="st0" d="M20.9,29.1h-3.6c-0.1,0-0.2,0.1-0.2,0.2c0,0.1,0.1,0.2,0.2,0.2h3.6l0.6-0.2l0,26.5c0,0.1,0.1,0.2,0.2,0.2
			c0.1,0,0.2-0.1,0.2-0.2V29c0-0.1,0-0.1-0.1-0.1L20.9,29.1z"/>
	</g>
</g>
</svg>
