<svg width="488" height="545" viewBox="0 0 488 545" xmlns="http://www.w3.org/2000/svg"><title>9D540465-9D21-48EF-ACE9-3CE0FA879A1F</title><g fill="none" fill-rule="evenodd"><path d="M178.91 389.125l11-18-19-14-11-30 14-6-1-11M203.72 333.312l-2-5 20-54-54-11-20-11" stroke-width="3" stroke="#FFF"/><path d="M283.317 325.693l11.215-37.652-5.02-9.1 10.46-27.23-27.155-5.96-41.67-18.957-.275-5.152-12.495-7.315-.67-3.107-4.34-1.625-.815-6.501-2.17-1.6-7.255 3.308-1.57-1.278-12.4 25.73-21.37 7.82 4.56 3.41-23.225 3.124-3.565-4.406 1.135-2.982-12.53-1.286 8.26 25.301-15.385.288-1.285-1.271-4.125 3.408-8.27-7.96-28.355 10.239 1.428 2.411 1.707.712 2.421.852 2.284.852.567 2.423-5.55 2.132.138.996h3.275l1 6.248 22.653 4.98 2.985-2.706 1.855.432-.71 2.132 1 1.279 3.13-1.85 1.85 1.85-1.42 3.69 1.715 2.7 9.68-1.696 2.43 3.262-6.42-1.567-2.13 2.99 1.99.846-.285 9.242 16.815 9.523-1.57 13.373 3.28 4.54-1.855 1.287-1.71 16.202 2.995 1.994-6.835 25.727-4.355 2.582 5.955 3.14.14 6.918 16.56 6.094 3.8-1.764 11.945 5.544 3.26-3.374 39.83 7.69.23-16.732 10.825-10.812 44.745 12.376 3.555-2.984-.715-1.855 15.145-19.854-9.885-6.997-5.44-14.653 7.065-3.518-2.985-14.111 1.63-1.9z" fill="#921F34"/><path d="M398.105 152.3l5.23-2.709-1.435-14.676-3.38.188-2.255-2-3.1.433-3.385-2.708.71-3.562-15.095-9.8-9.585 3.984-1.415-1.421-2.79-.35-.195 1.704-6.83 1.07-3.23 6.305-3.875.359-1.2-2.067-9.76-.984 5.555-1.917 2.39-6.166-1.48-.847-3.94 3.68-6.115-5.387-5.62 5.179-1.13-3.142-2.955-.859-.985-2.129 3.82-6.121-24.34-6.354-.07 3.942 4.52 1.845-.28 2.709 4.08 3.833-6.475 1.284.12 3.27 3.245-1.42v4.4l3.395 2.137-2.955 2.28v2.704l7.715 5.45-10.965-1.75.285 15.784-4.095-4.696.285-4.262-2.685-2.417-1.69.712 1.69 5.967-1.82 1.996-7.205-10.952-10.71 3.408.99 6.971 4.075.713.855 3.55-.355-.12-1.17 2.171-4.225 11.087-3.89-1.762-1.075 6.092 4.56-.138 1.89 1.763-4.035 8.141 2.02 3.518-12.37 1.629-6.37 22.613.465.141 1.6 19.509h1.215l6.92 17.367.075-.02 3.49 5.016 26.87 5.962-10.345 27.243.595 6.936 4.27 2.2 3.055-2.502 3.365 1.514 4.565-1.782.94-1.188 3.765-1.355 1.345.24 2.28.662 1.875 1.674 10.495 1.755 5.495-2.338 7.255 4.067 1.205-1.496-.395-2.57 45.535-1.892-.525-3.525-4.57-2.313 11.415-14.68h2.97l.48-7.27-30.905-36.85 1.62-1.222 4.875 2.992 31.43-15.183v-3.378l5.785 1.354 2.43-1.633 2.67 1.354z" fill="#E18A9F"/><path d="M436.738 511.646l.793-4.937-2.762-3.443-45.195 5.862-1.248-1.717-4.587 2.03-.663 6.08 30.489 16.234 1.713-1.085 16.438 8.768 5.022-27.792zm6.639-79.956l-1.602-4.704 5.483-5.705-73.28-66.508 4.623-5.57-4.4-7.294 23.1-9.298 1.696-10.122-1.301-3 4.418-6.123-29.3-9.966.602-3.762-26.546 1.966-3.868 4.521 1.79 5.971-7.324 1.489-.949 6.997-14.517-4.848-8.9 2.145-2.203-1.522-4.283-2.775-6.957 11.497-4.838-2.244-7.396 5.267-4.3-1.699-1.657 1.861 2.731 14.092-7.091 3.376 5.157 14.674 6.303 7.074 3.93 6.837 12.321-5.463.19-3.114 31.27 2.444 56.546 68.135 13.336-.187 6.219 9.02 5.241.381-.325 2.535 6.657.256 2.346 3.156-1.364 5.207 11.94 6.58 2.152-1.233 8.247 31.549-2.573.655-5.513 15.196 4.032 4.181 5.404-.356 12.464-23.406 3.262-.788 1.057-9.168-10.315-12.357 6.766-13.744 16.978 3.717 6.825 10.996 1.692-14.513-43.976-22.306z" fill="#C52528"/><path d="M290.738 280.656l-1.013-2.5 10.133-27-27.36-5.5-10.133-5.5M286.255 376.486l3.09-5.888-6.198-11.036-5.677-15 7.225-3-4.123-1.464 6.393-5.037" stroke-width="1.5" stroke="#FFF"/><path d="M36.81 510.956l8.89-15.57-3.275-.502-3.744-5.022 6.552-5.524-8.41-18.08 7.006-2.511 4.212-7.031-1.338-4.018 1.338-3.014.468-17.075 8.424-7.533-3.279-14.063-26.207 3.014L26.51 408l-13.17.502L0 478.312l1.872 5.524 8.424-4.52.936 2.51-4.68 4.018v3.516l2.34 2.009 2.808-.502 2.34 1.506-4.212 28.125L31.6 521l2.34-1.004 2.882-8.538" fill="#A3957E"/><path d="M212.841 398.697l-30.978-3.115-3.237 3.38-11.853-5.555-3.774 1.765-16.439-6.1-.135-6.926-5.909-3.146-6.144 3.964-13.161-5.85-3.393 3.433-6.64-1.288-1.279-2.996-75.09-3.986-.985-1.277-6.79 3.839.426 2.573 2.255 1.562-18.243 4.268-1.976 4.134 1.704 3.986 2.399-.85-.141 2.14 1.558.705-.995 5.275 1.417.57 2.967-2.85-.85 3.985 1.417 1.42-2.121 2.285 3.115.565-4.387 3.85.087 1.055 11.447-.45-3.935 6.795 28.878-3.53 3.235 13.85-9.723 6.79.282 16.86-4.052 4.065 3.235 3.27-4.855 6.795-3.927 2.965 5.55 17.14-5.937 5.975 2.7 5.425 4.048.28-8.866 24.68 18.443 8.435-.77 1.2 9.794 14.845 11.563-1.99.14-3.05 55.365-13.785 7.497 4.995 4.38-10.96 19.236-8.12-1.554-1.565 16.824-23.935-11.457-17.09 18.534-25.915 1.97.71-.657.59.421.43 2.616-1.635.907-4.4-1.964-1.71 34.606-24.175-.997-5.98 2.977-1.99-.23-2.04-8.551-4.59z" fill="#906A46"/><path d="M13.063 410.345l12.5-1-2.5 7 28-4.5 4.5 15-10 7-1.5 17.5-2.5 2.5 2.5 4-4 7-5 2 6 18.5-6.5 5.5 3.5 5 3.5.5-8.5 25.5M220.905 401.617l-8-3.064-31-3.064-4 3.064-11-5.617-4.5 2.043-16-6.128-.5-7.149-5.5-3.574" stroke-width="1.5" stroke="#FFF"/><path d="M69.554 36.708l-1.498 2.61 1.193.864-1.755.284-1.127 1.748 3.187-5.506zm104.912 150.696l3.295-3.462-.833-2.46H174.1l3.661-3.424 1.695 1.447 3.667-3.557-1.27-.293.848-1.303.632-.43 6.626-14.352-2.408-6.678-20.212-5.16-1.841 6.41-6.214-4.04 5.376-5.407-11.215-15.463 1.76-.017 1.486 1.522 3.736.054-7.338-9.32 2.82-2.91-43.857-50.28-4.665 3.508-6.115-3.521 4.937-.475 1.063-2.827 6.826-2.358-3.305-1.577-.21-1.954-1.34-1.082-4.584 2.484-.772-.941 17.905-19.575-.637-1.157 4.51-9.953-25.73-3.884-.282 1.02-9.097 4.164-.631-.644 3.526-6.76-2.608-1.009L106 5.22l-1.265-1.447L106 0 85.847 4.868l.346-1.669-1.486-.656-2.11.313L78.439.907l-1.697 6.107-.838.071.132 2.976-3.03.662 1.486 2.53-1.284 2.55-1.47.076 1.203 3.692-1.342 1.162-2.676-1.797-.28 4.349-1.413-2.819-1.268 2.97 1.408 1.597-1.131 1.525 2.188 2.535-.355 1.007-2.535-1.438.491 5.516 1.289 1.643.983.614-2.767 6.783-.632 2.241 1.334.933-2.35 2.634-3.26.08-1.4 1.496 5.856 1.159-.422.836h-2.14l2.877 2.752.913-.367 1.486 1.588 5.208-3.868-3.944 10.021.987.577-2.886 10.893 1.048 1.727 1.342-.657.992-6.168 1.478-.008 2.107.751-1.405 2.873 1.342 1.007 3.662-.669 1.478-7.401 1.555-.802-.628 3.918.558 2.105-.43 8.714 2.048.485-4.182 18.153 2.543 1.878 6.5 4.774.136-3.775-2.684-2.175 10.608 2.28v-1.589l3.394.13 1-3.2 3.097 2.02-3.675 10.623 4.522 8.268 2.269-1.317v4.365l2.964-3.647 3.676.568-1.264 4.51 1.129.728-3.662 2.898-.847 8.927 7.122 5.554-3.952 1.253-2.112-3.036-2.051.798-10.293 2.589L80.9 154.824l4.228-.017.422-1.672 6.277-1.69-.558 3.337 2.18 2.317-2.325 1.743 1.339 2.53 1.478.356-22.49 16.63 3.522.489.215 2.618-2.535 1.237 4.518.773-1.136 1.092 1.768 1.012 10.294-4.173.421 2.246.71 1.804-.355 1.814 5.22.134v-1.024l2.598-.736 5.08 5.996 8.978-2.258.747 7.957-21.425-.137.065 2.827-21.217 22.931-1.97-.723-3.035 2.196v2.822l3.31.2.141-2.529 4.018 1.07 1.652 2.977 1.974-1.902-.847-1.439 1.842-2.488.88 1.158 14.738-5.786 8.878 3.95-.566-1.954 2.325-1.102v-5.074l44.56-9.312 2.889 2.8 30.244-6.271-.427-2.108 6.982-3.587.286-6.963-14.746.356 2.42-1.847zM66.87 109.564l-1.058-2.166 2.04-.3.996-1.811-5.01-.268 2.75-2.044-5.78-11.287-22.93 5.77-1.082 3.274-3.766.545L29 109.72l7.797 7.347 2.696-.54 3.225-6.807 16.315 13.163 1.413-2.333 2.831-2.342.286-2.618 4.381.57.615-3.12-2.746-.576 1.058-2.9z" fill="#7C3842"/><path d="M334.935 285.486l-15.02-9.04-2.385 2.337-2.895-.884-1.705-4.894-4.785 1.81-1.19 6.162-25.765 1.075-1.37-3.269-5.465.379-3.05 3.98 4.94 2.7-18.695 37.312-5.545 1.265.515 3.986 10.93-1.988-2.22-6.168 5.325.438 7.005.352 5.475 13.926 5.09 2.031 9.225-7.248 6.165 2.902 13.33-6.165 9.895 9.048 6.875-10.347 16.36.56 1.04-9.421 9.225-2.17-2.39-7.979 4.655-6.013-1.9-4.17-7.845 3.992-4.935-5.077" fill="#AC5F6F"/><path d="M340.33 289.422l-4.5-3.5-14.5-9-3.5 2.5-3-1.5-1-4.5-6 1.5-.5 6-26.5 1v-3h-7l-3 5 5.5 2-19 37-5 1 .5 4.5 11.5-1.5-2.5-6.5 12 .5 5.5 14 5 2 9.5-7.5 6 3 13.5-6 9.5 9 7-10h16.5l1-9 9-2-2-8 5.5-7.5" stroke-width="1.5" stroke="#FFF"/></g></svg>