<svg width="15" height="15" viewBox="0 0 15 15" xmlns="http://www.w3.org/2000/svg"><title>A2A827E4-1400-4B7A-A2EE-0CF9C712AD7B</title><path d="M7.5 0a7.5 7.5 0 1 0 0 15 7.5 7.5 0 0 0 0-15zm.534 11.67a.881.881 0 0 1-.605.233.914.914 0 0 1-.619-.23.806.806 0 0 1-.264-.642.828.828 0 0 1 .255-.617.863.863 0 0 1 .628-.25.854.854 0 0 1 .867.867.81.81 0 0 1-.261.638v.001zm2.173-5.385a2.664 2.664 0 0 1-.478.643c-.183.18-.513.484-.991.91a4.17 4.17 0 0 0-.317.317c-.069.076-.128.16-.178.25a1.28 1.28 0 0 0-.09.228 9.475 9.475 0 0 0-.096.4.647.647 0 0 1-.692.604.707.707 0 0 1-.509-.197.777.777 0 0 1-.205-.588c-.007-.289.044-.577.15-.847.095-.23.23-.443.4-.628.166-.18.391-.394.675-.642.247-.217.427-.38.538-.492.11-.109.203-.233.279-.369a.89.89 0 0 0 .113-.441c.005-.3-.122-.587-.346-.785a1.265 1.265 0 0 0-.893-.32 1.234 1.234 0 0 0-.942.322c-.236.277-.41.601-.512.95a.771.771 0 0 1-.75.658.739.739 0 0 1-.55-.23.704.704 0 0 1-.224-.5c.01-.399.133-.787.355-1.119a2.728 2.728 0 0 1 1.035-.939 3.253 3.253 0 0 1 1.588-.373 3.388 3.388 0 0 1 1.489.312c.405.184.75.477 1 .846.23.344.351.75.35 1.163.007.3-.06.599-.199.867z" fill-rule="nonzero" fill="#000"/></svg>