<svg width="69" height="38" viewBox="0 0 69 38" xmlns="http://www.w3.org/2000/svg" xmlns:xlink="http://www.w3.org/1999/xlink"><title>1820C8B3-A462-4F91-8811-40E8E407F98B</title><defs><path id="a" d="M.32.304h19.138v24.164H.32V.304z"/><path id="c" d="M0 37.696h68.063V.358H0z"/></defs><g fill="none" fill-rule="evenodd"><path d="M15.995 18.288c-.06-.138-.315-.335-.297-.517h.001c.148.016.431.175.547.233a1.206 1.206 0 0 0-.25.284zM22.99 22.515l.297-.492a1.162 1.162 0 0 0-.555-.011l.257.503M24.809 22.378c-.225-.758-.209-1.618-.209-1.634-.226.048-.874.122-1.11.112l.022 1.017c.402-.01 1.219.467 1.297.505M23.312 21.838l-.008-.984c-.174 0-.425.007-.602-.027l-.001.995s.213-.018.29-.015c.075.002.32.03.32.03M27.504 23.594c1.45-1.996-1.075-3.374-1.882-3.104-.115.038-.836.201-.837.21-.03.27-.02.95.234 1.734.26.17 2.12 1.094 2.485 1.16M25.793 24.284c-.201-.212-.538-.797-1.31-.384-.024.367.057.762.536 1.21.103.096.121.255.107.398-.025.247-.649.681-.82.849-.339.274-.288.466-.288.466.094.3-.048.56-.027.772.012.108.019.234.06.335.011.028.031.045.053.038.143-.041.528-.29.515-.603-.003-.091-.208-.333-.2-.355.023-.085.068-.039.144-.153.032-.048.028-.144.032-.177.03-.259.811-.903 1.197-1.04.302-.107.077-.37.077-.37-.469-.42-.157-.878-.076-.986" fill="#FEFEFE"/><path d="M22.548 22.022c-.354.056-1.244.336-2.143 1.085-.01.011-.035-.021-.035-.021s-.003-.031.005-.044c.009-.013.763-.897 2.134-1.216l.003-1.02c-.343-.02-.606-.12-.69-.146-.327.324-1.627 1.36-2.798 1.829-.176.506.264.908.244 1.088-.014.13-1.168 1.048-1.259 1.226-.106.206.1.736.124 1.184l.022.63c.013.317.238.47.238.47.127.228.563.707.774.705 0 0 .013-.001.018-.004.106-.057.171-.942-.163-.807h-.002c-.185.1-.247-.04-.205-.152.018-.055-.04-.15-.09-.162-.273-.06-.278-1.247-.177-1.542.12-.35.277-.342.782-.568.671-.3.749-.28 1.092-.43.239-.11.65-.253.711-.737 0-.019-.002-.029 0-.038.001-.009.026.021.026.021s.25.53-.637.92c.053.242.215.828.214.994-.003.37.163.857.178 1.046.03.407.046 1-.066 1.178-.08.127-.217.168-.31.324-.043.071-.195.309-.21.465-.022.217.786-.02.838-.207.014-.044-.093-.223-.054-.286.038-.06.132-.03.188-.065.277-.178.041-.321.03-.502-.011-.21-.103-.934.012-1.252.04-.112.18-.277.062-.782-.034-.147.224-.906.207-1.242.203.062.63.17 1.299.128 0-.3.008-.498-.015-1.386l-.347-.684zM24.892 23.574a.812.812 0 0 1 .474.097c-.28-.457-.435-.73-.547-1.09-.182-.13-1.157-.566-1.352-.525l-.38.633c.003.888.01 1.086.01 1.382.813-.055 1.487-.469 1.795-.497M27.732 23.658c.291.053.552.053.92.077.274-1.892-.462-2.479-1.152-2.681.936.8.694 2.079.232 2.604M17.393 18.722c.008-.14.087-.317.174-.481-.25-.035-.557.054-.636.086.074.113.192.343.313.806l.001-.001c.084-.15.135-.234.148-.41M16.8 20.27c-.025-.077.057-.217.03-.249-.062-.067.064-.258.1-.297a1.294 1.294 0 0 1-.136 0c-.026-.003-.086-.553-.086-.553s.33-.093.333-.092c0 0-.039-.084-.066-.154-.207-.013-.583.06-.831.163-.073.46.151.65.151.65.163.17.286.76.328.865.113.045.449.034.535.016-.19-.015-.32-.23-.358-.35M19.111 19.564c-.135.233-.392.215-.593.332.063.342-.604.953-.605 2.066 0 .057.502-.52 1.148-.922.12-.428.205-1.226.05-1.476M16.599 20.79c0 .003.024.266.09.38.21.362.762.215.751-.105 0-.036.108-.097.122-.163.02-.088-.026-.093-.041-.17 0 0-.63.159-.922.058M16.392 18.545c-.047.015-.259.177-.263.265.004.04 0 .043 0 .108.057-.017.577-.16.795-.164-.073-.33-.474-.813-.656-.965-.047-.04.178.738.124.756M18.006 17.713c-.017-.028-.026-.05-.044-.09-.873-.03-1.263.409-1.263.409l.101.143s.443-.194.834-.121c.047-.148.281-.318.372-.341" fill="#FEFEFE"/><path d="M19.002 23.552c.008-.031.009-.081-.035-.148-.374-.547-.092-1.195.092-2.16-.218.137-.963.722-1.13.968-.01.207-.057.562.342 1.13.1.321-1.622.58-1.868.991-.08.135-.102.447-.154.6-.086.232-.215.685-.287.764-.033.036-.147.714-.147.714.05.221.018.824.018.824.186-.027.687-.206.54-.685a.22.22 0 0 0-.08-.097c-.036-.05.27-.074.08-.336-.22-.461.322-1.209.322-1.209.042-.02.098-.303.286-.37.054-.02.817-.122 1.07-.157.135-.128.937-.77.951-.83M24.863 25.142c-.612-.547-.544-1.178-.545-1.184-.23.083-.382.152-.678.208.032.395.405.71.507.891.067.119.064.212.04.348-.024.133-.552.634-.726.794-.342.262-.29.445-.29.445.045.18.005.357.005.357-.016.123-.031.27-.031.381-.001.105.042.358.112.358.214 0 .565-.478.521-.578-.04-.093-.233-.257-.202-.339.028-.08.07-.037.146-.146.032-.047.027-.138.032-.17.037-.212.815-.811 1.165-.964.064-.101.001-.35-.056-.4M19.418 24.709c.064.347.578 1.049.629 1.499.011.098.039.427.042.526.004.199-.02.617-.197.703-.095.046-.507.337-.592.603.132.177.732.073.732.073.113-.031.138-.286.138-.286-.107-.292.125-.301.157-.301h.003c.401-.118.099-.523.099-.523-.055-.257-.023-1.414-.023-1.414.092-.347-.172-.825-.096-1.232-.321.09-.447.15-.892.352M27.25 20.837l.124.094c1.84.049 1.682 2.37 1.682 2.485l1.082-.37c-.952-3.118-2.357-2.555-2.888-2.21M19.047 22.35h-.007zM19.047 22.35h-.002.002zM27.689 26.855c-.246-1-.205-1.372-.207-1.4-.22-.06-1.103-.518-1.522-.997-.001.002-.011-.01-.011-.01.003.003-.157.219-.119.467.284.163.564.297.564.297.572.35.71.848.71.848.23.84.114 1.051.114 1.051-.065.216-.162.362-.162.362-.083.131-.171.254-.171.254-.212.293-.2.38-.2.38.166.142.706.05.805-.048.048-.05.04-.224.003-.258-.21-.203.048-.335.048-.335.33-.14.148-.61.148-.61M18.73 18.165c.04-.117.089-.237.082-.429a.448.448 0 0 0-.016-.119c-.1.02-.54-.19-.75-.427-.022.01.04.303.066.366.07.167.187.195.187.195s-.235.109-.312.194c.062.004.454-.019.744.22M17.678 19.834l.017.013c.217-.16.51-.635.53-.705l-.32-.184a.017.017 0 0 1-.007-.021c.16-.339.299-.569.3-.57.004-.037.36.183.36.183.055-.126.065-.148.092-.227-.175-.161-.644-.213-.79-.227-.1.163-.272.475-.288.675-.021.253-.339.721-.315.763l.42.3zM17.154 19.707c.001.017-.068.107-.116.206-.033.066.016.088-.01.162-.163.456.444.575.68.306.023-.027.107-.044.147-.063.078-.039.046-.093.037-.1l-.738-.511z" fill="#FEFEFE"/><path d="M20.873 18.913c.112.247.434 1.15.678 1.323.125.125.636.347.636.347.004.002.018.014.002 0-.722-.619-.315-3.298-2.583-3.472-.775-.06-1.09.258-1.088.272l.207.087c1.387-.227 1.924.944 2.148 1.443" fill="#FEFEFE"/><path d="M20.711 19.133c-.238-.54-.877-1.59-1.738-1.532.073.703-.573 1.838-1.112 2.336l.176.155c.252-.313.486-.394.81-.51.22-.077.323-.318.323-.318.547.806-.054 2.407-.124 3.014 1.181-.558 2.398-1.486 2.596-1.686-.431-.102-.797-1.158-.93-1.46M35.898 22.807c.142.343.343.635.6.866.327.295.754.513 1.265.65v-2.59l-2.084-.004c.01.385.083.748.22 1.078M40.706 21.72v2.615c.213-.056.1-.024.31-.098l.02-.032c.543-1.52 1.688-2.312 1.927-2.486l-2.257.001" fill="#FEFEFE"/><path d="M41.185 24.352l-.018.01c-1.389.473-2.842.327-3.495.122-.459-.143-.858-.33-1.18-.59a2.559 2.559 0 0 1-.748-.97 3.275 3.275 0 0 1-.258-1.331v-.025l.001-.001v-.034h2.276V18.08h2.943v3.443h2.447l.115.162c-.11.07-1.564 1.025-2.083 2.667zm-1.524 1.332c-.007.03-.037.04-.047.042l-.663.002c-.012-.002-.047-.013-.049-.05v-.006l-.019-.819c.144.014.646.01.812-.003l-.034.834zm-3.385-7.326c.121 0 .128-.108.128-.108s.015-.068.08-.068c.069 0 .08.068.08.068s.003.108.126.108h.189l-.11 1.333h-.048c-.15 0-.162.136-.162.136l-.028.164h-.096l-.03-.164s-.018-.136-.159-.136h-.048l-.11-1.333h.188zm7.321.187h.61l-.096 1.2h-.44l-.074-1.2zM33.324 22.82v-.001c-.069-.18-.296-.891-.34-1.012-.058-.166-.267-.611-.334-.645-.018-.009-.078.035-.078.035s-.244-.183-.137-.332c.1-.139.91-.05 1.024-.055 0 0 .147 1.677-.135 2.01zm-.72.163c-.056.11-.404.135-.385.24.007.04.016.076.019.102-.409-.04-.816-.34-1.217-.709.026-.028.08-.083.099-.106.126-.146.66-.739.746-.835.027-.029.064-.077.103-.132.12.166.414.573.49.657.132.142.205.474.22.541.013.068-.047.184-.076.242zm11.204-1.528a1.345 1.345 0 0 1-.315-.005c-.175-.028-.33-.212-.329-.428.001-.052.003-1.337.007-1.827h.288l.045.75h.065c.188 0 .225.182.225.182l.037.22h.114l.036-.22s.022-.182.224-.182h.064l.148-1.785h-.253c-.184 0-.184-.147-.184-.147s0-.09-.092-.09c-.088 0-.093.09-.093.09s0 .147-.185.147h-.253l.074.81h-.258c0-.215.006-1.14.006-1.15v-.005h.116a.114.114 0 0 0 .03-.054c.015-.046-.001-.07-.006-.076 0 0-1.549-.295-4.093-.295-2.486 0-4.052.298-4.052.298-.004.006-.013.027-.006.066.007.043.027.057.033.06h.105v3.1c0 .02.017.496-.105.62a.09.09 0 0 1-.065.03c-.105.002-.347-.662-.347-.662h.198c.014 0 .035-.023.035-.07 0-.041-.023-.075-.033-.075h-.773c.598-.118.666-.41.676-.693.05-1.252-.03-1.545-.102-1.91a1.889 1.889 0 0 0-.15-.362l-.817 1.093-.064.406-.901.068-.013.43.819.007-.011.057s-.526.062-.617.1c-.007.003-.01.054-.01.078-.25.034-1.208.176-1.269.337-.071.185-.44.9-.488 1.036-.062.183-.295.424-.349.466-.106.082-.366.045-.493-.063-.044-.036-.139-.135-.178-.097a.757.757 0 0 1-.083.073 6.142 6.142 0 0 0-.279-.25s-.032-.021-.063.021c-.02.028-.008.056-.005.062.19.168.38.37.583.585.561.593 1.193 1.261 1.952 1.321-.75.228-1.282.554-2.699.555-1.574.002-3.595-.853-4.655-1.53.29 1.076 1.57 2.192 1.98 2.413.565.302.917.367 1.125.913.178.466.175 1.214.072 1.448-.076.173-.31.482-.334.524-.045.072-.252.299-.198.381.04.059.663.076.77-.005.035-.026.074-.208.046-.26-.016-.03-.058-.054-.074-.086-.057-.121.075-.215.144-.207.196.021.231-.165.205-.259-.154-.558-.121-1.888-.121-1.888.02-.218-.006-.437-.207-.51-.171-.063-.954-.687-.942-1.087.323.113 1.116.328 2.187.328 2.124 0 2.704-.86 4.415-.825 1.025.021 1.104.192 2.169.655.7.303 1.44.683 2.52.765l-.034.84c-.006.03-.036.04-.046.041h-.747s-.016.024-.016.052c0 .024.02.054.02.054s.088.065.118.065h2.393c.028 0 .117-.065.117-.065s.017-.03.017-.054c0-.028-.016-.052-.016-.052h-.677c-.011-.002-.047-.012-.05-.05v-.004l-.018-.83c.97-.08 1.506-.343 1.553-.366 0 0 .52-1.762 2.024-2.609.51-.288 1.017-.36 1.732-.403 0 0 .027-.01.027-.066 0-.048-.023-.065-.023-.065-.509 0-1.207.107-1.323.12z" fill="#FEFEFE"/><path d="M40.32 21.52s-.453.018-1.102.018c-.614 0-1.073-.019-1.073-.019V18.46h2.176v3.06zm-.68.402c0 .075-.046.075-.046.075h-.725s-.034-.019-.034-.075v-.076h.805v.076zm-1.691-3.656l.004 6.09c.875.209 2.015.13 2.567.008l-.002-6.101-2.57.003zM36.652 19.546l.085-.918h-.454l.077.918zM47.304 27.208a.051.051 0 0 1-.02.009l-1.757-1.787-.008-.01a.047.047 0 0 1-.014-.034v-.004c0-.032.024-.057.056-.057v-.001l2.547-.028.002.007a2.95 2.95 0 0 1-.806 1.905m-2.066.932a.03.03 0 0 1-.015-.004l.028-2.51h.001a.06.06 0 0 1 .004-.016v-.002c.002-.004.004-.009.007-.012l.004-.003.004-.005.006-.004a.075.075 0 0 1 .012-.006l.001-.001h.006c.003-.002.008-.003.013-.003.006 0 .01.001.015.003h.004c.006.002.01.005.015.009.002 0 .004 0 .007.003l.007.007 1.802 1.752c-.003.002-.004.006-.004.006-.51.468-1.18.761-1.917.786m-2.124-.785l-.007-.011 1.797-1.748.011-.012a.024.024 0 0 1 .009-.005l.005-.004.01-.002.007-.002.006-.001a.06.06 0 0 1 .061.056v.002l.028 2.509-.013.003a2.981 2.981 0 0 1-1.914-.785m-.153-.152a2.943 2.943 0 0 1-.802-1.898v-.001l.002-.014 2.543.028h.003c.032.003.057.027.057.058 0 .01-.005.02-.01.028v.002l-.008.01-.004.006-1.76 1.791a.051.051 0 0 1-.021-.01m-.012-4.036a.05.05 0 0 1 .01-.005l1.783 1.813.008.01c.01.01.014.023.014.036v.004l-.003.01c0 .003 0 .007-.003.012l-.002.004c-.005.006-.009.012-.014.016h-.002c-.004.004-.008.007-.012.008a.046.046 0 0 1-.021.005l-2.54.03a.043.043 0 0 1-.008-.024h-.001c.023-.74.32-1.412.791-1.92m2.08-.949c.007.001.012.002.017.005l-.028 2.557h-.001a.047.047 0 0 1-.014.033l-.002.001a.05.05 0 0 1-.02.014l-.002.001h-.003a.056.056 0 0 1-.017.004.073.073 0 0 1-.03-.009l-.009-.007h-.001l-.006-.004-1.824-1.777c.002-.006.004-.011.009-.017a2.98 2.98 0 0 1 1.931-.8m2.143.8h-.001v.001a.064.064 0 0 1 .012.022l-1.82 1.77-.009.01h-.001a.05.05 0 0 1-.059.007h-.004l-.008-.008h-.002a.023.023 0 0 0-.005-.005l-.005-.003a.052.052 0 0 1-.013-.033l-.03-2.558.017-.004c.744.027 1.419.326 1.928.801m.931 2.097l-2.537-.028h-.002a.058.058 0 0 1-.06-.058c0-.017.008-.032.02-.043l.003-.003 1.787-1.818a.032.032 0 0 1 .01.008c.471.507.766 1.18.787 1.918a.047.047 0 0 1-.008.024m-2.969-3.173h-.019a3.246 3.246 0 0 0-3.233 3.237 3.219 3.219 0 0 0 1.026 2.359 3.251 3.251 0 0 0 2.226.878 3.245 3.245 0 0 0 3.254-3.237 3.245 3.245 0 0 0-3.254-3.237M30.78 17.191c-.923-.375-1.877-.762-2.233-1.28-.23-.333-.31-.646-.215-.836.053-.107.158-.166.3-.173l.026-.001c.642 0 1.41.863 1.873 1.603l.005.005h.001l.502.789c-.085-.035-.173-.07-.26-.107m2.016 1.105c-.277-.337-.834-.614-1.586-.927l-.576-.908c-.002-.007-.003-.012-.007-.017-.352-.562-.722-.995-1.098-1.285-.31-.238-.618-.37-.868-.37l-.034.001c-.182.009-.323.093-.394.235-.115.231-.034.577.222.95.375.545 1.345.94 2.284 1.321l.401.16 1.205 1.892c-.136.002-.294-.01-.266.066.028.077.14 0 .188.144.073.219.483.176.483.176l-.108-.388-.174.002-1.16-1.826c.672.266 1.206.494 1.458.8.004.005.01.008.017.008.008 0 .016-.004.018-.011.001-.003.005-.012-.005-.023M33.99 18.664l.063-.545.07-.08-.026-.2.485-.205c-.02-.056-.018-.081.036-.132.039-.037.226-.227.234-.264.065-.314-.376-.516-.677-.462-.096.016-.338.042-.485-.003-.039-.013-.111-.017-.111-.017l-.044.067c.016.021.207.254.274.344.072.07-.163.29-.096.309.017.006.06.012.063.02.006.007-.005.069-.006.088 0 .014.033.012.04.026.007.02-.007.149.018.16.05.021.23.063.23.063a.048.048 0 0 1-.006.035s-.206.033-.126.14c.041.055.103.068.078.088-.022.021-.12.062-.103.223.016.135.017.327.053.394l.036-.049zM35.578 27.479a.047.047 0 0 1-.046-.006l-1.154-1.189-.008-.008c-.007-.007-.01-.017-.01-.026l-.002-.003c0-.025.021-.044.044-.045l1.673-.03a.05.05 0 0 1 .04.042c-.02.379-.144.732-.346 1.03a1.932 1.932 0 0 1-.19.235zm-3.545-1.286a.05.05 0 0 1 .035-.024l1.67.029v-.001h.003c.024.002.043.021.043.045a.041.041 0 0 1-.007.022v.001l-.007.008-.003.005-1.157 1.192a.047.047 0 0 1-.033.01c-.318-.342-.52-.79-.544-1.287zm.526-1.453a.048.048 0 0 1 .054.001l1.154 1.19.007.007a.03.03 0 0 1 .01.028l.001.001-.001.002v.007l-.004.01v.001l-.002.003a.062.062 0 0 1-.01.013h-.002c-.003.002-.005.005-.01.006a.027.027 0 0 1-.015.003v.001l-1.673.029a.049.049 0 0 1-.035-.026c.01-.251.065-.49.158-.71.09-.21.216-.4.368-.566zm1.683 1.07a.04.04 0 0 1-.046.007h-.003l-.006-.006-.002-.002-.004-.003-.003-.001a.042.042 0 0 1-.01-.027h-.001l-.03-1.664a.048.048 0 0 1 .043-.04c.486.025.926.22 1.265.526a.046.046 0 0 1 0 .055l-1.195 1.149-.008.007zm-1.54-1.213a2.04 2.04 0 0 1 1.266-.523c.022.002.04.019.042.04l-.028 1.664a.04.04 0 0 1-.012.026l-.002.001a.036.036 0 0 1-.016.011h-.003c-.005.002-.009.004-.013.004a.049.049 0 0 1-.023-.008c-.003 0-.005-.003-.008-.005l-.003-.003-1.199-1.153a.044.044 0 0 1-.001-.054zm-.013 2.995c0-.011.003-.022.011-.032l1.193-1.147.01-.01v.001a.09.09 0 0 1 .006-.005l.003-.002.006-.002a.037.037 0 0 1 .006-.001l.008-.002c.025 0 .044.02.046.045l.028 1.663a.047.047 0 0 1-.018.03 2.043 2.043 0 0 1-1.299-.538zm2.76.017a2.04 2.04 0 0 1-1.297.521.046.046 0 0 1-.018-.03l.028-1.663h.001c0-.006.001-.01.003-.014l.001-.001c0-.003.003-.007.005-.01l.002-.002.004-.004.005-.003.01-.005h.004l.01-.003c.005 0 .009.002.012.003h.004a.03.03 0 0 1 .01.006l.006.003.006.006 1.197 1.15c.01.013.01.03.006.046zm.667-1.606a.047.047 0 0 1-.041.043l-1.668-.029-.002.001a.046.046 0 0 1-.047-.045c0-.014.007-.025.016-.034l.004-.002 1.157-1.193a.047.047 0 0 1 .054 0c.307.337.502.776.527 1.26zm-2.048-2.192a2.309 2.309 0 0 0-2.314 2.302 2.309 2.309 0 0 0 2.314 2.303 2.308 2.308 0 0 0 2.314-2.303 2.308 2.308 0 0 0-2.314-2.302z" fill="#FEFEFE"/><g transform="translate(48.277 .054)"><mask id="b" fill="#fff"><use xlink:href="#a"/></mask><path d="M19.458 18.392v-7.527a.07.07 0 0 0-.07-.07h-.27v-.576a.07.07 0 0 0-.07-.07h-.302v-.36a.07.07 0 0 0-.07-.07h-.37a.07.07 0 0 0-.07.07v.36h-.138v-.083a.069.069 0 0 0-.021-.05l-.464-.46a.07.07 0 0 0-.12.049v.206h-.795a.07.07 0 0 0-.07.07v.268h-1.413a.07.07 0 0 0-.07.07v.669h-.796a.07.07 0 0 0-.07.07v6.573h-.2v-.3a.07.07 0 0 0-.07-.07h-.301v-.655a.07.07 0 0 0-.07-.07h-.393v-.373a.07.07 0 0 0-.07-.07h-.217a.07.07 0 0 0-.07.07v.373h-.787v-.28a.07.07 0 0 0-.07-.07h-.186a.07.07 0 0 0-.07.07v.28h-.332a.07.07 0 0 0-.07.07v.697l-.227.225a.071.071 0 0 0-.02.05V19.6l-.186.023a.07.07 0 0 0-.062.069v1.871l-.612.028a.07.07 0 0 0-.067.07v2.667h-.293V21.29a.07.07 0 0 0-.066-.07l-.49-.026v-2.426a.07.07 0 0 0-.07-.07h-.222v-.483a.07.07 0 0 0-.055-.068l-.734-.174v-1.942a.07.07 0 0 0-.015-.043l-.202-.257v-.868a.07.07 0 0 0-.062-.07l-.186-.023v-.325a.07.07 0 0 0-.07-.07H6.127a.07.07 0 0 0-.07.07v1.057l-.247.164a.07.07 0 0 0-.031.058v1.422l-.571.148v-.217a.07.07 0 0 0-.081-.07l-.401.062a.07.07 0 0 0-.06.07v.145h-.015v-7.189a.066.066 0 0 0-.009-.035l-.206-.352V7.876a.07.07 0 0 0-.056-.068l-.223-.05V6.185a.07.07 0 0 0-.06-.07l-.341-.052V6a.074.074 0 0 0-.008-.032l-.765-1.522V2.82a.068.068 0 0 0-.011-.037l-.206-.322L2.579.37a.07.07 0 0 0-.07-.067.07.07 0 0 0-.07.068L2.286 2.53l-.12.328a.067.067 0 0 0-.003.023v1.59l-.593 1.52h-.26a.07.07 0 0 0-.07.07v.144l-.186.103a.07.07 0 0 0-.036.061v1.478l-.195.195a.07.07 0 0 0-.02.05V9.78H.749a.07.07 0 0 0-.07.07v.206H.625a.07.07 0 0 0-.07.07v5.344H.409c-.038 0-.089.092-.089.13l.159.009h.146a.07.07 0 0 0 .07-.07v-5.343H.75a.07.07 0 0 0 .07-.07V9.92h.053a.07.07 0 0 0 .07-.07V8.12l.196-.195a.07.07 0 0 0 .02-.05V6.41l.186-.103a.07.07 0 0 0 .036-.061v-.114h.238a.07.07 0 0 0 .066-.045l.614-1.578a.066.066 0 0 0 .005-.025v-1.59l.12-.327a.076.076 0 0 0 .004-.021l.09-.776.109.714c0 .013.004.025.011.035l.205.322v1.621c0 .01.003.022.008.031l.765 1.523v.107a.07.07 0 0 0 .06.07l.342.051v1.57c0 .033.023.062.055.069l.223.049v1.796c0 .012.003.024.01.035l.206.352v7.24c0 .038.032.07.07.07h.155a.07.07 0 0 0 .07-.07V17.2l.261-.04v.226a.07.07 0 0 0 .089.067l.71-.184a.07.07 0 0 0 .053-.068v-1.439l.247-.164a.07.07 0 0 0 .03-.058v-1.024h1.468v.317a.07.07 0 0 0 .062.07l.185.022v.83c0 .016.006.031.015.044l.202.257v1.973c0 .033.023.06.054.068l.735.174v.498c0 .04.032.07.07.07h.223v2.422a.07.07 0 0 0 .066.07l.49.027v3.04c0 .038.032.07.07.07h.433a.07.07 0 0 0 .07-.07v-2.67l.539-.024v1.341a.07.07 0 0 0 .14 0v-3.292l.187-.022a.07.07 0 0 0 .061-.07v-2.154l.227-.226a.07.07 0 0 0 .02-.05v-.655h.332a.07.07 0 0 0 .07-.07v-.28h.045v.28c0 .039.032.07.07.07h.928a.07.07 0 0 0 .07-.07v-.373h.076v.373c0 .039.031.07.07.07h.393v.656c0 .038.032.07.07.07h.302v.299c0 .038.032.07.07.07h.34a.07.07 0 0 0 .07-.07v-6.573h.796a.07.07 0 0 0 .07-.07v-.669h1.413a.07.07 0 0 0 .07-.07v-.268h.796a.07.07 0 0 0 .07-.07v-.108l.323.322v.124c0 .04.031.07.07.07h.279a.07.07 0 0 0 .07-.07v-.36h.23v.36c0 .04.032.07.07.07h.301v.576c0 .04.032.07.07.07h.27v9.65a.07.07 0 0 0 .14 0v-2.053" fill="#FEFEFE" mask="url(#b)"/></g><path d="M65.875 22.416h.461l-.244-11.371h-.426l.21 11.371zm.537.14h-.605a.07.07 0 0 1-.07-.069l-.213-11.51a.07.07 0 0 1 .07-.072h.566c.038 0 .07.03.07.068l.248 11.49a.07.07 0 0 1-.066.093z" fill="#FEFEFE"/><path d="M66.974 11.081h-3.096c-.039 0-.07-.04-.07-.088 0-.048.031-.088.07-.088h3.096c.039 0 .07.04.07.088 0 .049-.031.088-.07.088M52.521 15.622h-3.186a.07.07 0 0 1-.07-.07l-.053-5.278a.07.07 0 0 1 .03-.058l.323-.227-.07-1.716a.07.07 0 0 1 .013-.044l.284-.387a.07.07 0 0 1 .056-.029h2.23a.07.07 0 0 1 0 .14h-2.194l-.248.339.07 1.73a.07.07 0 0 1-.03.059l-.323.229.052 5.172h3.116a.07.07 0 1 1 0 .14" fill="#FEFEFE"/><path d="M52.642 9.888h-2.546c-.039 0-.07-.04-.07-.088 0-.049.031-.088.07-.088h2.546c.039 0 .07.04.07.088 0 .048-.031.088-.07.088M51.962 6.284h-1.406c-.04 0-.07-.04-.07-.088 0-.049.03-.089.07-.089h1.406c.039 0 .07.04.07.089 0 .048-.031.088-.07.088M50.178 19.685c-.048 0-.088-.03-.088-.069l-.064-3.852c0-.038.038-.07.087-.07.05 0 .09.03.09.068l.063 3.852c0 .039-.038.07-.087.07h-.001zM67.904 25.358a.069.069 0 0 1-.043.016l-1.451.036a.07.07 0 0 1-.072-.07V22.91H62.03v5.015c0 .039-.07.099-.07-.168-.039 0-.07.207-.07.168V22.84a.07.07 0 0 1 .07-.07h4.447a.07.07 0 0 1 .07.07v2.43l1.354-.034" fill="#FEFEFE"/><path d="M67.993 27.885a.07.07 0 0 1-.07-.07l-.028-3.825-.268-.37a.072.072 0 0 1-.013-.04l-.034-2.467-1.171.011a.07.07 0 0 1-.071-.069c0-.038.03-.07.07-.07l1.24-.013h.001c.039 0 .07.03.07.07l.036 2.515.267.37a.07.07 0 0 1 .013.04l.028 3.848a.07.07 0 0 1-.07.07M61.384 22.615a.07.07 0 0 1-.07-.07v-1.571h-.283a.07.07 0 0 1-.071-.07v-2.57h-.815a.07.07 0 1 1 0-.14h.886a.07.07 0 0 1 .07.07v2.57h.283a.07.07 0 0 1 .07.07v1.55l.178-.045v-4.146a.07.07 0 0 1 .07-.07.07.07 0 0 1 .07.07v4.2a.07.07 0 0 1-.052.068l-.32.081a.071.071 0 0 1-.016.003M52.936 23.755v-6.043c0-.04.04-.07.088-.07.049 0 .089.03.089.07v6.035M60.861 16.63c-.047 0-.086-.03-.088-.066l-.096-1.678c-.002-.038.035-.07.084-.073.049-.001.09.028.092.067l.096 1.677c.003.039-.035.072-.084.073h-.004zM55.046 27.63c-.049 0-.088-.03-.088-.07v-8.98c0-.038.04-.07.088-.07.049 0 .088.032.088.07v8.98c0 .04-.04.07-.088.07M57.018 27.63c-.049 0-.089-.03-.089-.07v-9.136c0-.039.04-.07.089-.07.048 0 .088.031.088.07v9.136c0 .04-.04.07-.088.07M59.87 26.575a.07.07 0 0 1-.07-.07v-3.89h-.3a.07.07 0 0 1 0-.14h.37a.07.07 0 0 1 .071.07v3.96a.07.07 0 0 1-.07.07M52.521 16.185h-2.044c-.04 0-.07-.04-.07-.089 0-.048.03-.088.07-.088h2.044c.039 0 .07.04.07.088 0 .049-.031.089-.07.089M52.521 16.544h-2.044c-.04 0-.07-.039-.07-.087 0-.05.03-.088.07-.088h2.044c.039 0 .07.039.07.088 0 .048-.031.087-.07.087M52.521 16.9h-2.044c-.04 0-.07-.04-.07-.088 0-.049.03-.088.07-.088h2.044c.039 0 .07.039.07.088 0 .049-.031.088-.07.088M52.521 17.256h-2.044c-.04 0-.07-.04-.07-.088 0-.049.03-.089.07-.089h2.044c.039 0 .07.04.07.089 0 .048-.031.088-.07.088M52.521 17.612h-2.044c-.04 0-.07-.04-.07-.089 0-.048.03-.088.07-.088h2.044c.039 0 .07.04.07.088 0 .05-.031.089-.07.089M52.521 17.967h-2.044c-.04 0-.07-.04-.07-.088 0-.05.03-.088.07-.088h2.044c.039 0 .07.039.07.088 0 .049-.031.088-.07.088M52.521 18.323h-2.044c-.04 0-.07-.04-.07-.088 0-.049.03-.088.07-.088h2.044c.039 0 .07.04.07.088 0 .049-.031.088-.07.088M52.521 18.678h-2.044c-.04 0-.07-.04-.07-.088 0-.048.03-.088.07-.088h2.044c.039 0 .07.04.07.088 0 .049-.031.088-.07.088M52.521 19.034h-2.044c-.04 0-.07-.04-.07-.089 0-.048.03-.087.07-.087h2.044c.039 0 .07.039.07.087 0 .05-.031.089-.07.089M52.54 10.731c-.05 0-.09-.03-.09-.07v-.387c0-.04.04-.07.09-.07.048 0 .087.03.087.07v.388c0 .038-.04.07-.088.07M52.177 10.731c-.049 0-.088-.03-.088-.07v-.387c0-.04.04-.07.088-.07.048 0 .088.03.088.07v.388c0 .038-.04.07-.088.07M51.82 10.731c-.05 0-.09-.03-.09-.07v-.387c0-.04.04-.07.09-.07.048 0 .088.03.088.07v.388c0 .038-.04.07-.089.07M51.462 10.731c-.049 0-.089-.03-.089-.07v-.387c0-.04.04-.07.089-.07.049 0 .088.03.088.07v.388c0 .038-.04.07-.088.07M51.105 10.731c-.049 0-.088-.03-.088-.07v-.387c0-.04.04-.07.088-.07.049 0 .088.03.088.07v.388c0 .038-.04.07-.088.07M50.747 10.731c-.049 0-.088-.03-.088-.07v-.387c0-.04.04-.07.088-.07.049 0 .088.03.088.07v.388c0 .038-.039.07-.088.07M50.39 10.731c-.049 0-.088-.03-.088-.07v-.387c0-.04.04-.07.088-.07.049 0 .088.03.088.07v.388c0 .038-.04.07-.088.07M50.032 10.731c-.048 0-.088-.03-.088-.07v-.387c0-.04.04-.07.088-.07.049 0 .089.03.089.07v.388c0 .038-.04.07-.089.07M49.675 10.731c-.049 0-.088-.03-.088-.07v-.387c0-.04.04-.07.088-.07.048 0 .088.03.088.07v.388c0 .038-.04.07-.088.07M52.54 11.445c-.05 0-.09-.031-.09-.07v-.387c0-.04.04-.07.09-.07.048 0 .087.03.087.07v.387c0 .039-.04.07-.088.07M52.177 11.445c-.049 0-.088-.031-.088-.07v-.387c0-.04.04-.07.088-.07.048 0 .088.03.088.07v.387c0 .039-.04.07-.088.07M51.82 11.445c-.05 0-.09-.031-.09-.07v-.387c0-.04.04-.07.09-.07.048 0 .088.03.088.07v.387c0 .039-.04.07-.089.07M51.462 11.445c-.049 0-.089-.031-.089-.07v-.387c0-.04.04-.07.089-.07.049 0 .088.03.088.07v.387c0 .039-.04.07-.088.07M51.105 11.445c-.049 0-.088-.031-.088-.07v-.387c0-.04.04-.07.088-.07.049 0 .088.03.088.07v.387c0 .039-.04.07-.088.07M50.747 11.445c-.049 0-.088-.031-.088-.07v-.387c0-.04.04-.07.088-.07.049 0 .088.03.088.07v.387c0 .039-.039.07-.088.07M50.39 11.445c-.049 0-.088-.031-.088-.07v-.387c0-.04.04-.07.088-.07.049 0 .088.03.088.07v.387c0 .039-.04.07-.088.07M50.032 11.445c-.048 0-.088-.031-.088-.07v-.387c0-.04.04-.07.088-.07.049 0 .089.03.089.07v.387c0 .039-.04.07-.089.07M49.675 11.445c-.049 0-.088-.031-.088-.07v-.387c0-.04.04-.07.088-.07.048 0 .088.03.088.07v.387c0 .039-.04.07-.088.07M52.54 12.159c-.05 0-.09-.032-.09-.07v-.388c0-.039.04-.07.09-.07.048 0 .087.031.087.07v.388c0 .038-.04.07-.088.07M52.177 12.159c-.049 0-.088-.032-.088-.07v-.388c0-.039.04-.07.088-.07.048 0 .088.031.088.07v.388c0 .038-.04.07-.088.07M51.82 12.159c-.05 0-.09-.032-.09-.07v-.388c0-.039.04-.07.09-.07.048 0 .088.031.088.07v.388c0 .038-.04.07-.089.07M51.462 12.159c-.049 0-.089-.032-.089-.07v-.388c0-.039.04-.07.089-.07.049 0 .088.031.088.07v.388c0 .038-.04.07-.088.07M51.105 12.159c-.049 0-.088-.032-.088-.07v-.388c0-.039.04-.07.088-.07.049 0 .088.031.088.07v.388c0 .038-.04.07-.088.07M50.747 12.159c-.049 0-.088-.032-.088-.07v-.388c0-.039.04-.07.088-.07.049 0 .088.031.088.07v.388c0 .038-.039.07-.088.07M50.39 12.159c-.049 0-.088-.032-.088-.07v-.388c0-.039.04-.07.088-.07.049 0 .088.031.088.07v.388c0 .038-.04.07-.088.07M50.032 12.159c-.048 0-.088-.032-.088-.07v-.388c0-.039.04-.07.088-.07.049 0 .089.031.089.07v.388c0 .038-.04.07-.089.07M49.675 12.159c-.049 0-.088-.032-.088-.07v-.388c0-.039.04-.07.088-.07.048 0 .088.031.088.07v.388c0 .038-.04.07-.088.07M52.54 12.872c-.05 0-.09-.03-.09-.07v-.387c0-.04.04-.07.09-.07.048 0 .087.03.087.07v.388c0 .038-.04.07-.088.07M52.177 12.872c-.049 0-.088-.03-.088-.07v-.387c0-.04.04-.07.088-.07.048 0 .088.03.088.07v.388c0 .038-.04.07-.088.07M51.82 12.872c-.05 0-.09-.03-.09-.07v-.387c0-.04.04-.07.09-.07.048 0 .088.03.088.07v.388c0 .038-.04.07-.089.07M51.462 12.872c-.049 0-.089-.03-.089-.07v-.387c0-.04.04-.07.089-.07.049 0 .088.03.088.07v.388c0 .038-.04.07-.088.07M51.105 12.872c-.049 0-.088-.03-.088-.07v-.387c0-.04.04-.07.088-.07.049 0 .088.03.088.07v.388c0 .038-.04.07-.088.07M50.747 12.872c-.049 0-.088-.03-.088-.07v-.387c0-.04.04-.07.088-.07.049 0 .088.03.088.07v.388c0 .038-.039.07-.088.07M50.39 12.872c-.049 0-.088-.03-.088-.07v-.387c0-.04.04-.07.088-.07.049 0 .088.03.088.07v.388c0 .038-.04.07-.088.07M50.032 12.872c-.048 0-.088-.03-.088-.07v-.387c0-.04.04-.07.088-.07.049 0 .089.03.089.07v.388c0 .038-.04.07-.089.07M49.675 12.872c-.049 0-.088-.03-.088-.07v-.387c0-.04.04-.07.088-.07.048 0 .088.03.088.07v.388c0 .038-.04.07-.088.07M52.54 13.586c-.05 0-.09-.031-.09-.07v-.388c0-.038.04-.07.09-.07.048 0 .087.032.087.07v.388c0 .039-.04.07-.088.07M52.177 13.586c-.049 0-.088-.031-.088-.07v-.388c0-.038.04-.07.088-.07.048 0 .088.032.088.07v.388c0 .039-.04.07-.088.07M51.82 13.586c-.05 0-.09-.031-.09-.07v-.388c0-.038.04-.07.09-.07.048 0 .088.032.088.07v.388c0 .039-.04.07-.089.07M51.462 13.586c-.049 0-.089-.031-.089-.07v-.388c0-.038.04-.07.089-.07.049 0 .088.032.088.07v.388c0 .039-.04.07-.088.07M51.105 13.586c-.049 0-.088-.031-.088-.07v-.388c0-.038.04-.07.088-.07.049 0 .088.032.088.07v.388c0 .039-.04.07-.088.07M50.747 13.586c-.049 0-.088-.031-.088-.07v-.388c0-.038.04-.07.088-.07.049 0 .088.032.088.07v.388c0 .039-.039.07-.088.07M50.39 13.586c-.049 0-.088-.031-.088-.07v-.388c0-.038.04-.07.088-.07.049 0 .088.032.088.07v.388c0 .039-.04.07-.088.07M50.032 13.586c-.048 0-.088-.031-.088-.07v-.388c0-.038.04-.07.088-.07.049 0 .089.032.089.07v.388c0 .039-.04.07-.089.07M49.675 13.586c-.049 0-.088-.031-.088-.07v-.388c0-.038.04-.07.088-.07.048 0 .088.032.088.07v.388c0 .039-.04.07-.088.07M52.54 14.3c-.05 0-.09-.032-.09-.07v-.388c0-.039.04-.07.09-.07.048 0 .087.031.087.07v.387c0 .04-.04.07-.088.07M52.177 14.3c-.049 0-.088-.032-.088-.07v-.388c0-.039.04-.07.088-.07.048 0 .088.031.088.07v.387c0 .04-.04.07-.088.07M51.82 14.3c-.05 0-.09-.032-.09-.07v-.388c0-.039.04-.07.09-.07.048 0 .088.031.088.07v.387c0 .04-.04.07-.089.07M51.462 14.3c-.049 0-.089-.032-.089-.07v-.388c0-.039.04-.07.089-.07.049 0 .088.031.088.07v.387c0 .04-.04.07-.088.07M51.105 14.3c-.049 0-.088-.032-.088-.07v-.388c0-.039.04-.07.088-.07.049 0 .088.031.088.07v.387c0 .04-.04.07-.088.07M50.747 14.3c-.049 0-.088-.032-.088-.07v-.388c0-.039.04-.07.088-.07.049 0 .088.031.088.07v.387c0 .04-.039.07-.088.07M50.39 14.3c-.049 0-.088-.032-.088-.07v-.388c0-.039.04-.07.088-.07.049 0 .088.031.088.07v.387c0 .04-.04.07-.088.07M50.032 14.3c-.048 0-.088-.032-.088-.07v-.388c0-.039.04-.07.088-.07.049 0 .089.031.089.07v.387c0 .04-.04.07-.089.07M49.675 14.3c-.049 0-.088-.032-.088-.07v-.388c0-.039.04-.07.088-.07.048 0 .088.031.088.07v.387c0 .04-.04.07-.088.07M52.54 15.013c-.05 0-.09-.03-.09-.07v-.387c0-.04.04-.07.09-.07.048 0 .087.03.087.07v.388c0 .038-.04.07-.088.07M52.177 15.013c-.049 0-.088-.03-.088-.07v-.387c0-.04.04-.07.088-.07.048 0 .088.03.088.07v.388c0 .038-.04.07-.088.07M51.82 15.013c-.05 0-.09-.03-.09-.07v-.387c0-.04.04-.07.09-.07.048 0 .088.03.088.07v.388c0 .038-.04.07-.089.07M51.462 15.013c-.049 0-.089-.03-.089-.07v-.387c0-.04.04-.07.089-.07.049 0 .088.03.088.07v.388c0 .038-.04.07-.088.07M51.105 15.013c-.049 0-.088-.03-.088-.07v-.387c0-.04.04-.07.088-.07.049 0 .088.03.088.07v.388c0 .038-.04.07-.088.07M50.747 15.013c-.049 0-.088-.03-.088-.07v-.387c0-.04.04-.07.088-.07.049 0 .088.03.088.07v.388c0 .038-.039.07-.088.07M50.39 15.013c-.049 0-.088-.03-.088-.07v-.387c0-.04.04-.07.088-.07.049 0 .088.03.088.07v.388c0 .038-.04.07-.088.07M50.032 15.013c-.048 0-.088-.03-.088-.07v-.387c0-.04.04-.07.088-.07.049 0 .089.03.089.07v.388c0 .038-.04.07-.089.07M49.675 15.013c-.049 0-.088-.03-.088-.07v-.387c0-.04.04-.07.088-.07.048 0 .088.03.088.07v.388c0 .038-.04.07-.088.07M52.54 15.652c-.05 0-.09-.034-.09-.075v-.303c0-.041.04-.075.09-.075.048 0 .087.034.087.075v.303c0 .041-.04.075-.088.075M52.177 15.652c-.049 0-.088-.034-.088-.075v-.303c0-.041.04-.075.088-.075.048 0 .088.034.088.075v.303c0 .041-.04.075-.088.075M51.82 15.652c-.05 0-.09-.034-.09-.075v-.303c0-.041.04-.075.09-.075.048 0 .088.034.088.075v.303c0 .041-.04.075-.089.075M51.462 15.652c-.049 0-.089-.034-.089-.075v-.303c0-.041.04-.075.089-.075.049 0 .088.034.088.075v.303c0 .041-.04.075-.088.075M51.105 15.652c-.049 0-.088-.034-.088-.075v-.303c0-.041.04-.075.088-.075.049 0 .088.034.088.075v.303c0 .041-.04.075-.088.075M50.747 15.652c-.049 0-.088-.034-.088-.075v-.303c0-.041.04-.075.088-.075.049 0 .088.034.088.075v.303c0 .041-.039.075-.088.075M50.39 15.652c-.049 0-.088-.034-.088-.075v-.303c0-.041.04-.075.088-.075.049 0 .088.034.088.075v.303c0 .041-.04.075-.088.075M50.032 15.652c-.048 0-.088-.034-.088-.075v-.303c0-.041.04-.075.088-.075.049 0 .089.034.089.075v.303c0 .041-.04.075-.089.075M49.675 15.652c-.049 0-.088-.034-.088-.075v-.303c0-.041.04-.075.088-.075.048 0 .088.034.088.075v.303c0 .041-.04.075-.088.075M52.362 9.468c-.049 0-.089-.031-.089-.07V9.07c0-.039.04-.07.089-.07.049 0 .088.031.088.07v.33c0 .038-.04.069-.088.069M52.063 9.468c-.049 0-.089-.031-.089-.07V9.07c0-.039.04-.07.089-.07.048 0 .088.031.088.07v.33c0 .038-.04.069-.088.069M51.768 9.468c-.049 0-.088-.031-.088-.07V9.07c0-.039.039-.07.088-.07.048 0 .088.031.088.07v.33c0 .038-.04.069-.088.069M51.473 9.468c-.049 0-.088-.031-.088-.07V9.07c0-.039.04-.07.088-.07.048 0 .088.031.088.07v.33c0 .038-.04.069-.088.069M51.178 9.468c-.049 0-.088-.031-.088-.07V9.07c0-.039.04-.07.088-.07.049 0 .088.031.088.07v.33c0 .038-.04.069-.088.069M50.882 9.468c-.048 0-.088-.031-.088-.07V9.07c0-.039.04-.07.088-.07.049 0 .088.031.088.07v.33c0 .038-.039.069-.088.069M50.587 9.468c-.048 0-.088-.031-.088-.07V9.07c0-.039.04-.07.088-.07.05 0 .089.031.089.07v.33c0 .038-.04.069-.089.069M50.292 9.468c-.048 0-.088-.031-.088-.07V9.07c0-.039.04-.07.088-.07.049 0 .089.031.089.07v.33c0 .038-.04.069-.089.069M49.998 9.468c-.05 0-.089-.031-.089-.07V9.07c0-.039.04-.07.089-.07.048 0 .088.031.088.07v.33c0 .038-.04.069-.088.069" fill="#FEFEFE"/><path d="M52.362 9.203c-.049 0-.089-.032-.089-.07v-.329c0-.039.04-.07.089-.07.049 0 .088.031.088.07v.329c0 .038-.04.07-.088.07M52.063 9.203c-.049 0-.089-.032-.089-.07v-.329c0-.039.04-.07.089-.07.048 0 .088.031.088.07v.329c0 .038-.04.07-.088.07M51.768 9.203c-.049 0-.088-.032-.088-.07v-.329c0-.039.039-.07.088-.07.048 0 .088.031.088.07v.329c0 .038-.04.07-.088.07M51.473 9.203c-.049 0-.088-.032-.088-.07v-.329c0-.039.04-.07.088-.07.048 0 .088.031.088.07v.329c0 .038-.04.07-.088.07M51.178 9.203c-.049 0-.088-.032-.088-.07v-.329c0-.039.04-.07.088-.07.049 0 .088.031.088.07v.329c0 .038-.04.07-.088.07M50.882 9.203c-.048 0-.088-.032-.088-.07v-.329c0-.039.04-.07.088-.07.049 0 .088.031.088.07v.329c0 .038-.039.07-.088.07M50.587 9.203c-.048 0-.088-.032-.088-.07v-.329c0-.039.04-.07.088-.07.05 0 .089.031.089.07v.329c0 .038-.04.07-.089.07M50.292 9.203c-.048 0-.088-.032-.088-.07v-.329c0-.039.04-.07.088-.07.049 0 .089.031.089.07v.329c0 .038-.04.07-.089.07M49.998 9.203c-.05 0-.089-.032-.089-.07v-.329c0-.039.04-.07.089-.07.048 0 .088.031.088.07v.329c0 .038-.04.07-.088.07M52.362 8.544c-.049 0-.089-.031-.089-.07v-.33c0-.038.04-.07.089-.07.049 0 .088.032.088.07v.33c0 .039-.04.07-.088.07M52.063 8.544c-.049 0-.089-.031-.089-.07v-.33c0-.038.04-.07.089-.07.048 0 .088.032.088.07v.33c0 .039-.04.07-.088.07M51.768 8.544c-.049 0-.088-.031-.088-.07v-.33c0-.038.039-.07.088-.07.048 0 .088.032.088.07v.33c0 .039-.04.07-.088.07M51.473 8.544c-.049 0-.088-.031-.088-.07v-.33c0-.038.04-.07.088-.07.048 0 .088.032.088.07v.33c0 .039-.04.07-.088.07M51.178 8.544c-.049 0-.088-.031-.088-.07v-.33c0-.038.04-.07.088-.07.049 0 .088.032.088.07v.33c0 .039-.04.07-.088.07M50.882 8.544c-.048 0-.088-.031-.088-.07v-.33c0-.038.04-.07.088-.07.049 0 .088.032.088.07v.33c0 .039-.039.07-.088.07M50.587 8.544c-.048 0-.088-.031-.088-.07v-.33c0-.038.04-.07.088-.07.05 0 .089.032.089.07v.33c0 .039-.04.07-.089.07M50.292 8.544c-.048 0-.088-.031-.088-.07v-.33c0-.038.04-.07.088-.07.049 0 .089.032.089.07v.33c0 .039-.04.07-.089.07M49.998 8.544c-.05 0-.089-.031-.089-.07v-.33c0-.038.04-.07.089-.07.048 0 .088.032.088.07v.33c0 .039-.04.07-.088.07M52.144 6.872a.088.088 0 0 1-.089-.088v-.26a.088.088 0 1 1 .177 0v.26c0 .048-.04.088-.088.088M51.867 6.872a.088.088 0 0 1-.089-.088v-.26a.088.088 0 0 1 .177 0v.26c0 .048-.04.088-.088.088M51.593 6.872a.088.088 0 0 1-.089-.088v-.26a.088.088 0 0 1 .177 0v.26c0 .048-.04.088-.088.088M51.319 6.872a.088.088 0 0 1-.088-.088v-.26a.088.088 0 1 1 .176 0v.26c0 .048-.04.088-.088.088M51.045 6.872a.088.088 0 0 1-.088-.088v-.26a.088.088 0 1 1 .176 0v.26c0 .048-.04.088-.088.088M50.77 6.872a.088.088 0 0 1-.088-.088v-.26a.088.088 0 0 1 .177 0v.26c0 .048-.04.088-.089.088M50.497 6.872a.088.088 0 0 1-.089-.088v-.26a.088.088 0 0 1 .177 0v.26c0 .048-.04.088-.088.088M50.223 6.872a.088.088 0 0 1-.089-.088v-.26a.088.088 0 1 1 .177 0v.26c0 .048-.04.088-.088.088M49.949 6.872a.088.088 0 0 1-.088-.088v-.26a.088.088 0 1 1 .176 0v.26c0 .048-.04.088-.088.088" fill="#FEFEFE"/><path d="M52.144 7.272a.088.088 0 0 1-.089-.088v-.26c0-.048.04-.088.089-.088.048 0 .088.04.088.088v.26c0 .05-.04.088-.088.088M51.867 7.272a.088.088 0 0 1-.089-.088v-.26a.088.088 0 0 1 .177 0v.26c0 .05-.04.088-.088.088M51.593 7.272a.088.088 0 0 1-.089-.088v-.26a.088.088 0 0 1 .177 0v.26c0 .05-.04.088-.088.088M51.319 7.272a.088.088 0 0 1-.088-.088v-.26a.088.088 0 1 1 .177 0v.26c0 .05-.04.088-.09.088M51.045 7.272a.088.088 0 0 1-.088-.088v-.26a.088.088 0 0 1 .177 0v.26c0 .05-.04.088-.09.088M50.77 7.272a.088.088 0 0 1-.088-.088v-.26a.088.088 0 0 1 .177 0v.26c0 .05-.04.088-.089.088M50.497 7.272a.088.088 0 0 1-.089-.088v-.26a.088.088 0 0 1 .177 0v.26c0 .05-.04.088-.088.088M50.223 7.272a.088.088 0 0 1-.089-.088v-.26c0-.048.04-.088.089-.088.048 0 .088.04.088.088v.26c0 .05-.04.088-.088.088M49.949 7.272a.088.088 0 0 1-.088-.088v-.26a.088.088 0 0 1 .177 0v.26c0 .05-.04.088-.09.088" fill="#FEFEFE"/><path d="M52.144 7.674a.088.088 0 0 1-.089-.089v-.26c0-.049.04-.088.089-.088.048 0 .088.04.088.088v.26c0 .05-.04.089-.088.089M51.867 7.674a.088.088 0 0 1-.089-.089v-.26a.088.088 0 0 1 .177 0v.26c0 .05-.04.089-.088.089M51.593 7.674a.088.088 0 0 1-.089-.089v-.26a.088.088 0 0 1 .177 0v.26c0 .05-.04.089-.088.089M51.319 7.674a.088.088 0 0 1-.088-.089v-.26a.088.088 0 1 1 .177 0v.26c0 .05-.04.089-.09.089M51.045 7.674a.088.088 0 0 1-.088-.089v-.26a.088.088 0 0 1 .177 0v.26c0 .05-.04.089-.09.089M50.77 7.674a.088.088 0 0 1-.088-.089v-.26a.088.088 0 0 1 .177 0v.26c0 .05-.04.089-.089.089M50.497 7.674a.088.088 0 0 1-.089-.089v-.26a.088.088 0 0 1 .177 0v.26c0 .05-.04.089-.088.089M50.223 7.674a.088.088 0 0 1-.089-.089v-.26c0-.049.04-.088.089-.088.048 0 .088.04.088.088v.26c0 .05-.04.089-.088.089M49.949 7.674a.088.088 0 0 1-.088-.089v-.26a.088.088 0 0 1 .177 0v.26c0 .05-.04.089-.09.089M52.521 19.39h-2.044c-.04 0-.07-.04-.07-.088 0-.05.03-.089.07-.089h2.044c.039 0 .07.04.07.089 0 .049-.031.088-.07.088M52.521 19.745h-2.044c-.04 0-.07-.04-.07-.088 0-.048.03-.088.07-.088h2.044c.039 0 .07.04.07.088 0 .049-.031.088-.07.088M67.43 11.564h-1.429c-.038 0-.07-.04-.07-.089 0-.048.032-.088.07-.088h1.43c.038 0 .07.04.07.088 0 .05-.032.089-.07.089M67.43 11.924h-1.429c-.038 0-.07-.04-.07-.089 0-.048.032-.088.07-.088h1.43c.038 0 .07.04.07.088 0 .05-.032.089-.07.089M67.43 12.28h-1.429c-.038 0-.07-.04-.07-.089 0-.048.032-.088.07-.088h1.43c.038 0 .07.04.07.088 0 .05-.032.088-.07.088M67.43 12.635h-1.429c-.038 0-.07-.04-.07-.088 0-.049.032-.089.07-.089h1.43c.038 0 .07.04.07.089 0 .048-.032.088-.07.088M67.43 12.99h-1.429c-.038 0-.07-.039-.07-.088 0-.048.032-.088.07-.088h1.43c.038 0 .07.04.07.088 0 .05-.032.088-.07.088M67.43 13.346h-1.429c-.038 0-.07-.039-.07-.088 0-.049.032-.088.07-.088h1.43c.038 0 .07.04.07.088 0 .049-.032.088-.07.088M67.43 13.702h-1.429c-.038 0-.07-.04-.07-.089 0-.048.032-.088.07-.088h1.43c.038 0 .07.04.07.088 0 .05-.032.089-.07.089M67.43 14.057h-1.429c-.038 0-.07-.039-.07-.088 0-.048.032-.088.07-.088h1.43c.038 0 .07.04.07.088 0 .049-.032.088-.07.088M67.43 14.413h-1.429c-.038 0-.07-.04-.07-.088 0-.049.032-.088.07-.088h1.43c.038 0 .07.04.07.088 0 .049-.032.088-.07.088M67.43 14.768h-1.429c-.038 0-.07-.04-.07-.087 0-.05.032-.089.07-.089h1.43c.038 0 .07.04.07.089 0 .048-.032.087-.07.087M67.43 15.124h-1.429c-.038 0-.07-.04-.07-.088 0-.049.032-.088.07-.088h1.43c.038 0 .07.04.07.088 0 .049-.032.088-.07.088M67.43 15.48h-1.429c-.038 0-.07-.04-.07-.088 0-.049.032-.089.07-.089h1.43c.038 0 .07.04.07.09 0 .048-.032.087-.07.087M67.43 15.835h-1.429c-.038 0-.07-.04-.07-.088 0-.048.032-.088.07-.088h1.43c.038 0 .07.04.07.088 0 .049-.032.088-.07.088M67.43 16.191h-1.429c-.038 0-.07-.04-.07-.088 0-.049.032-.088.07-.088h1.43c.038 0 .07.04.07.088 0 .049-.032.088-.07.088M67.43 16.547h-1.429c-.038 0-.07-.04-.07-.088 0-.049.032-.089.07-.089h1.43c.038 0 .07.04.07.089 0 .048-.032.088-.07.088M67.43 16.902h-1.429c-.038 0-.07-.04-.07-.088 0-.049.032-.088.07-.088h1.43c.038 0 .07.04.07.088 0 .049-.032.088-.07.088M67.43 17.258h-1.429c-.038 0-.07-.04-.07-.088 0-.049.032-.088.07-.088h1.43c.038 0 .07.039.07.088 0 .049-.032.088-.07.088M67.43 17.613h-1.429c-.038 0-.07-.039-.07-.088 0-.049.032-.088.07-.088h1.43c.038 0 .07.04.07.088 0 .049-.032.088-.07.088M67.43 17.97h-1.429c-.038 0-.07-.04-.07-.09 0-.048.032-.087.07-.087h1.43c.038 0 .07.04.07.088 0 .049-.032.088-.07.088M67.43 18.325h-1.429c-.038 0-.07-.04-.07-.088 0-.049.032-.088.07-.088h1.43c.038 0 .07.04.07.088 0 .049-.032.088-.07.088M67.43 18.68h-1.429c-.038 0-.07-.039-.07-.088 0-.048.032-.088.07-.088h1.43c.038 0 .07.04.07.088 0 .05-.032.089-.07.089M67.43 19.036h-1.429c-.038 0-.07-.04-.07-.088 0-.049.032-.088.07-.088h1.43c.038 0 .07.04.07.088 0 .049-.032.088-.07.088M67.43 19.392h-1.429c-.038 0-.07-.04-.07-.088 0-.049.032-.089.07-.089h1.43c.038 0 .07.04.07.089 0 .048-.032.088-.07.088M67.43 19.748h-1.429c-.038 0-.07-.04-.07-.088 0-.05.032-.089.07-.089h1.43c.038 0 .07.04.07.089 0 .049-.032.088-.07.088M67.43 20.103h-1.429c-.038 0-.07-.04-.07-.088 0-.049.032-.089.07-.089h1.43c.038 0 .07.04.07.089 0 .048-.032.088-.07.088M67.43 20.459h-1.429c-.038 0-.07-.04-.07-.089 0-.048.032-.088.07-.088h1.43c.038 0 .07.04.07.088 0 .05-.032.089-.07.089M67.43 20.814h-1.429c-.038 0-.07-.04-.07-.088 0-.048.032-.088.07-.088h1.43c.038 0 .07.04.07.088 0 .049-.032.088-.07.088M67.43 21.17h-1.429c-.038 0-.07-.039-.07-.087 0-.049.032-.089.07-.089h1.43c.038 0 .07.04.07.089 0 .048-.032.088-.07.088M67.43 21.526h-1.429c-.038 0-.07-.04-.07-.088 0-.049.032-.089.07-.089h1.43c.038 0 .07.04.07.089 0 .048-.032.088-.07.088M67.43 21.881h-1.429c-.038 0-.07-.039-.07-.088 0-.048.032-.088.07-.088h1.43c.038 0 .07.04.07.088 0 .05-.032.088-.07.088M67.43 22.237h-1.429c-.038 0-.07-.04-.07-.088 0-.05.032-.088.07-.088h1.43c.038 0 .07.039.07.088 0 .049-.032.088-.07.088M67.43 22.593h-1.429c-.038 0-.07-.04-.07-.089 0-.048.032-.088.07-.088h1.43c.038 0 .07.04.07.088 0 .05-.032.089-.07.089M67.43 22.948h-1.429c-.038 0-.07-.04-.07-.088 0-.048.032-.088.07-.088h1.43c.038 0 .07.04.07.088 0 .049-.032.088-.07.088M67.43 23.303h-1.429c-.038 0-.07-.039-.07-.088 0-.048.032-.088.07-.088h1.43c.038 0 .07.04.07.088 0 .049-.032.088-.07.088M67.43 23.659h-1.429c-.038 0-.07-.04-.07-.088 0-.049.032-.088.07-.088h1.43c.038 0 .07.04.07.088 0 .049-.032.088-.07.088M67.43 24.016h-1.429c-.038 0-.07-.04-.07-.089 0-.048.032-.088.07-.088h1.43c.038 0 .07.04.07.088 0 .05-.032.089-.07.089M67.43 24.37h-1.429c-.038 0-.07-.04-.07-.088 0-.048.032-.088.07-.088h1.43c.038 0 .07.04.07.088 0 .049-.032.088-.07.088M67.43 24.727h-1.429c-.038 0-.07-.04-.07-.089 0-.048.032-.088.07-.088h1.43c.038 0 .07.04.07.088 0 .05-.032.089-.07.089M67.43 25.081h-1.429c-.038 0-.07-.039-.07-.088 0-.048.032-.088.07-.088h1.43c.038 0 .07.04.07.088 0 .049-.032.088-.07.088M57 19.161h-2.163c-.038 0-.07-.039-.07-.088 0-.049.032-.088.07-.088H57c.039 0 .07.04.07.088 0 .05-.031.088-.07.088M57 19.386h-2.163c-.038 0-.07-.04-.07-.089 0-.048.032-.088.07-.088H57c.039 0 .07.04.07.088 0 .05-.031.089-.07.089M57 19.607h-2.163c-.038 0-.07-.04-.07-.088 0-.049.032-.089.07-.089H57c.039 0 .07.04.07.089 0 .048-.031.088-.07.088M57 19.828h-2.163c-.038 0-.07-.04-.07-.088 0-.05.032-.089.07-.089H57c.039 0 .07.04.07.089 0 .049-.031.088-.07.088M57 20.05h-2.163c-.038 0-.07-.04-.07-.089 0-.048.032-.088.07-.088H57c.039 0 .07.04.07.088 0 .049-.031.088-.07.088M57 20.27h-2.163c-.038 0-.07-.04-.07-.088 0-.049.032-.088.07-.088H57c.039 0 .07.04.07.088 0 .049-.031.088-.07.088M57 20.491h-2.163c-.038 0-.07-.04-.07-.087 0-.05.032-.09.07-.09H57c.039 0 .07.04.07.09 0 .048-.031.087-.07.087M57 20.713h-2.163c-.038 0-.07-.04-.07-.089 0-.049.032-.088.07-.088H57c.039 0 .07.04.07.088 0 .05-.031.089-.07.089M57 20.934h-2.163c-.038 0-.07-.04-.07-.089 0-.048.032-.088.07-.088H57c.039 0 .07.04.07.088 0 .05-.031.089-.07.089M57 21.155h-2.163c-.038 0-.07-.04-.07-.088 0-.05.032-.089.07-.089H57c.039 0 .07.04.07.089 0 .049-.031.088-.07.088M57 21.376h-2.163c-.038 0-.07-.04-.07-.088 0-.05.032-.088.07-.088H57c.039 0 .07.039.07.088 0 .049-.031.088-.07.088M57 21.597h-2.163c-.038 0-.07-.04-.07-.088 0-.049.032-.088.07-.088H57c.039 0 .07.04.07.088 0 .049-.031.088-.07.088M57 21.818h-2.163c-.038 0-.07-.04-.07-.088 0-.048.032-.088.07-.088H57c.039 0 .07.04.07.088 0 .049-.031.088-.07.088M57 22.04h-2.163c-.038 0-.07-.04-.07-.089 0-.048.032-.088.07-.088H57c.039 0 .07.04.07.088 0 .049-.031.088-.07.088M57 22.261h-2.163c-.038 0-.07-.04-.07-.088 0-.049.032-.088.07-.088H57c.039 0 .07.04.07.088 0 .049-.031.088-.07.088M57 22.482h-2.163c-.038 0-.07-.04-.07-.089 0-.048.032-.088.07-.088H57c.039 0 .07.04.07.088 0 .05-.031.089-.07.089M57 22.703h-2.163c-.038 0-.07-.04-.07-.088 0-.049.032-.088.07-.088H57c.039 0 .07.04.07.088 0 .049-.031.088-.07.088M57 22.924h-2.163c-.038 0-.07-.039-.07-.088 0-.048.032-.088.07-.088H57c.039 0 .07.04.07.088 0 .049-.031.088-.07.088M57 23.146h-2.163c-.038 0-.07-.04-.07-.089 0-.048.032-.088.07-.088H57c.039 0 .07.04.07.088 0 .05-.031.089-.07.089M57 23.367h-2.163c-.038 0-.07-.04-.07-.088 0-.049.032-.089.07-.089H57c.039 0 .07.04.07.089 0 .048-.031.088-.07.088M57 23.588h-2.163c-.038 0-.07-.04-.07-.088 0-.048.032-.088.07-.088H57c.039 0 .07.04.07.088 0 .049-.031.088-.07.088M57 23.81h-2.163c-.038 0-.07-.04-.07-.09 0-.048.032-.087.07-.087H57c.039 0 .07.04.07.088 0 .049-.031.088-.07.088M57 24.03h-2.163c-.038 0-.07-.039-.07-.088 0-.048.032-.088.07-.088H57c.039 0 .07.04.07.088 0 .049-.031.088-.07.088M57 24.252h-2.163c-.038 0-.07-.04-.07-.088 0-.05.032-.089.07-.089H57c.039 0 .07.04.07.089 0 .048-.031.088-.07.088M57 24.473h-2.163c-.038 0-.07-.04-.07-.088 0-.049.032-.089.07-.089H57c.039 0 .07.04.07.089 0 .048-.031.088-.07.088M57 24.694h-2.163c-.038 0-.07-.04-.07-.088 0-.049.032-.088.07-.088H57c.039 0 .07.039.07.088 0 .048-.031.088-.07.088M57 24.915h-2.163c-.038 0-.07-.04-.07-.088 0-.049.032-.088.07-.088H57c.039 0 .07.04.07.088 0 .049-.031.088-.07.088M57 25.136h-2.163c-.038 0-.07-.039-.07-.088 0-.048.032-.088.07-.088H57c.039 0 .07.04.07.088 0 .05-.031.088-.07.088M57 25.357h-2.163c-.038 0-.07-.04-.07-.088 0-.049.032-.088.07-.088H57c.039 0 .07.04.07.088 0 .049-.031.088-.07.088M57 25.578h-2.163c-.038 0-.07-.04-.07-.088 0-.049.032-.088.07-.088H57c.039 0 .07.04.07.088 0 .048-.031.088-.07.088M57 25.802h-2.163c-.038 0-.07-.04-.07-.09 0-.048.032-.088.07-.088H57c.039 0 .07.04.07.089 0 .049-.031.089-.07.089M57 26.024h-2.163c-.038 0-.07-.04-.07-.089 0-.05.032-.089.07-.089H57c.039 0 .07.04.07.09 0 .048-.031.088-.07.088M57 26.245h-2.163c-.038 0-.07-.04-.07-.088 0-.049.032-.088.07-.088H57c.039 0 .07.04.07.088 0 .049-.031.088-.07.088M57 26.465h-2.163c-.038 0-.07-.039-.07-.088 0-.048.032-.088.07-.088H57c.039 0 .07.04.07.088 0 .049-.031.088-.07.088M57 26.687h-2.163c-.038 0-.07-.039-.07-.088 0-.049.032-.088.07-.088H57c.039 0 .07.04.07.088 0 .049-.031.088-.07.088M57 26.908h-2.163c-.038 0-.07-.04-.07-.089 0-.048.032-.088.07-.088H57c.039 0 .07.04.07.088 0 .05-.031.089-.07.089M57 27.13h-2.163c-.038 0-.07-.04-.07-.089 0-.048.032-.088.07-.088H57c.039 0 .07.04.07.088 0 .049-.031.088-.07.088M57 27.351h-2.163c-.038 0-.07-.04-.07-.088 0-.049.032-.088.07-.088H57c.039 0 .07.04.07.088 0 .049-.031.088-.07.088M57 27.572h-2.163c-.038 0-.07-.04-.07-.088 0-.049.032-.089.07-.089H57c.039 0 .07.04.07.089 0 .048-.031.088-.07.088M48.877 14.114h-.43a.07.07 0 0 1-.07-.07v-.3h-.302a.07.07 0 0 1-.07-.07v-.655h-.393a.07.07 0 0 1-.07-.07v-.373h-.076v.373a.07.07 0 0 1-.07.07h-.928a.07.07 0 0 1-.07-.07v-.28h-.045v.28a.07.07 0 0 1-.07.07h-.332v.656a.07.07 0 0 1-.02.05l-.227.225v1.367l-.14-.062v-1.334a.07.07 0 0 1 .02-.05l.227-.225v-.697a.07.07 0 0 1 .07-.07h.332v-.28a.07.07 0 0 1 .07-.07h.185a.07.07 0 0 1 .07.07v.28h.787v-.373a.07.07 0 0 1 .071-.07h.216a.07.07 0 0 1 .07.07v.374h.393a.07.07 0 0 1 .07.07v.655h.302a.07.07 0 0 1 .07.07v.299h.319l.041.14zM10.45 6.66a.07.07 0 0 1-.071-.07v-.886l-1.262-.598a.07.07 0 0 1-.04-.063V3.977h-.32v1.101a.07.07 0 0 1-.038.063l-1.163.586a.07.07 0 0 1-.095-.03.07.07 0 0 1 .031-.095l1.125-.567V3.907a.07.07 0 0 1 .07-.07h.46a.07.07 0 0 1 .07.07v1.092l1.263.598a.07.07 0 0 1 .04.062v.93a.07.07 0 0 1-.07.07" fill="#FEFEFE"/><path d="M12.95 8.408a.07.07 0 0 1-.07-.06l-.425-2.097-.226-.048v.307a.07.07 0 0 1-.07.07h-.3a.07.07 0 0 1-.07-.07V4.422H9.947v.46a.07.07 0 1 1-.14 0v-.53a.07.07 0 0 1 .07-.07h1.982a.07.07 0 0 1 .07.07V6.44h.16v-.324c0-.02.01-.04.026-.054a.07.07 0 0 1 .058-.014l.36.077a.07.07 0 0 1 .054.058l.3 1.644.02-1.991A.07.07 0 0 1 13 5.77l.728.253-.005-1.97a.07.07 0 0 1 .07-.07h2.167a.07.07 0 0 1 .07.07v1.883a.07.07 0 0 1-.07.07.07.07 0 0 1-.07-.07V4.123h-2.027l.005.528v1.472a.07.07 0 0 1-.093.066l-.728-.254-.027 2.404a.07.07 0 0 1-.065.07h-.005M16.42 13.612a.07.07 0 0 1-.07-.066l-.088-1.732a.071.071 0 0 1 .019-.052.07.07 0 0 1 .051-.022h.293l.02-.147-.354-.255a.07.07 0 0 1-.029-.057V6.875a.07.07 0 0 1 .14 0v4.37l.36.26a.07.07 0 0 1 .029.066l-.036.249a.07.07 0 0 1-.07.06h-.278l.083 1.658a.07.07 0 0 1-.066.074h-.004M8.966 3.884c-.048 0-.088-.031-.088-.07V1.672c0-.039.04-.07.088-.07.049 0 .089.031.089.07v2.142c0 .039-.04.07-.089.07M6.141 9.214a.07.07 0 0 1-.07-.07v-.265l-.567-.25-.672.286v.229a.07.07 0 0 1-.14 0v-.275a.07.07 0 0 1 .042-.064l.743-.317a.07.07 0 0 1 .056 0l.637.282a.07.07 0 0 1 .041.064v.31a.07.07 0 0 1-.07.07" fill="#FEFEFE"/><path d="M4.444 9.214h2.264a.07.07 0 0 0 .049-.02.069.069 0 0 0 .02-.05l-.003-3.302.325 1.483a.07.07 0 0 0 .068.055H7.7l.14.183a.071.071 0 0 0 .057.028h.36a.07.07 0 0 0 .048-.02l.195-.19h.198l.16.185a.07.07 0 0 0 .052.025h.45c.02 0 .038-.008.052-.022l.176-.189h.548a.07.07 0 0 0 .07-.07v-.125h1.657v11.788c0 .038.03.07.07.07l.07-.14V7.115a.07.07 0 0 0-.07-.07h-1.797a.07.07 0 0 0-.07.07v.125h-.508a.069.069 0 0 0-.051.023l-.178.188h-.386l-.159-.186a.07.07 0 0 0-.053-.025h-.259a.07.07 0 0 0-.05.02l-.195.191h-.296l-.14-.183a.072.072 0 0 0-.057-.028h-.51l-.452-2.064a.07.07 0 0 0-.139.015l.004 3.883H4.4a.069.069 0 0 0-.062.039M13.313 11.09a.07.07 0 0 1-.07-.07V9.072a.07.07 0 0 1 .028-.056l.285.185a.072.072 0 0 1 .042-.014h1.443a.07.07 0 0 1 0 .14h-1.42l-.257-.13.02 1.823a.07.07 0 0 1-.071.07" fill="#FEFEFE"/><path d="M6.722 20.845c-.049 0-.089-.031-.089-.07V9.445c0-.039.04-.07.089-.07.048 0 .088.031.088.07v11.33c0 .039-.04.07-.088.07" fill="#FEFEFE"/><path d="M5.08 21.287h-.51a.07.07 0 0 1-.07-.07V9.446a.07.07 0 0 1 .14 0v11.703h.394l.353-.832a.07.07 0 0 1 .064-.043h1.252a.07.07 0 0 1 .07.07.07.07 0 0 1-.07.07H5.498l-.352.832a.07.07 0 0 1-.065.042M1.718 22.815a.07.07 0 0 1-.07-.07v-10.57a.07.07 0 0 1 .069-.07l.384-.009-.129-.3a.07.07 0 0 1 .064-.097h1.839a.07.07 0 0 1 0 .14H2.143l.128.297a.07.07 0 0 1-.006.066.072.072 0 0 1-.057.032l-.42.01v10.501a.07.07 0 0 1-.07.07M13.218 15.773a.07.07 0 0 1-.07-.07v-4.27a.07.07 0 0 1 .07-.07h2.658a.07.07 0 0 1 .07.07.07.07 0 0 1-.07.07h-2.588v4.2a.07.07 0 0 1-.07.07M1.548 24.621a.07.07 0 0 1-.07-.07v-1.535a.07.07 0 0 1 .07-.07h3.596a.07.07 0 0 1 .07.07v.64a.07.07 0 0 1-.07.07.07.07 0 0 1-.07-.07v-.57H1.62v1.466a.07.07 0 0 1-.07.07M.089 16.565c.048 0 .088.031.088.07V27.94c0 .038-.04.07-.088.07-.05 0-.089-.032-.089-.07V16.705" fill="#FEFEFE"/><mask id="d" fill="#fff"><use xlink:href="#c"/></mask><path fill="#FEFEFE" mask="url(#d)" d="M6.356 27.899h.35v-6.494h-.35zM13.51 6.299h-.096a.088.088 0 0 1 0-.176h.096a.088.088 0 1 1 0 .176M13.51 6.64h-.096a.088.088 0 0 1 0-.176h.096a.088.088 0 0 1 0 .176M13.51 6.981h-.096a.088.088 0 0 1 0-.176h.096a.088.088 0 0 1 0 .176M13.51 7.322h-.096a.088.088 0 0 1 0-.176h.096a.088.088 0 0 1 0 .176M13.51 7.663h-.096a.088.088 0 0 1 0-.176h.096a.088.088 0 0 1 0 .176M13.51 8.004h-.096a.088.088 0 0 1 0-.176h.096a.088.088 0 0 1 0 .176M13.51 8.345h-.096a.088.088 0 0 1 0-.176h.096a.088.088 0 0 1 0 .176M13.51 8.686h-.096a.088.088 0 0 1 0-.176h.096a.088.088 0 0 1 0 .176M13.51 9.027h-.096a.088.088 0 1 1 0-.177h.096c.049 0 .088.04.088.089 0 .048-.04.088-.088.088M15.894 11.545c-.048 0-.088-.036-.088-.08v-.294c0-.043.04-.079.088-.079.049 0 .089.036.089.08v.294c0 .043-.04.079-.089.079M15.64 11.545c-.049 0-.089-.036-.089-.08v-.294c0-.043.04-.079.089-.079.048 0 .088.036.088.08v.294c0 .043-.04.079-.088.079M15.388 11.545c-.049 0-.089-.036-.089-.08v-.294c0-.043.04-.079.089-.079.049 0 .088.036.088.08v.294c0 .043-.04.079-.088.079M15.136 11.545c-.049 0-.088-.036-.088-.08v-.294c0-.043.04-.079.088-.079.048 0 .088.036.088.08v.294c0 .043-.04.079-.088.079M14.884 11.545c-.049 0-.088-.036-.088-.08v-.294c0-.043.04-.079.088-.079.049 0 .089.036.089.08v.294c0 .043-.04.079-.089.079M14.633 11.545c-.049 0-.089-.036-.089-.08v-.294c0-.043.04-.079.089-.079.048 0 .088.036.088.08v.294c0 .043-.04.079-.088.079M14.38 11.545c-.048 0-.088-.036-.088-.08v-.294c0-.043.04-.079.089-.079.048 0 .088.036.088.08v.294c0 .043-.04.079-.088.079M14.129 11.545c-.049 0-.089-.036-.089-.08v-.294c0-.043.04-.079.089-.079.048 0 .088.036.088.08v.294c0 .043-.04.079-.088.079M13.877 11.545c-.049 0-.088-.036-.088-.08v-.294c0-.043.04-.079.088-.079.049 0 .088.036.088.08v.294c0 .043-.04.079-.088.079M13.625 11.545c-.049 0-.088-.036-.088-.08v-.294c0-.043.04-.079.088-.079.049 0 .088.036.088.08v.294c0 .043-.04.079-.088.079M12.564 10.447h-.156a.088.088 0 0 1-.088-.088c0-.048.04-.088.088-.088h.156a.088.088 0 0 1 0 .176M12.564 10.9h-.156a.088.088 0 0 1-.088-.088c0-.049.04-.088.088-.088h.156a.088.088 0 0 1 0 .176M12.564 11.347h-.156a.088.088 0 0 1-.088-.088c0-.048.04-.088.088-.088h.156a.088.088 0 1 1 0 .176M12.564 11.795h-.156a.088.088 0 0 1-.088-.088c0-.049.04-.088.088-.088h.156a.088.088 0 1 1 0 .176M12.564 12.242h-.156a.088.088 0 0 1-.088-.088c0-.049.04-.088.088-.088h.156a.088.088 0 0 1 0 .176M12.564 12.69h-.156a.088.088 0 0 1-.088-.089c0-.048.04-.088.088-.088h.156a.088.088 0 0 1 0 .176M12.564 13.137h-.156a.088.088 0 0 1-.088-.088c0-.049.04-.088.088-.088h.156a.088.088 0 0 1 0 .176M12.564 13.585h-.156a.088.088 0 0 1-.088-.088c0-.049.04-.089.088-.089h.156a.088.088 0 0 1 0 .177M12.564 14.032h-.156a.088.088 0 0 1-.088-.088c0-.05.04-.089.088-.089h.156a.088.088 0 0 1 0 .177M12.564 14.48h-.156a.088.088 0 0 1-.088-.088c0-.049.04-.089.088-.089h.156a.088.088 0 0 1 0 .177M12.564 14.927h-.156a.088.088 0 0 1-.088-.088c0-.05.04-.088.088-.088h.156a.088.088 0 0 1 0 .176M15.45 9.07a.088.088 0 0 1-.089-.089V8.9a.088.088 0 1 1 .177 0v.082c0 .049-.04.088-.088.088M15.211 9.07a.088.088 0 0 1-.088-.089V8.9a.088.088 0 0 1 .176 0v.082c0 .049-.04.088-.088.088M14.973 9.07a.088.088 0 0 1-.088-.089V8.9a.088.088 0 0 1 .177 0v.082c0 .049-.04.088-.089.088M14.736 9.07a.088.088 0 0 1-.089-.089V8.9a.088.088 0 1 1 .177 0v.082c0 .049-.04.088-.088.088M14.497 9.07a.088.088 0 0 1-.088-.089V8.9a.088.088 0 1 1 .176 0v.082c0 .049-.04.088-.088.088M14.26 9.07a.088.088 0 0 1-.09-.089V8.9a.088.088 0 0 1 .177 0v.082c0 .049-.04.088-.088.088M14.022 9.07a.088.088 0 0 1-.088-.089V8.9a.088.088 0 1 1 .176 0v.082c0 .049-.04.088-.088.088M13.783 9.07a.088.088 0 0 1-.088-.089V8.9a.088.088 0 1 1 .177 0v.082c0 .049-.04.088-.089.088M6.703 9.552H4.571c-.039 0-.07-.04-.07-.089 0-.048.031-.088.07-.088h2.132c.039 0 .07.04.07.088 0 .05-.031.089-.07.089M6.703 9.859H4.66c-.039 0-.07-.04-.07-.088 0-.049.031-.088.07-.088h2.044c.039 0 .07.04.07.088 0 .049-.031.088-.07.088M6.703 10.153H4.66c-.039 0-.07-.04-.07-.088 0-.048.031-.088.07-.088h2.044c.039 0 .07.04.07.088 0 .049-.031.088-.07.088M6.703 10.447H4.66c-.039 0-.07-.039-.07-.088 0-.048.031-.088.07-.088h2.044c.039 0 .07.04.07.088 0 .049-.031.088-.07.088M6.703 10.742H4.66c-.039 0-.07-.04-.07-.089 0-.048.031-.088.07-.088h2.044c.039 0 .07.04.07.088 0 .05-.031.089-.07.089M6.703 11.036H4.66c-.039 0-.07-.04-.07-.088 0-.049.031-.089.07-.089h2.044c.039 0 .07.04.07.089 0 .048-.031.088-.07.088M6.703 11.33H4.66c-.039 0-.07-.04-.07-.088 0-.049.031-.088.07-.088h2.044c.039 0 .07.04.07.088 0 .049-.031.088-.07.088M6.703 11.624H4.66c-.039 0-.07-.04-.07-.088 0-.048.031-.088.07-.088h2.044c.039 0 .07.04.07.088 0 .049-.031.088-.07.088M6.703 11.918H4.66c-.039 0-.07-.039-.07-.088 0-.049.031-.088.07-.088h2.044c.039 0 .07.04.07.088 0 .049-.031.088-.07.088M6.703 12.212H4.66c-.039 0-.07-.039-.07-.087 0-.05.031-.089.07-.089h2.044c.039 0 .07.04.07.089 0 .048-.031.087-.07.087M6.703 12.507H4.66c-.039 0-.07-.04-.07-.088 0-.05.031-.088.07-.088h2.044c.039 0 .07.039.07.088 0 .048-.031.088-.07.088M6.703 12.8H4.66c-.039 0-.07-.039-.07-.087 0-.049.031-.088.07-.088h2.044c.039 0 .07.04.07.088 0 .048-.031.088-.07.088M6.703 13.095H4.66c-.039 0-.07-.04-.07-.088 0-.05.031-.088.07-.088h2.044c.039 0 .07.039.07.088 0 .049-.031.088-.07.088M6.703 13.39H4.66c-.039 0-.07-.04-.07-.089 0-.048.031-.088.07-.088h2.044c.039 0 .07.04.07.088 0 .049-.031.088-.07.088M6.703 13.683H4.66c-.039 0-.07-.039-.07-.088 0-.048.031-.088.07-.088h2.044c.039 0 .07.04.07.088 0 .05-.031.088-.07.088M6.703 13.978H4.66c-.039 0-.07-.04-.07-.089 0-.048.031-.088.07-.088h2.044c.039 0 .07.04.07.088 0 .05-.031.089-.07.089M6.703 14.272H4.66c-.039 0-.07-.04-.07-.089 0-.048.031-.088.07-.088h2.044c.039 0 .07.04.07.088 0 .05-.031.089-.07.089M6.703 14.566H4.66c-.039 0-.07-.04-.07-.088 0-.049.031-.089.07-.089h2.044c.039 0 .07.04.07.089 0 .048-.031.088-.07.088M6.703 14.86H4.66c-.039 0-.07-.04-.07-.088 0-.049.031-.088.07-.088h2.044c.039 0 .07.04.07.088 0 .049-.031.088-.07.088M6.703 15.154H4.66c-.039 0-.07-.04-.07-.088 0-.049.031-.088.07-.088h2.044c.039 0 .07.04.07.088 0 .049-.031.088-.07.088M6.703 15.449H4.66c-.039 0-.07-.04-.07-.088 0-.05.031-.089.07-.089h2.044c.039 0 .07.04.07.089 0 .048-.031.088-.07.088M6.703 15.743H4.66c-.039 0-.07-.04-.07-.089 0-.048.031-.088.07-.088h2.044c.039 0 .07.04.07.088 0 .05-.031.089-.07.089M6.703 16.037H4.66c-.039 0-.07-.04-.07-.088 0-.049.031-.089.07-.089h2.044c.039 0 .07.04.07.089 0 .049-.031.088-.07.088M6.703 16.331H4.66c-.039 0-.07-.04-.07-.088 0-.048.031-.088.07-.088h2.044c.039 0 .07.04.07.088 0 .049-.031.088-.07.088M6.703 16.625H4.66c-.039 0-.07-.04-.07-.088 0-.049.031-.088.07-.088h2.044c.039 0 .07.04.07.088 0 .049-.031.088-.07.088M6.703 16.92H4.66c-.039 0-.07-.04-.07-.089 0-.048.031-.088.07-.088h2.044c.039 0 .07.04.07.088 0 .049-.031.088-.07.088M6.703 17.214H4.66c-.039 0-.07-.04-.07-.089 0-.048.031-.088.07-.088h2.044c.039 0 .07.04.07.088 0 .05-.031.089-.07.089M6.703 17.508H4.66c-.039 0-.07-.04-.07-.088 0-.049.031-.089.07-.089h2.044c.039 0 .07.04.07.089 0 .048-.031.088-.07.088M6.703 17.802H4.66c-.039 0-.07-.04-.07-.088 0-.05.031-.089.07-.089h2.044c.039 0 .07.04.07.089 0 .048-.031.088-.07.088M6.703 18.096H4.66c-.039 0-.07-.04-.07-.088 0-.049.031-.088.07-.088h2.044c.039 0 .07.04.07.088 0 .048-.031.088-.07.088M6.703 18.39H4.66c-.039 0-.07-.04-.07-.088 0-.048.031-.088.07-.088h2.044c.039 0 .07.04.07.088 0 .049-.031.088-.07.088M6.703 18.684H4.66c-.039 0-.07-.04-.07-.088 0-.049.031-.088.07-.088h2.044c.039 0 .07.04.07.088 0 .049-.031.088-.07.088M6.703 18.978H4.66c-.039 0-.07-.04-.07-.087 0-.05.031-.089.07-.089h2.044c.039 0 .07.04.07.089 0 .048-.031.087-.07.087M6.703 19.273H4.66c-.039 0-.07-.04-.07-.088 0-.05.031-.088.07-.088h2.044c.039 0 .07.039.07.088 0 .048-.031.088-.07.088M6.703 19.567H4.66c-.039 0-.07-.04-.07-.088 0-.049.031-.088.07-.088h2.044c.039 0 .07.039.07.088 0 .049-.031.088-.07.088M6.703 19.861H4.66c-.039 0-.07-.04-.07-.088 0-.049.031-.088.07-.088h2.044c.039 0 .07.04.07.088 0 .049-.031.088-.07.088M6.703 20.155H4.66c-.039 0-.07-.04-.07-.088 0-.048.031-.088.07-.088h2.044c.039 0 .07.04.07.088 0 .049-.031.088-.07.088M6.703 20.45H4.66c-.039 0-.07-.04-.07-.089 0-.048.031-.088.07-.088h2.044c.039 0 .07.04.07.088 0 .05-.031.088-.07.088M5.32 20.744h-.661c-.039 0-.07-.04-.07-.088 0-.049.031-.088.07-.088h.66c.039 0 .07.04.07.088 0 .049-.031.088-.07.088M5.175 21.05H4.66c-.039 0-.07-.04-.07-.089 0-.048.031-.088.07-.088h.516c.039 0 .07.04.07.088 0 .05-.031.089-.07.089M1.177 16.532H.56c-.039 0-.07-.04-.07-.088 0-.05.031-.088.07-.088h.618c.039 0 .07.039.07.088 0 .049-.031.088-.07.088M1.177 16.806H.56c-.039 0-.07-.04-.07-.088 0-.049.031-.088.07-.088h.618c.039 0 .07.039.07.088 0 .048-.031.088-.07.088M1.177 17.08H.56c-.039 0-.07-.04-.07-.088 0-.049.031-.089.07-.089h.618c.039 0 .07.04.07.089 0 .048-.031.088-.07.088M1.177 17.354H.56c-.039 0-.07-.04-.07-.088 0-.049.031-.088.07-.088h.618c.039 0 .07.04.07.088 0 .049-.031.088-.07.088M1.177 17.628H.56c-.039 0-.07-.04-.07-.089 0-.048.031-.088.07-.088h.618c.039 0 .07.04.07.088 0 .05-.031.089-.07.089M1.177 17.902H.56c-.039 0-.07-.04-.07-.088 0-.049.031-.088.07-.088h.618c.039 0 .07.04.07.088 0 .049-.031.088-.07.088M1.177 18.176H.56c-.039 0-.07-.04-.07-.088 0-.049.031-.088.07-.088h.618c.039 0 .07.04.07.088 0 .049-.031.088-.07.088M1.177 18.45H.56c-.039 0-.07-.04-.07-.088 0-.048.031-.088.07-.088h.618c.039 0 .07.04.07.088 0 .049-.031.088-.07.088M1.177 18.724H.56c-.039 0-.07-.04-.07-.088 0-.049.031-.089.07-.089h.618c.039 0 .07.04.07.089 0 .049-.031.088-.07.088M1.177 18.998H.56c-.039 0-.07-.04-.07-.088 0-.049.031-.088.07-.088h.618c.039 0 .07.04.07.088 0 .049-.031.088-.07.088M1.177 19.273H.56c-.039 0-.07-.04-.07-.088 0-.05.031-.088.07-.088h.618c.039 0 .07.039.07.088 0 .048-.031.088-.07.088M1.177 19.547H.56c-.039 0-.07-.04-.07-.088 0-.049.031-.088.07-.088h.618c.039 0 .07.039.07.088 0 .049-.031.088-.07.088M1.177 19.82H.56c-.039 0-.07-.04-.07-.088 0-.048.031-.088.07-.088h.618c.039 0 .07.04.07.088 0 .049-.031.088-.07.088M1.177 20.095H.56c-.039 0-.07-.04-.07-.088 0-.049.031-.089.07-.089h.618c.039 0 .07.04.07.089 0 .048-.031.088-.07.088M1.177 20.368H.56c-.039 0-.07-.039-.07-.088 0-.048.031-.088.07-.088h.618c.039 0 .07.04.07.088 0 .05-.031.088-.07.088M1.177 20.643H.56c-.039 0-.07-.04-.07-.089 0-.048.031-.088.07-.088h.618c.039 0 .07.04.07.088 0 .05-.031.089-.07.089M1.177 20.916H.56c-.039 0-.07-.04-.07-.088 0-.049.031-.088.07-.088h.618c.039 0 .07.04.07.088 0 .049-.031.088-.07.088M1.177 21.19H.56c-.039 0-.07-.039-.07-.087 0-.049.031-.089.07-.089h.618c.039 0 .07.04.07.089 0 .048-.031.088-.07.088M1.177 21.465H.56c-.039 0-.07-.04-.07-.089 0-.048.031-.088.07-.088h.618c.039 0 .07.04.07.088 0 .05-.031.089-.07.089M1.177 21.739H.56c-.039 0-.07-.04-.07-.088 0-.049.031-.088.07-.088h.618c.039 0 .07.04.07.088 0 .049-.031.088-.07.088M1.177 22.013H.56c-.039 0-.07-.04-.07-.088 0-.049.031-.088.07-.088h.618c.039 0 .07.04.07.088 0 .049-.031.088-.07.088M1.177 22.287H.56c-.039 0-.07-.04-.07-.089 0-.048.031-.088.07-.088h.618c.039 0 .07.04.07.088 0 .05-.031.089-.07.089M1.177 22.562H.56c-.039 0-.07-.04-.07-.089 0-.048.031-.088.07-.088h.618c.039 0 .07.04.07.088 0 .05-.031.089-.07.089M1.177 22.835H.56c-.039 0-.07-.04-.07-.088 0-.048.031-.088.07-.088h.618c.039 0 .07.04.07.088 0 .049-.031.088-.07.088M1.177 23.109H.56c-.039 0-.07-.04-.07-.088 0-.049.031-.089.07-.089h.618c.039 0 .07.04.07.089 0 .048-.031.088-.07.088M1.177 23.383H.56c-.039 0-.07-.04-.07-.088 0-.049.031-.088.07-.088h.618c.039 0 .07.04.07.088 0 .049-.031.088-.07.088M1.177 23.657H.56c-.039 0-.07-.039-.07-.087 0-.05.031-.09.07-.09h.618c.039 0 .07.04.07.09 0 .048-.031.087-.07.087M3.627 23.724c-.048 0-.088-.033-.088-.074v-.304c0-.04.04-.074.088-.074.049 0 .089.033.089.074v.304c0 .041-.04.074-.089.074M3.879 23.724c-.049 0-.089-.033-.089-.074v-.304c0-.04.04-.074.089-.074.049 0 .088.033.088.074v.304c0 .041-.04.074-.088.074M4.13 23.724c-.048 0-.088-.033-.088-.074v-.304c0-.04.04-.074.089-.074.048 0 .088.033.088.074v.304c0 .041-.04.074-.088.074M4.382 23.724c-.049 0-.088-.033-.088-.074v-.304c0-.04.04-.074.088-.074.049 0 .089.033.089.074v.304c0 .041-.04.074-.089.074M4.634 23.724c-.05 0-.089-.033-.089-.074v-.304c0-.04.04-.074.089-.074.048 0 .088.033.088.074v.304c0 .041-.04.074-.088.074M4.885 23.724c-.048 0-.088-.033-.088-.074v-.304c0-.04.04-.074.088-.074.049 0 .088.033.088.074v.304c0 .041-.04.074-.088.074M2.423 12.713h-.772c-.04 0-.07-.04-.07-.089 0-.048.03-.088.07-.088h.772c.039 0 .07.04.07.088 0 .05-.031.089-.07.089M2.423 12.97h-.772c-.04 0-.07-.04-.07-.088 0-.049.03-.089.07-.089h.772c.039 0 .07.04.07.089 0 .048-.031.088-.07.088M2.423 13.223h-.772c-.04 0-.07-.04-.07-.088 0-.048.03-.088.07-.088h.772c.039 0 .07.04.07.088 0 .049-.031.088-.07.088M2.423 13.477h-.772c-.04 0-.07-.039-.07-.088 0-.049.03-.088.07-.088h.772c.039 0 .07.04.07.088 0 .05-.031.088-.07.088M4.148 12.713H2.862c-.039 0-.07-.04-.07-.089 0-.048.031-.088.07-.088h1.286c.038 0 .07.04.07.088 0 .05-.032.089-.07.089M4.148 12.97H2.862c-.039 0-.07-.04-.07-.088 0-.049.031-.089.07-.089h1.286c.038 0 .07.04.07.089 0 .048-.032.088-.07.088M4.148 13.223H2.862c-.039 0-.07-.04-.07-.088 0-.048.031-.088.07-.088h1.286c.038 0 .07.04.07.088 0 .049-.032.088-.07.088M4.148 13.477H2.862c-.039 0-.07-.039-.07-.088 0-.049.031-.088.07-.088h1.286c.038 0 .07.04.07.088 0 .05-.032.088-.07.088M9.68 7.952h1.556v-.136H9.68v.136zm1.626.158H9.611c-.04 0-.07-.035-.07-.079v-.294c0-.044.03-.08.07-.08h1.695c.039 0 .07.036.07.08v.294c0 .044-.031.08-.07.08zM9.68 8.444h1.556v-.136H9.68v.136zm1.626.158H9.611c-.04 0-.07-.035-.07-.08v-.294c0-.044.03-.078.07-.078h1.695c.039 0 .07.034.07.078v.295c0 .044-.031.079-.07.079zM9.68 8.935h1.556v-.136H9.68v.136zm1.626.158H9.611c-.04 0-.07-.036-.07-.079V8.72c0-.044.03-.08.07-.08h1.695c.039 0 .07.036.07.08v.294c0 .043-.031.08-.07.08zM9.68 9.524h1.556v-.136H9.68v.136zm1.626.158H9.611c-.04 0-.07-.035-.07-.079V9.31c0-.044.03-.08.07-.08h1.695c.039 0 .07.036.07.08v.294c0 .044-.031.08-.07.08zM8.896 7.952h.286v-.136h-.286v.136zm.357.158h-.427c-.04 0-.07-.035-.07-.079v-.294c0-.044.03-.08.07-.08h.427c.039 0 .07.036.07.08v.294c0 .044-.031.08-.07.08zM8.896 8.444h.286v-.136h-.286v.136zm.357.158h-.427c-.04 0-.07-.035-.07-.08v-.294c0-.044.03-.078.07-.078h.427c.039 0 .07.034.07.078v.295c0 .044-.031.079-.07.079zM8.896 8.935h.286v-.136h-.286v.136zm.357.158h-.427c-.04 0-.07-.036-.07-.079V8.72c0-.044.03-.08.07-.08h.427c.039 0 .07.036.07.08v.294c0 .043-.031.08-.07.08zM8.896 9.524h.286v-.136h-.286v.136zm.357.158h-.427c-.04 0-.07-.035-.07-.079V9.31c0-.044.03-.08.07-.08h.427c.039 0 .07.036.07.08v.294c0 .044-.031.08-.07.08zM8.032 7.952h.286v-.136h-.286v.136zm.356.158h-.427c-.039 0-.07-.035-.07-.079v-.294c0-.044.031-.08.07-.08h.427c.039 0 .07.036.07.08v.294c0 .044-.031.08-.07.08zM8.032 8.444h.286v-.136h-.286v.136zm.356.158h-.427c-.039 0-.07-.035-.07-.08v-.294c0-.044.031-.078.07-.078h.427c.039 0 .07.034.07.078v.295c0 .044-.031.079-.07.079zM8.032 8.935h.286v-.136h-.286v.136zm.356.158h-.427c-.039 0-.07-.036-.07-.079V8.72c0-.044.031-.08.07-.08h.427c.039 0 .07.036.07.08v.294c0 .043-.031.08-.07.08zM8.032 9.524h.286v-.136h-.286v.136zm.356.158h-.427c-.039 0-.07-.035-.07-.079V9.31c0-.044.031-.08.07-.08h.427c.039 0 .07.036.07.08v.294c0 .044-.031.08-.07.08zM6.761 7.952h.525v-.136H6.76v.136zm.595.158h-.665c-.038 0-.07-.035-.07-.079v-.294c0-.044.032-.08.07-.08h.665c.039 0 .07.036.07.08v.294c0 .044-.031.08-.07.08zM6.761 8.444h.525v-.136H6.76v.136zm.595.158h-.665c-.038 0-.07-.035-.07-.08v-.294c0-.044.032-.078.07-.078h.665c.039 0 .07.034.07.078v.295c0 .044-.031.079-.07.079zM9.68 10.331h1.556v-.136H9.68v.136zm1.626.159H9.611c-.04 0-.07-.036-.07-.079v-.295c0-.043.03-.079.07-.079h1.695c.039 0 .07.036.07.08v.294c0 .043-.031.079-.07.079zM9.68 10.823h1.556v-.136H9.68v.136zm1.626.158H9.611c-.04 0-.07-.035-.07-.079v-.294c0-.044.03-.08.07-.08h1.695c.039 0 .07.036.07.08v.294c0 .044-.031.079-.07.079zM9.68 11.314h1.556v-.136H9.68v.136zm1.626.158H9.611c-.04 0-.07-.035-.07-.079V11.1c0-.044.03-.079.07-.079h1.695c.039 0 .07.035.07.08v.293c0 .044-.031.08-.07.08zM9.68 11.806h1.556v-.136H9.68v.136zm1.626.158H9.611c-.04 0-.07-.036-.07-.08v-.293c0-.044.03-.08.07-.08h1.695c.039 0 .07.036.07.08v.294c0 .043-.031.079-.07.079zM9.68 12.297h1.556v-.136H9.68v.136zm1.626.158H9.611c-.04 0-.07-.035-.07-.079v-.294c0-.044.03-.08.07-.08h1.695c.039 0 .07.036.07.08v.294c0 .044-.031.079-.07.079zM8.896 10.331h.286v-.136h-.286v.136zm.357.159h-.427c-.04 0-.07-.036-.07-.079v-.295c0-.043.03-.079.07-.079h.427c.039 0 .07.036.07.08v.294c0 .043-.031.079-.07.079zM8.896 10.823h.286v-.136h-.286v.136zm.357.158h-.427c-.04 0-.07-.035-.07-.079v-.294c0-.044.03-.08.07-.08h.427c.039 0 .07.036.07.08v.294c0 .044-.031.079-.07.079zM8.896 11.314h.286v-.136h-.286v.136zm.357.158h-.427c-.04 0-.07-.035-.07-.079V11.1c0-.044.03-.079.07-.079h.427c.039 0 .07.035.07.08v.293c0 .044-.031.08-.07.08zM8.896 11.806h.286v-.136h-.286v.136zm.357.158h-.427c-.04 0-.07-.036-.07-.08v-.293c0-.044.03-.08.07-.08h.427c.039 0 .07.036.07.08v.294c0 .043-.031.079-.07.079zM8.896 12.297h.286v-.136h-.286v.136zm.357.158h-.427c-.04 0-.07-.035-.07-.079v-.294c0-.044.03-.08.07-.08h.427c.039 0 .07.036.07.08v.294c0 .044-.031.079-.07.079zM8.032 10.331h.286v-.136h-.286v.136zm.356.159h-.427c-.039 0-.07-.036-.07-.079v-.295c0-.043.031-.079.07-.079h.427c.039 0 .07.036.07.08v.294c0 .043-.031.079-.07.079zM8.032 10.823h.286v-.136h-.286v.136zm.356.158h-.427c-.039 0-.07-.035-.07-.079v-.294c0-.044.031-.08.07-.08h.427c.039 0 .07.036.07.08v.294c0 .044-.031.079-.07.079zM8.032 11.314h.286v-.136h-.286v.136zm.356.158h-.427c-.039 0-.07-.035-.07-.079V11.1c0-.044.031-.079.07-.079h.427c.039 0 .07.035.07.08v.293c0 .044-.031.08-.07.08zM8.032 11.806h.286v-.136h-.286v.136zm.356.158h-.427c-.039 0-.07-.036-.07-.08v-.293c0-.044.031-.08.07-.08h.427c.039 0 .07.036.07.08v.294c0 .043-.031.079-.07.079zM8.032 12.297h.286v-.136h-.286v.136zm.356.158h-.427c-.039 0-.07-.035-.07-.079v-.294c0-.044.031-.08.07-.08h.427c.039 0 .07.036.07.08v.294c0 .044-.031.079-.07.079zM9.676 13.07h1.487v-.135H9.676v.136zm1.557.159H9.606c-.04 0-.07-.035-.07-.08v-.294c0-.043.03-.078.07-.078h1.627c.039 0 .07.035.07.078v.295c0 .044-.031.079-.07.079zM9.676 13.562h1.487v-.136H9.676v.136zm1.557.158H9.606c-.04 0-.07-.035-.07-.079v-.294c0-.044.03-.08.07-.08h1.627c.039 0 .07.036.07.08v.294c0 .044-.031.08-.07.08zM9.676 14.053h1.487v-.136H9.676v.136zm1.557.159H9.606c-.04 0-.07-.036-.07-.08v-.294c0-.043.03-.079.07-.079h1.627c.039 0 .07.036.07.08v.293c0 .044-.031.08-.07.08zM9.676 14.545h.265v-.136h-.265v.136zm.336.158h-.406c-.04 0-.07-.035-.07-.079v-.294c0-.044.03-.08.07-.08h.406c.038 0 .07.036.07.08v.294c0 .044-.032.08-.07.08zM8.854 13.07h.265v-.135h-.265v.136zm.336.159h-.406c-.04 0-.07-.035-.07-.08v-.294c0-.043.03-.078.07-.078h.406c.038 0 .07.035.07.078v.295c0 .044-.032.079-.07.079zM8.854 13.562h.265v-.136h-.265v.136zm.336.158h-.406c-.04 0-.07-.035-.07-.079v-.294c0-.044.03-.08.07-.08h.406c.038 0 .07.036.07.08v.294c0 .044-.032.08-.07.08zM8.854 14.053h.265v-.136h-.265v.136zm.336.159h-.406c-.04 0-.07-.036-.07-.08v-.294c0-.043.03-.079.07-.079h.406c.038 0 .07.036.07.08v.293c0 .044-.032.08-.07.08zM8.854 14.545h.265v-.136h-.265v.136zm.336.158h-.406c-.04 0-.07-.035-.07-.079v-.294c0-.044.03-.08.07-.08h.406c.038 0 .07.036.07.08v.294c0 .044-.032.08-.07.08zM8.854 15.036h.265v-.135h-.265v.135zm.336.159h-.406c-.04 0-.07-.036-.07-.08v-.294c0-.043.03-.079.07-.079h.406c.038 0 .07.036.07.079v.294c0 .044-.032.08-.07.08zM8.032 13.07h.265v-.135h-.265v.136zm.335.159h-.406c-.039 0-.07-.035-.07-.08v-.294c0-.043.031-.078.07-.078h.406c.04 0 .07.035.07.078v.295c0 .044-.03.079-.07.079zM8.032 13.562h.265v-.136h-.265v.136zm.335.158h-.406c-.039 0-.07-.035-.07-.079v-.294c0-.044.031-.08.07-.08h.406c.04 0 .07.036.07.08v.294c0 .044-.03.08-.07.08zM8.032 14.053h.265v-.136h-.265v.136zm.335.159h-.406c-.039 0-.07-.036-.07-.08v-.294c0-.043.031-.079.07-.079h.406c.04 0 .07.036.07.08v.293c0 .044-.03.08-.07.08zM8.032 14.545h.265v-.136h-.265v.136zm.335.158h-.406c-.039 0-.07-.035-.07-.079v-.294c0-.044.031-.08.07-.08h.406c.04 0 .07.036.07.08v.294c0 .044-.03.08-.07.08zM8.032 15.036h.265v-.135h-.265v.135zm.335.159h-.406c-.039 0-.07-.036-.07-.08v-.294c0-.043.031-.079.07-.079h.406c.04 0 .07.036.07.079v.294c0 .044-.03.08-.07.08zM8.854 16.172h.265v-.136h-.265v.136zm.336.158h-.406c-.04 0-.07-.035-.07-.079v-.294c0-.044.03-.08.07-.08h.406c.038 0 .07.036.07.08v.294c0 .044-.032.079-.07.079zM8.854 16.663h.265v-.136h-.265v.136zm.336.158h-.406c-.04 0-.07-.035-.07-.078v-.295c0-.043.03-.079.07-.079h.406c.038 0 .07.036.07.08v.294c0 .043-.032.078-.07.078zM8.854 17.155h.265v-.137h-.265v.137zm.336.158h-.406c-.04 0-.07-.035-.07-.08v-.293c0-.044.03-.08.07-.08h.406c.038 0 .07.036.07.08v.294c0 .044-.032.079-.07.079zM8.854 17.646h.265v-.136h-.265v.136zm.336.158h-.406c-.04 0-.07-.035-.07-.079v-.294c0-.044.03-.079.07-.079h.406c.038 0 .07.035.07.08v.293c0 .044-.032.08-.07.08zM8.854 18.138h.265v-.136h-.265v.136zm.336.158h-.406c-.04 0-.07-.036-.07-.08v-.294c0-.043.03-.078.07-.078h.406c.038 0 .07.035.07.078v.295c0 .043-.032.079-.07.079zM8.032 16.172h.265v-.136h-.265v.136zm.335.158h-.406c-.039 0-.07-.035-.07-.079v-.294c0-.044.031-.08.07-.08h.406c.04 0 .07.036.07.08v.294c0 .044-.03.079-.07.079zM8.032 16.663h.265v-.136h-.265v.136zm.335.158h-.406c-.039 0-.07-.035-.07-.078v-.295c0-.043.031-.079.07-.079h.406c.04 0 .07.036.07.08v.294c0 .043-.03.078-.07.078zM8.032 17.155h.265v-.137h-.265v.137zm.335.158h-.406c-.039 0-.07-.035-.07-.08v-.293c0-.044.031-.08.07-.08h.406c.04 0 .07.036.07.08v.294c0 .044-.03.079-.07.079zM8.032 17.646h.265v-.136h-.265v.136zm.335.158h-.406c-.039 0-.07-.035-.07-.079v-.294c0-.044.031-.079.07-.079h.406c.04 0 .07.035.07.08v.293c0 .044-.03.08-.07.08zM8.032 18.138h.265v-.136h-.265v.136zm.335.158h-.406c-.039 0-.07-.036-.07-.08v-.294c0-.043.031-.078.07-.078h.406c.04 0 .07.035.07.078v.295c0 .043-.03.079-.07.079zM8.854 19.273h.265v-.136h-.265v.136zm.336.159h-.406c-.04 0-.07-.036-.07-.08v-.294c0-.044.03-.079.07-.079h.406c.038 0 .07.035.07.08v.293c0 .044-.032.08-.07.08zM8.854 19.765h.265v-.136h-.265v.136zm.336.158h-.406c-.04 0-.07-.036-.07-.079v-.295c0-.043.03-.079.07-.079h.406c.038 0 .07.036.07.08v.294c0 .043-.032.079-.07.079zM8.854 20.256h.265v-.136h-.265v.136zm.336.158h-.406c-.04 0-.07-.035-.07-.079v-.294c0-.044.03-.08.07-.08h.406c.038 0 .07.036.07.08v.294c0 .044-.032.08-.07.08zM8.854 20.747h.265v-.136h-.265v.136zm.336.159h-.406c-.04 0-.07-.036-.07-.08v-.294c0-.043.03-.079.07-.079h.406c.038 0 .07.036.07.08v.294c0 .043-.032.079-.07.079zM8.854 21.239h.265v-.136h-.265v.136zm.336.158h-.406c-.04 0-.07-.036-.07-.08v-.293c0-.044.03-.08.07-.08h.406c.038 0 .07.036.07.08v.293c0 .044-.032.08-.07.08zM8.032 19.273h.265v-.136h-.265v.136zm.335.159h-.406c-.039 0-.07-.036-.07-.08v-.294c0-.044.031-.079.07-.079h.406c.04 0 .07.035.07.08v.293c0 .044-.03.08-.07.08zM8.032 19.765h.265v-.136h-.265v.136zm.335.158h-.406c-.039 0-.07-.036-.07-.079v-.295c0-.043.031-.079.07-.079h.406c.04 0 .07.036.07.08v.294c0 .043-.03.079-.07.079zM8.032 20.256h.265v-.136h-.265v.136zm.335.158h-.406c-.039 0-.07-.035-.07-.079v-.294c0-.044.031-.08.07-.08h.406c.04 0 .07.036.07.08v.294c0 .044-.03.08-.07.08zM8.032 20.747h.265v-.136h-.265v.136zm.335.159h-.406c-.039 0-.07-.036-.07-.08v-.294c0-.043.031-.079.07-.079h.406c.04 0 .07.036.07.08v.294c0 .043-.03.079-.07.079zM8.032 21.239h.265v-.136h-.265v.136zm.335.158h-.406c-.039 0-.07-.036-.07-.08v-.293c0-.044.031-.08.07-.08h.406c.04 0 .07.036.07.08v.293c0 .044-.03.08-.07.08zM8.854 22.374h.265v-.135h-.265v.135zm.336.159h-.406c-.04 0-.07-.036-.07-.08v-.294c0-.044.03-.079.07-.079h.406c.038 0 .07.035.07.08v.293c0 .044-.032.08-.07.08zM8.854 22.866h.265v-.136h-.265v.136zm.336.158h-.406c-.04 0-.07-.035-.07-.08v-.293c0-.044.03-.08.07-.08h.406c.038 0 .07.036.07.08v.294c0 .044-.032.079-.07.079zM8.854 23.357h.265v-.136h-.265v.136zm.336.159h-.406c-.04 0-.07-.036-.07-.08v-.294c0-.044.03-.079.07-.079h.406c.038 0 .07.035.07.08v.293c0 .044-.032.08-.07.08zM8.854 23.849h.265v-.136h-.265v.136zm.336.158h-.406c-.04 0-.07-.035-.07-.079v-.294c0-.044.03-.08.07-.08h.406c.038 0 .07.036.07.08v.294c0 .044-.032.079-.07.079zM8.854 24.34h.265v-.136h-.265v.136zm.336.158h-.406c-.04 0-.07-.035-.07-.079v-.294c0-.044.03-.079.07-.079h.406c.038 0 .07.035.07.079v.294c0 .044-.032.08-.07.08zM9.676 16.172h.265v-.136h-.265v.136zm.336.158h-.406c-.04 0-.07-.035-.07-.079v-.294c0-.044.03-.08.07-.08h.406c.038 0 .07.036.07.08v.294c0 .044-.032.079-.07.079zM9.676 16.663h.265v-.136h-.265v.136zm.336.158h-.406c-.04 0-.07-.035-.07-.078v-.295c0-.043.03-.079.07-.079h.406c.038 0 .07.036.07.08v.294c0 .043-.032.078-.07.078zM9.676 17.155h.265v-.137h-.265v.137zm.336.158h-.406c-.04 0-.07-.035-.07-.08v-.293c0-.044.03-.08.07-.08h.406c.038 0 .07.036.07.08v.294c0 .044-.032.079-.07.079zM9.676 17.646h.265v-.136h-.265v.136zm.336.158h-.406c-.04 0-.07-.035-.07-.079v-.294c0-.044.03-.079.07-.079h.406c.038 0 .07.035.07.08v.293c0 .044-.032.08-.07.08zM9.676 18.138h.265v-.136h-.265v.136zm.336.158h-.406c-.04 0-.07-.036-.07-.08v-.294c0-.043.03-.078.07-.078h.406c.038 0 .07.035.07.078v.295c0 .043-.032.079-.07.079zM9.676 19.273h.265v-.136h-.265v.136zm.336.159h-.406c-.04 0-.07-.036-.07-.08v-.294c0-.044.03-.079.07-.079h.406c.038 0 .07.035.07.08v.293c0 .044-.032.08-.07.08zM9.676 19.765h.265v-.136h-.265v.136zm.336.158h-.406c-.04 0-.07-.036-.07-.079v-.295c0-.043.03-.079.07-.079h.406c.038 0 .07.036.07.08v.294c0 .043-.032.079-.07.079zM9.676 20.256h.265v-.136h-.265v.136zm.336.158h-.406c-.04 0-.07-.035-.07-.079v-.294c0-.044.03-.08.07-.08h.406c.038 0 .07.036.07.08v.294c0 .044-.032.08-.07.08zM9.676 20.747h.265v-.136h-.265v.136zm.336.159h-.406c-.04 0-.07-.036-.07-.08v-.294c0-.043.03-.079.07-.079h.406c.038 0 .07.036.07.08v.294c0 .043-.032.079-.07.079zM9.676 21.239h.265v-.136h-.265v.136zm.336.158h-.406c-.04 0-.07-.036-.07-.08v-.293c0-.044.03-.08.07-.08h.406c.038 0 .07.036.07.08v.293c0 .044-.032.08-.07.08zM9.676 22.374h.265v-.135h-.265v.135zm.336.159h-.406c-.04 0-.07-.036-.07-.08v-.294c0-.044.03-.079.07-.079h.406c.038 0 .07.035.07.08v.293c0 .044-.032.08-.07.08zM9.676 22.866h.265v-.136h-.265v.136zm.336.158h-.406c-.04 0-.07-.035-.07-.08v-.293c0-.044.03-.08.07-.08h.406c.038 0 .07.036.07.08v.294c0 .044-.032.079-.07.079zM9.676 23.357h.265v-.136h-.265v.136zm.336.159h-.406c-.04 0-.07-.036-.07-.08v-.294c0-.044.03-.079.07-.079h.406c.038 0 .07.035.07.08v.293c0 .044-.032.08-.07.08zM9.676 23.849h.265v-.136h-.265v.136zm.336.158h-.406c-.04 0-.07-.035-.07-.079v-.294c0-.044.03-.08.07-.08h.406c.038 0 .07.036.07.08v.294c0 .044-.032.079-.07.079zM9.676 24.34h.265v-.136h-.265v.136zm.336.158h-.406c-.04 0-.07-.035-.07-.079v-.294c0-.044.03-.079.07-.079h.406c.038 0 .07.035.07.079v.294c0 .044-.032.08-.07.08zM9.676 25.487h.265v-.135h-.265v.135zm.336.159h-.406c-.04 0-.07-.036-.07-.08v-.294c0-.043.03-.079.07-.079h.406c.038 0 .07.036.07.08v.293c0 .044-.032.08-.07.08zM9.676 25.98h.265v-.137h-.265v.137zm.336.158h-.406c-.04 0-.07-.036-.07-.08v-.294c0-.043.03-.079.07-.079h.406c.038 0 .07.036.07.08v.294c0 .043-.032.079-.07.079zM9.676 26.473h.265v-.135h-.265v.135zm.336.158h-.406c-.04 0-.07-.035-.07-.079v-.294c0-.044.03-.08.07-.08h.406c.038 0 .07.036.07.08v.294c0 .044-.032.08-.07.08zM9.676 26.964h.265v-.136h-.265v.136zm.336.158h-.406c-.04 0-.07-.035-.07-.078v-.295c0-.044.03-.08.07-.08h.406c.038 0 .07.036.07.08v.295c0 .043-.032.078-.07.078zM9.676 27.455h.265v-.136h-.265v.136zm.336.159h-.406c-.04 0-.07-.036-.07-.08v-.293c0-.044.03-.08.07-.08h.406c.038 0 .07.036.07.08v.294c0 .043-.032.079-.07.079zM8.854 25.487h.265v-.135h-.265v.135zm.336.159h-.406c-.04 0-.07-.036-.07-.08v-.294c0-.043.03-.079.07-.079h.406c.038 0 .07.036.07.08v.293c0 .044-.032.08-.07.08zM8.854 25.98h.265v-.137h-.265v.137zm.336.158h-.406c-.04 0-.07-.036-.07-.08v-.294c0-.043.03-.079.07-.079h.406c.038 0 .07.036.07.08v.294c0 .043-.032.079-.07.079zM8.032 22.374h.265v-.135h-.265v.135zm.335.159h-.406c-.039 0-.07-.036-.07-.08v-.294c0-.044.031-.079.07-.079h.406c.04 0 .07.035.07.08v.293c0 .044-.03.08-.07.08zM8.032 22.866h.265v-.136h-.265v.136zm.335.158h-.406c-.039 0-.07-.035-.07-.08v-.293c0-.044.031-.08.07-.08h.406c.04 0 .07.036.07.08v.294c0 .044-.03.079-.07.079zM8.032 23.357h.265v-.136h-.265v.136zm.335.159h-.406c-.039 0-.07-.036-.07-.08v-.294c0-.044.031-.079.07-.079h.406c.04 0 .07.035.07.08v.293c0 .044-.03.08-.07.08zM2.867 14.14h.2V14h-.2v.14zm.27.157h-.34c-.039 0-.07-.036-.07-.079v-.296c0-.043.031-.078.07-.078h.34c.04 0 .07.035.07.078v.296c0 .043-.03.079-.07.079zM2.867 14.641h.2v-.14h-.2v.14zm.27.156h-.34c-.039 0-.07-.035-.07-.078v-.296c0-.043.031-.078.07-.078h.34c.04 0 .07.035.07.078v.296c0 .043-.03.078-.07.078zM3.59 14.14h.2V14h-.2v.14zm.27.157h-.34c-.039 0-.07-.036-.07-.079v-.296c0-.043.031-.078.07-.078h.34c.04 0 .071.035.071.078v.296c0 .043-.032.079-.07.079zM3.59 14.641h.2v-.14h-.2v.14zm.27.156h-.34c-.039 0-.07-.035-.07-.078v-.296c0-.043.031-.078.07-.078h.34c.04 0 .071.035.071.078v.296c0 .043-.032.078-.07.078zM3.63 15.142h.2v-.14h-.2v.14zm.27.156h-.34c-.039 0-.07-.035-.07-.078v-.296c0-.043.031-.078.07-.078h.34c.039 0 .07.035.07.078v.296c0 .043-.031.078-.07.078zM3.63 15.643h.2v-.14h-.2v.14zm.27.156h-.34c-.039 0-.07-.035-.07-.079v-.296c0-.043.031-.078.07-.078h.34c.039 0 .07.035.07.078v.296c0 .044-.031.079-.07.079zM3.63 16.143h.2v-.14h-.2v.14zm.27.156h-.34c-.039 0-.07-.034-.07-.077v-.297c0-.043.031-.078.07-.078h.34c.039 0 .07.035.07.078v.297c0 .043-.031.077-.07.077zM3.63 16.788h.2v-.14h-.2v.14zm.27.156h-.34c-.039 0-.07-.035-.07-.078v-.296c0-.043.031-.078.07-.078h.34c.039 0 .07.035.07.078v.296c0 .043-.031.078-.07.078zM3.63 17.289h.2v-.14h-.2v.14zm.27.156h-.34c-.039 0-.07-.035-.07-.078v-.296c0-.043.031-.078.07-.078h.34c.039 0 .07.035.07.078v.296c0 .043-.031.078-.07.078zM3.63 18.29h.2v-.14h-.2v.14zm.27.156h-.34c-.039 0-.07-.035-.07-.078v-.296c0-.043.031-.078.07-.078h.34c.039 0 .07.035.07.078v.296c0 .043-.031.078-.07.078zM3.63 18.79h.2v-.14h-.2v.14zm.27.157h-.34c-.039 0-.07-.035-.07-.078v-.296c0-.044.031-.078.07-.078h.34c.039 0 .07.034.07.078v.296c0 .043-.031.078-.07.078zM3.077 19.436h.2v-.14h-.2v.14zm.27.155h-.34c-.04 0-.07-.034-.07-.078v-.296c0-.043.03-.078.07-.078h.34c.039 0 .07.035.07.078v.296c0 .044-.031.078-.07.078zM3.077 19.937h.2v-.14h-.2v.14zm.27.156h-.34c-.04 0-.07-.035-.07-.079v-.296c0-.043.03-.078.07-.078h.34c.039 0 .07.035.07.078v.296c0 .044-.031.079-.07.079zM3.63 19.436h.2v-.14h-.2v.14zm.27.155h-.34c-.039 0-.07-.034-.07-.078v-.296c0-.043.031-.078.07-.078h.34c.039 0 .07.035.07.078v.296c0 .044-.031.078-.07.078zM3.63 19.937h.2v-.14h-.2v.14zm.27.156h-.34c-.039 0-.07-.035-.07-.079v-.296c0-.043.031-.078.07-.078h.34c.039 0 .07.035.07.078v.296c0 .044-.031.079-.07.079zM3.63 20.437h.2v-.14h-.2v.14zm.27.156h-.34c-.039 0-.07-.035-.07-.079v-.295c0-.043.031-.078.07-.078h.34c.039 0 .07.035.07.078v.295c0 .044-.031.08-.07.08zM3.63 20.938h.2v-.14h-.2v.14zm.27.156h-.34c-.039 0-.07-.035-.07-.078v-.296c0-.043.031-.078.07-.078h.34c.039 0 .07.035.07.078v.296c0 .043-.031.078-.07.078zM3.63 21.438h.2v-.14h-.2v.14zm.27.156h-.34c-.039 0-.07-.035-.07-.078v-.296c0-.043.031-.078.07-.078h.34c.039 0 .07.035.07.078v.296c0 .043-.031.078-.07.078zM2.107 14.14h.2V14h-.2v.14zm.27.157h-.34c-.039 0-.07-.036-.07-.079v-.296c0-.043.031-.078.07-.078h.34c.04 0 .071.035.071.078v.296c0 .043-.032.079-.07.079zM2.107 14.641h.2v-.14h-.2v.14zm.27.156h-.34c-.039 0-.07-.035-.07-.078v-.296c0-.043.031-.078.07-.078h.34c.04 0 .071.035.071.078v.296c0 .043-.032.078-.07.078zM2.316 19.436h.2v-.14h-.2v.14zm.271.155h-.34c-.04 0-.07-.034-.07-.078v-.296c0-.043.03-.078.07-.078h.34c.039 0 .07.035.07.078v.296c0 .044-.031.078-.07.078zM2.316 19.937h.2v-.14h-.2v.14zm.271.156h-.34c-.04 0-.07-.035-.07-.079v-.296c0-.043.03-.078.07-.078h.34c.039 0 .07.035.07.078v.296c0 .044-.031.079-.07.079zM2.336 26.836a.07.07 0 0 1-.07-.07v-1.714a.07.07 0 0 1 .07-.07h.899l.003-.539-.527-.267a.07.07 0 0 1-.038-.058l-.056-.77a.07.07 0 0 1 .07-.076h.662a.07.07 0 0 1 .07.07v.286a.07.07 0 1 1-.14 0v-.216h-.516l.048.657.53.269a.07.07 0 0 1 .038.063l-.004.651a.07.07 0 0 1-.07.07h-.898v1.644a.07.07 0 0 1-.07.07M1.548 23.963a.088.088 0 1 1 0 .176M1.546 24.516c.049 0 .089.04.089.088 0 .049-.04.089-.089.089M16.423 6.573h-1.595a.07.07 0 0 1-.07-.07v-.31h-.953a.07.07 0 0 1-.07-.07.07.07 0 0 1 .07-.07h1.023a.07.07 0 0 1 .07.07v.31h1.525a.07.07 0 1 1 0 .14M16.635 11.738h.3v-.656a.07.07 0 0 1 .07-.07h.394v-.373a.07.07 0 0 1 .07-.07h.216a.07.07 0 0 1 .07.07v.373h.788v-.281a.07.07 0 0 1 .07-.07h.186a.07.07 0 0 1 .07.07v.281h.331a.07.07 0 0 1 .07.07v.696l.227.226c.013.014.02.032.02.05v2.516l-.14-.026v-2.462l-.226-.225a.07.07 0 0 1-.02-.05v-.655h-.332a.07.07 0 0 1-.07-.07v-.28h-.046v.28a.07.07 0 0 1-.07.07h-.928a.07.07 0 0 1-.07-.07v-.373h-.075v.373a.07.07 0 0 1-.071.07h-.392v.656a.07.07 0 0 1-.071.07h-.301"/><path d="M18.563 12.298c.047-.001.085-.032.085-.07l.01-1.678c0-.039-.038-.07-.087-.07-.05 0-.09.03-.09.07l-.01 1.678c0 .038.04.07.088.07h.004M14.218 36.026l1.47-2.405h.548v4.017h-.779V35.4l-.968 1.578h-.542l-.969-1.578v2.238H12.2v-4.017h.548zM19.751 35.82v1.818h-.778V35.82l-1.384-2.197h.888l.888 1.411.882-1.411h.889zM24.847 36.83a.578.578 0 0 0 .536.32.587.587 0 0 0 .455-.223c.07-.092.11-.213.11-.454v-2.852h.576v2.812c0 .316-.046.517-.138.683-.196.344-.576.58-1.003.58-.468 0-.877-.241-1.05-.649l.514-.218zM30.07 37.15c.825 0 1.442-.648 1.442-1.52 0-.867-.617-1.52-1.442-1.52-.824 0-1.442.653-1.442 1.52 0 .872.618 1.52 1.442 1.52m0-3.586c1.142 0 2.019.895 2.019 2.066 0 1.17-.877 2.066-2.02 2.066-1.14 0-2.017-.896-2.017-2.066s.876-2.066 2.018-2.066M34.093 37.168c-.26-.281-.421-.655-.421-1.194v-2.352h.577v2.38c0 .38.092.615.253.793.202.224.502.355.843.355.34 0 .64-.131.842-.355.161-.178.253-.413.253-.792v-2.381h.577v2.352c0 .54-.162.913-.421 1.194a1.707 1.707 0 0 1-1.251.528c-.496 0-.946-.201-1.252-.528M40.244 35.2c.26 0 .392-.058.485-.15a.52.52 0 0 0 .15-.367.52.52 0 0 0-.15-.367c-.093-.092-.225-.15-.485-.15h-.807V35.2h.807zm-.807.545v1.893h-.577v-4.017h1.413c.369 0 .6.086.784.236.242.195.398.493.398.826 0 .333-.156.631-.398.826a.977.977 0 0 1-.473.213l1.448 1.916h-.698l-1.436-1.893h-.461zM43.99 34.689v2.95h-.576v-4.017h.404l2.422 2.949v-2.95h.576v4.017h-.403zM50.62 35.2v.545h-1.326v1.348h1.788v.545h-2.365v-4.017h2.307v.546h-1.73V35.2zM54.194 35.802v1.836h-.577v-1.836l-1.383-2.18h.646l1.026 1.612 1.026-1.613h.646z" fill="#FEFEFE" mask="url(#d)"/></g></svg>