<?xml version="1.0" encoding="utf-8"?>
<!-- Generator: Adobe Illustrator 20.0.0, SVG Export Plug-In . SVG Version: 6.00 Build 0)  -->
<svg version="1.1" id="Layer_1" xmlns="http://www.w3.org/2000/svg" xmlns:xlink="http://www.w3.org/1999/xlink" x="0px" y="0px"
	 viewBox="0 0 149.7 117.3" style="enable-background:new 0 0 149.7 117.3;" xml:space="preserve">
<style type="text/css">
	.st0{fill:#FFFFFF;}
	.st1{fill:#F74F3D;}
	.st2{fill:#64C497;}
</style>
<g>
	<path class="st0" d="M112.3,45.8c-0.3-1.9-0.9-3.8-1.9-5.6c-0.5-0.9-1-1.8-1.7-2.7l-1.9,8C108.7,45.8,110.5,45.9,112.3,45.8z"/>
	<path class="st0" d="M100.3,43c1.6,0.9,3.2,1.6,5,2.1l1.9-8C104.4,38.6,102.1,40.6,100.3,43z"/>
	<path class="st0" d="M104.8,36.6c-3.3,0-6.4,1-9,2.8c1,1,2,1.9,3.1,2.7C100.5,39.9,102.5,38.1,104.8,36.6z"/>
	<path class="st0" d="M112.5,47.5c-2,0.2-4,0-6-0.4l-1,4.2l6.7,1.6C112.6,51.1,112.7,49.3,112.5,47.5z"/>
	<path class="st0" d="M111.9,54.5l-6.7-1.6l-1,4.2c1.9,0.5,3.8,1.3,5.6,2.4C110.7,57.9,111.4,56.2,111.9,54.5z"/>
	<path class="st0" d="M104.9,46.7c-1.9-0.5-3.8-1.3-5.5-2.3c-0.9,1.5-1.7,3.2-2.2,4.9l6.7,1.6L104.9,46.7z"/>
	<path class="st0" d="M95.9,48.1c0.5-1.6,1.2-3.2,2.1-4.6c-1.3-0.9-2.4-1.9-3.5-3.1c-2.1,1.9-3.8,4.3-4.6,7.2l5.7,1.3
		C95.7,48.7,95.8,48.4,95.9,48.1z"/>
	<path class="st0" d="M114,45.6c1.3-0.2,2.7-0.6,4-1c-1.5-2.8-3.9-5.1-6.8-6.5c0.3,0.4,0.5,0.9,0.8,1.4
		C112.9,41.4,113.6,43.5,114,45.6z"/>
	<path class="st0" d="M96.5,56.3c2-0.2,4.1,0,6,0.4l1-4.2l-6.7-1.6C96.5,52.7,96.4,54.5,96.5,56.3z"/>
	<path class="st0" d="M114.2,47.3c0.2,2,0.1,4-0.3,6l5.7,1.3c0.5-2.9,0.2-5.9-0.9-8.5C117.2,46.6,115.7,47,114.2,47.3z"/>
	<path class="st0" d="M113.2,55.9c-0.5,1.6-1.2,3.1-2,4.5c1.2,0.9,2.4,1.9,3.5,3c2.1-1.9,3.8-4.3,4.6-7.2l-5.7-1.3
		C113.4,55.2,113.3,55.5,113.2,55.9z"/>
	<path class="st0" d="M95.2,50.5L95.2,50.5l-5.7-1.3c-0.5,2.9-0.2,5.9,0.9,8.5c1.5-0.6,3-0.9,4.5-1.2C94.7,54.5,94.8,52.5,95.2,50.5
		z"/>
	<path class="st0" d="M104.5,67.2c3.2,0,6.2-1,8.8-2.8c-0.9-1-2-1.9-3.1-2.7C108.7,63.9,106.8,65.7,104.5,67.2z"/>
	<path class="st0" d="M138.1,26.7L85.7,14.4c-1.7-0.4-3.5,0.7-3.9,2.4L64.2,91.8c-0.4,1.7,0.7,3.5,2.4,3.9L119,108
		c1.7,0.4,3.5-0.7,3.9-2.4l17.6-75.1C141,28.9,139.9,27.1,138.1,26.7z M117.6,89.7c-0.3,1.3-1.6,2.1-2.9,1.8l-35.2-8.3
		c-1.3-0.3-2.1-1.6-1.8-2.9c0.3-1.3,1.6-2.1,2.9-1.8l35.2,8.3C117.1,87.1,117.9,88.4,117.6,89.7z M121.1,55.7
		C121.1,55.7,121,55.7,121.1,55.7C121,55.7,121,55.8,121.1,55.7c0,0.1,0,0.1,0,0.1c-2.1,9-11.2,14.7-20.3,12.6l-0.1,0c0,0,0,0,0,0
		c0,0,0,0,0,0c-4.4-1-8.1-3.7-10.5-7.5c-2.4-3.8-3.1-8.4-2.1-12.7c0,0,0,0,0-0.1c0,0,0,0,0,0c0,0,0,0,0,0c2.1-9,11.2-14.7,20.3-12.6
		l0.2,0c4.4,1.1,8.1,3.7,10.4,7.5C121.3,46.8,122.1,51.3,121.1,55.7z"/>
	<path class="st0" d="M108.8,60.8c-1.6-0.9-3.3-1.7-5-2.1l-1.9,8.1C104.7,65.3,107.1,63.2,108.8,60.8z"/>
	<path class="st0" d="M95.1,58.2c-1.3,0.2-2.7,0.5-3.9,1c1.5,2.7,3.8,5,6.6,6.4c-0.2-0.4-0.4-0.7-0.6-1.1
		C96.1,62.4,95.4,60.3,95.1,58.2z"/>
	<path class="st0" d="M96.7,58c0.3,2,0.9,3.9,1.9,5.8c0.5,0.9,1,1.9,1.7,2.7l1.9-8.1C100.4,57.9,98.6,57.8,96.7,58z"/>
	<path class="st1" d="M138.9,23.6L86.4,11.2c-3.5-0.8-6.9,1.3-7.8,4.8L61,91.1c-0.8,3.5,1.3,6.9,4.8,7.8l52.4,12.3
		c3.5,0.8,6.9-1.3,7.8-4.8l17.6-75.1C144.5,27.9,142.3,24.4,138.9,23.6z M140.5,30.6l-17.6,75.1c-0.4,1.7-2.1,2.8-3.9,2.4L66.6,95.7
		c-1.7-0.4-2.8-2.1-2.4-3.9l17.6-75.1c0.4-1.7,2.1-2.8,3.9-2.4l52.4,12.3C139.9,27.1,141,28.9,140.5,30.6z"/>
	<path class="st1" d="M108.5,35.4l-0.2,0C99.3,33.3,90.2,39,88.1,48c0,0,0,0,0,0c0,0,0,0,0,0c0,0,0,0,0,0.1c-1,4.4-0.3,8.9,2.1,12.7
		c2.4,3.8,6.1,6.5,10.5,7.5c0,0,0,0,0,0c0,0,0,0,0,0l0.1,0c9.1,2.1,18.1-3.6,20.3-12.6c0,0,0,0,0,0c0,0,0,0,0,0c0,0,0,0,0-0.1
		c1-4.4,0.3-8.9-2.1-12.7C116.6,39.2,112.9,36.5,108.5,35.4z M118,44.6c-1.3,0.5-2.7,0.8-4,1c-0.4-2.1-1-4.2-2-6.2
		c-0.2-0.5-0.5-0.9-0.8-1.4C114.1,39.5,116.5,41.8,118,44.6z M97.2,49.3c0.5-1.7,1.2-3.4,2.2-4.9c1.7,1,3.6,1.8,5.5,2.3l-1,4.2
		L97.2,49.3z M103.6,52.5l-1,4.2c-2-0.4-4-0.5-6-0.4c-0.1-1.8,0-3.6,0.3-5.4L103.6,52.5z M105.2,52.9l6.7,1.6
		c-0.5,1.7-1.2,3.4-2.1,5c-1.7-1-3.6-1.8-5.6-2.4L105.2,52.9z M105.6,51.3l1-4.2c2,0.4,4,0.5,6,0.4c0.2,1.8,0.1,3.6-0.3,5.4
		L105.6,51.3z M108.8,37.5c0.6,0.9,1.2,1.8,1.7,2.7c0.9,1.8,1.5,3.7,1.9,5.6c-1.8,0.1-3.6,0-5.4-0.3L108.8,37.5z M107.2,37.1l-1.9,8
		c-1.7-0.5-3.4-1.2-5-2.1C102.1,40.6,104.4,38.6,107.2,37.1z M104.8,36.6c-2.3,1.5-4.3,3.3-5.9,5.5c-1.1-0.8-2.2-1.7-3.1-2.7
		C98.4,37.6,101.5,36.6,104.8,36.6z M94.5,40.4c1.1,1.2,2.3,2.2,3.5,3.1c-0.9,1.4-1.6,3-2.1,4.6c-0.1,0.3-0.2,0.6-0.3,0.9l-5.7-1.3
		C90.7,44.7,92.4,42.3,94.5,40.4z M89.5,49.2l5.7,1.3l0,0c-0.4,2-0.5,4-0.3,6c-1.5,0.2-3,0.6-4.5,1.2C89.4,55.1,89,52.1,89.5,49.2z
		 M91.1,59.2c1.3-0.5,2.6-0.8,3.9-1c0.4,2.2,1,4.3,2.1,6.3c0.2,0.4,0.4,0.7,0.6,1.1C94.9,64.2,92.6,61.9,91.1,59.2z M100.3,66.4
		c-0.6-0.9-1.2-1.8-1.7-2.7c-0.9-1.9-1.6-3.8-1.9-5.8c1.8-0.1,3.7,0,5.5,0.3L100.3,66.4z M101.9,66.8l1.9-8.1c1.8,0.5,3.4,1.2,5,2.1
		C107.1,63.2,104.7,65.3,101.9,66.8z M104.5,67.2c2.2-1.5,4.2-3.3,5.7-5.5c1.1,0.8,2.1,1.7,3.1,2.7
		C110.8,66.2,107.7,67.2,104.5,67.2z M114.6,63.4c-1.1-1.1-2.2-2.2-3.5-3c0.8-1.4,1.5-2.9,2-4.5c0.1-0.3,0.2-0.7,0.3-1l5.7,1.3
		C118.4,59.1,116.8,61.5,114.6,63.4z M119.6,54.6l-5.7-1.3c0.4-2,0.5-4,0.3-6c1.5-0.2,3-0.6,4.5-1.2
		C119.8,48.7,120.1,51.6,119.6,54.6z"/>
	<path class="st1" d="M115.8,86.8l-35.2-8.3c-1.3-0.3-2.6,0.5-2.9,1.8c-0.3,1.3,0.5,2.6,1.8,2.9l35.2,8.3c1.3,0.3,2.6-0.5,2.9-1.8
		C117.9,88.4,117.1,87.1,115.8,86.8z"/>
</g>
<g>
	<path class="st0" d="M42.2,52.9c1.8,2.4,4.1,4.5,6.9,6l-1.9-8.1C45.5,51.2,43.8,51.9,42.2,52.9z"/>
	<path class="st0" d="M48.8,50.3l1.9,8.1c0.6-0.9,1.2-1.8,1.7-2.7c0.9-1.9,1.6-3.8,1.9-5.8C52.5,49.9,50.6,50,48.8,50.3z"/>
	<path class="st0" d="M55.8,42.6c0.4,2,0.5,4,0.3,6c1.5,0.2,3,0.6,4.5,1.2c1.1-2.6,1.4-5.5,0.9-8.5L55.8,42.6L55.8,42.6z"/>
	<path class="st0" d="M53.9,56.5c-0.2,0.4-0.4,0.7-0.6,1.1c2.9-1.4,5.1-3.7,6.6-6.4c-1.3-0.5-2.6-0.8-3.9-1
		C55.6,52.4,54.9,54.5,53.9,56.5z"/>
	<path class="st0" d="M54.5,48.4c0.1-1.8,0-3.6-0.3-5.4l-6.7,1.6l1,4.2C50.4,48.4,52.5,48.2,54.5,48.4z"/>
	<path class="st0" d="M46.8,49.1l-1-4.2l-6.7,1.6c0.5,1.7,1.2,3.4,2.1,5C43,50.4,44.9,49.6,46.8,49.1z"/>
	<path class="st0" d="M40.8,53.8c-1.1,0.8-2.1,1.7-3.1,2.7c2.5,1.8,5.6,2.8,8.8,2.8C44.3,57.8,42.3,55.9,40.8,53.8z"/>
	<path class="st0" d="M38.5,39.5c-0.2,1.8-0.1,3.6,0.3,5.4l6.7-1.6l-1-4.2C42.5,39.6,40.5,39.7,38.5,39.5z"/>
	<path class="st0" d="M46.1,38.8l1,4.2l6.7-1.6c-0.5-1.7-1.2-3.4-2.2-4.9C49.9,37.5,48,38.3,46.1,38.8z"/>
	<path class="st0" d="M55.2,40.1c0.1,0.3,0.2,0.6,0.3,0.9l5.7-1.3c-0.8-2.9-2.5-5.3-4.6-7.2c-1.1,1.2-2.3,2.2-3.5,3.1
		C53.9,37,54.6,38.5,55.2,40.1z"/>
	<path class="st0" d="M36.4,55.4c1.1-1.1,2.2-2.2,3.5-3c-0.8-1.4-1.5-2.9-2-4.5c-0.1-0.3-0.2-0.7-0.3-1l-5.7,1.3
		C32.7,51.1,34.3,53.6,36.4,55.4z"/>
	<path class="st0" d="M69.2,8.9c-0.4-1.7-2.1-2.8-3.9-2.4L12.9,18.8c-1.7,0.4-2.8,2.1-2.4,3.9l17.6,75.1c0.4,1.7,2.1,2.8,3.9,2.4
		l52.4-12.3c1.7-0.4,2.8-2.1,2.4-3.9L69.2,8.9z M30,47.8C30,47.8,30,47.8,30,47.8C30,47.8,30,47.8,30,47.8c0-0.1,0-0.1,0-0.1
		c-1-4.4-0.3-8.9,2.1-12.7c2.4-3.8,6.1-6.5,10.4-7.5l0.2,0C51.8,25.4,60.8,31,63,40.1c0,0,0,0,0,0c0,0,0,0,0,0c0,0,0,0,0,0.1
		c1,4.4,0.3,8.9-2.1,12.7c-2.4,3.8-6.1,6.5-10.5,7.5c0,0,0,0,0,0s0,0,0,0l-0.1,0C41.2,62.5,32.1,56.9,30,47.8z M71.6,75.3l-35.2,8.3
		c-1.3,0.3-2.6-0.5-2.9-1.8c-0.3-1.3,0.5-2.6,1.8-2.9l35.2-8.3c1.3-0.3,2.6,0.5,2.9,1.8C73.7,73.7,72.9,75,71.6,75.3z"/>
	<path class="st0" d="M36.9,39.3c-1.5-0.2-3-0.6-4.5-1.2c-1.1,2.6-1.4,5.5-0.9,8.5l5.7-1.3C36.8,43.3,36.7,41.3,36.9,39.3z"/>
	<path class="st0" d="M44.1,37.6l-1.9-8c-0.6,0.9-1.2,1.8-1.7,2.7c-0.9,1.8-1.5,3.7-1.9,5.6C40.5,38,42.4,37.9,44.1,37.6z"/>
	<path class="st0" d="M39.1,31.5c0.2-0.5,0.5-0.9,0.8-1.4c-2.9,1.4-5.3,3.7-6.8,6.5c1.3,0.5,2.7,0.8,4,1
		C37.4,35.6,38.1,33.5,39.1,31.5z"/>
	<path class="st0" d="M50.7,35.1c-1.7-2.4-4.1-4.4-6.8-5.9l1.9,8C47.5,36.7,49.1,36,50.7,35.1z"/>
	<path class="st0" d="M52.1,34.2c1.1-0.8,2.2-1.7,3.1-2.7c-2.6-1.8-5.7-2.8-9-2.8C48.6,30.1,50.5,32,52.1,34.2z"/>
	<path class="st2" d="M90,83.2L72.4,8.1c-0.8-3.5-4.3-5.6-7.8-4.8L12.2,15.6c-3.5,0.8-5.6,4.3-4.8,7.8L25,98.4
		c0.8,3.5,4.3,5.6,7.8,4.8l52.4-12.3C88.7,90.1,90.8,86.6,90,83.2z M84.5,87.8L32,100.1c-1.7,0.4-3.5-0.7-3.9-2.4L10.5,22.7
		c-0.4-1.7,0.7-3.5,2.4-3.9L65.3,6.5c1.7-0.4,3.5,0.7,3.9,2.4l17.6,75.1C87.3,85.6,86.2,87.4,84.5,87.8z"/>
	<path class="st2" d="M50.3,60.5L50.3,60.5C50.4,60.4,50.4,60.4,50.3,60.5C50.4,60.4,50.4,60.4,50.3,60.5c4.5-1.1,8.2-3.7,10.6-7.5
		c2.4-3.8,3.1-8.4,2.1-12.7c0,0,0,0,0-0.1c0,0,0,0,0,0c0,0,0,0,0,0c-2.1-9-11.2-14.7-20.3-12.6l-0.2,0c-4.4,1.1-8.1,3.7-10.4,7.5
		c-2.4,3.8-3.1,8.3-2.1,12.7c0,0,0,0,0,0.1c0,0,0,0,0,0c0,0,0,0,0,0C32.1,56.9,41.2,62.5,50.3,60.5z M37.7,56.5c0.9-1,2-1.9,3.1-2.7
		c1.5,2.1,3.5,4,5.7,5.5C43.3,59.2,40.3,58.2,37.7,56.5z M45.9,44.9l1,4.2c-1.9,0.5-3.8,1.3-5.6,2.4c-0.9-1.6-1.6-3.2-2.1-5
		L45.9,44.9z M38.8,44.9c-0.3-1.8-0.4-3.6-0.3-5.4c2,0.2,4,0,6-0.4l1,4.2L38.8,44.9z M47.1,43l-1-4.2c1.9-0.5,3.8-1.3,5.5-2.3
		c0.9,1.5,1.7,3.2,2.2,4.9L47.1,43z M54.2,43c0.3,1.8,0.5,3.6,0.3,5.4c-2-0.2-4.1,0-6,0.4l-1-4.2L54.2,43z M42.2,52.9
		c1.6-0.9,3.3-1.7,5-2.1l1.9,8.1C46.3,57.4,44,55.3,42.2,52.9z M50.7,58.5l-1.9-8.1c1.8-0.3,3.6-0.5,5.5-0.3c-0.3,2-0.9,3.9-1.9,5.8
		C51.9,56.7,51.4,57.6,50.7,58.5z M53.3,57.6c0.2-0.4,0.4-0.7,0.6-1.1c1-2,1.7-4.1,2.1-6.3c1.3,0.2,2.7,0.5,3.9,1
		C58.4,54,56.1,56.2,53.3,57.6z M60.6,49.8c-1.5-0.6-3-0.9-4.5-1.2c0.2-2,0-4-0.3-6l0,0l5.7-1.3C62,44.2,61.7,47.1,60.6,49.8z
		 M61.1,39.7L55.4,41c-0.1-0.3-0.2-0.6-0.3-0.9c-0.5-1.6-1.2-3.2-2.1-4.6c1.3-0.9,2.4-1.9,3.5-3.1C58.7,34.3,60.3,36.8,61.1,39.7z
		 M55.2,31.4c-1,1-2,1.9-3.1,2.7c-1.6-2.2-3.6-4-5.9-5.5C49.5,28.6,52.7,29.6,55.2,31.4z M50.7,35.1c-1.6,0.9-3.2,1.6-5,2.1l-1.9-8
		C46.7,30.7,49,32.7,50.7,35.1z M42.3,29.6l1.9,8c-1.8,0.3-3.6,0.5-5.4,0.3c0.3-1.9,0.9-3.8,1.9-5.6C41.1,31.3,41.6,30.4,42.3,29.6z
		 M39.9,30.2c-0.3,0.4-0.5,0.9-0.8,1.4c-1,2-1.7,4-2,6.2c-1.3-0.2-2.7-0.6-4-1C34.6,33.9,36.9,31.6,39.9,30.2z M32.4,38.2
		c1.5,0.6,3,0.9,4.5,1.2c-0.2,2-0.1,4,0.3,6l-5.7,1.3C30.9,43.7,31.3,40.8,32.4,38.2z M37.5,46.9c0.1,0.3,0.2,0.7,0.3,1
		c0.5,1.6,1.2,3.1,2,4.5c-1.2,0.9-2.4,1.9-3.5,3c-2.1-1.9-3.8-4.3-4.6-7.2L37.5,46.9z"/>
	<path class="st2" d="M70.4,70.6l-35.2,8.3c-1.3,0.3-2.1,1.6-1.8,2.9c0.3,1.3,1.6,2.1,2.9,1.8l35.2-8.3c1.3-0.3,2.1-1.6,1.8-2.9
		C73.1,71.1,71.7,70.3,70.4,70.6z"/>
</g>
</svg>
