<svg xmlns="http://www.w3.org/2000/svg" viewBox="0 0 162.45 163.43">
    <defs>
        <style>.cls-1{fill:#5f5e5d;}.cls-2{fill:#464646;}.cls-3{fill:#fff;}</style>
    </defs>
    <title>coach-empty-avatar</title>
    <g id="Layer_2" data-name="Layer 2">
        <g id="Layer_1-2" data-name="Layer 1">
            <g id="stripes">
                <rect class="cls-2" x="3.38" y="27.16" width="45.3" height="1"
                      transform="translate(-11.93 26.5) rotate(-45)"/>
                <rect class="cls-2" x="-8.61" y="31.11" width="78" height="1"
                      transform="translate(-13.45 30.75) rotate(-45)"/>
                <rect class="cls-2" x="-11.48" y="35.06" width="92" height="1"
                      transform="translate(-15.04 34.83) rotate(-45)"/>
                <rect class="cls-2" x="-14.63" y="38.37" width="108.2" height="1"
                      transform="translate(-15.92 39.3) rotate(-45)"/>
                <rect class="cls-2" x="-16.48" y="42.83" width="117.7" height="1"
                      transform="translate(-18.23 42.65) rotate(-45)"/>
                <rect class="cls-2" x="-16.72" y="46.18" width="127.4" height="1"
                      transform="translate(-19.25 46.89) rotate(-45)"/>
                <rect class="cls-2" x="-17.88" y="51.2" width="135.8" height="1"
                      transform="translate(-21.91 50.51) rotate(-45)"/>
                <rect class="cls-2" x="-16.49" y="54.18" width="142.4" height="1"
                      transform="translate(-22.64 54.7) rotate(-45)"/>
                <rect class="cls-2" x="-14.6" y="58.54" width="147.1" height="1"
                      transform="translate(-24.48 58.98) rotate(-45)"/>
                <rect class="cls-2" x="-13.01" y="62.79" width="150.8" height="1"
                      transform="translate(-26.48 62.65) rotate(-45)"/>
                <rect class="cls-2" x="-11.01" y="67.05" width="154.2" height="1"
                      transform="translate(-28.41 66.52) rotate(-45)"/>
                <rect class="cls-2" x="-7.37" y="70.08" width="157.1" height="1"
                      transform="translate(-29.06 71) rotate(-45)"/>
                <rect class="cls-2" x="-5.47" y="74.42" width="159.9" height="1"
                      transform="translate(-31.16 74.6) rotate(-45)"/>
                <rect class="cls-2" x="-1.5" y="78.73" width="159.9" height="1"
                      transform="translate(-33.04 78.68) rotate(-45)"/>
                <rect class="cls-2" x="2.17" y="83.01" width="159.9" height="1"
                      transform="translate(-35 82.53) rotate(-45)"/>
                <rect class="cls-2" x="6.48" y="86.04" width="159.9" height="1"
                      transform="translate(-35.88 86.46) rotate(-45)"/>
                <rect class="cls-2" x="11.19" y="90.7" width="159.9" height="1"
                      transform="translate(-37.79 91.16) rotate(-45)"/>
                <rect class="cls-2" x="16.33" y="94.51" width="156.8" height="1"
                      transform="translate(-39.44 94.81) rotate(-45)"/>
                <rect class="cls-2" x="22.04" y="98.82" width="154.1" height="1"
                      transform="translate(-41.21 99.16) rotate(-45)"/>
                <rect class="cls-2" x="28.22" y="101.73" width="150.5" height="1"
                      transform="translate(-41.98 103.11) rotate(-45)"/>
                <rect class="cls-2" x="35.69" y="106.41" width="142.8" height="1"
                      transform="translate(-44.23 107.04) rotate(-45)"/>
                <rect class="cls-2" x="42.87" y="110.1" width="137" height="1"
                      transform="translate(-45.59 111.15) rotate(-45)"/>
                <rect class="cls-2" x="50.03" y="114.48" width="129.5" height="1"
                      transform="translate(-47.68 114.84) rotate(-45)"/>
                <rect class="cls-2" x="57.02" y="119.16" width="122.8" height="1"
                      transform="translate(-49.93 118.78) rotate(-45)"/>
                <rect class="cls-2" x="68.3" y="122.71" width="109" height="1"
                      transform="translate(-51.16 122.92) rotate(-45)"/>
                <rect class="cls-2" x="78.62" y="126.02" width="97.8" height="1"
                      transform="translate(-52.12 127.23) rotate(-45)"/>
                <rect class="cls-2" x="92" y="129.08" width="79.6" height="1"
                      transform="translate(-53.02 131.15) rotate(-45)"/>
                <rect class="cls-2" x="108.2" y="134.47" width="53.1" height="1"
                      transform="translate(-55.97 134.81) rotate(-45)"/>
            </g>
            <g id="person">
                <path class="cls-3"
                      d="M109.7,83.5a20.4,20.4,0,1,0,20.4,20.4A20.42,20.42,0,0,0,109.7,83.5ZM125,103.9a15.2,15.2,0,1,1-15.2-15.2A15.19,15.19,0,0,1,125,103.9Z"/>
                <path class="cls-3"
                      d="M116.7,101.8h-4.9V96.9a2.1,2.1,0,1,0-4.2,0v4.9h-4.9a2.11,2.11,0,0,0-2.1,2.1,2.05,2.05,0,0,0,2.1,2.1h4.9v4.9a2.1,2.1,0,1,0,4.2,0V106h4.9a2.11,2.11,0,0,0,2.1-2.1A2.05,2.05,0,0,0,116.7,101.8Z"/>
                <path class="cls-3"
                      d="M45.1,117.1s19.1,3.2,25.2,3.1c5-.1,19.8-1,19.8-1a2.1,2.1,0,0,0,0-4.2s-14.5,1-19.5,1c-5.6.1-23.4-3.1-23.4-3.1v-6.3c0-6,12.5-10.4,16.8-11.5,4.7-1.2,9.4-4.2,9.4-8.4V80.5a17.91,17.91,0,0,0,5.7.9h1.2a17.91,17.91,0,0,0,5.7-.9v7.2a6.07,6.07,0,0,0,1.9,4.4,2.11,2.11,0,0,0,1.6.6,3,3,0,0,0,1.5-.5,2.15,2.15,0,0,0,.1-2.9,2.25,2.25,0,0,1-.8-1.6V78.4a17.16,17.16,0,0,0,7.4-14.2V53.6A17.33,17.33,0,0,0,80.5,36.4H79.3A17.35,17.35,0,0,0,62,53.6V64.2a16.83,16.83,0,0,0,7.3,14v8.4c0,1.6-2.8,3.6-6.2,4.4a53,53,0,0,0-9.6,3.6c-6.9,3.5-10.4,7.4-10.4,12.1v8.4A1.89,1.89,0,0,0,45.1,117.1ZM66,64.3V53.6a13.1,13.1,0,0,1,13-13h1.2a13.12,13.12,0,0,1,13.1,13V64.2a13.12,13.12,0,0,1-13,13.1H79.1A13.12,13.12,0,0,1,66,64.3Z"/>
            </g>
        </g>
    </g>
</svg>