<svg id="europe" xmlns="http://www.w3.org/2000/svg" viewBox="0 0 29.32 23.4"><defs><style>.cls-1{fill:#e4e4e4;}.cls-2{fill:#757575;}.cls-3{fill:#ccc;}.cls-4{fill:#acacac;}.cls-5{fill:#828282;}.cls-6{fill:#666;}.cls-7{fill:#81bd95;}</style></defs><title>small-europe-map-destination</title><path class="cls-1" d="M22.5,7.57a1.4,1.4,0,0,0-.08.39l-.1.09L22.15,8a.22.22,0,0,0,0,.26.21.21,0,0,1,.28.07.46.46,0,0,0-.07.27l-.11.08.09.15a.69.69,0,0,0-.74.36.92.92,0,0,1-.07.68h0l-.05.12a3.74,3.74,0,0,0,.22.5l-.09.22h.05c.13.18.21.32.31.49v.26h0l.15.12v.1l.14.12a1.44,1.44,0,0,1,1,.14.65.65,0,0,0-.27.55.66.66,0,0,0-.18.62.3.3,0,0,1,.22.24h0a.2.2,0,0,0,.28,0l.2.07a.16.16,0,0,0,0-.2l.16-.06.06.16.1,0a1.24,1.24,0,0,0,.78,0,.33.33,0,0,0,.31.18l.05-.06,0-.11a.64.64,0,0,1,.55.08c.4-.09.76-.15,1.16-.21l.18.11.08-.06,0-.15-.2-.1a1.9,1.9,0,0,1,.5-.63h.13a.73.73,0,0,1,0-.31A6.57,6.57,0,0,1,26,10.59v-.12l.07-.05a.51.51,0,0,0,.21.13l.58-.46h.18l.09-.13a.75.75,0,0,0,.52-.06V9.75l.25.06L28,9.74l.12.06a1,1,0,0,0-.29-1.07l.06-.14a1.06,1.06,0,0,0-.19-.44l0-.16a.34.34,0,0,1-.25-.38l.23-.12a1,1,0,0,0-.06-.63.18.18,0,0,1-.24-.08l-.13,0-.15-.12a.21.21,0,0,0-.06-.29l-.17,0a.36.36,0,0,0-.34-.23l-.06-.09a.92.92,0,0,0-.42.17l-.06-.06.08-.08,0,0A.31.31,0,0,1,26.4,6a.26.26,0,0,0-.28,0l0,.08-.16.08v.07a.35.35,0,0,0-.44.32l-.17,0-.05-.09a1,1,0,0,1-.42,0,.19.19,0,0,1,.24-.08.22.22,0,0,0,.1-.27l-.06,0a.44.44,0,0,0-.17.16A.55.55,0,0,1,24.69,6l-.24.22,0-.14-.13,0,0-.09a.46.46,0,0,0,.17-.26.28.28,0,0,1-.32-.19l-.74-.09a.25.25,0,0,1,0,.17.22.22,0,0,0,.2.08V5.8L23.7,6a.41.41,0,0,1-.28.06v.14l.14-.06v.19l.15.09-.13.1V6.6a7.36,7.36,0,0,1,.89.48.67.67,0,0,1-.61-.35l-.17.07a.21.21,0,0,0-.26,0,.68.68,0,0,0,0,.68.3.3,0,0,1-.17-.39l-.12-.1L23.1,7a.29.29,0,0,0,.07.26l-.08.09A.29.29,0,0,1,23,7l-.18-.13a2.41,2.41,0,0,1-.46.15.24.24,0,0,0,0,.3l.18,0,0,.15h0A.1.1,0,0,1,22.5,7.57Z" transform="translate(-2.1 -1.25)"/><path class="cls-2" d="M25.18,13.84a.22.22,0,0,0-.27.13l-.17-.16a.51.51,0,0,1-.31,0l-.05-.09a.38.38,0,0,0,.06-.24c-.17-.2-.38-.32-.59-.22l-.1,0-.06-.16-.16.06a.16.16,0,0,1,0,.2l-.2-.07a1.72,1.72,0,0,1-.68.11l0-.11h-.19l-.1.13.17.09,0,.15a1.14,1.14,0,0,0-.67,1.05.19.19,0,0,0-.19,0l0,.13a.41.41,0,0,0,.37-.06l-.08-.2a.26.26,0,0,1,.35-.09c.1.2.18.37.26.56l.17.07.32-.23.21.09.29-.5.19.12,0,.19a.37.37,0,0,1,.34.29.55.55,0,0,0,.16-.51,1.25,1.25,0,0,1,.63.2l0-.3.32-.07-.08-.26.16-.19Z" transform="translate(-2.1 -1.25)"/><path class="cls-3" d="M29.29,23l0-.21-.12-.15-.2.2a.4.4,0,0,1-.26-.11l-.17.18c-.46,0-.92,0-1.31,0l-.06-.07-.2.09,0,.26.17.16a5.25,5.25,0,0,1,1.16.52l.07,0a.24.24,0,0,1,.19.24.81.81,0,0,0,.53.12.65.65,0,0,0-.1-.68A.94.94,0,0,1,29.29,23Z" transform="translate(-2.1 -1.25)"/><path class="cls-3" d="M27.52,14.84l-.06-.13.19-.27-.12-.11a1.59,1.59,0,0,1-1.16-.3l0-.16a1.06,1.06,0,0,0-.88.22L25.25,14l-.16.2.08.26-.32.07,0,.3a1.25,1.25,0,0,0-.63-.2.55.55,0,0,1-.16.51.37.37,0,0,0-.34-.29l0-.19-.19-.12-.29.5L23,14.93l-.32.23-.19-.07-.07.08a.29.29,0,0,0,.18.34l0,.27a.26.26,0,0,0-.3.15.66.66,0,0,1,.23.63.47.47,0,0,0,.5.18.32.32,0,0,0,0,.42c.29,0,.5-.1.53-.38a1.2,1.2,0,0,1,1.35.08,3,3,0,0,1,.33.72l.13.08v.23a1.05,1.05,0,0,1,.56.6h.23a.46.46,0,0,1,.18.32c.34.32.75.68,1.07.95a.2.2,0,0,0,.25-.1.55.55,0,0,0,.32.08.5.5,0,0,0,.28.39.17.17,0,0,1,.23,0v.11a1.12,1.12,0,0,1,.29,0,.26.26,0,0,1,0,.36.2.2,0,0,0,.25.09l.07.13a.22.22,0,0,0,.3,0,2.23,2.23,0,0,1,.38,1.36.12.12,0,0,0-.11,0,.76.76,0,0,0,0,.84l.23,0a1.14,1.14,0,0,1,.37-.51.42.42,0,0,1,.29-.55l.05-.12a.53.53,0,0,0-.42-.61.19.19,0,0,1-.05-.2.24.24,0,0,0,.13-.31c.1-.32.28-.44.54-.2a.35.35,0,0,1,.34.06.42.42,0,0,0,.3.47.07.07,0,0,1,.05-.08,2,2,0,0,0-1.9-1.48.18.18,0,0,1-.07-.2.27.27,0,0,0,.23-.25,1.7,1.7,0,0,1-1.76-1.13l-.07,0a9,9,0,0,1-1.39-1.66.55.55,0,0,0,.2-.24.92.92,0,0,1-.2-.31l.06-.12a2.62,2.62,0,0,1,.93-.3A.34.34,0,0,1,27.52,14.84Z" transform="translate(-2.1 -1.25)"/><path class="cls-3" d="M19.39,18.39a3.07,3.07,0,0,0-1.48,0,.35.35,0,0,0-.33-.05l-.18-.19-.16.08a.68.68,0,0,0-.71-.26.43.43,0,0,0,0-.3l-.1,0a.16.16,0,0,0-.16-.12.23.23,0,0,1-.19.05l-.08.12c-.23-.25-.48-.32-.72-.1L15,17.55l-.06-.13a2.3,2.3,0,0,1-1.79-.2,6.69,6.69,0,0,0-1,.2.36.36,0,0,0-.37-.26l-.12.09,0-.05-.29.17,0,.11.1.07a1.33,1.33,0,0,0-.88.36l.07.17.1,0v.09l.07,0,0,.23.06,0,.13-.12,0,.17.06.06-.09.1.13,0-.19.17v0a.6.6,0,0,1,.5,0,.24.24,0,0,0,0,.29.69.69,0,0,1,.71,0l.15-.15.39,0a.5.5,0,0,0,.19.43l0,.16a.66.66,0,0,0-.42.29.91.91,0,0,1-.16.9l.14.14-.21.29a.44.44,0,0,0-.34,0,.89.89,0,0,0,.4.51v.33l-.26.26.12.23h.18l-.41.67a.4.4,0,0,1,.12.38.86.86,0,0,1,.7.38l0,.05c.13.52.44.74.92.55a1.57,1.57,0,0,1,1.65-.52l.05-.07a.26.26,0,0,1,.28.11.48.48,0,0,0,.21-.25.68.68,0,0,0,.32.21.49.49,0,0,0,.19-.47,1.42,1.42,0,0,1,.77-.25l.07-.1L17,23.19c.1-.26.2-.53.28-.79a.51.51,0,0,0,.45-.24.56.56,0,0,0-.32-.34.74.74,0,0,0-.17-.39l.8-1.11.09,0,0,0,0,0,.11-.07,0-.19-.09-.07a1.48,1.48,0,0,0,1.46-1.3l.13-.09v-.09A1,1,0,0,1,19.39,18.39Z" transform="translate(-2.1 -1.25)"/><path class="cls-4" d="M23,16.74a.47.47,0,0,1-.5-.18.66.66,0,0,0-.23-.63.26.26,0,0,1,.3-.15l0-.27a.29.29,0,0,1-.18-.34l.07-.08h0c-.08-.19-.16-.37-.26-.56a.26.26,0,0,0-.35.09l.08.2a.41.41,0,0,1-.37.06l0-.13a.19.19,0,0,1,.19,0,1.14,1.14,0,0,1,.67-1.05l0-.15-.17-.09.1-.13h.19l0,.11a.51.51,0,0,0,.41-.06.3.3,0,0,0-.22-.24.66.66,0,0,1,.18-.62.65.65,0,0,1,.27-.55,1.44,1.44,0,0,0-1-.14l-.14-.12v-.1l-.15-.12a.38.38,0,0,1-.32,0l-.09-.15a.22.22,0,0,0-.2,0,.31.31,0,0,0-.31-.12,1.21,1.21,0,0,0-.36-.34.18.18,0,0,0-.19.06l-.17-.09v-.22a.9.9,0,0,1-.57-.45l-.19-.07,0-.28-.09-.07a.27.27,0,0,1-.31.14L19,9.84a3.32,3.32,0,0,0-.53,1.11.62.62,0,0,1-.54,0,.44.44,0,0,0-.38.31.18.18,0,0,0,.2.15.74.74,0,0,1-.88.07l-.12.07a.26.26,0,0,0-.15-.19l0-.13-.54-.06a.22.22,0,0,1,0,.26l.27.25,0,.08a.24.24,0,0,1,0,.24.27.27,0,0,1,.1.25,1.91,1.91,0,0,0-.66,0l-.06-.05-.18.15c-.17-.35-.41-.43-.7-.16l-.08,0-.09.09a.89.89,0,0,0-.7.21l.06.1a.23.23,0,0,1,.32,0,.38.38,0,0,0-.25,0l.06.15,0-.12.1,0,0,.1-.24.09v0h.14a.27.27,0,0,1,0,.27l.17-.11a.64.64,0,0,1,.53.21.28.28,0,0,1,.28.12l.13-.12.08,0,0,.09,0,.06.13-.08.08.08-.06.16.07.12a1.23,1.23,0,0,1,.42-.07l.1.14a.27.27,0,0,0-.28-.07l-.09.13.09,0c0,.15,0,.26,0,.4a3.79,3.79,0,0,0,.72.41.23.23,0,0,0,.07.26.16.16,0,0,1-.1.18l0,.14a.81.81,0,0,1,.57.68.47.47,0,0,1-.26-.4l-.17-.09a1.06,1.06,0,0,0-.15.75l.13.09-.1.08a1.36,1.36,0,0,1-.38,1.14.16.16,0,0,1,.16.12l.1,0a.43.43,0,0,1,0,.3.68.68,0,0,1,.71.26l.16-.08.18.19a.35.35,0,0,1,.33.05,2.66,2.66,0,0,1,1.85.19c.08-1.55,1.51-1.16,2.55-.78l0-.08a2.26,2.26,0,0,1,.68-.56A.32.32,0,0,1,23,16.74Z" transform="translate(-2.1 -1.25)"/><path class="cls-5" d="M13.32,2.48a.62.62,0,0,1,0,.24l.2,0a.14.14,0,0,0-.15.1l0,0,.13,0,0,0,.05.06-.09,0a.11.11,0,0,0-.07.11l.05,0h-.08l0,.07.09,0,0,.07-.14-.06,0,.1.06,0a.59.59,0,0,1-.3.18,1.15,1.15,0,0,0,.25,0l0,0h-.09l.13.12,0,0,.06.07.33-.33-.05.1,0,0-.1,0a2.46,2.46,0,0,1-.17.43l0,0c0,.18-.08.31-.13.47l0,.07.06,0-.2.47V5h.17a.7.7,0,0,1,.13-.5l-.07-.29h.06l.2-.24a.47.47,0,0,0-.17.4l.06,0a.16.16,0,0,1,.11-.18l0,.16a.31.31,0,0,0,.06-.32L14,4l0,.17.17.13-.15,0a.43.43,0,0,0,0,.37l.09,0,.05.14a.69.69,0,0,0-.23.64l-.12-.07a.39.39,0,0,0,.17.39l0-.21.11,0,.28.2V5.59l-.12-.09.07,0a.31.31,0,0,0,.39.12V5.52h.15l0-.14.4,0-.26.07-.16.46.2.35.1-.06v.19l.13-.16.16,0-.06.19,0,0-.16.12a.3.3,0,0,1,0,.38.41.41,0,0,0,.31.24.17.17,0,0,1-.17.05l-.09-.13-.09,0a.25.25,0,0,0,.15.18A.24.24,0,0,1,15,7.26,1.52,1.52,0,0,0,14,7.89a.19.19,0,0,1,.18,0l0-.07.27-.07,0,.14.09.1-.1.07.06.11.06,0a1.52,1.52,0,0,1-1,.71l.15,0V9l-.11.05.2,0,0,0A.81.81,0,0,0,14.3,9l0,.1.17,0-.13,0,0,.08h.23v0l.11,0,.22.26h.26a3.61,3.61,0,0,1,.56-.38.9.9,0,0,0-.39.63.31.31,0,0,0-.24,0,.83.83,0,0,0-.69,0v.12a.18.18,0,0,1-.23.1.52.52,0,0,1-.2.48l-.16,0,0,.16H13.7a.32.32,0,0,1-.23.22l-.09,0-.13.09V11h.14V10.9a.21.21,0,0,1,.25.17l.09-.08,0-.06.08-.11,0,0a.14.14,0,0,1,.16-.09l0-.12a.67.67,0,0,0,.43,0l.07.09a1.28,1.28,0,0,0,.32.08l0-.08c.13,0,.16-.13.1-.26a.16.16,0,0,1,.16-.1l0-.06a.51.51,0,0,1,.61.07.48.48,0,0,1,.36,0,.25.25,0,0,1,.34-.18l.17-.11a.21.21,0,0,0,.26,0,.14.14,0,0,0,.13.12,1,1,0,0,1,.78,0,.78.78,0,0,1,.53-.22l0-.09a.45.45,0,0,1,.3-.15.73.73,0,0,1,0-.3,1.05,1.05,0,0,1-.64,0A.09.09,0,0,1,18,9.32v0a.21.21,0,0,0-.24,0,1.06,1.06,0,0,1,.38-.16l0-.11H18l.16-.15.07.06a.3.3,0,0,0,.16-.15h-.06l0-.06-.13,0,.05-.09.08,0,0,.06a.25.25,0,0,1,.19-.16.76.76,0,0,1,.1-.45.77.77,0,0,0-1-.51.33.33,0,0,1-.08.27.29.29,0,0,0-.27-.17c.3-.19.31-.42,0-.67a.38.38,0,0,1-.3-.22.47.47,0,0,1-.3,0,.42.42,0,0,1,.44.06.21.21,0,0,1,.16,0l-.32-.4a.15.15,0,0,1,.12-.12.2.2,0,0,1-.15-.14h0a.6.6,0,0,0-.59-.39V5.69a5.49,5.49,0,0,1-.39-1H16a1,1,0,0,0-.64-.52.74.74,0,0,1-.2.15.78.78,0,0,1-.48-.18.45.45,0,0,0,.43,0l0-.12a.25.25,0,0,0,.3-.1l-.14-.07a.1.1,0,0,0-.07-.13l-.2.11,0,0A1.1,1.1,0,0,0,15.77,3l0,0a.35.35,0,0,1,.2-.3V2.49l-.19-.17a3.44,3.44,0,0,1-.93,0v0a1.28,1.28,0,0,0-.4.18l0,0a1.32,1.32,0,0,0,.24-.34l-.09.05-.11,0A5.47,5.47,0,0,1,15,1.61l.05-.14L15,1.41a.14.14,0,0,0,.05-.16h-.16l-.06.07a1.17,1.17,0,0,0-.65.14l0-.07-.06,0L14,1.48l0-.1-.18-.08a.15.15,0,0,1-.09.16l0,.1h0v.13l-.13,0,.06.11-.06.11h-.06a.49.49,0,0,1,.21.24l-.16-.08-.06,0-.12-.08a.14.14,0,0,0,0,.13l0,.06-.06-.12-.06.13.06.07,0,.07.1.11h.09l-.11,0Z" transform="translate(-2.1 -1.25)"/><path class="cls-5" d="M12.12,5.43l0,.14-.16,0L11.74,6l.34.32.12,0A.25.25,0,0,1,12.33,6a.48.48,0,0,1,.39.42,1,1,0,0,1,.32.14V6.4l.07,0a.18.18,0,0,0,.14-.21l.19,0,0-.13-.12,0,0-.12,0-.09h.09l.09.28,0-.35h-.22l.12-.09a.87.87,0,0,1-.25-.48A1.07,1.07,0,0,0,12.12,5.43Z" transform="translate(-2.1 -1.25)"/><path class="cls-1" d="M11.83,23.22l.41-.67h-.18l-.12-.23.26-.26v-.33a.89.89,0,0,1-.4-.51.44.44,0,0,1,.34,0l.21-.29-.14-.14a.91.91,0,0,0,.16-.9.66.66,0,0,1,.42-.29l0-.16a.5.5,0,0,1-.19-.43l-.39,0-.15.15a.69.69,0,0,0-.71,0,.24.24,0,0,1,0-.29.6.6,0,0,0-.5,0,2.37,2.37,0,0,1,.05,1.26l.12.13a9.22,9.22,0,0,0-.7,1.9h.17a.42.42,0,0,1,.25-.22.15.15,0,0,0,0,.19l-.24.12v.17l.07.08a.25.25,0,0,1,.33-.11l-.09.11a2.72,2.72,0,0,1-.15,1.23l.06,0,.24-.17a1.69,1.69,0,0,1,.49.23.58.58,0,0,1,.45-.15l0-.07h0A.4.4,0,0,0,11.83,23.22Z" transform="translate(-2.1 -1.25)"/><ellipse class="cls-6" cx="0.94" cy="18.45" rx="0.94" ry="0.44"/><path d="M2.78,19.76s5.3-12.82,17.38-5.82C20.15,13.94,13.35,8.45,2.78,19.76Z" transform="translate(-2.1 -1.25)"/><path class="cls-7" d="M20.44,14s-8.81-3.32-17.66,5.73C2.78,19.76,10.14,8.54,20.44,14Z" transform="translate(-2.1 -1.25)"/><path d="M20,6.28a3,3,0,0,0-2.91,3c0,1.65,2.91,4.91,2.91,4.91s2.91-3.26,2.91-4.91A3,3,0,0,0,20,6.28ZM20,10a1.3,1.3,0,1,1,1.26-1.3A1.28,1.28,0,0,1,20,10Z" transform="translate(-2.1 -1.25)"/><ellipse cx="17.9" cy="7.43" rx="0.84" ry="0.86"/></svg>