<?xml version="1.0" standalone="no"?>
<!DOCTYPE svg PUBLIC "-//W3C//DTD SVG 1.1//EN" "http://www.w3.org/Graphics/SVG/1.1/DTD/svg11.dtd" >
<svg xmlns="http://www.w3.org/2000/svg">
<metadata>Generated by IcoMoon</metadata>
<defs>
<font id="icomoon" horiz-adv-x="1024">
<font-face units-per-em="1024" ascent="960" descent="-64" />
<missing-glyph horiz-adv-x="1024" />
<glyph unicode="&#x20;" horiz-adv-x="512" d="" />
<glyph unicode="&#xe900;" glyph-name="close-btn" d="M512 912.291c-256 0-464.291-208.291-464.291-464.291s208.291-464.291 464.291-464.291c256 0 464.291 208.291 464.291 464.291s-208.291 464.291-464.291 464.291zM729.6 278.109c15.127-15.127 15.127-39.564 0-53.527-15.127-15.127-39.564-15.127-53.527 0l-164.073 164.073-164.073-164.073c-15.127-15.127-39.564-15.127-53.527 0-15.127 15.127-15.127 39.564 0 53.527l169.891 169.891-169.891 169.891c-15.127 15.127-15.127 39.564 0 53.527 15.127 15.127 39.564 15.127 53.527 0l164.073-164.073 164.073 164.073c15.127 15.127 39.564 15.127 53.527 0 15.127-15.127 15.127-39.564 0-53.527l-168.727-169.891 168.727-169.891z" />
<glyph unicode="&#xe901;" glyph-name="hamburger-menu" d="M935.829 621.077h-831.329c-30.557 0-55.515 24.725-55.515 55.515v1.166c0 30.557 24.725 55.515 55.515 55.515h831.563c30.557 0 55.515-24.725 55.515-55.515v-1.166c-0.233-30.79-24.959-55.515-55.749-55.515zM935.829 406.48h-831.329c-30.557 0-55.515 24.725-55.515 55.515v1.166c0 30.557 24.725 55.515 55.515 55.515h831.563c30.557 0 55.515-24.725 55.515-55.515v-1.166c-0.233-30.79-24.959-55.515-55.749-55.515zM935.829 184.886h-831.329c-30.557 0-55.515 24.725-55.515 55.515v1.166c0 30.557 24.725 55.515 55.515 55.515h831.563c30.557 0 55.515-24.725 55.515-55.515v-1.166c-0.233-30.79-24.959-55.515-55.749-55.515z" />
<glyph unicode="&#xe902;" d="M514.977 857.6v30.958l-104.186-66.679 104.186-67.274v32.744c0 0 130.977 14.884 94.065-113.116 110.14 171.46-94.065 183.367-94.065 183.367z" />
<glyph unicode="&#xe903;" d="M449.488 111.628c0 0-130.977-14.884-94.065 113.116-110.14-171.46 94.065-183.367 94.065-183.367v-30.958l104.186 67.274-104.186 66.679v-32.744z" />
<glyph unicode="&#xe904;" d="M400.67 649.228c0 8.93-7.144 16.074-16.074 16.074h-135.74c-8.93 0-16.074-7.144-16.074-16.074s7.144-16.074 16.074-16.074h81.563l24.409-39.293h-60.726l0.595 1.191c3.572 8.335 0 17.265-8.335 20.837s-17.265 0-20.837-8.335l-21.433-41.674c-3.572-8.335 0-17.265 8.335-20.837s17.265 0 20.837 8.335l4.167 8.93h26.791v-30.958h-51.795c-8.93 0-16.074-7.144-16.074-16.074s7.144-16.074 16.074-16.074h51.795v-13.693h-51.795c-8.93 0-16.074-7.144-16.074-16.074s7.144-16.074 16.074-16.074h135.74c8.93 0 16.074 7.144 16.074 16.074s-7.144 16.074-16.074 16.074h-51.795v13.693h51.795c8.93 0 16.074 7.144 16.074 16.074s-6.549 16.074-15.479 16.074h-51.795v30.363h46.437c1.191 0 2.381 0 3.572 0.595 0 0 0.595 0 0.595 0 0.595 0 1.191 0.595 2.381 0.595 0.595 0 1.191 0.595 1.786 0.595s0.595 0 1.191 0.595c0 0 0 0 0 0 4.167 2.977 7.144 7.74 7.144 13.098 0 3.572-1.191 7.144-2.977 9.526l-28.577 45.842h16.67c8.335 0.595 15.479 7.74 15.479 16.67z" />
<glyph unicode="&#xe905;" d="M211.944 487.293c8.93 0 16.074 7.144 16.074 16.074v123.833c0 8.93-7.144 16.074-16.074 16.074s-16.074-7.144-16.074-16.074v-123.833c0-8.93 7.74-16.074 16.074-16.074z" />
<glyph unicode="&#xe906;" d="M232.781 411.684c0 0 11.312 2.977 10.716 13.693-0.595 7.144-2.977 13.693-14.288 14.884-8.93 0.595-17.86-0.595-29.172 7.144s-18.456 20.242-20.242 38.698c0 0.595 0 0.595 0 1.191v159.553c0 8.93-7.144 16.074-16.074 16.074s-16.074-7.144-16.074-16.074v-153.6l0.595-18.456c0 0 4.167-34.53 30.958-51.2-0.595 0.595 23.814-19.051 53.581-11.907z" />
<glyph unicode="&#xe907;" d="M663.219 383.107h66.084l-33.34 91.684z" />
<glyph unicode="&#xe908;" d="M697.749 648.037c-76.205 0-144.67-33.935-190.512-88.112-4.167 126.214-107.163 227.423-233.972 227.423-128.595 0-233.377-104.781-233.377-233.972 0-69.656 30.958-132.167 79.181-175.033 0 0 11.312-5.953 23.814 5.358 0 0 8.93 10.121 1.191 19.647-42.865 36.912-69.060 91.088-69.060 150.028 0.595 109.544 89.302 198.251 198.251 198.251s197.656-88.707 197.656-197.656c0-64.298-31.553-124.428-83.944-161.34l-5.953-4.167v-1.786l-132.763-91.088v53.581c0 11.907-16.074 12.502-16.074 12.502-19.051 0-19.647-12.502-19.647-12.502v-95.851c2.381-9.526 7.144-12.502 12.502-12.502 7.74 0 15.479 5.953 15.479 5.953l167.293 114.307c0 0.595 0.595 0.595 0.595 1.191 14.288 10.121 26.791 21.433 38.102 33.935 0-84.54 42.27-158.958 105.972-204.8 0-0.595 0.595-1.191 0.595-1.191l179.795-123.237c0 0 23.814-19.051 29.767 7.144v80.372c107.163 28.577 185.749 126.214 185.749 242.307 0 139.312-112.521 251.237-250.642 251.237zM793.6 299.758c-4.167-4.167-9.526-6.549-15.479-6.549-3.572 0-6.549 0.595-8.93 1.786s-4.763 2.977-6.549 5.358c-1.786 2.381-3.572 5.358-5.358 10.121s-3.572 8.335-4.763 11.907l-10.716 27.981h-89.898l-10.716-28.577c-4.167-11.312-7.74-18.456-10.716-22.623-2.977-3.572-7.74-5.953-14.288-5.953-5.358 0-10.716 1.786-14.884 5.953s-6.549 8.93-6.549 14.288c0 2.977 0.595 5.953 1.786 9.526 1.191 2.977 2.381 7.74 4.763 13.693l56.558 143.479c1.786 4.167 3.572 8.93 5.953 14.884s4.763 10.716 7.144 14.288 5.953 7.144 10.121 9.526c4.167 2.381 9.526 3.572 15.479 3.572s11.312-1.191 15.479-3.572c4.167-2.381 7.74-5.358 10.121-8.93s4.763-7.74 6.549-11.907c1.786-4.167 4.167-10.121 6.549-17.265l57.749-142.884c4.763-10.716 6.549-18.456 6.549-23.814s-1.786-10.121-5.953-14.288z" />
<glyph unicode="&#xe909;" glyph-name="lense" d="M443.733 891.733c-150.187 0-273.067-122.88-273.067-273.067s122.88-273.067 273.067-273.067c58.027 0 112.64 20.48 160.427 51.2l187.733-187.733 64.853 64.853-187.733 187.733c30.72 44.373 51.2 98.987 51.2 157.013-3.413 150.187-126.293 273.067-276.48 273.067zM443.733 823.467c112.64 0 204.8-92.16 204.8-204.8s-92.16-204.8-204.8-204.8-204.8 92.16-204.8 204.8 92.16 204.8 204.8 204.8z" />
<glyph unicode="&#xe90a;" glyph-name="lock" d="M849.792 546.36h-19.988v93.416c0 172.736-137.179 317.068-308.441 320.224-4.629 0-14.097 0-18.725 0-171.263-3.156-308.441-147.278-308.441-320.013v-93.416h-19.988c-30.718 0-55.755-31.77-55.755-70.904v-468.343c0-39.134 25.037-71.114 55.755-71.114h675.373c30.718 0 55.755 31.98 55.755 71.114v468.132c0.21 39.344-24.827 70.904-55.545 70.904zM575.224 241.706v-141.597c0-16.201-13.465-29.876-29.876-29.876h-66.906c-16.201 0-29.876 13.676-29.876 29.876v141.597c-15.78 15.569-24.827 36.819-24.827 60.594 0 44.814 34.715 83.527 78.899 85.211 4.629 0.21 14.097 0.21 18.725 0 44.183-1.683 78.899-40.396 78.899-85.211 0-23.564-9.257-45.025-25.037-60.594zM698.306 546.36h-372.612v93.416c0 102.884 83.527 187.884 186.201 187.884s186.201-85 186.201-187.884l0.21-93.416z" />
<glyph unicode="&#xe90b;" d="M538.483 154.924c-17.655-21.186-28.248-35.31-28.248-35.31s-10.593 12.359-28.248 35.31c-60.028-3.531-105.931-17.655-105.931-35.31 0-19.421 60.028-35.31 132.414-35.31s132.414 15.89 132.414 35.31c0 17.655-42.372 31.779-102.4 35.31z" />
<glyph unicode="&#xe90c;" d="M402.538 568.055c0-60.028 49.434-109.462 109.462-109.462s109.462 49.434 109.462 109.462-49.434 109.462-109.462 109.462-109.462-49.434-109.462-109.462zM512 621.021c30.014 0 52.966-24.717 52.966-52.966s-24.717-52.966-52.966-52.966c-30.014 0-52.966 24.717-52.966 52.966s22.952 52.966 52.966 52.966z" />
<glyph unicode="&#xe90d;" d="M538.483 154.924c60.028 75.917 192.441 263.062 192.441 399.007 0 121.821-98.869 220.69-220.69 220.69s-220.69-98.869-220.69-220.69c0-135.945 132.414-323.090 192.441-399.007 17.655-22.952 28.248-35.31 28.248-35.31s12.359 14.124 28.248 35.31zM619.697 568.055c0-60.028-49.434-109.462-109.462-109.462s-109.462 49.434-109.462 109.462 49.434 109.462 109.462 109.462 109.462-49.434 109.462-109.462z" />
<glyph unicode="&#xe90e;" d="M564.966 568.055c0-29.252-23.713-52.966-52.966-52.966s-52.966 23.713-52.966 52.966c0 29.252 23.713 52.966 52.966 52.966s52.966-23.713 52.966-52.966z" />
<glyph unicode="&#xe90f;" d="M538.483 154.924c-17.655-21.186-28.248-35.31-28.248-35.31s-10.593 12.359-28.248 35.31c-60.028-3.531-105.931-17.655-105.931-35.31 0-19.421 60.028-35.31 132.414-35.31s132.414 15.89 132.414 35.31c0 17.655-42.372 31.779-102.4 35.31z" />
<glyph unicode="&#xe910;" d="M402.538 568.055c0-60.028 49.434-109.462 109.462-109.462s109.462 49.434 109.462 109.462c0 60.028-49.434 109.462-109.462 109.462s-109.462-49.434-109.462-109.462zM512 621.021c30.014 0 52.966-24.717 52.966-52.966s-24.717-52.966-52.966-52.966c-30.014 0-52.966 24.717-52.966 52.966s22.952 52.966 52.966 52.966z" />
<glyph unicode="&#xe911;" d="M538.483 154.924c60.028 75.917 192.441 263.062 192.441 399.007 0 121.821-98.869 220.69-220.69 220.69s-220.69-98.869-220.69-220.69c0-135.945 132.414-323.090 192.441-399.007 17.655-22.952 28.248-35.31 28.248-35.31s12.359 14.124 28.248 35.31zM619.697 568.055c0-60.028-49.434-109.462-109.462-109.462s-109.462 49.434-109.462 109.462c0 60.028 49.434 109.462 109.462 109.462s109.462-49.434 109.462-109.462z" />
<glyph unicode="&#xe912;" d="M564.966 568.055c0-29.252-23.713-52.966-52.966-52.966s-52.966 23.713-52.966 52.966c0 29.252 23.713 52.966 52.966 52.966s52.966-23.713 52.966-52.966z" />
<glyph unicode="&#xe913;" d="M538.483 154.924c-17.655-21.186-28.248-35.31-28.248-35.31s-10.593 12.359-28.248 35.31c-60.028-3.531-105.931-17.655-105.931-35.31 0-19.421 60.028-35.31 132.414-35.31s132.414 15.89 132.414 35.31c0 17.655-42.372 31.779-102.4 35.31z" />
<glyph unicode="&#xe914;" d="M402.538 568.055c0-60.028 49.434-109.462 109.462-109.462s109.462 49.434 109.462 109.462-49.434 109.462-109.462 109.462-109.462-49.434-109.462-109.462zM512 621.021c30.014 0 52.966-24.717 52.966-52.966s-24.717-52.966-52.966-52.966c-30.014 0-52.966 24.717-52.966 52.966s22.952 52.966 52.966 52.966z" />
<glyph unicode="&#xe915;" d="M538.483 154.924c60.028 75.917 192.441 263.062 192.441 399.007 0 121.821-98.869 220.69-220.69 220.69s-220.69-98.869-220.69-220.69c0-135.945 132.414-323.090 192.441-399.007 17.655-22.952 28.248-35.31 28.248-35.31s12.359 14.124 28.248 35.31zM619.697 568.055c0-60.028-49.434-109.462-109.462-109.462s-109.462 49.434-109.462 109.462 49.434 109.462 109.462 109.462 109.462-49.434 109.462-109.462z" />
<glyph unicode="&#xe916;" d="M564.966 568.055c0-29.252-23.713-52.966-52.966-52.966s-52.966 23.713-52.966 52.966c0 29.252 23.713 52.966 52.966 52.966s52.966-23.713 52.966-52.966z" />
<glyph unicode="&#xe917;" d="M538.483 154.924c-17.655-21.186-28.248-35.31-28.248-35.31s-10.593 12.359-28.248 35.31c-60.028-3.531-105.931-17.655-105.931-35.31 0-19.421 60.028-35.31 132.414-35.31s132.414 15.89 132.414 35.31c0 17.655-42.372 31.779-102.4 35.31z" />
<glyph unicode="&#xe918;" d="M402.538 568.055c0-60.028 49.434-109.462 109.462-109.462s109.462 49.434 109.462 109.462-49.434 109.462-109.462 109.462-109.462-49.434-109.462-109.462zM512 621.021c30.014 0 52.966-24.717 52.966-52.966s-24.717-52.966-52.966-52.966c-30.014 0-52.966 24.717-52.966 52.966s22.952 52.966 52.966 52.966z" />
<glyph unicode="&#xe919;" d="M538.483 154.924c60.028 75.917 192.441 263.062 192.441 399.007 0 121.821-98.869 220.69-220.69 220.69s-220.69-98.869-220.69-220.69c0-135.945 132.414-323.090 192.441-399.007 17.655-22.952 28.248-35.31 28.248-35.31s12.359 14.124 28.248 35.31zM619.697 568.055c0-60.028-49.434-109.462-109.462-109.462s-109.462 49.434-109.462 109.462 49.434 109.462 109.462 109.462 109.462-49.434 109.462-109.462z" />
<glyph unicode="&#xe91a;" d="M564.966 568.055c0-29.252-23.713-52.966-52.966-52.966s-52.966 23.713-52.966 52.966c0 29.252 23.713 52.966 52.966 52.966s52.966-23.713 52.966-52.966z" />
<glyph unicode="&#xe91b;" d="M538.483 154.924c-17.655-21.186-28.248-35.31-28.248-35.31s-10.593 12.359-28.248 35.31c-60.028-3.531-105.931-17.655-105.931-35.31 0-19.421 60.028-35.31 132.414-35.31s132.414 15.89 132.414 35.31c0 17.655-42.372 31.779-102.4 35.31z" />
<glyph unicode="&#xe91c;" d="M402.538 568.055c0-60.028 49.434-109.462 109.462-109.462s109.462 49.434 109.462 109.462-49.434 109.462-109.462 109.462-109.462-49.434-109.462-109.462zM512 621.021c30.014 0 52.966-24.717 52.966-52.966s-24.717-52.966-52.966-52.966c-30.014 0-52.966 24.717-52.966 52.966s22.952 52.966 52.966 52.966z" />
<glyph unicode="&#xe91d;" d="M538.483 154.924c60.028 75.917 192.441 263.062 192.441 399.007 0 121.821-98.869 220.69-220.69 220.69s-220.69-98.869-220.69-220.69c0-135.945 132.414-323.090 192.441-399.007 17.655-22.952 28.248-35.31 28.248-35.31s12.359 14.124 28.248 35.31zM619.697 568.055c0-60.028-49.434-109.462-109.462-109.462s-109.462 49.434-109.462 109.462 49.434 109.462 109.462 109.462 109.462-49.434 109.462-109.462z" />
<glyph unicode="&#xe91e;" d="M564.966 568.055c0-29.252-23.713-52.966-52.966-52.966s-52.966 23.713-52.966 52.966c0 29.252 23.713 52.966 52.966 52.966s52.966-23.713 52.966-52.966z" />
<glyph unicode="&#xe91f;" d="M538.483 154.924c-17.655-21.186-28.248-35.31-28.248-35.31s-10.593 12.359-28.248 35.31c-60.028-3.531-105.931-17.655-105.931-35.31 0-19.421 60.028-35.31 132.414-35.31s132.414 15.89 132.414 35.31c0 17.655-42.372 31.779-102.4 35.31z" />
<glyph unicode="&#xe920;" d="M402.538 568.055c0-60.028 49.434-109.462 109.462-109.462s109.462 49.434 109.462 109.462c0 60.028-49.434 109.462-109.462 109.462s-109.462-49.434-109.462-109.462zM512 621.021c30.014 0 52.966-24.717 52.966-52.966s-24.717-52.966-52.966-52.966c-30.014 0-52.966 24.717-52.966 52.966s22.952 52.966 52.966 52.966z" />
<glyph unicode="&#xe921;" d="M538.483 154.924c60.028 75.917 192.441 263.062 192.441 399.007 0 121.821-98.869 220.69-220.69 220.69s-220.69-98.869-220.69-220.69c0-135.945 132.414-323.090 192.441-399.007 17.655-22.952 28.248-35.31 28.248-35.31s12.359 14.124 28.248 35.31zM619.697 568.055c0-60.028-49.434-109.462-109.462-109.462s-109.462 49.434-109.462 109.462c0 60.028 49.434 109.462 109.462 109.462s109.462-49.434 109.462-109.462z" />
<glyph unicode="&#xe922;" d="M564.966 568.055c0-29.252-23.713-52.966-52.966-52.966s-52.966 23.713-52.966 52.966c0 29.252 23.713 52.966 52.966 52.966s52.966-23.713 52.966-52.966z" />
<glyph unicode="&#xe923;" d="M766.635 534.699c-2.048 12.971-6.144 25.941-12.971 38.229-3.413 6.144-6.827 12.288-11.605 18.432l-12.971-54.613c12.971-2.048 25.259-2.731 37.547-2.048z" />
<glyph unicode="&#xe924;" d="M684.715 553.813c10.923-6.144 21.845-10.923 34.133-14.336l12.971 54.613c-19.115-10.24-34.816-23.893-47.104-40.277z" />
<glyph unicode="&#xe925;" d="M715.435 597.504c-22.528 0-43.691-6.827-61.44-19.115 6.827-6.827 13.653-12.971 21.163-18.432 10.923 15.019 24.576 27.307 40.277 37.547z" />
<glyph unicode="&#xe926;" d="M768 523.093c-13.653-1.365-27.307 0-40.96 2.731l-6.827-28.672 45.739-10.923c2.731 12.288 3.413 24.576 2.048 36.864z" />
<glyph unicode="&#xe927;" d="M763.904 475.307l-45.739 10.923-6.827-28.672c12.971-3.413 25.941-8.875 38.229-16.384 6.144 10.923 10.923 22.528 14.336 34.133z" />
<glyph unicode="&#xe928;" d="M716.117 528.555c-12.971 3.413-25.941 8.875-37.547 15.701-6.144-10.24-11.605-21.845-15.019-33.451l45.739-10.923 6.827 28.672z" />
<glyph unicode="&#xe929;" d="M654.677 518.997c3.413 10.923 8.192 21.845 14.336 31.403-8.875 6.144-16.384 12.971-23.893 21.163-14.336-12.971-25.941-29.355-31.403-49.152l38.912-8.875c0.683 1.365 1.365 3.413 2.048 5.461z" />
<glyph unicode="&#xe92a;" d="M778.24 536.064c8.875 1.365 18.432 4.096 27.307 6.827-10.24 19.115-26.624 34.816-46.421 44.373 2.048-2.731 3.413-6.144 5.461-9.557 6.144-12.971 10.923-27.307 13.653-41.643z" />
<glyph unicode="&#xe92b;" d="M658.773 463.019c13.653 1.365 27.989 0 40.96-2.731l6.827 28.672-45.739 10.923c-2.048-12.288-2.731-24.576-2.048-36.864z" />
<glyph unicode="&#xe92c;" d="M779.605 524.459c1.365-13.653 0.683-27.307-2.048-40.96l38.912-8.875c3.413 19.797 1.365 40.277-6.144 58.027-10.24-3.413-20.48-6.144-30.72-8.192z" />
<glyph unicode="&#xe92d;" d="M772.779 465.749c-3.413-10.923-8.192-21.163-13.653-30.72 8.192-6.144 16.384-12.971 23.893-20.48 14.336 12.971 25.941 29.355 31.403 49.152l-38.912 8.875c-1.365-2.048-2.048-4.096-2.731-6.827z" />
<glyph unicode="&#xe92e;" d="M649.899 502.613v0l-38.912 8.875c-3.413-19.797-1.365-40.277 6.144-58.027 10.24 4.096 20.48 6.144 30.72 8.192-1.365 13.653-0.683 27.307 2.048 40.96z" />
<glyph unicode="&#xe92f;" d="M713.387 388.608c21.845 0 42.325 6.827 60.075 19.115-6.144 6.827-13.653 12.971-21.163 18.432-10.24-15.019-23.211-27.307-38.912-37.547z" />
<glyph unicode="&#xe930;" d="M942.763 665.088l-357.717 83.968c-11.605 2.731-23.893-4.779-26.624-16.384l-120.149-512c-2.731-11.605 4.779-23.893 16.384-26.624l357.717-83.968c11.605-2.731 23.893 4.779 26.624 16.384l120.149 512.683c3.413 10.923-4.096 23.211-16.384 25.941zM802.816 235.008c-2.048-8.875-10.923-14.336-19.797-12.288l-240.299 56.661c-8.875 2.048-14.336 10.923-12.288 19.797s10.923 14.336 19.797 12.288l240.299-56.661c8.875-2.048 14.336-10.923 12.288-19.797zM826.709 467.115c0 0-0.683 0 0 0-0.683 0-0.683-0.683 0 0 0-0.683 0-0.683 0-0.683-14.336-61.44-76.459-100.352-138.581-86.016h-0.683c0 0 0 0 0 0s0 0 0 0c-30.037 6.827-55.296 25.259-71.68 51.2s-21.163 57.344-14.336 86.699c0 0 0 0 0 0.683 0 0 0 0 0 0s0 0 0 0c14.336 61.44 76.459 100.352 138.581 86.016h1.365c30.037-7.509 55.296-25.259 70.997-51.2s21.163-56.661 14.336-86.699z" />
<glyph unicode="&#xe931;" d="M742.741 432.299c-10.923 6.144-22.528 11.605-34.133 14.336l-12.971-55.296c19.115 10.24 35.499 24.576 47.104 40.96z" />
<glyph unicode="&#xe932;" d="M649.216 450.048c-8.875-1.365-18.432-3.413-26.624-6.827 10.24-18.432 25.941-34.133 45.056-43.691-1.365 2.731-2.731 4.779-4.096 7.509-7.509 14.336-12.288 28.672-14.336 43.008z" />
<glyph unicode="&#xe933;" d="M660.139 451.413c2.048-13.653 6.144-26.624 12.971-39.595 3.413-6.144 6.827-12.971 11.605-18.432l12.971 55.296c-12.288 3.413-24.576 4.096-37.547 2.731z" />
<glyph unicode="&#xe934;" d="M948.224 686.251l-358.4 84.651c-23.893 5.461-47.104-8.875-53.248-32.768l-120.149-512.683c-5.461-23.893 8.875-47.104 32.768-53.248l357.717-83.968c23.893-5.461 47.104 8.875 53.248 32.768l120.149 512.683c6.144 23.211-8.875 47.104-32.085 52.565zM959.147 638.464l-120.149-512.683c-2.731-11.605-14.336-19.115-26.624-16.384l-357.717 84.651c-11.605 2.731-19.115 14.336-16.384 26.624l120.149 512.683c2.731 11.605 14.336 19.115 26.624 16.384l357.717-83.968c12.288-3.413 19.797-15.701 16.384-27.307z" />
<glyph unicode="&#xe935;" d="M740.693 605.696h-1.365c-61.44 14.336-123.563-24.576-137.899-86.016 0 0 0 0 0 0s0 0 0 0 0 0 0-0.683c-6.827-30.037-2.048-60.757 14.336-86.699s41.643-44.373 71.68-51.2c0 0 0 0 0 0s0 0 0 0h0.683c62.123-14.336 123.563 24.576 138.581 86.016 0 0 0 0 0 0s0 0 0 0 0 0 0 0.683c6.827 30.037 2.048 60.757-14.336 86.699-16.384 25.259-41.643 43.691-71.68 51.2zM805.547 542.891c-8.875-3.413-18.432-5.461-27.307-6.827-2.731 14.336-6.827 28.672-13.653 42.325-1.365 3.413-3.413 6.144-5.461 9.557 19.797-10.24 36.181-25.941 46.421-45.056zM663.552 510.805c3.413 11.605 8.192 23.211 15.019 33.451 11.605-6.827 24.576-12.288 37.547-15.701l-6.827-28.672-45.739 10.923zM707.243 488.96l-6.827-28.672c-13.653 2.731-27.307 3.413-40.96 2.731-0.683 12.288 0 24.576 2.048 36.864l45.739-10.923zM718.165 486.229l45.739-10.923c-3.413-11.605-8.192-23.211-14.336-34.133-11.605 6.827-24.576 12.288-38.229 16.384l6.827 28.672zM720.896 497.152l6.827 28.672c13.653-2.731 27.307-3.413 40.96-2.731 1.365-12.288 0.683-24.576-2.048-36.864l-45.739 10.923zM742.741 591.36c4.096-6.144 8.192-12.288 11.605-18.432 6.144-12.288 10.24-25.259 12.971-38.229-12.288-0.683-24.576 0-36.864 2.048l12.288 54.613zM731.819 594.091l-12.971-54.613c-11.605 3.413-23.211 8.192-34.133 14.336 12.288 16.384 27.989 30.037 47.104 40.277zM715.435 597.504c-15.701-10.24-29.355-22.528-40.277-37.547-7.509 5.461-15.019 11.605-21.163 18.432 17.749 12.288 38.912 19.115 61.44 19.115zM645.12 571.563c7.509-8.192 15.701-15.019 23.893-21.163-6.144-9.557-10.923-20.48-14.336-31.403-0.683-2.048-1.365-4.096-2.048-6.144l-38.912 8.875c5.461 20.48 17.067 36.864 31.403 49.835zM610.987 511.488l38.912-8.875c-2.731-13.653-3.413-27.307-2.048-40.96-10.24-1.365-20.48-4.096-30.72-8.192-6.827 17.749-9.557 38.229-6.144 58.027zM621.909 443.221c8.875 3.413 17.749 5.461 26.624 6.827 2.731-15.019 6.827-29.355 14.336-43.008 1.365-2.731 2.731-4.779 4.096-7.509-19.115 9.557-34.816 25.259-45.056 43.691zM684.715 394.069c-4.096 6.144-8.192 12.288-11.605 18.432-6.144 12.971-10.923 25.941-12.971 39.595 12.288 0.683 25.259 0 37.547-2.048l-12.971-55.979zM695.637 391.339l12.971 55.296c12.288-3.413 23.211-8.192 34.133-14.336-11.605-16.384-27.989-30.72-47.104-40.96zM713.387 388.608c15.019 10.24 28.672 22.528 38.912 37.547 7.509-5.461 14.336-11.605 21.163-18.432-17.067-12.288-38.229-19.115-60.075-19.115zM782.336 414.549c-7.509 7.509-15.019 15.019-23.893 20.48 5.461 9.557 10.24 19.797 13.653 30.72 0.683 2.048 1.365 4.779 2.048 6.827l38.912-8.875c-4.779-19.797-15.701-36.181-30.72-49.152zM816.469 474.624l-38.912 8.875c2.731 13.653 3.413 27.307 2.048 40.96 10.24 1.365 20.48 4.096 30.72 8.192 7.509-17.749 9.557-37.547 6.144-58.027z" />
<glyph unicode="&#xe936;" d="M790.528 254.805l-240.299 56.661c-8.875 2.048-17.749-3.413-19.797-12.288s3.413-17.749 12.288-19.797l240.299-56.661c8.875-2.048 17.749 3.413 19.797 12.288s-3.413 17.749-12.288 19.797z" />
<glyph unicode="&#xe937;" d="M288.085 486.229c12.288-16.384 27.989-30.72 47.104-40.96l-12.971 55.296c-11.605-2.731-23.211-7.509-34.133-14.336z" />
<glyph unicode="&#xe938;" d="M333.141 503.979l12.971-55.296c4.096 6.144 8.192 12.288 11.605 18.432 6.144 12.971 10.923 25.941 12.971 39.595-12.288 0-25.259-0.683-37.547-2.731z" />
<glyph unicode="&#xe939;" d="M380.928 556.544c2.731-13.653 3.413-27.307 2.048-40.96 10.24-1.365 20.48-4.096 30.72-8.192 7.509 17.749 9.557 37.547 6.144 58.027l-38.912-8.875z" />
<glyph unicode="&#xe93a;" d="M367.957 461.653c-1.365-2.731-2.731-4.779-4.096-7.509 19.797 9.557 34.816 25.259 45.056 43.691-8.875 3.413-17.749 5.461-26.624 6.827-2.731-15.019-7.509-29.355-14.336-43.008z" />
<glyph unicode="&#xe93b;" d="M372.053 516.949c0.683 12.288 0 24.576-2.048 36.864l-45.739-10.923 6.827-28.672c12.971 2.731 27.307 4.096 40.96 2.731z" />
<glyph unicode="&#xe93c;" d="M319.488 512.171l-6.827 28.672-45.739-10.923c3.413-11.605 8.192-23.211 14.336-34.133 12.288 7.509 25.259 12.971 38.229 16.384z" />
<glyph unicode="&#xe93d;" d="M278.528 480.085c-7.509-5.461-14.336-11.605-21.163-18.432 17.067-12.288 38.229-19.115 60.075-19.115-15.019 10.24-28.672 23.211-38.912 37.547z" />
<glyph unicode="&#xe93e;" d="M262.827 577.707c-1.365-12.288-0.683-24.576 2.048-36.864l45.739 10.923-6.827 28.672c-13.653-3.413-27.307-4.096-40.96-2.731z" />
<glyph unicode="&#xe93f;" d="M314.709 582.485l6.827-28.672 45.739 10.923c-3.413 11.605-8.192 23.211-15.019 33.451-11.605-6.827-24.576-12.288-37.547-15.701z" />
<glyph unicode="&#xe940;" d="M376.832 573.611c0.683-2.048 1.365-4.096 2.048-6.144l38.912 8.875c-5.461 19.797-17.067 36.181-31.403 49.152-7.509-8.192-15.701-15.019-23.893-21.163 5.461-9.557 10.24-19.797 14.336-30.72z" />
<glyph unicode="&#xe941;" d="M248.491 469.163c7.509 7.509 15.019 15.019 23.893 20.48-5.461 9.557-10.24 19.797-13.653 30.72-0.683 2.048-1.365 4.779-2.048 6.827l-38.912-8.875c5.461-19.797 16.384-36.864 30.72-49.152z" />
<glyph unicode="&#xe942;" d="M472.405 786.603c-2.731 11.605-14.336 19.115-26.624 16.384l-357.717-83.968c-11.605-2.731-19.115-14.336-16.384-26.624l120.149-512.683c2.731-11.605 14.336-19.115 26.624-16.384l357.717 83.968c11.605 2.731 19.115 14.336 16.384 26.624l-120.149 512.683zM204.8 521.045c0 0 0 0 0 0s0 0 0 0c0 0.683 0 0.683 0 0.683-6.827 30.037-2.048 60.757 14.336 86.699s41.643 44.373 70.997 51.2h1.365c62.123 14.336 123.563-23.893 138.581-86.016 0 0 0 0 0 0s0 0 0 0 0 0 0-0.683c6.827-30.037 2.048-60.757-14.336-86.699s-41.643-44.373-71.68-51.2c0 0 0 0 0 0s0 0 0 0h-0.683c-62.123-14.336-124.245 23.893-138.581 86.016zM488.789 333.312l-240.299-56.661c-8.875-2.048-17.749 3.413-19.797 12.288s3.413 17.749 12.288 19.797l240.299 56.661c8.875 2.048 17.749-3.413 19.797-12.288s-3.413-17.749-12.288-19.797z" />
<glyph unicode="&#xe943;" d="M251.904 579.072c-10.24 1.365-20.48 4.096-30.72 8.192-7.509-17.749-9.557-37.547-6.144-58.027l38.912 8.875c-2.731 13.653-3.413 27.307-2.048 40.96z" />
<glyph unicode="&#xe944;" d="M301.056 590.677l-12.971 54.613c-4.096-6.144-8.192-12.288-11.605-18.432-6.144-12.288-10.24-25.259-12.971-38.229 12.971-0.683 25.941 0 37.547 2.048z" />
<glyph unicode="&#xe945;" d="M266.923 632.32c1.365 3.413 3.413 6.144 5.461 9.557-19.797-9.557-36.181-25.259-46.421-44.373 8.875-3.413 18.432-5.461 27.307-6.827 2.048 13.653 6.827 27.989 13.653 41.643z" />
<glyph unicode="&#xe946;" d="M346.112 607.744c-11.605 16.384-27.989 30.037-46.421 40.277l12.971-54.613c11.605 3.413 22.528 8.192 33.451 14.336z" />
<glyph unicode="&#xe947;" d="M355.669 613.888c7.509 5.461 15.019 11.605 21.163 18.432-17.749 12.288-38.912 19.115-61.44 19.115 16.384-9.557 29.355-22.528 40.277-37.547z" />
<glyph unicode="&#xe948;" d="M614.4 279.381l-120.149 512.683c-5.461 23.893-29.355 38.229-53.248 32.768l-357.717-83.968c-23.893-5.461-38.229-29.355-32.768-53.248l120.149-512c5.461-23.893 29.355-38.229 53.248-32.768l357.717 83.968c23.893 5.461 38.229 29.355 32.768 52.565zM576.853 247.979l-358.4-83.968c-11.605-2.731-23.893 4.779-26.624 16.384l-120.149 512c-2.731 11.605 4.779 23.893 16.384 26.624l357.717 83.968c11.605 2.731 23.893-4.779 26.624-16.384l120.149-512.683c3.413-10.923-4.096-23.211-15.701-25.941z" />
<glyph unicode="&#xe949;" d="M343.381 434.347v0c0.683 0.683 0.683 0.683 0 0 0.683 0.683 0.683 0.683 0 0 30.72 7.509 55.979 25.259 72.363 51.2s21.163 57.344 14.336 86.699c0 0 0 0 0 0.683 0 0 0 0 0 0s0 0 0 0c-14.336 61.44-76.459 100.352-138.581 86.016h-1.365c-30.037-7.509-55.296-25.259-70.997-51.2-16.384-25.941-21.163-56.661-14.336-86.699 0 0 0 0 0-0.683 0 0 0 0 0 0s0 0 0 0c14.336-61.44 76.459-99.669 138.581-86.016zM257.365 461.653c6.144 6.827 13.653 12.971 21.163 18.432 10.24-14.336 23.893-27.307 38.912-37.547-21.845 0.683-42.325 7.509-60.075 19.115zM313.344 540.843l6.827-28.672c-12.971-3.413-25.941-8.875-38.229-16.384-6.144 10.923-10.923 21.845-14.336 34.133l45.739 10.923zM264.875 540.843c-2.048 12.288-2.731 24.576-2.048 36.864 13.653-1.365 27.307 0 40.96 2.731l6.827-28.672-45.739-10.923zM321.536 553.813l-6.827 28.672c12.971 3.413 25.941 8.875 37.547 15.701 6.144-10.24 11.605-21.845 15.019-33.451l-45.739-10.923zM370.005 553.813c2.048-12.288 3.413-24.576 2.048-36.864-13.653 1.365-27.989 0-40.96-2.731l-6.827 28.672 45.739 10.923zM288.085 486.229c10.923 6.144 22.528 11.605 34.133 14.336l12.971-55.296c-19.115 10.24-34.816 24.576-47.104 40.96zM346.112 448l-12.971 55.296c12.288 2.048 24.576 3.413 37.547 2.048-2.048-13.653-6.144-26.624-12.971-39.595-3.413-5.461-6.827-11.605-11.605-17.749zM363.861 454.144c1.365 2.731 2.731 4.779 4.096 7.509 6.827 13.653 11.605 27.989 14.336 43.008 8.875-1.365 18.432-3.413 26.624-6.827-10.24-19.115-25.941-34.133-45.056-43.691zM413.696 507.392c-10.24 4.096-20.48 6.144-30.72 8.192 1.365 13.653 0 27.307-2.048 40.96v0l38.912 8.875c3.413-19.797 1.365-39.595-6.144-58.027zM417.109 576.341l-38.912-8.875c-0.683 2.048-1.365 4.096-2.048 6.144-3.413 10.923-8.192 21.845-14.336 31.403 8.875 6.144 16.384 12.971 23.893 21.163 15.019-12.971 25.941-30.037 31.403-49.835zM376.832 633.003c-6.827-6.827-13.653-12.971-21.163-18.432-10.923 15.019-24.576 27.307-40.277 37.547 22.528 0 44.373-6.827 61.44-19.115zM346.112 607.744c-10.923-6.144-21.845-10.923-34.133-14.336l-12.971 54.613c19.797-10.24 35.499-23.893 47.104-40.277zM288.768 645.291l12.971-54.613c-12.288-2.048-24.576-3.413-36.864-2.048 2.048 12.971 6.144 25.941 12.971 38.229 2.731 6.827 6.144 12.971 10.923 18.432zM272.384 641.195c-2.048-2.731-3.413-6.144-5.461-9.557-6.827-13.653-11.605-27.307-13.653-42.325-8.875 1.365-18.432 4.096-27.307 6.827 10.24 19.797 25.941 35.499 46.421 45.056zM221.184 586.581c10.24-4.096 20.48-6.144 30.72-8.192-1.365-13.653-0.683-27.307 2.048-40.96l-38.912-8.875c-4.096 20.48-1.365 40.277 6.144 58.027zM256 527.189c0.683-2.048 1.365-4.779 2.048-6.827 3.413-10.923 8.192-21.163 13.653-30.72-8.192-6.144-16.384-12.971-23.893-20.48-14.336 12.971-25.941 29.355-31.403 49.152l39.595 8.875z" />
<glyph unicode="&#xe94a;" d="M480.597 365.397l-240.299-56.661c-8.875-2.048-14.336-10.923-12.288-19.797s10.923-14.336 19.797-12.288l240.299 56.661c8.875 2.048 14.336 10.923 12.288 19.797-1.365 8.875-10.923 14.336-19.797 12.288z" />
<glyph unicode="&#xe94b;" glyph-name="questionmark" horiz-adv-x="1028" d="M976.707 445.944c0-256-206.651-462.651-462.651-462.651s-462.651 206.651-462.651 462.651 206.651 462.651 462.651 462.651 462.651-206.651 462.651-462.651zM570.602 263.968c-6.169 6.169-13.365 11.309-21.59 14.394-17.478 7.197-37.012 7.197-54.49 0-8.225-3.084-15.422-8.225-21.59-14.394s-11.309-13.365-14.394-21.59c-3.084-8.225-5.141-17.478-5.141-26.731s2.056-18.506 5.141-26.731c3.084-8.225 8.225-15.422 14.394-21.59s13.365-11.309 21.59-14.394 17.478-5.141 26.731-5.141c9.253 0 18.506 2.056 26.731 5.141s15.422 8.225 21.59 14.394 11.309 13.365 14.394 21.59c4.112 8.225 5.141 17.478 5.141 26.731s-2.056 18.506-5.141 26.731c-3.084 9.253-7.197 16.45-13.365 21.59zM687.807 661.847c-8.225 17.478-19.534 32.9-33.928 45.237s-31.871 21.59-51.406 28.787c-19.534 6.169-41.124 10.281-64.771 10.281-17.478 0-33.928-2.056-48.321-5.141-15.422-3.084-28.787-7.197-42.153-13.365-12.337-5.141-24.675-12.337-35.984-19.534s-21.59-15.422-29.815-23.647l-6.169-5.141 29.815-46.265c6.169-11.309 15.422-16.45 28.787-16.45 6.169 0 12.337 2.056 18.506 6.169 5.141 3.084 10.281 7.197 17.478 10.281 6.169 4.112 14.394 7.197 24.675 10.281 9.253 3.084 21.59 4.112 34.956 4.112 9.253 0 17.478-1.028 25.703-4.112 7.197-2.056 14.394-6.169 19.534-10.281s9.253-10.281 12.337-16.45 4.112-13.365 4.112-21.59c0-12.337-2.056-23.647-7.197-32.9s-12.337-18.506-19.534-25.703c-8.225-8.225-17.478-15.422-26.731-22.618s-18.506-14.394-28.787-22.618c-8.225-7.197-16.45-15.422-22.618-25.703-6.169-9.253-9.253-20.562-9.253-34.956v-3.084c0-2.056-1.028-3.084 0-4.112l6.169-69.912h82.249l10.281 65.799c1.028 7.197 4.112 13.365 9.253 18.506 6.169 6.169 14.394 12.337 22.618 19.534 9.253 7.197 18.506 14.394 28.787 21.59 10.281 8.225 20.562 18.506 29.815 29.815s17.478 24.675 23.647 40.096c6.169 15.422 9.253 33.928 9.253 55.518 1.028 20.562-3.084 40.096-11.309 57.574z" />
<glyph unicode="&#xe94c;" glyph-name="world-location" d="M249.519 441.519c0 0 184.709 181.468 184.709 333.772 0 100.456-81.013 184.709-184.709 184.709s-181.468-81.013-181.468-184.709c0-158.785 181.468-333.772 181.468-333.772zM155.544 775.291c0 51.848 42.127 93.975 93.975 93.975s93.975-42.127 93.975-93.975c0-51.848-42.127-93.975-93.975-93.975s-93.975 42.127-93.975 93.975zM926.785 713.722l-16.203-3.241-77.772-9.722-22.684-35.646-16.203 3.241-64.81 58.329-9.722 29.165-12.962 32.405-38.886 35.646-45.367 9.722v-22.684l45.367-45.367 22.684-25.924-25.924-12.962-19.443 6.481-32.405 12.962v25.924l-38.886 16.203-12.962-58.329-42.127-9.722 3.241-32.405 51.848-9.722 9.722 51.848 45.367-6.481 19.443-12.962h32.405l22.684-45.367 58.329-61.57-3.241-22.684-45.367 6.481-84.253-42.127-58.329-71.291-6.481-32.405h-22.684l-38.886 19.443-38.886-19.443 9.722-42.127 16.203 19.443h29.165l-3.241-35.646 25.924-6.481 25.924-29.165 38.886 9.722 45.367-6.481 51.848-12.962 25.924-3.241 45.367-51.848 87.494-51.848-55.089-106.937-61.57-22.684-22.684-61.57-84.253-58.329-9.722-32.405c220.354 51.848 382.38 249.519 382.38 486.076 0 103.696-32.405 197.671-84.253 278.684zM570.329 172.557l-35.646 68.051 32.405 68.051-32.405 9.722-38.886 38.886-84.253 19.443-29.165 58.329v-35.646h-12.962l-51.848 71.291c-25.924-29.165-45.367-51.848-48.608-51.848l-22.684-22.684-19.443 22.684c-6.481 6.481-113.418 106.937-165.266 230.076-32.405-64.81-48.608-139.342-48.608-213.873 0-275.443 223.595-499.038 499.038-499.038 22.684 0 42.127 3.241 61.57 3.241l-6.481 61.57c0 0 22.684 90.734 22.684 93.975 3.241 3.241-19.443 77.772-19.443 77.772zM473.114 836.861l35.646-6.481 90.734 9.722 25.924 25.924 35.646 22.684 48.608-6.481 19.443 3.241c-64.81 29.165-136.101 48.608-213.873 48.608-35.646 0-71.291-3.241-103.696-9.722 25.924-29.165 45.367-64.81 51.848-103.696l9.722 16.203zM534.684 885.468l48.608 25.924 32.405-19.443-48.608-35.646-45.367-3.241-19.443 12.962 32.405 19.443z" />
</font>
</defs>
</svg>
